<?xml version="1.0" standalone="no"?>
<!DOCTYPE svg PUBLIC "-//W3C//DTD SVG 1.1//EN" "http://www.w3.org/Graphics/SVG/1.1/DTD/svg11.dtd" >
<svg xmlns="http://www.w3.org/2000/svg" xmlns:xlink="http://www.w3.org/1999/xlink" version="1.1">
<metadata>
Created by FontForge 20170731 at Mon Sep  7 10:24:27 2015
 By Aleksey,,,
Copyright(c) Beijing Founder Electronics Co.,Ltd.2015
</metadata>
<defs>
<font id="FZJUNH_XIANJW--GB1-0" horiz-adv-x="211" vert-adv-y="256" >
  <font-face 
    font-family="FZJunHeiS-EL-GB"
    font-weight="400"
    font-stretch="normal"
    units-per-em="256"
    panose-1="2 0 0 0 0 0 0 0 0 0"
    ascent="221"
    descent="-35"
    x-height="129"
    cap-height="178"
    bbox="-9 -56 212 221"
    underline-thickness="12"
    underline-position="-62"
    unicode-range="U+0020-FFE5"
  />
<missing-glyph 
 />
    <glyph glyph-name=".notdef" 
 />
    <glyph glyph-name=".null" horiz-adv-x="0" vert-adv-y="0" 
 />
    <glyph glyph-name="nonmarkingreturn" horiz-adv-x="85" 
 />
    <glyph glyph-name="space" unicode=" " horiz-adv-x="69" 
 />
    <glyph glyph-name="exclam" unicode="!" horiz-adv-x="62" 
d="M26 178h11l-3 -130h-5zM36 10v-14h-9v14h9z" />
    <glyph glyph-name="quotedbl" unicode="&#x22;" horiz-adv-x="68" 
d="M13 180h10l-2 -48h-5zM46 180h9l-2 -48h-5z" />
    <glyph glyph-name="numbersign" unicode="#" horiz-adv-x="124" 
d="M63 -4l11 62h-36l-11 -62h-6l11 62h-27l1 5h27l9 53h-24l1 5h24l11 57h6l-10 -57h35l10 57h6l-10 -57h29v-2q-1 -2 -1 -3h-29l-9 -53h26l-1 -5h-26l-10 -62h-7zM49 116l-10 -53h36l9 53h-35z" />
    <glyph glyph-name="dollar" unicode="$" horiz-adv-x="129" 
d="M114 138l-8 -2q-5 34 -37 36v-79q50 -14 49 -50q-1 -44 -49 -47v-20h-4v20q-45 0 -54 40l7 2q7 -36 47 -36v85q-50 11 -49 48q3 40 47 43h2v20h4v-20q38 -3 45 -40zM69 86v-84q42 1 41 41q1 32 -41 43zM65 95v77h-1q-37 -2 -40 -37q-2 -28 41 -40z" />
    <glyph glyph-name="percent" unicode="%" horiz-adv-x="199" 
d="M59 -6h-8l90 186h8zM48 94q22 2 23 41q-1 38 -23 40q-23 -2 -24 -41q1 -38 24 -40zM48 180q30 -1 31 -46q-1 -45 -32 -46q-30 2 -31 46q1 45 32 46zM153 -1q23 2 24 41q-1 39 -24 40q-24 -1 -24 -41q1 -38 24 -40zM153 86q30 -2 31 -47q0 -44 -32 -45q-30 2 -31 45
q1 45 32 47z" />
    <glyph glyph-name="ampersand" unicode="&#x26;" horiz-adv-x="158" 
d="M127 78h8q0 -29 -12 -50q6 -7 19 -22q7 -6 10 -10h-9l-24 26q-22 -27 -59 -28q-46 2 -48 47q-1 35 41 56q-20 26 -21 47q1 35 37 36q33 -1 34 -36q2 -28 -39 -50q7 -8 25 -28q17 -20 28 -32q11 18 10 44zM114 28q-32 33 -56 63q-40 -20 -39 -48q4 -40 40 -44q34 0 55 29z
M40 144q-1 -18 19 -44q40 19 36 44q0 31 -27 31q-27 -2 -28 -31z" />
    <glyph glyph-name="quotesingle" unicode="'" horiz-adv-x="38" 
d="M14 180h10l-2 -48h-5z" />
    <glyph glyph-name="parenleft" unicode="(" horiz-adv-x="75" 
d="M61 -6h-4q-37 47 -36 93q1 50 36 93h4q-33 -45 -32 -93q-1 -47 32 -93z" />
    <glyph glyph-name="parenright" unicode=")" horiz-adv-x="74" 
d="M23 -6h-5q34 46 33 93q1 49 -33 93h5q36 -44 36 -93q1 -46 -36 -93z" />
    <glyph glyph-name="asterisk" unicode="*" horiz-adv-x="91" 
d="M80 154l3 -8l-35 -8l25 -33l-6 -4l-21 35l-20 -34l-7 4l26 32l-36 8l4 8l32 -14l-3 40h9l-4 -40z" />
    <glyph glyph-name="plus" unicode="+" horiz-adv-x="134" 
d="M121 90v-6h-50v-58h-7v58h-51v6h51v56h7v-56h50z" />
    <glyph glyph-name="comma" unicode="," horiz-adv-x="59" 
d="M37 18v-17q1 -29 -17 -43l-1 2q15 13 15 39v1h-11v18h14z" />
    <glyph glyph-name="hyphen" unicode="-" horiz-adv-x="121" 
d="M106 90v-6h-91v6h91z" />
    <glyph glyph-name="period" unicode="." horiz-adv-x="59" 
d="M37 17v-17h-15v17h15z" />
    <glyph glyph-name="slash" unicode="/" horiz-adv-x="60" 
d="M8 -6h-6l50 186h7z" />
    <glyph glyph-name="zero" unicode="0" horiz-adv-x="125" 
d="M62 -1q44 -2 43 88q0 89 -43 88q-42 0 -42 -88q0 -89 42 -88zM62 180q50 -1 51 -93q0 -94 -51 -93q-50 -1 -50 93q1 91 50 93z" />
    <glyph glyph-name="one" unicode="1" horiz-adv-x="99" 
d="M63 -4h-7v165q-18 -18 -47 -25v6q45 12 49 38h5v-184z" />
    <glyph glyph-name="two" unicode="2" horiz-adv-x="121" 
d="M110 2v-6h-100v5q14 35 52 70q41 37 40 62q-2 40 -40 42q-27 0 -41 -36l-7 2q13 39 50 39q43 -2 45 -47q2 -29 -41 -66q-38 -34 -51 -65h93z" />
    <glyph glyph-name="three" unicode="3" horiz-adv-x="124" 
d="M9 35l8 1q10 -38 42 -37q44 1 45 47q-2 41 -48 43h-10v5h10q40 2 42 42q-1 38 -38 39q-29 -1 -39 -34q-1 0 -3 1q-3 0 -4 1q9 36 46 37q44 -1 45 -45q0 -32 -27 -44q33 -9 34 -45q-1 -51 -53 -52q-40 -1 -50 41z" />
    <glyph glyph-name="four" unicode="4" horiz-adv-x="125" 
d="M11 51h73v118zM113 45h-22v-49h-7v49h-79v5l80 130h6v-129h22v-6z" />
    <glyph glyph-name="five" unicode="5" horiz-adv-x="124" 
d="M11 30l7 3q12 -34 43 -34q43 2 44 57q-2 51 -44 53q-25 0 -40 -24q-3 0 -4 1l9 92h78v-6h-72l-7 -72q18 16 38 15q46 -3 49 -59q-1 -60 -52 -62q-36 0 -49 36z" />
    <glyph glyph-name="six" unicode="6" horiz-adv-x="125" 
d="M20 61q3 -58 45 -62q40 2 42 56q-2 49 -41 52q-41 -4 -46 -46zM111 148l-7 -2q-12 29 -36 29q-44 -2 -48 -91q17 29 46 29q46 -3 49 -58q-2 -58 -50 -61q-53 0 -53 87q1 96 56 99q31 0 43 -32z" />
    <glyph glyph-name="seven" unicode="7" horiz-adv-x="124" 
d="M113 178v-4q-58 -104 -65 -178h-8q8 68 66 176h-93v6h100z" />
    <glyph glyph-name="eight" unicode="8" horiz-adv-x="127" 
d="M63 89q-42 -2 -44 -46q2 -42 44 -44q44 1 45 44q-2 44 -45 46zM63 175q-35 -2 -37 -40q2 -39 37 -41q37 1 38 41q-1 38 -38 40zM18 135q3 42 45 45q44 -3 46 -45q0 -32 -28 -44q34 -11 34 -48q-2 -47 -52 -49q-50 1 -51 49q2 38 35 48q-28 14 -29 44z" />
    <glyph glyph-name="nine" unicode="9" horiz-adv-x="126" 
d="M106 113q-2 59 -45 62q-40 -3 -42 -54q1 -52 40 -54q43 3 47 46zM15 19l8 3q10 -24 37 -23q45 -1 46 90q-17 -28 -48 -28q-45 3 -47 59q3 57 49 60q53 1 53 -87q1 -101 -53 -99q-34 0 -45 25z" />
    <glyph glyph-name="colon" unicode=":" horiz-adv-x="59" 
d="M37 124v-18h-15v18h15zM37 21v-18h-15v18h15z" />
    <glyph glyph-name="semicolon" unicode=";" horiz-adv-x="59" 
d="M37 124v-18h-14v18h14zM37 22v-18q0 -31 -16 -44l-3 2q17 14 16 40h-11v20h14z" />
    <glyph glyph-name="less" unicode="&#x3c;" horiz-adv-x="134" 
d="M120 142l-98 -54l98 -56v-8l-105 59v9l105 58v-8z" />
    <glyph glyph-name="equal" unicode="=" horiz-adv-x="131" 
d="M117 62v-6h-102v6h102zM117 118v-6h-102v6h102z" />
    <glyph glyph-name="greater" unicode="&#x3e;" horiz-adv-x="133" 
d="M15 142v8l105 -58v-9l-105 -59v8l99 55z" />
    <glyph glyph-name="question" unicode="?" horiz-adv-x="124" 
d="M62 53v-6h-7v6q0 24 22 42q27 22 26 43q-2 35 -39 37q-31 0 -44 -36l-7 2q13 40 51 39q45 -2 47 -42q1 -27 -30 -49q-19 -14 -19 -36zM64 13h-10v-17h10v17z" />
    <glyph glyph-name="at" unicode="@" horiz-adv-x="182" 
d="M157 26l4 -4q-27 -30 -69 -28q-81 3 -84 91q7 88 86 95q76 -4 80 -81q-3 -58 -44 -62q-18 0 -19 21q0 3 1 7q-10 -27 -33 -28q-31 3 -32 44q3 53 45 57q19 -1 25 -18l2 16h8l-8 -64q-4 -29 13 -29q32 5 35 55q-4 72 -73 77q-72 -8 -79 -90q5 -80 79 -86q37 0 63 27z
M54 79q2 -33 27 -36q23 3 32 41q2 10 2 15q0 31 -22 34q-36 -4 -39 -54z" />
    <glyph glyph-name="A" unicode="A" horiz-adv-x="146" 
d="M10 -4h-8l66 182h10l67 -182h-8l-23 62h-82zM73 171l-39 -107h78z" />
    <glyph glyph-name="B" unicode="B" horiz-adv-x="142" 
d="M74 89h-49v-87h55q46 0 46 43q-3 42 -52 44zM74 172h-49v-78h49q44 1 45 40q-1 37 -45 38zM82 -4h-64v182h60q47 0 48 -44q0 -31 -30 -43q37 -11 37 -46q-1 -48 -51 -49z" />
    <glyph glyph-name="C" unicode="C" horiz-adv-x="155" 
d="M143 44l7 -2q-14 -48 -64 -48q-70 4 -73 91q4 89 71 95q46 0 61 -40l-7 -3q-15 39 -55 38q-58 -7 -62 -90q3 -82 65 -86q43 1 57 45z" />
    <glyph glyph-name="D" unicode="D" horiz-adv-x="160" 
d="M73 172h-48v-170h48q66 0 66 85q-2 82 -66 85zM73 -4h-55v182h56q70 -3 72 -91q1 -92 -73 -91z" />
    <glyph glyph-name="E" unicode="E" horiz-adv-x="139" 
d="M25 2h106v-6h-113v182h110v-6h-103v-79h94v-5h-94v-86z" />
    <glyph glyph-name="F" unicode="F" horiz-adv-x="130" 
d="M122 172h-97v-77h79v-6h-79v-93h-7v182h104v-6z" />
    <glyph glyph-name="G" unicode="G" horiz-adv-x="171" 
d="M110 80h47v-56q-18 -29 -66 -30q-74 4 -77 92q4 89 77 94q46 0 65 -41l-7 -2q-18 38 -58 38q-65 -5 -69 -89q3 -82 69 -87q42 1 59 28v47h-40v6z" />
    <glyph glyph-name="H" unicode="H" horiz-adv-x="156" 
d="M131 178h7v-182h-7v92h-106v-92h-7v182h7v-84h106v84z" />
    <glyph glyph-name="I" unicode="I" horiz-adv-x="48" 
d="M28 -4h-8v182h8v-182z" />
    <glyph glyph-name="J" unicode="J" horiz-adv-x="100" 
d="M82 178v-140q2 -44 -35 -42h-16q-20 0 -28 14l6 4q8 -12 22 -12h15q31 -3 29 36v140h7z" />
    <glyph glyph-name="K" unicode="K" horiz-adv-x="144" 
d="M25 -4h-7v182h7v-110l102 110h9l-68 -72l75 -110h-9l-70 105l-39 -41v-64z" />
    <glyph glyph-name="L" unicode="L" horiz-adv-x="120" 
d="M114 2v-6h-96v182h7v-176h89z" />
    <glyph glyph-name="M" unicode="M" horiz-adv-x="185" 
d="M156 178h11v-182h-7v174l-64 -174h-7l-64 174v-174h-7v182h11l63 -174z" />
    <glyph glyph-name="N" unicode="N" horiz-adv-x="158" 
d="M130 -4l-105 174v-174h-7v182h10l105 -174v174h7v-182h-10z" />
    <glyph glyph-name="O" unicode="O" horiz-adv-x="166" 
d="M83 175q-62 -7 -67 -89q4 -80 67 -87q65 4 68 87q-5 83 -68 89zM83 -6q-72 5 -75 92q4 89 75 94q71 -6 75 -94q-3 -89 -75 -92z" />
    <glyph glyph-name="P" unicode="P" horiz-adv-x="144" 
d="M85 82h-60v-86h-7v182h67q49 -2 51 -48q-1 -47 -51 -48zM80 172h-55v-84h55q48 0 48 42q-1 41 -48 42z" />
    <glyph glyph-name="Q" unicode="Q" horiz-adv-x="166" 
d="M87 -50h-8v44q-68 7 -71 92q4 89 75 94q71 -6 75 -94q-3 -87 -71 -92v-44zM79 -1v55h8v-55q61 7 64 87q-5 83 -68 89q-62 -7 -67 -89q3 -77 63 -87z" />
    <glyph glyph-name="R" unicode="R" horiz-adv-x="149" 
d="M148 -4h-10l-67 86h-46v-86h-7v182h66q50 -2 52 -48q-1 -47 -52 -48h-6zM80 172h-55v-84h55q48 0 48 42q-1 41 -48 42z" />
    <glyph glyph-name="S" unicode="S" horiz-adv-x="139" 
d="M125 138l-7 -2q-9 40 -51 39q-44 -3 -47 -42q-2 -29 51 -39q60 -10 59 -51q-2 -48 -58 -49q-53 -1 -65 41l7 1q8 -39 57 -37q50 0 51 44q2 36 -53 45q-56 9 -56 45q4 44 54 47q48 -1 58 -42z" />
    <glyph glyph-name="T" unicode="T" horiz-adv-x="134" 
d="M129 172h-58v-176h-7v176h-58v6h123v-6z" />
    <glyph glyph-name="U" unicode="U" horiz-adv-x="158" 
d="M133 71v107h7v-107q1 -78 -62 -77q-61 -1 -60 77v107h7v-107q-1 -73 53 -72q57 -2 55 72z" />
    <glyph glyph-name="V" unicode="V" horiz-adv-x="147" 
d="M137 178h8l-66 -182h-10l-66 182h8l63 -175z" />
    <glyph glyph-name="W" unicode="W" horiz-adv-x="205" 
d="M196 178h8l-46 -182h-8l-47 172l-48 -172h-7l-46 182h7l42 -167l48 167h7l48 -168z" />
    <glyph glyph-name="X" unicode="X" horiz-adv-x="144" 
d="M8 178h8l56 -81l56 81h8l-60 -87l66 -95h-9l-61 89l-62 -89h-8l66 95z" />
    <glyph glyph-name="Y" unicode="Y" horiz-adv-x="144" 
d="M142 178l-66 -103v-79h-7v79l-67 103h8l62 -96l62 96h8z" />
    <glyph glyph-name="Z" unicode="Z" horiz-adv-x="135" 
d="M125 178v-4l-110 -172h113v-6h-122v5l110 171h-101v6h110z" />
    <glyph glyph-name="bracketleft" unicode="[" horiz-adv-x="61" 
d="M56 -1v-5h-38v186h38v-5h-31v-176h31z" />
    <glyph glyph-name="backslash" unicode="\" horiz-adv-x="60" 
d="M52 -6l-50 186h7l50 -186h-7z" />
    <glyph glyph-name="bracketright" unicode="]" horiz-adv-x="61" 
d="M5 -1h32v176h-31v5h38v-186h-39v5z" />
    <glyph glyph-name="asciicircum" unicode="^" horiz-adv-x="78" 
d="M43 180l32 -48h-8l-28 43l-27 -43h-8l32 48h7z" />
    <glyph glyph-name="underscore" unicode="_" horiz-adv-x="128" 
d="M129 -1v-5h-128v5h128z" />
    <glyph glyph-name="grave" unicode="`" horiz-adv-x="68" 
d="M14 180h11l26 -48h-4z" />
    <glyph glyph-name="a" unicode="a" horiz-adv-x="120" 
d="M96 54v26q-15 -11 -41 -15q-41 -5 -40 -36q0 -30 33 -30q46 2 48 55zM19 96l-7 2q9 34 48 34q43 -1 43 -43v-64q0 -17 5 -29h-6q-6 11 -6 23v7q-12 -31 -51 -32q-37 1 -38 35q2 33 41 40q34 5 48 17v3q1 38 -36 37q-33 1 -41 -30z" />
    <glyph glyph-name="b" unicode="b" horiz-adv-x="121" 
d="M24 76v-25q5 -46 43 -52q37 3 38 62q-2 61 -38 65q-36 -8 -43 -50zM24 -4h-7v182h7v-77q15 31 43 31q44 -3 46 -70q-1 -66 -46 -68q-28 0 -43 27v-25z" />
    <glyph glyph-name="c" unicode="c" horiz-adv-x="113" 
d="M105 99l-7 -1q-8 27 -36 28q-41 -3 -43 -63q1 -62 43 -64q31 -1 38 33l8 -1q-9 -38 -46 -37q-50 2 -51 68q2 66 51 70q35 -1 43 -33z" />
    <glyph glyph-name="d" unicode="d" horiz-adv-x="122" 
d="M98 54v22q-4 45 -41 50q-38 -3 -40 -65q2 -59 40 -62q39 4 41 55zM105 -4h-7v26q-11 -28 -41 -28q-47 2 -48 68q1 68 48 70q27 0 41 -26v72h7v-182z" />
    <glyph glyph-name="e" unicode="e" horiz-adv-x="121" 
d="M104 23l8 -1q-13 -28 -49 -28q-51 3 -53 68q2 67 52 70q49 -2 51 -64v-4h-95v-2q2 -60 45 -63q32 0 41 24zM18 69h88q-2 54 -44 57q-39 -2 -44 -57z" />
    <glyph glyph-name="f" unicode="f" horiz-adv-x="59" 
d="M31 152v-30h26v-6h-26v-120h-7v120h-21v6h21v30q-2 30 27 28h12v-5h-12q-21 1 -20 -23z" />
    <glyph glyph-name="g" unicode="g" horiz-adv-x="122" 
d="M99 59v21q-4 41 -41 46q-41 -4 -43 -61q2 -55 42 -58q40 4 42 52zM106 129v-121q1 -60 -53 -58q-26 0 -40 17l7 3q14 -14 33 -14q48 -2 46 53v18q-13 -25 -44 -25q-46 3 -48 64q3 61 48 66q31 -1 44 -26v23h7z" />
    <glyph glyph-name="h" unicode="h" horiz-adv-x="123" 
d="M106 82v-86h-7v84q0 45 -32 46q-41 -3 -43 -54v-76h-7v182h7v-76q15 32 43 30q39 0 39 -50z" />
    <glyph glyph-name="i" unicode="i" horiz-adv-x="45" 
d="M26 -4h-7v131h7v-131zM26 164h-7v14h7v-14z" />
    <glyph glyph-name="j" unicode="j" horiz-adv-x="45" 
d="M27 164h-7v14h7v-14zM27 130v-155q1 -27 -21 -25q-9 0 -15 2l2 6q8 -3 12 -3q16 -2 15 20v155h7z" />
    <glyph glyph-name="k" unicode="k" horiz-adv-x="109" 
d="M24 -4h-7v182h7v-118l70 72h8l-48 -50l54 -86h-8l-50 82l-26 -27v-55z" />
    <glyph glyph-name="l" unicode="l" horiz-adv-x="45" 
d="M26 -4h-7v182h7v-182z" />
    <glyph glyph-name="m" unicode="m" horiz-adv-x="185" 
d="M169 79v-83h-7v83q1 49 -28 47q-34 -7 -38 -49v-81h-7v83q0 48 -28 47q-34 -7 -37 -49v-81h-8v133h8v-26q14 30 37 29q27 0 35 -33q13 33 38 33q36 2 35 -53z" />
    <glyph glyph-name="n" unicode="n" horiz-adv-x="123" 
d="M107 80v-84h-7v84q0 46 -35 46q-35 -9 -41 -46v-84h-8v133h8v-29q16 32 44 32q40 1 39 -52z" />
    <glyph glyph-name="o" unicode="o" horiz-adv-x="122" 
d="M61 126q-43 -4 -45 -63q2 -60 45 -64q43 1 44 64q-2 60 -44 63zM61 -6q-50 2 -52 69q2 66 52 69q50 -3 52 -69q-1 -68 -52 -69z" />
    <glyph glyph-name="p" unicode="p" horiz-adv-x="122" 
d="M24 76v-21q3 -52 41 -56q39 1 40 63q-1 62 -40 64q-37 -5 -41 -50zM24 -50h-7v179h7v-28q14 31 42 31q45 -3 47 -70q-1 -67 -47 -68q-31 2 -42 29v-73z" />
    <glyph glyph-name="q" unicode="q" horiz-adv-x="121" 
d="M98 56v21q-2 47 -41 49q-38 -3 -40 -64q1 -61 40 -63q39 3 41 57zM105 -50h-7v74q-9 -28 -41 -30q-47 2 -48 68q2 66 48 70q29 -1 41 -27v24h7v-179z" />
    <glyph glyph-name="r" unicode="r" horiz-adv-x="75" 
d="M75 127l-5 -7q-7 4 -15 4q-30 -3 -31 -55v-73h-7v133h7v-24q12 26 33 27q11 0 18 -5z" />
    <glyph glyph-name="s" unicode="s" horiz-adv-x="105" 
d="M91 108l-8 -2q-7 20 -33 20q-31 -1 -33 -27q-3 -24 38 -32q40 -10 41 -37q0 -36 -44 -36q-39 -1 -47 27l8 1q7 -24 38 -23q37 1 38 31q2 24 -37 31q-45 9 -43 38q3 31 40 33q32 0 42 -24z" />
    <glyph glyph-name="t" unicode="t" horiz-adv-x="61" 
d="M54 1l2 -4q-5 -3 -14 -3q-20 -1 -19 26v95h-18v6h18v47h7v-47h25v-6h-25v-94q0 -23 14 -22q5 0 10 2z" />
    <glyph glyph-name="u" unicode="u" horiz-adv-x="123" 
d="M100 129h7v-133h-7v26q-14 -27 -44 -28q-40 -1 -39 49v86h7v-84q0 -46 32 -46q40 5 44 46v84z" />
    <glyph glyph-name="v" unicode="v" horiz-adv-x="107" 
d="M97 129h8l-47 -133h-9l-47 133h8l44 -127z" />
    <glyph glyph-name="w" unicode="w" horiz-adv-x="160" 
d="M151 129h7l-38 -133h-9l-30 123l-31 -123h-9l-38 133h7l36 -123l30 123h9l30 -123z" />
    <glyph glyph-name="x" unicode="x" horiz-adv-x="107" 
d="M7 129h7l39 -58l40 58h7l-43 -63l48 -70h-8l-43 64l-44 -64h-8l47 70z" />
    <glyph glyph-name="y" unicode="y" horiz-adv-x="105" 
d="M96 129h8l-53 -141q-13 -40 -28 -37q-9 0 -16 4l3 4q1 0 4 -1q5 -2 8 -2q13 -1 24 33l5 12l-49 128h8l44 -120z" />
    <glyph glyph-name="z" unicode="z" horiz-adv-x="109" 
d="M104 2v-6h-99v3l87 124h-81v6h90v-3l-87 -124h90z" />
    <glyph glyph-name="braceleft" unicode="{" horiz-adv-x="71" 
d="M40 63v-46q0 -18 17 -18h10v-5h-10q-26 -2 -24 23v46q1 22 -20 21h-5v6h5q21 -1 20 21v46q-1 24 24 23h10v-5h-10q-17 0 -17 -18v-46q0 -19 -13 -24q13 -4 13 -24z" />
    <glyph glyph-name="bar" unicode="|" horiz-adv-x="51" 
d="M29 -6h-7v186h7v-186z" />
    <glyph glyph-name="braceright" unicode="}" horiz-adv-x="72" 
d="M33 111v46q0 18 -16 18h-11v5h11q24 1 23 -23v-46q-1 -22 21 -21h4v-6h-4q-22 1 -21 -21v-46q2 -25 -23 -23h-11v5h11q16 0 16 18v46q0 18 13 24q-12 5 -13 24z" />
    <glyph glyph-name="asciitilde" unicode="~" horiz-adv-x="121" 
d="M6 80v6q14 11 28 11q11 0 29 -8q16 -8 26 -8q15 1 26 10v-6q-11 -9 -25 -10q-11 0 -29 9q-12 7 -27 7q-15 1 -28 -11z" />
    <glyph glyph-name="cent" unicode="&#xa2;" 
d="M84 -4h-7l7 28q-27 16 -27 63q3 64 51 69q6 0 12 -1l8 28h6l-8 -30q20 -8 26 -29l-8 -2q-5 19 -19 25l-33 -120q7 -3 16 -3q33 -1 38 33l8 -2q-8 -38 -46 -37q-9 0 -18 3zM86 30l33 119q-1 0 -2 1q-3 1 -9 1q-41 -3 -43 -64q0 -42 21 -57z" />
    <glyph glyph-name="sterling" unicode="&#xa3;" 
d="M175 19l4 -2q-12 -23 -38 -21q-13 0 -25 7q-15 8 -33 8q-21 0 -38 -10l-7 -4l-3 4l7 4q35 20 33 59q0 12 -5 20h-38v5h36q-19 27 -17 46q4 46 60 48q44 -1 58 -46l-5 -1q-13 41 -53 42q-52 -2 -55 -43q-1 -15 14 -42q2 -3 3 -4h58v-5h-55q4 -8 4 -20q1 -33 -20 -51
q11 3 23 3q16 0 33 -8q2 -1 3 -1q11 -6 22 -6q23 -2 34 18z" />
    <glyph glyph-name="currency" unicode="&#xa4;" 
d="M105 15q65 7 71 84q-6 76 -71 83q-64 -7 -70 -83q6 -77 70 -84zM159 38l27 -31l-3 -3l-26 30q-23 -24 -52 -24q-29 1 -50 24l-26 -30l-3 3l26 31q-21 26 -21 61q1 35 21 60l-26 31l3 4l26 -31q21 23 50 24q29 0 52 -24l26 31l3 -4l-27 -31q20 -25 21 -60q0 -35 -21 -61z
" />
    <glyph glyph-name="yen" unicode="&#xa5;" 
d="M157 66v-6h-48v-61h-7v61h-47v6h47v12l-66 102h8l62 -96l61 96h9l-67 -102v-12h48z" />
    <glyph glyph-name="section" unicode="&#xa7;" 
d="M102 117q-31 -1 -33 -20q1 -16 35 -32q3 -2 5 -3q31 1 33 20q0 16 -34 32zM64 30h5q3 -29 38 -30q35 1 36 25q2 16 -39 35q-42 18 -40 37q2 20 31 24q-32 15 -31 33q1 28 40 29q39 -2 43 -34h-4q-5 29 -39 30q-34 -1 -35 -25q-2 -17 38 -34q42 -20 40 -38q-1 -19 -31 -24
q32 -15 31 -33q-1 -28 -40 -29q-39 2 -43 34z" />
    <glyph glyph-name="dieresis" unicode="&#xa8;" 
d="M90 175h-10v13h10v-13zM132 175h-11v13h11v-13z" />
    <glyph glyph-name="degree" unicode="&#xb0;" 
d="M14 156q2 -26 28 -28q25 2 27 28q-2 25 -27 27q-26 -2 -28 -27zM9 156q3 29 33 32q30 -2 32 -32q-3 -30 -32 -33q-30 3 -33 33z" />
    <glyph glyph-name="plusminus" unicode="&#xb1;" 
d="M160 107v-6h-50v-58h-7v58h-52v6h52v57h7v-57h50zM160 21v-5h-109v5h109z" />
    <glyph glyph-name="periodcentered" unicode="&#xb7;" 
d="M114 98v-18h-15v18h15z" />
    <glyph glyph-name="multiply" unicode="&#xd7;" 
d="M164 144l-55 -55l55 -55l-3 -4l-55 56l-56 -56l-3 4l55 55l-55 55l3 4l56 -55l55 55z" />
    <glyph glyph-name="agrave" unicode="&#xe0;" 
d="M105 4q48 4 51 63q-4 58 -51 63q-46 -4 -49 -63q1 -62 49 -63zM160 133v-132h-4v38q-14 -38 -51 -39q-53 2 -54 67q3 63 54 67q36 -1 51 -39v38h4zM87 205h11l26 -49h-4z" />
    <glyph glyph-name="aacute" unicode="&#xe1;" 
d="M105 4q48 4 51 63q-4 58 -51 63q-46 -4 -49 -63q1 -62 49 -63zM160 133v-132h-4v38q-14 -38 -51 -39q-53 2 -54 67q3 63 54 67q36 -1 51 -39v38h4zM124 205l-32 -49h-5l27 49h10z" />
    <glyph glyph-name="egrave" unicode="&#xe8;" 
d="M148 26l8 -2q-13 -28 -48 -28q-51 3 -53 68q2 67 51 70q49 -2 51 -63v-5h-95v-2q2 -59 46 -62q31 0 40 24zM62 72h88q-2 54 -44 57q-38 -2 -44 -57zM87 205h11l26 -49h-4z" />
    <glyph glyph-name="eacute" unicode="&#xe9;" 
d="M148 26l8 -2q-13 -28 -48 -28q-51 3 -53 68q2 67 51 70q49 -2 51 -63v-5h-95v-2q2 -59 46 -62q31 0 40 24zM62 72h88q-2 54 -44 57q-38 -2 -44 -57zM124 205l-32 -49h-5l27 49h10z" />
    <glyph glyph-name="ecircumflex" unicode="&#xea;" 
d="M148 26l8 -2q-13 -28 -48 -28q-51 3 -53 68q2 67 51 70q49 -2 51 -63v-5h-95v-2q2 -59 46 -62q31 0 40 24zM62 72h88q-2 54 -44 57q-38 -2 -44 -57zM110 205l31 -49h-7l-28 44l-28 -44h-8l32 49h8z" />
    <glyph glyph-name="igrave" unicode="&#xec;" 
d="M109 -1h-7v131h7v-131zM87 205h11l26 -49h-4z" />
    <glyph glyph-name="iacute" unicode="&#xed;" 
d="M109 -1h-7v131h7v-131zM124 205l-32 -49h-5l27 49h10z" />
    <glyph glyph-name="ograve" unicode="&#xf2;" 
d="M106 129q-43 -3 -45 -63q2 -61 45 -64q43 1 44 64q-2 60 -44 63zM106 -4q-51 2 -52 70q3 65 52 68q50 -3 52 -68q-1 -68 -52 -70zM87 205h11l26 -49h-4z" />
    <glyph glyph-name="oacute" unicode="&#xf3;" 
d="M106 129q-43 -3 -45 -63q2 -61 45 -64q43 1 44 64q-2 60 -44 63zM106 -4q-51 2 -52 70q3 65 52 68q50 -3 52 -68q-1 -68 -52 -70zM124 205l-32 -49h-5l27 49h10z" />
    <glyph glyph-name="divide" unicode="&#xf7;" 
d="M151 92v-5h-91v5h91zM111 38h-10v16h10v-16zM111 126h-10v15h10v-15z" />
    <glyph glyph-name="ugrave" unicode="&#xf9;" 
d="M144 134h7v-133h-7v26q-14 -27 -44 -28q-40 -1 -39 49v86h7v-84q0 -46 32 -46q40 5 44 46v84zM87 205h11l26 -49h-4z" />
    <glyph glyph-name="uacute" unicode="&#xfa;" 
d="M144 134h7v-133h-7v26q-14 -27 -44 -28q-40 -1 -39 49v86h7v-84q0 -46 32 -46q40 5 44 46v84zM124 205l-32 -49h-5l27 49h10z" />
    <glyph glyph-name="udieresis" unicode="&#xfc;" 
d="M144 134h7v-133h-7v26q-14 -27 -44 -28q-40 -1 -39 49v86h7v-84q0 -46 32 -46q40 5 44 46v84zM90 147h-10v13h10v-13zM132 147h-11v13h11v-13z" />
    <glyph glyph-name="amacron" unicode="&#x101;" 
d="M105 4q48 4 51 63q-4 58 -51 63q-46 -4 -49 -63q1 -62 49 -63zM160 133v-132h-4v38q-14 -38 -51 -39q-53 2 -54 67q3 63 54 67q36 -1 51 -39v38h4zM139 178h-67v6h67v-6z" />
    <glyph glyph-name="emacron" unicode="&#x113;" 
d="M148 26l8 -2q-13 -28 -48 -28q-51 3 -53 68q2 67 51 70q49 -2 51 -63v-5h-95v-2q2 -59 46 -62q31 0 40 24zM62 72h88q-2 54 -44 57q-38 -2 -44 -57zM139 178h-67v6h67v-6z" />
    <glyph glyph-name="ecaron" unicode="&#x11b;" 
d="M148 26l8 -2q-13 -28 -48 -28q-51 3 -53 68q2 67 51 70q49 -2 51 -63v-5h-95v-2q2 -59 46 -62q31 0 40 24zM62 72h88q-2 54 -44 57q-38 -2 -44 -57zM110 156h-8l-32 49h8l28 -44l28 44h7z" />
    <glyph glyph-name="imacron" unicode="&#x12b;" 
d="M109 -1h-7v131h7v-131zM139 178h-67v6h67v-6z" />
    <glyph glyph-name="nacute" unicode="&#x144;" 
d="M151 82v-83h-7v84q0 46 -35 46q-36 -9 -41 -47v-83h-8v132h8v-29q16 32 44 32q40 1 39 -52zM124 205l-32 -49h-5l27 49h10z" />
    <glyph glyph-name="ncaron" unicode="&#x148;" 
d="M151 82v-83h-7v84q0 46 -35 46q-36 -9 -41 -47v-83h-8v132h8v-29q16 32 44 32q40 1 39 -52zM110 156h-8l-32 49h8l28 -44l28 44h7z" />
    <glyph glyph-name="omacron" unicode="&#x14d;" 
d="M106 129q-43 -3 -45 -63q2 -61 45 -64q43 1 44 64q-2 60 -44 63zM106 -4q-51 2 -52 70q3 65 52 68q50 -3 52 -68q-1 -68 -52 -70zM139 178h-67v6h67v-6z" />
    <glyph glyph-name="umacron" unicode="&#x16b;" 
d="M144 134h7v-133h-7v26q-14 -27 -44 -28q-40 -1 -39 49v86h7v-84q0 -46 32 -46q40 5 44 46v84zM139 178h-67v6h67v-6z" />
    <glyph glyph-name="uni01CE" unicode="&#x1ce;" 
d="M105 4q48 4 51 63q-4 58 -51 63q-46 -4 -49 -63q1 -62 49 -63zM160 133v-132h-4v38q-14 -38 -51 -39q-53 2 -54 67q3 63 54 67q36 -1 51 -39v38h4zM110 156h-8l-32 49h8l28 -44l28 44h7z" />
    <glyph glyph-name="uni01D0" unicode="&#x1d0;" 
d="M109 -1h-7v131h7v-131zM110 156h-8l-32 49h8l28 -44l28 44h7z" />
    <glyph glyph-name="uni01D2" unicode="&#x1d2;" 
d="M106 129q-43 -3 -45 -63q2 -61 45 -64q43 1 44 64q-2 60 -44 63zM106 -4q-51 2 -52 70q3 65 52 68q50 -3 52 -68q-1 -68 -52 -70zM110 156h-8l-32 49h8l28 -44l28 44h7z" />
    <glyph glyph-name="uni01D4" unicode="&#x1d4;" 
d="M144 134h7v-133h-7v26q-14 -27 -44 -28q-40 -1 -39 49v86h7v-84q0 -46 32 -46q40 5 44 46v84zM110 156h-8l-32 49h8l28 -44l28 44h7z" />
    <glyph glyph-name="uni01D6" unicode="&#x1d6;" 
d="M144 134h7v-133h-7v26q-14 -27 -44 -28q-40 -1 -39 49v86h7v-84q0 -46 32 -46q40 5 44 46v84zM139 194h-67v6h67v-6zM90 147h-10v13h10v-13zM132 147h-11v13h11v-13z" />
    <glyph glyph-name="uni01D8" unicode="&#x1d8;" 
d="M144 134h7v-133h-7v26q-14 -27 -44 -28q-40 -1 -39 49v86h7v-84q0 -46 32 -46q40 5 44 46v84zM90 147h-10v13h10v-13zM132 147h-11v13h11v-13zM124 221l-32 -48h-5l27 48h10z" />
    <glyph glyph-name="uni01DA" unicode="&#x1da;" 
d="M144 134h7v-133h-7v26q-14 -27 -44 -28q-40 -1 -39 49v86h7v-84q0 -46 32 -46q40 5 44 46v84zM90 147h-10v13h10v-13zM132 147h-11v13h11v-13zM110 173h-8l-32 48h8l28 -43l28 43h7z" />
    <glyph glyph-name="uni01DC" unicode="&#x1dc;" 
d="M144 134h7v-133h-7v26q-14 -27 -44 -28q-40 -1 -39 49v86h7v-84q0 -46 32 -46q40 5 44 46v84zM90 147h-10v13h10v-13zM132 147h-11v13h11v-13zM87 221h11l26 -49h-4z" />
    <glyph glyph-name="uni01F9" unicode="&#x1f9;" 
d="M151 82v-83h-7v84q0 46 -35 46q-36 -9 -41 -47v-83h-8v132h8v-29q16 32 44 32q40 1 39 -52zM87 205h11l26 -49h-4z" />
    <glyph glyph-name="uni0251" unicode="&#x251;" 
d="M105 4q48 4 51 63q-4 58 -51 63q-46 -4 -49 -63q1 -62 49 -63zM160 133v-132h-4v38q-14 -38 -51 -39q-53 2 -54 67q3 63 54 67q36 -1 51 -39v38h4z" />
    <glyph glyph-name="uni0261" unicode="&#x261;" 
d="M148 62v20q-4 42 -40 47q-42 -3 -44 -61q1 -55 42 -58q40 4 42 52zM155 132v-121q2 -60 -53 -58q-25 0 -40 16l7 4q13 -14 33 -14q48 -2 46 52v19q-12 -26 -44 -26q-46 3 -48 64q3 61 48 66q33 -1 44 -25v23h7z" />
    <glyph glyph-name="caron" unicode="&#x2c7;" 
d="M110 156h-8l-32 49h8l28 -44l28 44h7z" />
    <glyph glyph-name="uni02C9" unicode="&#x2c9;" 
d="M139 178h-67v6h67v-6z" />
    <glyph glyph-name="Alpha" unicode="&#x391;" 
d="M104 158l-32 -84h65zM66 57l-21 -57h-23l69 178h27l72 -178h-24l-22 57h-78z" />
    <glyph glyph-name="Beta" unicode="&#x392;" 
d="M41 178h69q46 -2 51 -44q-1 -28 -23 -39q-1 -2 0 -2q30 -7 32 -42q-1 -49 -58 -50h-71v177zM61 161v-60h45q35 5 34 33q-3 24 -33 27h-46zM61 83v-65h49q38 1 40 33q-3 31 -35 32h-54z" />
    <glyph glyph-name="Gamma" unicode="&#x393;" 
d="M47 178h117v-18h-96v-159h-21v177z" />
    <glyph glyph-name="uni0394" unicode="&#x394;" 
d="M102 181l89 -181h-171zM103 132l-49 -112h103z" />
    <glyph glyph-name="Epsilon" unicode="&#x395;" 
d="M140 101v-18h-72v-65h96v-17h-117v177h111v-17h-90v-60h72z" />
    <glyph glyph-name="Zeta" unicode="&#x396;" 
d="M47 176h128l-101 -157h101v-18h-139l102 156h-91v19z" />
    <glyph glyph-name="Eta" unicode="&#x397;" 
d="M61 86v-85h-20v177h20v-74h89v74h21v-177h-21v85h-89z" />
    <glyph glyph-name="Theta" unicode="&#x398;" 
d="M61 101h89v-18h-89v18zM105 166q-56 -2 -60 -73q2 -74 60 -76q59 4 62 75q-4 72 -62 74zM106 186q77 -4 82 -94q-4 -91 -83 -95q-78 4 -82 96q5 90 83 93z" />
    <glyph glyph-name="Iota" unicode="&#x399;" 
d="M95 178h21v-178h-21v178z" />
    <glyph glyph-name="Kappa" unicode="&#x39a;" 
d="M139 178h26q-33 -56 -81 -85q51 -32 88 -93h-28q-27 51 -84 86v-86h-20v178h20v-77q51 31 79 77z" />
    <glyph glyph-name="Lambda" unicode="&#x39b;" 
d="M90 178h27l72 -178h-23l-63 158l-59 -158h-22z" />
    <glyph glyph-name="Mu" unicode="&#x39c;" 
d="M24 178h32l50 -101l50 101h31v-178h-21v149l-56 -112h-8l-57 115v-152h-21v178z" />
    <glyph glyph-name="Nu" unicode="&#x39d;" 
d="M39 178h21l92 -125v125h20v-178h-11l-101 142v-142h-21v178z" />
    <glyph glyph-name="Xi" unicode="&#x39e;" 
d="M39 178h131l-84 -77h84l-85 -83h88v-18h-134l83 83h-80l80 78h-83v17z" />
    <glyph glyph-name="Omicron" unicode="&#x39f;" 
d="M105 166q-56 -3 -61 -72q3 -74 62 -77q59 3 62 76q-4 70 -63 73zM106 186q78 -3 83 -93q-4 -93 -83 -96q-78 4 -84 97q5 88 84 92z" />
    <glyph glyph-name="Pi" unicode="&#x3a0;" 
d="M64 158v-158h-20v158h-20v18h163v-18h-22v-158h-21v158h-80z" />
    <glyph glyph-name="Rho" unicode="&#x3a1;" 
d="M48 177h60q52 -1 55 -54q-3 -52 -55 -53h-39v-70h-21v177zM69 159v-71h38q30 2 34 34q-3 36 -34 37h-38z" />
    <glyph glyph-name="Sigma" unicode="&#x3a3;" 
d="M40 178h131v-18h-101l75 -72l-77 -70h106v-17h-136v17l77 70l-75 72v18z" />
    <glyph glyph-name="Tau" unicode="&#x3a4;" 
d="M114 0h-20v158h-64v18h152v-18h-68v-158z" />
    <glyph glyph-name="Upsilon" unicode="&#x3a5;" 
d="M20 178h27l58 -86l60 86h26l-75 -107v-70h-21v69z" />
    <glyph glyph-name="Phi" unicode="&#x3a6;" 
d="M95 36v110q-52 -6 -54 -55q2 -46 54 -55zM115 0h-20v17q-72 8 -74 74q2 67 74 74v13h20v-13q73 -7 75 -74q-2 -69 -75 -74v-17zM115 146v-111q53 6 55 55q-2 50 -55 56z" />
    <glyph glyph-name="Chi" unicode="&#x3a7;" 
d="M49 1h-26l69 90l-66 87h27l53 -69l53 69h27l-67 -87l70 -90h-27l-56 73z" />
    <glyph glyph-name="Psi" unicode="&#x3a8;" 
d="M23 178h21q1 -66 50 -76v76h21v-76q50 7 52 76h22q-1 -87 -74 -97v-80h-21v80q-71 11 -71 97z" />
    <glyph glyph-name="uni03A9" unicode="&#x3a9;" 
d="M35 1v18h35q-43 40 -42 87q5 70 77 74q75 -2 79 -77q-2 -52 -43 -84h35v-18h-59v22q46 34 46 80q-2 56 -58 57q-54 -3 -57 -54q-1 -43 46 -83v-22h-59z" />
    <glyph glyph-name="alpha" unicode="&#x3b1;" 
d="M175 120v-21q-24 -9 -27 -38q1 -29 27 -43v-21q-27 10 -35 29q-15 -29 -51 -29q-51 6 -53 61q4 60 54 64q36 -1 50 -29q12 25 35 27zM55 58q3 -40 35 -43q38 2 39 47q-5 37 -35 41q-37 -1 -39 -45z" />
    <glyph glyph-name="beta" unicode="&#x3b2;" 
d="M116 91h-32v16h11q31 2 32 37q-3 23 -27 24q-30 -1 -32 -33v-107q17 -12 37 -12q37 3 40 38q1 34 -29 37zM68 -38h-21v176q4 47 53 49q42 -2 47 -40q1 -28 -14 -40q1 0 0 -1v-1q31 -8 31 -49q-4 -55 -59 -59q-19 0 -37 11v-46z" />
    <glyph glyph-name="gamma" unicode="&#x3b3;" 
d="M166 113l16 -15q-53 -50 -81 -136h-22q10 35 15 45q-6 81 -64 85l8 19q58 -6 71 -76q27 45 57 78z" />
    <glyph glyph-name="delta" unicode="&#x3b4;" 
d="M160 158l-8 -19q-62 34 -74 15q-5 -12 38 -34q44 -20 44 -64q-5 -55 -54 -59q-52 4 -55 62q1 39 35 55q-1 0 -2 1q-33 23 -27 43q20 45 103 0zM140 57q-4 39 -34 42q-33 -3 -35 -41q1 -39 34 -42q32 3 35 41z" />
    <glyph glyph-name="epsilon" unicode="&#x3b5;" 
d="M143 113l-6 -18q-41 23 -50 -6q1 -22 22 -23h28v-17h-29q-24 -2 -23 -21q13 -27 55 -3l5 -19q-67 -26 -78 22q-1 21 14 30q-14 11 -13 34q2 22 24 28q25 6 51 -7z" />
    <glyph glyph-name="zeta" unicode="&#x3b6;" 
d="M146 169l17 -11l-37 -61q-46 24 -58 -9q-1 -13 23 -36l4 -4q31 -27 29 -43q-3 -42 -60 -33l3 20q34 -5 36 9q3 11 -14 26l-3 3q-41 35 -38 59q0 21 22 32q24 11 48 1z" />
    <glyph glyph-name="eta" unicode="&#x3b7;" 
d="M167 71v-109h-20v110q-3 28 -26 29q-24 -2 -28 -27v-73h-20v87q-1 8 -4 7q-5 0 -14 -9l-10 15q19 23 34 20q7 -3 11 -16q12 16 35 16q40 -1 42 -50z" />
    <glyph glyph-name="theta" unicode="&#x3b8;" 
d="M136 79h-60q5 -61 31 -63q26 0 29 63zM107 176q47 0 49 -83q-1 -96 -50 -97q-47 3 -50 96q2 82 51 84zM75 98h61q-1 58 -30 59q-27 -2 -31 -59z" />
    <glyph glyph-name="iota" unicode="&#x3b9;" 
d="M90 120h20v-93q0 -8 10 -8l2 -18q-31 -4 -32 17v102z" />
    <glyph glyph-name="kappa" unicode="&#x3ba;" 
d="M135 120l17 -14q-8 -7 -28 -22q-18 -13 -26 -19q7 -6 21 -16q25 -20 38 -31l-11 -18q-37 33 -72 59v-59h-20v120h20v-51q2 1 5 4q37 30 56 47z" />
    <glyph glyph-name="lambda" unicode="&#x3bb;" 
d="M168 16l-13 -19q-17 12 -37 78q-5 18 -8 26l-43 -97h-21l55 121q0 1 -1 3q-8 30 -19 31q-9 3 -27 -6l-6 -3l-4 20q38 20 57 3q9 -7 29 -73q25 -82 38 -84z" />
    <glyph glyph-name="uni03BC" unicode="&#x3bc;" 
d="M51 118h20v-69q2 -30 30 -32q26 2 29 34v67h20v-72q0 -24 10 -38l-17 -12q0 1 -1 2q-6 10 -8 16q-14 -16 -32 -16q-24 0 -31 13v-48h-20v155z" />
    <glyph glyph-name="nu" unicode="&#x3bd;" 
d="M134 117h22q-13 -90 -59 -117h-20q-6 92 -22 105l18 13q16 -15 22 -95q32 25 39 94z" />
    <glyph glyph-name="xi" unicode="&#x3be;" 
d="M150 176v-19q-58 12 -67 -18q-2 -25 32 -28h35v-18h-30q-45 -2 -44 -28q-1 -23 39 -32t40 -31q0 -23 -19 -33q-24 -11 -50 -2l4 17q39 -10 44 16q1 10 -26 16q-52 11 -51 48q-1 27 29 37q-25 12 -23 42q14 46 87 33z" />
    <glyph glyph-name="omicron" unicode="&#x3bf;" 
d="M105 103q-31 -2 -34 -43q1 -45 35 -46q33 1 34 45q-2 42 -35 44zM105 121q52 -2 55 -61q-2 -62 -55 -64q-51 2 -53 65q4 57 53 60z" />
    <glyph glyph-name="pi" unicode="&#x3c0;" 
d="M85 102v-102h-20v102h-14q-5 -1 -16 -2q-9 -2 -13 -2v18q6 2 22 4h2h144v-18h-43v-69q0 -10 11 -11l-1 -20q-31 1 -30 26v74h-42z" />
    <glyph glyph-name="rho" unicode="&#x3c1;" 
d="M72 12v-50h-21v84q5 71 58 73q47 -3 51 -57q0 -62 -52 -66q-24 1 -36 16zM140 60q-2 40 -34 41q-31 -3 -34 -46q2 -36 36 -40q31 3 32 45z" />
    <glyph glyph-name="sigma" unicode="&#x3c3;" 
d="M102 119h67v-19h-32q13 -17 13 -43q-3 -57 -55 -61q-51 3 -53 62q4 57 53 61h8h-1zM95 100q-30 -3 -33 -42q1 -40 34 -42q33 3 35 42q-3 40 -36 42z" />
    <glyph glyph-name="tau" unicode="&#x3c4;" 
d="M133 16v-19q-30 -1 -30 20v76h-34q-5 0 -15 -2q-5 -1 -7 -1v18q10 3 22 3h96v-18h-43v-68q0 -9 11 -9z" />
    <glyph glyph-name="upsilon" unicode="&#x3c5;" 
d="M52 119h20q-2 -105 33 -104q38 0 35 104h20q4 -128 -55 -123q-56 -7 -53 123z" />
    <glyph glyph-name="phi" unicode="&#x3c6;" 
d="M95 17v83q-32 -9 -34 -40q1 -36 34 -43zM114 -2v-51h-19v51q-51 8 -52 63q3 50 52 59v51h19v-51q52 -8 54 -61q-2 -54 -54 -61zM114 101v-84q33 6 35 42q-2 34 -35 42z" />
    <glyph glyph-name="chi" unicode="&#x3c7;" 
d="M59 -33h-23l57 84q-26 51 -38 53q-4 3 -12 0l-4 17q11 3 21 2q18 -2 46 -54l37 55h23l-51 -74q3 -5 7 -14q27 -51 38 -54q3 -1 6 0q2 1 4 1l6 -17q-16 -6 -22 -3q-18 2 -51 68z" />
    <glyph glyph-name="psi" unicode="&#x3c8;" 
d="M27 117h19q-5 -83 50 -97v97h19v-97q55 14 50 97h20q6 -102 -70 -117v-38h-19v38q-74 13 -69 117z" />
    <glyph glyph-name="omega" unicode="&#x3c9;" 
d="M72 122l3 -22q-37 -10 -38 -48q2 -35 26 -36q30 2 33 42v22h20v-21q1 -41 32 -43q24 4 26 39q0 31 -38 46l2 21q55 -16 57 -66q-3 -56 -45 -60q-31 0 -44 24q-18 -25 -45 -24q-43 2 -44 59q3 52 55 67z" />
    <glyph glyph-name="uni0401" unicode="&#x401;" 
d="M169 1h-127v176h123v-19h-102v-57h93v-19h-93v-62h106v-19zM73 190v26h19v-26h-19zM116 190v26h20v-26h-20z" />
    <glyph glyph-name="uni0410" unicode="&#x410;" 
d="M26 1l66 177h26l67 -178h-23l-19 47h-76l-17 -46h-24zM105 154l-32 -88h64z" />
    <glyph glyph-name="uni0411" unicode="&#x411;" 
d="M37 0v176h125v-20h-103v-51h56q57 -1 59 -51q-2 -53 -54 -54h-83zM116 85h-57v-65h60q31 1 33 33q0 29 -36 32z" />
    <glyph glyph-name="uni0412" unicode="&#x412;" 
d="M36 1v177h86q40 -2 44 -42q-3 -33 -28 -42q34 -10 37 -43q-2 -48 -55 -50h-84zM115 159h-57v-57h48q32 2 36 32q-2 23 -27 25zM114 82h-56v-62h56q35 2 37 30q-3 30 -37 32z" />
    <glyph glyph-name="uni0413" unicode="&#x413;" 
d="M71 1h-21v176h112v-19h-91v-157z" />
    <glyph glyph-name="uni0414" unicode="&#x414;" 
d="M64 136v42h106v-158h27l-1 -58h-21v38h-139v-38h-21l-1 58h17q33 40 33 116zM148 20v139h-62v-21q-1 -78 -29 -118h91z" />
    <glyph glyph-name="uni0415" unicode="&#x415;" 
d="M169 1h-127v176h123v-19h-102v-57h93v-19h-93v-62h106v-19z" />
    <glyph glyph-name="uni0416" unicode="&#x416;" 
d="M77 96l-68 82h26l62 -77v77h19v-77l63 77h25l-68 -82l70 -95h-26l-64 89v-89h-19v89l-66 -89h-25z" />
    <glyph glyph-name="uni0417" unicode="&#x417;" 
d="M60 131h-23q5 52 67 53q62 -1 66 -46q1 -31 -26 -41q-1 -1 0 -2q35 -8 35 -44q-3 -52 -74 -55q-65 3 -72 61h22q4 -38 51 -41q49 3 51 34q-2 34 -41 37h-27v19h23q36 5 36 31q-3 26 -43 27q-41 0 -45 -33z" />
    <glyph glyph-name="uni0418" unicode="&#x418;" 
d="M36 0v179h22v-142l95 141h22v-177h-21v144l-96 -145h-22z" />
    <glyph glyph-name="uni0419" unicode="&#x419;" 
d="M36 0v179h22v-142l95 141h22v-177h-21v144l-96 -145h-22zM62 217h20q1 -18 25 -17q22 0 22 17h21q-6 -32 -44 -34q-41 1 -44 34z" />
    <glyph glyph-name="uni041A" unicode="&#x41a;" 
d="M37 0v179h22v-79l80 78h30l-84 -82l89 -95h-29l-86 92v-93h-22z" />
    <glyph glyph-name="uni041B" unicode="&#x41b;" 
d="M74 177h109v-176h-21v157h-67v-52q0 -62 -14 -82q-14 -23 -53 -23v20q29 0 38 23q5 11 7 30q1 16 1 57v46z" />
    <glyph glyph-name="uni041C" unicode="&#x41c;" 
d="M16 1v177h33l57 -145l56 145h33v-177h-21v149l-59 -149h-18l-59 147v-147h-22z" />
    <glyph glyph-name="uni041D" unicode="&#x41d;" 
d="M61 85v-84h-22v177h22v-74h90v74h22v-177h-22v84h-90z" />
    <glyph glyph-name="uni041E" unicode="&#x41e;" 
d="M105 165q-57 -3 -60 -71q1 -75 60 -76q60 2 61 74q-3 71 -61 73zM106 186q79 -4 83 -93q-3 -93 -84 -96q-79 4 -83 97q5 88 84 92z" />
    <glyph glyph-name="uni041F" unicode="&#x41f;" 
d="M38 1v177h135v-177h-21v158h-92v-158h-22z" />
    <glyph glyph-name="uni0420" unicode="&#x420;" 
d="M40 0v177h72q55 -1 59 -51q-1 -53 -56 -56h-53v-70h-22zM111 158h-49v-68h51q34 0 35 35q-5 31 -37 33z" />
    <glyph glyph-name="uni0421" unicode="&#x421;" 
d="M163 60h22q-10 -64 -79 -64q-77 6 -80 97q4 92 86 93q62 -2 72 -62h-23q-9 40 -48 42q-63 -1 -65 -73q3 -72 58 -76q50 1 57 43z" />
    <glyph glyph-name="uni0422" unicode="&#x422;" 
d="M95 1v157h-59v19h139v-19h-59v-157h-21z" />
    <glyph glyph-name="uni0423" unicode="&#x423;" 
d="M101 47l-66 130h25l53 -104l41 105h23l-58 -146q-14 -29 -22 -32q-15 -7 -42 2v21q22 -5 31 -1q7 4 15 25z" />
    <glyph glyph-name="uni0424" unicode="&#x424;" 
d="M95 195h22v-27q90 -2 89 -70q4 -69 -89 -71v-26h-22v26q-92 0 -89 71q-2 67 89 70v27zM95 48v100q-67 -3 -67 -50q-2 -51 67 -50zM117 148v-101q71 0 67 50q1 47 -67 51z" />
    <glyph glyph-name="uni0425" unicode="&#x425;" 
d="M90 91l-58 88h26l46 -71l48 71h26l-59 -88l63 -91h-27l-50 75l-49 -74h-26z" />
    <glyph glyph-name="uni0426" unicode="&#x426;" 
d="M25 0v177h22v-157h93v157h21v-157h25l-1 -58h-20v38h-140z" />
    <glyph glyph-name="uni0427" unicode="&#x427;" 
d="M44 131v47h22v-47q0 -22 15 -30q6 -2 53 -1h12v78h21v-177h-21v79q-64 -6 -78 2q-24 12 -24 49z" />
    <glyph glyph-name="uni0428" unicode="&#x428;" 
d="M206 0h-200v177h21v-157h69v157h20v-157h69v156h21v-176z" />
    <glyph glyph-name="uni0429" unicode="&#x429;" 
d="M188 0h-182v177h18v-157h62v157h17v-157h63v157h18v-157h22l-2 -58h-16v38z" />
    <glyph glyph-name="uni042A" unicode="&#x42a;" 
d="M85 20h49q37 -1 39 37q-2 30 -37 31h-51v-68zM85 177v-69h54q51 -1 56 -50q-3 -56 -59 -58h-72v158h-48v19h69z" />
    <glyph glyph-name="uni042B" unicode="&#x42b;" 
d="M175 178h21v-177h-21v177zM15 1v176h22v-71h54q53 -1 56 -53q-3 -51 -59 -52h-73zM37 19h49q36 0 38 34q-2 34 -36 35h-51v-69z" />
    <glyph glyph-name="uni042C" unicode="&#x42c;" 
d="M40 0v177h22v-70h53q55 -1 56 -53q-2 -53 -59 -54h-72zM62 19h49q35 1 38 35q-1 33 -36 34h-51v-69z" />
    <glyph glyph-name="uni042D" unicode="&#x42d;" 
d="M52 128h-25q17 56 79 57q73 -4 79 -93q-4 -92 -80 -96q-70 1 -79 63h25q3 -40 53 -42q54 4 59 68h-87v19h87q-12 59 -57 60q-45 -2 -54 -36z" />
    <glyph glyph-name="uni042E" unicode="&#x42e;" 
d="M128 165q-51 -4 -57 -71q2 -76 58 -78q54 3 56 77q-3 69 -57 72zM51 87h-25v-84h-20v177h20v-75h25q12 76 78 79q72 -4 77 -91q-4 -95 -77 -97q-73 2 -78 91z" />
    <glyph glyph-name="uni042F" unicode="&#x42f;" 
d="M66 1h-27l45 71q-45 5 -46 54q2 51 57 52h78v-177h-21v71h-44zM152 159h-54q-36 -1 -38 -33q1 -34 37 -35h55v68z" />
    <glyph glyph-name="uni0430" unicode="&#x430;" 
d="M155 91v-63q2 -10 12 -9v-18h-15q-17 -1 -17 18q-19 -21 -45 -22q-42 1 -46 35q0 21 16 34q14 9 43 10q27 1 30 13q0 29 -32 29q-29 0 -31 -24h-22q7 43 54 42q51 -2 53 -45zM134 52v15q-10 -5 -26 -6q-7 0 -11 -1q-31 -6 -29 -27q3 -21 37 -15q25 7 29 34z" />
    <glyph glyph-name="uni0431" unicode="&#x431;" 
d="M141 188h18q-1 -21 -25 -29q-2 0 -9 -1q-29 -2 -40 -6q-26 -7 -26 -46q18 24 47 24q61 -1 63 -63q-2 -70 -62 -71q-61 5 -65 76v23q1 57 32 74q6 3 33 6q14 2 20 3q14 3 14 10zM65 63q3 -43 41 -49q41 1 41 51q-2 47 -41 48q-39 -1 -41 -50z" />
    <glyph glyph-name="uni0432" unicode="&#x432;" 
d="M52 1v130h69q31 -2 33 -32q0 -22 -18 -31q24 -8 23 -32q-1 -33 -39 -35h-68zM109 115h-36v-38h40q19 2 20 21q-2 16 -24 17zM112 60h-39v-44h39q25 2 26 20q-2 23 -26 24z" />
    <glyph glyph-name="uni0433" unicode="&#x433;" 
d="M83 114v-114h-21v130h87v-16h-66z" />
    <glyph glyph-name="uni0434" unicode="&#x434;" 
d="M67 95v35h92v-114h23l-3 -49h-18v33h-111v-33h-19l-1 49h16q21 30 21 79zM70 16h68v98h-51v-21q-1 -50 -17 -77z" />
    <glyph glyph-name="uni0435" unicode="&#x435;" 
d="M167 61h-100q1 -41 38 -47q32 2 38 25h22q-8 -41 -60 -42q-58 4 -60 73q5 64 60 66q62 0 62 -75zM66 77h78q-4 41 -39 42q-35 -2 -39 -42z" />
    <glyph glyph-name="uni0436" unicode="&#x436;" 
d="M73 70l-56 61h27l51 -57v57h20v-57l51 57h27l-56 -61l59 -69h-27l-54 66v-66h-20v65l-54 -65h-26l58 68v1z" />
    <glyph glyph-name="uni0437" unicode="&#x437;" 
d="M74 95h-21q7 39 53 41q48 -1 50 -35q1 -25 -21 -33q25 -3 27 -30q-2 -39 -53 -41q-56 1 -59 45h21q2 -27 38 -28q30 1 31 23q-2 23 -26 23h-23v17h25q17 4 19 20q0 21 -29 21q-28 -1 -32 -23z" />
    <glyph glyph-name="uni0438" unicode="&#x438;" 
d="M72 1h-22v130h20v-101l68 101h24v-130h-21v102z" />
    <glyph glyph-name="uni0439" unicode="&#x439;" 
d="M61 180h18q3 -19 26 -20q22 2 26 20h18q-6 -33 -44 -34q-41 1 -44 34zM72 1h-22v130h20v-101l68 101h24v-130h-21v102z" />
    <glyph glyph-name="uni043A" unicode="&#x43a;" 
d="M52 1v130h20v-60l56 60h27l-60 -63l64 -67h-28l-59 64v-64h-20z" />
    <glyph glyph-name="uni043B" unicode="&#x43b;" 
d="M78 104v27h88v-130h-20v114h-48v-23q0 -62 -9 -74q-9 -18 -44 -17v18q23 1 28 16q5 12 5 69z" />
    <glyph glyph-name="uni043C" unicode="&#x43c;" 
d="M53 1h-20v130h29l44 -103l45 103h28v-130h-21v101l-44 -101h-17l-44 102v-102z" />
    <glyph glyph-name="uni043D" unicode="&#x43d;" 
d="M52 1v130h21v-54h66v54h20v-130h-20v60h-66v-60h-21z" />
    <glyph glyph-name="uni043E" unicode="&#x43e;" 
d="M105 120q-37 -3 -40 -52q2 -51 41 -53q37 2 40 53q-3 50 -41 52zM106 138q59 -4 62 -71q-3 -67 -63 -70q-59 2 -61 71q4 67 62 70z" />
    <glyph glyph-name="uni043F" unicode="&#x43f;" 
d="M52 1v129h108v-129h-21v113h-67v-113h-20z" />
    <glyph glyph-name="uni0440" unicode="&#x440;" 
d="M65 133v-16q21 21 47 21q50 -2 55 -65q-2 -68 -58 -71q-29 1 -44 23v-63h-20v171h20zM145 72q-4 48 -36 50q-42 -1 -43 -52q2 -50 43 -53q34 8 36 55z" />
    <glyph glyph-name="uni0441" unicode="&#x441;" 
d="M143 48h23q-8 -52 -60 -52q-58 2 -60 71q1 69 64 70q48 -3 53 -46h-21q-5 27 -32 29q-40 -1 -42 -54q2 -49 39 -52q32 0 36 34z" />
    <glyph glyph-name="uni0442" unicode="&#x442;" 
d="M50 115v16h111v-16h-46v-114h-21v114h-44z" />
    <glyph glyph-name="uni0443" unicode="&#x443;" 
d="M100 5l-57 126h25l43 -101l36 102h23l-52 -142q-12 -29 -18 -26q-18 -3 -34 2v19q16 -5 25 0q5 2 9 20z" />
    <glyph glyph-name="uni0444" unicode="&#x444;" 
d="M96 17v102q-60 -3 -58 -51q-1 -49 58 -51zM96 136v45h21v-45q79 -4 79 -68t-79 -68v-38h-21v38q-81 4 -80 68q0 65 80 68zM117 119v-101q58 2 57 51q1 47 -57 50z" />
    <glyph glyph-name="uni0445" unicode="&#x445;" 
d="M69 0h-25l48 69l-46 63h26l33 -45l32 45h26l-45 -63l50 -69h-26l-37 51z" />
    <glyph glyph-name="uni0446" unicode="&#x446;" 
d="M40 1v130h20v-114h67v114h21v-114h24l-2 -49h-18v33h-112z" />
    <glyph glyph-name="uni0447" unicode="&#x447;" 
d="M57 83v48h21v-44q0 -15 22 -15h34v59h20v-130h-20v53h-35q-43 -1 -42 29z" />
    <glyph glyph-name="uni0448" unicode="&#x448;" 
d="M19 1v130h21v-114h55v114h21v-114h56v114h20v-130h-173z" />
    <glyph glyph-name="uni0449" unicode="&#x449;" 
d="M178 1h-163v130h19v-114h52v114h19v-114h51v114h19v-114h21l-2 -47h-16v31z" />
    <glyph glyph-name="uni044A" unicode="&#x44a;" 
d="M70 0v112h-35v16h55v-50h45q38 -1 41 -39q-1 -38 -41 -39h-65zM133 62h-43v-45h41q25 0 24 22q0 23 -22 23z" />
    <glyph glyph-name="uni044B" unicode="&#x44b;" 
d="M177 0h-20v129h20v-129zM34 0v129h21v-50h44q38 -2 41 -39q-2 -39 -41 -40h-65zM95 62h-40v-45h40q22 1 23 23q-2 20 -23 22z" />
    <glyph glyph-name="uni044C" unicode="&#x44c;" 
d="M53 0v129h20v-50h45q37 -1 40 -39q-3 -39 -40 -40h-65zM114 62h-41v-45h41q21 2 23 23q-2 21 -23 22z" />
    <glyph glyph-name="uni044D" unicode="&#x44d;" 
d="M68 91h-22q9 44 59 46q57 -4 61 -69q-2 -68 -61 -71q-54 2 -59 51h22q3 -31 37 -33q35 1 38 46h-56v17h56q-6 39 -38 41q-29 0 -37 -28z" />
    <glyph glyph-name="uni044E" unicode="&#x44e;" 
d="M127 120q-35 -2 -40 -53q1 -51 40 -53q39 2 40 52q-2 53 -40 54zM65 63h-22v-61h-21v129h21v-52h23q8 56 62 58q58 -2 61 -71q-2 -68 -62 -69q-56 2 -62 66z" />
    <glyph glyph-name="uni044F" unicode="&#x44f;" 
d="M93 131h66v-130h-21v52h-29l-33 -53h-23l34 54q-32 6 -33 39q1 38 39 38zM138 115h-42q-18 -2 -21 -23q2 -20 22 -22h41v45z" />
    <glyph glyph-name="uni0451" unicode="&#x451;" 
d="M167 60h-100q2 -41 38 -47q32 2 38 25h22q-9 -41 -60 -42q-58 4 -60 73q5 64 60 66q62 0 62 -75zM66 76h78q-4 41 -39 42q-35 -2 -39 -42zM75 179q10 -1 11 -11q-1 -9 -11 -10q-9 1 -10 10q1 10 10 11zM132 179q10 -1 11 -11q-1 -9 -11 -10q-9 1 -10 10q1 10 10 11z" />
    <glyph glyph-name="uni1E3F" unicode="&#x1e3f;" 
d="M182 82v-83h-7v83q1 48 -28 47q-34 -7 -38 -49v-81h-7v82q0 49 -28 48q-35 -6 -38 -49v-81h-7v133h7v-27q15 30 38 29q28 0 35 -32q13 33 38 32q36 1 35 -52zM124 205l-32 -49h-5l27 49h10z" />
    <glyph glyph-name="emdash" unicode="&#x2014;" 
d="M212 87h-213v5h213v-5z" />
    <glyph glyph-name="uni2016" unicode="&#x2016;" 
d="M89 -28h-11v235h11v-235zM134 -28h-12v235h12v-235z" />
    <glyph glyph-name="quoteleft" unicode="&#x2018;" 
d="M151 147v17q0 29 17 43l1 -1q-16 -15 -15 -40v-1h11v-18h-14z" />
    <glyph glyph-name="quoteright" unicode="&#x2019;" 
d="M60 207v-17q1 -29 -16 -43l-2 2q16 15 15 40v1h-11v17h14z" />
    <glyph glyph-name="quotedblleft" unicode="&#x201c;" 
d="M167 147v17q0 29 17 43l1 -1q-16 -15 -15 -40v-1h12v-18h-15zM135 147v17q0 29 17 43l1 -1q-16 -15 -15 -40v-1h11v-18h-14z" />
    <glyph glyph-name="quotedblright" unicode="&#x201d;" 
d="M44 207v-17q0 -28 -17 -43l-1 2q16 15 15 40v1h-11v17h14zM77 207v-17q0 -28 -17 -43l-2 2q16 15 15 40v1h-11v17h15z" />
    <glyph glyph-name="ellipsis" unicode="&#x2026;" 
d="M113 98v-17h-15v17h15zM41 98v-17h-15v17h15zM186 98v-17h-15v17h15z" />
    <glyph glyph-name="perthousand" unicode="&#x2030;" 
d="M41 -4h-7l75 187h7zM46 97q19 2 20 40q-1 38 -20 40q-20 -1 -20 -41q1 -37 20 -39zM46 183q25 -1 26 -47q-1 -44 -27 -45q-25 2 -26 45q1 46 27 47zM166 2q19 2 20 40q0 39 -20 40q-20 -1 -20 -41q1 -37 20 -39zM166 88q26 -2 27 -47q-1 -44 -28 -45q-25 3 -26 45
q1 45 27 47zM103 2q20 2 21 40q0 39 -20 40q-21 -1 -21 -41q1 -36 20 -39zM104 88q25 -1 26 -47q-1 -43 -27 -45q-25 2 -26 45q1 45 27 47z" />
    <glyph glyph-name="minute" unicode="&#x2032;" 
d="M21 140h-4l8 40q1 8 8 8q6 -1 7 -6q0 -3 -3 -9q-1 -2 -1 -3z" />
    <glyph glyph-name="second" unicode="&#x2033;" 
d="M47 140h-3l8 40q1 8 8 8q6 -1 7 -6q0 -5 -5 -12zM21 140h-4l8 40q1 8 8 8q6 -1 7 -6q0 -3 -3 -9q-1 -2 -1 -3z" />
    <glyph glyph-name="uni203B" unicode="&#x203b;" 
d="M18 12l82 81l-77 77q-4 4 -1 8q3 3 7 -1l77 -77l81 80q3 3 6 -2q1 -3 -2 -7l-78 -78l80 -79q2 -9 -6 -8l-81 80l-79 -80q-8 -3 -9 6zM39 112q18 -1 19 -19q-2 -17 -19 -19q-17 2 -19 19q2 17 19 19zM106 43q18 -1 19 -19q-2 -17 -19 -19q-16 2 -18 19q1 18 18 19z
M173 112q17 -1 18 -19q-2 -17 -18 -19q-17 2 -19 19q1 18 19 19zM106 181q18 -1 19 -19q-2 -17 -19 -19q-16 2 -18 19q1 18 18 19z" />
    <glyph glyph-name="uni203E" unicode="&#x203e;" 
d="M0 207h211v-10h-211v10z" />
    <glyph glyph-name="Euro" unicode="&#x20ac;" horiz-adv-x="168" 
d="M110 67v-6h-73q12 -57 62 -59q43 0 57 44l7 -1q-15 -49 -64 -49q-56 2 -70 65h-21v6h20q-2 9 -2 21q0 13 2 25h-20v5h21q16 62 68 65q46 0 61 -41l-7 -2q-14 37 -55 37q-44 -2 -59 -59h73v-5h-74q-2 -12 -2 -25q0 -12 2 -21h74z" />
    <glyph glyph-name="uni2103" unicode="&#x2103;" 
d="M182 46l5 -1q-12 -49 -53 -49q-59 4 -61 92q3 89 59 95q38 0 52 -41l-7 -2q-11 37 -46 37q-49 -6 -52 -89q2 -82 55 -86q36 1 48 44zM27 156q1 -19 18 -21q18 1 19 21q-1 22 -18 23q-18 -2 -19 -23zM24 156q2 25 22 27q20 -2 22 -27q-1 -23 -22 -25q-21 2 -22 25z" />
    <glyph glyph-name="uni2116" unicode="&#x2116;" 
d="M23 -1v195h6l77 -189v189h4v-195h-6l-77 188v-188h-4zM135 73q3 -42 29 -46q26 4 29 46q-2 43 -29 47q-27 -4 -29 -47zM131 73q3 47 33 52q30 -5 33 -52q-3 -46 -33 -51q-30 5 -33 51zM136 4h55v-5h-55v5z" />
    <glyph glyph-name="uni2160" unicode="&#x2160;" 
d="M109 -10h-7v182h7v-182z" />
    <glyph glyph-name="uni2161" unicode="&#x2161;" 
d="M75 -10h-7v182h7v-182zM144 -10h-8v182h8v-182z" />
    <glyph glyph-name="uni2162" unicode="&#x2162;" 
d="M109 -10h-7v182h7v-182zM68 -10h-7v182h7v-182zM150 -10h-7v182h7v-182z" />
    <glyph glyph-name="uni2163" unicode="&#x2163;" 
d="M40 -10h-7v182h7v-182zM170 172h9l-53 -182h-10l-53 182h8l50 -176z" />
    <glyph glyph-name="uni2164" unicode="&#x2164;" 
d="M168 172h9l-67 -182h-9l-67 182h9l62 -176z" />
    <glyph glyph-name="uni2165" unicode="&#x2165;" 
d="M41 172l49 -176l50 176h8l-53 -182h-10l-52 182h8zM172 -10v182h7v-182h-7z" />
    <glyph glyph-name="uni2166" unicode="&#x2166;" 
d="M124 172h8l-46 -182h-10l-53 182h8l50 -176zM160 -10h-7v181h7v-181zM188 -10h-7v182h7v-182z" />
    <glyph glyph-name="uni2167" unicode="&#x2167;" 
d="M142 -10h-7v182h7v-182zM201 -10h-7v182h7v-182zM172 -10h-7v182h7v-182zM110 172h9l-47 -182h-10l-52 182h8l49 -176z" />
    <glyph glyph-name="uni2168" unicode="&#x2168;" 
d="M69 172h9l43 -76l44 76h8l-48 -83l58 -99h-9l-53 91l-52 -91h-9l57 99zM36 -10h-7v182h7v-182z" />
    <glyph glyph-name="uni2169" unicode="&#x2169;" 
d="M42 172h8l56 -81l56 81h8l-60 -87l66 -95h-9l-61 89l-61 -89h-9l66 95z" />
    <glyph glyph-name="uni216A" unicode="&#x216a;" 
d="M142 172l-48 -83l57 -99h-9l-52 91l-52 -91h-9l57 99l-47 83h8l43 -76l44 76h8zM176 -10v182h7v-182h-7z" />
    <glyph glyph-name="uni216B" unicode="&#x216b;" 
d="M132 172l-48 -83l57 -99h-9l-52 91l-52 -91h-9l57 99l-47 83h8l43 -76l44 76h8zM157 -10v182h7v-182h-7zM185 -10v182h8v-182h-8z" />
    <glyph glyph-name="uni2170" unicode="&#x2170;" 
d="M109 -10h-7v131h7v-131zM109 158h-7v14h7v-14z" />
    <glyph glyph-name="uni2171" unicode="&#x2171;" 
d="M85 -10h-7v131h7v-131zM85 158h-7v14h7v-14zM134 -10h-7v131h7v-131zM134 158h-7v14h7v-14z" />
    <glyph glyph-name="uni2172" unicode="&#x2172;" 
d="M109 -10h-7v131h7v-131zM109 158h-7v14h7v-14zM73 -10h-7v131h7v-131zM73 158h-7v14h7v-14zM146 -10h-8v131h8v-131zM146 158h-8v14h8v-14z" />
    <glyph glyph-name="uni2173" unicode="&#x2173;" 
d="M165 123h8l-47 -133h-9l-47 133h8l43 -127zM46 -10h-8v131h8v-131zM46 158h-8v14h8v-14z" />
    <glyph glyph-name="uni2174" unicode="&#x2174;" 
d="M149 123h8l-46 -133h-10l-46 133h8l43 -127z" />
    <glyph glyph-name="uni2175" unicode="&#x2175;" 
d="M46 123l44 -127l43 127h8l-47 -133h-9l-47 133h8zM166 -10v131h7v-131h-7zM166 158v14h7v-14h-7z" />
    <glyph glyph-name="uni2176" unicode="&#x2176;" 
d="M112 123h8l-47 -133h-9l-47 133h9l43 -127zM153 -10h-7v131h7v-131zM153 158h-7v14h7v-14zM194 -10h-7v131h7v-131zM194 158h-7v14h7v-14z" />
    <glyph glyph-name="uni2177" unicode="&#x2177;" 
d="M101 123h8l-46 -133h-9l-47 133h8l43 -127zM141 -10h-7v131h7v-131zM141 158h-7v14h7v-14zM173 -10h-7v131h7v-131zM173 158h-7v14h7v-14zM205 -10h-7v131h7v-131zM205 158h-7v14h7v-14z" />
    <glyph glyph-name="uni2178" unicode="&#x2178;" 
d="M74 123h8l39 -58l40 58h7l-43 -64l48 -69h-9l-43 64l-43 -64h-8l47 69zM46 -10h-7v131h7v-131zM46 158h-7v14h7v-14z" />
    <glyph glyph-name="uni2179" unicode="&#x2179;" 
d="M59 123h7l39 -58l40 58h7l-42 -64l47 -69h-8l-43 64l-43 -64h-8l47 69z" />
    <glyph glyph-name="arrowleft" unicode="&#x2190;" 
d="M211 94v-8h-165q21 -23 20 -46q-25 35 -66 51q38 14 66 49q-1 -27 -20 -46h165z" />
    <glyph glyph-name="arrowup" unicode="&#x2191;" 
d="M110 -38h-8v209q-24 -20 -46 -19q35 26 50 66q13 -38 49 -66q-27 1 -45 19v-209z" />
    <glyph glyph-name="arrowright" unicode="&#x2192;" 
d="M0 94h165q-18 18 -19 46q28 -36 65 -49q-40 -16 -65 -51q-2 20 19 46h-165v8z" />
    <glyph glyph-name="arrowdown" unicode="&#x2193;" 
d="M110 218v-210q20 19 45 19q-35 -26 -49 -65q-16 39 -50 65q19 2 46 -19v210h8z" />
    <glyph glyph-name="element" unicode="&#x2208;" 
d="M184 24v-15h-92q-64 1 -65 78q1 77 65 78h92v-14h-93q-47 -4 -47 -56h136v-14h-136q-1 -57 46 -57h94z" />
    <glyph glyph-name="product" unicode="&#x220f;" 
d="M180 161v-160q-1 -22 25 -21v-6h-78v6q26 -1 25 21v177h-92v-177q-1 -22 25 -21v-6h-79v6q26 -2 25 21v160q0 25 -24 25v6h198v-6q-25 0 -25 -25z" />
    <glyph glyph-name="summation" unicode="&#x2211;" 
d="M173 190l1 -40h-5q0 1 -1 4q-4 26 -38 25h-67l70 -92l-76 -87h95q25 -3 35 29h6q-9 -29 -11 -57q-2 0 -7 1q-9 2 -13 2h-129h-7q-5 -1 -8 -1l90 102l-89 116q14 -2 27 -2h127z" />
    <glyph glyph-name="radical" unicode="&#x221a;" 
d="M102 -2l105 220h4v-11l-113 -236h-6l-59 156l-29 -16l-4 9l48 26z" />
    <glyph glyph-name="proportional" unicode="&#x221d;" 
d="M25 82q2 46 42 48q27 0 41 -36q17 35 49 34q25 0 28 -7q0 -5 -4 -5h-6q-5 1 -8 1q-30 0 -49 -36q-1 -3 -2 -5q16 -27 49 -27q4 0 11 1q3 1 4 1q6 0 6 -3q-7 -11 -28 -12q-33 -1 -45 33q-18 -37 -46 -35q-40 1 -42 48zM33 80q1 -30 30 -31q21 0 39 36q1 3 2 4
q-12 25 -37 25q-32 -2 -34 -34z" />
    <glyph glyph-name="infinity" unicode="&#x221e;" 
d="M106 92q20 21 33 26q43 11 51 -32q-2 -34 -38 -36q-18 -1 -46 28q-24 -27 -46 -28q-37 2 -39 35q8 45 52 33q12 -4 33 -26zM100 84q-19 23 -33 26q-32 6 -36 -25q2 -24 29 -26q18 0 40 25zM111 85q18 -21 37 -26q29 -1 33 25q-4 33 -37 26q-13 -5 -33 -25z" />
    <glyph glyph-name="angle" unicode="&#x2220;" 
d="M18 1l122 160l8 -6l-108 -144h153v-10h-175z" />
    <glyph glyph-name="uni2225" unicode="&#x2225;" 
d="M82 -32h-10l125 250h10zM14 -32h-9l124 250h10z" />
    <glyph glyph-name="logicaland" unicode="&#x2227;" 
d="M178 -8h-13l-56 186l-62 -184h-13l67 200h16z" />
    <glyph glyph-name="logicalor" unicode="&#x2228;" 
d="M47 192l58 -187l61 187h12l-64 -203h-16l-64 203h13z" />
    <glyph glyph-name="intersection" unicode="&#x2229;" 
d="M169 0v92q-1 57 -63 59q-62 -2 -64 -59v-92h-15v92q2 72 79 74q76 -2 78 -74v-92h-15z" />
    <glyph glyph-name="union" unicode="&#x222a;" 
d="M169 68v93h15v-91q-2 -73 -78 -75q-77 2 -79 75v91h15v-93q1 -56 64 -58q62 1 63 58z" />
    <glyph glyph-name="integral" unicode="&#x222b;" 
d="M100 46l3 85q3 56 26 57q7 0 8 -6q0 -5 -5 -5q-3 0 -7 3q-1 2 -2 2q-10 0 -11 -50l-3 -86q-3 -89 -27 -84q-7 1 -8 7q0 5 6 5q2 0 5 -3q2 -2 3 -2q10 -5 12 77z" />
    <glyph glyph-name="uni222E" unicode="&#x222e;" 
d="M111 100l-2 -47q20 3 21 24q-1 19 -19 23zM100 53l2 47q-19 -2 -20 -23q0 -19 18 -24zM112 132v-26q23 -5 24 -29q-1 -27 -27 -30v-1q-1 -37 -5 -57q-6 -26 -22 -27q-7 1 -8 7q0 5 6 5q2 0 5 -3q2 -2 3 -2q11 1 11 58l1 20q-23 4 -24 30q1 26 26 29l1 25q4 58 26 58
q7 -1 8 -7q0 -5 -5 -5q-3 0 -7 3q-1 2 -2 2q-10 2 -11 -50z" />
    <glyph glyph-name="therefore" unicode="&#x2234;" 
d="M60 41q-1 -10 -11 -11q-10 1 -11 11q1 10 11 11q11 0 11 -11zM173 41q-1 -10 -11 -11q-10 1 -11 11q1 10 11 11q10 -1 11 -11zM117 138q-1 -10 -11 -11q-10 1 -11 11q1 10 11 11q10 -1 11 -11z" />
    <glyph glyph-name="uni2235" unicode="&#x2235;" 
d="M60 138q0 -11 -11 -11q-10 1 -11 11q1 10 11 11q10 -1 11 -11zM173 138q-1 -10 -11 -11q-10 1 -11 11q1 10 11 11q10 -1 11 -11zM117 41q-1 -10 -11 -11q-10 1 -11 11q1 10 11 11q10 -1 11 -11z" />
    <glyph glyph-name="uni2236" unicode="&#x2236;" 
d="M113 150v-18h-15v18h15zM113 47v-18h-15v18h15z" />
    <glyph glyph-name="uni2237" unicode="&#x2237;" 
d="M149 140q12 -1 13 -13q-2 -12 -13 -13q-11 1 -13 13q1 12 13 13zM149 49q11 -1 13 -12q-1 -12 -13 -13q-12 1 -13 13q2 11 13 12zM62 140q12 -1 13 -13q-2 -12 -13 -13q-10 2 -12 13q1 11 12 13zM62 49q11 -1 13 -12q-1 -12 -13 -13q-11 2 -12 13q2 11 12 12z" />
    <glyph glyph-name="similar" unicode="&#x223c;" 
d="M50 84v6q13 11 28 10q15 0 29 -7q3 -1 8 -3q13 -6 18 -6q12 0 26 10v-5q-11 -9 -25 -10q-11 0 -29 9q-12 7 -27 7t-28 -11z" />
    <glyph glyph-name="uni223D" unicode="&#x223d;" 
d="M204 49h-11q-2 53 -40 55q-18 0 -43 -26q-28 -29 -50 -29q-50 -1 -53 66h11q1 -54 40 -55q20 0 45 27q27 28 50 28q47 -1 51 -66z" />
    <glyph glyph-name="approxequal" unicode="&#x2248;" 
d="M190 118v-14q-22 -18 -43 -17q-16 0 -44 11q-25 10 -38 10q-20 1 -44 -19v13q24 19 43 18q16 0 45 -11q25 -10 37 -10q21 0 44 19zM190 80v-14q-22 -18 -43 -17q-16 0 -44 11q-25 9 -38 9q-20 1 -44 -19v14q23 18 43 17q16 0 45 -11q25 -10 37 -10q20 0 44 20z" />
    <glyph glyph-name="uni224C" unicode="&#x224c;" 
d="M208 12h-204v11h204v-11zM208 48h-204v11h204v-11zM206 87h-11q-2 53 -40 54q-18 0 -43 -26q-28 -28 -50 -28q-49 0 -52 65h10q1 -54 40 -55q20 0 46 27q27 28 49 28q49 -1 51 -65z" />
    <glyph glyph-name="notequal" unicode="&#x2260;" 
d="M79 57h-59v12h68l21 27h-89v12h98l45 59h13l-45 -59h60v-12h-69l-21 -27h90v-12h-99l-44 -60h-13z" />
    <glyph glyph-name="equivalence" unicode="&#x2261;" 
d="M190 111h-169v12h169v-12zM190 41h-169v12h169v-12zM190 76h-169v12h169v-12z" />
    <glyph glyph-name="lessequal" unicode="&#x2264;" 
d="M193 59v-16l-174 48v16l174 48v-15l-153 -41zM193 12v-15l-174 49v15z" />
    <glyph glyph-name="greaterequal" unicode="&#x2265;" 
d="M193 61v-15l-174 -49v15zM193 107v-16l-174 -48v16l152 40l-152 41v15z" />
    <glyph glyph-name="uni226E" unicode="&#x226e;" 
d="M91 61l22 52l-77 -30zM191 21v-12l-94 38l-21 -50h-12l23 54l-66 26v11l99 39l16 40h12l-14 -34l57 23v-12l-64 -25l-26 -62z" />
    <glyph glyph-name="uni226F" unicode="&#x226f;" 
d="M76 -3h-12l15 36l-58 -24v13l64 25l26 62l-90 36v11l94 -37l21 48h12l-23 -53l66 -26v-11l-98 -39zM121 104l-22 -52l76 31z" />
    <glyph glyph-name="uni2299" unicode="&#x2299;" 
d="M106 76q-13 2 -15 15q2 14 15 15q14 -1 15 -15q-1 -13 -15 -15zM106 9q75 7 82 82q-7 76 -82 83q-75 -7 -82 -83q7 -75 82 -82zM106 184q85 -8 93 -93q-8 -85 -93 -93q-85 8 -93 93q8 85 93 93z" />
    <glyph glyph-name="perpendicular" unicode="&#x22a5;" 
d="M29 11h71v150h11v-150h71v-10h-153v10z" />
    <glyph glyph-name="uni22EF" unicode="&#x22ef;" 
d="M113 98v-17h-15v17h15zM41 98v-17h-15v17h15zM186 98v-17h-15v17h15z" />
    <glyph glyph-name="uni2312" unicode="&#x2312;" 
d="M211 58l-1 -2q-4 0 -14 11q-38 43 -88 45h-6q-50 -2 -88 -45q-9 -11 -13 -11l-1 2q37 72 105 72q71 1 106 -72z" />
    <glyph glyph-name="uni2460" unicode="&#x2460;" 
d="M108 5h-5v151q-14 -16 -36 -23v6q33 10 38 35h3v-169zM12 90q5 -106 94 -113q88 6 93 113q-7 104 -93 113q-87 -9 -94 -113zM6 90q6 109 100 119q93 -10 100 -119q-6 -112 -100 -119q-94 7 -100 119z" />
    <glyph glyph-name="uni2461" unicode="&#x2461;" 
d="M144 13v-5h-77v5q11 33 41 64q31 35 30 57q-1 36 -30 38q-23 0 -32 -33q-1 0 -3 1t-3 1q10 36 39 36q33 -2 35 -43q2 -26 -32 -61q-27 -27 -39 -60h71zM12 90q5 -106 94 -113q88 6 93 113q-7 104 -93 113q-87 -9 -94 -113zM6 90q6 109 100 119q93 -10 100 -119
q-6 -112 -100 -119q-94 7 -100 119z" />
    <glyph glyph-name="uni2462" unicode="&#x2462;" 
d="M102 91h-8v5h8q31 2 32 38q-1 34 -29 35q-22 0 -29 -30q-2 0 -4 1h-2q8 33 35 34q34 -2 35 -41q0 -28 -21 -40q25 -7 25 -40q-1 -47 -39 -48q-31 0 -38 37q1 0 3 1h2q8 -34 33 -33q33 1 34 43q-2 37 -37 38zM12 90q5 -106 94 -113q88 6 93 113q-7 104 -93 113
q-87 -9 -94 -113zM6 90q6 109 100 119q93 -10 100 -119q-6 -112 -100 -119q-94 7 -100 119z" />
    <glyph glyph-name="uni2463" unicode="&#x2463;" 
d="M64 58h55v107zM141 54h-17v-45h-5v45h-60v4l61 117h4v-117h17v-4zM12 90q5 -106 94 -113q88 6 93 113q-7 104 -93 113q-87 -9 -94 -113zM6 90q6 109 100 119q93 -10 100 -119q-6 -112 -100 -119q-94 7 -100 119z" />
    <glyph glyph-name="uni2464" unicode="&#x2464;" 
d="M67 39l5 2q9 -31 33 -31q33 2 34 52q-1 47 -33 49q-20 0 -32 -22h-3l7 85h60v-5h-55l-5 -67q11 15 29 14q36 -3 38 -54q-1 -55 -40 -57q-29 0 -38 34zM12 90q5 -106 94 -113q88 6 93 113q-7 104 -93 113q-87 -9 -94 -113zM6 90q6 109 100 119q93 -10 100 -119
q-6 -112 -100 -119q-94 7 -100 119z" />
    <glyph glyph-name="uni2465" unicode="&#x2465;" 
d="M73 66q2 -53 34 -56q30 2 32 50q-2 45 -31 48q-31 -4 -35 -42zM142 145l-6 -2q-8 25 -27 26q-34 -2 -36 -82q12 26 35 26q35 -4 37 -53q-2 -52 -38 -55q-40 0 -40 79q1 87 42 90q24 -1 33 -29zM12 90q5 -106 94 -113q88 6 93 113q-7 104 -93 113q-87 -9 -94 -113zM6 90
q6 109 100 119q93 -10 100 -119q-6 -112 -100 -119q-94 7 -100 119z" />
    <glyph glyph-name="uni2466" unicode="&#x2466;" 
d="M145 166v-4q-45 -94 -51 -165h-6q5 60 52 164h-73v5h78zM12 90q5 -106 94 -113q88 6 93 113q-7 104 -93 113q-87 -9 -94 -113zM6 90q6 109 100 119q93 -10 100 -119q-6 -112 -100 -119q-94 7 -100 119z" />
    <glyph glyph-name="uni2467" unicode="&#x2467;" 
d="M105 91q-31 -2 -33 -41q1 -38 33 -40q34 1 34 40q-1 39 -34 41zM105 169q-27 -2 -28 -36q1 -35 28 -37q29 1 29 37q-1 34 -29 36zM71 133q2 38 34 41q33 -3 35 -41q0 -28 -21 -40q27 -11 26 -43q-1 -44 -40 -45q-38 2 -39 45q2 33 27 43q-21 12 -22 40zM12 90
q5 -106 94 -113q88 6 93 113q-7 104 -93 113q-87 -9 -94 -113zM6 90q6 109 100 119q93 -10 100 -119q-6 -112 -100 -119q-94 7 -100 119z" />
    <glyph glyph-name="uni2468" unicode="&#x2468;" 
d="M139 113q-2 53 -34 56q-30 -2 -32 -49q1 -47 30 -49q33 3 36 42zM70 28l6 3q9 -22 28 -21q34 -1 35 81q-13 -25 -37 -25q-33 3 -35 53q2 52 37 55q41 0 41 -79q1 -92 -41 -90q-24 0 -34 23zM12 90q5 -106 94 -113q88 6 93 113q-7 104 -93 113q-87 -9 -94 -113zM6 90
q6 109 100 119q93 -10 100 -119q-6 -112 -100 -119q-94 7 -100 119z" />
    <glyph glyph-name="uni2469" unicode="&#x2469;" 
d="M76 10h-6v144q-11 -15 -31 -22v6q30 11 33 33h4v-161zM131 13q31 -2 30 77q0 77 -30 77q-29 0 -29 -77q0 -78 29 -77zM131 172q34 -2 35 -82q0 -83 -35 -82q-35 -1 -35 82q1 80 35 82zM12 90q5 -106 94 -113q88 6 93 113q-7 104 -93 113q-87 -9 -94 -113zM6 90
q6 109 100 119q93 -10 100 -119q-6 -112 -100 -119q-94 7 -100 119z" />
    <glyph glyph-name="uni2474" unicode="&#x2474;" 
d="M109 -10h-7v164q-14 -17 -39 -25v7q38 12 42 38h4v-184zM51 -28h-6q-29 56 -29 118q0 58 29 118h6q-28 -60 -27 -118q-1 -61 27 -118zM161 208h5q29 -56 29 -118q0 -64 -29 -118h-5q27 54 26 118q1 60 -26 118z" />
    <glyph glyph-name="uni2475" unicode="&#x2475;" 
d="M142 -4v-6h-72v5q8 32 37 72q29 37 29 63q-1 41 -28 43q-21 0 -30 -36q-1 0 -3 1q-1 0 -2 1q9 40 36 40q31 -2 32 -49q1 -29 -29 -67q-26 -32 -37 -67h67zM51 -28h-6q-29 56 -29 118q0 58 29 118h6q-28 -60 -27 -118q-1 -61 27 -118zM161 208h5q29 -56 29 -118
q0 -64 -29 -118h-5q27 54 26 118q1 60 -26 118z" />
    <glyph glyph-name="uni2476" unicode="&#x2476;" 
d="M102 85h-7v5h7q29 2 30 42q-1 37 -27 39q-20 -1 -27 -34q-1 1 -3 1q-2 1 -3 1q8 37 33 38q31 -1 32 -45q0 -34 -19 -44q24 -10 24 -46q-1 -51 -37 -52q-29 -1 -36 41q4 0 5 1q7 -38 31 -37q30 1 31 47q-1 42 -34 43zM51 -28h-6q-29 56 -29 118q0 58 29 118h6
q-28 -60 -27 -118q-1 -61 27 -118zM161 208h5q29 -56 29 -118q0 -64 -29 -118h-5q27 54 26 118q1 60 -26 118z" />
    <glyph glyph-name="uni2477" unicode="&#x2477;" 
d="M70 46h47v120zM137 40h-15v-50h-5v50h-52v5l53 134h4v-133h15v-6zM51 -28h-6q-29 56 -29 118q0 58 29 118h6q-28 -60 -27 -118q-1 -61 27 -118zM161 208h5q29 -56 29 -118q0 -64 -29 -118h-5q27 54 26 118q1 60 -26 118z" />
    <glyph glyph-name="uni2478" unicode="&#x2478;" 
d="M66 27l6 2q9 -34 33 -34q33 2 34 57q-1 53 -34 55q-19 0 -31 -25l-1 1h-2l7 94h60v-6h-55l-6 -74q13 17 30 16q36 -3 38 -61q-2 -59 -40 -62q-30 0 -39 37zM51 -28h-6q-29 56 -29 118q0 58 29 118h6q-28 -60 -27 -118q-1 -61 27 -118zM161 208h5q29 -56 29 -118
q0 -64 -29 -118h-5q27 54 26 118q1 60 -26 118z" />
    <glyph glyph-name="uni2479" unicode="&#x2479;" 
d="M139 145l-5 -3q-9 29 -27 29q-33 -2 -36 -90q13 27 34 28q35 -3 37 -58q-1 -59 -37 -61q-40 0 -40 87q1 97 42 100q23 0 32 -32zM71 57q2 -59 34 -62q30 2 31 56q-2 49 -31 52q-30 -4 -34 -46zM51 -28h-6q-29 56 -29 118q0 58 29 118h6q-28 -60 -27 -118q-1 -61 27 -118z
M161 208h5q29 -56 29 -118q0 -64 -29 -118h-5q27 54 26 118q1 60 -26 118z" />
    <glyph glyph-name="uni247A" unicode="&#x247a;" 
d="M145 177v-5q-44 -103 -51 -182h-6q7 72 53 181h-74v6h78zM51 -28h-6q-29 56 -29 118q0 58 29 118h6q-28 -60 -27 -118q-1 -61 27 -118zM161 208h5q29 -56 29 -118q0 -64 -29 -118h-5q27 54 26 118q1 60 -26 118z" />
    <glyph glyph-name="uni247B" unicode="&#x247b;" 
d="M104 85q-32 -2 -33 -46q1 -42 33 -44q32 2 33 44q-1 44 -33 46zM104 171q-27 -2 -28 -40q1 -39 28 -41q27 1 28 41q-1 38 -28 40zM70 131q2 44 34 46q31 -3 33 -46q0 -32 -20 -43q25 -14 25 -49q-2 -47 -38 -49q-37 1 -38 49q2 38 26 49q-21 12 -22 43zM51 -28h-6
q-29 56 -29 118q0 58 29 118h6q-28 -60 -27 -118q-1 -61 27 -118zM161 208h5q29 -56 29 -118q0 -64 -29 -118h-5q27 54 26 118q1 60 -26 118z" />
    <glyph glyph-name="uni247C" unicode="&#x247c;" 
d="M136 109q-2 59 -33 62q-30 -3 -32 -54q1 -51 30 -54q32 3 35 46zM68 16l6 2q9 -23 28 -23q34 -1 34 90q-13 -28 -35 -28q-33 3 -35 59q2 58 36 61q40 1 40 -88q1 -101 -40 -99q-26 0 -34 26zM51 -28h-6q-29 56 -29 118q0 58 29 118h6q-28 -60 -27 -118q-1 -61 27 -118z
M161 208h5q29 -56 29 -118q0 -64 -29 -118h-5q27 54 26 118q1 60 -26 118z" />
    <glyph glyph-name="uni247D" unicode="&#x247d;" 
d="M84 -8h-5v165q-13 -18 -34 -25v6q31 11 36 38h3v-184zM127 -5q25 -1 25 88q0 88 -25 88q-24 0 -24 -88q0 -89 24 -88zM127 176q28 -2 29 -93q0 -93 -29 -93q-29 -1 -29 93q1 90 29 93zM51 -28h-6q-29 56 -29 118q0 58 29 118h6q-28 -60 -27 -118q-1 -61 27 -118zM161 208
h5q29 -56 29 -118q0 -64 -29 -118h-5q27 54 26 118q1 60 -26 118z" />
    <glyph glyph-name="uni247E" unicode="&#x247e;" 
d="M89 -5h-5v164q-12 -17 -34 -25v7q31 11 36 38h3v-184zM143 -5h-6v164q-13 -17 -33 -25v7q32 12 35 38h4v-184zM51 -28h-6q-29 56 -29 118q0 58 29 118h6q-28 -60 -27 -118q-1 -61 27 -118zM161 208h5q29 -56 29 -118q0 -64 -29 -118h-5q27 54 26 118q1 60 -26 118z" />
    <glyph glyph-name="uni247F" unicode="&#x247f;" 
d="M84 -8h-5v165q-13 -18 -34 -25v6q31 11 36 38h3v-184zM156 -2v-6h-58v5q8 34 30 70q24 37 23 62q-1 40 -22 42q-16 0 -24 -36q-1 0 -2 1q-1 0 -2 1q7 39 28 39q25 -1 26 -47q1 -28 -23 -66q-22 -34 -30 -65h54zM51 -28h-6q-29 56 -29 118q0 58 29 118h6q-28 -60 -27 -118
q-1 -61 27 -118zM161 208h5q29 -56 29 -118q0 -64 -29 -118h-5q27 54 26 118q1 60 -26 118z" />
    <glyph glyph-name="uni2480" unicode="&#x2480;" 
d="M84 -8h-5v165q-13 -18 -34 -25v6q31 11 36 38h3v-184zM124 82h-5v6h5q23 1 24 42q-1 38 -21 39q-17 0 -22 -34q-1 0 -3 1h-1q5 37 26 38q25 -1 25 -45q0 -32 -15 -44q18 -9 19 -45q-1 -51 -30 -53q-22 0 -28 41q1 0 2 1q1 0 2 1q6 -37 24 -37q26 1 26 47q-1 41 -28 42z
M51 -28h-6q-29 56 -29 118q0 58 29 118h6q-28 -60 -27 -118q-1 -61 27 -118zM161 208h5q29 -56 29 -118q0 -64 -29 -118h-5q27 54 26 118q1 60 -26 118z" />
    <glyph glyph-name="uni2481" unicode="&#x2481;" 
d="M84 -8h-5v165q-13 -18 -34 -25v6q31 11 36 38h3v-184zM104 47h35v111zM156 41h-12v-49h-5v49h-41v5l43 130h3v-129h12v-6zM51 -28h-6q-29 56 -29 118q0 58 29 118h6q-28 -60 -27 -118q-1 -61 27 -118zM161 208h5q29 -56 29 -118q0 -64 -29 -118h-5q27 54 26 118
q1 60 -26 118z" />
    <glyph glyph-name="uni2482" unicode="&#x2482;" 
d="M84 -8h-5v165q-13 -18 -34 -25v6q31 11 36 38h3v-184zM98 29l4 2q7 -33 24 -33q25 1 26 56q-1 51 -25 54q-14 0 -23 -25l-2 1l5 92h44v-5h-41l-4 -73q11 16 22 15q26 -4 28 -59q-1 -60 -30 -62q-20 0 -28 37zM51 -28h-6q-29 56 -29 118q0 58 29 118h6q-28 -60 -27 -118
q-1 -61 27 -118zM161 208h5q29 -56 29 -118q0 -64 -29 -118h-5q27 54 26 118q1 60 -26 118z" />
    <glyph glyph-name="uni2483" unicode="&#x2483;" 
d="M84 -8h-5v165q-13 -18 -34 -25v6q31 11 36 38h3v-184zM103 57q1 -59 25 -62q23 2 24 56q-1 49 -23 52q-24 -3 -26 -46zM154 144l-4 -2q-7 29 -20 29q-25 -1 -28 -91q11 29 27 29q25 -3 27 -58q-1 -58 -28 -61q-30 0 -30 87q1 96 32 99q18 -1 24 -32zM51 -28h-6
q-29 56 -29 118q0 58 29 118h6q-28 -60 -27 -118q-1 -61 27 -118zM161 208h5q29 -56 29 -118q0 -64 -29 -118h-5q27 54 26 118q1 60 -26 118z" />
    <glyph glyph-name="uni2484" unicode="&#x2484;" 
d="M84 -8h-5v165q-13 -18 -34 -25v6q31 11 36 38h3v-184zM156 174v-4q-34 -106 -37 -178h-7q8 82 38 176h-52v6h58zM51 -28h-6q-29 56 -29 118q0 58 29 118h6q-28 -60 -27 -118q-1 -61 27 -118zM161 208h5q29 -56 29 -118q0 -64 -29 -118h-5q27 54 26 118q1 60 -26 118z" />
    <glyph glyph-name="uni2485" unicode="&#x2485;" 
d="M84 -8h-5v165q-13 -18 -34 -25v6q31 11 36 38h3v-184zM127 85q-24 -2 -25 -46q1 -42 25 -44q24 1 25 44q-1 44 -25 46zM127 171q-20 -2 -21 -40q1 -39 21 -41q21 1 21 41q-1 38 -21 40zM102 131q2 43 25 46q23 -3 25 -46q0 -31 -15 -43q19 -14 19 -49q-1 -47 -29 -49
q-28 1 -29 49q1 37 20 49q-15 12 -16 43zM51 -28h-6q-29 56 -29 118q0 58 29 118h6q-28 -60 -27 -118q-1 -61 27 -118zM161 208h5q29 -56 29 -118q0 -64 -29 -118h-5q27 54 26 118q1 60 -26 118z" />
    <glyph glyph-name="uni2486" unicode="&#x2486;" 
d="M84 -8h-5v165q-13 -18 -34 -25v6q31 11 36 38h3v-184zM100 16l4 2q7 -23 22 -23q25 -1 26 90q-10 -28 -28 -28q-25 3 -26 59q2 58 27 61q31 1 31 -88q0 -101 -31 -99q-20 0 -25 26zM152 109q-2 58 -26 62q-22 -4 -24 -54q1 -51 23 -54q25 3 27 46zM51 -28h-6
q-29 56 -29 118q0 58 29 118h6q-28 -60 -27 -118q-1 -61 27 -118zM161 208h5q29 -56 29 -118q0 -64 -29 -118h-5q27 54 26 118q1 60 -26 118z" />
    <glyph glyph-name="uni2487" unicode="&#x2487;" 
d="M138 -5q22 -2 22 88q0 88 -22 88q-21 0 -21 -88q0 -89 21 -88zM138 176q25 -3 26 -93q0 -93 -26 -93q-25 -1 -25 93q1 91 25 93zM103 -1v-6h-54v5q9 41 27 69q22 39 21 62q-1 40 -21 41q-15 1 -22 -35q-1 0 -2 1q-1 0 -2 1q7 38 27 39q23 -2 24 -47q1 -29 -22 -66
q-18 -30 -25 -64h49zM51 -28h-6q-29 56 -29 118q0 58 29 118h6q-28 -60 -27 -118q-1 -61 27 -118zM161 208h5q29 -56 29 -118q0 -64 -29 -118h-5q27 54 26 118q1 60 -26 118z" />
    <glyph glyph-name="uni2488" unicode="&#x2488;" 
d="M106 -10h-6v164q-14 -17 -39 -25v7q37 11 41 38h4v-184zM198 7v-17h-13v17h13z" />
    <glyph glyph-name="uni2489" unicode="&#x2489;" 
d="M140 -5v-5h-85v5q12 33 44 70q34 36 33 61q-1 40 -32 42q-25 0 -35 -34q-4 0 -6 1q11 39 42 39q36 -2 38 -48q1 -30 -35 -65q-31 -32 -42 -66h78zM197 7v-17h-12v17h12z" />
    <glyph glyph-name="uni248A" unicode="&#x248a;" 
d="M94 82h-8v6h8q34 2 35 41q-1 37 -31 39q-27 0 -33 -33q-1 0 -3 1h-4q10 39 40 38q36 -1 37 -45q1 -32 -23 -44q28 -9 29 -45q-1 -51 -44 -53q-34 -1 -42 41q3 1 6 1q8 -37 36 -36q37 1 37 47q-1 41 -40 42zM197 7v-17h-12v17h12z" />
    <glyph glyph-name="uni248B" unicode="&#x248b;" 
d="M60 45h62v118zM146 39h-19v-49h-5v49h-67v5l67 130h5v-129h19v-6zM197 7v-17h-12v17h12z" />
    <glyph glyph-name="uni248C" unicode="&#x248c;" 
d="M55 24l6 2q11 -33 36 -33q36 2 37 56q-2 51 -36 54q-22 0 -35 -25l-1 1h-2l8 93h65v-6h-60l-6 -73q15 16 32 15q39 -3 41 -59q-2 -60 -43 -62q-31 0 -42 37zM197 7v-17h-12v17h12z" />
    <glyph glyph-name="uni248D" unicode="&#x248d;" 
d="M62 55q2 -59 38 -62q33 2 35 55q-2 50 -35 53q-34 -4 -38 -46zM138 142l-6 -2q-9 28 -30 28q-37 -2 -40 -90q13 28 38 28q39 -4 41 -58q-2 -58 -41 -61q-45 0 -45 87q1 97 47 100q27 -1 36 -32zM197 7v-17h-12v17h12z" />
    <glyph glyph-name="uni248E" unicode="&#x248e;" 
d="M139 172v-5q-48 -101 -54 -177h-7q7 68 56 176h-79v6h84zM197 7v-17h-12v17h12z" />
    <glyph glyph-name="uni248F" unicode="&#x248f;" 
d="M99 82q-35 -2 -37 -45q1 -42 37 -44q36 1 37 44q-2 43 -37 45zM99 168q-31 -2 -32 -39q2 -39 32 -41q31 1 31 41q-1 37 -31 39zM61 129q2 43 38 45q35 -3 38 -45q0 -32 -23 -44q29 -12 29 -48q-2 -48 -44 -50q-43 2 -44 50q2 35 30 48q-23 13 -24 44zM197 7v-17h-12v17
h12z" />
    <glyph glyph-name="uni2490" unicode="&#x2490;" 
d="M135 106q-2 59 -38 62q-33 -3 -35 -54q1 -52 34 -54q36 3 39 46zM59 13l6 3q10 -24 32 -23q37 -1 38 89q-14 -27 -40 -27q-37 3 -39 58q2 58 41 61q45 0 45 -87q0 -101 -45 -100q-29 -1 -38 26zM197 7v-17h-12v17h12z" />
    <glyph glyph-name="uni2491" unicode="&#x2491;" 
d="M59 -10h-5v164q-13 -17 -33 -25v7q30 11 35 38h3v-184zM127 -7q31 -1 31 88q0 88 -31 88q-32 -1 -32 -88q0 -89 32 -88zM127 174q35 -2 36 -93q0 -94 -36 -94q-38 -2 -37 94q1 91 37 93zM194 7v-17h-12v17h12z" />
    <glyph glyph-name="uni2492" unicode="&#x2492;" 
d="M63 -10h-5v164q-14 -17 -34 -25v7q32 12 35 38h4v-184zM146 -10h-5v164q-12 -17 -34 -25v7q31 11 36 38h3v-184zM195 7v-17h-13v17h13z" />
    <glyph glyph-name="uni2493" unicode="&#x2493;" 
d="M165 -5v-5h-73v5q9 33 38 70q30 37 29 61q-1 41 -29 42q-21 0 -30 -35q-1 1 -2 1q-2 1 -3 1q10 39 37 39q31 -3 33 -48q1 -30 -31 -65q-24 -30 -37 -66h68zM63 -10h-5v164q-14 -17 -34 -25v7q32 12 35 38h4v-184zM195 7v-17h-13v17h13z" />
    <glyph glyph-name="uni2494" unicode="&#x2494;" 
d="M125 82h-7v6h7q29 2 30 42q-1 38 -26 39q-23 0 -29 -34q-1 0 -3 1h-3q8 39 35 38q31 -2 32 -45q0 -32 -20 -44q24 -9 24 -45q-1 -52 -38 -53q-28 0 -36 41q1 0 3 1q2 0 3 1q7 -38 30 -37q32 1 33 47q-1 41 -35 42zM63 -10h-5v164q-14 -17 -34 -25v7q32 12 35 38h4v-184z
M195 7v-17h-13v17h13z" />
    <glyph glyph-name="uni2495" unicode="&#x2495;" 
d="M95 45h50v118zM165 39h-15v-49h-5v49h-54v5l55 130h4v-129h15v-6zM63 -10h-5v164q-14 -17 -34 -25v7q32 12 35 38h4v-184zM195 7v-17h-13v17h13z" />
    <glyph glyph-name="uni2496" unicode="&#x2496;" 
d="M92 26l5 3q8 -34 31 -34q31 2 32 57q-1 50 -32 53q-19 0 -29 -24q-1 0 -3 1l7 92h56v-6h-52l-5 -72q12 16 28 15q33 -4 35 -59q-1 -60 -38 -62q-27 1 -35 36zM63 -10h-5v164q-14 -17 -34 -25v7q32 12 35 38h4v-184zM195 7v-17h-13v17h13z" />
    <glyph glyph-name="uni2497" unicode="&#x2497;" 
d="M98 55q1 -59 32 -62q29 2 30 55q-2 50 -30 53q-29 -4 -32 -46zM163 142l-6 -2q-8 28 -25 28q-32 -2 -35 -90q12 28 34 28q32 -3 34 -58q-2 -59 -35 -61q-38 0 -38 87q1 97 40 100q22 0 31 -32zM63 -10h-5v164q-14 -17 -34 -25v7q32 12 35 38h4v-184zM195 7v-17h-13v17h13
z" />
    <glyph glyph-name="uni2498" unicode="&#x2498;" 
d="M165 172v-5q-43 -105 -47 -177h-6q5 68 49 176h-70v6h74zM63 -10h-5v164q-14 -17 -34 -25v7q32 12 35 38h4v-184zM195 7v-17h-13v17h13z" />
    <glyph glyph-name="uni2499" unicode="&#x2499;" 
d="M125 82q-31 -2 -33 -45q1 -42 33 -44q33 1 33 44q-2 43 -33 45zM125 168q-26 -1 -27 -39q1 -39 27 -41q28 1 28 41q-1 37 -28 39zM92 129q2 43 33 45q32 -3 34 -45q0 -31 -21 -44q26 -12 26 -48q-1 -48 -39 -50q-37 2 -38 50q2 36 26 48q-20 14 -21 44zM63 -10h-5v164
q-14 -17 -34 -25v7q32 12 35 38h4v-184zM195 7v-17h-13v17h13z" />
    <glyph glyph-name="uni249A" unicode="&#x249a;" 
d="M63 -10h-5v164q-14 -17 -34 -25v7q32 12 35 38h4v-184zM160 106q-2 59 -33 62q-28 -3 -30 -54q1 -52 29 -54q31 3 34 46zM94 13l6 3q8 -24 27 -23q32 -1 33 89q-13 -27 -35 -27q-31 3 -33 58q2 58 35 61q38 1 38 -87q1 -102 -38 -100q-24 -1 -33 26zM195 7v-17h-13v17h13
z" />
    <glyph glyph-name="uni249B" unicode="&#x249b;" 
d="M91 -5v-5h-70v5q9 34 36 70q28 36 28 61q-1 40 -27 42q-20 1 -29 -35q-1 0 -2 1q-2 0 -3 1q9 39 34 39q31 -3 33 -48q1 -29 -30 -65q-26 -34 -35 -66h65zM136 -7q31 -2 30 88q0 87 -30 87t-30 -87q0 -89 30 -88zM136 174q34 -2 35 -93q0 -94 -35 -94q-36 0 -36 94
q1 91 36 93zM194 7v-17h-12v17h12z" />
    <glyph glyph-name="SF100000" unicode="&#x2500;" 
d="M0 96h211v-13h-211v13z" />
    <glyph glyph-name="uni2501" unicode="&#x2501;" 
d="M0 104h211v-29h-211v29z" />
    <glyph glyph-name="SF110000" unicode="&#x2502;" 
d="M99 218h13v-256h-13v256z" />
    <glyph glyph-name="uni2503" unicode="&#x2503;" 
d="M90 218h29v-256h-29v256z" />
    <glyph glyph-name="uni2504" unicode="&#x2504;" 
d="M0 96h52v-13h-52v13zM80 96h52v-13h-52v13zM159 96h52v-13h-52v13z" />
    <glyph glyph-name="uni2505" unicode="&#x2505;" 
d="M0 104h52v-29h-52v29zM80 104h52v-29h-52v29zM159 104h52v-29h-52v29z" />
    <glyph glyph-name="uni2506" unicode="&#x2506;" 
d="M98 204h13v-57h-13v57zM111 118v-57h-13v57h13zM111 32v-57h-13v57h13z" />
    <glyph glyph-name="uni2507" unicode="&#x2507;" 
d="M119 204v-57h-29v57h29zM119 118v-57h-29v57h29zM119 32v-57h-29v57h29z" />
    <glyph glyph-name="uni2508" unicode="&#x2508;" 
d="M0 96h37v-13h-37v13zM59 96h36v-13h-36v13zM117 96h36v-13h-36v13zM175 96h36v-13h-36v13z" />
    <glyph glyph-name="uni2509" unicode="&#x2509;" 
d="M0 104h37v-29h-37v29zM59 104h36v-29h-36v29zM117 104h36v-29h-36v29zM175 104h36v-29h-36v29z" />
    <glyph glyph-name="uni250A" unicode="&#x250a;" 
d="M111 206v-40h-13v40h13zM111 142v-40h-13v40h13zM111 78v-40h-13v40h13zM111 14v-40h-13v40h13z" />
    <glyph glyph-name="uni250B" unicode="&#x250b;" 
d="M119 206v-40h-29v40h29zM119 142v-40h-29v40h29zM119 78v-40h-29v40h29zM119 14v-40h-29v40h29z" />
    <glyph glyph-name="SF010000" unicode="&#x250c;" 
d="M211 96v-13h-99v-121h-13v134h112z" />
    <glyph glyph-name="uni250D" unicode="&#x250d;" 
d="M211 104v-29h-99v-113h-13v142h112z" />
    <glyph glyph-name="uni250E" unicode="&#x250e;" 
d="M211 96v-13h-91v-121h-29v134h120z" />
    <glyph glyph-name="uni250F" unicode="&#x250f;" 
d="M211 104v-29h-91v-113h-29v142h120z" />
    <glyph glyph-name="SF030000" unicode="&#x2510;" 
d="M0 83v13h112v-134h-13v121h-99z" />
    <glyph glyph-name="uni2511" unicode="&#x2511;" 
d="M0 104h112v-142h-13v113h-99v29z" />
    <glyph glyph-name="uni2512" unicode="&#x2512;" 
d="M0 96h120v-134h-29v121h-91v13z" />
    <glyph glyph-name="uni2513" unicode="&#x2513;" 
d="M0 104h120v-142h-29v113h-91v29z" />
    <glyph glyph-name="SF020000" unicode="&#x2514;" 
d="M112 218v-122h99v-13h-112v135h13z" />
    <glyph glyph-name="uni2515" unicode="&#x2515;" 
d="M112 218v-114h99v-29h-112v143h13z" />
    <glyph glyph-name="uni2516" unicode="&#x2516;" 
d="M120 218v-122h91v-13h-120v135h29z" />
    <glyph glyph-name="uni2517" unicode="&#x2517;" 
d="M120 218v-114h91v-29h-120v143h29z" />
    <glyph glyph-name="SF040000" unicode="&#x2518;" 
d="M0 96h99v122h13v-135h-112v13z" />
    <glyph glyph-name="uni2519" unicode="&#x2519;" 
d="M0 104h99v114h13v-143h-112v29z" />
    <glyph glyph-name="uni251A" unicode="&#x251a;" 
d="M0 96h91v122h29v-135h-120v13z" />
    <glyph glyph-name="uni251B" unicode="&#x251b;" 
d="M0 104h91v114h29v-143h-120v29z" />
    <glyph glyph-name="SF080000" unicode="&#x251c;" 
d="M112 218v-122h99v-13h-99v-121h-13v256h13z" />
    <glyph glyph-name="uni251D" unicode="&#x251d;" 
d="M112 218v-114h99v-29h-99v-113h-13v256h13z" />
    <glyph glyph-name="uni251E" unicode="&#x251e;" 
d="M120 218v-122h91v-13h-99v-121h-13v129h-8v127h29z" />
    <glyph glyph-name="uni251F" unicode="&#x251f;" 
d="M112 218v-122h99v-13h-91v-121h-29v126h8v130h13z" />
    <glyph glyph-name="uni2520" unicode="&#x2520;" 
d="M120 218v-122h91v-13h-91v-121h-29v256h29z" />
    <glyph glyph-name="uni2521" unicode="&#x2521;" 
d="M120 218v-114h91v-29h-99v-113h-13v113h-8v143h29z" />
    <glyph glyph-name="uni2522" unicode="&#x2522;" 
d="M112 218v-114h99v-29h-91v-113h-29v142h8v114h13z" />
    <glyph glyph-name="uni2523" unicode="&#x2523;" 
d="M120 218v-114h91v-29h-91v-113h-29v256h29z" />
    <glyph glyph-name="SF090000" unicode="&#x2524;" 
d="M112 218v-256h-13v121h-99v13h99v122h13z" />
    <glyph glyph-name="uni2525" unicode="&#x2525;" 
d="M112 218v-256h-13v113h-99v29h99v114h13z" />
    <glyph glyph-name="uni2526" unicode="&#x2526;" 
d="M120 218v-127h-8v-129h-13v121h-99v13h91v122h29z" />
    <glyph glyph-name="uni2527" unicode="&#x2527;" 
d="M112 218v-130h8v-126h-29v121h-91v13h99v122h13z" />
    <glyph glyph-name="uni2528" unicode="&#x2528;" 
d="M120 218v-256h-29v121h-91v13h91v122h29z" />
    <glyph glyph-name="uni2529" unicode="&#x2529;" 
d="M120 218v-143h-8v-113h-13v113h-99v29h91v114h29z" />
    <glyph glyph-name="uni252A" unicode="&#x252a;" 
d="M112 218v-114h8v-142h-29v113h-91v29h99v114h13z" />
    <glyph glyph-name="uni252B" unicode="&#x252b;" 
d="M120 218v-256h-29v113h-91v29h91v114h29z" />
    <glyph glyph-name="SF060000" unicode="&#x252c;" 
d="M0 96h211v-13h-99v-121h-13v121h-99v13z" />
    <glyph glyph-name="uni252D" unicode="&#x252d;" 
d="M0 104h112v-8h99v-13h-99v-122h-13v114h-99v29z" />
    <glyph glyph-name="uni252E" unicode="&#x252e;" 
d="M0 96h99v8h112v-29h-99v-113h-13v121h-99v13z" />
    <glyph glyph-name="uni252F" unicode="&#x252f;" 
d="M0 104h211v-29h-99v-113h-13v113h-99v29z" />
    <glyph glyph-name="uni2530" unicode="&#x2530;" 
d="M0 96h211v-13h-91v-121h-29v121h-91v13z" />
    <glyph glyph-name="uni2531" unicode="&#x2531;" 
d="M0 104h120v-8h91v-13h-91v-121h-29v113h-91v29z" />
    <glyph glyph-name="uni2532" unicode="&#x2532;" 
d="M0 96h91v8h120v-29h-91v-113h-29v121h-91v13z" />
    <glyph glyph-name="uni2533" unicode="&#x2533;" 
d="M0 104h211v-29h-91v-113h-29v113h-91v29z" />
    <glyph glyph-name="SF070000" unicode="&#x2534;" 
d="M0 96h99v122h13v-122h99v-13h-211v13z" />
    <glyph glyph-name="uni2535" unicode="&#x2535;" 
d="M112 218v-122h99v-13h-99v-8h-112v29h99v114h13z" />
    <glyph glyph-name="uni2536" unicode="&#x2536;" 
d="M112 218v-114h99v-29h-112v8h-99v13h99v122h13z" />
    <glyph glyph-name="uni2537" unicode="&#x2537;" 
d="M112 218v-114h99v-29h-211v29h99v114h13z" />
    <glyph glyph-name="uni2538" unicode="&#x2538;" 
d="M120 218v-122h91v-13h-211v13h91v122h29z" />
    <glyph glyph-name="uni2539" unicode="&#x2539;" 
d="M120 218v-122h91v-13h-91v-8h-120v29h91v114h29z" />
    <glyph glyph-name="uni253A" unicode="&#x253a;" 
d="M120 218v-114h91v-29h-120v8h-91v13h91v122h29z" />
    <glyph glyph-name="uni253B" unicode="&#x253b;" 
d="M120 218v-114h91v-29h-211v29h91v114h29z" />
    <glyph glyph-name="SF050000" unicode="&#x253c;" 
d="M112 218v-122h99v-13h-99v-121h-13v121h-99v13h99v122h13z" />
    <glyph glyph-name="uni253D" unicode="&#x253d;" 
d="M112 218v-122h99v-13h-99v-121h-13v113h-99v29h99v114h13z" />
    <glyph glyph-name="uni253E" unicode="&#x253e;" 
d="M112 218v-114h99v-29h-99v-113h-13v121h-99v13h99v122h13z" />
    <glyph glyph-name="uni253F" unicode="&#x253f;" 
d="M112 218v-114h99v-29h-99v-113h-13v113h-99v29h99v114h13z" />
    <glyph glyph-name="uni2540" unicode="&#x2540;" 
d="M120 218v-122h91v-13h-99v-121h-13v121h-99v13h91v122h29z" />
    <glyph glyph-name="uni2541" unicode="&#x2541;" 
d="M112 218v-122h99v-13h-91v-121h-29v121h-91v13h99v122h13z" />
    <glyph glyph-name="uni2542" unicode="&#x2542;" 
d="M120 218v-122h91v-13h-91v-121h-29v121h-91v13h91v122h29z" />
    <glyph glyph-name="uni2543" unicode="&#x2543;" 
d="M120 218v-122h91v-13h-99v-121h-13v113h-99v29h91v114h29z" />
    <glyph glyph-name="uni2544" unicode="&#x2544;" 
d="M120 218v-114h91v-29h-99v-113h-13v121h-99v13h91v122h29z" />
    <glyph glyph-name="uni2545" unicode="&#x2545;" 
d="M112 218v-122h99v-13h-91v-121h-29v113h-91v29h99v114h13z" />
    <glyph glyph-name="uni2546" unicode="&#x2546;" 
d="M112 218v-114h99v-29h-91v-113h-29v121h-91v13h99v122h13z" />
    <glyph glyph-name="uni2547" unicode="&#x2547;" 
d="M120 218v-114h91v-29h-99v-113h-13v113h-99v29h91v114h29z" />
    <glyph glyph-name="uni2548" unicode="&#x2548;" 
d="M112 218v-114h99v-29h-91v-113h-29v113h-91v29h99v114h13z" />
    <glyph glyph-name="uni2549" unicode="&#x2549;" 
d="M120 218v-122h91v-13h-91v-121h-29v113h-91v29h91v114h29z" />
    <glyph glyph-name="uni254A" unicode="&#x254a;" 
d="M120 218v-114h91v-29h-91v-113h-29v121h-91v13h91v122h29z" />
    <glyph glyph-name="uni254B" unicode="&#x254b;" 
d="M120 218v-114h91v-29h-91v-113h-29v113h-91v29h91v114h29z" />
    <glyph glyph-name="filledbox" unicode="&#x25a0;" 
d="M208 -16h-205v204h205v-204z" />
    <glyph glyph-name="H22073" unicode="&#x25a1;" 
d="M208 -16h-205v204h205v-204zM15 177v-182h182v182h-182z" />
    <glyph glyph-name="triagup" unicode="&#x25b2;" 
d="M199 0h-187l94 188z" />
    <glyph glyph-name="uni25B3" unicode="&#x25b3;" 
d="M106 164l-76 -153h151zM199 0h-187l94 188z" />
    <glyph glyph-name="uni25C6" unicode="&#x25c6;" 
d="M106 -2l-96 96l96 96l96 -96z" />
    <glyph glyph-name="uni25C7" unicode="&#x25c7;" 
d="M106 13l81 81l-81 81l-81 -81zM106 -2l-96 96l96 96l96 -96z" />
    <glyph glyph-name="circle" unicode="&#x25cb;" 
d="M106 9q75 7 82 82q-7 76 -82 83q-75 -7 -82 -83q7 -75 82 -82zM106 184q85 -8 93 -93q-8 -85 -93 -93q-85 8 -93 93q8 85 93 93z" />
    <glyph glyph-name="uni25CE" unicode="&#x25ce;" 
d="M106 184q85 -8 93 -93q-8 -85 -93 -93q-86 8 -94 93q8 85 94 93zM106 178q-79 -7 -87 -87q8 -78 87 -86q79 8 87 86q-8 79 -87 87zM106 156q58 -6 64 -64q-6 -59 -64 -65q-59 6 -65 65q6 58 65 64zM106 149q-53 -5 -58 -57q5 -53 58 -58q53 5 58 58q-5 52 -58 57z" />
    <glyph glyph-name="H18533" unicode="&#x25cf;" 
d="M106 184q85 -8 93 -93q-8 -85 -93 -93q-85 8 -93 93q8 85 93 93z" />
    <glyph glyph-name="uni2605" unicode="&#x2605;" 
d="M106 179l23 -70h72l-58 -44l21 -69l-58 41l-58 -41l20 69l-58 44h72z" />
    <glyph glyph-name="uni2606" unicode="&#x2606;" 
d="M60 12l45 34l46 -33l1 1l-18 54l46 34h-57l-17 55h-1l-17 -55h-57l45 -34l-16 -55v-1zM105 179l24 -70h72l-58 -44l21 -69l-59 42l-58 -42l21 69l-58 44h72z" />
    <glyph glyph-name="female" unicode="&#x2640;" 
d="M60 129q3 -41 46 -45q42 3 45 45q-3 42 -45 45q-43 -4 -46 -45zM62 19v12h38v42q-47 9 -51 56q5 52 57 57q51 -5 56 -57q-4 -47 -51 -56v-42h38v-12h-38v-31h-11v31h-38z" />
    <glyph glyph-name="male" unicode="&#x2642;" 
d="M60 46q4 -42 46 -46q41 4 45 46q-4 41 -45 45q-42 -4 -46 -45zM62 137l-3 5q35 25 44 43h6q10 -19 44 -42l-3 -6q-21 9 -39 26v-61q47 -8 51 -56q-5 -52 -56 -57q-52 5 -57 57q4 47 51 56v60q-12 -11 -38 -25z" />
    <glyph glyph-name="uni3000" unicode="&#x3000;" 
 />
    <glyph glyph-name="uni3001" unicode="&#x3001;" 
d="M22 30l4 4l36 -49l-4 -3z" />
    <glyph glyph-name="uni3002" unicode="&#x3002;" 
d="M20 8q2 -20 21 -22q21 1 22 22q-1 21 -22 22q-19 -2 -21 -22zM15 8q2 25 26 27q25 -2 27 -27q-2 -24 -27 -26q-24 2 -26 26z" />
    <glyph glyph-name="uni3003" unicode="&#x3003;" 
d="M108 126l-46 -87h-3l28 84q3 10 11 12q10 0 10 -9zM153 126l-45 -87h-5l29 84q2 10 11 12q11 0 10 -9z" />
    <glyph glyph-name="uni3005" unicode="&#x3005;" 
d="M50 77l-9 6q28 44 45 94l10 -2q-5 -18 -17 -43h87v-11l-48 -86l35 -25l-6 -8l-81 56l6 8l37 -25l46 80h-81q-9 -20 -24 -44z" />
    <glyph glyph-name="uni3008" unicode="&#x3008;" 
d="M172 197l-64 -107l64 -108v-10l-70 118l70 117v-10z" />
    <glyph glyph-name="uni3009" unicode="&#x3009;" 
d="M40 197v10l69 -117l-69 -118v10l63 108z" />
    <glyph glyph-name="uni300A" unicode="&#x300a;" 
d="M185 197l-63 -107l63 -108v-10l-69 118l69 117v-10zM155 197l-63 -107l63 -108v-10l-69 118l69 117v-10z" />
    <glyph glyph-name="uni300B" unicode="&#x300b;" 
d="M26 197v10l69 -117l-69 -118v10l63 108zM56 197v10l69 -117l-69 -118v10l63 108z" />
    <glyph glyph-name="uni300C" unicode="&#x300c;" 
d="M103 207h50v-5h-45v-230h-5v235z" />
    <glyph glyph-name="uni300D" unicode="&#x300d;" 
d="M108 -28h-50v5h45v230h5v-235z" />
    <glyph glyph-name="uni300E" unicode="&#x300e;" 
d="M93 207h72v-27h-46v-208h-26v235zM159 202h-61v-225h16v209h45v16z" />
    <glyph glyph-name="uni300F" unicode="&#x300f;" 
d="M119 -28h-72v27h46v208h26v-235zM52 -23h62v225h-16v-208h-46v-17z" />
    <glyph glyph-name="uni3010" unicode="&#x3010;" 
d="M95 207h55q-33 -45 -34 -116q0 -76 34 -119h-55v235z" />
    <glyph glyph-name="uni3011" unicode="&#x3011;" 
d="M62 207h54v-235h-54q33 43 33 119q-1 71 -33 116z" />
    <glyph glyph-name="uni3013" unicode="&#x3013;" 
d="M33 151h146v-40h-146v40zM33 68h146v-40h-146v40z" />
    <glyph glyph-name="uni3014" unicode="&#x3014;" 
d="M103 183l49 24l2 -4l-46 -23v-181l46 -23l-2 -4l-49 24v187z" />
    <glyph glyph-name="uni3015" unicode="&#x3015;" 
d="M108 183v-187l-49 -24l-2 4l46 23v181l-46 23l2 4z" />
    <glyph glyph-name="uni3016" unicode="&#x3016;" 
d="M94 -28v235h59q-31 -47 -35 -115q2 -71 40 -120h-64zM99 202v-225h49q-34 45 -35 115q1 61 31 110h-45z" />
    <glyph glyph-name="uni3017" unicode="&#x3017;" 
d="M118 -28h-64q38 49 40 120q-4 66 -35 115h59v-235zM113 202h-45q30 -49 31 -110q-1 -71 -36 -115h50v225z" />
    <glyph glyph-name="uni3041" unicode="&#x3041;" 
d="M51 8h2q13 5 31 27q-2 16 -2 31v6q-25 -19 -35 -42q-2 -5 -1 -8q0 -1 1 -4q1 -9 4 -10zM112 -14v1q45 14 50 57q-1 36 -38 41q-11 -28 -31 -53q1 -6 4 -15q2 -7 2 -9q-2 -6 -10 0q-1 6 -3 15q-24 -24 -36 -24q-11 4 -9 34q12 29 42 47q1 20 4 41h-3q-6 -2 -13 -2
q-15 0 -21 14q14 -6 21 -6q5 0 17 2q4 24 4 30t-7 11v3q19 -2 20 -14q0 -3 -2 -6q-1 -2 -1 -3q-3 -7 -6 -19q15 3 26 8q12 6 15 0q3 -5 -10 -9q-13 -6 -33 -8q-1 -6 -3 -20q-2 -13 -3 -20q13 6 28 8q1 5 1 10q0 3 -3 8q-1 2 -2 3q8 -1 13 -7q2 -5 0 -14q46 -5 46 -47
q-4 -54 -59 -57zM88 76q0 -14 0 -11q0 -6 2 -19q-2 9 0 -3q18 23 24 42q-14 -1 -26 -9z" />
    <glyph glyph-name="uni3042" unicode="&#x3042;" 
d="M114 -27v2q55 22 58 70q-3 44 -44 50q-15 -34 -40 -64q1 -3 2 -8q2 -3 2 -5q7 -17 1 -23q-8 -3 -13 15q-1 3 -1 8q-30 -33 -45 -32q-16 7 -10 48q17 37 53 57q2 31 6 49h-20q-24 0 -28 19q17 -7 34 -7q7 0 16 1q0 2 1 7q5 25 5 33q0 4 -6 9q-2 1 -3 2v2q25 0 24 -22
q-1 -2 -3 -5l-3 -6q-1 -8 -6 -19q23 4 38 12q7 3 12 -2q3 -5 -2 -9q-23 -11 -50 -14q-4 -17 -6 -45q1 0 2 1q18 6 30 6q3 8 2 14q0 4 -6 9l-2 2q14 5 22 -15v-1q-2 -4 -2 -9v-1q54 -10 55 -58q-5 -62 -73 -71zM75 62q0 8 1 18q-33 -21 -42 -47q-5 -26 5 -31q13 4 38 31
q-2 15 -2 29zM85 85q-1 -9 -1 -18q0 -11 2 -22q20 27 29 50q-16 -3 -30 -10z" />
    <glyph glyph-name="uni3043" unicode="&#x3043;" 
d="M93 81l1 -1q-2 -4 -5 -11q-10 -19 -13 -30q-1 -3 0 -11q1 -7 -2 -7q-28 4 -31 89q0 7 -2 21q-2 7 -2 10q14 -13 16 -28q0 -1 -1 -13q-2 -12 -2 -13q1 -37 15 -42q6 2 26 36zM126 112v1q40 3 47 -53q-1 -14 -5 -15q-2 0 -4 5l-1 1q-4 5 -13 6h-4v1h1q8 2 12 6q2 43 -33 48
z" />
    <glyph glyph-name="uni3044" unicode="&#x3044;" 
d="M92 93v-3q-2 -3 -5 -10q-17 -33 -21 -45v-9q3 -16 -3 -16q-36 10 -38 116q0 25 -7 41q19 -13 20 -32q0 -2 -1 -17q-1 -13 -1 -14q3 -61 20 -61q7 8 36 50zM150 58v1q28 2 25 16q-12 53 -45 52v1q52 5 63 -70q1 -11 -5 -19q-7 1 -9 10q-8 6 -29 9z" />
    <glyph glyph-name="uni3045" unicode="&#x3045;" 
d="M98 189h1q5 -10 22 -15q2 -1 3 -1q23 -8 12 -22q-2 0 -9 5l-3 3q-2 1 -6 4q-20 11 -20 26zM66 114q2 -1 4 -3q5 -4 9 -4q3 0 12 5q19 10 32 10q22 1 22 -38q-3 -68 -45 -93q35 40 36 103q0 23 -12 23q-16 0 -33 -18q-4 -4 -5 -4q-17 4 -20 19z" />
    <glyph glyph-name="uni3046" unicode="&#x3046;" 
d="M91 218q7 -16 29 -22q22 -5 22 -21q0 -8 -6 -8q-1 0 -6 4q-6 7 -11 10q-1 1 -5 3q-9 6 -12 9q-11 8 -11 25zM100 -33h-2q48 54 47 121q0 38 -17 39q-13 0 -35 -18q-12 -11 -17 -11q-17 5 -23 22v5q1 -1 5 -4q8 -7 13 -7q3 0 14 6q24 13 40 13q33 0 33 -57
q-1 -69 -58 -109z" />
    <glyph glyph-name="uni3047" unicode="&#x3047;" 
d="M90 181l4 -4q7 -8 12 -11q3 -1 7 -4q14 -5 13 -13q0 -6 -5 -6q-28 15 -31 38zM65 114h2q3 -5 5 -5q13 0 45 16q7 -1 10 -7q3 -7 -9 -17l-2 -2q-6 -7 -25 -34q-10 -14 -14 -20q16 2 26 -17q10 -18 25 -18t26 5q9 2 13 -3q4 -6 -3 -10q-10 -5 -28 -5q-26 0 -38 28
q-8 17 -17 17q-7 0 -17 -18q-10 -19 -18 -19q-8 8 7 27q24 18 62 82q-19 -5 -33 -16q-4 -3 -6 -3q-9 3 -11 19z" />
    <glyph glyph-name="uni3048" unicode="&#x3048;" 
d="M86 207h1q6 -12 29 -22q12 -5 14 -9q6 -16 -5 -17q-36 21 -39 48zM117 117l-2 2q-21 -3 -40 -20q-5 -4 -7 -4q-16 7 -15 30h2q3 -12 8 -12q9 0 40 14q17 8 20 8q13 -2 14 -16q0 -6 -14 -17q-9 -6 -11 -10q-1 -2 -9 -12q-21 -30 -32 -46q23 -1 37 -29q11 -18 34 -19
q15 0 29 8q13 -1 16 -9q1 -13 -32 -12q-38 -1 -47 14q-2 4 -8 13q-15 32 -26 29q-1 0 -3 -1q-4 0 -5 -2q-12 -17 -16 -24q0 -1 -1 -3q-9 -18 -17 -18q-13 0 2 32q32 18 83 104z" />
    <glyph glyph-name="uni3049" unicode="&#x3049;" 
d="M36 37q3 -6 9 -6q2 0 10 9q12 12 21 19v17q1 17 1 28h-4q-3 -1 -5 -1q-20 3 -22 16q7 -5 13 -5q9 0 18 2v37q0 7 -7 10v3q13 3 20 -11q0 -2 -1 -7q-4 -13 -6 -29q6 2 14 6l4 2q9 -1 7 -8q-2 -6 -13 -10q-6 -3 -12 -4q-1 -12 -1 -34v-6q23 17 45 17q39 -1 40 -34
q-2 -37 -37 -38q-13 0 -24 6v2q6 -3 14 -3q32 3 35 33q-2 29 -30 31q-20 0 -43 -21v-33v-7q1 -6 1 -9q-1 -11 -8 -12q-2 0 -3 4q-1 1 -1 2q-1 1 -2 3q-7 13 -12 18q-2 -9 -6 -9q-13 4 -15 22zM135 133v1q32 12 41 -25q0 -5 -9 -1q-3 1 -4 1t-7 -1q-5 -2 -7 -2q1 2 3 4
q5 6 5 11q-2 12 -22 12zM72 13h3q0 5 1 39q-13 -15 -18 -25v-1q7 -7 14 -13z" />
    <glyph glyph-name="uni304A" unicode="&#x304a;" 
d="M17 26h2q5 -9 11 -9h1q17 20 40 40v58q-9 -1 -15 -1q-23 0 -26 19q1 0 2 -2q11 -7 19 -7q11 0 20 3v48q-1 12 -12 15v2q26 5 28 -17l-1 -2q-6 -14 -8 -43q8 3 19 10q4 3 5 3q8 0 9 -6q0 -13 -34 -21v-7v-48q33 26 63 26q44 -4 47 -43q-3 -48 -47 -50h-1q-15 0 -33 11v2
q2 0 5 -2q11 -3 16 -3h3q39 2 41 45q-2 33 -36 35q-27 0 -58 -33v-15q0 -10 2 -36v-6q0 -16 -10 -17q-3 1 -4 5q-3 10 -17 26l-3 3q-3 -5 -6 -8q-1 -4 -4 -4q-20 10 -18 29zM144 151v1q17 14 36 1q21 -18 13 -36q-2 0 -5 2q-3 3 -6 3t-14 -5q-7 -3 -9 -3v2q1 2 5 5
q11 9 11 17q-2 17 -31 13zM68 -5h2q0 3 1 11v10v26q-17 -17 -26 -31q12 -7 23 -16z" />
    <glyph glyph-name="uni304B" unicode="&#x304b;" 
d="M144 143q58 -22 58 -73q-3 -7 -9 -7q-1 0 -2 3q-1 1 -1 2q-8 6 -37 11q29 4 31 12q-2 23 -40 52zM65 187v2q15 7 30 -16q0 -3 -2 -7q-4 -6 -7 -16q-2 -3 -6 -18q3 13 -1 -2q15 5 28 5q28 -1 28 -35q-9 -101 -52 -117q-1 1 -1 5q0 3 -1 5q-2 7 -11 18q-5 7 -7 10h2
q14 -10 24 -11q29 17 35 89q0 29 -18 28q-14 0 -30 -7q-4 -10 -12 -35q-20 -58 -22 -61q-10 -35 -23 -33q-11 5 5 30q5 8 7 11q17 35 33 83q-6 -3 -17 -9q-16 -8 -17 -8q-21 10 -21 27q1 0 4 -3q9 -7 15 -7q4 0 23 6q11 3 16 5q1 3 2 8q8 30 8 39t-11 14h-1z" />
    <glyph glyph-name="uni304C" unicode="&#x304c;" 
d="M163 162q15 0 25 -10q10 -12 2 -19q-8 0 -14 13q-3 4 -9 11q-3 3 -4 5zM180 181q30 -2 31 -20q-1 -6 -5 -7q-4 0 -10 10q-3 5 -5 7q-5 6 -11 10zM134 141q9 -1 21 -8q13 -7 22 -18q20 -24 16 -47q-3 -7 -9 -7q-1 0 -2 3q-1 1 -1 2q-1 2 -3 2q1 0 -1 1q-7 1 -15 4
q-4 1 -10 2q-5 2 -8 2q2 1 7 2q11 2 16 4q8 2 8 6q0 3 -2 8q-1 3 -1 4q-4 8 -9 14q-12 15 -29 26zM0 123h3q4 -9 13 -10q6 0 16 3q-1 0 2 1q12 4 24 7q9 25 9 46q0 12 -11 16v2q11 3 20 -4q1 -1 3 -2q7 -6 7 -11q0 -2 -2 -7l-1 -1q-2 -3 -4 -10q-1 -3 -2 -5l-6 -15
q-1 -4 -1 -5q15 5 27 5h3q15 0 20 -10q6 -9 6 -22v-5q0 -28 -10 -58q-6 -23 -19 -41q-13 -17 -23 -16q-1 1 -1 5q0 3 -1 5q-2 6 -10 16q-6 8 -8 12h2q9 -6 19 -10q3 -1 5 -1q5 0 8 4q8 8 14 24q12 28 12 58v6q1 8 -2 16t-13 9h-5q-6 0 -19 -5q-3 -1 -5 -2l-2 -1q-1 0 -2 -1
l-1 -2q0 -1 -1 -2q-3 -9 -9 -26q-7 -22 -11 -33q-2 -4 -4 -13q-5 -12 -7 -18q-1 -1 -2 -4q-5 -14 -8 -20q-7 -10 -13 -9q-4 1 -5 8q0 6 6 16q6 8 11 17q8 13 12 26q9 24 17 49q2 3 3 6q-4 -1 -11 -4q-2 -1 -3 -1q-1 -1 -5 -2t-6 -3q-3 -3 -6 -5q-3 -1 -7 -1q-3 0 -7 7l-1 1
q-9 11 -8 20z" />
    <glyph glyph-name="uni304D" unicode="&#x304d;" 
d="M42 149v2q16 -5 41 3q1 0 2 1q3 0 8 3q-1 4 -5 11q-3 7 -5 10q-1 1 -3 5q-3 7 -6 9q-3 3 -12 -2q-1 -1 -2 -1l-1 1q3 6 7 11q7 6 20 -1q7 -5 7 -9v-7q0 -4 4 -13q1 -3 2 -4t2 -3q1 -3 1 -4q9 4 18 10q1 1 3 2q5 5 10 5q9 0 10 -6q0 -6 -5 -8q-6 -3 -12 -5q-3 -1 -9 -4
q-7 -3 -10 -5q1 0 1 -2q2 -6 9 -18q4 -7 6 -11q11 4 20 10q1 0 2 1q4 3 9 3q10 -1 10 -5q0 -5 -6 -8q0 1 -1 0q-3 -2 -10 -4q-3 -1 -4 -2q-2 -1 -8 -3q-5 -1 -7 -2q9 -16 19 -29q1 -1 2 -3q7 -11 12 -14q1 -1 3 -2l3 -3q3 -2 3 -8q0 -5 -2 -10q-3 -9 -5 -9q-3 0 -5 2l-2 2
q-6 6 -24 11q-1 1 -2 1q-24 6 -37 6h-5q-22 0 -33 -11q-6 -7 -6 -16q1 -12 7 -19q7 -9 20 -13q16 -4 26 -4h3h5q4 1 5 1h4q9 0 14 -5q5 -8 2 -12t-8 -4h-4q-12 0 -24 3q-10 2 -21 5q-24 8 -32 26q-7 14 -1 31t31 21h2q8 2 18 2h10q10 0 29 -2q10 -1 15 -1q0 1 -1 2q0 1 -1 2
q-3 5 -10 14q-2 3 -3 5q-7 14 -15 27q-27 -12 -42 -14q-12 -2 -17 0q-6 2 -16 10l-3 3v2q2 -1 7 -2q10 -3 16 -3q15 0 41 10l6 2q2 1 3 1q-9 17 -17 33h-1q-20 -9 -36 -9q-2 0 -5 2q-2 1 -3 1q-3 1 -8 5z" />
    <glyph glyph-name="uni304E" unicode="&#x304e;" 
d="M133 181v2q18 -3 26 -14q10 -16 -1 -20q-4 0 -11 13q-7 16 -14 19zM155 195v2q41 -7 31 -30q-6 0 -15 13q-10 13 -16 15zM23 101v2q11 -5 22 -5q23 0 49 14q-2 4 -6 13q-7 13 -9 19q-3 -1 -8 -2q-23 -7 -30 -7q-4 0 -16 10q-1 1 -2 1v2q25 -5 51 6q-11 22 -19 36
q-4 4 -15 -3l-1 1q13 27 34 1v-7q0 -4 9 -24q6 3 16 9q12 8 15 8q9 -1 11 -6q0 -7 -6 -8q-11 -5 -31 -14q2 -3 5 -10q2 -5 11 -22q29 16 31 15q10 0 10 -5q0 -4 -6 -8q-1 0 -9 -4q-12 -5 -20 -8q20 -33 32 -45q1 -1 4 -2l3 -3q6 -13 -5 -27q-3 -1 -7 4l-1 1q-20 15 -64 17
q-40 -1 -42 -27q3 -35 55 -36h5q6 1 8 1q15 0 20 -10q2 -10 -12 -11q-78 2 -82 49q-3 40 58 39q10 0 27 -2q15 -1 22 -1q1 2 -2 4q-12 17 -28 46q-43 -15 -50 -15q-13 0 -27 14z" />
    <glyph glyph-name="uni304F" unicode="&#x304f;" 
d="M147 -23v-4q-1 -10 -8 -7q-5 3 -9 13q-6 14 -13 29q-10 19 -24 37q-2 4 -7 11q-5 8 -8 11q-1 1 -3 4q-8 8 -10 14q-4 10 8 25q8 9 14 19q18 23 34 47q2 3 6 10q1 2 1 3q1 4 1 7t-5 8l-4 4v2q22 -2 25 -25q0 -7 -9 -16q-2 -1 -3 -2q-9 -11 -18 -20q-15 -16 -28 -31l-3 -3
q-10 -9 -12 -14q-4 -10 7 -20q5 -5 15 -16q10 -10 14 -16q15 -19 28 -40q11 -19 11 -30z" />
    <glyph glyph-name="uni3050" unicode="&#x3050;" 
d="M121 140v1q15 -1 23 -12q9 -16 -1 -20q-2 0 -7 10q-8 17 -15 21zM144 153v1q16 -2 25 -11q9 -15 1 -21q-4 0 -9 9q-8 14 -17 22zM94 208v2q23 -2 26 -25q0 -7 -20 -27q-25 -24 -44 -46q-9 -11 -10 -20q1 -9 11 -20q61 -61 64 -95q0 -12 -5 -12q-6 0 -13 17q-1 4 -2 5
q-12 28 -41 70q-7 9 -9 12q-1 2 -3 4q-9 13 -9 20t14 25q2 3 6 8q51 62 45 70q0 5 -9 11z" />
    <glyph glyph-name="uni3051" unicode="&#x3051;" 
d="M25 79v-5q0 -19 6 -37q3 0 2 2q12 22 19 46v-2q-1 -2 -2 -7q-3 -12 -6 -30q-5 -17 -5 -35v-7q0 -7 -4 -7q-14 0 -16 33q-2 17 -2 35v17q0 23 8 66q0 2 2 7q3 15 3 24q0 10 -9 17q-1 2 2 3q4 0 10 -6q12 -8 12 -19q0 -4 -1 -7q-19 -51 -19 -88zM100 117h-3q-10 0 -22 8v2
q14 -5 37 1q5 1 14 2q11 2 16 3v22v3q1 25 -9 31q-3 3 -14 3v2q12 9 26 1q10 -7 10 -22q0 -8 -2 -16v-21q2 0 8 1q-4 -1 2 1q2 0 5 1q7 2 11 2q3 0 9 -3q2 -1 3 -2q6 -5 4 -11q-5 -1 -15 0h-7h-6h-6q-5 -1 -8 -1v-35q0 -40 -8 -68q-9 -31 -27 -46q-8 -8 -14 -8q18 18 29 65
q9 32 9 77v13q-3 0 -10 -2q-21 -3 -32 -3z" />
    <glyph glyph-name="uni3052" unicode="&#x3052;" 
d="M41 79v-2q-15 -47 -13 -68q1 -6 0 -10q-1 -5 -5 -5q-17 14 -18 72q0 30 11 84q5 21 5 26q0 6 -6 15q-3 4 -3 6q18 -3 24 -24q0 -2 -4 -11q-18 -47 -18 -90q1 -35 9 -35q9 17 18 42zM157 189q13 -1 21 -15q9 -18 -1 -20q-3 -1 -8 13q-7 16 -12 22zM177 201v1q34 -9 26 -29
q-5 -1 -14 13q-7 12 -12 15zM63 125v2q4 -1 17 -1q12 0 44 5q6 1 9 2q1 65 -25 57v2q28 16 38 -20q0 -1 -1 -3q-2 -11 -3 -34q5 1 14 3q13 3 14 3q13 -4 17 -13q0 -3 -3 -4q-4 0 -17 1h-3q-11 0 -22 -2v-3q3 -121 -45 -153h-3v2q40 43 39 152v1q-7 -1 -19 -3q-19 -3 -26 -3
q-13 0 -25 9z" />
    <glyph glyph-name="uni3053" unicode="&#x3053;" 
d="M101 170h7h7q6 -1 9 -1q2 0 5 -1q10 -1 15 -3q11 -8 7 -15q-2 -4 -7 -4h-4q-15 0 -43 -14q-7 -3 -10 -5h-2l1 1q16 13 27 26v1q-1 0 -4 1h-4h-4q-23 0 -36 16l-1 1q-6 5 -6 10q14 -13 43 -13zM92 10h8q29 0 56 9q1 0 4 1q8 2 12 0q7 -3 7 -11q0 -7 -7 -10q-11 -4 -22 -4
q-10 -1 -21 -1h-23q-41 0 -62 21q-11 11 -11 29q0 15 9 33q0 -2 -1 -5q-2 -7 -2 -10q-4 -23 10 -39q10 -9 22 -10q2 0 5 -1q10 -2 16 -2z" />
    <glyph glyph-name="uni3054" unicode="&#x3054;" 
d="M45 181q12 -12 55 -14q38 -2 38 -15q0 -9 -12 -9q-17 0 -52 -16q4 4 12 11q13 11 12 16q-42 0 -53 27zM161 189v2q37 -7 28 -32q-5 0 -13 13q-9 14 -15 17zM143 175q18 -3 27 -13q9 -15 0 -21q-3 -2 -11 12q-7 13 -11 16q0 1 -2 2q-2 2 -3 4zM28 74q-4 -14 -4 -26
q2 -40 58 -41q26 0 60 9q8 2 10 2q10 0 13 -8q2 -9 -6 -14q-14 -4 -57 -5q-82 0 -83 50q0 11 8 30q1 2 1 3z" />
    <glyph glyph-name="uni3055" unicode="&#x3055;" 
d="M104 63h-7q-15 0 -30 -6q-19 -11 -19 -26q0 -11 8 -20q4 -8 21 -15q15 -4 29 -7q11 -3 23 -3h4q12 0 12 -9q-1 -9 -12 -10h-4q-22 0 -48 12q-36 17 -36 45v5q0 17 14 29q11 9 24 10q3 0 8 1q11 2 17 2h9q23 0 38 -7v2q-12 22 -26 43q-3 5 -10 14q-3 5 -5 7
q-34 -12 -52 -12h-4q-9 1 -16 7q-8 10 -7 18h1q6 -11 21 -12h4q14 1 26 4q9 2 18 5q-2 3 -8 9l-6 6t-6 5q-3 2 -11 9q-5 5 0 21q1 7 7 7q2 -1 5 -3q1 -1 2 -1q6 -3 14 -4q16 -4 31 -12q1 -1 4 -2q5 -3 8 -4q2 -1 6 -1h5q5 -2 6 -5q3 -6 -2 -10q-7 -7 -12 -9q-12 -7 -24 -12
q10 -12 28 -39q5 -9 8 -13q2 -3 7 -9l6 -9q3 -4 3 -10t-4 -12q-4 -7 -11 0q-4 7 -10 11q-6 5 -13 6q-5 1 -14 2q-5 1 -7 1h-6q-4 1 -7 1zM142 159q1 3 -2 7q-2 1 -2 2q-18 17 -40 17q-11 0 -11 -5q0 -4 4 -8q4 -5 12 -14l9 -9l2 -2q1 -2 1 -3q18 7 27 15z" />
    <glyph glyph-name="uni3056" unicode="&#x3056;" 
d="M145 181q15 -2 24 -13q9 -15 2 -22q-6 0 -13 14q-5 9 -8 13q-1 1 -2 3q-3 2 -3 5zM164 192v2q29 -4 33 -26q0 -5 -5 -6q-4 0 -9 9q-9 15 -19 21zM16 143h1q3 -12 23 -12q14 0 45 9q-14 16 -31 29q-6 20 8 28q1 0 3 -2q2 -1 3 -2q34 -7 57 -22q2 -1 7 -1h4q12 -6 5 -15
q-13 -11 -36 -22q13 -17 36 -51q2 -4 8 -11q8 -11 8 -17q-3 -12 -10 -15q-4 0 -10 8q-3 5 -5 6q-11 9 -52 10q-49 -1 -51 -32q3 -41 82 -45q14 0 15 -9q-2 -9 -15 -10q-82 8 -86 59q0 45 68 45q31 -2 42 -7v2q-17 36 -41 64q-29 -12 -54 -12q-24 2 -24 25zM122 159
q-2 13 -25 23q-25 8 -30 -2q0 -2 3 -6q1 -1 1 -2q14 -15 24 -28q23 9 27 15z" />
    <glyph glyph-name="uni3057" unicode="&#x3057;" 
d="M45 146v27q0 8 -3 14q-4 5 -9 7q0 5 3 5q8 0 16 -6q10 -10 10 -21q0 -2 -1 -5q-1 -1 -1 -2q-4 -19 -6 -59q-3 -26 -3 -52v-16q0 -23 8 -36q8 -11 24 -11h9q43 0 87 46q-1 -7 -9 -18q-1 -2 -2 -3q-33 -40 -74 -41h-4q-27 1 -39 19q-9 15 -9 43v17q0 12 1 25q2 33 2 67z
" />
    <glyph glyph-name="uni3058" unicode="&#x3058;" 
d="M33 194v3q33 -4 27 -36q-10 -64 -12 -118q-1 -55 38 -54q46 0 92 51h1q-32 -65 -84 -67q-55 -4 -53 68q0 27 2 105q1 21 1 30q0 10 -12 18zM93 149q34 -15 24 -35q-7 -1 -15 19q-6 12 -9 16zM112 160v2q16 -1 26 -13q11 -15 0 -19q-5 0 -12 12q-7 13 -14 18z" />
    <glyph glyph-name="uni3059" unicode="&#x3059;" 
d="M133 159h9q12 0 35 2q-16 -2 3 0h4q6 2 9 0q8 -5 8 -11v-4q-2 -3 -7 -3q-4 0 -9 2q-4 2 -6 2q-22 4 -44 4h-8q-8 0 -12 -1q0 -7 1 -20t1 -19q0 -1 2 -3q1 -3 1 -4q5 -11 5 -31v-8q0 -37 -14 -62q-10 -20 -32 -38h-2v1q34 42 33 73h-6q-14 0 -23 12q-11 15 -11 29v5
q3 33 29 37q5 0 9 -3v30q-14 -1 -26 -4q-2 0 -6 -1q-23 -4 -34 -12l-1 -1q-6 -4 -10 -4q-6 1 -12 4l-2 2q-10 9 -7 16q2 0 7 -5l1 -1q4 -3 13 -1t18 5q29 8 59 11v40q-1 12 -18 14v3l5 3h1h3q9 0 19 -12q6 -9 1 -24q-3 -8 -4 -17v-6h18zM110 60v26q1 8 -2 16q-6 12 -14 12
q-5 0 -13 -8q-7 -7 -7 -19q1 -12 7 -21q9 -12 22 -13q7 1 7 7z" />
    <glyph glyph-name="uni305A" unicode="&#x305a;" 
d="M142 203v2q16 -3 24 -14q7 -14 -3 -18q-3 0 -9 13q-7 14 -12 17zM164 213v2q34 -2 27 -25q-6 -4 -13 8q-7 13 -14 15zM90 209v3q4 3 9 3q24 -4 22 -25q-5 -4 -5 -31v-1q11 1 21 1q13 0 43 2q7 1 8 1q11 -2 14 -10q0 -9 -9 -9q-3 1 -10 2q-28 5 -49 5h-5q-8 -1 -13 -1
q1 -12 1 -38q9 -13 9 -42q-1 -69 -49 -104h-3q29 30 36 71q-37 3 -40 49q3 34 25 37q7 0 13 -3v29q-59 -7 -71 -18q-17 -10 -28 19q1 0 5 -2q7 -5 10 -5q2 0 13 3q38 10 71 12v25q1 25 -18 27zM110 60v28q-1 24 -16 26q-19 -6 -20 -27q3 -29 29 -34q6 1 7 7z" />
    <glyph glyph-name="uni305B" unicode="&#x305b;" 
d="M77 99v-28q-5 -65 52 -61q17 0 30 4q3 1 5 1q17 -1 19 -9q1 -12 -38 -12q-83 -8 -79 93v9q-14 -4 -34 -11q-5 -2 -7 -3q-16 3 -23 27q1 0 6 -4q9 -7 12 -7q2 0 15 4q19 5 31 8v37q1 12 -16 13q3 12 13 10q14 -5 17 -16q0 -2 -2 -7l-1 -1v-33q4 1 13 2q32 6 50 7
q3 22 3 45q0 19 -17 20q17 19 33 -16q0 -1 -2 -3t-2 -4q0 -21 -3 -42h10q15 0 24 4q2 1 4 1q14 -5 20 -17q-2 -4 -5 -4q-1 0 -4 1q-19 4 -43 4h-7q-7 -68 -24 -69q-1 0 -2 4q-1 2 -1 3q-3 7 -15 15q-3 2 -5 3v2l19 -6q11 -5 17 47q-34 -3 -63 -11z" />
    <glyph glyph-name="uni305C" unicode="&#x305c;" 
d="M162 168v2q17 -1 25 -12q8 -16 -2 -20q-4 0 -9 10q-6 14 -14 20zM182 181v2q23 -4 28 -17q2 -10 -3 -12q-3 -1 -7 7q-7 14 -18 20zM74 93v-46q0 -26 13 -35q7 -8 28 -7h12q10 0 19 2q1 0 4 1q4 2 7 2q5 0 10 -1q11 -3 8 -12q-3 -4 -14 -7h-2q-7 -1 -15 -1h-9q-14 0 -26 3
q-19 4 -29 15q-13 14 -16 57q-1 6 -1 9q0 -3 0 17q-1 0 -3 -1q-3 0 -4 -1q-15 -4 -28 -11q-1 0 -2 -1q-2 -2 -4 -2t-7 2l-1 1q-6 5 -11 13q0 1 -1 2q-1 2 -1 6q2 0 4 -3l2 -2q7 -5 20 -2q7 1 18 4q2 1 3 1q8 2 15 3v8v14q0 7 -1 16q0 8 -4 12q-5 3 -10 3q0 6 10 7q4 0 7 -2
q12 -4 12 -13q0 -3 -1 -9q-2 -6 -2 -9v-23q3 1 7 1q4 1 6 1q29 6 46 6h2v3q2 16 2 35v8q0 8 -3 13q-3 7 -12 7v2q7 7 16 2q15 -9 15 -19q0 -1 -1 -3v-1q0 -2 -2 -4q-2 -1 -2 -2q0 -4 -1 -12q0 -7 -1 -11v-9q-1 -6 -1 -9h5q16 0 30 6q7 0 13 -4q12 -6 9 -14q-3 -1 -7 -1h-2
q-23 5 -39 5h-10v-4q-2 -15 -4 -22q-4 -25 -12 -36q-3 -4 -7 -4t-6 6q0 -1 -1 1q-4 9 -17 19h2q3 -1 10 -4q6 -2 9 -4q6 -2 9 13q5 12 6 26q0 5 1 9q-30 -2 -60 -10z" />
    <glyph glyph-name="uni305D" unicode="&#x305d;" 
d="M166 99h-4q-18 0 -40 -13q-27 -19 -31 -41q-3 -18 6 -33q8 -17 33 -22q1 0 4 -1q17 -3 17 -14q0 -5 -4 -7q-3 -3 -12 0h-1q-8 1 -14 6q-36 23 -37 53v5q0 28 29 55q1 1 5 4l6 6l-1 1q-53 -12 -79 -37q-1 -1 -2 -3q-8 -8 -13 -8q-9 2 -7 14q4 7 10 10l6 3q4 1 5 2
q11 8 20 18q4 4 12 13q16 16 23 25q10 11 28 35q5 7 8 11q1 3 -2 5q-4 0 -7 -1q-4 -1 -12 -5q-1 -1 -2 -1q-14 -7 -24 -17q-1 -3 -3 -3q-6 0 -13 10q-6 8 -7 18v4h2q4 -12 14 -12q8 1 17 4q18 6 35 14h1q4 0 11 -10q2 -4 3 -5q2 -3 2 -7t-6 -6q-7 -2 -17 -14q-2 -3 -3 -4
q-35 -40 -65 -65v-1q25 11 74 24q9 3 20 6q2 0 4 2q5 2 8 2t8 -1q3 -1 7 -3q5 -2 7 -3q6 -2 6 -7q0 -7 -8 -7h-4h-6q-4 1 -7 1z" />
    <glyph glyph-name="uni305E" unicode="&#x305e;" 
d="M151 170q15 -5 23 -16q8 -16 -1 -19q-5 0 -9 11q-5 10 -9 16q0 1 -1 2q-3 4 -3 6zM174 181v2q24 -3 30 -26q-2 -8 -7 -8t-8 9q-3 12 -15 23zM108 96v2q-56 -16 -84 -42q-5 -6 -8 -6q-15 9 2 24q46 29 103 107q1 4 -3 5q-15 -1 -37 -20q-8 -7 -10 -7q-17 8 -20 32h2
q1 -1 2 -3q6 -9 10 -9q15 0 50 16l4 2q10 -4 17 -22q0 -4 -6 -6q-2 -1 -23 -23q-41 -41 -62 -61q23 9 69 21q22 6 25 8q1 1 3 2q4 3 8 3q26 -2 29 -13q0 -8 -15 -8q-1 0 -10 1h-10q-57 -10 -66 -62q0 -39 40 -47q18 -2 21 -12q0 -13 -17 -10q-48 17 -51 61q0 36 37 67z" />
    <glyph glyph-name="uni305F" unicode="&#x305f;" 
d="M169 111q-1 4 -7 9q-6 3 -13 5q-6 1 -17 2q-6 1 -9 1q22 10 48 -1q14 -5 18 -13q4 -6 4 -13t-6 -8q-3 0 -6 2q-1 0 -2 1q-3 2 -4 2q-2 0 -6 -1q2 1 -2 -1q-2 -1 -7 -4q-8 -5 -13 -5q15 10 20 19q2 2 2 5zM158 -4h7q3 0 9 1q6 2 9 2q8 0 13 -5q1 -2 -1 -6l-1 -1
q-6 -6 -19 -6h-20q-5 0 -18 2q-6 1 -9 1q-22 4 -29 20q-6 13 -2 27q0 3 2 9q1 5 1 7v-13q0 -9 3 -17q3 -7 9 -12q9 -6 29 -8h4q7 -1 13 -1zM62 196v2q12 4 26 -10q3 -3 3 -6t-2 -5t-2 -4q-2 -4 -5 -15q-1 -3 -2 -5v-3q-1 -2 -1 -3q9 3 16 9q2 1 4 3q4 3 7 3q8 -1 10 -6
q0 -7 -12 -12q-1 -1 -2 -1q-3 -1 -8 -3q-6 -4 -10 -5q-6 -3 -10 -4q-16 -52 -34 -102q-3 -10 -6 -19v-3q-1 -6 -4 -9q-6 -6 -10 -3q-3 3 -3 8v7q0 4 4 8q1 2 2 3q9 12 19 43q2 6 3 8q9 27 18 55q-5 -2 -14 -4h-3q-17 -3 -23 5q-6 5 -8 13q1 0 4 -2t5 -3q14 -7 39 4q1 0 2 1
h2q3 9 5 18q0 1 1 5q6 19 0 26q-2 4 -10 6h-1z" />
    <glyph glyph-name="uni3060" unicode="&#x3060;" 
d="M88 45h1q-8 -52 44 -51q8 0 31 4q6 1 7 1q20 -1 14 -12q-8 -9 -32 -9q-69 0 -70 41q0 14 5 26zM110 128q63 16 69 -32q-3 -5 -10 0q-4 2 -5 2q-4 0 -9 -2q-1 0 -2 -1q-12 -5 -18 -5q9 6 17 13q13 22 -42 25zM155 168v2q20 -1 29 -11q11 -17 -2 -21q-2 0 -8 9
q-11 16 -19 21zM173 189v2q33 -1 36 -21q0 -8 -7 -8q-3 0 -10 9q-11 14 -19 18zM49 195v2q20 6 28 -17q0 -4 -4 -11q-1 -2 -2 -3q0 -3 -3 -12q-1 -5 -2 -8q10 5 23 14q2 2 3 2q11 -1 11 -7t-6 -8q-20 -12 -37 -18q-28 -91 -40 -126q0 -1 -1 -2q-2 -7 -7 -9q-6 -2 -8 0
q-3 14 1 24q5 4 11 16q16 32 33 93q-9 -3 -18 -3q-21 -1 -29 19q13 -8 22 -8q13 0 30 7q2 6 4 16q3 11 4 16q2 23 -13 23z" />
    <glyph glyph-name="uni3061" unicode="&#x3061;" 
d="M63 194v2q6 4 10 3q2 -1 5 -2q9 -3 11 -9q1 -3 1 -6t-2 -8q-1 -3 -1 -4q-1 -2 -2 -5q-3 -8 -6 -21q2 0 4 1q12 5 26 11q20 11 31 1q0 -8 -5 -9q-4 -2 -13 -4h-2q-4 -1 -11 -3t-11 -4q-3 -1 -10 -3q-7 -3 -11 -4q-2 -12 -5 -26q-1 -9 -4 -26q-3 -18 -4 -27h1q40 31 75 31
q48 0 48 -41v-2q-1 -30 -26 -50q-23 -16 -58 -16h-7v2q26 5 50 22q28 19 28 48v2q-1 29 -33 30q-39 -2 -73 -38q-3 -5 -4 -11t-3 -10q-2 -3 -7 -3q-5 1 -5 14v4v1l9 48q1 5 2 8q3 19 6 37h-3q-9 -2 -18 -2h-4q-17 2 -19 24q2 -1 5 -5q3 -3 5 -4q5 -3 9 -3h4q11 0 23 3
q2 8 4 26v2q2 10 0 17q-4 9 -10 9z" />
    <glyph glyph-name="uni3062" unicode="&#x3062;" 
d="M147 157v2q39 -15 24 -37q-6 0 -11 13q-6 15 -13 22zM170 168v2q17 -3 26 -14q6 -7 4 -15q-2 -7 -9 -2q-2 0 -5 7q-7 14 -16 22zM48 191v2q16 11 28 -12q0 -4 -3 -9q-1 -2 -2 -3q0 -2 -2 -7q-3 -11 -4 -19q9 3 24 10q19 9 23 9q8 -1 12 -8q2 -5 -5 -9q-9 -1 -38 -11
q-13 -5 -19 -7q-8 -47 -11 -75q40 30 78 30q45 -2 47 -43q-5 -61 -91 -66v2q76 18 78 72q-1 28 -33 30q-48 -4 -74 -42q-1 -2 -2 -5q-4 -12 -7 -14q-3 -1 -6 -1q-5 4 -6 17q0 3 5 25q10 41 15 68q-12 -3 -22 -3q-20 2 -22 24q11 -11 21 -11q11 0 24 5q0 4 1 12q2 20 2 29
q0 7 -11 10z" />
    <glyph glyph-name="uni3063" unicode="&#x3063;" 
d="M128 130h8q18 0 30 -8q15 -10 16 -32v-5q-1 -35 -26 -55q-18 -15 -48 -15h-4l1 1q26 7 37 17q18 13 24 30q5 11 5 25v4q0 13 -8 23q-10 10 -24 10h-6q-16 0 -46 -12q-21 -9 -32 -22l-2 -2q-2 -2 -5 -2q-4 0 -8 6l-1 1q-10 7 -9 15q2 0 4 -2q2 -3 3 -3q7 -4 23 6l6 3
q15 8 31 12q2 0 7 1q16 4 24 4z" />
    <glyph glyph-name="uni3064" unicode="&#x3064;" 
d="M97 2v1q86 20 91 92q-2 50 -45 54q-45 -2 -87 -41q-2 -1 -5 -5q-6 -8 -11 -8q-24 12 -30 32q12 -10 17 -10q9 0 32 14q44 26 76 26q64 -2 67 -62q-6 -86 -105 -93z" />
    <glyph glyph-name="uni3065" unicode="&#x3065;" 
d="M164 160v2q33 -4 23 -27q-5 0 -12 11q-6 10 -11 14zM182 180v1q24 -2 29 -18q0 -6 -5 -7t-8 5q-1 1 -2 3q-6 13 -14 16zM77 5v2q84 19 87 88v3q-1 23 -12 35q-11 10 -27 10h-2q-48 0 -88 -41q-9 -9 -12 -9q-15 3 -22 24q1 0 4 -2q6 -3 10 -3q5 0 20 10q41 27 78 27
q62 0 62 -60q-2 -83 -98 -84z" />
    <glyph glyph-name="uni3066" unicode="&#x3066;" 
d="M140 4h3q3 0 10 -4q3 -2 4 -3q8 -4 8 -10q0 -12 -19 -8q-64 14 -66 79q2 64 58 104v2q-16 -1 -41 -9q-29 -9 -46 -21q-4 -3 -10 -4q-4 0 -8 6q-7 6 -11 13q0 1 -1 2q-2 2 -2 4v4h2q6 -9 14 -10q9 0 23 6q6 2 17 5q27 9 42 12q6 2 18 4q11 3 17 4q1 0 4 1q6 2 9 2t11 -1
q-5 1 2 -1q1 0 2 -1q6 -1 8 -3q6 -4 3 -12q-1 -3 -6 -3q-3 0 -8 1t-7 1q-72 -20 -83 -101q5 -54 53 -59z" />
    <glyph glyph-name="uni3067" unicode="&#x3067;" 
d="M153 138h2q16 -6 22 -20q7 -17 -3 -20q-5 1 -10 17t-11 23zM178 146q35 -16 27 -36q-6 -6 -15 14q-7 16 -12 22zM124 163v2q-33 0 -78 -27q-13 -8 -16 -8q-21 8 -25 29h2q4 -9 14 -10q8 0 36 10q43 15 62 17q2 0 12 3q17 4 20 4q14 0 22 -5q6 -5 4 -11t-13 -4
q-11 1 -23 -2q-55 -26 -64 -90q1 -66 58 -69h2q4 1 6 -2q1 -1 3 -2q7 -5 7 -7q-14 -23 -58 5q-27 22 -27 63q3 63 56 104z" />
    <glyph glyph-name="uni3068" unicode="&#x3068;" 
d="M88 -3h22q21 0 36 6l1 1q2 1 5 1q16 -1 16 -10q-1 -6 -8 -9q-11 -5 -36 -5h-15q-68 -1 -66 49q0 27 35 60q4 3 5 4q-3 6 -5 20v1q-4 21 -6 43v11q-1 7 -1 10q0 4 -3 6q-2 2 -7 4q-3 1 -4 2v3q7 6 20 -1q11 -7 11 -18v-4q0 -4 -1 -12q-2 -8 -2 -12v-11q0 -9 3 -25
q1 -7 2 -10q33 29 56 32q11 -1 11 -7q0 -8 -12 -12q-1 -1 -2 -1q-93 -37 -96 -87q2 -28 41 -29z" />
    <glyph glyph-name="uni3069" unicode="&#x3069;" 
d="M132 179v2q17 -1 28 -12q11 -15 1 -20q-3 0 -10 10q-10 15 -19 20zM145 197v2q19 0 29 -7q12 -12 3 -19q-3 0 -10 8q-12 14 -22 16zM46 191v3q26 8 32 -17q0 -1 -1 -6q-5 -37 3 -70q5 3 13 9q34 26 42 23q10 -1 13 -9q1 -7 -9 -11q-104 -38 -104 -88q-1 -28 47 -28
q33 0 54 7q4 1 6 1q12 0 14 -10q0 -10 -12 -11q-15 -3 -30 -3q-85 -1 -83 45q2 39 42 69q-7 23 -11 69q-2 19 -3 20q-7 7 -13 7z" />
    <glyph glyph-name="uni306A" unicode="&#x306a;" 
d="M16 155v2q14 -8 23 -8q19 0 33 3q2 5 6 16l6 15q5 18 -11 20v2q23 5 25 -22q-1 -2 -3 -4t-2 -3q-1 -2 -3 -7q-4 -8 -6 -13q7 2 18 6q6 3 8 3q11 0 13 -9q0 -5 -45 -16q-34 -79 -46 -95q-6 -8 -12 -1q-2 10 7 26q3 0 6 5l3 3q13 21 30 61q-14 -4 -28 -4q-13 2 -22 20z
M98 15q-30 -1 -33 -19q3 -17 32 -18q22 0 28 30q-16 7 -27 7zM153 132v1q26 -1 37 -13q15 -27 -6 -20q-11 3 -25 3q-26 0 -26 -31q0 -15 3 -54q14 -4 24 -12q16 -13 7 -25q-4 0 -9 6l-3 3q-6 6 -19 13q-3 -34 -35 -33q-38 1 -41 25q3 27 44 28q11 0 21 -2q-2 29 -2 34
q0 29 10 40q5 6 22 11q18 6 18 12q-5 11 -20 14z" />
    <glyph glyph-name="uni306B" unicode="&#x306b;" 
d="M25 189q20 -7 23 -28q0 -5 -5 -17q-16 -39 -16 -79q0 -20 6 -41q1 -1 2 -1h1q11 33 20 67q-1 -16 -6 -47q-6 -32 -7 -48q-1 -13 -8 -12q-15 7 -17 79q0 24 9 69q5 24 5 32q0 10 -5 21q-2 3 -2 5zM133 127h-3l14 14l1 1q4 3 3 7q-4 2 -13 2q-22 0 -52 -8v1q31 21 66 21
q26 -1 28 -16q0 -6 -15 -10q-18 -5 -29 -12zM82 69h1q-3 -48 53 -46q13 0 28 5q5 1 6 1q14 -1 23 -10q3 -13 -35 -12q-79 -1 -77 48q0 2 1 7v7z" />
    <glyph glyph-name="uni306C" unicode="&#x306c;" 
d="M31 154h1q0 -26 10 -54q25 26 53 37q3 13 3 28q0 18 -16 21v1q24 6 27 -19q0 -13 -2 -27q10 2 19 2q68 -3 70 -77q0 -29 -11 -50l15 -15q7 -12 0 -20q-5 -2 -11 7q-1 2 -2 3q-5 8 -11 13q-18 -18 -41 -18q-22 1 -23 21q1 23 30 24q18 0 31 -8q10 20 10 45q-1 69 -57 70
q-8 0 -20 -4q-9 -50 -36 -97q2 -2 3 -5l1 -2q9 -11 8 -17q0 -6 -4 -6q-3 0 -7 5t-9 12q-23 -33 -39 -33q-9 1 -10 13q0 1 -1 4q-4 7 -4 20q1 28 26 62q-6 22 -6 40q0 5 2 16q1 5 1 8zM142 26q-24 -1 -26 -18q1 -15 19 -17q19 1 32 23q-12 11 -25 12zM94 130q-23 -11 -48 -42
q9 -22 19 -39q22 41 29 81zM38 76q-22 -34 -23 -57q1 -16 9 -17q11 1 32 31q-12 20 -18 43z" />
    <glyph glyph-name="uni306D" unicode="&#x306d;" 
d="M133 23q-17 -1 -19 -15q1 -16 20 -17q19 0 30 21q-16 11 -31 11zM55 109v2v11q-9 -4 -16 -15q-4 -5 -6 -6q-17 5 -20 21q1 0 2 -1q8 -4 11 -4q11 0 31 20q3 27 3 35v2q0 7 -3 13q-5 6 -10 8v2q8 5 18 -3q10 -10 7 -19l-3 -15q-3 -16 -4 -24q9 -6 10 -13q1 -6 -5 -10
q-4 -6 -9 -16v-9q-1 -6 -1 -9q47 53 84 54q43 -4 45 -63q0 -33 -9 -52q12 -7 19 -19q3 -4 3 -13q0 -5 -4 -5q-3 0 -9 6l-2 2q-5 7 -14 15q-15 -21 -39 -21q-26 1 -27 25q2 22 31 23q15 0 32 -7q6 25 6 47q0 55 -36 54q-36 0 -80 -52v-21q0 -8 1 -24t1 -23q0 -29 -7 -32
q-2 0 -4 1q-3 2 -3 9v2q-3 16 -16 37q-3 -11 -7 -24q-3 -12 -12 -9q-7 10 -1 19q27 42 43 101zM53 70v10q-1 -4 -4 -11q-3 -8 -5 -12q2 2 5 7q3 4 4 6zM53 5v60q-4 -6 -9 -12h-1q-8 -19 -10 -30q6 -9 14 -15q2 -3 6 -3z" />
    <glyph glyph-name="uni306E" unicode="&#x306e;" 
d="M106 157l-3 12q-73 -29 -84 -98q9 -39 23 -42q51 64 64 128zM126 -6h-1l1 2q58 35 60 94q-6 75 -72 80h-3q-3 -1 -5 -1q15 -14 11 -28q-4 -7 -7 -16q-50 -106 -70 -112q-22 10 -28 58q14 93 103 107q80 -7 84 -90q-1 -71 -73 -94z" />
    <glyph glyph-name="uni306F" unicode="&#x306f;" 
d="M25 61v-11q0 -19 2 -27l1 -1q1 -5 4 -4q4 13 7 28q3 17 8 33q-2 -21 -5 -42q-2 -12 -2 -24v-5q0 -8 1 -14q3 -15 -2 -16q-4 -1 -9 2q-2 1 -5 7q-3 12 -5 23q-2 20 -2 40v20q0 22 9 64l6 33v4q1 11 -2 16l-1 1q-4 3 -4 6q10 1 17 -11q6 -9 1 -25q-1 -4 -4 -12
q-8 -24 -10 -36q-5 -24 -5 -49zM158 16q0 -18 -13 -29q-8 -6 -24 -6h-6q-27 1 -34 17q-2 5 0 14q9 24 39 25h3q12 0 24 -3v1l-3 80q-9 -1 -18 -1h-3q-19 0 -40 19v2q14 -8 30 -8h6q5 0 16 2q5 1 8 1v12v26q0 10 -2 14q-2 3 -8 6q-2 1 -3 2v2q2 2 3 2q8 0 14 -4q12 -8 12 -17
q0 -2 -1 -5q0 1 -1 -1q-4 -15 -4 -30v-4v-1q14 3 28 11h1q7 -1 8 -7q0 -8 -10 -11q-5 -2 -14 -4q-4 -1 -6 -2q-4 0 -7 -2q0 -14 1 -28q2 -27 3 -53q0 -1 1 -2v-3q16 -4 27 -12l2 -2q10 -9 7 -16q-5 -7 -10 -2q-3 2 -8 7l-9 6q-1 1 -4 2q-3 2 -5 2zM118 29h-3q-11 0 -18 -4
q-10 -6 -10 -16q0 -17 26 -18h5q13 0 21 7q7 5 8 24q-2 1 -6 2q-16 5 -23 5z" />
    <glyph glyph-name="uni3070" unicode="&#x3070;" 
d="M15 192l1 2q13 1 21 -19q2 -6 -6 -29q-16 -49 -16 -91t6 -37q3 10 8 30q5 23 8 34v-4q-1 -7 -3 -22q-9 -50 -5 -57q5 -20 -5 -21q-18 3 -18 78q0 38 10 88q11 41 -1 48zM161 187v2q35 -8 26 -29q-5 -5 -16 13q-6 10 -10 14zM179 202q15 -2 22 -12q9 -14 1 -20
q-4 -1 -12 14q-7 14 -11 18zM118 191v3q28 -3 29 -22q-6 -12 -7 -39v-1q9 3 21 8q9 3 11 3q8 -1 9 -7q0 -6 -10 -11t-30 -8q1 -19 4 -56q2 -22 2 -30q23 -7 35 -21q2 -10 -4 -13q-3 -1 -16 8q-9 6 -14 9q-2 -33 -36 -33q-42 1 -44 26q5 28 41 30q13 0 26 -3q-1 16 -3 81
q-10 -1 -21 -1q-22 0 -38 21q1 0 2 -1q17 -7 31 -7t26 3v23q1 33 -14 38zM104 29q-26 -1 -29 -21q1 -16 29 -17q30 -2 31 30q-14 8 -31 8z" />
    <glyph glyph-name="uni3071" unicode="&#x3071;" 
d="M204 184q-2 18 -17 20q-15 -1 -17 -19q2 -17 17 -20q16 1 17 19zM165 185q2 23 22 25q20 -3 22 -26q-1 -24 -22 -25q-20 2 -22 26zM3 41v25q0 21 8 61q4 25 6 37q4 17 -5 25l1 2q6 0 12 -4l1 -1q6 -9 7 -14q3 -9 -4 -26q-1 -4 -2 -6q-15 -45 -15 -85v-7q0 -14 2 -28
q3 -6 4 -5q3 11 8 32q5 22 8 32v-4q-2 -23 -7 -44q0 -2 -1 -7q-2 -19 0 -28q1 -6 1 -11q0 -10 -6 -10t-10 10t-5 21q-3 17 -3 35zM131 140v26q0 8 -4 16q-2 5 -9 9v2q8 4 21 -7q8 -8 8 -14q0 -2 -1 -5q0 1 -1 -1q-5 -15 -5 -30v-7q10 3 19 7q2 0 5 2q4 3 7 3q2 0 4 -2l1 -1
q4 -2 4 -5q0 -5 -8 -10l-1 -1q-3 -1 -8 -3q-7 -2 -11 -3q-6 -1 -12 -3q5 -74 4 -59q0 -3 1 -10q2 -10 2 -15q11 -3 20 -8q15 -7 15 -16q0 -7 -5 -8q-3 0 -5 2q-2 1 -5 3q-13 9 -20 12q0 -17 -7 -26q-10 -10 -24 -10h-4q-11 0 -20 3h-2q-11 4 -16 9q-6 6 -6 17q0 13 12 21
q12 6 26 6h6q11 0 23 -2q0 3 -1 7v3q-1 10 -1 29q-1 19 -1 29v12q-4 0 -10 -1h-9h-5q-20 1 -35 22q14 -9 29 -9h8q11 0 21 2v14zM107 26h-4q-8 0 -16 -3q-13 -5 -13 -14q1 -19 26 -20h3q12 0 22 6q10 7 10 24q-13 7 -28 7z" />
    <glyph glyph-name="uni3072" unicode="&#x3072;" 
d="M65 181h1q6 0 12 -4q7 -5 4 -14q-2 -3 -7 -8l-2 -2q-6 -8 -11 -21q-7 -15 -14 -33q-12 -26 -12 -55v-4q0 -30 16 -42q6 -4 13 -4q24 0 47 30q13 19 22 43q12 34 12 66v4q0 6 -3 18q-3 11 -3 17v5q0 8 8 9q8 0 8 -12v-5q0 -16 10 -42q9 -22 22 -37q7 -5 11 -14v-7
q-2 -13 -14 -5q-4 5 -9 13q-11 20 -20 44q-1 5 -4 14q-1 3 -1 5v-20q0 -43 -18 -84q-24 -54 -59 -55h-3q-19 0 -32 17t-13 44v4q0 47 30 107q0 1 1 3q3 5 3 9q-3 -4 -11 -10q-3 -2 -4 -3q-11 -9 -17 -9q-6 1 -11 9q-3 4 -4 10q22 -16 52 19z" />
    <glyph glyph-name="uni3073" unicode="&#x3073;" 
d="M3 162q18 -14 43 12q5 7 11 7q8 0 12 -10q3 -7 -2 -12q-1 0 -2 -1q-4 -3 -7 -8q-33 -61 -33 -109q1 -43 30 -44q66 7 78 136q0 11 -4 34q-1 4 -1 5q0 15 9 14q9 -3 10 -18q0 -41 33 -80q7 -8 7 -10q4 -14 -6 -15q-9 1 -18 17q-17 26 -25 65q-2 -157 -77 -164
q-44 2 -45 61q2 56 32 122q-19 -21 -30 -21q-12 4 -15 19zM156 181q20 -6 28 -25q2 -11 -3 -15q-5 -2 -10 8q-8 22 -15 32zM178 189v2q28 -7 31 -28q0 -7 -6 -9q-5 -2 -9 5q-4 20 -16 30z" />
    <glyph glyph-name="uni3074" unicode="&#x3074;" 
d="M52 -8h4q26 1 47 36q16 29 22 63q5 24 5 49v5v1q0 3 -2 8q-2 11 -2 16v4q1 7 7 7q8 -1 9 -12v-5q0 -15 5 -30q6 -18 17 -34q6 -8 11 -16l4 -4q6 -6 7 -11q2 -10 -3 -13q-9 -6 -21 15q-11 19 -21 52q-1 4 -3 10q-2 7 -3 10v-11q0 -18 -4 -48q-3 -22 -10 -43
q-22 -63 -58 -63h-3q-43 3 -46 62q0 43 26 103q6 14 7 18q-7 -7 -15 -12q-10 -8 -16 -8q-4 0 -9 5q-7 7 -6 13q5 -5 11 -5q6 1 12 4q5 3 14 10q4 3 6 4l2 2q6 7 10 7q1 0 4 -3q5 -4 9 -9q3 -6 -1 -11l-3 -3q-3 -2 -4 -4q-2 -3 -5 -9l-6 -9q-27 -54 -27 -93q1 -44 29 -48z
M207 164q-1 21 -19 22q-16 -1 -17 -22q1 -19 18 -21q17 2 18 21zM188 191q22 -1 23 -27q-1 -24 -22 -26q-21 2 -23 26q2 25 22 27z" />
    <glyph glyph-name="uni3075" unicode="&#x3075;" 
d="M129 13v-4q0 -13 -8 -22q-7 -8 -22 -1q-18 9 -34 24q3 -1 10 -4q14 -7 22 -7q7 0 13 7q8 15 -4 40q0 1 -1 3t-1 3q-53 -25 -59 -55q-1 -12 -8 -11q-3 0 -7 3l-2 2t-5 4t-6 5q-6 6 -6 18v2q0 9 3 17q1 2 2 2q2 1 1 -1q-3 -21 10 -23q8 0 25 10l1 1q18 12 38 24q5 3 11 6
q-8 15 -13 31q-2 6 -2 12q0 8 10 18q1 2 4 6q7 8 9 14q4 10 -1 16l-1 1q-8 6 -13 12q-7 13 -6 25h2q4 -16 25 -27q13 -6 13 -16q0 -9 -9 -14q-9 -6 -16 -13l-3 -3q-9 -10 -9 -18t5 -14q2 -5 8 -14q2 -3 3 -4t4 -6q1 -2 2 -3q4 2 10 3q28 5 55 -13q21 -16 22 -41q0 -9 -7 -9
q-3 0 -7 4l-1 2q-2 1 -4 1q-2 1 -3 1q-5 0 -15 2q-7 1 -10 1l1 1q2 1 7 2q9 2 13 4h1q4 2 4 5q-4 35 -48 37q-8 0 -17 -2q14 -23 14 -44z" />
    <glyph glyph-name="uni3076" unicode="&#x3076;" 
d="M154 130q32 -1 28 -28q-6 -5 -17 14q-7 11 -11 14zM174 141v2q32 -1 36 -25q-6 -8 -15 4q-11 14 -21 19zM80 191q2 -13 22 -23q18 -10 18 -21q0 -7 -14 -17q-23 -15 -25 -34q0 -6 15 -27q5 -7 8 -11q3 0 8 1q11 2 17 2q54 -4 61 -55q0 -13 -14 -3q-5 3 -6 3q-7 1 -26 1
q14 5 27 12q-2 36 -43 39q-12 0 -23 -3q15 -24 15 -43q-2 -26 -19 -29q-16 1 -45 27q49 -25 48 8q0 17 -10 34q-46 -19 -58 -53q0 -1 -1 -3q-2 -13 -7 -13q-1 0 -3 2q-1 1 -2 1q-1 1 -3 2q-18 11 -18 30q0 9 4 19q1 2 2 2q2 1 1 -1q-3 -16 3 -22q7 -6 18 1q33 27 64 38
q-3 5 -8 14q-8 14 -8 18q-3 12 13 35q11 15 11 22q0 5 -7 12q-15 14 -15 35z" />
    <glyph glyph-name="uni3077" unicode="&#x3077;" 
d="M183 146q-17 -1 -18 -21q1 -18 18 -19q15 1 16 19q-1 20 -16 21zM161 125q1 25 22 26q19 -2 20 -26q-2 -22 -20 -24q-20 2 -22 24zM8 24v4v1l2 8q2 2 3 1q0 -16 10 -22q8 -5 22 8q16 14 35 24l6 3q3 2 14 7q-9 14 -12 24q-6 17 0 28q2 2 5 7q3 4 4 6q6 6 9 14q6 10 0 15
l-3 3q-3 3 -10 11q-6 7 -6 19v4h1q3 -7 9 -13q4 -3 12 -8q4 -3 6 -4q5 -3 9 -7q6 -9 2 -16q-2 -4 -5 -5q-1 0 -2 -1q-14 -6 -19 -13q-11 -11 -11 -20q0 -10 13 -25q1 -2 5 -6q4 -7 6 -10q7 2 13 2h3q18 0 36 -8q17 -8 26 -19q8 -14 8 -26q0 -11 -5 -11q-1 0 -4 2q-1 1 -2 1
l-2 2q-4 4 -7 5q-6 1 -13 1h-17q9 3 17 6q12 3 13 9q0 12 -15 23q-8 8 -26 12q-12 2 -23 -1q3 -5 5 -10q6 -13 5 -28v-5q0 -19 -8 -26q-4 -4 -9 -4t-8 1q-12 3 -32 21q-4 3 -6 5q3 -1 10 -4q4 -2 7 -3q8 -3 15 -4q9 0 14 7q10 15 -7 45q-5 -2 -14 -8l-6 -3q-14 -9 -26 -22
q-10 -10 -11 -17q0 -1 -1 -6q0 -4 -1 -5v-1q-2 -6 -5 -6q-3 -1 -4 2q-4 4 -9 7q-16 14 -16 29z" />
    <glyph glyph-name="uni3078" unicode="&#x3078;" 
d="M3 90q1 0 2 -2q5 -3 7 -3q10 0 25 17q1 2 2 3q9 10 18 19q12 14 22 14q16 1 36 -28q0 -1 1 -1q6 -8 13 -14q8 -8 15 -14q20 -18 41 -31q9 -4 16 -10q5 -3 7 -8q2 -10 -2 -13q-3 -3 -10 1q-1 1 -2 1q-9 6 -18 13q-36 27 -64 64q-2 3 -6 8q-7 11 -12 16q-12 12 -21 6
t-23 -25q-8 -9 -13 -21q0 -1 -1 -3q0 -6 -3 -7q-2 -1 -5 -1q-9 1 -18 7q-8 6 -7 12z" />
    <glyph glyph-name="uni3079" unicode="&#x3079;" 
d="M144 151q19 1 28 -7q10 -12 2 -19q-3 0 -10 9q-12 14 -20 17zM167 170q40 -2 30 -24q-5 0 -15 11q-9 10 -15 13zM2 87q1 0 3 -2q9 -9 19 1q7 6 19 20q24 28 37 27q11 0 42 -34q21 -24 33 -34q7 -5 33 -22q11 -7 12 -8l1 -1q9 -8 9 -13q0 -18 -22 -3q-41 27 -86 91
q-14 19 -22 18q-5 0 -15 -12q0 -1 -1 -2q-23 -27 -25 -35q-2 -12 -11 -12q-23 3 -26 21z" />
    <glyph glyph-name="uni307A" unicode="&#x307a;" 
d="M169 174q20 -2 22 -27q-1 -24 -21 -25q-22 1 -23 25q1 26 22 27zM187 147q-1 21 -18 22q-17 -1 -18 -22q2 -19 19 -21q16 2 17 21zM2 90q1 0 2 -1q8 -6 13 -3q8 4 12 10q12 13 23 25l5 5q2 3 9 9q1 1 3 2q4 4 8 4t7 -1q9 -5 20 -18q18 -21 37 -39q16 -18 48 -36
q2 -1 6 -4q4 -2 6 -4q9 -9 9 -15q0 -8 -3 -9q-11 -1 -26 14l-8 8q-6 6 -9 8q-43 38 -64 68q-6 8 -12 15q-5 5 -9 5q-6 0 -10 -5q-11 -8 -24 -30q-6 -9 -9 -19v-2q-1 -5 -5 -7q-3 -2 -8 0q-9 3 -15 9q-7 5 -6 11z" />
    <glyph glyph-name="uni307B" unicode="&#x307b;" 
d="M14 48v18q1 32 7 63q3 14 5 27q2 17 -1 25l-3 6l-2 2q7 1 14 -10q6 -8 6 -19v-4q0 -5 -2 -8q-7 -16 -10 -33q-5 -24 -5 -49v-19q0 -17 4 -32h3q9 23 23 75q1 3 1 5q-1 -20 -9 -57q-1 -3 -2 -8q-5 -20 -5 -31q0 -3 1 -9t1 -9q0 -8 -7 -8q-5 0 -10 13q-1 1 -1 2
q-5 14 -6 27q-2 17 -2 33zM179 135l5 -2q1 -6 -4 -9q-3 -2 -10 -6q-2 -1 -3 -1q-7 -3 -15 -6v-23q0 -13 2 -38q1 -13 1 -19q26 -5 39 -16q4 -4 4 -10q0 -5 -4 -6q-6 0 -10 4q-14 8 -29 14v-2q0 -19 -8 -27q-11 -10 -23 -10h-4q-13 0 -21 7q-11 8 -11 20v2q3 26 43 27
q9 0 15 -1q0 11 -1 33t-1 33v9q-15 -5 -31 -5h-4q-13 0 -21 11q11 -6 34 0q2 1 3 1q5 1 14 4q3 1 5 2v28q0 3 -1 8q-1 3 -3 6q-1 3 -2 4h-3q-12 -2 -25 -2h-7q-11 0 -20 8v2q17 -5 50 5q2 1 3 1q2 1 6 2q12 3 17 3q9 0 17 -6q3 -2 2 -5q0 -5 -9 -5h-4q-4 0 -12 -1t-11 -1
q5 -4 9 -9q4 -7 4 -14q0 -3 -1 -10t-1 -11q3 1 10 5q3 1 4 2q2 0 5 2q5 3 7 2zM123 23h-2q-25 -1 -27 -17q2 -18 25 -20q19 1 24 14q3 8 3 18v2q-11 3 -23 3z" />
    <glyph glyph-name="uni307C" unicode="&#x307c;" 
d="M42 98v-3q-5 -33 -13 -66q-5 -17 -2 -35q1 -4 1 -5q0 -8 -6 -8q-18 5 -20 77q0 33 8 77q5 23 5 33q0 9 -5 21q18 -9 20 -28q0 -3 -4 -16q-16 -47 -16 -80q1 -43 9 -42q5 15 14 45zM183 173q24 -6 27 -25q0 -5 -3 -7q-4 -1 -6 4q-2 3 -5 8q-8 15 -13 20zM164 159
q20 -3 23 -23q0 -6 -4 -6t-6 6q-1 9 -13 23zM109 29q-26 0 -27 -20q1 -17 22 -18q27 -1 27 34q-10 4 -22 4zM73 174v1q11 -5 52 6q18 5 22 5h2q13 -2 14 -9q1 -8 -16 -7q-9 0 -18 -2q11 -8 11 -20q0 -3 -1 -10t-1 -13l10 5q5 2 6 3q11 9 15 2q1 -7 -11 -14l-2 -1
q-10 -6 -18 -9q0 -4 0 -3q0 -43 4 -74q18 -3 32 -13q9 -6 9 -11q-1 -8 -12 -4q-12 9 -27 15q0 -40 -40 -38q-26 1 -28 21q-1 32 43 33q7 0 12 -1q-2 35 -2 72q-41 -14 -56 9q19 -9 56 5q3 34 -7 46q-4 0 -11 -2q-8 -1 -11 -1q-14 1 -27 9z" />
    <glyph glyph-name="uni307D" unicode="&#x307d;" 
d="M2 52v34q1 30 7 60q0 2 1 7q2 9 2 14q0 8 -3 15q0 1 -1 3q-2 3 -2 6q7 -2 11 -9q9 -9 9 -20q0 -5 -2 -10q-4 -8 -10 -25q-1 -2 -1 -3q-5 -22 -5 -41v-16q0 -3 1 -9v-7q2 -18 6 -25q3 0 3 2q1 4 3 11q6 20 14 51v-3q-3 -22 -7 -43q-3 -20 -4 -40v-5q-1 -12 -7 -13
q-4 1 -8 10t-5 23q-2 17 -2 33zM209 168q-1 -24 -21 -25q-20 2 -21 26q1 25 21 26q20 -2 21 -27zM188 149q16 1 17 19q-1 20 -17 21q-16 -2 -17 -20q1 -18 17 -20zM98 165h-5q-12 0 -22 8v2q6 -2 14 -2q10 0 28 6q3 1 10 3q11 4 17 4h2h2h1q10 -3 11 -8q0 -1 -1 -4
q-2 -1 -4 -1h-4q-6 0 -16 -3q-5 -1 -7 -2h-1q19 -13 10 -30v-8q2 1 7 3q2 2 4 3q1 0 4 2q4 3 7 3q7 -1 8 -7q0 -2 -4 -5q-2 -1 -3 -2q-6 -4 -17 -10q-3 -1 -5 -2l-1 -1v-24q0 -11 2 -33q1 -9 1 -14q20 -5 30 -12q10 -8 10 -15q0 -6 -3 -6q-2 0 -6 2q-2 1 -3 1q-6 3 -12 8
q-7 4 -15 7q1 -5 1 -8v-4q0 -11 -7 -17q-9 -9 -19 -8h-4q-23 1 -31 13q-12 19 11 35q10 6 24 6h4q5 0 10 -1q-2 17 -2 32v35q-16 -8 -30 -8q-13 0 -23 12v2q1 0 4 -1q5 -2 9 -2q18 0 40 11v16q0 17 -8 26q-9 -2 -18 -2zM104 34h-3q-21 -1 -22 -17q0 -13 18 -17q13 -2 19 0
q10 5 10 19v5v7q-10 3 -22 3z" />
    <glyph glyph-name="uni307E" unicode="&#x307e;" 
d="M100 200v2q21 1 26 -17q0 -2 -2 -8q-4 -16 -4 -28v-6q20 4 35 11q8 0 12 -6q3 -7 -4 -9q-9 -4 -43 -9v-37q0 1 2 1h3q22 1 22 15q4 -4 11 -6q6 -2 6 -5q3 -13 -44 -19q0 -24 4 -54q41 -11 50 -29q3 -13 -3 -13q-4 0 -7 3q-13 13 -40 24q-3 -40 -42 -40q-40 1 -43 32
q1 27 49 27q13 0 25 -2q-3 51 -3 48v3q-12 -1 -23 -1q-36 0 -41 21q24 -13 64 -6v37q-15 -2 -29 -2q-35 1 -44 22q16 -11 39 -11q19 0 34 3v37q1 19 -10 22zM71 21q-22 -2 -25 -19q4 -20 34 -21t32 33q-21 7 -41 7z" />
    <glyph glyph-name="uni307F" unicode="&#x307f;" 
d="M111 168v1q-15 -5 -28 -17q-7 -6 -10 -6q-9 0 -19 17q-1 3 -2 4l1 3q2 -1 5 -4q4 -4 6 -4q14 0 51 21q15 -8 17 -22q0 -5 -9 -14l-3 -3q-8 -10 -36 -65h1q36 0 70 -13q8 35 -5 51q28 -7 17 -58q29 -15 32 -33v-1q-1 -4 -4 -4q-2 0 -5 1q-1 1 -5 4q-13 11 -22 17
q-22 -53 -52 -65q24 28 40 72q-34 21 -71 21q-30 -58 -41 -71q-9 -12 -16 -8q-8 6 -10 25q5 51 61 61q35 72 37 90zM22 23q2 -16 6 -18q7 0 15 15q3 4 4 6q4 7 11 22q8 15 12 22q-45 -8 -48 -47z" />
    <glyph glyph-name="uni3080" unicode="&#x3080;" 
d="M10 149q1 0 3 -1q11 -6 15 -6q10 0 28 4q-1 -1 2 0l1 20q0 20 -16 24v2q20 6 31 -15q0 -1 -1 -6q-3 -12 -4 -22q8 3 21 9q9 4 10 4q9 0 13 -5q2 -4 -5 -7q-14 -6 -41 -14q-1 -13 -3 -31q8 -4 8 -19q0 -10 -10 -40q-8 -24 -8 -31q-8 -24 46 -21q66 -3 54 41q-6 57 -7 85
q-1 19 15 18q38 -3 40 -49q0 -10 -6 -10q-2 0 -5 3q-6 5 -14 5h-10q1 1 5 3q9 6 12 12q-1 28 -25 33q-10 -1 -11 -15q8 -68 24 -109q0 -1 1 -2v-1q-1 -30 -71 -30q-59 -2 -55 34q1 10 2 18q-30 17 -28 43q5 30 35 33l1 28q-15 -4 -25 -4q-15 2 -22 19zM51 48l5 45
q-21 6 -28 -20q-1 -20 23 -25z" />
    <glyph glyph-name="uni3081" unicode="&#x3081;" 
d="M100 189v2q27 -3 24 -33q0 -10 -3 -20h4q76 0 76 -79q-5 -74 -78 -84v2q2 2 8 5q57 30 56 81q-2 61 -63 64q-3 0 -5 -1q-11 -40 -38 -82q1 -1 3 -4q4 -6 6 -8q7 -14 -1 -17q-8 -1 -18 12q-1 0 -1 1q-29 -35 -44 -37q-11 0 -15 40q0 39 32 71q-2 7 -4 21q-7 35 -11 42
q13 -2 19 -34q1 -12 4 -22q26 22 58 27q0 2 1 7q2 8 2 13q4 25 -12 33zM46 89q-32 -32 -28 -63v-1q2 -15 9 -15q16 1 36 28q-10 23 -17 51zM54 96q5 -18 20 -43q19 28 32 71q-27 -6 -52 -28z" />
    <glyph glyph-name="uni3082" unicode="&#x3082;" 
d="M130 103l1 1q35 -39 35 -81q-2 -54 -56 -58q-42 0 -42 70q0 13 1 16q-23 14 -24 33q0 8 24 27q7 6 11 9v2q-30 11 -31 37h1q5 -12 27 -21q5 -3 8 -4q3 13 6 22q11 39 -14 47v2q26 4 33 -25q0 -8 -4 -14q-6 -13 -13 -36q6 -4 6 -10q0 -5 -9 -9l-2 -1q-6 -26 -10 -50
q5 -1 15 -2q18 -1 21 -3q4 -6 2 -10q-1 -3 -9 -3q-16 0 -30 6q-3 -11 -3 -20q0 -50 35 -50q44 3 46 50q1 38 -25 75zM79 106q-28 -6 -31 -22q-1 -15 22 -22q1 8 5 27q3 11 4 17z" />
    <glyph glyph-name="uni3083" unicode="&#x3083;" 
d="M26 88v2q18 -11 32 3q7 4 13 10q-2 2 -5 7q-1 2 -2 3q-21 32 13 38q1 0 16 -1q14 -1 15 -1q4 0 6 2q0 6 -5 16q-1 2 -2 3q14 -7 19 -19q4 -16 -6 -18q-2 1 -7 3q-25 13 -36 13q-25 -2 0 -38q1 -1 1 -2q1 -1 1 -2q40 25 71 26q34 -1 35 -29q-1 -32 -30 -33q-15 1 -35 13v1
q18 -6 27 -6q28 1 29 27q-1 21 -25 21q-32 -1 -68 -27q50 -74 52 -93q4 -11 -1 -15q-8 -5 -13 7q-5 34 -45 96q-4 -3 -7 -6q-18 -30 -43 -1z" />
    <glyph glyph-name="uni3084" unicode="&#x3084;" 
d="M123 91v2q17 -11 32 -11q37 2 39 37q-2 25 -35 27q-36 -1 -82 -34q41 -65 67 -121q4 -20 -6 -21q-10 2 -14 22q-25 66 -56 113q-14 -12 -23 -22q-6 -13 -19 -7q-17 9 -22 25l1 -1q9 -8 19 -7q4 1 20 11q11 6 18 10q-1 1 -2 4l-3 3l-5 5q-11 11 -10 25q0 24 25 24
q7 0 22 -2q15 -3 21 -3q12 8 -4 29q17 -7 25 -24q7 -20 -6 -21q-5 0 -22 7q-24 12 -36 12q-13 -1 -14 -16q0 -12 15 -30q1 -2 2 -3q1 -2 2 -3q57 32 89 33q44 -1 46 -41q-3 -40 -40 -42q-20 0 -44 20z" />
    <glyph glyph-name="uni3085" unicode="&#x3085;" 
d="M55 31v-3q0 -7 -4 -7q-11 3 -12 44q0 11 2 30q5 34 -5 46q14 -2 16 -20q0 -3 -2 -12q-5 -22 -5 -39q1 -17 3 -23q9 33 26 55q5 53 28 57q16 0 22 -27q2 1 5 1q44 -3 46 -55q-2 -55 -50 -57q-3 0 -7 1q-7 -20 -26 -33h-2q13 15 20 34q-34 15 -36 72q-18 -27 -19 -64z
M123 29q42 1 43 50q-3 45 -40 48h-1q3 -18 3 -48q0 -32 -7 -50h2zM115 131q-4 24 -15 23q-19 -4 -23 -50q16 21 38 27zM113 31q6 19 6 45q0 30 -3 50q-23 -7 -39 -28q2 -56 36 -67z" />
    <glyph glyph-name="uni3086" unicode="&#x3086;" 
d="M31 43h2q8 44 32 74q5 70 34 72q21 -1 30 -33q4 1 7 1q57 -4 60 -65q-4 -77 -64 -82h-10q-15 -30 -35 -40h-2q14 14 25 43q-44 16 -45 87q0 -1 0 6q-24 -38 -25 -86q0 -11 -3 -10q-19 2 -20 55q0 18 4 46q8 40 -6 56q19 -2 20 -25q0 -6 -3 -24q-5 -29 -5 -45q0 -18 4 -30
zM118 154q-6 31 -21 30q-23 -3 -27 -62q23 26 48 32zM123 92q0 34 -4 58q-29 -8 -50 -37v-12q1 -65 45 -78q9 33 9 69zM129 21q51 4 52 72q-2 55 -49 58h-1q5 -23 5 -56q1 -45 -11 -74h4z" />
    <glyph glyph-name="uni3087" unicode="&#x3087;" 
d="M157 122v-3q-31 -15 -49 -3v-15q0 -12 4 -44q1 -11 2 -16q38 -8 43 -29q0 -7 -3 -7q-6 0 -10 5q-16 12 -29 17v-4q1 -30 -27 -29q-33 2 -34 24q3 23 45 24h6q0 9 -2 32q-2 27 -2 33v43q0 14 -11 20q11 9 24 -11q0 -3 -2 -15q-4 -18 -4 -27h2q12 0 30 10q5 3 6 3q3 0 8 -5
zM85 33q-25 0 -26 -15q3 -15 28 -16q18 1 19 23v6q-10 2 -21 2z" />
    <glyph glyph-name="uni3088" unicode="&#x3088;" 
d="M101 100v78q0 9 -15 16v2q21 8 31 -18q0 -1 -1 -6q-6 -19 -6 -31v-14h1q8 0 29 10q12 6 15 6t9 -4q4 -3 7 -4q-2 -13 -43 -16q-10 0 -18 5v-31q0 -11 4 -51q1 -9 1 -13q48 -10 57 -30q2 -8 0 -12q-4 -7 -14 -1q-21 19 -42 28q1 -7 1 -12q-1 -34 -33 -35q-41 0 -45 27
q3 35 50 37q8 0 15 -1q0 6 -1 21q-2 39 -2 49zM84 21q-37 0 -39 -21q2 -21 32 -22q28 1 29 31v2q-1 4 -1 7q-9 3 -21 3z" />
    <glyph glyph-name="uni3089" unicode="&#x3089;" 
d="M57 120v-37q0 -9 -2 -27q-1 -9 -1 -14q2 0 12 8q33 27 65 27q42 -2 44 -42q-1 -61 -76 -62h-6l1 1q68 18 68 61q-1 34 -30 36q-48 -2 -69 -46q-1 -2 -2 -5q-3 -13 -10 -13q-10 4 -14 19v3q7 18 10 58q3 24 5 36q2 14 24 28q14 9 14 14q0 2 -6 10q-13 18 -12 27h2
q3 -7 16 -17q20 -15 20 -29q-2 -12 -11 -9q-37 5 -42 -27z" />
    <glyph glyph-name="uni308A" unicode="&#x308a;" 
d="M91 -33h-2q48 51 51 147q-3 73 -26 75q-19 0 -31 -57q-10 -35 -7 -59v-4q0 -15 -5 -16q-14 -3 -14 46q0 21 4 55q2 16 2 21q0 11 -6 24q15 -7 16 -24q0 -3 -2 -17q-6 -43 0 -44q22 81 48 80q34 -3 35 -88q-2 -104 -63 -139z" />
    <glyph glyph-name="uni308B" unicode="&#x308b;" 
d="M92 23q-18 -2 -19 -18q3 -20 31 -22q9 0 18 2q-6 36 -30 38zM122 176v2q-19 0 -38 -15q-5 -4 -7 -4q-20 10 -17 28h2q4 -17 43 0q14 7 18 7q7 0 12 -11q2 -7 5 -9q0 -1 1 -4q-1 2 1 -1q0 -6 -8 -10q-3 -1 -4 -2q-8 -4 -54 -75q-5 -8 -6 -10l1 -1q30 25 53 24
q52 -2 54 -50q-3 -70 -70 -72q-37 1 -40 31q3 23 26 25q30 -1 40 -38q29 17 30 51q-1 47 -39 48q-35 -2 -72 -57q-6 -8 -14 -7q-7 3 -5 12q2 7 10 14t13 14q42 64 65 110z" />
    <glyph glyph-name="uni308C" unicode="&#x308c;" 
d="M46 118v2q-4 -2 -13 -11q-10 -9 -12 -8q-14 9 -16 21l2 1q13 -17 40 18q1 0 1 -1q0 9 1 24v10q0 15 -10 21v2q16 6 26 -20q1 -5 -2 -8q-4 -8 -9 -33q9 -7 9 -12q0 -1 -1 -4q1 2 -1 -1q-12 -20 -13 -34q51 73 81 72q18 -1 19 -27q0 -9 -5 -44q-6 -51 -6 -69q-3 -22 18 -20
q33 0 56 21q-16 -33 -55 -35q-32 -3 -30 50q0 24 7 70q4 25 4 32q0 16 -12 16q-32 -1 -77 -82v-18q0 -13 4 -53q1 -10 1 -11q-1 -16 -8 -20l-2 1q-3 17 -17 44v2l8 -8q5 -6 7 -9h1l1 2v3v56q-11 -21 -21 -47q-4 -13 -11 -16q-9 -2 -10 8q0 3 4 11q1 1 1 2q35 71 40 102z" />
    <glyph glyph-name="uni308D" unicode="&#x308d;" 
d="M69 80l1 -1q41 22 64 22q51 -2 53 -51q-2 -75 -104 -77v2q90 20 90 80q0 40 -38 40q-47 -2 -86 -46l-1 -1q-10 -20 -20 -13q-8 9 5 21q12 9 23 23q63 79 63 98q-9 2 -29 -12q-8 -6 -10 -6q-5 0 -11 8q-4 4 -6 7q-2 2 -2 8q-1 3 -1 4h2q8 -23 54 5l1 1q1 2 3 2
q12 -6 17 -23q0 -4 -5 -7l-1 -1q-6 -3 -27 -34q-21 -30 -35 -49z" />
    <glyph glyph-name="uni308E" unicode="&#x308e;" 
d="M78 78v-5q35 37 59 36q37 -3 39 -42q-4 -59 -67 -62q52 18 56 62q-1 33 -32 34q-26 -1 -55 -35v-2v-34q0 -5 1 -14q1 -8 1 -12q-1 -8 -6 -10l-2 1q-3 15 -19 34q-3 -5 -5 -13q-2 -6 -3 -7q-3 -2 -6 -2q-4 3 -4 9q0 3 6 13q3 4 4 6q8 12 22 39q6 11 9 16v2v15
q-11 -5 -17 -14h-1q-1 0 -2 1q-12 7 -11 17q5 -5 10 -5q13 2 23 19q0 7 1 19q4 22 -6 27v2q16 -1 19 -19q0 -3 -4 -11q-6 -13 -6 -21q15 -8 5 -21q-9 -13 -9 -23zM62 56v-2l11 15v10q-5 -12 -11 -23zM70 15h1l2 45q-2 -2 -5 -7q-9 -13 -13 -21q4 -6 15 -17z" />
    <glyph glyph-name="uni308F" unicode="&#x308f;" 
d="M40 16l19 -19l2 2q1 5 2 26q1 20 2 32q-12 -15 -20 -31q-3 -5 -5 -10zM63 196v3q29 -12 20 -34q-4 -4 -7 -28q5 -7 12 -14v-4q-1 -3 -5 -7q-1 -2 -2 -3t-3 -5q-5 -8 -7 -13q0 -4 -1 -11v-9v-2q37 49 72 48q53 -3 56 -54q-5 -76 -88 -80v2q67 22 72 76q-3 45 -40 48
q-35 -1 -72 -46v-41q0 -7 1 -22q1 -13 1 -18q0 -15 -6 -15q-4 0 -6 8v2q-4 15 -20 38q-1 -4 -4 -11q-4 -14 -5 -15q-3 -6 -11 -5q-6 1 -6 9q0 12 10 23q22 29 43 75q0 19 1 23q-11 -3 -23 -16q-18 7 -20 24q1 0 4 -2q7 -6 12 -6q8 -1 25 17l4 4q2 23 2 46q-1 9 -9 15zM50 50
v-2l2 -1q4 3 11 14q-5 -9 2 2q0 4 1 11v8q-2 -4 -6 -13q-7 -15 -10 -19z" />
    <glyph glyph-name="uni3090" unicode="&#x3090;" 
d="M122 21q-13 -1 -14 -18q2 -19 20 -20q17 1 31 18q-16 20 -37 20zM33 45q-6 -10 -6 -22q1 -16 10 -27q6 0 34 69q4 9 6 14q-35 -20 -44 -34zM59 181h2q5 -18 53 8q10 -5 14 -21q0 -6 -6 -14q-7 -7 -10 -12l-6 -15q-2 -6 -11 -25q19 7 36 7q56 -1 58 -58q-6 -70 -51 -78
q-33 1 -35 27q2 29 28 31q17 0 37 -17q9 20 9 41q0 46 -37 46q-23 0 -51 -15q-4 -10 -11 -29q-28 -81 -43 -76q-11 2 -12 33q1 55 60 84q3 7 9 22q13 35 20 50q0 5 -3 5q-10 0 -26 -15q-6 -5 -7 -5q-17 9 -17 26z" />
    <glyph glyph-name="uni3091" unicode="&#x3091;" 
d="M159 -19h-3q2 1 6 4q12 6 12 15q-5 16 -25 18q-14 0 -32 -26q-12 -17 -19 -17q-4 0 -11 11q-13 19 -24 19q-21 0 -36 -27q-1 -1 -1 -2q-7 -3 -12 6q-6 14 12 23q31 20 61 44q-14 6 -15 18q2 22 26 23q21 0 21 -15q0 -10 -8 -18q36 9 38 44q-2 28 -32 29q-24 2 -43 -36
q-9 -18 -15 -15q-10 6 4 21q44 51 53 81q-11 0 -25 -10q-8 -5 -12 -5q-16 4 -21 20q1 0 4 -2q6 -4 11 -4q8 0 35 11q14 6 16 6h2l5 -5q8 -6 8 -11q0 -4 -7 -6q-4 -1 -6 -2q-8 -14 -30 -41q-1 -2 -2 -3q1 0 3 1q17 8 27 8q38 -1 39 -38q-7 -47 -59 -53h-4q-5 -3 -15 -10
q-27 -17 -39 -30q1 0 3 1q7 2 11 2q10 0 22 -9q9 -7 15 -7q8 0 22 13q16 16 29 16q46 -5 51 -45q0 -2 -2 -4q-2 -1 -4 -1q-1 0 -3 2q-1 1 -2 3q-3 5 -7 5q-3 0 -10 -1q-8 -1 -12 -1zM109 76q0 11 -13 11q-16 -2 -18 -18q1 -11 16 -13q14 8 15 20z" />
    <glyph glyph-name="uni3092" unicode="&#x3092;" 
d="M151 117v2q8 7 20 -4q14 -15 11 -26q-2 -1 -4 -1q-1 0 -2 1q-3 1 -5 1q-34 -11 -59 -27v-8q1 -9 1 -14q0 -26 -6 -23q-5 1 -5 17v23q-40 -26 -40 -53q-6 -26 46 -24q19 0 33 4q2 1 3 1q11 -1 12 -11q-1 -9 -13 -9q-4 -1 -21 -1q-71 -1 -67 35q0 36 46 67q-3 29 -19 28
q-22 0 -35 -30q-4 -10 -7 -14q0 -3 -4 -4q-8 7 -5 22q2 4 6 8l2 2q17 15 38 60q-9 -1 -16 -1q-22 1 -31 24l2 1q9 -15 34 -14q9 0 15 1q9 22 9 37q-1 8 -11 12v3q25 -1 27 -17q0 -7 -9 -22q-1 -2 -2 -5l-3 -6q14 3 30 11q5 2 6 2q12 -1 14 -7q0 -9 -55 -18q-12 -24 -24 -46
q12 7 24 7q20 1 24 -27q8 5 23 13q17 10 23 14q7 4 5 12q-3 6 -11 4z" />
    <glyph glyph-name="uni3093" unicode="&#x3093;" 
d="M89 184v3q21 6 27 -22q0 -8 -11 -19q-16 -22 -45 -83v-2q17 13 32 13q19 0 24 -44q4 -39 18 -39q41 15 65 56v-2q-26 -67 -65 -70q-24 -1 -30 55q-4 39 -16 39q-37 -9 -57 -84q-3 -10 -6 -10q-4 0 -10 9q-1 3 -2 4q0 6 10 24l3 6q6 13 24 48q52 97 50 106q0 10 -11 12z
" />
    <glyph glyph-name="uni30A1" unicode="&#x30a1;" 
d="M36 154h2q6 -11 15 -11q1 0 37 6q46 7 58 9q1 0 2 2q2 3 4 2q7 -2 17 -17q7 -10 4 -15h-3q-4 1 -6 0q-6 -2 -22 -10q-20 -11 -30 -14q-10 -70 -49 -115h-2q38 66 38 125q-1 3 -6 6l-3 3v1q13 4 25 -15h1q43 29 35 38q-66 -3 -93 -18q-1 -1 -1 -2q-1 -1 -4 -2
q-17 9 -19 27z" />
    <glyph glyph-name="uni30A2" unicode="&#x30a2;" 
d="M17 188l3 1q3 -14 17 -15q1 0 32 5q76 12 94 14l1 1q0 1 3 3h1q36 -32 22 -43h-5q-4 0 -6 -1t-11 -5q-33 -17 -49 -21q-26 -127 -71 -154q48 76 53 158q-1 16 -12 20q17 8 31 -20q0 -1 -1 -3q49 34 49 52q-68 0 -119 -22l-1 -2q-4 -5 -9 -5q-18 5 -22 37z" />
    <glyph glyph-name="uni30A3" unicode="&#x30a3;" 
d="M128 88v-47q0 -6 1 -26q1 -8 1 -9q0 -14 -5 -15q-7 2 -8 21q2 11 2 21v55q0 7 -2 15q-29 -36 -61 -50h-1q62 56 86 111q1 4 -4 10v1q14 -3 20 -25q0 -2 -3 -2q-4 -1 -6 -2q-3 -4 -9 -13q-12 -18 -20 -28q9 -7 9 -17z" />
    <glyph glyph-name="uni30A4" unicode="&#x30a4;" 
d="M37 45v2q91 80 115 145q0 5 -6 13l-2 2l2 3q20 -10 29 -33q0 -1 -3 -2q-6 -2 -7 -4q-1 -1 -2 -4q-21 -34 -37 -51q10 -5 11 -21v-47q0 -15 2 -56v-10q0 -14 -7 -15q-10 4 -11 28q0 3 1 9q3 15 3 32v61q0 9 -2 15q-32 -38 -86 -67z" />
    <glyph glyph-name="uni30A5" unicode="&#x30a5;" 
d="M90 157v2q10 9 22 -11q0 -2 -1 -4q-3 -4 -3 -15v-4q7 0 20 1h15q2 0 7 2q4 2 5 2q0 2 2 0q11 -9 12 -18l-8 -6q-23 -81 -71 -112h-2q52 56 62 124q-11 1 -56 -2q-25 -2 -31 -2h-4v-7q0 -8 1 -31q1 -8 1 -9q0 -9 -4 -9q-6 2 -8 13l1 11q2 17 2 18q0 22 -9 27q3 3 10 -2
q6 -4 9 -4q8 1 29 2q-4 0 8 1v16q0 15 -9 17z" />
    <glyph glyph-name="uni30A6" unicode="&#x30a6;" 
d="M164 141v2q-14 0 -62 -4q-39 -4 -52 -4q0 -7 1 -34q1 -17 1 -20q0 -14 -5 -15q-8 -1 -10 19q9 65 -14 69q5 7 18 -3q5 -4 7 -5q3 0 25 2q17 1 27 2v16q-1 20 -14 28v1q15 10 31 -13q0 -1 -2 -4q-5 -8 -5 -22v-5q16 2 46 4h8q7 4 8 4q12 -4 16 -22q0 -2 -5 -7q-3 -2 -4 -3
q-40 -124 -98 -146q61 54 83 160z" />
    <glyph glyph-name="uni30A7" unicode="&#x30a7;" 
d="M56 123l1 2q10 -6 17 -6q18 0 61 9l1 1q4 2 6 1q18 -6 12 -15q-3 -1 -8 0q-6 2 -11 2q-4 0 -15 -2q-12 -2 -18 -2q15 -9 14 -22q-2 -4 -4 -14v-2q-1 -3 -2 -10q-2 -15 -4 -22q2 0 7 1q10 1 19 1h27q1 0 3 1q3 2 4 1q18 -14 9 -21q-1 0 -5 1q-28 8 -54 8q-21 0 -53 -9
q-10 -3 -12 -3q-15 4 -18 22q8 -8 15 -8q1 0 13 1q25 3 38 4q3 22 3 42q0 18 -9 27q-12 -2 -21 -2t-16 14z" />
    <glyph glyph-name="uni30A8" unicode="&#x30a8;" 
d="M12 53q7 -14 23 -14q2 0 21 2q25 3 40 4q5 29 5 56q0 26 -13 32q-14 -3 -23 -3q-19 4 -25 24q11 -8 23 -8q56 2 79 11q3 2 6 2q9 0 16 -8q7 -11 1 -13h-2q-14 3 -23 3q-7 0 -36 -5q-7 -1 -10 -2q27 -11 24 -25q0 -2 -1 -5q-1 -4 -2 -6q-2 -9 -9 -51q20 2 63 4h5l2 1
q2 2 3 1q9 -4 16 -11q8 -8 4 -15q-4 -2 -20 2q-30 8 -56 8q-37 0 -76 -13q-10 -3 -12 -3q-21 9 -23 32z" />
    <glyph glyph-name="uni30A9" unicode="&#x30a9;" 
d="M44 29h-3q45 44 63 88q-31 -5 -46 -14q-12 4 -17 22q10 -8 17 -8q2 0 13 2q26 4 41 5v16q0 18 -10 22v3q18 -2 22 -15q0 -2 -2 -5q-3 -4 -3 -7v-13q16 2 25 3l2 1q7 4 9 4q10 -2 16 -13q3 -7 -8 -5q-1 0 -4 1q-12 3 -23 3q-3 1 -11 0h-6v-58q0 -13 3 -45v-7q0 -10 -7 -10
q-3 0 -5 6q-1 2 -2 3q-5 6 -16 13q-3 2 -4 3v2l20 -5q4 -1 4 3v83q-22 -44 -68 -78z" />
    <glyph glyph-name="uni30AA" unicode="&#x30aa;" 
d="M22 144l3 2q7 -13 16 -13q4 0 50 6q19 2 29 3v26q0 18 -17 27q-1 3 2 4q24 -7 31 -19q0 -7 -4 -15v-22q4 0 12 1q8 0 12 1q6 -1 12 6q33 -8 19 -23q-17 5 -46 5h-9v-135q0 -17 -7 -17q-2 0 -4 5l-3 6q-6 7 -22 18q-4 3 -7 5q30 -12 31 -4v9v93q-42 -75 -101 -98
q59 42 90 116q-36 -1 -58 -12q-5 -2 -7 -2q-16 5 -22 27z" />
    <glyph glyph-name="uni30AB" unicode="&#x30ab;" 
d="M43 137l2 1q5 -12 15 -12t32 3q8 1 12 2q6 13 9 28q4 9 4 19v2l-1 2q-3 5 -13 9q1 3 4 3q8 0 15 -4q17 -10 12 -19q0 -1 -1 -2q-1 -2 -2 -3l-6 -15q-1 -4 -1 -5q0 -2 -2 -7q-1 -4 -2 -7q12 2 24 3h4q14 1 21 6q1 0 1 1q2 1 4 1q3 0 6 -5q12 -12 8 -18q-1 -2 -4 -5t-3 -4
q-1 -5 -2 -14t-2 -14q-1 -4 -4 -13q-2 -11 -4 -16q-7 -28 -21 -54q0 -1 -1 -2q-9 -23 -20 -23q-3 1 -3 5q0 2 -1 6q1 -2 -1 2q-1 2 -4 7q-3 4 -5 7q-1 3 -5 8q-4 7 -6 11q6 -6 13 -10l2 -2q9 -7 15 -7q1 0 4 3q6 6 8 15q7 16 17 50q1 3 1 4t1 4q8 29 8 45q-1 2 -3 3
q-8 0 -23 -2q-7 -1 -11 -1q-3 -1 -10 -1q-6 -1 -9 -1q-23 -63 -53 -94q-11 -14 -37 -33h-2q44 46 74 120q2 2 3 6q-16 -4 -30 -11q-4 -3 -8 -3q-3 0 -7 5l-2 2q0 1 -1 2q-10 12 -9 22z" />
    <glyph glyph-name="uni30AC" unicode="&#x30ac;" 
d="M157 167q39 -15 29 -33q-5 -5 -18 17q-7 12 -11 16zM175 181q30 -2 34 -23q-1 -8 -8 -7q-6 2 -11 12q-6 9 -15 18zM4 -6h-1q36 36 76 124q-29 -5 -30 -8q-1 0 -1 -1q-4 -3 -8 -3q-16 8 -20 29q10 -10 19 -10q14 1 44 5q10 25 14 43q-1 10 -14 16q2 2 3 2q25 -5 28 -19
q0 -3 -3 -7q-3 -6 -5 -12q-3 -10 -7 -22q29 3 43 5q1 0 4 2q3 3 5 3q13 -7 17 -21q0 -7 -8 -12q-27 -132 -53 -133q-5 1 -5 12q-4 12 -21 31q31 -24 37 -12q26 55 32 118l-1 1h-2q-20 0 -53 -5q-39 -98 -90 -126z" />
    <glyph glyph-name="uni30AD" unicode="&#x30ad;" 
d="M148 167h4q9 -1 10 -7q0 -4 -7 -7h-1q-4 -2 -12 -4q-3 -1 -5 -2q-4 -1 -11 -4q-14 -4 -22 -8q1 -2 2 -6q1 -5 1 -7q2 -5 5 -17q3 -11 4 -17q5 2 13 5q9 3 13 4q9 3 16 7q2 1 4 3q5 4 9 4h6q8 0 10 -3q6 -7 3 -12q-2 -3 -8 -3h-4q-12 0 -30 -6q-12 -4 -25 -9l-2 -1
q-1 0 -2 -1q2 -8 6 -23q7 -27 12 -41q1 -2 2 -5q3 -5 6 -15q3 -13 -3 -18q-3 -4 -10 2q-4 4 -6 15l-6 27q-7 35 -12 54q-19 -6 -37 -14q-1 0 -3 -1q-3 -2 -10 -6q-1 -1 -3 -2q-4 -4 -7 -4q-2 0 -4 1q-10 4 -15 10q-1 2 -4 5q-6 4 -5 9l2 1q16 -14 52 1q5 2 7 3q12 5 24 9
q-1 7 -5 22q-4 16 -6 25q-1 0 -3 -1q-10 -5 -21 -8q-2 -1 -6 -2q-11 -4 -17 -4q-2 0 -5 2q-7 5 -15 12v3q9 -3 18 -4h3q10 0 24 6q4 1 11 4q6 2 8 3q-1 5 -3 13q-2 9 -3 13q0 1 -1 3q-3 17 -9 22q-2 2 -8 6l-6 3q1 0 2 1q2 2 3 2q13 0 25 -6q6 -3 6 -6q0 -2 -1 -6
q-2 -3 -2 -6q0 -7 3 -19q2 -4 2 -6t1 -5q0 -3 1 -5q17 6 32 15q2 1 5 2q7 4 10 4z" />
    <glyph glyph-name="uni30AE" unicode="&#x30ae;" 
d="M152 189q13 -1 22 -12t6 -19q-6 -9 -13 1q-2 3 -5 10q-6 14 -10 20zM168 202q26 -2 33 -17q3 -11 -3 -15q-6 -2 -11 8q-9 14 -19 24zM11 68l2 1q1 -1 3 -2q10 -7 17 -7q12 1 62 21q-2 10 -6 29q-4 14 -5 20q-8 -3 -23 -8q-12 -5 -14 -6q-1 0 -1 -1q-1 -1 -4 -1
q-20 3 -26 18l1 1q12 -6 18 -6q10 0 45 13l-3 15q-1 5 -1 7q-4 31 -25 37l5 3q27 -3 31 -14q0 -1 -1 -4q-2 -10 0 -18q0 -5 5 -22q1 0 2 1q29 12 32 16l2 2q6 4 9 4q15 -1 16 -5q0 -7 -7 -10q-13 -6 -52 -19q2 -7 7 -27l6 -21q11 5 30 13q13 6 14 7t3 2q6 4 10 4q16 0 18 -9
q1 -10 -14 -11q-10 3 -57 -16q1 -5 4 -14q12 -47 16 -55q14 -32 0 -36q-10 2 -13 23q-4 24 -19 77q-50 -21 -57 -28q-28 9 -30 26z" />
    <glyph glyph-name="uni30AF" unicode="&#x30af;" 
d="M130 151h-5q-5 1 -8 7q-1 -2 -3 -5q-1 -1 -1 -2q-2 -3 -6 -8q-5 -6 -7 -9q-26 -29 -53 -45q-1 0 -2 -1q-4 -2 -8 -3q29 26 58 71q11 13 11 24q0 3 -4 8q-1 3 -2 4q0 2 2 2q4 0 14 -7l1 -1q7 -7 7 -13q0 -4 -2 -7l-1 -1v-1q-1 -1 -1 -2l1 -1q5 -2 16 0q11 0 19 5q1 0 2 2
q5 4 6 2l1 -1q8 -6 12 -11q1 -1 2 -3q3 -5 3 -8q0 -4 -5 -8l-2 -2q-3 -1 -6 -7q-1 -3 -2 -5t-3 -8l-6 -12q-20 -40 -47 -73q-28 -36 -69 -57l-1 -1q-7 -5 -11 -4q76 56 123 163q0 1 1 3q5 11 6 18q-3 0 -10 -1q-13 -2 -20 -2z" />
    <glyph glyph-name="uni30B0" unicode="&#x30b0;" 
d="M150 186q24 -3 31 -20q3 -10 -2 -15q-5 -3 -10 6q-7 15 -19 29zM173 199q29 -4 29 -26q0 -7 -6 -6q-4 1 -8 10q-6 13 -15 22zM97 163v-1q15 -6 33 0q2 1 5 3q4 2 5 2q14 -5 19 -23q0 -3 -7 -8l-2 -1q-1 -2 -8 -15q-58 -123 -130 -150h-3q95 75 128 181h-35q-4 3 -8 7
q-35 -61 -78 -73q49 43 67 93q0 5 -5 12q-1 0 -1 1q20 -2 26 -19q0 -4 -4 -7z" />
    <glyph glyph-name="uni30B1" unicode="&#x30b1;" 
d="M82 127h3q9 0 27 4q9 1 13 2q1 0 4 1q22 3 32 9q1 0 2 1q2 2 4 2q4 0 12 -3q1 -1 2 -1q6 -3 10 -6q1 -1 0 -6v-2q-4 -2 -12 -1q-5 1 -7 1h-3q-13 0 -38 -5q1 0 -3 -1q1 -1 3 -4t3 -4q3 -4 6 -10v-1q1 -4 0 -5q-4 -5 -8 -17q-1 -4 -2 -6q-24 -55 -62 -84q-1 0 -2 -1
q-6 -5 -9 -4q35 35 58 91q10 20 10 33q0 6 -4 11q-15 -3 -31 -4h-3q-9 1 -16 7l-2 2l-3 -3l-6 -6q-2 -3 -11 -11q-13 -12 -28 -19h-2q44 40 55 84q0 1 1 3v2q0 8 -7 13q4 2 9 -1q12 -8 17 -22q0 -4 -5 -7q-3 -2 -4 -3q-4 -10 -8 -18q-3 -5 -6 -8q5 -3 11 -3z" />
    <glyph glyph-name="uni30B2" unicode="&#x30b2;" 
d="M162 175q24 -4 28 -16q3 -11 -3 -13q-5 -1 -11 9q-6 11 -14 20zM179 191q29 -1 30 -19q0 -8 -5 -7q-4 1 -9 10q-4 6 -16 16zM43 -14h-2q53 59 67 125q0 6 -4 11q-20 -5 -33 -5q-14 0 -22 9q-22 -29 -47 -39q30 31 46 63q14 28 4 40q4 3 7 -1q22 -19 13 -29q-2 -1 -8 -11
q-7 -12 -12 -19q6 -3 15 -4q50 6 73 16q1 0 2 1q5 3 10 3q26 -5 19 -18q-11 3 -50 -4q-9 -1 -14 -2q15 -13 15 -26q-3 -6 -5 -11q-29 -72 -74 -99z" />
    <glyph glyph-name="uni30B3" unicode="&#x30b3;" 
d="M128 26h-4q-6 0 -18 -2q-6 -1 -9 -1q-15 -2 -30 -8l-1 -1q-2 -1 -5 -1q-9 1 -16 12q-8 8 -7 16l2 1q6 -8 16 -11h4q12 1 37 4l36 3h3q2 1 4 1q3 12 6 36l3 18q6 22 6 34q0 5 -7 6h-7q-13 0 -33 -4q-4 0 -12 -2q-8 -1 -12 -2q-1 0 -3 -1q-8 -1 -10 -3q-1 0 -3 -2
q-3 -2 -5 -2q-4 0 -9 5q-2 1 -3 2q0 1 -2 2q-8 10 -7 17q2 -1 6 -4l1 -2q5 -3 10 -3h3q8 0 24 4q5 1 7 1h2q12 1 26 4q4 1 11 1q9 1 14 3q1 0 2 2q3 2 5 2t8 -6l1 -1q6 -6 11 -14q2 -3 2 -6q-9 -3 -10 -20q-3 -14 -6 -26l-6 -24l-3 -15q9 -3 9 -8q-1 -9 -9 -8q-2 0 -7 1
q-9 2 -15 2z" />
    <glyph glyph-name="uni30B4" unicode="&#x30b4;" 
d="M151 170q26 -5 28 -26q0 -6 -4 -6t-8 5l-3 6q-8 15 -13 21zM166 189q30 -2 32 -19q-1 -7 -5 -8q-3 0 -11 10q-9 13 -16 17zM16 143h1q6 -9 17 -9q64 6 92 13q2 1 3 2q2 2 3 2q16 -9 20 -25q0 -2 -5 -5l-1 -1q-4 -10 -16 -78q-1 -5 -1 -7q6 -1 8 -5q1 -6 -3 -8
q-5 -1 -18 1h-3q-28 0 -68 -11q-6 -2 -7 -2q-16 4 -24 25q0 3 2 4q6 -11 18 -12q2 0 45 5q31 3 39 4q13 63 13 92q0 5 -4 5q-11 0 -68 -9q-12 -2 -13 -2t-2 -2q-5 -3 -7 -3q-17 3 -21 26z" />
    <glyph glyph-name="uni30B5" unicode="&#x30b5;" 
d="M135 125v2h-4q-14 0 -41 -4q-8 -1 -12 -1v-7q0 -7 1 -22v-23v-12q0 -8 -6 -8q-2 0 -4 4v1q-1 3 -2 9q-1 3 -1 4q-1 9 0 18v34q-1 0 -4 -1q-2 0 -4 -1q-7 -1 -15 -4q-1 0 -3 -2q-6 -3 -9 -3q-8 0 -17 11l-1 1q-6 5 -6 10v4q2 0 5 -2q2 -2 3 -2q5 -3 10 -3h5q5 0 16 2
q5 1 8 1q2 0 6 1h6v26q0 14 -14 26q2 2 3 2q7 0 13 -4q11 -7 11 -16v-7q-1 -5 -1 -8v-18q3 1 8 1q5 1 7 1q9 1 28 2q9 1 14 1v22q0 25 -14 35v2q7 6 18 -4q1 0 2 -1q12 -9 12 -17q0 -3 -1 -8q0 1 -1 -1q0 -1 -1 -2t-1 -2v-24h16q11 0 20 5q6 0 11 -4q9 -6 9 -11q-1 -8 -6 -9
q-3 0 -9 2q-3 1 -5 1q-18 3 -36 5v-1q0 -73 -27 -116q-10 -16 -23 -28l-3 -3q-5 -4 -8 -4q46 53 47 150z" />
    <glyph glyph-name="uni30B6" unicode="&#x30b6;" 
d="M159 186q29 -6 32 -24q-1 -9 -7 -8q-6 2 -12 14q-3 5 -11 16zM182 199q28 -4 29 -22q0 -7 -6 -7q-5 1 -9 9q-2 3 -5 8q-6 9 -9 12zM0 131v4q12 -10 19 -10q2 0 14 2q15 3 25 4v26q-1 16 -13 22v2q19 3 26 -16q0 -5 -1 -8v-25q26 3 57 5v27q0 16 -11 30q-2 2 -2 3
q8 5 21 -8l2 -2q12 -9 9 -18q0 -1 -2 -3q-3 -5 -3 -12v-16h26q2 0 5 2q3 1 5 1q11 -1 19 -11q6 -10 -5 -10q-5 0 -18 1q-18 2 -32 3q-6 -117 -60 -149q44 53 46 150h-5q-31 0 -52 -4v-21q0 -7 1 -27v-9q0 -14 -6 -14q-7 3 -8 24v8q1 6 1 9v28q-8 -2 -21 -6t-15 -4
q-19 8 -22 22z" />
    <glyph glyph-name="uni30B7" unicode="&#x30b7;" 
d="M38 186v2q5 -1 16 -6q3 -1 5 -2q7 -3 14 -7q9 -4 11 -9q1 -3 1 -6q0 -6 -3 -8q-6 -4 -17 6q-15 14 -27 30zM20 119q11 -7 31 -10h2q18 -4 18 -16q0 -8 -6 -8q-6 1 -11 4q-8 3 -14 8q-8 3 -15 14l-1 1q-5 4 -4 7zM31 23l2 1q11 -18 21 -13t19 13q21 15 42 32q42 34 78 79
v-3q-7 -14 -15 -25q-19 -31 -45 -57q-14 -16 -46 -42q-5 -4 -7 -6q-8 -5 -13 -13q-4 -9 -10 -5q-7 5 -12 11q-14 14 -14 28z" />
    <glyph glyph-name="uni30B8" unicode="&#x30b8;" 
d="M37 189h2q8 -5 28 -13q8 -4 11 -5q15 -13 1 -22q-12 1 -42 40zM19 119q7 -5 25 -8t22 -9q8 -15 -6 -17q-28 13 -41 34zM31 26h2q8 -14 17 -14q72 35 142 123v-3q-40 -83 -125 -139q-2 -1 -4 -5q-2 -5 -4 -5q-27 18 -28 43zM129 159q31 -1 34 -23q-1 -6 -6 -6q-4 0 -9 7
q-9 12 -19 22zM152 175q31 0 31 -19q-3 -12 -15 2q-7 9 -16 17z" />
    <glyph glyph-name="uni30B9" unicode="&#x30b9;" 
d="M138 159l-2 1l-30 -6q-18 -4 -27 -12q-1 -3 -4 -4q-9 0 -16 9q-9 9 -8 20q2 0 5 -4l3 -3q5 -3 9 -3q8 0 23 4q4 1 6 1q18 3 35 8q5 2 8 5l1 1q3 2 6 2q2 0 6 -5l2 -2q9 -7 9 -14q-1 -8 -11 -14q-3 -1 -9 -11l-2 -4q-6 -12 -14 -25q-8 -12 -17 -25q7 -2 18 -9q4 -2 11 -6
q7 -5 10 -7q1 -1 3 -2q23 -14 32 -27l1 -1q4 -6 5 -10q3 -10 -2 -16q-2 -2 -8 0q-6 3 -10 9q-3 4 -9 11q-15 20 -24 30q-13 14 -29 25l-2 -2q-2 -4 -6 -8q-26 -32 -59 -50q-1 0 -2 -1q-13 -8 -21 -9q32 20 64 59q27 33 48 74q0 1 1 2q6 11 6 19z" />
    <glyph glyph-name="uni30BA" unicode="&#x30ba;" 
d="M173 199q34 -6 31 -26q-2 -7 -5 -5q-4 1 -8 10q-9 15 -18 21zM9 -1h-2q80 60 119 155q-48 -9 -57 -13q-3 -2 -7 -6q-2 -3 -3 -3q-19 6 -23 29l2 1q7 -9 17 -10q23 2 63 13q8 2 13 8q13 -3 19 -19q-1 -10 -8 -13q-6 -1 -10 -11q-1 -3 -2 -4q-10 -22 -32 -53q62 -27 80 -62
q3 -15 -6 -18q-8 0 -17 16q-26 39 -59 62q-39 -52 -87 -72zM155 186q27 -13 27 -30q0 -7 -5 -7q-6 0 -8 7q0 1 -1 4q-7 18 -13 26z" />
    <glyph glyph-name="uni30BB" unicode="&#x30bb;" 
d="M31 90h5q6 0 19 5q5 2 8 3q12 5 24 9v45q0 13 -5 21q-2 3 -8 8l-3 3l1 1q4 2 6 1q6 -1 12 -6q1 -1 3 -2q9 -6 11 -10q1 -2 0 -9v-4q-1 -3 -3 -8q-2 -3 -2 -5q-1 -8 -1 -16v-14l21 6q21 7 32 10q1 0 2 1q4 0 12 3q1 0 2 1q4 3 5 2q1 0 2 -1q7 -4 11 -9q9 -9 9 -15
q0 -7 -7 -7h-3q-10 -3 -22 -14l-24 -18h-3q14 14 24 29q10 12 10 22h-3q-6 0 -19 -4q-3 -1 -4 -1q-4 -1 -11 -4q-9 -2 -13 -4q-3 -1 -10 -4q-7 -2 -11 -4v-55q0 -21 8 -29q10 -10 28 -10h6q12 0 24 3q2 0 5 1q7 2 10 2h4q11 0 11 -6q0 -9 -15 -12h-1q-7 -1 -13 -1h-28
q-28 1 -40 19q-10 13 -9 46q-1 18 -1 38q-1 -1 -4 -1q-1 -1 -4 -2q-23 -8 -32 -18q-1 -1 -1 -2q-3 -3 -7 -3q-6 0 -14 10q-9 7 -8 14q2 0 6 -3q1 -1 2 -1q2 -1 6 -1z" />
    <glyph glyph-name="uni30BC" unicode="&#x30bc;" 
d="M158 165q35 -8 36 -29q0 -6 -5 -6q-4 0 -9 6q-8 14 -22 29zM177 183q31 -5 35 -23q0 -7 -4 -9q-4 -1 -7 4q-1 1 -2 3q-13 19 -22 25zM-1 94l2 1q7 -7 12 -7q4 0 32 9q16 6 26 9q-2 64 -2 51q0 15 -13 24q18 5 31 -19q0 -5 -3 -12q-3 -5 -3 -9q-1 -7 -1 -15v-16q6 2 20 6
q30 10 47 14q1 0 2 1q3 2 4 2q4 0 11 -6l3 -3l2 -1q8 -8 8 -14t-8 -7q-5 0 -7 -2q-2 -1 -12 -9q-26 -19 -32 -22h-2q26 25 36 52q-3 1 -5 1q-24 -7 -58 -19l-9 -3v-48q-2 -47 39 -45q14 0 35 4q9 2 11 2q14 -1 11 -12q-5 -7 -29 -7h-33q-42 1 -43 63v19v21q-30 -12 -44 -23
q-3 -3 -5 -3q-16 4 -23 23z" />
    <glyph glyph-name="uni30BD" unicode="&#x30bd;" 
d="M33 167q11 -5 21 -14q23 -21 22 -41q0 -9 -7 -9q-6 0 -9 5q0 2 -2 7q-1 4 -2 6q-7 26 -23 46zM149 181q7 0 15 -11q6 -6 11 -14q4 -4 4 -9q0 -3 -4 -5h-1l-2 -2q-5 -2 -6 -4q-4 -6 -8 -17q-40 -90 -85 -120q-9 -8 -20 -10q31 24 56 67q27 46 42 86q6 13 4 23q-2 4 -8 12
l-2 2q1 0 2 1t2 1z" />
    <glyph glyph-name="uni30BE" unicode="&#x30be;" 
d="M8 167q42 -22 45 -56q-1 -11 -10 -10q-7 3 -9 15q-10 28 -26 51zM125 181q6 7 22 -14q0 -1 1 -1q8 -9 8 -17q0 -4 -6 -10l-2 -1q-5 -4 -9 -16q-1 -1 -1 -2q-49 -113 -107 -134q65 61 102 169q3 15 -8 26zM154 189q26 -5 29 -27q0 -7 -5 -8q-4 -1 -7 6q-2 4 -6 11
q-6 12 -11 18zM170 202q31 -2 33 -26q0 -6 -5 -6q-4 0 -7 7q-11 18 -21 25z" />
    <glyph glyph-name="uni30BF" unicode="&#x30bf;" 
d="M33 -30h-2q37 27 66 70q11 15 21 31q-1 1 -3 4t-3 4q-12 18 -33 35q-13 -14 -28 -23l-2 -2q-6 -5 -10 -4q19 17 34 38q25 32 33 57q2 2 -1 6q-3 6 -7 11q2 2 3 2q3 0 9 -4q3 -1 4 -2t3 -2q8 -5 8 -10q0 -6 -4 -10q-1 -1 -1 -2q1 0 2 -1q2 -1 6 -1q2 0 5 1h4q13 1 19 7
q1 0 2 1q3 3 4 2q1 0 2 -1q5 -3 7 -6q9 -9 9 -16q0 -5 -6 -10l-2 -2q-3 -3 -5 -9q-2 -3 -3 -5q-40 -88 -92 -134q-18 -15 -39 -25zM160 162h-10q-5 0 -16 -2q-5 -1 -8 -1t-9 6q-1 -2 -4 -7q-3 -4 -5 -7q-12 -19 -27 -35q9 -2 16 -5q14 -8 22 -16q5 -4 7 -9q16 27 28 55
q1 2 2 5q4 10 4 16z" />
    <glyph glyph-name="uni30C0" unicode="&#x30c0;" 
d="M149 186q28 -6 31 -28q0 -8 -6 -8q-5 1 -8 10q-1 1 -2 4q-9 16 -15 22zM170 199q31 -1 33 -26q-1 -6 -6 -6q-4 1 -7 9t-20 23zM10 -30h-2q38 28 83 100q-17 25 -37 43q-22 -22 -42 -28q56 49 68 95q0 5 -6 16l-1 1q5 7 25 -13q5 -5 -1 -12q-2 -1 -3 -2q-1 -2 -2 -2
q19 -1 35 4q3 1 6 4q2 1 3 2h2q16 -10 18 -26q0 -4 -3 -5q-8 -1 -11 -13q-58 -126 -132 -164zM98 90q2 -1 2 -4q28 49 33 76q-2 0 -6 -1q-20 -2 -25 -2q-7 0 -12 5q-3 -4 -4 -8q-11 -19 -30 -41q25 -7 42 -25z" />
    <glyph glyph-name="uni30C1" unicode="&#x30c1;" 
d="M121 130v-7v-6q14 3 26 2h6q9 0 16 3h4q16 0 21 -9q3 -6 -1 -11q-4 -2 -12 0q-18 4 -35 4h-10q-7 0 -16 -1q0 -10 -2 -21q-1 -8 -4 -22q-1 -6 -2 -9q-8 -33 -24 -56q-11 -15 -30 -27h-1q39 39 48 124q1 4 1 10q-2 0 -5 -1q-7 -2 -10 -2q-27 -3 -42 -14l-2 -2q-4 -3 -7 -3
q-6 0 -10 5q-14 11 -14 22q2 0 4 -2q2 -3 3 -3q8 -6 24 -1q5 1 15 4q9 2 14 3q1 0 4 1q12 2 28 4v16q0 5 -1 9q-3 10 -11 16q-26 -12 -62 -15q53 19 87 50q3 2 3 4q0 3 -4 7l-3 3q0 2 3 2t9 -3q2 -1 3 -2q2 -1 6 -4q4 -2 6 -4q4 -3 4 -8q0 -8 -6 -8q-1 0 -4 -1q-3 0 -5 -1
t-7 -4q-4 -3 -7 -5q-9 -6 -18 -9q4 -1 8 -4q1 -1 3 -2q9 -7 11 -11q2 -5 -2 -11z" />
    <glyph glyph-name="uni30C2" unicode="&#x30c2;" 
d="M156 170q26 -6 30 -24q0 -8 -7 -8q-6 1 -9 10q-5 11 -14 22zM174 186q28 -4 32 -24q0 -8 -6 -8q-4 1 -10 10q-6 11 -16 22zM49 -33h-2q41 41 50 134q-32 -3 -60 -16q-7 -3 -9 -3q-20 8 -22 26l2 1q8 -9 18 -10q3 0 22 4q32 7 50 10q0 4 1 11v10q0 8 -10 20
q-26 -12 -64 -16q81 34 89 54q0 4 -5 8l-2 2q1 2 3 3q11 -3 23 -14q9 -9 5 -14q-1 -3 -5 -3h-3q-2 1 -15 -7q-14 -8 -23 -12q21 -12 22 -22q0 -1 -1 -4q-2 -4 -2 -6v-9q4 0 10 1h7q19 0 27 2q1 0 3 1t3 1q16 -2 22 -9q7 -10 -4 -12q-3 0 -11 1q-22 4 -42 4h-16
q-8 -100 -61 -136z" />
    <glyph glyph-name="uni30C3" unicode="&#x30c3;" 
d="M42 130q21 -8 23 -33q0 -10 -5 -10q-5 1 -6 11q-5 22 -12 32zM85 143q17 -7 23 -25q3 -12 -3 -17q-6 -3 -10 9q-1 12 -10 33zM148 143q17 -6 22 -23q0 -5 -5 -6l-3 -1q-3 0 -3 -1q-36 -87 -81 -110q54 55 73 130q0 3 -4 6q-1 2 -2 3q2 2 3 2z" />
    <glyph glyph-name="uni30C4" unicode="&#x30c4;" 
d="M24 133q26 -19 29 -44q0 -14 -7 -15q-8 1 -9 15q-2 19 -13 44zM78 151h1q30 -20 30 -46q0 -8 -6 -10q-7 -1 -9 7v2q-8 31 -16 47zM68 -33h-1q72 81 96 159q3 14 -9 23v2q33 -12 33 -31q-1 0 -3 -2q-3 -1 -4 -2l-1 -1q-2 -1 -3 -2q-39 -103 -108 -146z" />
    <glyph glyph-name="uni30C5" unicode="&#x30c5;" 
d="M5 151h2q26 -21 26 -44v-5q0 -7 -2 -8q-3 -3 -7 0t-6 14v1q-4 21 -13 42zM60 167q6 -1 14 -9q5 -6 9 -12q10 -18 6 -32q-2 -4 -8 -2q-3 2 -6 9q-1 2 -1 3q-1 9 -3 18q-1 4 -5 13zM48 -14h-1q38 33 65 80q9 15 14 30q8 16 15 39q4 14 2 21q-3 6 -9 9q6 5 19 -4l1 -1
q12 -12 12 -20q-1 -3 -5 -5q-3 -1 -4 -3q-1 -3 -4 -10q-2 -7 -4 -11q-23 -66 -65 -101q-16 -14 -36 -24zM155 181q30 -8 32 -30q-5 -13 -18 11q-1 2 -3 5q-4 5 -11 14zM175 194q28 -4 32 -24q0 -7 -5 -8q-5 0 -9 6l-3 6q-8 14 -15 20z" />
    <glyph glyph-name="uni30C6" unicode="&#x30c6;" 
d="M76 181h3q8 0 25 4q4 1 5 1q14 2 27 6q3 2 5 2q5 0 9 -1q12 -3 13 -8q0 -7 -11 -7h-1h-7q-18 0 -51 -8q-1 0 -2 -1q-11 -4 -17 -1q-7 3 -15 11q0 1 -2 2q-5 6 -4 10q2 0 5 -3q1 -2 2 -2q8 -5 16 -5zM125 93l-5 -7q-1 -7 -3 -13q-8 -27 -20 -52q-15 -30 -31 -42
q-7 -7 -10 -6q16 14 33 60q13 30 19 63q2 8 0 12q-3 6 -6 9h-2q-3 -1 -10 -2q-30 -3 -44 -12q-2 -2 -5 -2q-5 0 -11 8q-12 11 -11 21q2 -1 5 -5q3 -3 5 -4q5 -3 10 -3q6 0 17 2q6 2 9 2q39 6 75 9q2 0 7 1q11 0 17 3q1 0 3 2q3 1 4 1q4 0 11 -3q3 -1 4 -2l2 -2q4 -3 4 -5
q0 -9 -6 -9q-2 0 -5 1q-4 1 -6 1q-12 3 -26 3h-3q-19 0 -39 -4q4 -3 8 -7q1 -1 3 -4q5 -4 6 -8q2 -4 1 -6z" />
    <glyph glyph-name="uni30C7" unicode="&#x30c7;" 
d="M36 191q9 -9 22 -10q46 3 68 13q12 -1 18 -9q0 -8 -12 -7q-16 0 -55 -8q-15 -3 -17 -3q-17 4 -24 24zM164 170q25 -8 25 -27q0 -9 -5 -8q-4 2 -9 14q-5 11 -11 21zM179 186q23 -2 29 -19q2 -10 -2 -13q-5 -2 -9 7q-6 13 -18 25zM106 94q-1 -3 -2 -8q-1 -3 -1 -4
q-22 -84 -67 -109q42 45 54 124q1 9 -7 21q-40 -5 -56 -20q-23 10 -25 29q13 -11 22 -10l5 1q81 13 114 13q4 2 12 4q11 -1 17 -10q4 -10 -6 -11q-2 0 -8 1q-22 4 -44 4q-13 0 -25 -1q19 -15 17 -24z" />
    <glyph glyph-name="uni30C8" unicode="&#x30c8;" 
d="M83 106v-29q0 -13 2 -39q2 -17 2 -25q0 -2 1 -7v-8v-4v-6q-1 -4 -1 -5q-3 -15 -7 -16q-2 0 -5 6t-5 20v1q-1 2 0 7q1 3 1 5q3 12 3 38v133q0 9 -3 13q-2 4 -8 10l-2 2q3 3 6 3q13 -1 22 -14q5 -8 3 -14q-3 -3 -5 -7q-1 -5 -2 -13q-1 -5 -1 -7v-15q-1 -10 -1 -15v-9
q15 -1 27 -6q20 -8 29 -16q12 -10 12 -19t-8 -9q-5 0 -11 8q-1 1 -3 4q-1 3 -7 9q-9 9 -15 13q-10 8 -24 11z" />
    <glyph glyph-name="uni30C9" unicode="&#x30c9;" 
d="M112 157q31 -4 34 -23q0 -8 -6 -7q-5 1 -11 10q-7 11 -17 20zM133 175q26 0 33 -20q0 -6 -6 -7q-4 0 -8 6q-9 13 -19 21zM71 110v-70q0 -7 2 -21q1 -14 1 -22q0 -27 -8 -30q-9 9 -10 45q4 9 4 34q1 21 1 43v84q0 20 -16 29q20 8 34 -19q0 -2 -2 -5q-6 -10 -6 -27v-38
q58 -13 64 -45q0 -20 -29 13q-15 18 -35 29z" />
    <glyph glyph-name="uni30CA" unicode="&#x30ca;" 
d="M106 141v24q0 26 -11 29q-4 1 -5 5q17 7 34 -18q0 -6 -5 -13v-13q0 -16 -1 -29h5q20 2 31 2q8 2 17 5q15 0 24 -8q10 -12 0 -14q-1 0 -7 1q-25 3 -44 4q-2 0 -13 -1q-8 -1 -13 -1q-7 -120 -62 -149q40 39 49 148q-52 -5 -63 -13q-5 -5 -9 -5q-24 13 -21 30q10 -10 15 -10
q2 0 18 2q38 6 61 8v16z" />
    <glyph glyph-name="uni30CB" unicode="&#x30cb;" 
d="M44 143h1q14 -9 29 -9q21 0 65 8l4 1q23 -5 14 -17q-9 3 -38 -2q-30 -5 -47 -5q-19 2 -28 24zM10 55q12 -10 25 -10q4 0 25 3q54 7 76 7h18q15 -1 17 -1q1 0 4 1q5 1 7 0q23 -9 18 -21q-1 -4 -7 -4q-1 0 -6 2q-30 10 -63 10q-48 0 -84 -15q-3 -1 -4 -1q-29 16 -26 29z
" />
    <glyph glyph-name="uni30CC" unicode="&#x30cc;" 
d="M33 -17h-2q42 32 83 94q-20 25 -45 42h2q21 -7 51 -30q26 46 33 76v2q-37 -4 -57 -13q-1 -1 -3 -2q-2 -3 -4 -3q-22 10 -22 26q5 -9 19 -9q17 2 64 13q2 1 5 4l3 3q14 -5 21 -23q0 -5 -9 -10q-1 -1 -2 -1q-19 -44 -37 -73q31 -27 32 -50q-1 -8 -7 -8q-7 0 -12 10
q-10 19 -22 34q-38 -56 -91 -82z" />
    <glyph glyph-name="uni30CD" unicode="&#x30cd;" 
d="M90 213h1q3 -8 21 -16q20 -9 20 -19q-5 -13 -26 9q-2 3 -6 7q-9 7 -10 19zM25 34h-2q45 32 77 66l-1 1v2h3q17 18 28 38v1q-5 -1 -19 -4q-33 -7 -40 -10q-4 -3 -8 -3q-16 6 -18 21v-1q3 -8 17 -7q63 11 73 17q1 1 3 2q2 2 3 2q3 0 6 -5q2 -3 3 -3t1 -1q7 -4 6 -9
q1 -7 -11 -7q-5 -3 -8 -8q-9 -13 -26 -30q1 -1 2 -1q8 -8 3 -16v-58q0 -6 2 -22v-6q-2 -29 -10 -22q-4 7 -8 25q0 4 1 6l1 1q5 19 5 37v39q1 6 -2 11q-40 -38 -81 -56zM131 93h1q30 -15 49 -36q11 -17 5 -27q-7 -4 -18 15q-22 34 -37 48z" />
    <glyph glyph-name="uni30CE" unicode="&#x30ce;" 
d="M143 187q15 5 33 -28q0 -5 -6 -10q-5 -4 -7 -9q-59 -130 -128 -159q80 72 120 181q1 15 -12 25z" />
    <glyph glyph-name="uni30CF" unicode="&#x30cf;" 
d="M5 31h-2q21 17 37 40q18 26 26 44q1 4 1 7v5q-1 2 -3 4q-3 3 -3 6q1 0 2 1q3 1 4 0q2 -2 7 -5q5 -4 7 -6q7 -7 7 -12q0 -1 -2 -4q-1 0 -2 -1l-2 -2q-3 -2 -4 -4q-3 -4 -8 -11l-12 -18q-6 -9 -14 -16q-11 -13 -39 -28zM131 131v2q47 -23 70 -62q8 -14 8 -23t-7 -9
q-2 0 -5 1q-6 3 -11 16q-20 42 -55 75z" />
    <glyph glyph-name="uni30D0" unicode="&#x30d0;" 
d="M56 130l1 3q8 -1 19 -15q8 -11 3 -15q-4 -2 -9 -9q-2 -3 -3 -5q-25 -36 -65 -60h-3q52 51 63 87q0 4 -3 9q-2 3 -3 5zM123 125h2q67 -39 72 -78q-1 -15 -9 -12q-9 5 -17 26q-22 40 -48 64zM161 151q30 -4 31 -23q0 -6 -5 -6q-4 0 -8 6q-4 4 -10 13q-5 7 -8 10zM177 170
q34 -2 35 -24q0 -5 -5 -5q-4 0 -8 5q-10 14 -22 24z" />
    <glyph glyph-name="uni30D1" unicode="&#x30d1;" 
d="M2 26h-1v2q35 32 50 58q12 19 12 29q0 3 -4 8q-2 3 -3 4q2 3 3 3q7 0 15 -11q9 -7 9 -15q1 -1 -2 -3l-7 -7q-7 -14 -18 -26q-7 -9 -16 -16q-17 -16 -38 -26zM119 125h2q23 -12 42 -30q31 -26 30 -50q-1 -10 -6 -11q-6 1 -8 7q-6 14 -13 27q-5 10 -11 19q-16 21 -36 38z
M190 170q20 -2 21 -26q-1 -22 -21 -24q-19 2 -21 24q1 25 21 26zM190 125q16 1 17 19q-1 20 -17 21q-17 -1 -17 -21q1 -18 17 -19z" />
    <glyph glyph-name="uni30D2" unicode="&#x30d2;" 
d="M74 107h4q28 0 57 17q1 0 2 1q2 2 3 2q7 0 13 -4q5 -3 5 -8q0 -7 -4 -8t-12 -2q-4 -1 -6 -1q-3 0 -11 -2q-7 -1 -11 -2q-2 0 -7 -1q-16 -4 -24 -4h-4q-7 0 -19 6v-16v-43q0 -24 10 -33q13 -10 35 -10h12q18 0 36 7q8 4 14 4q14 0 14 -8q0 -3 -1 -6q-1 -2 -7 -5
q-8 -4 -21 -4q-7 -1 -15 -1h-25q-32 -1 -46 11q-17 12 -17 50v106v5q-1 4 -1 6q-1 6 -6 11q-5 6 -11 11q1 3 4 3q5 0 17 -7q1 0 2 -1q16 -10 12 -19q0 -1 -1 -2q-2 -2 -2 -3q-1 -25 -3 -49q8 -1 14 -1z" />
    <glyph glyph-name="uni30D3" unicode="&#x30d3;" 
d="M137 162q33 -8 36 -26q0 -9 -6 -9q-6 1 -12 10q-6 12 -18 25zM155 178q34 -3 36 -23q0 -7 -7 -6q-5 0 -10 8q-7 12 -19 21zM48 61v-16q-2 -50 40 -48q21 0 53 7q11 3 14 3q19 -2 11 -16q-11 -7 -46 -8h-24q-58 -1 -57 59v111q0 20 -19 30q16 7 37 -19q0 -4 -3 -8
q-4 -8 -4 -20v-12q0 -8 -1 -17q1 0 4 -1q7 -1 11 -1q22 0 55 15q10 4 12 4q24 -3 13 -19q-48 -10 -73 -10q-11 0 -22 6v-20q-1 -13 -1 -20z" />
    <glyph glyph-name="uni30D4" unicode="&#x30d4;" 
d="M170 197q21 -3 23 -27q-1 -26 -23 -27q-21 2 -23 27q2 25 23 27zM170 191q-17 -1 -18 -21q2 -19 18 -21q16 1 17 21q-2 19 -17 21zM63 107h3q27 0 58 17l1 1q1 2 4 2q7 0 13 -4q5 -3 5 -8q0 -7 -4 -8t-12 -2q-4 -1 -6 -1q-4 0 -11 -2q-8 -1 -12 -2q-2 0 -7 -2
q-15 -3 -24 -3h-4q-6 0 -15 4q-3 1 -4 2v-16v-43q0 -24 11 -33q11 -10 35 -10h12q18 0 36 7q1 0 2 1q5 3 12 3q13 0 14 -8q1 -17 -44 -16h-25q-33 0 -46 11q-18 11 -17 50v106v5q-1 4 -1 6q-1 2 -3 7q-2 2 -3 4l-3 3q-5 6 -9 8q2 3 5 3q5 0 17 -7q1 0 2 -1q16 -10 12 -19
q0 -1 -2 -6t-2 -6v-5q-2 -24 -2 -37q7 -1 14 -1z" />
    <glyph glyph-name="uni30D5" unicode="&#x30d5;" 
d="M48 160h5q6 0 20 2q9 1 13 1q24 1 48 4q3 0 9 1q11 1 17 2q2 0 5 3q3 2 5 2h1l9 -9l5 -5q4 -3 4 -9q0 -2 -1 -5l-1 -2q-1 -1 -3 -2q-3 -2 -4 -3q0 -1 -1 -2q0 -1 -3 -6q-11 -36 -21 -52q-12 -21 -27 -40q-20 -26 -51 -51q-6 -6 -12 -6q18 17 33 38q37 48 54 90
q12 26 12 45q0 3 -3 3h-4q-8 0 -26 -3q-12 -2 -18 -2q-5 0 -16 -2q-11 -1 -17 -2h-2q-16 -2 -23 -6q-1 0 -2 -1q-3 -2 -4 -2q-9 0 -20 15q-7 10 -6 17q2 0 6 -4l3 -3q6 -6 16 -6z" />
    <glyph glyph-name="uni30D6" unicode="&#x30d6;" 
d="M2 173h2q7 -14 23 -14q84 7 113 11q1 0 2 1q3 2 4 2q10 -4 20 -21q0 -6 -8 -10q-3 -1 -3 -2q-44 -114 -107 -154h-3q75 83 97 168q0 2 -1 4q-80 -5 -109 -15l-1 -1q-3 -4 -6 -4q-23 18 -23 35zM159 194q29 -5 30 -22q-1 -7 -6 -8q-4 0 -7 7q-6 12 -17 23zM182 205
q26 -7 27 -23q0 -7 -5 -7q-5 1 -8 9q-5 12 -14 21z" />
    <glyph glyph-name="uni30D7" unicode="&#x30d7;" 
d="M190 210q20 -2 22 -27q-1 -25 -22 -26q-21 2 -23 26q2 25 23 27zM207 183q-1 20 -17 21q-17 -1 -18 -21q1 -19 18 -20q16 1 17 20zM-1 167h2q10 -15 26 -16h4q10 0 31 4q10 1 15 2t15 2q19 2 28 4q2 0 5 1q9 1 13 3q1 0 2 1q1 2 3 2h2q12 -10 20 -24v-1q0 -4 -5 -5
q-3 -1 -4 -2q-1 -3 -4 -9q-2 -7 -4 -10q-34 -81 -76 -119q-13 -12 -30 -22h-2q50 42 84 123q14 31 16 52q0 1 -2 1h-4q-4 0 -13 -2q-6 -1 -9 -1q-15 -3 -31 -5h-3q-28 -4 -42 -8q-5 -1 -8 -4l-1 -1q-2 -3 -5 -3q-2 0 -5 3q-6 6 -10 13q-8 12 -8 21z" />
    <glyph glyph-name="uni30D8" unicode="&#x30d8;" 
d="M3 89q3 1 7 -1q2 -2 3 -2q9 -2 12 0q4 2 11 9l2 2q12 12 26 23q1 1 4 3q6 7 12 7q7 0 20 -11l8 -8l17 -17q13 -12 28 -23l18 -12q5 -3 7 -4q3 -2 9 -5q9 -5 14 -9q11 -10 7 -22q-1 -6 -6 -4q-17 10 -50 38q-5 4 -7 6q-18 15 -35 34q-7 8 -15 17q-10 12 -15 12
q-3 0 -13 -8l-1 -1q-4 -4 -12 -13q-14 -15 -19 -23q-4 -8 -9 -8q-10 0 -17 8q-7 7 -6 12z" />
    <glyph glyph-name="uni30D9" unicode="&#x30d9;" 
d="M174 35q-27 23 -63 60q-25 27 -31 27q-10 1 -45 -45q0 -1 -1 -2q-2 -6 -7 -6q-23 3 -23 18q1 0 4 -1q4 -2 7 -2q10 0 32 23t31 23q10 0 34 -23q36 -35 68 -54q3 -2 9 -5q20 -10 19 -22q0 -20 -34 9zM143 149q35 -6 36 -26q0 -6 -5 -6q-5 1 -9 8q-2 2 -6 7q-9 13 -16 17z
M168 165q29 -3 31 -22q0 -8 -4 -8q-4 1 -8 9q-8 12 -19 21z" />
    <glyph glyph-name="uni30DA" unicode="&#x30da;" 
d="M4 90q2 0 5 -2q2 -2 3 -2q8 -4 24 12l1 1q12 11 24 23q1 1 3 2q10 9 16 9q7 0 15 -8q5 -4 16 -15q5 -5 15 -14q14 -14 22 -21q24 -20 44 -30l4 -2q9 -5 12 -19q0 -10 -5 -10t-16 8q-7 4 -20 16q-3 3 -5 4q-34 32 -50 51q-2 3 -7 8q-5 6 -8 8l-3 3q-9 10 -15 10
q-5 -1 -11 -8q-13 -11 -28 -31q-7 -14 -14 -14q-3 0 -6 2q-17 7 -16 19zM173 162q20 -2 21 -26q-1 -23 -21 -24q-20 2 -21 24q1 24 21 26zM173 117q16 1 17 19q-1 20 -17 21q-16 -2 -17 -21q1 -17 17 -19z" />
    <glyph glyph-name="uni30DB" unicode="&#x30db;" 
d="M43 82h2q3 -13 3 -25q-1 -16 -9 -48q-3 -7 -8 -7q-9 -2 -8 16q0 8 8 22q12 22 12 42zM140 87q28 -23 42 -47q7 -11 7 -21v-4q0 -8 -7 -8q-6 0 -9 11q-12 33 -33 69zM108 91v-52q0 -5 1 -16t1 -17v-5q0 -7 -1 -13v-3q-2 -10 -7 -10q-4 0 -5 6q-6 14 -25 32q4 0 11 -4
q8 -4 12 -4t4 6v104q-9 -2 -20 -2q-12 -1 -26 -3q-3 -1 -7 -1q-2 0 -4 2q-5 3 -12 10q-1 1 -3 4q-5 4 -4 8q2 -1 7 -4q3 -2 5 -3q8 -3 15 -3h4q22 1 43 4h2v34q0 21 -11 30l2 3q4 0 13 -5q3 -2 5 -3q5 -2 6 -6q2 -4 0 -11q-1 -7 -3 -15q0 -4 -1 -12q0 -8 -1 -12v-1q8 0 22 2
h5q10 0 20 2q2 0 4 1t3 1q6 0 11 -3t5 -6q1 -5 -2 -8q-2 -1 -5 -1q-8 0 -13 1q-6 1 -12 1h-7q-4 0 -12 -1t-11 -1q-5 -1 -8 -1v-12q-1 -9 -1 -13z" />
    <glyph glyph-name="uni30DC" unicode="&#x30dc;" 
d="M33 82h2q2 -7 3 -20q-1 -28 -12 -58q-11 -9 -15 13q0 13 8 26q11 16 14 39zM127 87h1q40 -32 49 -65q1 -11 -4 -14q-6 -3 -10 6q-15 43 -36 73zM152 167q27 -4 29 -23q0 -10 -4 -9t-10 13q-6 10 -15 19zM170 183q23 -2 31 -15q3 -8 -2 -11q-5 -2 -10 5q-9 12 -19 21z
M97 117v-30q0 -15 3 -68q1 -14 1 -15q0 -26 -8 -26q-5 0 -7 7q-2 8 -18 22l-6 6q28 -14 26 -4q1 8 1 17v90q-20 -2 -47 -7q-6 -1 -7 -1q-22 7 -24 25q11 -9 21 -9q19 1 57 5q0 67 -13 62q13 9 26 -18q0 -1 -1 -5q-4 -18 -4 -38q16 1 44 4h3t3 1t3 1q24 -3 15 -18
q-2 -2 -14 0q-13 1 -21 1q-16 0 -33 -2z" />
    <glyph glyph-name="uni30DD" unicode="&#x30dd;" 
d="M173 157q-21 2 -22 27q1 25 22 26q21 -2 23 -26q-1 -26 -23 -27zM191 184q-1 20 -18 21q-17 -2 -18 -21q1 -20 18 -22q18 1 18 22zM133 85q18 -14 32 -32q17 -21 17 -37q0 -9 -7 -9q-6 0 -10 9q-1 3 -4 10q-14 41 -28 59zM37 79h2q2 -10 2 -21v-5q0 -22 -8 -43
q-1 -7 -6 -12q-5 -2 -7 0q-3 4 -3 12v1v5q0 7 5 15q14 24 15 48zM102 113v-49q0 -8 1 -24q1 -17 1 -25v-12q0 -19 -4 -27q-2 -3 -7 -3q-3 1 -3 7q-1 2 -1 3q-4 8 -8 12q-3 6 -12 14l-4 4q4 -1 12 -4q7 -2 11 -4h2q4 1 4 13v6q0 8 -1 25q-1 18 -1 27v38q-4 0 -12 -1
q-8 0 -12 -1q-8 0 -17 -2q-1 0 -4 -1q-4 -2 -7 -3q-1 -1 -4 1q-1 1 -2 1l-1 1q-6 4 -9 8q-9 6 -7 15l1 1q11 -11 19 -11q7 0 20 2q7 1 10 1q4 0 12 1q9 0 13 1v34q0 21 -13 29v2q6 5 18 -4q11 -9 11 -19q0 -6 -2 -12q-1 -4 -2 -11q-1 -3 -1 -5v-12h5q5 1 15 2q9 1 14 1
q1 0 4 1q7 1 11 3q1 1 2 1l2 1q4 0 11 -3q3 -1 4 -2q6 -6 4 -13q-2 -3 -7 -3q-4 0 -11 1q-8 1 -13 1h-4q-7 0 -21 -2q-9 -1 -13 -1h-2q-1 -1 -2 -1q0 1 0 -2z" />
    <glyph glyph-name="uni30DE" unicode="&#x30de;" 
d="M179 131l-1 1q-114 -9 -139 -20q-1 0 -4 -1q-4 -2 -7 -2q-19 3 -21 32h2q5 -12 15 -12q11 0 85 8q57 6 64 6q5 2 8 3q21 -13 24 -33q-1 -6 -8 -7q-5 0 -12 -7q-32 -32 -69 -52q12 -15 12 -33q0 -8 -6 -9q-6 0 -10 7q-17 42 -42 65h1q24 -7 41 -26q61 51 67 80z" />
    <glyph glyph-name="uni30DF" unicode="&#x30df;" 
d="M71 188v1q13 -12 43 -20q32 -8 32 -24q0 -6 -2 -7q-3 -1 -8 2q-5 5 -19 11q-32 14 -46 37zM66 117q3 0 8 -4l3 -3q11 -9 38 -15q28 -5 28 -18q-1 -14 -18 -4q-5 3 -16 8q-31 11 -43 36zM53 39q2 0 8 -4q4 -3 7 -5q11 -9 44 -15q47 -10 47 -31q0 -7 -4 -9t-9 3
q-9 8 -37 20q-30 13 -40 22q-9 8 -16 19z" />
    <glyph glyph-name="uni30E0" unicode="&#x30e0;" 
d="M19 39h1q6 -12 25 -12h3q2 5 7 15q63 126 45 134q0 1 -1 2q-3 2 -2 4q1 1 5 1q20 -18 24 -30q0 -4 -5 -8t-7 -8l-9 -18q-34 -69 -48 -91q2 0 6 1q75 8 103 14q-13 28 -31 52q52 -36 59 -74q0 -13 -7 -14t-11 11q-1 4 -5 13q-2 5 -3 8q-24 -9 -73 -19q-34 -7 -41 -11
l-2 -2q-2 -5 -6 -5q-9 4 -22 20q-8 12 -5 17z" />
    <glyph glyph-name="uni30E1" unicode="&#x30e1;" 
d="M34 -11h-3q39 27 87 98q-12 15 -30 32h1q22 -9 36 -21q31 49 34 71q0 7 -5 12q-2 3 -2 5q10 -1 21 -15q10 -14 6 -20q-1 -3 -4 -3q-6 0 -10 -10q-9 -20 -28 -49q22 -22 22 -38q0 -11 -6 -9q-6 3 -13 16q-6 7 -13 16q-44 -63 -93 -85z" />
    <glyph glyph-name="uni30E2" unicode="&#x30e2;" 
d="M44 170q10 -6 20 -6q37 2 69 12q5 5 9 5q18 -1 21 -11q1 -8 -15 -8q-11 0 -42 -6q-31 -7 -42 -7q-17 6 -20 21zM92 104v27q0 6 -6 12q-2 2 -2 3q12 7 27 -17q0 -3 -3 -7q-5 -8 -5 -17v-8q7 1 19 4q19 3 25 4q14 2 20 6q16 1 22 -5q7 -10 -4 -13q-3 0 -9 1q-8 1 -12 1
q-15 0 -61 -8v-45q0 -29 30 -29h8q11 0 29 4l2 1q23 -2 15 -16q-5 -5 -20 -5h-3h-14q-62 -3 -59 55v9v23q-26 -5 -39 -10q-4 -3 -9 -3q-9 1 -19 14q-8 11 -3 16q9 -12 20 -13q13 1 51 7v9z" />
    <glyph glyph-name="uni30E3" unicode="&#x30e3;" 
d="M65 147v2q4 4 17 0q12 -4 12 -10q0 -1 -1 -4q-2 -5 -2 -8q2 -6 5 -22q33 12 61 19q1 0 2 2q3 3 4 1q23 -17 17 -30q-1 -3 -4 -3h-3q-4 -1 -21 -11q-11 -7 -15 -9h-3q23 22 31 37l-1 3q-33 -6 -66 -16q12 -59 25 -93q2 -10 -2 -13q-7 -3 -10 5q-2 5 -12 52q-7 32 -10 46
q-23 -7 -33 -14l-1 -1q-8 -5 -12 -2l-1 1q-13 9 -13 16q3 -2 10 -3q3 -1 4 -1q3 -1 39 10q4 1 6 2q-1 7 -4 16q-1 6 -1 7q-4 18 -18 21z" />
    <glyph glyph-name="uni30E4" unicode="&#x30e4;" 
d="M143 82h-3q41 36 44 55l-2 1q-2 0 -5 -1q-53 -13 -82 -23q7 -29 24 -89q11 -36 11 -40q0 -10 -7 -10q-4 0 -7 3q-3 2 -5 9q0 3 -1 5q-1 17 -24 119q-35 -12 -42 -18q-1 -1 -1 -2q-6 -6 -12 -6q-20 7 -25 26q1 0 3 -2q8 -6 15 -6q2 0 18 6q26 8 42 13q-5 18 -5 24
q-5 25 -19 29q-4 2 -7 3q2 7 18 3q20 -6 21 -13q-1 -7 -3 -10q1 -8 4 -27q1 -4 1 -6q53 16 79 22q1 0 2 2t4 2q11 -2 23 -19q8 -15 0 -21q-1 0 -4 2q-1 1 -2 1q-3 0 -14 -8q-22 -16 -39 -24z" />
    <glyph glyph-name="uni30E5" unicode="&#x30e5;" 
d="M125 114q-18 0 -42 -4q-4 -1 -9 -1q-16 7 -11 18q2 -6 9 -7q9 0 53 4q1 0 4 2q1 1 2 1q10 -5 12 -14q0 -4 -6 -9q-3 -13 -12 -39q-3 -12 -5 -18h3q4 0 22 -1h20q3 1 6 1q20 -8 7 -18q-1 0 -5 1q-26 9 -58 9q-42 -1 -71 -13q-13 7 -15 24q2 0 5 -3q5 -5 9 -5q5 0 25 2
q29 2 44 3q5 17 10 52z" />
    <glyph glyph-name="uni30E6" unicode="&#x30e6;" 
d="M7 53l2 1q7 -14 16 -13l5 1q54 6 85 8q10 44 16 85q-42 -2 -59 -5q-1 0 -3 -1q-3 -2 -5 -2q-13 4 -17 24q1 0 4 -2q7 -7 15 -7q53 2 62 5l3 3q3 4 5 4q14 -7 16 -22q0 -2 -3 -4q-3 -3 -3 -4q-8 -23 -21 -74h3q23 0 44 -2q2 1 6 1q3 1 5 1q14 0 20 -9q5 -12 -7 -13
q-1 0 -6 1q-28 9 -60 9q-72 -3 -90 -11q-1 -1 -3 -2q-4 -4 -7 -4q-21 10 -23 32z" />
    <glyph glyph-name="uni30E7" unicode="&#x30e7;" 
d="M140 23h-31q-20 0 -31 -6q-2 -2 -5 -2q-5 0 -16 17l-2 2v3q6 -8 18 -8q14 0 41 3q10 1 15 2q4 14 8 45v3q-7 -1 -20 -3q-21 -3 -31 -5q-1 0 -4 -1q-5 -2 -8 -2q-12 4 -15 16q7 -5 12 -5q4 0 29 3q29 4 37 5l1 1q3 20 4 39h-9q-11 0 -43 -7q-6 -1 -7 -1q-4 -1 -10 -3
q-12 3 -17 19q1 0 4 -3q6 -4 11 -4q27 2 65 8q1 0 2 2q3 3 4 2q14 -8 15 -18q0 -2 -1 -3q-2 -2 -2 -5q-1 -2 -6 -36q-6 -34 -8 -45l1 -1q5 -4 5 -7q0 -5 -6 -5z" />
    <glyph glyph-name="uni30E8" unicode="&#x30e8;" 
d="M36 36l2 1q13 -15 24 -15l13 1q45 3 48 3q11 0 15 1q2 0 3 1q3 15 6 52q1 5 1 7q-14 2 -23 2q-21 0 -52 -8q-10 -2 -11 -2q-12 5 -17 23l2 1q3 -7 12 -8q11 0 40 3q34 3 49 3h1q3 31 3 54v2q-10 -1 -29 -2q-35 -1 -53 -6q-1 0 -4 -1q-4 -2 -8 -2q-17 12 -18 26l2 1
q9 -11 21 -11q66 2 85 5q6 3 8 2q14 -4 19 -22q0 -2 -3 -7q-3 -4 -4 -8q-6 -52 -16 -105q10 -9 1 -14q-1 0 -6 1q-13 1 -21 1q-23 0 -53 -7q-1 0 -4 -1q-5 -2 -9 -2q-19 9 -24 31z" />
    <glyph glyph-name="uni30E9" unicode="&#x30e9;" 
d="M49 191q2 0 7 -3q13 -6 25 -6q18 0 46 8q14 4 18 4q17 0 17 -13q-1 -6 -18 -6q-16 0 -49 -6q-13 -2 -15 -2q-18 4 -31 24zM29 129l2 1q5 -7 16 -7q76 6 107 14l1 1q2 3 4 3q4 0 9 -5l4 -4q9 -6 10 -12v-2q-1 -4 -8 -6q-2 -1 -3 -2q-48 -111 -115 -137q72 58 101 147
q0 1 -1 3v1q-75 -10 -93 -14q-2 -1 -5 -4q-5 -4 -8 -3q-19 14 -21 26z" />
    <glyph glyph-name="uni30EA" unicode="&#x30ea;" 
d="M77 117v-46q0 -17 -5 -18q-7 3 -8 27q0 1 1 7v6v71q0 7 -5 19q-3 6 -3 8q17 -8 22 -35q0 -2 -1 -16q-1 -19 -1 -23zM151 168v-56q-1 -108 -54 -139q43 50 43 146v40q1 32 -16 35q7 13 31 -14q1 -4 -2 -6q-2 -2 -2 -6z" />
    <glyph glyph-name="uni30EB" unicode="&#x30eb;" 
d="M116 131v-100q40 15 94 75v-2q-27 -51 -87 -97q-1 0 -2 -3q-3 -5 -5 -5q-11 9 -16 28q0 1 4 10q1 13 1 42v65q0 11 -9 20q-3 3 -3 4q17 3 30 -20q0 -3 -3 -6q-4 -5 -4 -11zM3 -9h-1q27 34 45 98q14 54 -3 65l1 3q20 -6 26 -17q0 -3 -3 -5l-2 -2q-11 -96 -63 -142z" />
    <glyph glyph-name="uni30EC" unicode="&#x30ec;" 
d="M28 162v3q6 6 20 -3q16 -12 17 -22q0 -2 -3 -6q-4 -5 -4 -10v-97h1q62 29 124 95v-2q-50 -73 -116 -112l-2 -2q-5 -9 -7 -9q-11 6 -18 24q0 3 4 8q3 5 3 7v84q0 35 -19 42z" />
    <glyph glyph-name="uni30ED" unicode="&#x30ed;" 
d="M147 45h3q11 65 12 90q0 3 -3 3h-25q-9 0 -33 -4q-23 -4 -30 -4q-1 0 -5 1h-5h-2q1 -10 3 -37q4 -42 5 -57q29 2 80 8zM59 141h1q3 0 23 3q52 6 74 7q1 0 3 1q2 2 4 2q17 -11 18 -28q0 -2 -4 -6q-2 -2 -2 -3t-4 -18q-11 -45 -14 -56q14 -11 4 -17q-2 0 -7 1q-16 3 -35 3
q-22 0 -52 -3v-5q0 -16 -7 -11q-7 7 -9 26q0 2 1 8q1 9 1 12q-1 4 -3 27q-4 37 -6 44q-4 16 -16 21q10 5 28 -8h2z" />
    <glyph glyph-name="uni30EE" unicode="&#x30ee;" 
d="M145 146l7 5h2q9 -10 13 -18v-3q-1 -1 -4 -3t-4 -4q-24 -86 -79 -118h-2q57 53 71 133q-38 -1 -88 -5q0 -19 2 -47v-6q0 -9 -5 -9q-4 4 -7 19q-1 0 0 7q1 6 1 9q0 28 -8 43q3 1 9 -4q4 -3 6 -3q5 0 22 1q40 3 64 3z" />
    <glyph glyph-name="uni30EF" unicode="&#x30ef;" 
d="M72 -11h-2q68 63 91 172h-6q-47 2 -107 -4l-1 -3q0 -6 3 -33q2 -25 2 -30q0 -14 -5 -14q-9 1 -13 23q0 1 1 7q2 13 2 23q0 35 -14 50q10 4 22 -12q24 3 77 5q27 1 33 2q1 0 5 2q4 4 7 4q18 -13 21 -26q0 -2 -9 -7q-2 -2 -3 -2q-37 -122 -104 -157z" />
    <glyph glyph-name="uni30F0" unicode="&#x30f0;" 
d="M131 60h-1v-38q0 -6 1 -25q1 -9 1 -11q-2 -19 -8 -21q-7 4 -11 35l1 4q5 21 5 36v20q-47 -2 -77 -17l-3 -1q-14 4 -24 23q0 2 1 4q6 -6 16 -7q11 0 30 4v22q1 24 -11 27v2q17 5 25 -12q0 -2 -2 -4q-1 -2 -1 -3q-1 -5 -1 -15q0 -11 -1 -16q23 4 48 4v66q-19 -2 -45 -9
q-8 -2 -9 -2q-18 9 -23 22v1q-1 1 1 2q6 -7 14 -7q34 2 62 5v32q0 15 -9 19q-3 2 -4 3v2q22 4 30 -18q0 -2 -3 -6t-3 -8v-23q8 0 16 1h2q5 1 7 4q12 0 17 -9q5 -10 -5 -11q-12 3 -32 3h-5v-67q4 0 16 1q16 1 20 2l2 2q4 3 8 3q11 0 17 -9q7 -11 -2 -12q-2 0 -27 1
q-30 1 -33 1z" />
    <glyph glyph-name="uni30F1" unicode="&#x30f1;" 
d="M7 52l2 1q8 -12 22 -13q2 0 10 1q29 6 56 8q0 9 1 28t1 27q0 16 -14 21l1 2q16 0 25 -10q23 17 33 39q-45 -4 -79 -18q-6 -3 -8 -3q-14 8 -19 26l2 1q1 0 2 -1q9 -6 16 -6q18 0 82 14q1 1 3 2q2 2 3 2q5 0 9 -6l4 -4q9 -6 9 -14q2 -10 -13 -9q-4 -3 -43 -27
q-3 -31 -5 -63q27 1 65 1q3 2 7 2q14 0 23 -12q7 -14 -5 -15q-1 0 -7 2q-38 10 -63 10q-46 0 -88 -15q-8 -2 -9 -2q-21 11 -23 31z" />
    <glyph glyph-name="uni30F2" unicode="&#x30f2;" 
d="M42 174l2 1q8 -9 19 -10q15 0 75 11l6 1q8 -1 10 -6q1 -8 -6 -9q-16 0 -65 -8q-15 -3 -17 -3q-20 7 -24 23zM54 -19h-3q44 37 87 125h-6q-33 0 -67 -14q-5 -2 -6 -2q-23 12 -26 28l1 1q12 -11 25 -11q8 0 43 5l42 6q14 30 16 43q-1 11 -9 19q4 3 5 2q22 -17 23 -31
q0 -1 -5 -5l-1 -1q-54 -127 -119 -165z" />
    <glyph glyph-name="uni30F3" unicode="&#x30f3;" 
d="M32 167q6 -5 22 -12q26 -9 25 -22q0 -7 -6 -8q-5 -1 -12 6l-5 5q-23 20 -24 31zM184 138v-3q-36 -54 -104 -113q-13 -12 -19 -17q-1 -1 -1 -3q-2 -5 -6 -5q-19 10 -25 34v1q-1 1 1 2q8 -12 18 -12q70 39 136 116z" />
    <glyph glyph-name="uni30F4" unicode="&#x30f4;" 
d="M149 194q28 -8 31 -27q0 -9 -6 -8q-6 2 -10 13q-1 1 -2 4q-8 12 -13 18zM172 207q27 -8 30 -27q0 -6 -6 -7q-5 0 -8 7q-8 18 -16 27zM126 154h23q2 0 5 3q2 2 3 2q5 0 13 -7l1 -2q1 -1 2 -3q3 -5 3 -8q0 -4 -3 -6q-7 -2 -10 -17q-1 -2 -1 -3q-25 -72 -59 -107
q-15 -15 -32 -25h-3q35 35 54 73q24 47 30 87v2h-20q-17 0 -50 -4q-30 -4 -45 -4v-24q0 -4 1 -12t1 -12v-7q0 -12 -5 -14q-9 1 -10 19v5q1 8 1 17v4q0 32 -15 42v2q7 5 21 -6q2 -1 3 -2q22 1 54 5v16q0 10 -3 15q-2 3 -7 7q-3 2 -5 4v3q2 2 5 2h3h1q14 -3 20 -10q7 -6 3 -13
q0 -1 -1 -2q-3 -9 -3 -16v-5q5 0 13 1h12z" />
    <glyph glyph-name="uni30F5" unicode="&#x30f5;" 
d="M58 119h1q5 -8 12 -8q10 1 35 5q7 20 7 31q0 12 -7 14v1q17 -2 23 -15q0 -5 -2 -9q-2 -2 -3 -5q-2 -8 -5 -16q8 2 23 4q4 1 5 1q2 0 5 2l2 1q12 -7 13 -18l-5 -6q-18 -101 -43 -104q-3 0 -3 6v2q-2 12 -14 24h3l2 -2q14 -12 19 -8q20 31 26 89q0 3 -3 3h-12q-13 0 -21 -2
q-26 -61 -70 -93h-1q36 41 57 92q-1 0 -3 -1q-15 -3 -20 -6q-1 0 -2 -1q-3 -2 -4 -2q-12 4 -15 21z" />
    <glyph glyph-name="uni30F6" unicode="&#x30f6;" 
d="M85 109q21 0 60 13q9 3 10 3q20 -3 16 -15q-17 0 -47 -6q9 -9 11 -18q0 -2 -2 -5q-1 -1 -1 -2q-27 -60 -64 -80q46 51 54 95q-1 5 -5 10q-11 -3 -23 -3q-9 0 -19 8q-18 -22 -36 -30q37 41 45 68q0 4 -3 8q-2 3 -2 4q16 -6 18 -21q-4 -1 -5 -6q-2 -3 -7 -9q-5 -7 -8 -11
q5 -3 8 -3z" />
    <glyph glyph-name="uni3105" unicode="&#x3105;" 
d="M82 198q1 7 8 3q11 -9 17 -21q0 -3 -6 -6q-4 -1 -24 -27q-19 -25 -28 -34q55 10 107 23q3 2 6 2q25 -12 31 -26q0 -3 -4 -5q-6 -4 -9 -10q-46 -115 -82 -113q-3 0 -3 3q-1 2 1 10q-2 10 -19 26q-4 5 -5 6q-1 7 6 8q2 -1 7 -5q15 -11 21 -12q31 9 52 84q3 13 -19 11
q-62 -7 -95 -22q-1 0 -5 -3q-5 -3 -7 -3q-22 20 -8 27q47 34 58 84z" />
    <glyph glyph-name="uni3106" unicode="&#x3106;" 
d="M27 -13q-6 2 -2 8q48 16 86 52q-24 21 -53 38q-3 3 -2 6q2 3 6 2q35 -15 62 -31q22 26 31 58q0 1 -1 3q0 1 -1 2q-49 -5 -80 -17q-2 -2 -8 -5q-11 6 -13 22q34 21 45 64q-4 15 4 14q15 -9 22 -21q1 -4 -10 -9q-7 -8 -17 -22q-11 -17 -20 -26q69 12 80 20q1 1 3 1
q16 -5 29 -24q0 -4 -7 -8q-4 -3 -5 -4q-15 -35 -36 -58q23 -15 33 -26q15 -16 12 -30q-5 -16 -19 -4q-19 23 -42 44q-41 -36 -97 -49z" />
    <glyph glyph-name="uni3107" unicode="&#x3107;" 
d="M44 171h8q36 0 93 13q2 0 4 2q4 1 6 1q16 -4 34 -25q0 -2 -3 -6q-4 -5 -4 -9v-5q0 -13 2 -40q1 -26 1 -40v-40q-1 -22 -12 -28q-15 5 -17 18q0 3 2 11q6 23 6 54v37q0 41 -7 48q-5 9 -35 1q-6 -1 -21 -5q-30 -7 -36 -7h-2q-4 1 -8 4q0 -5 -1 -12v-9v-41q0 -15 -2 -45
q-1 -13 -1 -20v-4q-3 -29 -10 -30q-16 8 -19 21q0 3 3 11q14 34 14 83v11q0 29 -12 55q0 3 4 4q4 -1 14 -9q0 1 -1 1z" />
    <glyph glyph-name="uni3108" unicode="&#x3108;" 
d="M51 160v-7q0 -6 -1 -18v-17q-1 -34 -1 -95v-6q-1 -4 4 -4q45 1 93 12q6 1 19 1q12 -2 19 -14q5 -12 -5 -12q-4 0 -12 1q-20 2 -29 2h-11q-19 0 -71 -9q-14 -2 -16 -2q-9 4 -14 17q0 1 1 6q7 30 7 51v42q-1 52 -8 70q0 2 4 2q6 -1 12 -6q43 3 90 17q6 4 14 4q13 -3 17 -12
q2 -9 -11 -10q-50 -3 -85 -13q-4 -1 -5 -1q-4 0 -12 5l1 -2v-2z" />
    <glyph glyph-name="uni3109" unicode="&#x3109;" 
d="M113 104q3 -4 1 -7q-1 -2 -5 -4q-2 -1 -3 -2q-30 -75 -86 -98q-7 -3 -6 3q0 3 -2 2q67 40 72 114q-17 -2 -23 -4q-5 -2 -11 -7q-5 -4 -8 -4q-15 13 -14 21q29 15 51 59q2 6 4 17q1 6 2 8q0 3 5 2q20 -16 19 -26q-1 -2 -4 -3q-4 -1 -7 -4q-2 -3 -8 -10q-23 -29 -33 -39
l36 6q39 7 60 11h2q9 3 14 3q13 -3 30 -21q1 -5 -6 -10q-4 -6 -15 -38q-30 -88 -55 -85q-2 0 -3 6q0 3 -1 5q-2 9 -23 23l-2 1q-3 5 3 8q2 -1 7 -3q14 -6 20 -6q26 5 43 88q2 12 -15 12q-17 -1 -52 -7q5 -3 13 -11z" />
    <glyph glyph-name="uni310A" unicode="&#x310a;" 
d="M18 114h2q20 -1 69 7q5 26 5 47q0 10 -4 19q-1 2 -1 3v1q-1 4 3 4q25 -4 33 -19q0 -2 -3 -5t-4 -6q0 -3 -2 -9q-3 -20 -6 -32q15 2 39 7q6 2 8 2q1 0 4 1q5 2 9 2q16 -3 24 -19q-1 -7 -6 -8q-4 0 -12 1q-9 1 -13 1h-12q-12 0 -33 -2q-9 -1 -13 -1q-11 -46 -34 -92h3
q26 3 74 13q-4 6 -12 16q-5 6 -7 9q-3 5 4 6q50 -28 50 -51q-1 -11 -14 -15q-4 0 -7 9q-2 5 -3 6q-1 3 -3 8q-1 2 -2 3q-43 -9 -76 -23q-2 -1 -6 -5q-6 -6 -9 -6q-12 7 -19 23q21 13 42 95q-16 -2 -37 -8q-8 -2 -10 -2q-13 5 -21 20z" />
    <glyph glyph-name="uni310B" unicode="&#x310b;" 
d="M26 188q4 0 15 -1h6q35 0 91 12q16 -1 29 -16q0 -5 -3 -7q-9 -1 -17 -8q-12 -11 -42 -46l-6 -6q42 5 54 12q1 1 2 1q16 -5 30 -24q3 -3 0 -6q0 -3 -6 -5t-8 -6q-54 -101 -81 -100q-7 0 -7 3q3 12 -20 35q-4 4 -3 7q3 3 8 0q4 -2 10 -7q8 -7 16 -11q23 -4 60 82
q6 15 -6 14q-23 0 -44 -11q-6 -3 -8 -3q-15 3 -19 14q0 4 7 9q36 35 45 58v2q1 2 -1 1q-48 -6 -73 -14q-6 -2 -9 -2q-21 8 -20 23z" />
    <glyph glyph-name="uni310C" unicode="&#x310c;" 
d="M56 100l-3 -3q-5 -4 -7 -4q-12 5 -17 17q0 3 4 5q2 1 3 2q22 32 19 69q2 4 6 4q14 -8 22 -18q2 -3 -1 -5q-11 -2 -26 -50q5 1 20 3q20 3 30 5q9 28 8 55q0 1 -1 7q-2 7 -2 10q2 3 5 4q19 -8 28 -16q2 -1 0 -7q-1 -1 -3 -4l-3 -3q-3 -21 -10 -41q13 2 25 6q1 0 3 1
q4 2 6 2q23 -10 30 -24q0 -5 -7 -8q-4 -2 -5 -4q-2 -6 -5 -21q-21 -94 -56 -97q-10 -2 -9 9q-3 11 -15 22q-5 6 -5 8q-1 6 5 5q1 -1 3 -2q16 -11 22 -12q28 -1 41 97q2 7 -6 7q-2 0 -6 -1q-12 -2 -27 -4q-33 -83 -95 -122q-3 -2 -6 0q-2 4 0 7q50 37 81 112q-39 -5 -46 -11z
" />
    <glyph glyph-name="uni310D" unicode="&#x310d;" 
d="M90 189q17 -7 22 -19q0 -4 -4 -5q-4 -2 -24 -28q-31 -40 -48 -56q15 -15 38 -35q34 -27 31 -44q-1 -9 -13 -12q-7 0 -15 15q-14 26 -54 75v2q49 57 62 101q0 6 5 6zM104 89v2q56 56 57 87q1 6 7 6q12 -7 21 -23q0 -4 -5 -5q-5 -2 -8 -5q-20 -29 -58 -62q71 -57 71 -81
q1 -13 -14 -16q-6 2 -11 11q-25 51 -60 86z" />
    <glyph glyph-name="uni310E" unicode="&#x310e;" 
d="M22 176h12q32 0 113 17q22 4 24 4q11 -1 19 -11q6 -7 -3 -10h-2q-8 2 -18 2q-19 -1 -67 -9q9 -9 11 -13q1 -1 0 -2v-1q0 -2 -7 -8l-1 -1q-2 -1 -18 -25q-5 -7 -7 -10q4 1 11 2q30 3 47 10q1 0 3 1q3 2 5 2q23 -8 31 -21q0 -3 -4 -5q-3 -2 -4 -4q-2 -3 -7 -16
q-41 -96 -67 -94q-3 0 -4 5q0 3 -1 5l-1 2q-4 8 -21 20q-2 7 4 8q1 -1 3 -2q11 -7 21 -9q26 4 52 84q1 7 -5 6q-43 -3 -55 -10q-1 0 -6 -3q-10 -5 -12 -5q-9 4 -15 17q1 5 4 6q14 8 29 44q1 3 2 11q1 3 1 5q-17 -2 -42 -6l-11 -2q-20 8 -14 16z" />
    <glyph glyph-name="uni310F" unicode="&#x310f;" 
d="M63 178l5 1q51 1 98 14q8 2 10 2q10 -2 19 -12q5 -9 -3 -11q-5 -2 -21 1h-3q-28 -1 -74 -8q-1 0 -4 -1q-6 -2 -9 -2q-6 1 -10 4v-2q0 -132 -49 -170q-3 -2 -6 0t-1 5q37 33 36 132v4q1 29 -4 48q0 2 3 2q7 0 13 -7z" />
    <glyph glyph-name="uni3110" unicode="&#x3110;" 
d="M158 156v-151q-2 -11 -8 -13q-12 8 -16 19q0 1 1 5q7 18 7 42v16q-3 -1 -10 -4q-52 -23 -58 -28q-2 -1 -6 -5q-4 -5 -6 -5q-12 7 -17 18q0 3 4 8q5 4 6 8q4 32 5 67q-1 13 -4 20q-1 4 -1 6q1 2 4 2q20 -7 22 -17q0 -1 -2 -3q-3 -6 -4 -12q-1 -10 -3 -32q-4 -32 -3 -37
q13 5 37 12t36 11v80q0 15 -6 27q-2 4 -2 6q1 3 5 4q26 -7 27 -16q0 -2 -2 -5q-7 -9 -6 -23z" />
    <glyph glyph-name="uni3111" unicode="&#x3111;" 
d="M37 77v3q76 70 79 113q1 0 2 1q2 2 4 1q13 -12 20 -24q1 -3 -2 -6q-2 -1 -5 -2t-5 -3q-41 -50 -79 -80q9 -5 32 -15q94 -40 91 -58q0 -19 -17 -15q-3 3 -9 8q-28 31 -111 77z" />
    <glyph glyph-name="uni3112" unicode="&#x3112;" 
d="M115 119v-40q-1 -19 4 -66v-6q-1 -10 -8 -12q-12 8 -18 28q0 2 1 5q6 19 6 64v69q-31 -4 -54 -9q-2 0 -5 -2q-4 -2 -6 -2q-9 3 -17 18q1 1 4 1q44 0 133 18q1 0 3 1q8 2 12 2q10 -1 20 -12q7 -9 -2 -11q-3 -1 -11 1q-9 1 -15 1q-9 0 -39 -3q-6 -1 -9 -1q-1 -23 1 -44z
" />
    <glyph glyph-name="uni3113" unicode="&#x3113;" 
d="M104 58v5q-30 -3 -35 -10q-5 -5 -8 -5q-12 5 -17 19q0 1 2 3q6 5 6 13v41q1 12 -8 32q-2 6 -2 7q16 5 30 -10q0 -2 -2 -5q-4 -5 -3 -10v-65q19 0 37 3v74q0 22 -8 38q-1 2 -1 3q-1 4 1 5l1 1q17 0 30 -15q-4 -7 -5 -12q-2 -37 -3 -68v-23q9 1 29 4q-13 -2 5 1q3 0 5 -4
q2 5 2 8q1 22 2 48q0 9 -4 18q-1 2 -1 3q0 5 4 5q23 -8 24 -16v-1l-1 -2q-7 -5 -7 -11q-1 -66 -9 -81h-3q-9 11 -9 18q-8 -1 -29 -2q4 0 -8 -1v-10q0 -20 1 -41q27 3 53 8h7q12 -1 20 -12q7 -11 -4 -12q-2 0 -7 1q-16 3 -24 3q-35 0 -122 -13q-16 -2 -17 -2q-19 7 -16 16
q15 2 45 4q30 3 45 4q4 23 4 46z" />
    <glyph glyph-name="uni3114" unicode="&#x3114;" 
d="M128 198h3q18 -14 19 -23q0 -3 -6 -4q-5 -1 -6 -3q-43 -48 -94 -74q-4 -3 -7 0q-2 4 2 6q61 42 84 85q1 2 1 5q2 6 4 8zM138 69v-37q0 -41 -8 -46q-12 4 -18 21q0 1 1 3q7 11 7 22v35q0 6 -1 11q-45 -38 -84 -51q-7 2 -3 7q81 41 124 118q1 1 1 3q2 6 6 6q10 -6 18 -18
q1 -1 0 -4v-1q-1 -2 -5 -3q-4 -2 -5 -3q-15 -21 -40 -44q7 -3 10 -7q3 -3 -2 -10q-1 -1 -1 -2z" />
    <glyph glyph-name="uni3115" unicode="&#x3115;" 
d="M162 175q2 10 -4 9q-32 -1 -90 -11q-12 -2 -13 -2q-14 6 -19 22q1 0 2 1h1q76 -4 128 12q23 -10 27 -22q-1 -2 -4 -4q-13 -8 -19 -39q-3 -17 -12 -21q-4 2 -7 6q-13 -1 -39 -8q-18 -5 -23 -5q-5 1 -11 4q-1 -83 -53 -131q-3 -2 -7 0q-2 3 0 6q40 47 39 116q0 7 -3 20
q-1 5 -1 7q4 7 19 -8q17 1 51 10q12 3 14 3q5 0 13 -6q1 5 4 15q5 17 7 26z" />
    <glyph glyph-name="uni3116" unicode="&#x3116;" 
d="M166 161v-31q1 -26 2 -101q-1 -22 -12 -27q-5 0 -10 9h-7q-13 3 -49 -4q-15 -2 -19 -2q-3 0 -8 5l-3 3q-1 2 -3 2v-1q-1 -13 -6 -18q-10 4 -15 21q0 2 1 4q10 19 10 80v37q0 10 -5 29q-2 9 -2 11q1 3 4 2l2 -1q4 -3 6 -5q77 8 96 21q22 -7 28 -18q0 -2 -4 -6
q-6 -6 -6 -10zM85 119q0 2 4 4h1q35 -23 34 -37q-5 -23 -17 -13q-6 17 -17 35q-5 8 -5 11zM57 24h10q20 -2 59 6q6 1 7 1q5 0 12 -5q0 3 2 10q5 27 4 40v45q0 36 -2 42q-3 9 -13 8q-20 0 -70 -12l-5 3v-19q0 -36 -3 -93q-1 -21 -1 -26z" />
    <glyph glyph-name="uni3117" unicode="&#x3117;" 
d="M84 119v-103q-2 -21 -9 -25q-9 6 -11 21q0 3 1 14q4 29 4 56v42q0 20 -3 39h-2q-4 -1 -11 -3q-8 -2 -11 -2q-12 4 -16 19q0 1 2 1q68 2 116 16q1 0 2 1q6 2 9 2q23 -9 31 -24q0 -3 -4 -6q-5 -3 -5 -5q-26 -91 -51 -93q-2 0 -4 5q-1 4 -3 6q0 1 -1 2q-3 5 -18 14
q-6 3 -6 6q0 4 5 6q2 -1 7 -3q15 -7 17 -7q20 -2 33 69q1 8 -11 9q-14 0 -69 -11q13 -13 13 -19q0 -2 -1 -4q-4 -8 -4 -23z" />
    <glyph glyph-name="uni3118" unicode="&#x3118;" 
d="M190 120h-18q-32 1 -58 -5q-1 -3 -2 -10q-4 -14 -11 -40v-3q10 2 28 6q9 3 14 4l1 1q8 4 11 4q10 -4 21 -17q1 -1 1 -3v-1q0 -3 -7 -6q-3 -1 -4 -2t-7 -12q-21 -33 -31 -44q-4 -4 -7 -3q-4 3 -2 7q13 19 23 49q4 11 -4 10q-29 -2 -40 -10q-2 -1 -5 -4q-6 -4 -8 -4
q-9 3 -13 16q0 3 4 7q8 6 11 15q2 3 7 27q1 6 2 10q-30 -8 -46 -14q-1 0 -4 -1q-5 -2 -8 -2q-4 0 -16 14q-3 4 -4 5q-1 2 1 3q10 -1 67 8q9 1 14 2q5 28 5 46q0 12 -5 22l1 2q0 2 1 2q35 -7 35 -13q0 -3 -1 -4l-4 -4q-3 -2 -3 -3q-2 -7 -5 -22q-4 -15 -6 -23q14 3 37 8
q4 1 6 1q1 0 4 1q5 2 8 2q9 -1 18 -11q6 -9 -1 -11z" />
    <glyph glyph-name="uni3119" unicode="&#x3119;" 
d="M93 191q4 4 17 -10q12 -13 8 -20q-1 -2 -5 -9l-3 -6l-35 -60q-28 -47 -36 -60q45 5 92 10q23 1 23 2q-4 12 -16 40l-1 2q-1 3 1 4q1 1 5 0q22 -16 41 -54q13 -35 -9 -38q-10 0 -13 20q-1 9 -3 11q-52 -7 -98 -14q-4 -1 -12 -4q-11 -5 -15 -3q-13 9 -17 24q-1 5 9 14l1 1
q29 38 61 111q3 5 3 21q-3 15 2 18z" />
    <glyph glyph-name="uni311A" unicode="&#x311a;" 
d="M117 113l-1 -44v-57q-2 -18 -10 -22q-12 7 -15 19q0 2 3 13q6 21 6 32l1 55q-1 15 -7 20q-13 14 -59 43q-10 8 -2 19q7 6 19 -2q8 -5 39 -40q17 -19 18 -19q31 29 45 51q2 4 4 10q1 6 4 6q14 -3 24 -21q0 -3 -6 -5q-4 -1 -5 -3q-10 -9 -26 -22q-37 -31 -32 -33z" />
    <glyph glyph-name="uni311B" unicode="&#x311b;" 
d="M115 153v-17q1 -7 4 -18q2 -6 2 -9q-1 -5 -11 -9q-1 0 -2 1q-4 1 -13 1q-42 -2 -44 -46q3 -44 49 -47q32 -3 45 20q4 7 10 3q5 -4 1 -12q-14 -30 -56 -30q-61 5 -65 67q4 57 66 60v7q1 31 -5 46q-23 -2 -28 -3q-2 0 -7 -1q-19 -4 -23 -4q-9 3 -19 16q0 2 1 3q76 2 130 12
q3 0 9 2q9 2 13 2q10 -1 19 -14q5 -9 -5 -9q-1 0 -4 1q-9 1 -14 1q-14 0 -58 -4q10 -6 10 -9t-4 -8q-1 -1 -1 -2z" />
    <glyph glyph-name="uni311C" unicode="&#x311c;" 
d="M103 103v8v25q-21 -2 -51 -8q-15 -2 -17 -2q-10 3 -17 15q0 5 4 5q34 -3 80 5q0 15 -2 32q0 3 -4 13l-1 4q0 5 12 2q15 -4 16 -9q0 -2 -2 -6q-3 -3 -3 -6q-1 -16 -1 -28h3q11 1 26 4q4 0 11 2q8 1 11 1q20 -4 25 -19q0 -5 -4 -5q-3 0 -8 1q-15 2 -28 2q-18 0 -35 -1
q1 -24 4 -38q1 -2 1 -3q-1 -9 -11 -11h-3q-9 1 -13 1q-37 -2 -39 -37q3 -40 47 -42q25 -1 36 11q6 9 9 4q3 -6 -2 -15q-16 -22 -46 -24q-55 6 -61 62q4 53 63 57z" />
    <glyph glyph-name="uni311D" unicode="&#x311d;" 
d="M84 103v-44q-1 -50 38 -47q11 0 22 2q4 1 6 1q13 -3 18 -17q2 -7 -26 -7q-47 -1 -61 18q-14 16 -12 74v18q-1 0 -5 -1q-3 0 -4 -1q-11 -1 -24 -5q-5 -2 -6 -2q-15 6 -17 17q13 1 39 4q12 1 17 2v54q0 6 -3 16q0 -1 -1 2q0 6 3 6q20 -4 26 -13v-2q0 1 -1 -2q0 -1 -2 -2
q-7 -7 -7 -24v-33q5 1 14 2q14 3 35 6q0 5 1 14q2 18 2 27q-1 9 -4 24q-1 4 3 5q15 -3 26 -11q1 -1 1 -3v-1t-2 -4q-3 -4 -4 -6q-1 -10 -4 -31q-1 -8 -2 -11q17 4 29 4q11 -2 19 -13q4 -9 -7 -11q-3 0 -14 2q-8 2 -10 2h-9q-9 -1 -13 -1q-12 -50 -27 -74q-2 -2 -4 -1
q-3 1 -2 3q11 31 18 70q-24 -3 -46 -6z" />
    <glyph glyph-name="uni311E" unicode="&#x311e;" 
d="M57 160l3 2q13 -7 18 -17q1 -2 -1 -5q-1 -2 -5 -4q-3 -1 -3 -2q-1 -2 -3 -5q-9 -17 -16 -27l12 2q26 3 38 5q8 29 10 65q-21 -3 -50 -9q-11 -2 -12 -2q-16 6 -17 21h13q67 1 110 14q7 2 9 2q9 -3 18 -14q5 -9 -2 -11q-10 1 -28 2q-21 0 -30 -1q1 -1 3 -2q15 -10 14 -15
q0 -2 -2 -4q-6 -5 -8 -16q-3 -13 -7 -27q30 5 34 7q2 0 5 2q4 2 6 2q12 -6 24 -19q1 -2 1 -4q0 -3 -4 -5q-5 -3 -7 -7q-13 -47 -50 -87q-11 -10 -15 -4q37 45 45 96q-1 10 -9 10q-6 0 -27 -3q-5 -1 -8 -1q-35 -84 -86 -108q-2 -1 -4 2q-1 2 1 4q45 33 68 98q-39 -6 -46 -9
q-3 -1 -9 -6q-4 -3 -6 -3q-9 3 -13 19q0 4 5 7q17 6 29 41q1 2 1 8q1 6 1 8z" />
    <glyph glyph-name="uni311F" unicode="&#x311f;" 
d="M16 177q0 4 8 3q63 5 74 13q1 0 2 2q3 2 5 2q20 -7 28 -17v-1q1 -2 -1 -4l-3 -3q-7 -4 -7 -8q-6 -89 65 -148q8 -7 9 -9q-3 -20 -27 -11q-64 56 -62 172q0 11 -8 10q-18 -3 -48 -12q-16 -4 -18 -4q-15 7 -17 15z" />
    <glyph glyph-name="uni3120" unicode="&#x3120;" 
d="M53 95l56 -2q37 49 34 60q4 4 5 3q18 -11 23 -23q0 -2 -3 -5q-1 -1 -6 -3q-6 -2 -7 -3q-59 -70 -98 -106q24 5 66 15q16 4 25 6q-2 5 -6 12q-2 4 -3 5q-6 10 -6 13q1 4 8 -1q43 -36 46 -56q0 -13 -12 -15q-11 -1 -14 13q-2 8 -8 20q-91 -27 -107 -42q-1 -1 -5 -1
q-3 0 -16 25q-2 5 1 6q1 1 7 3q9 3 13 5q19 16 54 58q-6 -1 -16 -2q-24 -2 -44 -9q-9 3 -15 23q0 4 7 6q10 3 15 8q53 54 53 83q1 4 4 6q14 -6 23 -19q1 -3 -1 -5t-7 -4l-1 -1q-4 -4 -14 -16q-34 -41 -51 -56q-1 -1 0 -1z" />
    <glyph glyph-name="uni3121" unicode="&#x3121;" 
d="M34 181h12q64 1 88 16q4 2 5 2q26 -12 27 -22q0 -3 -4 -5l-2 -2q-3 -2 -3 -3q-10 -41 -31 -76q62 -63 60 -81q-1 -11 -11 -13q-9 0 -18 17q-18 31 -42 58q-26 -39 -65 -68q-1 0 -3 -2q-15 -10 -20 -7q-3 2 0 5q45 30 76 87q-20 25 -49 54q-5 5 -5 9q1 4 6 2
q25 -16 58 -47q12 25 20 55q6 19 -14 13h-1q-55 -11 -70 -13q-11 4 -17 15q-3 6 3 6z" />
    <glyph glyph-name="uni3122" unicode="&#x3122;" 
d="M74 168h-1q-8 -2 -17 8q-11 12 -4 13h33q35 1 61 11l2 1q18 -4 31 -21q2 -3 -2 -7l-1 -1q-6 -2 -7 -4q-3 -4 -10 -16q-12 -20 -19 -28q-7 -5 -10 0q17 33 18 52q0 7 -4 6q-19 0 -55 -11q-5 -1 -7 -2q13 -13 13 -22q0 -4 -5 -8q-3 -3 -5 -6q-6 -8 -19 -25q-8 -11 -11 -15
q0 -1 -2 -4q-2 -2 -3 -4q57 5 91 13q4 1 10 4q5 3 6 3q23 -12 28 -22v-1q1 -1 -1 -3q-1 -2 -5 -4q-5 -2 -6 -5q-1 -1 -2 -4q-26 -53 -43 -72q-3 -4 -7 -3q-3 2 -2 7q21 40 28 68q0 1 1 2q4 15 -4 15q-19 -3 -64 -9q-16 -3 -18 -3q-4 -1 -12 -4q-4 -2 -5 -2q-9 2 -18 19
q0 2 5 5q4 2 5 3q34 41 37 76z" />
    <glyph glyph-name="uni3123" unicode="&#x3123;" 
d="M35 198q0 1 3 4q18 -4 31 -15q3 -2 2 -5q0 -1 -4 -5q-3 -4 -4 -6q-2 -6 -8 -59q-1 -11 -1 -15q4 0 14 2q74 8 82 13q1 0 2 2q5 3 7 3q15 -6 26 -19q3 -3 0 -7l-4 -4q-3 -2 -4 -3q-26 -85 -37 -95q-7 -4 -7 2q18 53 20 89q1 12 -11 11q-62 -2 -89 -13q-1 0 -3 -2t-3 -2
q-11 3 -22 18q0 2 4 7q5 5 6 9q6 36 5 66q0 4 -4 20z" />
    <glyph glyph-name="uni3124" unicode="&#x3124;" 
d="M116 83v-51q-2 -22 24 -20q15 0 30 5q7 2 9 2q13 -3 17 -15q-1 -9 -36 -10h-34q-25 1 -26 24v63q1 10 -4 22q-1 1 -1 2q-17 -78 -73 -116q-3 -1 -5 1t0 5q51 44 62 121q-22 -5 -41 -11q-20 8 -18 18q36 3 61 8q2 20 2 42q0 4 -2 14q-2 7 -2 9q-1 4 3 5q1 0 3 -1
q27 -7 24 -13q0 -1 -2 -3q-3 -4 -3 -6q-1 -23 -4 -44q25 5 48 11q5 1 6 1q14 -4 19 -15q2 -7 -14 -7q-23 1 -61 -5q-1 -3 -1 -8q23 -4 28 -11q0 -4 -4 -7q-5 -4 -5 -10z" />
    <glyph glyph-name="uni3125" unicode="&#x3125;" 
d="M129 194q1 4 6 4q12 -7 26 -23q2 -2 -1 -6v-1q-5 -1 -8 -4q-40 -68 -100 -146q53 2 103 8q5 1 6 1q10 -1 19 -12q8 -11 0 -15q-33 7 -64 6q-54 -2 -66 -11q-3 -2 -5 -3q-4 -3 -6 0q-8 13 -11 23q-1 4 1 5t4 3q4 2 6 4q59 65 90 150q2 2 0 17z" />
    <glyph glyph-name="uni3126" unicode="&#x3126;" 
d="M57 169q-1 5 2 6q26 -6 29 -15v-3q-1 -1 -2 -3q-3 -4 -3 -5q5 -115 -60 -162q-3 -2 -6 0t0 5q51 49 47 141q0 19 -6 32q-1 3 -1 4zM130 158v-92q1 -48 39 -51q3 0 8 2h1q12 -2 18 -13q1 -11 -18 -12q-61 3 -63 74v99q-1 10 -5 19q-2 4 -2 6q-1 5 4 5q17 -5 26 -17v-2
q1 -2 0 -3q-8 -8 -8 -15z" />
    <glyph glyph-name="uni3127" unicode="&#x3127;" 
d="M115 175v-127v-35q0 -26 -10 -26q-8 6 -14 32q0 2 2 5q4 6 4 11q0 9 1 23q1 34 1 61v49q0 13 -6 30q-2 5 -2 6q1 4 4 5q19 -5 26 -18q0 -3 -1 -4l-1 -2q-4 -7 -4 -10z" />
    <glyph glyph-name="uni3128" unicode="&#x3128;" 
d="M26 -9q-4 -1 -5 2q-2 2 1 4q47 40 79 89q-36 38 -70 66q-3 2 -2 4t5 2q36 -22 77 -57q32 56 32 97q0 4 5 5q12 -6 25 -19q2 -2 0 -7l-2 -2q-5 -3 -6 -9q-13 -37 -40 -77q63 -55 66 -82q-1 -10 -10 -14q-7 -1 -12 8q-18 31 -55 72q-41 -53 -88 -82z" />
    <glyph glyph-name="uni3129" unicode="&#x3129;" 
d="M175 168v-24q0 -30 7 -95q2 -22 2 -26q0 -13 -6 -27q-1 -2 -4 -2q-11 4 -16 22v3q-44 -5 -5 -1q-39 -4 -83 -13q-12 -2 -19 -9q-4 -4 -7 -4q-7 1 -17 21q0 5 5 8q3 2 5 4q16 39 18 123q0 19 -6 31q-1 3 -1 4q-1 6 4 6q29 -10 30 -20q0 -2 -2 -3q-3 -3 -4 -8
q-7 -86 -24 -134q33 1 96 4q7 1 10 1q-1 11 -1 40q0 75 -7 99q-2 9 -10 19q0 5 3 7q26 -5 35 -13q1 -1 1 -3q0 -1 -2 -5q-2 -3 -2 -5z" />
    <glyph glyph-name="uni3220" unicode="&#x3220;" 
d="M50 90v5h112v-5h-112zM51 -28h-6q-29 56 -29 118q0 58 29 118h6q-28 -60 -27 -118q-1 -61 27 -118zM161 208h5q29 -56 29 -118q0 -64 -29 -118h-5q27 54 26 118q1 60 -26 118z" />
    <glyph glyph-name="uni3221" unicode="&#x3221;" 
d="M40 35v5h130v-5h-130zM56 152v5h100v-5h-100zM51 -28h-6q-29 56 -29 118q0 58 29 118h6q-28 -60 -27 -118q-1 -61 27 -118zM161 208h5q29 -56 29 -118q0 -64 -29 -118h-5q27 54 26 118q1 60 -26 118z" />
    <glyph glyph-name="uni3222" unicode="&#x3222;" 
d="M40 24v5h132v-5h-132zM49 154v5h115v-5h-115zM52 92v6h108v-6h-108zM51 -28h-6q-29 56 -29 118q0 58 29 118h6q-28 -60 -27 -118q-1 -61 27 -118zM161 208h5q29 -56 29 -118q0 -64 -29 -118h-5q27 54 26 118q1 60 -26 118z" />
    <glyph glyph-name="uni3223" unicode="&#x3223;" 
d="M59 17v145h93v-145h-93zM72 54l-3 3q24 27 22 67v33h-28v-135h85v47h-21q-10 0 -10 12v76h-22v-33q2 -42 -23 -70zM148 157h-27v-76q0 -7 6 -7h21v83zM51 -28h-6q-29 56 -29 118q0 58 29 118h6q-28 -60 -27 -118q-1 -61 27 -118zM161 208h5q29 -56 29 -118
q0 -64 -29 -118h-5q27 54 26 118q1 60 -26 118z" />
    <glyph glyph-name="uni3224" unicode="&#x3224;" 
d="M55 157v5h103v-5h-60l-6 -57h50v-77h23v-6h-116v6h29l9 72h-31v5h31l6 57h-38zM138 95h-47l-8 -72h55v72zM51 -28h-6q-29 56 -29 118q0 58 29 118h6q-28 -60 -27 -118q-1 -61 27 -118zM161 208h5q29 -56 29 -118q0 -64 -29 -118h-5q27 54 26 118q1 60 -26 118z" />
    <glyph glyph-name="uni3225" unicode="&#x3225;" 
d="M42 123v6h61v58l5 -1v-57h61v-6h-127zM152 10l-30 76l4 2l30 -76zM59 10l-3 3l30 75l4 -2zM51 -28h-6q-29 56 -29 118q0 58 29 118h6q-28 -60 -27 -118q-1 -61 27 -118zM161 208h5q29 -56 29 -118q0 -64 -29 -118h-5q27 54 26 118q1 60 -26 118z" />
    <glyph glyph-name="uni3226" unicode="&#x3226;" 
d="M35 101v5l49 11v65h5v-64l82 17v-5l-82 -18v-70q-1 -18 14 -16h39q17 -1 15 15v26l4 -2v-24q1 -21 -19 -20h-39q-20 -1 -19 21v69zM51 -28h-6q-29 56 -29 118q0 58 29 118h6q-28 -60 -27 -118q-1 -61 27 -118zM161 208h5q29 -56 29 -118q0 -64 -29 -118h-5q27 54 26 118
q1 60 -26 118z" />
    <glyph glyph-name="uni3227" unicode="&#x3227;" 
d="M46 21l-3 4q38 56 40 124l1 28h5l-1 -29q-2 -66 -42 -127zM123 151l-1 29h4l2 -29q1 -67 39 -126l-4 -3q-38 59 -40 129zM51 -28h-6q-29 56 -29 118q0 58 29 118h6q-28 -60 -27 -118q-1 -61 27 -118zM161 208h5q29 -56 29 -118q0 -64 -29 -118h-5q27 54 26 118
q1 60 -26 118z" />
    <glyph glyph-name="uni3228" unicode="&#x3228;" 
d="M46 25l-4 4q46 51 44 112h-43v6h43v44h4v-44h44v-102q0 -11 8 -11h14q10 0 10 10v29l4 -1v-28q2 -17 -14 -15h-14q-14 -1 -13 16v96h-39q3 -63 -44 -116zM51 -28h-6q-29 56 -29 118q0 58 29 118h6q-28 -60 -27 -118q-1 -61 27 -118zM161 208h5q29 -56 29 -118
q0 -64 -29 -118h-5q27 54 26 118q1 60 -26 118z" />
    <glyph glyph-name="uni3229" unicode="&#x3229;" 
d="M52 94v5h51v75h5v-75h51v-5h-51v-79h-5v79h-51zM51 -28h-6q-29 56 -29 118q0 58 29 118h6q-28 -60 -27 -118q-1 -61 27 -118zM161 208h5q29 -56 29 -118q0 -64 -29 -118h-5q27 54 26 118q1 60 -26 118z" />
    <glyph glyph-name="uni4E00" unicode="&#x4e00;" 
d="M196 91h-181v8h181v-8z" />
    <glyph glyph-name="uni4E01" unicode="&#x4e01;" 
d="M73 -21l-2 8h27q12 -1 11 10v179h-95v8h183v-8h-80v-183q0 -15 -16 -14h-28z" />
    <glyph glyph-name="uni4E03" unicode="&#x4e03;" 
d="M13 104l69 13v85h8v-84l106 20l1 -7l-107 -20v-97q-2 -21 20 -19h51q24 -3 21 18v25l7 -1v-24q3 -29 -28 -26h-51q-30 -2 -28 27v96l-67 -13z" />
    <glyph glyph-name="uni4E07" unicode="&#x4e07;" 
d="M20 -27l-5 4q34 43 44 76q11 32 11 88v36h-53v8h176v-8h-116v-36v-25h93v-121q1 -15 -13 -14h-30l-2 7h29q10 -1 9 8v113h-87q0 -70 -56 -136z" />
    <glyph glyph-name="uni4E08" unicode="&#x4e08;" 
d="M196 -26q-64 35 -93 65q-24 -29 -87 -66l-4 6q60 35 87 66q-30 30 -49 84l7 3q20 -55 46 -82q28 33 26 94v4h-111v7h111v52h7v-52h57v-7h-57v-4q2 -66 -28 -99q31 -31 91 -64z" />
    <glyph glyph-name="uni4E09" unicode="&#x4e09;" 
d="M193 -8h-175v7h175v-7zM181 176h-151v7h151v-7zM173 89h-135v7h135v-7z" />
    <glyph glyph-name="uni4E0A" unicode="&#x4e0a;" 
d="M182 116h-80v-120h96v-8h-183v8h79v209h8v-82h80v-7z" />
    <glyph glyph-name="uni4E0B" unicode="&#x4e0b;" 
d="M100 -25h-7v202h-79v7h183v-7h-97v-202zM178 69l-70 46l4 7l70 -47z" />
    <glyph glyph-name="uni4E0C" unicode="&#x4e0c;" 
d="M148 -21h-7v195h-68v-51q0 -57 -10 -84q-9 -28 -42 -64l-6 5q33 34 42 61q9 25 9 82v51h-49v8h176v-8h-45v-195z" />
    <glyph glyph-name="uni4E0D" unicode="&#x4e0d;" 
d="M193 180h-68q-37 -78 -109 -136l-4 6q71 58 104 130h-97v8h174v-8zM109 -26h-7v148h7v-148zM193 48l-66 65l5 5l66 -65z" />
    <glyph glyph-name="uni4E0E" unicode="&#x4e0e;" 
d="M135 -21l-2 7h28q11 -1 10 9v102h-125l7 110l8 -1l-3 -44h131v-7h-132l-3 -51h124v-110q1 -16 -15 -15h-28zM153 45h-138v8h138v-8z" />
    <glyph glyph-name="uni4E10" unicode="&#x4e10;" 
d="M185 129h-77v-45h74v-79q1 -26 -30 -25h-32l-2 7h34q23 -1 22 18v72h-140l3 77h8l-4 -70h60v97h-86v7h180v-7h-87v-45h77v-7z" />
    <glyph glyph-name="uni4E11" unicode="&#x4e11;" 
d="M197 -10h-183v7h46l6 91h-38v7h39l5 84h-42v8h139l-4 -190h32v-7zM73 88l-5 -91h89l2 91h-86zM162 179h-82l-6 -84h85z" />
    <glyph glyph-name="uni4E13" unicode="&#x4e13;" 
d="M162 -28l-120 66l4 7l70 -39l48 61h-112v7q3 7 8 24q3 10 5 15h-49v8h52q4 17 11 39h-49v8h51q5 20 9 39l7 -2q-3 -18 -9 -37h95v-8h-96q-1 -4 -4 -13q-5 -18 -8 -26h120v-8h-122q-2 -5 -5 -15q-2 -7 -8 -24h114v-7l-51 -65l43 -23z" />
    <glyph glyph-name="uni4E14" unicode="&#x4e14;" 
d="M197 -13h-183v8h30v195h124v-195h29v-8zM51 183v-60h109v60h-109zM51 115v-57h109v57h-109zM51 50v-55h109v55h-109z" />
    <glyph glyph-name="uni4E15" unicode="&#x4e15;" 
d="M17 52l-4 5q63 52 100 122h-90v8h166v-8h-67q-40 -76 -105 -127zM190 -9h-168v7h168v-7zM109 25h-7v104h7v-104zM193 56l-71 70l5 5l71 -70z" />
    <glyph glyph-name="uni4E16" unicode="&#x4e16;" 
d="M162 43h-70v88h-43v-137h141v-8h-148v145h-28v7h28v61h7v-61h43v66h8v-66h55v66h7v-66h35v-7h-35v-88zM100 50h55v81h-55v-81z" />
    <glyph glyph-name="uni4E18" unicode="&#x4e18;" 
d="M196 -11h-180v7h32v186q65 2 125 9l1 -7q-65 -8 -118 -9v-71h131v-7h-40v-101h49v-7zM56 97v-101h84v101h-84z" />
    <glyph glyph-name="uni4E19" unicode="&#x4e19;" 
d="M39 -22h-7v161h70v43h-86v7h179v-7h-86v-43h71v-151q1 -9 -11 -9h-29l-3 7h30q6 -1 6 5v141h-64q3 -51 -53 -104l-6 5q55 51 52 99h-63v-154zM154 31l-49 61l6 4l49 -60z" />
    <glyph glyph-name="uni4E1A" unicode="&#x4e1a;" 
d="M195 -12h-180v8h64v209h7v-209h38v209h8v-209h63v-8zM154 57l-7 2l34 91l7 -3zM57 57l-34 90l7 3l34 -91z" />
    <glyph glyph-name="uni4E1B" unicode="&#x4e1b;" 
d="M195 9q-47 49 -58 120q-7 -64 -61 -121l-6 5q66 68 62 161v27h7v-26q4 -101 61 -161zM18 8l-6 5q29 38 39 72q11 34 11 89v27h8v-27q0 -7 -1 -21q0 -14 -1 -20l2 1l37 -45l-5 -5l-35 41q-5 -61 -49 -117zM195 -13h-178v8h178v-8z" />
    <glyph glyph-name="uni4E1C" unicode="&#x4e1c;" 
d="M195 158h-122q-17 -38 -32 -64h66v45h7v-45h73v-7h-73v-91q1 -17 -17 -16h-27l-2 7h29q11 -1 10 9v91h-75v7q16 27 33 64h-46v7h50q10 22 16 40l7 -2q-2 -6 -7 -19q-6 -12 -8 -19h118v-7zM193 -3l-50 66l6 4l50 -65zM22 -3l-6 5l50 65l6 -4z" />
    <glyph glyph-name="uni4E1D" unicode="&#x4e1d;" 
d="M104 110v8h4q27 44 49 88l7 -4q-2 -4 -8 -14q-28 -54 -40 -70l44 1q3 4 8 13q10 17 13 24l6 -3q-24 -50 -66 -105l62 2v-7l-76 -3v8h5q20 27 43 63zM22 111v7h3q30 48 47 86l7 -3q-16 -36 -45 -83l44 2q11 19 17 34l7 -3q-23 -49 -59 -101l52 2v-7l-66 -3v7h5
q12 17 39 63zM16 -14v8h179v-8h-179z" />
    <glyph glyph-name="uni4E1E" unicode="&#x4e1e;" 
d="M33 191h140v-7l-53 -36q9 -22 21 -43l44 37l5 -5l-45 -38q21 -31 55 -59l-5 -6q-59 49 -82 110l-3 -2v-106q1 -12 -13 -11h-20l-2 7h21q7 0 7 6v108l56 38h-126v7zM21 138h62v-7q-16 -47 -66 -98l-5 5q46 47 64 93h-55v7zM191 -14h-171v7h171v-7z" />
    <glyph glyph-name="uni4E22" unicode="&#x4e22;" 
d="M24 -13v7h7q40 42 61 75h-77v7h87v46h-71v8h71v48q-58 -2 -76 -2v7q103 3 158 8v-8q-7 0 -24 -1q-33 -2 -51 -3v-49h71v-8h-71v-46h87v-7h-102l5 -3q-22 -35 -57 -71l123 3l-33 37l6 5l53 -60l-6 -5l-14 16z" />
    <glyph glyph-name="uni4E24" unicode="&#x4e24;" 
d="M101 56l-23 28q-6 -30 -31 -66l-6 5q36 50 35 101v2h-40v-149h-8v157h48v44h-59v7h178v-7h-60v-44h48v-141q1 -16 -16 -15h-26l-3 7h29q9 -1 8 8v133h-40v-2q0 -11 -4 -34q4 16 0 -3l35 -50l-6 -4l-31 45q-9 -33 -28 -62l-6 4q31 51 32 104v2h-44v-2q0 -16 -3 -31l27 -33
zM83 178v-44h44v44h-44z" />
    <glyph glyph-name="uni4E25" unicode="&#x4e25;" 
d="M18 -29l-6 4q21 38 19 91v40h50v76h-62v7h174v-7h-62v-76h60v-7h-153v-33q2 -55 -20 -95zM88 182v-76h35v76h-35zM154 123l-6 5l27 37l5 -4zM58 123l-27 38l6 4l27 -37z" />
    <glyph glyph-name="uni4E27" unicode="&#x4e27;" 
d="M195 94h-101q9 -28 27 -50l53 33l4 -6l-53 -33q26 -28 75 -50l-3 -7q-91 40 -111 113h-32v-108l53 27l3 -7l-67 -33l-3 6l7 4v111h-32v7h87v67h-80v7h80v32h7v-32h80v-7h-80v-67h86v-7zM69 114l-31 38l6 4l30 -38zM141 114l-5 4l30 38l6 -4z" />
    <glyph glyph-name="uni4E28" unicode="&#x4e28;" 
d="M109 -24h-8v228h8v-228z" />
    <glyph glyph-name="uni4E2A" unicode="&#x4e2a;" 
d="M109 201q33 -66 90 -108l-4 -6q-55 38 -90 104q-36 -67 -89 -104l-4 6q55 40 90 108h7zM109 -24h-7v135h7v-135z" />
    <glyph glyph-name="uni4E2B" unicode="&#x4e2b;" 
d="M89 124l-66 75l5 5l67 -75zM121 124l-5 5l66 75l6 -5zM109 -27h-8v138h8v-138z" />
    <glyph glyph-name="uni4E2C" unicode="&#x4e2c;" 
d="M64 25l-5 5l64 59v117h7v-233h-7v106zM104 105l-37 52l6 5l37 -52z" />
    <glyph glyph-name="uni4E2D" unicode="&#x4e2d;" 
d="M109 -26h-7v83h-77v101h77v48h7v-48h77v-101h-77v-83zM179 151h-70v-87h70v87zM32 64h70v87h-70v-87z" />
    <glyph glyph-name="uni4E30" unicode="&#x4e30;" 
d="M109 -27h-7v64h-84v8h84v51h-66v7h66v49h-77v7h77v47h7v-47h77v-7h-77v-49h66v-7h-66v-51h84v-8h-84v-64z" />
    <glyph glyph-name="uni4E32" unicode="&#x4e32;" 
d="M109 -27h-7v46h-76v64h76v30h-67v59h67v35h7v-35h67v-59h-67v-30h76v-64h-76v-46zM177 76h-68v-50h68v50zM34 26h68v50h-68v-50zM42 120h60v45h-60v-45zM169 165h-60v-45h60v45z" />
    <glyph glyph-name="uni4E34" unicode="&#x4e34;" 
d="M184 -17h-92v112h92v-112zM99 -10h35v97h-35v-97zM176 87h-35v-97h35v97zM152 106h-8v53h-32q-17 -41 -30 -59l-6 4q29 48 45 103l7 -2l-3 -9q-3 -9 -10 -29h83v-8h-46v-53zM67 -27h-7v234h7v-234zM33 4h-8v176h8v-176z" />
    <glyph glyph-name="uni4E36" unicode="&#x4e36;" 
d="M131 54l-58 72l6 5l58 -72z" />
    <glyph glyph-name="uni4E38" unicode="&#x4e38;" 
d="M179 -18h-27q-17 0 -17 15v152h-54v-13q0 -41 -5 -63l41 -30l-4 -6l-39 29q-9 -41 -57 -92l-5 5q48 52 56 91l-45 34l4 6l42 -32q5 28 5 58v13h-54v7h54v51h7v-51h62v-158q0 -9 8 -8h29q10 -1 9 8v25l7 -1v-26q1 -14 -17 -14z" />
    <glyph glyph-name="uni4E39" unicode="&#x4e39;" 
d="M26 -28l-6 4q27 39 27 104h-35v7h35v11v91h120v-102h32v-7h-32v-87q1 -16 -16 -15h-25l-2 8h25q11 -1 10 10v84h-105q1 -67 -28 -108zM55 98v-11h104v95h-104v-84zM124 108l-40 46l6 4l39 -45z" />
    <glyph glyph-name="uni4E3A" unicode="&#x4e3a;" 
d="M138 -18l-2 7h29q9 -1 8 8v137h-79q1 -91 -75 -161l-5 5q74 69 73 156h-69v8h69v5v60h8v-60v-5h86v-147q1 -14 -14 -13h-29zM141 47l-35 41l5 5l36 -41zM65 155l-33 38l5 5l34 -38z" />
    <glyph glyph-name="uni4E3B" unicode="&#x4e3b;" 
d="M24 151v8h163v-8h-78v-69h70v-8h-70v-82h85v-8h-177v8h85v82h-71v8h71v69h-78zM109 167h-7v40l7 -1v-39z" />
    <glyph glyph-name="uni4E3D" unicode="&#x4e3d;" 
d="M70 48l-24 53l7 3l24 -53zM159 48l-26 52l7 4l26 -53zM195 178h-178v8h178v-8zM124 -23h-8v171h67v-154q1 -17 -15 -16h-18l-3 8h21q9 -1 8 8v146h-52v-163zM36 -23h-8v171h66v-154q1 -17 -16 -16h-18l-2 8h20q10 -1 9 8v146h-51v-163z" />
    <glyph glyph-name="uni4E3E" unicode="&#x4e3e;" 
d="M56 77v7h46v40h7v-40h45v-7h-45v-40h78v-7h-78v-58h-7v58h-79v7h79v40h-46zM14 64l-4 6q50 33 67 71h-59v8h175v-8h-59q15 -37 66 -71l-4 -6q-53 36 -70 77h-41q-17 -41 -71 -77zM146 156l-6 4l28 44l7 -4zM111 163l-19 42l7 3l18 -42zM59 161l-23 37l6 4l24 -38z" />
    <glyph glyph-name="uni4E3F" unicode="&#x4e3f;" 
d="M53 -25l-4 6q43 31 58 65q15 33 15 97v60h8v-60q6 -115 -77 -168z" />
    <glyph glyph-name="uni4E43" unicode="&#x4e43;" 
d="M136 113h52v-108q3 -28 -27 -25h-29l-2 8h31q22 -3 19 17v100h-52v8l30 68h-82v-31q4 -108 -58 -174l-6 5q32 37 44 73t12 96v31h-46v8h144v-8z" />
    <glyph glyph-name="uni4E45" unicode="&#x4e45;" 
d="M143 165v-8q-11 -36 -26 -68q27 -63 79 -111l-5 -6q-50 45 -78 109q-32 -61 -93 -108l-4 5q90 71 119 179h-64q-17 -35 -40 -66l-5 4q39 54 57 112l7 -2q-6 -21 -16 -40h69z" />
    <glyph glyph-name="uni4E47" unicode="&#x4e47;" 
d="M14 81v7l76 8v76q-33 -4 -61 -6v7q73 6 145 19l1 -7q-28 -7 -78 -12v-76l98 10l1 -8l-99 -10v-89q0 -9 9 -9h67q11 -1 10 9v25l7 -2v-26q1 -15 -14 -14h-72q-14 -1 -14 14v91z" />
    <glyph glyph-name="uni4E48" unicode="&#x4e48;" 
d="M34 -10v7h7q63 74 106 158l7 -3q-43 -84 -103 -154l120 4l-42 65l7 4l58 -91l-6 -4l-13 19zM25 74l-6 5q52 59 85 127l6 -3q-33 -70 -85 -129z" />
    <glyph glyph-name="uni4E49" unicode="&#x4e49;" 
d="M196 -27q-62 40 -91 71q-28 -31 -90 -71l-4 6q62 41 89 71q-40 43 -58 129l7 1q16 -81 56 -125q40 44 56 125l7 -1q-16 -85 -58 -130q32 -33 90 -70zM114 144l-25 59l7 3l25 -59z" />
    <glyph glyph-name="uni4E4B" unicode="&#x4e4b;" 
d="M32 155h71v50l8 -1v-49h70l-1 -7q-38 -55 -117 -123l4 -4q21 -31 62 -28h70l-2 -7h-68q-45 -2 -68 31q-7 8 -9 7q-2 2 -14 -13q-1 -2 -5 -8l-16 -21l-5 4q9 15 21 30q12 16 19 15q1 0 4 -1q-1 1 1 -1q76 67 115 119h-140v7z" />
    <glyph glyph-name="uni4E4C" unicode="&#x4e4c;" 
d="M146 -21l-2 7h24q12 -1 11 11v79h-131v101h36l12 30l6 -3l-10 -27h74v-54q2 -15 -15 -13h-20l-2 7h20q11 -1 10 8v45h-103v-87h131v-88q1 -17 -16 -16h-25zM159 34h-142v7h142v-7z" />
    <glyph glyph-name="uni4E4D" unicode="&#x4e4d;" 
d="M89 -27v182h-29q-18 -38 -41 -68l-6 5q36 47 61 115l7 -2q-8 -22 -17 -42h131v-8h-99v-49h84v-8h-84v-51h93v-7h-93v-67h-7z" />
    <glyph glyph-name="uni4E4E" unicode="&#x4e4e;" 
d="M79 -22l-2 8h20q8 -1 7 7v88h-89v7h89v90q-32 -1 -78 -1v7q75 1 159 7l1 -7q-40 -4 -75 -5v-91h85v-7h-85v-91q1 -13 -11 -12h-21zM143 105l-6 4l34 52l6 -4zM70 105l-35 52l6 4l35 -52z" />
    <glyph glyph-name="uni4E4F" unicode="&#x4e4f;" 
d="M18 -18l-6 4q11 15 17 26q8 15 16 14q5 0 9 -4q63 37 111 84h-132v8h69v48l7 -1v-47h67v-8q-50 -50 -117 -90q1 0 1 -1q1 -1 1 -2q13 -24 62 -22h76l-2 -7h-74q-51 -2 -68 24q-6 10 -10 11q-2 1 -10 -11q-2 -4 -9 -15q-6 -8 -8 -11zM25 173v7q96 5 159 11l1 -7
q-76 -8 -160 -11z" />
    <glyph glyph-name="uni4E50" unicode="&#x4e50;" 
d="M31 90l6 92q93 2 142 10l1 -7q-54 -9 -136 -11l-5 -77h66v54h8v-54h74v-7h-74v-94q1 -17 -17 -16h-28l-2 7h30q10 -1 9 9v94h-74zM193 -4l-49 64l6 4l49 -63zM20 -4l-6 5l49 63l6 -4z" />
    <glyph glyph-name="uni4E52" unicode="&#x4e52;" 
d="M197 49h-182v7h35v129q62 1 123 7l1 -7q-63 -7 -117 -7v-49h131v-8h-42v-65h51v-7zM57 121v-65h82v65h-82zM28 -27l-5 6l59 52l6 -5z" />
    <glyph glyph-name="uni4E53" unicode="&#x4e53;" 
d="M196 49h-182v7h36v129q62 1 123 7l1 -7q-65 -7 -117 -7v-49h131v-8h-42v-65h50v-7zM57 121v-65h82v65h-82zM183 -26l-57 51l5 6l57 -51z" />
    <glyph glyph-name="uni4E54" unicode="&#x4e54;" 
d="M15 48l-4 6q66 36 79 71h-72v7h74q7 18 10 46h-4q-52 -2 -69 -2v7q63 2 150 6l1 -7q-7 0 -24 -1q-30 -2 -46 -3q-3 -27 -10 -46h92v-7h-71q20 -41 79 -69l-3 -7q-66 31 -84 76h-15q-15 -40 -83 -77zM30 -27l-4 6q49 30 44 73v18h7v-18q5 -48 -47 -79zM138 -27v97h7v-97
h-7z" />
    <glyph glyph-name="uni4E56" unicode="&#x4e56;" 
d="M109 -28h-7v165h-86v7h86v37q-56 -2 -74 -2v7q90 3 149 7l1 -8q-19 -1 -69 -3v-38h86v-7h-86v-165zM146 25q-9 0 -10 11v87h8v-44q32 17 42 25l4 -6q-9 -7 -42 -25q-3 -1 -4 -2v-34q0 -5 4 -5h35q7 -1 6 6v18l7 -2v-19q1 -10 -11 -10h-39zM18 31l-2 7l51 16v32h-46v7h46
v29h7v-101h-7v25z" />
    <glyph glyph-name="uni4E58" unicode="&#x4e58;" 
d="M15 -10l-3 6q68 40 90 86v60h-86v8h86v31q-12 0 -8 0q-50 -2 -66 -2v7q108 3 149 6v-8q-18 -1 -68 -3v-31h86v-8h-86v-59q26 -52 90 -85l-3 -7q-59 31 -87 77v-95h-7v94q-24 -41 -87 -77zM183 57h-33q-12 0 -13 14v60h7v-30q1 0 2 1q32 13 40 19l4 -6q-20 -11 -46 -21
v-23q0 -7 6 -7h33q6 0 5 7v19l8 -1v-18q1 -15 -13 -14zM18 61l-2 7l50 12v24h-45v8h45v19h7v-74h-7v16z" />
    <glyph glyph-name="uni4E59" unicode="&#x4e59;" 
d="M189 37v-24q4 -30 -32 -27h-104q-31 -1 -30 20q0 13 12 29q30 38 122 144h-126v7h136v-7q-60 -67 -126 -148q-11 -15 -11 -25q-1 -14 23 -13h104q28 -3 24 20v25z" />
    <glyph glyph-name="uni4E5C" unicode="&#x4e5c;" 
d="M136 57l-2 8h24q10 -1 9 7v84l-108 -35v-124q0 -6 6 -6h117q6 0 6 6v30l8 -1v-31q1 -11 -11 -11h-121q-12 -1 -12 12v122l-35 -12l-2 7l37 13v73h7v-71l115 39v-96q0 -14 -13 -14h-25z" />
    <glyph glyph-name="uni4E5D" unicode="&#x4e5d;" 
d="M73 206h8v-54h64v-150q-1 -13 13 -12h18q16 -2 14 13v33l8 -1v-32q2 -23 -22 -21h-19q-20 -1 -19 20v143h-57q0 -64 -13 -98q-12 -35 -50 -72l-6 6q37 35 48 69q13 33 13 95h-56v7h56v54z" />
    <glyph glyph-name="uni4E5E" unicode="&#x4e5e;" 
d="M178 37l8 -2v-33q1 -20 -22 -19h-117q-17 0 -17 15q0 12 12 25q24 26 94 88h-91v7h102v-7q-65 -56 -100 -93q-10 -11 -10 -20q1 -7 10 -7h117q15 -1 14 11v35zM21 116l-6 5q35 37 56 86l6 -3q-7 -19 -17 -34h128v-7h-132q-14 -25 -35 -47z" />
    </font>
</defs>
</svg>
