<?xml version="1.0" standalone="no"?>
<!DOCTYPE svg PUBLIC "-//W3C//DTD SVG 1.1//EN" "http://www.w3.org/Graphics/SVG/1.1/DTD/svg11.dtd" >
<svg xmlns="http://www.w3.org/2000/svg" xmlns:xlink="http://www.w3.org/1999/xlink" version="1.1">
<metadata>
Created by FontForge 20170924 at Thu May  2 10:01:16 2019
 By www-data
Copyright (c) 2019 by Dries Wiewauters. All rights reserved.
</metadata>
<defs>
<font id="NibPro-SemiBold" horiz-adv-x="730" >
  <font-face 
    font-family="Nib Pro SemiBold"
    font-weight="600"
    font-stretch="normal"
    units-per-em="1000"
    panose-1="2 3 6 3 7 4 3 4 3 3"
    ascent="780"
    descent="-220"
    x-height="530"
    cap-height="725"
    bbox="-371 -297 1135 951"
    underline-thickness="60"
    underline-position="-170"
    unicode-range="U+000D-FB02"
  />
<missing-glyph horiz-adv-x="499" 
 />
    <glyph glyph-name="f_f" unicode="ff" horiz-adv-x="610" 
d="M110 90v386h-96v54h90q-13 15 -20 36.5t-7 44.5q0 42 21.5 76t58.5 53.5t82 19.5q39 0 62.5 -14.5t23.5 -38.5q0 -18 -12.5 -29t-34.5 -11q-16 0 -38 10q-24 10 -40 10q-33 0 -53.5 -20.5t-20.5 -53.5q0 -37 29 -60t75 -23h184q-13 15 -20 37t-7 46q0 64 43.5 105.5
t110.5 41.5q37 0 59.5 -14t22.5 -39q0 -18 -13 -29t-34 -11q-15 0 -37 10q-9 4 -18.5 7t-19.5 3q-30 0 -47.5 -19t-17.5 -51q0 -40 28.5 -63.5t75.5 -23.5h56v-54h-81v-402l64 -74h-201l41 90v386h-214v-402l64 -74h-201z" />
    <glyph glyph-name="f_f_i" unicode="ffi" horiz-adv-x="927" 
d="M110 90v386h-96v54h90q-27 32 -27 80q0 43 21.5 77t58.5 53.5t83 19.5q40 0 64 -14.5t24 -39.5q0 -17 -12.5 -28t-34.5 -11q-10 0 -20 3t-20 7t-20 7t-21 3q-33 0 -53.5 -20t-20.5 -54q0 -38 28 -60.5t76 -22.5h184q-27 32 -27 80q0 43 21.5 77t58.5 53.5t83 19.5
q40 0 64 -14.5t24 -39.5q0 -17 -12.5 -28t-34.5 -11q-10 0 -20 3t-20 7t-20 7t-21 3q-33 0 -53.5 -20t-20.5 -54q0 -38 28 -60.5t76 -22.5h285v-454l66 -76h-204l42 93v383h-214v-402l64 -74h-201l41 90v386h-214v-402l64 -74h-201zM819 730.5q17 -17.5 17 -43.5
q0 -25 -16.5 -42t-42.5 -17t-43 16.5t-17 42.5t17 43.5t43 17.5q25 0 42 -17.5z" />
    <glyph glyph-name="f_f_l" unicode="ffl" horiz-adv-x="920" 
d="M110 90v386h-96v54h90q-27 32 -27 80q0 43 21.5 77t58.5 53.5t83 19.5q40 0 64 -14.5t24 -39.5q0 -17 -12.5 -28t-34.5 -11q-10 0 -20 3t-20 7t-20 7t-21 3q-33 0 -53.5 -20t-20.5 -54q0 -38 28 -60.5t76 -22.5h186q-26 32 -26 83q0 64 43 105.5t110 41.5q38 0 60 -14
t22 -39q0 -18 -12.5 -29t-33.5 -11q-10 0 -19.5 3t-18.5 7q-22 10 -38 10q-30 0 -47.5 -19t-17.5 -52q0 -40 28 -63t77 -23h55v-54h-81v-402l64 -74h-201l42 90v386h-217v-402l64 -74h-201zM722 93v562l-86 95h181v-674l66 -76h-204z" />
    <glyph glyph-name="f_i" unicode="fi" horiz-adv-x="617" 
d="M110 90v386h-96v54h90q-27 32 -27 80q0 43 21.5 77t58.5 53.5t83 19.5q40 0 64 -14.5t24 -39.5q0 -17 -12.5 -28t-34.5 -11q-10 0 -20 3t-20 7t-20 7t-21 3q-33 0 -53.5 -20t-20.5 -54q0 -38 28 -60.5t76 -22.5h285v-454l66 -76h-204l42 93v383h-214v-402l64 -74h-201z
M509 730.5q17 -17.5 17 -43.5q0 -25 -16.5 -42t-42.5 -17t-43 17t-17 42q0 26 17 43.5t43 17.5q25 0 42 -17.5z" />
    <glyph glyph-name="f_l" unicode="fl" horiz-adv-x="612" 
d="M110 90v386h-96v54h90q-27 32 -27 83q0 64 43.5 105.5t110.5 41.5q38 0 60 -14t22 -39q0 -18 -12.5 -29t-34.5 -11q-15 0 -37 10q-9 4 -18.5 7t-19.5 3q-31 0 -48 -19t-17 -52q0 -40 27.5 -63t76.5 -23h56v-54h-81v-402l64 -74h-201zM414 93v562l-85 95h180v-674l66 -76
h-204z" />
    <glyph glyph-name=".notdef" horiz-adv-x="499" 
 />
    <glyph glyph-name="nonmarkingreturn" unicode="&#xd;" horiz-adv-x="499" 
 />
    <glyph glyph-name="space" unicode=" " horiz-adv-x="200" 
 />
    <glyph glyph-name="A" unicode="A" horiz-adv-x="653" 
d="M73 94l191 533l-52 98h130l221 -631l79 -94h-221l39 86l-35 98h-269l-34 -95l76 -89h-167zM409 230l-119 334l-118 -334h237z" />
    <glyph glyph-name="Aacute" unicode="&#xc1;" horiz-adv-x="653" 
d="M73 94l191 533l-52 98h130l221 -631l79 -94h-221l39 86l-35 98h-269l-34 -95l76 -89h-167zM409 230l-119 334l-118 -334h237zM194 802q49 9 91 38.5t62 68.5q19 33 43 33q16 0 27 -10.5t11 -26.5q0 -17 -20 -36q-34 -34 -88.5 -56t-125.5 -25v14z" />
    <glyph glyph-name="Abreve" unicode="&#x102;" horiz-adv-x="653" 
d="M73 94l191 533l-52 98h130l221 -631l79 -94h-221l39 86l-35 98h-269l-34 -95l76 -89h-167zM409 230l-119 334l-118 -334h237zM209 819q-40 33 -52 85l12 4q23 -38 55.5 -55.5t78.5 -17.5t78 17.5t55 55.5l12 -4q-12 -53 -51.5 -85.5t-93.5 -32.5t-94 33z" />
    <glyph glyph-name="Acircumflex" unicode="&#xc2;" horiz-adv-x="653" 
d="M73 94l191 533l-52 98h130l221 -631l79 -94h-221l39 86l-35 98h-269l-34 -95l76 -89h-167zM409 230l-119 334l-118 -334h237zM457 778q-86 17 -154 64q-70 -47 -155 -64l-2 14q46 19 86.5 59t60.5 83h20q19 -43 60 -83t86 -59z" />
    <glyph glyph-name="Adieresis" unicode="&#xc4;" horiz-adv-x="653" 
d="M73 94l191 533l-52 98h130l221 -631l79 -94h-221l39 86l-35 98h-269l-34 -95l76 -89h-167zM409 230l-119 334l-118 -334h237zM170 811.5q-13 12.5 -13 31.5t13 31.5t31 12.5q19 0 31 -12.5t12 -31.5t-12 -31.5t-31 -12.5q-18 0 -31 12.5zM374 811.5q-13 12.5 -13 31.5
t13 31.5t31 12.5q19 0 31 -12.5t12 -31.5t-12 -31.5t-31 -12.5q-18 0 -31 12.5z" />
    <glyph glyph-name="Agrave" unicode="&#xc0;" horiz-adv-x="653" 
d="M73 94l191 533l-52 98h130l221 -631l79 -94h-221l39 86l-35 98h-269l-34 -95l76 -89h-167zM409 230l-119 334l-118 -334h237zM285.5 813q-54.5 22 -89.5 56q-19 19 -19 36q0 16 11 26.5t27 10.5q25 0 42 -33q20 -39 62.5 -68.5t91.5 -38.5v-14q-71 3 -125.5 25z" />
    <glyph glyph-name="Amacron" unicode="&#x100;" horiz-adv-x="653" 
d="M73 94l191 533l-52 98h130l221 -631l79 -94h-221l39 86l-35 98h-269l-34 -95l76 -89h-167zM409 230l-119 334l-118 -334h237zM161 846h285v-37h-285v37z" />
    <glyph glyph-name="Aogonek" unicode="&#x104;" horiz-adv-x="653" 
d="M533.5 -168.5q15.5 -23.5 49.5 -35.5l-5 -10q-57 -1 -89.5 28t-32.5 77q0 30 14 58.5t40 50.5h-89l39 86l-35 98h-269l-34 -95l76 -89h-167l42 94l191 533l-52 98h130l221 -631l79 -94h-92q-32 -46 -32 -106q0 -39 15.5 -62.5zM409 230l-119 334l-118 -334h237z" />
    <glyph glyph-name="Aring" unicode="&#xc5;" horiz-adv-x="653" 
d="M73 94l191 533l-52 98h130l221 -631l79 -94h-221l39 86l-35 98h-269l-34 -95l76 -89h-167zM409 230l-119 334l-118 -334h237zM237.5 795.5q-25.5 25.5 -25.5 64.5t25.5 65t63.5 26q39 0 65 -26t26 -65t-26 -64.5t-65 -25.5q-38 0 -63.5 25.5zM349.5 812q19.5 19 19.5 48
t-19.5 48.5t-48.5 19.5t-48 -19.5t-19 -48.5t19 -48t48 -19t48.5 19z" />
    <glyph glyph-name="Atilde" unicode="&#xc3;" horiz-adv-x="653" 
d="M73 94l191 533l-52 98h130l221 -631l79 -94h-221l39 86l-35 98h-269l-34 -95l76 -89h-167zM409 230l-119 334l-118 -334h237zM362 789q-33 0 -85 18q-39 13 -59 13q-37 0 -43 -34l-13 6q1 40 22.5 60.5t60.5 20.5q20 0 38.5 -4.5t44.5 -12.5q39 -13 59 -13q38 0 44 33
l13 -5q-2 -82 -82 -82z" />
    <glyph glyph-name="AE" unicode="&#xc6;" horiz-adv-x="963" 
d="M98 110l360 550l-57 65h451v-157l-95 108h-185v-285h162l66 58v-166l-71 59h-157v-293h224l106 124v-173h-471l44 95v103h-264l-73 -111l63 -87h-191zM475 247v352l-232 -352h232z" />
    <glyph glyph-name="AEacute" unicode="&#x1fc;" horiz-adv-x="963" 
d="M98 110l360 550l-57 65h451v-157l-95 108h-185v-285h162l66 58v-166l-71 59h-157v-293h224l106 124v-173h-471l44 95v103h-264l-73 -111l63 -87h-191zM475 247v352l-232 -352h232zM415 802q49 9 91 38.5t62 68.5q19 33 43 33q16 0 27 -10.5t11 -26.5q0 -17 -20 -36
q-34 -34 -88.5 -56t-125.5 -25v14z" />
    <glyph glyph-name="B" unicode="B" horiz-adv-x="639" 
d="M113 95v551l-68 79h244q129 0 198.5 -44.5t69.5 -126.5q0 -57 -33 -97t-96 -61q84 -20 127 -68t43 -123q0 -99 -75.5 -152t-217.5 -53h-236zM210 678v-262h53q98 0 145.5 33t47.5 102q0 64 -42.5 95.5t-129.5 31.5h-74zM210 368v-321h89q194 0 194 160q0 83 -53.5 122
t-168.5 39h-61z" />
    <glyph glyph-name="C" unicode="C" horiz-adv-x="660" 
d="M588 44q-113 -56 -230 -56q-155 0 -236 93t-81 270q0 120 37.5 207.5t107.5 134t166 46.5q47 0 88.5 -11t69.5 -31l61 36v-219l-50 84q-30 49 -73 75.5t-93 26.5q-98 0 -152.5 -90t-54.5 -249q0 -160 56.5 -246.5t159.5 -86.5q59 0 107.5 30t81.5 87l35 61v-162z" />
    <glyph glyph-name="Cacute" unicode="&#x106;" horiz-adv-x="660" 
d="M588 44q-113 -56 -230 -56q-155 0 -236 93t-81 270q0 120 37.5 207.5t107.5 134t166 46.5q47 0 88.5 -11t69.5 -31l61 36v-219l-50 84q-30 49 -73 75.5t-93 26.5q-98 0 -152.5 -90t-54.5 -249q0 -160 56.5 -246.5t159.5 -86.5q59 0 107.5 30t81.5 87l35 61v-162zM245 802
q49 9 91 38.5t62 68.5q19 33 43 33q16 0 27 -10.5t11 -26.5q0 -17 -20 -36q-34 -34 -88.5 -56t-125.5 -25v14z" />
    <glyph glyph-name="Ccaron" unicode="&#x10c;" horiz-adv-x="660" 
d="M588 44q-113 -56 -230 -56q-155 0 -236 93t-81 270q0 120 37.5 207.5t107.5 134t166 46.5q47 0 88.5 -11t69.5 -31l61 36v-219l-50 84q-30 49 -73 75.5t-93 26.5q-98 0 -152.5 -90t-54.5 -249q0 -160 56.5 -246.5t159.5 -86.5q59 0 107.5 30t81.5 87l35 61v-162zM510 911
q-46 -19 -86.5 -59t-59.5 -83h-20q-20 43 -61 83.5t-86 58.5l2 14q88 -18 155 -64q65 46 154 64z" />
    <glyph glyph-name="Ccedilla" unicode="&#xc7;" horiz-adv-x="660" 
d="M380 -11l-22 -48q44 -4 71 -27.5t27 -57.5q0 -39 -35 -63t-90 -24q-31 0 -66 9l3 12q19 -3 37 -3q41 0 64 15.5t23 45.5q0 57 -91 59l42 81q-148 4 -225 97t-77 266q0 120 37.5 207.5t107.5 134t166 46.5q47 0 88.5 -11t69.5 -31l61 36v-219l-50 84q-30 49 -73 75.5
t-93 26.5q-98 0 -152.5 -90t-54.5 -249q0 -160 56.5 -246.5t159.5 -86.5q59 0 107.5 30t81.5 87l35 61v-162q-104 -51 -208 -55z" />
    <glyph glyph-name="Ccircumflex" unicode="&#x108;" horiz-adv-x="660" 
d="M588 44q-113 -56 -230 -56q-155 0 -236 93t-81 270q0 120 37.5 207.5t107.5 134t166 46.5q47 0 88.5 -11t69.5 -31l61 36v-219l-50 84q-30 49 -73 75.5t-93 26.5q-98 0 -152.5 -90t-54.5 -249q0 -160 56.5 -246.5t159.5 -86.5q59 0 107.5 30t81.5 87l35 61v-162zM508 778
q-86 17 -154 64q-70 -47 -155 -64l-2 14q46 19 86.5 59t60.5 83h20q19 -43 60 -83t86 -59z" />
    <glyph glyph-name="Cdotaccent" unicode="&#x10a;" horiz-adv-x="660" 
d="M588 44q-113 -56 -230 -56q-155 0 -236 93t-81 270q0 120 37.5 207.5t107.5 134t166 46.5q47 0 88.5 -11t69.5 -31l61 36v-219l-50 84q-30 49 -73 75.5t-93 26.5q-98 0 -152.5 -90t-54.5 -249q0 -160 56.5 -246.5t159.5 -86.5q59 0 107.5 30t81.5 87l35 61v-162zM316 824
q-15 15 -15 38t15 38t37 15q23 0 38 -15t15 -38t-15 -38t-38 -15q-22 0 -37 15z" />
    <glyph glyph-name="D" unicode="D" horiz-adv-x="698" 
d="M113 95v551l-68 79h251q112 0 193 -44.5t124.5 -128.5t43.5 -201q0 -170 -93 -260.5t-269 -90.5h-226zM210 676v-627h85q124 0 190 78t66 225q0 100 -31 173t-88.5 112t-135.5 39h-86z" />
    <glyph glyph-name="Eth" unicode="&#xd0;" horiz-adv-x="698" 
d="M113 95v245h-64v45h64v261l-68 79h251q112 0 193 -44.5t124.5 -128.5t43.5 -201q0 -170 -93 -260.5t-269 -90.5h-226zM210 676v-291h204v-45h-204v-291h85q124 0 190 78t66 225q0 100 -31 173t-88.5 112t-135.5 39h-86z" />
    <glyph glyph-name="Dcaron" unicode="&#x10e;" horiz-adv-x="698" 
d="M113 95v551l-68 79h251q112 0 193 -44.5t124.5 -128.5t43.5 -201q0 -170 -93 -260.5t-269 -90.5h-226zM210 676v-627h85q124 0 190 78t66 225q0 100 -31 173t-88.5 112t-135.5 39h-86zM492 911q-46 -19 -86.5 -59t-59.5 -83h-20q-20 43 -61 83.5t-86 58.5l2 14
q88 -18 155 -64q65 46 154 64z" />
    <glyph glyph-name="Dcroat" unicode="&#x110;" horiz-adv-x="698" 
d="M113 95v245h-64v45h64v261l-68 79h251q112 0 193 -44.5t124.5 -128.5t43.5 -201q0 -170 -93 -260.5t-269 -90.5h-226zM210 676v-291h204v-45h-204v-291h85q124 0 190 78t66 225q0 100 -31 173t-88.5 112t-135.5 39h-86z" />
    <glyph glyph-name="E" unicode="E" horiz-adv-x="616" 
d="M113 95v551l-68 79h460v-157l-95 108h-200v-285h166l65 58v-166l-71 59h-160v-293h239l106 124v-173h-486z" />
    <glyph glyph-name="Eacute" unicode="&#xc9;" horiz-adv-x="616" 
d="M113 95v551l-68 79h460v-157l-95 108h-200v-285h166l65 58v-166l-71 59h-160v-293h239l106 124v-173h-486zM202 802q49 9 91 38.5t62 68.5q19 33 43 33q16 0 27 -10.5t11 -26.5q0 -17 -20 -36q-34 -34 -88.5 -56t-125.5 -25v14z" />
    <glyph glyph-name="Ebreve" unicode="&#x114;" horiz-adv-x="616" 
d="M113 95v551l-68 79h460v-157l-95 108h-200v-285h166l65 58v-166l-71 59h-160v-293h239l106 124v-173h-486zM217 819q-40 33 -52 85l12 4q23 -38 55.5 -55.5t78.5 -17.5t78 17.5t55 55.5l12 -4q-12 -53 -51.5 -85.5t-93.5 -32.5t-94 33z" />
    <glyph glyph-name="Ecaron" unicode="&#x11a;" horiz-adv-x="616" 
d="M113 95v551l-68 79h460v-157l-95 108h-200v-285h166l65 58v-166l-71 59h-160v-293h239l106 124v-173h-486zM467 911q-46 -19 -86.5 -59t-59.5 -83h-20q-20 43 -61 83.5t-86 58.5l2 14q88 -18 155 -64q65 46 154 64z" />
    <glyph glyph-name="Ecircumflex" unicode="&#xca;" horiz-adv-x="616" 
d="M113 95v551l-68 79h460v-157l-95 108h-200v-285h166l65 58v-166l-71 59h-160v-293h239l106 124v-173h-486zM465 778q-86 17 -154 64q-70 -47 -155 -64l-2 14q46 19 86.5 59t60.5 83h20q19 -43 60 -83t86 -59z" />
    <glyph glyph-name="Edieresis" unicode="&#xcb;" horiz-adv-x="616" 
d="M113 95v551l-68 79h460v-157l-95 108h-200v-285h166l65 58v-166l-71 59h-160v-293h239l106 124v-173h-486zM178 811.5q-13 12.5 -13 31.5t13 31.5t31 12.5q19 0 31 -12.5t12 -31.5t-12 -31.5t-31 -12.5q-18 0 -31 12.5zM382 811.5q-13 12.5 -13 31.5t13 31.5t31 12.5
q19 0 31 -12.5t12 -31.5t-12 -31.5t-31 -12.5q-18 0 -31 12.5z" />
    <glyph glyph-name="Edotaccent" unicode="&#x116;" horiz-adv-x="616" 
d="M113 95v551l-68 79h460v-157l-95 108h-200v-285h166l65 58v-166l-71 59h-160v-293h239l106 124v-173h-486zM273 824q-15 15 -15 38t15 38t37 15q23 0 38 -15t15 -38t-15 -38t-38 -15q-22 0 -37 15z" />
    <glyph glyph-name="Egrave" unicode="&#xc8;" horiz-adv-x="616" 
d="M113 95v551l-68 79h460v-157l-95 108h-200v-285h166l65 58v-166l-71 59h-160v-293h239l106 124v-173h-486zM293.5 813q-54.5 22 -89.5 56q-19 19 -19 36q0 16 11 26.5t27 10.5q25 0 42 -33q20 -39 62.5 -68.5t91.5 -38.5v-14q-71 3 -125.5 25z" />
    <glyph glyph-name="Emacron" unicode="&#x112;" horiz-adv-x="616" 
d="M113 95v551l-68 79h460v-157l-95 108h-200v-285h166l65 58v-166l-71 59h-160v-293h239l106 124v-173h-486zM169 846h285v-37h-285v37z" />
    <glyph glyph-name="Eogonek" unicode="&#x118;" horiz-adv-x="616" 
d="M113 95v551l-68 79h460v-157l-95 108h-200v-285h166l65 58v-166l-71 59h-160v-293h239l106 124v-173q-33 -47 -33 -106q0 -39 16 -62.5t50 -35.5l-5 -10q-56 -1 -89 27.5t-33 77.5q0 31 14 59.5t39 49.5h-445z" />
    <glyph glyph-name="F" unicode="F" horiz-adv-x="577" 
d="M113 95v551l-68 79h491v-163l-101 114h-225v-291h168l70 60v-170l-75 61h-163v-257l67 -79h-208z" />
    <glyph glyph-name="G" unicode="G" horiz-adv-x="728" 
d="M633 217v-229l-60 73q-34 -35 -84 -54t-111 -19q-96 0 -167 45t-109 128t-38 196q0 115 38.5 201.5t109.5 133.5t165 47q48 0 90.5 -11.5t74.5 -32.5l62 40v-224l-56 85q-70 104 -168 104q-62 0 -109.5 -42t-73.5 -119t-26 -178q0 -102 26.5 -176.5t76.5 -114.5t118 -40
q49 0 91 21t68 57v120l-87 84h213z" />
    <glyph glyph-name="Gbreve" unicode="&#x11e;" horiz-adv-x="728" 
d="M633 217v-229l-60 73q-34 -35 -84 -54t-111 -19q-96 0 -167 45t-109 128t-38 196q0 115 38.5 201.5t109.5 133.5t165 47q48 0 90.5 -11.5t74.5 -32.5l62 40v-224l-56 85q-70 104 -168 104q-62 0 -109.5 -42t-73.5 -119t-26 -178q0 -102 26.5 -176.5t76.5 -114.5t118 -40
q49 0 91 21t68 57v120l-87 84h213zM281 819q-40 33 -52 85l12 4q23 -38 55.5 -55.5t78.5 -17.5t78 17.5t55 55.5l12 -4q-12 -53 -51.5 -85.5t-93.5 -32.5t-94 33z" />
    <glyph glyph-name="Gcircumflex" unicode="&#x11c;" horiz-adv-x="728" 
d="M633 217v-229l-60 73q-34 -35 -84 -54t-111 -19q-96 0 -167 45t-109 128t-38 196q0 115 38.5 201.5t109.5 133.5t165 47q48 0 90.5 -11.5t74.5 -32.5l62 40v-224l-56 85q-70 104 -168 104q-62 0 -109.5 -42t-73.5 -119t-26 -178q0 -102 26.5 -176.5t76.5 -114.5t118 -40
q49 0 91 21t68 57v120l-87 84h213zM529 778q-86 17 -154 64q-70 -47 -155 -64l-2 14q46 19 86.5 59t60.5 83h20q19 -43 60 -83t86 -59z" />
    <glyph glyph-name="uni0122" unicode="&#x122;" horiz-adv-x="728" 
d="M633 217v-229l-60 73q-34 -35 -84 -54t-111 -19q-96 0 -167 45t-109 128t-38 196q0 115 38.5 201.5t109.5 133.5t165 47q48 0 90.5 -11.5t74.5 -32.5l62 40v-224l-56 85q-70 104 -168 104q-62 0 -109.5 -42t-73.5 -119t-26 -178q0 -102 26.5 -176.5t76.5 -114.5t118 -40
q49 0 91 21t68 57v120l-87 84h213zM340 -283q31 21 48.5 53.5t15.5 65.5h-12q-24 0 -40.5 15.5t-16.5 37.5q0 23 16.5 38.5t40.5 15.5q29 0 48 -24t19 -60q0 -47 -30 -89.5t-79 -66.5z" />
    <glyph glyph-name="Gdotaccent" unicode="&#x120;" horiz-adv-x="728" 
d="M633 217v-229l-60 73q-34 -35 -84 -54t-111 -19q-96 0 -167 45t-109 128t-38 196q0 115 38.5 201.5t109.5 133.5t165 47q48 0 90.5 -11.5t74.5 -32.5l62 40v-224l-56 85q-70 104 -168 104q-62 0 -109.5 -42t-73.5 -119t-26 -178q0 -102 26.5 -176.5t76.5 -114.5t118 -40
q49 0 91 21t68 57v120l-87 84h213zM337 824q-15 15 -15 38t15 38t37 15q23 0 38 -15t15 -38t-15 -38t-38 -15q-22 0 -37 15z" />
    <glyph glyph-name="H" unicode="H" horiz-adv-x="766" 
d="M113 95v551l-68 79h208l-43 -95v-236h346v252l-67 79h208l-44 -95v-551l68 -79h-208l43 95v251h-346v-267l67 -79h-208z" />
    <glyph glyph-name="Hbar" unicode="&#x126;" horiz-adv-x="766" 
d="M113 95v397h-98v40h98v114l-68 79h208l-43 -95v-98h346v114l-67 79h208l-44 -95v-98h98v-40h-98v-413l68 -79h-208l43 95v243h-346v-259l67 -79h-208zM556 387v105h-346v-105h346z" />
    <glyph glyph-name="Hcircumflex" unicode="&#x124;" horiz-adv-x="766" 
d="M113 95v551l-68 79h208l-43 -95v-236h346v252l-67 79h208l-44 -95v-551l68 -79h-208l43 95v251h-346v-267l67 -79h-208zM538 778q-86 17 -154 64q-70 -47 -155 -64l-2 14q46 19 86.5 59t60.5 83h20q19 -43 60 -83t86 -59z" />
    <glyph glyph-name="I" unicode="I" horiz-adv-x="322" 
d="M113 95v551l-68 79h208l-43 -95v-551l67 -79h-208z" />
    <glyph glyph-name="IJ" unicode="&#x132;" horiz-adv-x="724" 
d="M113 95v551l-68 79h208l-43 -95v-551l67 -79h-208zM525 646l-68 79h208l-43 -95v-439q0 -99 -43.5 -151t-126.5 -52q-48 0 -78 17t-30 45q0 19 13 31t35 12q13 0 23.5 -4.5t27.5 -13.5q14 -9 25 -14t25 -5q25 0 38 16.5t13 47.5q0 17 -7 48q-6 30 -9 50.5t-3 49.5v378z
" />
    <glyph glyph-name="Iacute" unicode="&#xcd;" horiz-adv-x="322" 
d="M113 95v551l-68 79h208l-43 -95v-551l67 -79h-208zM52 802q49 9 91 38.5t62 68.5q19 33 43 33q16 0 27 -10.5t11 -26.5q0 -17 -20 -36q-34 -34 -88.5 -56t-125.5 -25v14z" />
    <glyph glyph-name="Ibreve" unicode="&#x12c;" horiz-adv-x="322" 
d="M113 95v551l-68 79h208l-43 -95v-551l67 -79h-208zM68 819q-40 33 -52 85l12 4q23 -38 55.5 -55.5t78.5 -17.5t78 17.5t55 55.5l12 -4q-12 -53 -51.5 -85.5t-93.5 -32.5t-94 33z" />
    <glyph glyph-name="Icircumflex" unicode="&#xce;" horiz-adv-x="322" 
d="M113 95v551l-68 79h208l-43 -95v-551l67 -79h-208zM315 778q-86 17 -154 64q-70 -47 -155 -64l-2 14q46 19 86.5 59t60.5 83h20q19 -43 60 -83t86 -59z" />
    <glyph glyph-name="Idieresis" unicode="&#xcf;" horiz-adv-x="322" 
d="M113 95v551l-68 79h208l-43 -95v-551l67 -79h-208zM94.5 880q12.5 -13 12.5 -32t-12.5 -32t-31.5 -13q-20 0 -33 13t-13 32q0 20 13 32.5t33 12.5q19 0 31.5 -13zM288.5 880q12.5 -13 12.5 -32t-12.5 -32t-31.5 -13q-20 0 -33 13t-13 32q0 20 13 32.5t33 12.5
q19 0 31.5 -13z" />
    <glyph glyph-name="Idotaccent" unicode="&#x130;" horiz-adv-x="322" 
d="M113 95v551l-68 79h208l-43 -95v-551l67 -79h-208zM124 824q-15 15 -15 38t15 38t37 15q23 0 38 -15t15 -38t-15 -38t-38 -15q-22 0 -37 15z" />
    <glyph glyph-name="Igrave" unicode="&#xcc;" horiz-adv-x="322" 
d="M113 95v551l-68 79h208l-43 -95v-551l67 -79h-208zM143.5 813q-54.5 22 -89.5 56q-19 19 -19 36q0 16 11 26.5t27 10.5q25 0 42 -33q20 -39 62.5 -68.5t91.5 -38.5v-14q-71 3 -125.5 25z" />
    <glyph glyph-name="Imacron" unicode="&#x12a;" horiz-adv-x="322" 
d="M113 95v551l-68 79h208l-43 -95v-551l67 -79h-208zM19 846h285v-37h-285v37z" />
    <glyph glyph-name="Iogonek" unicode="&#x12e;" horiz-adv-x="322" 
d="M113 95v551l-68 79h208l-43 -95v-551l67 -79h-79q-32 -46 -32 -107q0 -39 15.5 -62.5t49.5 -35.5l-5 -10q-56 -1 -88.5 28t-32.5 77q0 32 14 60.5t40 49.5h-90z" />
    <glyph glyph-name="Itilde" unicode="&#x128;" horiz-adv-x="322" 
d="M113 95v551l-68 79h208l-43 -95v-551l67 -79h-208zM220 789q-33 0 -85 18q-39 13 -59 13q-37 0 -43 -34l-13 6q1 40 22.5 60.5t60.5 20.5q20 0 38.5 -4.5t44.5 -12.5q39 -13 59 -13q38 0 44 33l13 -5q-2 -82 -82 -82z" />
    <glyph glyph-name="J" unicode="J" horiz-adv-x="402" 
d="M203 646l-68 79h208l-43 -95v-439q0 -99 -43.5 -151t-126.5 -52q-48 0 -78 17t-30 45q0 19 13 31t35 12q13 0 23.5 -4.5t27.5 -13.5q14 -9 25 -14t25 -5q25 0 38 16.5t13 47.5q0 17 -7 48q-6 30 -9 50.5t-3 49.5v378z" />
    <glyph glyph-name="Jcircumflex" unicode="&#x134;" horiz-adv-x="402" 
d="M203 646l-68 79h208l-43 -95v-439q0 -99 -43.5 -151t-126.5 -52q-48 0 -78 17t-30 45q0 19 13 31t35 12q13 0 23.5 -4.5t27.5 -13.5q14 -9 25 -14t25 -5q25 0 38 16.5t13 47.5q0 17 -7 48q-6 30 -9 50.5t-3 49.5v378zM412 778q-86 17 -154 64q-70 -47 -155 -64l-2 14
q46 19 86.5 59t60.5 83h20q19 -43 60 -83t86 -59z" />
    <glyph glyph-name="K" unicode="K" horiz-adv-x="649" 
d="M113 95v551l-68 79h208l-43 -95v-271l280 289l-55 77h188l-284 -294l300 -431h-195l21 81l-193 279l-62 -65v-216l67 -79h-208z" />
    <glyph glyph-name="uni0136" unicode="&#x136;" horiz-adv-x="649" 
d="M113 95v551l-68 79h208l-43 -95v-271l280 289l-55 77h188l-284 -294l300 -431h-195l21 81l-193 279l-62 -65v-216l67 -79h-208zM306 -283q31 21 48.5 53.5t15.5 65.5h-12q-24 0 -40.5 15.5t-16.5 37.5q0 23 16.5 38.5t40.5 15.5q29 0 48 -24t19 -60q0 -47 -30 -89.5
t-79 -66.5z" />
    <glyph glyph-name="L" unicode="L" horiz-adv-x="564" 
d="M113 95v551l-68 79h208l-43 -95v-581h200l124 162v-211h-465z" />
    <glyph glyph-name="Lacute" unicode="&#x139;" horiz-adv-x="564" 
d="M113 95v551l-68 79h208l-43 -95v-581h200l124 162v-211h-465zM52 802q49 9 91 38.5t62 68.5q19 33 43 33q16 0 27 -10.5t11 -26.5q0 -17 -20 -36q-34 -34 -88.5 -56t-125.5 -25v14z" />
    <glyph glyph-name="Lcaron" unicode="&#x13d;" horiz-adv-x="564" 
d="M113 95v551l-68 79h208l-43 -95v-581h200l124 162v-211h-465zM385 498q31 22 48.5 54.5t15.5 65.5h-12q-24 0 -40.5 15.5t-16.5 37.5q0 23 16.5 38.5t40.5 15.5q29 0 48 -24t19 -61q0 -46 -29.5 -88.5t-79.5 -66.5z" />
    <glyph glyph-name="uni013B" unicode="&#x13b;" horiz-adv-x="564" 
d="M113 95v551l-68 79h208l-43 -95v-581h200l124 162v-211h-465zM254 -283q31 21 48.5 53.5t15.5 65.5h-12q-24 0 -40.5 15.5t-16.5 37.5q0 23 16.5 38.5t40.5 15.5q29 0 48 -24t19 -60q0 -47 -30 -89.5t-79 -66.5z" />
    <glyph glyph-name="Ldot" unicode="&#x13f;" horiz-adv-x="564" 
d="M113 95v551l-68 79h208l-43 -95v-581h206l118 155v-204h-465zM349 343q-15 15 -15 38q0 22 15 37t38 15t38 -15t15 -37q0 -23 -15 -38t-38 -15t-38 15z" />
    <glyph glyph-name="Lslash" unicode="&#x141;" horiz-adv-x="564" 
d="M113 95v215l-70 -27v46l70 26v291l-68 79h208l-43 -95v-238l178 65v-45l-178 -66v-297h200l124 162v-211h-465z" />
    <glyph glyph-name="M" unicode="M" horiz-adv-x="847" 
d="M113 95v551l-68 79h220l-20 -69l190 -476l179 480l-24 65h188l-43 -95v-551l67 -79h-208l44 95v496l-225 -603l-252 616v-525l68 -79h-160z" />
    <glyph glyph-name="N" unicode="N" horiz-adv-x="729" 
d="M113 95v551l-68 79h153l381 -517v438l-68 79h160l-44 -95v-642l-466 622v-531l68 -79h-160z" />
    <glyph glyph-name="Nacute" unicode="&#x143;" horiz-adv-x="729" 
d="M113 95v551l-68 79h153l381 -517v438l-68 79h160l-44 -95v-642l-466 622v-531l68 -79h-160zM268 802q49 9 91 38.5t62 68.5q19 33 43 33q16 0 27 -10.5t11 -26.5q0 -17 -20 -36q-34 -34 -88.5 -56t-125.5 -25v14z" />
    <glyph glyph-name="Ncaron" unicode="&#x147;" horiz-adv-x="729" 
d="M113 95v551l-68 79h153l381 -517v438l-68 79h160l-44 -95v-642l-466 622v-531l68 -79h-160zM533 911q-46 -19 -86.5 -59t-59.5 -83h-20q-20 43 -61 83.5t-86 58.5l2 14q88 -18 155 -64q65 46 154 64z" />
    <glyph glyph-name="uni0145" unicode="&#x145;" horiz-adv-x="729" 
d="M113 95v551l-68 79h153l381 -517v438l-68 79h160l-44 -95v-642l-466 622v-531l68 -79h-160zM318 -283q31 21 48.5 53.5t15.5 65.5h-12q-24 0 -40.5 15.5t-16.5 37.5q0 23 16.5 38.5t40.5 15.5q29 0 48 -24t19 -60q0 -47 -30 -89.5t-79 -66.5z" />
    <glyph glyph-name="Eng" unicode="&#x14a;" horiz-adv-x="729" 
d="M113 95v551l-68 79h153l381 -517v438l-68 79h160l-44 -95v-592q83 -51 83 -129q0 -60 -45 -96.5t-118 -36.5q-45 0 -69 14t-24 40q0 19 13 30.5t35 11.5q18 0 43 -9q3 -1 16.5 -5t28.5 -4q30 0 48.5 16.5t18.5 45.5q0 39 -38.5 62.5t-109.5 28.5l39 83l-387 520v-531
l68 -79h-160z" />
    <glyph glyph-name="Ntilde" unicode="&#xd1;" horiz-adv-x="729" 
d="M113 95v551l-68 79h153l381 -517v438l-68 79h160l-44 -95v-642l-466 622v-531l68 -79h-160zM436 789q-33 0 -85 18q-39 13 -59 13q-37 0 -43 -34l-13 6q1 40 22.5 60.5t60.5 20.5q20 0 38.5 -4.5t44.5 -12.5q39 -13 59 -13q38 0 44 33l13 -5q-2 -82 -82 -82z" />
    <glyph glyph-name="O" unicode="O" horiz-adv-x="722" 
d="M79.5 564.5q38.5 84.5 110.5 129.5t170 45q100 0 172 -44.5t110.5 -128.5t38.5 -200q0 -118 -38.5 -203t-110.5 -130t-172 -45q-99 0 -171 45t-110 130t-38 202q0 115 38.5 199.5zM518.5 609.5q-56.5 86.5 -158.5 86.5q-101 0 -157 -86t-56 -244q0 -163 54.5 -249
t158.5 -86t159.5 86.5t55.5 248.5q0 157 -56.5 243.5z" />
    <glyph glyph-name="Oacute" unicode="&#xd3;" horiz-adv-x="722" 
d="M79.5 564.5q38.5 84.5 110.5 129.5t170 45q100 0 172 -44.5t110.5 -128.5t38.5 -200q0 -118 -38.5 -203t-110.5 -130t-172 -45q-99 0 -171 45t-110 130t-38 202q0 115 38.5 199.5zM518.5 609.5q-56.5 86.5 -158.5 86.5q-101 0 -157 -86t-56 -244q0 -163 54.5 -249
t158.5 -86t159.5 86.5t55.5 248.5q0 157 -56.5 243.5zM252 802q49 9 91 38.5t62 68.5q19 33 43 33q16 0 27 -10.5t11 -26.5q0 -17 -20 -36q-34 -34 -88.5 -56t-125.5 -25v14z" />
    <glyph glyph-name="Obreve" unicode="&#x14e;" horiz-adv-x="722" 
d="M79.5 564.5q38.5 84.5 110.5 129.5t170 45q100 0 172 -44.5t110.5 -128.5t38.5 -200q0 -118 -38.5 -203t-110.5 -130t-172 -45q-99 0 -171 45t-110 130t-38 202q0 115 38.5 199.5zM518.5 609.5q-56.5 86.5 -158.5 86.5q-101 0 -157 -86t-56 -244q0 -163 54.5 -249
t158.5 -86t159.5 86.5t55.5 248.5q0 157 -56.5 243.5zM267 819q-40 33 -52 85l12 4q23 -38 55.5 -55.5t78.5 -17.5t78 17.5t55 55.5l12 -4q-12 -53 -51.5 -85.5t-93.5 -32.5t-94 33z" />
    <glyph glyph-name="Ocircumflex" unicode="&#xd4;" horiz-adv-x="722" 
d="M79.5 564.5q38.5 84.5 110.5 129.5t170 45q100 0 172 -44.5t110.5 -128.5t38.5 -200q0 -118 -38.5 -203t-110.5 -130t-172 -45q-99 0 -171 45t-110 130t-38 202q0 115 38.5 199.5zM518.5 609.5q-56.5 86.5 -158.5 86.5q-101 0 -157 -86t-56 -244q0 -163 54.5 -249
t158.5 -86t159.5 86.5t55.5 248.5q0 157 -56.5 243.5zM515 778q-86 17 -154 64q-70 -47 -155 -64l-2 14q46 19 86.5 59t60.5 83h20q19 -43 60 -83t86 -59z" />
    <glyph glyph-name="Odieresis" unicode="&#xd6;" horiz-adv-x="722" 
d="M79.5 564.5q38.5 84.5 110.5 129.5t170 45q100 0 172 -44.5t110.5 -128.5t38.5 -200q0 -118 -38.5 -203t-110.5 -130t-172 -45q-99 0 -171 45t-110 130t-38 202q0 115 38.5 199.5zM518.5 609.5q-56.5 86.5 -158.5 86.5q-101 0 -157 -86t-56 -244q0 -163 54.5 -249
t158.5 -86t159.5 86.5t55.5 248.5q0 157 -56.5 243.5zM229 811.5q-13 12.5 -13 31.5t13 31.5t31 12.5q19 0 31 -12.5t12 -31.5t-12 -31.5t-31 -12.5q-18 0 -31 12.5zM433 811.5q-13 12.5 -13 31.5t13 31.5t31 12.5q19 0 31 -12.5t12 -31.5t-12 -31.5t-31 -12.5
q-18 0 -31 12.5z" />
    <glyph glyph-name="Ograve" unicode="&#xd2;" horiz-adv-x="722" 
d="M79.5 564.5q38.5 84.5 110.5 129.5t170 45q100 0 172 -44.5t110.5 -128.5t38.5 -200q0 -118 -38.5 -203t-110.5 -130t-172 -45q-99 0 -171 45t-110 130t-38 202q0 115 38.5 199.5zM518.5 609.5q-56.5 86.5 -158.5 86.5q-101 0 -157 -86t-56 -244q0 -163 54.5 -249
t158.5 -86t159.5 86.5t55.5 248.5q0 157 -56.5 243.5zM343.5 813q-54.5 22 -89.5 56q-19 19 -19 36q0 16 11 26.5t27 10.5q25 0 42 -33q20 -39 62.5 -68.5t91.5 -38.5v-14q-71 3 -125.5 25z" />
    <glyph glyph-name="Ohungarumlaut" unicode="&#x150;" horiz-adv-x="722" 
d="M79.5 564.5q38.5 84.5 110.5 129.5t170 45q100 0 172 -44.5t110.5 -128.5t38.5 -200q0 -118 -38.5 -203t-110.5 -130t-172 -45q-99 0 -171 45t-110 130t-38 202q0 115 38.5 199.5zM518.5 609.5q-56.5 86.5 -158.5 86.5q-101 0 -157 -86t-56 -244q0 -163 54.5 -249
t158.5 -86t159.5 86.5t55.5 248.5q0 157 -56.5 243.5zM255 798q15 19 28 46.5t17 49.5q8 42 39 42q14 0 23 -9t9 -24q0 -18 -14 -38q-16 -23 -41.5 -43t-54.5 -31zM392 798q16 19 29 46.5t17 49.5q8 42 38 42q14 0 23 -9t9 -24q0 -18 -13 -38q-16 -23 -41.5 -43t-54.5 -31z
" />
    <glyph glyph-name="Omacron" unicode="&#x14c;" horiz-adv-x="722" 
d="M79.5 564.5q38.5 84.5 110.5 129.5t170 45q100 0 172 -44.5t110.5 -128.5t38.5 -200q0 -118 -38.5 -203t-110.5 -130t-172 -45q-99 0 -171 45t-110 130t-38 202q0 115 38.5 199.5zM518.5 609.5q-56.5 86.5 -158.5 86.5q-101 0 -157 -86t-56 -244q0 -163 54.5 -249
t158.5 -86t159.5 86.5t55.5 248.5q0 157 -56.5 243.5zM219 846h285v-37h-285v37z" />
    <glyph glyph-name="Oslash" unicode="&#xd8;" horiz-adv-x="722" 
d="M158 56l-44 -56h-56l69 87q-86 100 -86 278q0 115 38.5 199.5t110.5 129.5t170 45q132 0 216 -79l51 65h56l-77 -98q37 -47 56 -113.5t19 -147.5q0 -118 -38.5 -203t-110.5 -130t-172 -45q-120 0 -202 68zM187 162l337 433q-56 101 -164 101q-101 0 -157 -86t-56 -244
q0 -126 40 -204zM519.5 117.5q55.5 86.5 55.5 248.5q0 109 -33 182l-334 -431q52 -86 152 -86q104 0 159.5 86.5z" />
    <glyph glyph-name="Otilde" unicode="&#xd5;" horiz-adv-x="722" 
d="M79.5 564.5q38.5 84.5 110.5 129.5t170 45q100 0 172 -44.5t110.5 -128.5t38.5 -200q0 -118 -38.5 -203t-110.5 -130t-172 -45q-99 0 -171 45t-110 130t-38 202q0 115 38.5 199.5zM518.5 609.5q-56.5 86.5 -158.5 86.5q-101 0 -157 -86t-56 -244q0 -163 54.5 -249
t158.5 -86t159.5 86.5t55.5 248.5q0 157 -56.5 243.5zM420 789q-33 0 -85 18q-39 13 -59 13q-37 0 -43 -34l-13 6q1 40 22.5 60.5t60.5 20.5q20 0 38.5 -4.5t44.5 -12.5q39 -13 59 -13q38 0 44 33l13 -5q-2 -82 -82 -82z" />
    <glyph glyph-name="OE" unicode="&#x152;" horiz-adv-x="982" 
d="M736 342h-161v-293h240l106 124v-173h-501q-185 0 -282 92t-97 266q0 175 99 271t279 96h452v-157l-95 108h-201v-285h167l65 58v-166zM479 49v627h-60q-135 0 -204 -79.5t-69 -237.5q0 -159 66.5 -234.5t207.5 -75.5h59z" />
    <glyph glyph-name="P" unicode="P" horiz-adv-x="616" 
d="M113 95v551l-68 79h271q127 0 198 -55.5t71 -155.5q0 -114 -95 -174t-280 -61v-200l67 -79h-208zM210 678v-356q142 3 208.5 48t66.5 137q0 82 -47.5 126.5t-134.5 44.5h-93z" />
    <glyph glyph-name="Thorn" unicode="&#xde;" horiz-adv-x="581" 
d="M113 95v551l-68 79h208l-43 -95v-79h110q114 0 177.5 -46t63.5 -128q0 -87 -73 -135t-205 -48q-34 0 -73 3v-118l67 -79h-208zM210 504v-261q34 -3 64 -3q187 0 187 137q0 62 -39 94.5t-114 32.5h-98z" />
    <glyph glyph-name="Q" unicode="Q" horiz-adv-x="722" 
d="M573.5 -215q-35.5 -16 -101.5 -16q-100 0 -158.5 37t-58.5 101q0 27 10.5 50.5t29.5 36.5q-121 20 -187 117t-66 254q0 115 38.5 199.5t110.5 129.5t170 45q100 0 172 -44.5t110.5 -128t38.5 -199.5q0 -106 -35.5 -188.5t-100 -132t-149.5 -58.5q-46 -4 -68 -20t-22 -45
q0 -35 30 -58t75 -23q22 0 41 5t46 14q39 15 59 15q23 0 37 -12t14 -32q0 -31 -35.5 -47zM519.5 117.5q55.5 86.5 55.5 248.5q0 157 -56.5 243.5t-158.5 86.5q-101 0 -157 -86t-56 -244q0 -163 54.5 -249t158.5 -86t159.5 86.5z" />
    <glyph glyph-name="R" unicode="R" horiz-adv-x="623" 
d="M113 95v551l-68 79h263q128 0 195 -44.5t67 -130.5q0 -80 -56.5 -132.5t-164.5 -73.5q123 -28 184 -204q17 -50 33.5 -68.5t45.5 -18.5q-6 -60 -71 -60q-42 0 -66.5 30t-43.5 104q-27 110 -78.5 157t-142.5 47v-252l67 -79h-208zM210 678v-302h40q104 0 164 44.5
t60 121.5q0 66 -45.5 101t-130.5 35h-88z" />
    <glyph glyph-name="Racute" unicode="&#x154;" horiz-adv-x="623" 
d="M113 95v551l-68 79h263q128 0 195 -44.5t67 -130.5q0 -80 -56.5 -132.5t-164.5 -73.5q123 -28 184 -204q17 -50 33.5 -68.5t45.5 -18.5q-6 -60 -71 -60q-42 0 -66.5 30t-43.5 104q-27 110 -78.5 157t-142.5 47v-252l67 -79h-208zM210 678v-302h40q104 0 164 44.5
t60 121.5q0 66 -45.5 101t-130.5 35h-88zM216 802q49 9 91 38.5t62 68.5q19 33 43 33q16 0 27 -10.5t11 -26.5q0 -17 -20 -36q-34 -34 -88.5 -56t-125.5 -25v14z" />
    <glyph glyph-name="Rcaron" unicode="&#x158;" horiz-adv-x="623" 
d="M113 95v551l-68 79h263q128 0 195 -44.5t67 -130.5q0 -80 -56.5 -132.5t-164.5 -73.5q123 -28 184 -204q17 -50 33.5 -68.5t45.5 -18.5q-6 -60 -71 -60q-42 0 -66.5 30t-43.5 104q-27 110 -78.5 157t-142.5 47v-252l67 -79h-208zM210 678v-302h40q104 0 164 44.5
t60 121.5q0 66 -45.5 101t-130.5 35h-88zM480 911q-46 -19 -86.5 -59t-59.5 -83h-20q-20 43 -61 83.5t-86 58.5l2 14q88 -18 155 -64q65 46 154 64z" />
    <glyph glyph-name="uni0156" unicode="&#x156;" horiz-adv-x="623" 
d="M113 95v551l-68 79h263q128 0 195 -44.5t67 -130.5q0 -80 -56.5 -132.5t-164.5 -73.5q123 -28 184 -204q17 -50 33.5 -68.5t45.5 -18.5q-6 -60 -71 -60q-42 0 -66.5 30t-43.5 104q-27 110 -78.5 157t-142.5 47v-252l67 -79h-208zM210 678v-302h40q104 0 164 44.5
t60 121.5q0 66 -45.5 101t-130.5 35h-88zM285 -283q31 21 48.5 53.5t15.5 65.5h-12q-24 0 -40.5 15.5t-16.5 37.5q0 23 16.5 38.5t40.5 15.5q29 0 48 -24t19 -60q0 -47 -30 -89.5t-79 -66.5z" />
    <glyph glyph-name="S" unicode="S" horiz-adv-x="649" 
d="M164 118q62 -40 120.5 -61t105.5 -21q59 0 92.5 32t33.5 87q0 33 -14.5 57.5t-47.5 47t-93 47.5l-107 43q-100 41 -148 93.5t-48 122.5q0 50 24 89.5t66.5 61.5t96.5 22q50 0 101.5 -18.5t97.5 -53.5l100 57v-189l-76 60q-126 98 -220 98q-50 0 -78 -26.5t-28 -73.5
q0 -46 32.5 -78.5t113.5 -66.5l100 -41q113 -46 163 -97t50 -122q0 -58 -28.5 -103.5t-79 -71t-114.5 -25.5q-51 0 -106 16.5t-100 45.5l-97 -60v188z" />
    <glyph glyph-name="Sacute" unicode="&#x15a;" horiz-adv-x="649" 
d="M164 118q62 -40 120.5 -61t105.5 -21q59 0 92.5 32t33.5 87q0 33 -14.5 57.5t-47.5 47t-93 47.5l-107 43q-100 41 -148 93.5t-48 122.5q0 50 24 89.5t66.5 61.5t96.5 22q50 0 101.5 -18.5t97.5 -53.5l100 57v-189l-76 60q-126 98 -220 98q-50 0 -78 -26.5t-28 -73.5
q0 -46 32.5 -78.5t113.5 -66.5l100 -41q113 -46 163 -97t50 -122q0 -58 -28.5 -103.5t-79 -71t-114.5 -25.5q-51 0 -106 16.5t-100 45.5l-97 -60v188zM205 802q49 9 91 38.5t62 68.5q19 33 43 33q16 0 27 -10.5t11 -26.5q0 -17 -20 -36q-34 -34 -88.5 -56t-125.5 -25v14z
" />
    <glyph glyph-name="Scaron" unicode="&#x160;" horiz-adv-x="649" 
d="M164 118q62 -40 120.5 -61t105.5 -21q59 0 92.5 32t33.5 87q0 33 -14.5 57.5t-47.5 47t-93 47.5l-107 43q-100 41 -148 93.5t-48 122.5q0 50 24 89.5t66.5 61.5t96.5 22q50 0 101.5 -18.5t97.5 -53.5l100 57v-189l-76 60q-126 98 -220 98q-50 0 -78 -26.5t-28 -73.5
q0 -46 32.5 -78.5t113.5 -66.5l100 -41q113 -46 163 -97t50 -122q0 -58 -28.5 -103.5t-79 -71t-114.5 -25.5q-51 0 -106 16.5t-100 45.5l-97 -60v188zM470 911q-46 -19 -86.5 -59t-59.5 -83h-20q-20 43 -61 83.5t-86 58.5l2 14q88 -18 155 -64q65 46 154 64z" />
    <glyph glyph-name="Scedilla" unicode="&#x15e;" horiz-adv-x="649" 
d="M375 -12l-22 -47q44 -4 71 -27.5t27 -57.5q0 -39 -35 -63t-90 -24q-31 0 -66 9l3 12q19 -3 37 -3q41 0 64 15.5t23 45.5q0 57 -91 59l43 84q-43 5 -86 20.5t-80 38.5l-97 -60v188l88 -60q62 -40 120.5 -61t105.5 -21q59 0 92.5 32t33.5 87q0 33 -14.5 57.5t-47.5 47
t-93 47.5l-107 43q-100 41 -148 93.5t-48 122.5q0 50 24 89.5t66.5 61.5t96.5 22q50 0 101.5 -18.5t97.5 -53.5l100 57v-189l-76 60q-126 98 -220 98q-50 0 -78 -26.5t-28 -73.5q0 -46 32.5 -78.5t113.5 -66.5l100 -41q113 -46 163 -97t50 -122q0 -58 -28.5 -103.5t-79 -71
t-114.5 -25.5h-4z" />
    <glyph glyph-name="Scircumflex" unicode="&#x15c;" horiz-adv-x="649" 
d="M164 118q62 -40 120.5 -61t105.5 -21q59 0 92.5 32t33.5 87q0 33 -14.5 57.5t-47.5 47t-93 47.5l-107 43q-100 41 -148 93.5t-48 122.5q0 50 24 89.5t66.5 61.5t96.5 22q50 0 101.5 -18.5t97.5 -53.5l100 57v-189l-76 60q-126 98 -220 98q-50 0 -78 -26.5t-28 -73.5
q0 -46 32.5 -78.5t113.5 -66.5l100 -41q113 -46 163 -97t50 -122q0 -58 -28.5 -103.5t-79 -71t-114.5 -25.5q-51 0 -106 16.5t-100 45.5l-97 -60v188zM468 778q-86 17 -154 64q-70 -47 -155 -64l-2 14q46 19 86.5 59t60.5 83h20q19 -43 60 -83t86 -59z" />
    <glyph glyph-name="uni0218" unicode="&#x218;" horiz-adv-x="649" 
d="M164 118q62 -40 120.5 -61t105.5 -21q59 0 92.5 32t33.5 87q0 33 -14.5 57.5t-47.5 47t-93 47.5l-107 43q-100 41 -148 93.5t-48 122.5q0 50 24 89.5t66.5 61.5t96.5 22q50 0 101.5 -18.5t97.5 -53.5l100 57v-189l-76 60q-126 98 -220 98q-50 0 -78 -26.5t-28 -73.5
q0 -46 32.5 -78.5t113.5 -66.5l100 -41q113 -46 163 -97t50 -122q0 -58 -28.5 -103.5t-79 -71t-114.5 -25.5q-51 0 -106 16.5t-100 45.5l-97 -60v188zM312 -283q31 21 48.5 53.5t15.5 65.5h-12q-24 0 -40.5 15.5t-16.5 37.5q0 23 16.5 38.5t40.5 15.5q29 0 48 -24t19 -60
q0 -47 -30 -89.5t-79 -66.5z" />
    <glyph glyph-name="uni1E9E" unicode="&#x1e9e;" horiz-adv-x="738" 
d="M110 91v385h-96v54h98q12 103 79.5 156t185.5 53q87 0 151 -29.5t110 -91.5l-205 -161q130 0 203.5 -63.5t73.5 -176.5q0 -66 -25 -118t-69.5 -80.5t-99.5 -28.5q-64 0 -115 40l-113 -40v183l72 -68q74 -65 134 -65q53 0 83.5 45.5t30.5 129.5q0 76 -28 121t-89 65
t-163 20l224 180q-63 100 -183 100q-86 0 -125 -51t-39 -163v-487h-138z" />
    <glyph glyph-name="T" unicode="T" horiz-adv-x="613" 
d="M259 95v581h-125l-103 -128v177h551v-177l-103 128h-123v-597l67 -79h-208z" />
    <glyph glyph-name="Tbar" unicode="&#x166;" horiz-adv-x="613" 
d="M259 95v265h-127v41h127v275h-125l-103 -128v177h551v-177l-103 128h-123v-275h126v-41h-126v-281l67 -79h-208z" />
    <glyph glyph-name="Tcaron" unicode="&#x164;" horiz-adv-x="613" 
d="M259 95v581h-125l-103 -128v177h551v-177l-103 128h-123v-597l67 -79h-208zM463 911q-46 -19 -86.5 -59t-59.5 -83h-20q-20 43 -61 83.5t-86 58.5l2 14q88 -18 155 -64q65 46 154 64z" />
    <glyph glyph-name="uni0162" unicode="&#x162;" horiz-adv-x="613" 
d="M582 725v-177l-103 128h-123v-597l67 -79h-104l-28 -59q44 -4 71 -27.5t27 -57.5q0 -39 -35 -63t-90 -24q-32 0 -66 9l3 12q20 -3 37 -3q41 0 64 15.5t23 45.5q0 57 -91 59l48 93h-67l44 95v581h-125l-103 -128v177h551z" />
    <glyph glyph-name="uni021A" unicode="&#x21a;" horiz-adv-x="613" 
d="M259 95v581h-125l-103 -128v177h551v-177l-103 128h-123v-597l67 -79h-208zM250 -283q31 21 48.5 53.5t15.5 65.5h-12q-24 0 -40.5 15.5t-16.5 37.5q0 23 16.5 38.5t40.5 15.5q29 0 48 -24t19 -60q0 -47 -30 -89.5t-79 -66.5z" />
    <glyph glyph-name="U" unicode="U" horiz-adv-x="703" 
d="M102 646l-67 79h208l-44 -95v-358q0 -109 46.5 -165t137.5 -56q90 0 135 56.5t45 170.5v368l-68 79h159l-44 -95v-353q0 -289 -252 -289q-125 0 -190.5 71.5t-65.5 206.5v380z" />
    <glyph glyph-name="Uacute" unicode="&#xda;" horiz-adv-x="703" 
d="M102 646l-67 79h208l-44 -95v-358q0 -109 46.5 -165t137.5 -56q90 0 135 56.5t45 170.5v368l-68 79h159l-44 -95v-353q0 -289 -252 -289q-125 0 -190.5 71.5t-65.5 206.5v380zM258 802q49 9 91 38.5t62 68.5q19 33 43 33q16 0 27 -10.5t11 -26.5q0 -17 -20 -36
q-34 -34 -88.5 -56t-125.5 -25v14z" />
    <glyph glyph-name="Ubreve" unicode="&#x16c;" horiz-adv-x="703" 
d="M102 646l-67 79h208l-44 -95v-358q0 -109 46.5 -165t137.5 -56q90 0 135 56.5t45 170.5v368l-68 79h159l-44 -95v-353q0 -289 -252 -289q-125 0 -190.5 71.5t-65.5 206.5v380zM273 819q-40 33 -52 85l12 4q23 -38 55.5 -55.5t78.5 -17.5t78 17.5t55 55.5l12 -4
q-12 -53 -51.5 -85.5t-93.5 -32.5t-94 33z" />
    <glyph glyph-name="Ucircumflex" unicode="&#xdb;" horiz-adv-x="703" 
d="M102 646l-67 79h208l-44 -95v-358q0 -109 46.5 -165t137.5 -56q90 0 135 56.5t45 170.5v368l-68 79h159l-44 -95v-353q0 -289 -252 -289q-125 0 -190.5 71.5t-65.5 206.5v380zM521 778q-86 17 -154 64q-70 -47 -155 -64l-2 14q46 19 86.5 59t60.5 83h20q19 -43 60 -83
t86 -59z" />
    <glyph glyph-name="Udieresis" unicode="&#xdc;" horiz-adv-x="703" 
d="M102 646l-67 79h208l-44 -95v-358q0 -109 46.5 -165t137.5 -56q90 0 135 56.5t45 170.5v368l-68 79h159l-44 -95v-353q0 -289 -252 -289q-125 0 -190.5 71.5t-65.5 206.5v380zM234 811.5q-13 12.5 -13 31.5t13 31.5t31 12.5q19 0 31 -12.5t12 -31.5t-12 -31.5t-31 -12.5
q-18 0 -31 12.5zM438 811.5q-13 12.5 -13 31.5t13 31.5t31 12.5q19 0 31 -12.5t12 -31.5t-12 -31.5t-31 -12.5q-18 0 -31 12.5z" />
    <glyph glyph-name="Ugrave" unicode="&#xd9;" horiz-adv-x="703" 
d="M102 646l-67 79h208l-44 -95v-358q0 -109 46.5 -165t137.5 -56q90 0 135 56.5t45 170.5v368l-68 79h159l-44 -95v-353q0 -289 -252 -289q-125 0 -190.5 71.5t-65.5 206.5v380zM349.5 813q-54.5 22 -89.5 56q-19 19 -19 36q0 16 11 26.5t27 10.5q25 0 42 -33
q20 -39 62.5 -68.5t91.5 -38.5v-14q-71 3 -125.5 25z" />
    <glyph glyph-name="Uhungarumlaut" unicode="&#x170;" horiz-adv-x="703" 
d="M102 646l-67 79h208l-44 -95v-358q0 -109 46.5 -165t137.5 -56q90 0 135 56.5t45 170.5v368l-68 79h159l-44 -95v-353q0 -289 -252 -289q-125 0 -190.5 71.5t-65.5 206.5v380zM260 798q15 19 28 46.5t17 49.5q8 42 39 42q14 0 23 -9t9 -24q0 -18 -14 -38
q-16 -23 -41.5 -43t-54.5 -31zM397 798q16 19 29 46.5t17 49.5q8 42 38 42q14 0 23 -9t9 -24q0 -18 -13 -38q-16 -23 -41.5 -43t-54.5 -31z" />
    <glyph glyph-name="Umacron" unicode="&#x16a;" horiz-adv-x="703" 
d="M102 646l-67 79h208l-44 -95v-358q0 -109 46.5 -165t137.5 -56q90 0 135 56.5t45 170.5v368l-68 79h159l-44 -95v-353q0 -289 -252 -289q-125 0 -190.5 71.5t-65.5 206.5v380zM224 846h285v-37h-285v37z" />
    <glyph glyph-name="Uogonek" unicode="&#x172;" horiz-adv-x="703" 
d="M102 646l-67 79h208l-44 -95v-358q0 -109 46.5 -165t137.5 -56t135.5 56.5t44.5 170.5v368l-68 79h159l-44 -95v-353q0 -90 -23 -149.5t-71 -98.5q-35 -28 -51 -61t-16 -73t15.5 -63.5t49.5 -35.5l-5 -10q-56 -1 -89 27.5t-33 77.5q0 30 13.5 57.5t38.5 49.5
q-40 -10 -81 -10q-125 0 -190.5 71t-65.5 207v380z" />
    <glyph glyph-name="Uring" unicode="&#x16e;" horiz-adv-x="703" 
d="M102 646l-67 79h208l-44 -95v-358q0 -109 46.5 -165t137.5 -56q90 0 135 56.5t45 170.5v368l-68 79h159l-44 -95v-353q0 -289 -252 -289q-125 0 -190.5 71.5t-65.5 206.5v380zM301.5 795.5q-25.5 25.5 -25.5 64.5t25.5 65t63.5 26q39 0 65 -26t26 -65t-26 -64.5
t-65 -25.5q-38 0 -63.5 25.5zM413.5 812q19.5 19 19.5 48t-19.5 48.5t-48.5 19.5t-48 -19.5t-19 -48.5t19 -48t48 -19t48.5 19z" />
    <glyph glyph-name="Utilde" unicode="&#x168;" horiz-adv-x="703" 
d="M102 646l-67 79h208l-44 -95v-358q0 -109 46.5 -165t137.5 -56q90 0 135 56.5t45 170.5v368l-68 79h159l-44 -95v-353q0 -289 -252 -289q-125 0 -190.5 71.5t-65.5 206.5v380zM425 789q-33 0 -85 18q-39 13 -59 13q-37 0 -43 -34l-13 6q1 40 22.5 60.5t60.5 20.5
q20 0 38.5 -4.5t44.5 -12.5q39 -13 59 -13q38 0 44 33l13 -5q-2 -82 -82 -82z" />
    <glyph glyph-name="V" unicode="V" horiz-adv-x="625" 
d="M78 633l-78 92h222l-40 -88l174 -555l168 552l-78 91h169l-40 -88l-194 -637h-104z" />
    <glyph glyph-name="W" unicode="W" horiz-adv-x="963" 
d="M180 637l167 -554l120 407l-45 143l-77 92h216l-40 -88l173 -560l168 558l-78 90h168l-39 -88l-193 -637h-103l-125 407l-120 -407h-104l-191 633l-77 92h220z" />
    <glyph glyph-name="Wacute" unicode="&#x1e82;" horiz-adv-x="963" 
d="M180 637l167 -554l120 407l-45 143l-77 92h216l-40 -88l173 -560l168 558l-78 90h168l-39 -88l-193 -637h-103l-125 407l-120 -407h-104l-191 633l-77 92h220zM382 802q49 9 91 38.5t62 68.5q19 33 43 33q16 0 27 -10.5t11 -26.5q0 -17 -20 -36q-34 -34 -88.5 -56
t-125.5 -25v14z" />
    <glyph glyph-name="Wcircumflex" unicode="&#x174;" horiz-adv-x="963" 
d="M180 637l167 -554l120 407l-45 143l-77 92h216l-40 -88l173 -560l168 558l-78 90h168l-39 -88l-193 -637h-103l-125 407l-120 -407h-104l-191 633l-77 92h220zM645 778q-86 17 -154 64q-70 -47 -155 -64l-2 14q46 19 86.5 59t60.5 83h20q19 -43 60 -83t86 -59z" />
    <glyph glyph-name="Wdieresis" unicode="&#x1e84;" horiz-adv-x="963" 
d="M335.5 811.5q-13.5 12.5 -13.5 31.5t13.5 31.5t31.5 12.5t30.5 -12t12.5 -32q0 -19 -12.5 -31.5t-30.5 -12.5t-31.5 12.5zM579 811.5q-13 12.5 -13 31.5q0 20 13 32t31 12t30.5 -12t12.5 -32q0 -19 -12.5 -31.5t-30.5 -12.5t-31 12.5zM180 637l167 -554l120 407l-45 143
l-77 92h216l-40 -88l173 -560l168 558l-78 90h168l-39 -88l-193 -637h-103l-125 407l-120 -407h-104l-191 633l-77 92h220z" />
    <glyph glyph-name="Wgrave" unicode="&#x1e80;" horiz-adv-x="963" 
d="M180 637l167 -554l120 407l-45 143l-77 92h216l-40 -88l173 -560l168 558l-78 90h168l-39 -88l-193 -637h-103l-125 407l-120 -407h-104l-191 633l-77 92h220zM472.5 813q-54.5 22 -89.5 56q-19 19 -19 36q0 16 11 26.5t27 10.5q25 0 42 -33q20 -39 62.5 -68.5
t91.5 -38.5v-14q-71 3 -125.5 25z" />
    <glyph glyph-name="X" unicode="X" horiz-adv-x="617" 
d="M0 0l253 354l-248 371h214l-42 -86l145 -215l157 228l-66 73h178l-241 -343l257 -382h-215l42 86l-152 226l-167 -237l67 -75h-182z" />
    <glyph glyph-name="Y" unicode="Y" horiz-adv-x="615" 
d="M267 95v246l-182 283l-85 101h235l-43 -91l153 -239l157 252l-68 78h170l-240 -389v-257l68 -79h-209z" />
    <glyph glyph-name="Yacute" unicode="&#xdd;" horiz-adv-x="615" 
d="M267 95v246l-182 283l-85 101h235l-43 -91l153 -239l157 252l-68 78h170l-240 -389v-257l68 -79h-209zM224 802q49 9 91 38.5t62 68.5q19 33 43 33q16 0 27 -10.5t11 -26.5q0 -17 -20 -36q-34 -34 -88.5 -56t-125.5 -25v14z" />
    <glyph glyph-name="Ycircumflex" unicode="&#x176;" horiz-adv-x="615" 
d="M267 95v246l-182 283l-85 101h235l-43 -91l153 -239l157 252l-68 78h170l-240 -389v-257l68 -79h-209zM487 778q-86 17 -154 64q-70 -47 -155 -64l-2 14q46 19 86.5 59t60.5 83h20q19 -43 60 -83t86 -59z" />
    <glyph glyph-name="Ydieresis" unicode="&#x178;" horiz-adv-x="615" 
d="M267 95v246l-182 283l-85 101h235l-43 -91l153 -239l157 252l-68 78h170l-240 -389v-257l68 -79h-209zM200 811.5q-13 12.5 -13 31.5t13 31.5t31 12.5q19 0 31 -12.5t12 -31.5t-12 -31.5t-31 -12.5q-18 0 -31 12.5zM404 811.5q-13 12.5 -13 31.5t13 31.5t31 12.5
q19 0 31 -12.5t12 -31.5t-12 -31.5t-31 -12.5q-18 0 -31 12.5z" />
    <glyph glyph-name="Ygrave" unicode="&#x1ef2;" horiz-adv-x="615" 
d="M267 95v246l-182 283l-85 101h235l-43 -91l153 -239l157 252l-68 78h170l-240 -389v-257l68 -79h-209zM315.5 813q-54.5 22 -89.5 56q-19 19 -19 36q0 16 11 26.5t27 10.5q25 0 42 -33q20 -39 62.5 -68.5t91.5 -38.5v-14q-71 3 -125.5 25z" />
    <glyph glyph-name="Z" unicode="Z" horiz-adv-x="679" 
d="M96 725h521l-425 -678h286l137 151v-198h-564l425 678h-256l-124 -149v196z" />
    <glyph glyph-name="Zacute" unicode="&#x179;" horiz-adv-x="679" 
d="M96 725h521l-425 -678h286l137 151v-198h-564l425 678h-256l-124 -149v196zM256 802q49 9 91 38.5t62 68.5q19 33 43 33q16 0 27 -10.5t11 -26.5q0 -17 -20 -36q-34 -34 -88.5 -56t-125.5 -25v14z" />
    <glyph glyph-name="Zcaron" unicode="&#x17d;" horiz-adv-x="679" 
d="M96 725h521l-425 -678h286l137 151v-198h-564l425 678h-256l-124 -149v196zM521 911q-46 -19 -86.5 -59t-59.5 -83h-20q-20 43 -61 83.5t-86 58.5l2 14q88 -18 155 -64q65 46 154 64z" />
    <glyph glyph-name="Zdotaccent" unicode="&#x17b;" horiz-adv-x="679" 
d="M96 725h521l-425 -678h286l137 151v-198h-564l425 678h-256l-124 -149v196zM328 824q-15 15 -15 38t15 38t37 15q23 0 38 -15t15 -38t-15 -38t-38 -15q-22 0 -37 15z" />
    <glyph glyph-name="uni01B5" unicode="&#x1b5;" horiz-adv-x="679" 
d="M478 47l137 151v-198h-564l215 343h-129v40h154l185 295h-256l-124 -149v196h521l-214 -342h128v-40h-153l-186 -296h286z" />
    <glyph glyph-name="R.ss03" horiz-adv-x="688" 
d="M112 101v537l-68 87h264q133 0 203.5 -45t70.5 -131q0 -82 -65.5 -137.5t-185.5 -78.5q69 -4 110 -36q32 -24 51 -67.5t27 -108.5q6 -51 17.5 -72t34.5 -21q30 0 30 36q0 19 -10 45q-9 22 -9 35q0 19 11 31t29 12q21 0 34 -21t13 -59q0 -58 -31.5 -88.5t-90.5 -30.5
t-91 35t-45 117q-11 67 -33.5 104t-62 53.5t-106.5 16.5v-230l68 -84h-209zM209 678v-315q270 3 270 180q0 70 -43.5 102.5t-135.5 32.5h-91z" />
    <glyph glyph-name="Racute.ss03" horiz-adv-x="688" 
d="M112 101v537l-68 87h264q133 0 203.5 -45t70.5 -131q0 -82 -65.5 -137.5t-185.5 -78.5q69 -4 110 -36q32 -24 51 -67.5t27 -108.5q6 -51 17.5 -72t34.5 -21q30 0 30 36q0 19 -10 45q-9 22 -9 35q0 19 11 31t29 12q21 0 34 -21t13 -59q0 -58 -31.5 -88.5t-90.5 -30.5
t-91 35t-45 117q-11 67 -33.5 104t-62 53.5t-106.5 16.5v-230l68 -84h-209zM209 678v-315q270 3 270 180q0 70 -43.5 102.5t-135.5 32.5h-91zM228 802q49 9 91 38.5t62 68.5q19 33 43 33q16 0 27 -10.5t11 -26.5q0 -17 -20 -36q-34 -34 -88.5 -56t-125.5 -25v14z" />
    <glyph glyph-name="Rcaron.ss03" horiz-adv-x="688" 
d="M112 101v537l-68 87h264q133 0 203.5 -45t70.5 -131q0 -82 -65.5 -137.5t-185.5 -78.5q69 -4 110 -36q32 -24 51 -67.5t27 -108.5q6 -51 17.5 -72t34.5 -21q30 0 30 36q0 19 -10 45q-9 22 -9 35q0 19 11 31t29 12q21 0 34 -21t13 -59q0 -58 -31.5 -88.5t-90.5 -30.5
t-91 35t-45 117q-11 67 -33.5 104t-62 53.5t-106.5 16.5v-230l68 -84h-209zM209 678v-315q270 3 270 180q0 70 -43.5 102.5t-135.5 32.5h-91zM493 911q-46 -19 -86.5 -59t-59.5 -83h-20q-20 43 -61 83.5t-86 58.5l2 14q88 -18 155 -64q65 46 154 64z" />
    <glyph glyph-name="uni0156.ss03" horiz-adv-x="688" 
d="M112 101v537l-68 87h264q133 0 203.5 -45t70.5 -131q0 -82 -65.5 -137.5t-185.5 -78.5q69 -4 110 -36q32 -24 51 -67.5t27 -108.5q6 -51 17.5 -72t34.5 -21q30 0 30 36q0 19 -10 45q-9 22 -9 35q0 19 11 31t29 12q21 0 34 -21t13 -59q0 -58 -31.5 -88.5t-90.5 -30.5
t-91 35t-45 117q-11 67 -33.5 104t-62 53.5t-106.5 16.5v-230l68 -84h-209zM209 678v-315q270 3 270 180q0 70 -43.5 102.5t-135.5 32.5h-91zM301 -282q31 22 48.5 54.5t15.5 64.5h-12q-24 0 -40.5 15.5t-16.5 38.5t16.5 38.5t40.5 15.5q29 0 48 -24t19 -61q0 -47 -30 -89.5
t-79 -66.5z" />
    <glyph glyph-name="a" unicode="a" horiz-adv-x="560" 
d="M87.5 26.5q-47.5 38.5 -47.5 104.5q0 50 31.5 85.5t91.5 54.5q77 27 210 27v47q0 163 -125 163q-50 0 -76.5 -24.5t-27.5 -71.5q-2 -60 -44 -60q-20 0 -32 15t-12 41q0 40 26 72.5t71.5 50.5t103.5 18q100 0 155.5 -54t55.5 -152v-229q0 -52 37 -52q14 0 21 4l4 -4
q-4 -30 -23.5 -46t-49.5 -16q-31 0 -52 19t-25 49q-22 -38 -64.5 -59t-100.5 -21q-80 0 -127.5 38.5zM324.5 60q31.5 20 48.5 57v149q-49 0 -97.5 -8t-77.5 -21q-60 -27 -60 -92q0 -48 31 -76.5t82 -28.5q42 0 73.5 20z" />
    <glyph glyph-name="aacute" unicode="&#xe1;" horiz-adv-x="560" 
d="M87.5 26.5q-47.5 38.5 -47.5 104.5q0 50 31.5 85.5t91.5 54.5q77 27 210 27v47q0 163 -125 163q-50 0 -76.5 -24.5t-27.5 -71.5q-2 -60 -44 -60q-20 0 -32 15t-12 41q0 40 26 72.5t71.5 50.5t103.5 18q100 0 155.5 -54t55.5 -152v-229q0 -52 37 -52q14 0 21 4l4 -4
q-4 -30 -23.5 -46t-49.5 -16q-31 0 -52 19t-25 49q-22 -38 -64.5 -59t-100.5 -21q-80 0 -127.5 38.5zM324.5 60q31.5 20 48.5 57v149q-49 0 -97.5 -8t-77.5 -21q-60 -27 -60 -92q0 -48 31 -76.5t82 -28.5q42 0 73.5 20zM160 612q43 8 78 33t55 62q19 36 46 36
q16 0 26.5 -10.5t10.5 -26.5q0 -19 -18 -37q-28 -31 -79 -49.5t-119 -21.5v14z" />
    <glyph glyph-name="abreve" unicode="&#x103;" horiz-adv-x="560" 
d="M87.5 26.5q-47.5 38.5 -47.5 104.5q0 50 31.5 85.5t91.5 54.5q77 27 210 27v47q0 163 -125 163q-50 0 -76.5 -24.5t-27.5 -71.5q-2 -60 -44 -60q-20 0 -32 15t-12 41q0 40 26 72.5t71.5 50.5t103.5 18q100 0 155.5 -54t55.5 -152v-229q0 -52 37 -52q14 0 21 4l4 -4
q-4 -30 -23.5 -46t-49.5 -16q-31 0 -52 19t-25 49q-22 -38 -64.5 -59t-100.5 -21q-80 0 -127.5 38.5zM324.5 60q31.5 20 48.5 57v149q-49 0 -97.5 -8t-77.5 -21q-60 -27 -60 -92q0 -48 31 -76.5t82 -28.5q42 0 73.5 20zM113 722h14q17 -42 47 -61t81 -19q49 0 79 18.5
t48 61.5h14q-22 -129 -141 -129q-120 0 -142 129z" />
    <glyph glyph-name="acircumflex" unicode="&#xe2;" horiz-adv-x="560" 
d="M87.5 26.5q-47.5 38.5 -47.5 104.5q0 50 31.5 85.5t91.5 54.5q77 27 210 27v47q0 163 -125 163q-50 0 -76.5 -24.5t-27.5 -71.5q-2 -60 -44 -60q-20 0 -32 15t-12 41q0 40 26 72.5t71.5 50.5t103.5 18q100 0 155.5 -54t55.5 -152v-229q0 -52 37 -52q14 0 21 4l4 -4
q-4 -30 -23.5 -46t-49.5 -16q-31 0 -52 19t-25 49q-22 -38 -64.5 -59t-100.5 -21q-80 0 -127.5 38.5zM324.5 60q31.5 20 48.5 57v149q-49 0 -97.5 -8t-77.5 -21q-60 -27 -60 -92q0 -48 31 -76.5t82 -28.5q42 0 73.5 20zM255 643q-62 -36 -156 -55l-2 14q52 22 90.5 57.5
t57.5 77.5h20q19 -42 57.5 -77t90.5 -58l-3 -14q-93 19 -155 55z" />
    <glyph glyph-name="adieresis" unicode="&#xe4;" horiz-adv-x="560" 
d="M87.5 26.5q-47.5 38.5 -47.5 104.5q0 50 31.5 85.5t91.5 54.5q77 27 210 27v47q0 163 -125 163q-50 0 -76.5 -24.5t-27.5 -71.5q-2 -60 -44 -60q-20 0 -32 15t-12 41q0 40 26 72.5t71.5 50.5t103.5 18q100 0 155.5 -54t55.5 -152v-229q0 -52 37 -52q14 0 21 4l4 -4
q-4 -30 -23.5 -46t-49.5 -16q-31 0 -52 19t-25 49q-22 -38 -64.5 -59t-100.5 -21q-80 0 -127.5 38.5zM324.5 60q31.5 20 48.5 57v149q-49 0 -97.5 -8t-77.5 -21q-60 -27 -60 -92q0 -48 31 -76.5t82 -28.5q42 0 73.5 20zM190.5 685q12.5 -13 12.5 -32t-12.5 -32t-31.5 -13
q-20 0 -33 13t-13 32q0 20 13 32.5t33 12.5q19 0 31.5 -13zM384.5 685q12.5 -13 12.5 -32t-12.5 -32t-31.5 -13q-20 0 -33 13t-13 32q0 20 13 32.5t33 12.5q19 0 31.5 -13z" />
    <glyph glyph-name="agrave" unicode="&#xe0;" horiz-adv-x="560" 
d="M87.5 26.5q-47.5 38.5 -47.5 104.5q0 50 31.5 85.5t91.5 54.5q77 27 210 27v47q0 163 -125 163q-50 0 -76.5 -24.5t-27.5 -71.5q-2 -60 -44 -60q-20 0 -32 15t-12 41q0 40 26 72.5t71.5 50.5t103.5 18q100 0 155.5 -54t55.5 -152v-229q0 -52 37 -52q14 0 21 4l4 -4
q-4 -30 -23.5 -46t-49.5 -16q-31 0 -52 19t-25 49q-22 -38 -64.5 -59t-100.5 -21q-80 0 -127.5 38.5zM324.5 60q31.5 20 48.5 57v149q-49 0 -97.5 -8t-77.5 -21q-60 -27 -60 -92q0 -48 31 -76.5t82 -28.5q42 0 73.5 20zM229.5 619.5q-50.5 18.5 -78.5 49.5q-19 19 -19 37
q0 16 11 26.5t27 10.5q25 0 46 -36q20 -37 55 -62t77 -33v-14q-68 3 -118.5 21.5z" />
    <glyph glyph-name="amacron" unicode="&#x101;" horiz-adv-x="560" 
d="M87.5 26.5q-47.5 38.5 -47.5 104.5q0 50 31.5 85.5t91.5 54.5q77 27 210 27v47q0 163 -125 163q-50 0 -76.5 -24.5t-27.5 -71.5q-2 -60 -44 -60q-20 0 -32 15t-12 41q0 40 26 72.5t71.5 50.5t103.5 18q100 0 155.5 -54t55.5 -152v-229q0 -52 37 -52q14 0 21 4l4 -4
q-4 -30 -23.5 -46t-49.5 -16q-31 0 -52 19t-25 49q-22 -38 -64.5 -59t-100.5 -21q-80 0 -127.5 38.5zM324.5 60q31.5 20 48.5 57v149q-49 0 -97.5 -8t-77.5 -21q-60 -27 -60 -92q0 -48 31 -76.5t82 -28.5q42 0 73.5 20zM113 653h285v-37h-285v37z" />
    <glyph glyph-name="aogonek" unicode="&#x105;" horiz-adv-x="560" 
d="M433 -186.5q-33 28.5 -33 77.5q0 31 14 59.5t40 49.5q-30 1 -50 19.5t-24 48.5q-22 -38 -64.5 -59t-100.5 -21q-80 0 -127.5 38.5t-47.5 104.5q0 102 123 140q77 27 210 27v47q0 163 -125 163q-50 0 -76.5 -24.5t-27.5 -71.5q-2 -60 -44 -60q-20 0 -32 15t-12 41
q0 40 26 72.5t71.5 50.5t103.5 18q100 0 155.5 -54.5t55.5 -151.5v-229q0 -52 37 -52q14 0 21 4l4 -4q-5 -26 -23 -46q-21 -22 -33 -54.5t-12 -68.5q0 -38 15.5 -61.5t49.5 -35.5l-5 -10q-56 -1 -89 27.5zM373 266q-49 0 -97.5 -8t-77.5 -21q-60 -27 -60 -92q0 -48 31 -76.5
t82 -28.5q42 0 73.5 20t48.5 57v149z" />
    <glyph glyph-name="aring" unicode="&#xe5;" horiz-adv-x="560" 
d="M87.5 26.5q-47.5 38.5 -47.5 104.5q0 50 31.5 85.5t91.5 54.5q77 27 210 27v47q0 163 -125 163q-50 0 -76.5 -24.5t-27.5 -71.5q-2 -60 -44 -60q-20 0 -32 15t-12 41q0 40 26 72.5t71.5 50.5t103.5 18q100 0 155.5 -54t55.5 -152v-229q0 -52 37 -52q14 0 21 4l4 -4
q-4 -30 -23.5 -46t-49.5 -16q-31 0 -52 19t-25 49q-22 -38 -64.5 -59t-100.5 -21q-80 0 -127.5 38.5zM324.5 60q31.5 20 48.5 57v149q-49 0 -97.5 -8t-77.5 -21q-60 -27 -60 -92q0 -48 31 -76.5t82 -28.5q42 0 73.5 20zM190.5 605.5q-25.5 25.5 -25.5 64.5t25.5 65t63.5 26
q39 0 65 -26t26 -65t-26 -64.5t-65 -25.5q-38 0 -63.5 25.5zM302.5 622q19.5 19 19.5 48t-19.5 48.5t-48.5 19.5t-48 -19.5t-19 -48.5t19 -48t48 -19t48.5 19z" />
    <glyph glyph-name="atilde" unicode="&#xe3;" horiz-adv-x="560" 
d="M87.5 26.5q-47.5 38.5 -47.5 104.5q0 50 31.5 85.5t91.5 54.5q77 27 210 27v47q0 163 -125 163q-50 0 -76.5 -24.5t-27.5 -71.5q-2 -60 -44 -60q-20 0 -32 15t-12 41q0 40 26 72.5t71.5 50.5t103.5 18q100 0 155.5 -54t55.5 -152v-229q0 -52 37 -52q14 0 21 4l4 -4
q-4 -30 -23.5 -46t-49.5 -16q-31 0 -52 19t-25 49q-22 -38 -64.5 -59t-100.5 -21q-80 0 -127.5 38.5zM324.5 60q31.5 20 48.5 57v149q-49 0 -97.5 -8t-77.5 -21q-60 -27 -60 -92q0 -48 31 -76.5t82 -28.5q42 0 73.5 20zM313 607q-33 0 -85 18q-39 13 -59 13q-37 0 -43 -34
l-13 6q1 40 22.5 60.5t60.5 20.5q20 0 38.5 -4.5t44.5 -12.5q39 -13 59 -13q38 0 44 33l13 -5q-2 -82 -82 -82z" />
    <glyph glyph-name="ae" unicode="&#xe6;" horiz-adv-x="909" 
d="M470 267q5 -107 58 -163.5t149 -56.5q52 0 93.5 20t89.5 69l9 -7q-37 -70 -97 -105.5t-140 -35.5q-81 0 -141 37t-89 104q-18 -70 -64.5 -105.5t-120.5 -35.5q-80 0 -128.5 39.5t-48.5 103.5q0 51 32 87t94 54q37 12 91.5 19t115.5 7v47q0 163 -125 163
q-50 0 -76.5 -24.5t-27.5 -71.5q-2 -60 -44 -60q-20 0 -32 15t-12 41q0 40 25.5 72.5t71 50.5t102.5 18q64 0 111.5 -27t70.5 -75q33 49 84 75.5t113 26.5q108 0 164.5 -72.5t55.5 -209.5h-384zM516 451.5q-42 -50.5 -47 -142.5h297q0 95 -35 144t-103 49q-70 0 -112 -50.5z
M373 266q-54 0 -100.5 -7.5t-75.5 -21.5q-59 -28 -59 -94q0 -47 28.5 -75t77.5 -28q62 0 95.5 48t33.5 139v39z" />
    <glyph glyph-name="aeacute" unicode="&#x1fd;" horiz-adv-x="909" 
d="M470 267q5 -107 58 -163.5t149 -56.5q52 0 93.5 20t89.5 69l9 -7q-37 -70 -97 -105.5t-140 -35.5q-81 0 -141 37t-89 104q-18 -70 -64.5 -105.5t-120.5 -35.5q-80 0 -128.5 39.5t-48.5 103.5q0 51 32 87t94 54q37 12 91.5 19t115.5 7v47q0 163 -125 163
q-50 0 -76.5 -24.5t-27.5 -71.5q-2 -60 -44 -60q-20 0 -32 15t-12 41q0 40 25.5 72.5t71 50.5t102.5 18q64 0 111.5 -27t70.5 -75q33 49 84 75.5t113 26.5q108 0 164.5 -72.5t55.5 -209.5h-384zM516 451.5q-42 -50.5 -47 -142.5h297q0 95 -35 144t-103 49q-70 0 -112 -50.5z
M373 266q-54 0 -100.5 -7.5t-75.5 -21.5q-59 -28 -59 -94q0 -47 28.5 -75t77.5 -28q62 0 95.5 48t33.5 139v39zM324 607q49 9 91 38.5t62 68.5q19 33 43 33q16 0 27 -10.5t11 -26.5q0 -17 -20 -36q-34 -34 -88.5 -56t-125.5 -25v14z" />
    <glyph glyph-name="b" unicode="b" horiz-adv-x="628" 
d="M187 750v-309q29 52 76 80t106 28q66 0 115.5 -34.5t76.5 -97.5t27 -147q0 -85 -27 -148.5t-77 -98.5t-116 -35q-62 0 -110.5 31t-75.5 86l-9 -105h-81v669l-71 81h166zM244 85q39 -28 90 -28q72 0 113.5 57t41.5 155t-41.5 155t-113.5 57q-51 0 -90 -28.5t-57 -77.5
v-213q18 -49 57 -77z" />
    <glyph glyph-name="c" unicode="c" horiz-adv-x="566" 
d="M546 127q-79 -139 -239 -139q-79 0 -139.5 33t-94 93t-33.5 141q0 83 35 150t96.5 105.5t138.5 38.5q57 0 104.5 -21t75 -56.5t27.5 -77.5q0 -27 -12.5 -41.5t-35.5 -14.5t-35 14.5t-15 46.5q-12 100 -107 100q-78 0 -125 -61t-47 -162q0 -108 54 -168t150 -60
q110 0 193 86z" />
    <glyph glyph-name="cacute" unicode="&#x107;" horiz-adv-x="566" 
d="M546 127q-79 -139 -239 -139q-79 0 -139.5 33t-94 93t-33.5 141q0 83 35 150t96.5 105.5t138.5 38.5q57 0 104.5 -21t75 -56.5t27.5 -77.5q0 -27 -12.5 -41.5t-35.5 -14.5t-35 14.5t-15 46.5q-12 100 -107 100q-78 0 -125 -61t-47 -162q0 -108 54 -168t150 -60
q110 0 193 86zM212 612q43 8 78 33t55 62q19 36 46 36q16 0 26.5 -10.5t10.5 -26.5q0 -19 -18 -37q-28 -31 -79 -49.5t-119 -21.5v14z" />
    <glyph glyph-name="ccaron" unicode="&#x10d;" horiz-adv-x="566" 
d="M546 127q-79 -139 -239 -139q-79 0 -139.5 33t-94 93t-33.5 141q0 83 35 150t96.5 105.5t138.5 38.5q57 0 104.5 -21t75 -56.5t27.5 -77.5q0 -27 -12.5 -41.5t-35.5 -14.5t-35 14.5t-15 46.5q-12 100 -107 100q-78 0 -125 -61t-47 -162q0 -108 54 -168t150 -60
q110 0 193 86zM307 680q62 36 155 55l3 -14q-53 -23 -91 -58t-57 -78h-20q-19 43 -57.5 78t-90.5 58l2 14q94 -19 156 -55z" />
    <glyph glyph-name="ccedilla" unicode="&#xe7;" horiz-adv-x="566" 
d="M318 -12l-22 -47q44 -4 71 -27.5t27 -57.5q0 -39 -35 -63t-90 -24q-31 0 -66 9l3 12q19 -3 37 -3q41 0 64 15.5t23 45.5q0 57 -91 59l43 82q-73 5 -127.5 39t-84.5 92.5t-30 134.5q0 83 35 150t96.5 105.5t138.5 38.5q57 0 104.5 -21t75 -56.5t27.5 -77.5
q0 -27 -12.5 -41.5t-35.5 -14.5t-35 14.5t-15 46.5q-12 100 -107 100q-78 0 -125 -61t-47 -162q0 -108 54 -168t150 -60q110 0 193 86l9 -7q-76 -135 -228 -139z" />
    <glyph glyph-name="ccircumflex" unicode="&#x109;" horiz-adv-x="566" 
d="M546 127q-79 -139 -239 -139q-79 0 -139.5 33t-94 93t-33.5 141q0 83 35 150t96.5 105.5t138.5 38.5q57 0 104.5 -21t75 -56.5t27.5 -77.5q0 -27 -12.5 -41.5t-35.5 -14.5t-35 14.5t-15 46.5q-12 100 -107 100q-78 0 -125 -61t-47 -162q0 -108 54 -168t150 -60
q110 0 193 86zM307 643q-62 -36 -156 -55l-2 14q52 22 90.5 57.5t57.5 77.5h20q19 -42 57.5 -77t90.5 -58l-3 -14q-93 19 -155 55z" />
    <glyph glyph-name="cdotaccent" unicode="&#x10b;" horiz-adv-x="566" 
d="M546 127q-79 -139 -239 -139q-79 0 -139.5 33t-94 93t-33.5 141q0 83 35 150t96.5 105.5t138.5 38.5q57 0 104.5 -21t75 -56.5t27.5 -77.5q0 -27 -12.5 -41.5t-35.5 -14.5t-35 14.5t-15 46.5q-12 100 -107 100q-78 0 -125 -61t-47 -162q0 -108 54 -168t150 -60
q110 0 193 86zM270 634q-15 15 -15 38t15 38t37 15q23 0 38 -15t15 -38t-15 -38t-38 -15q-22 0 -37 15z" />
    <glyph glyph-name="d" unicode="d" horiz-adv-x="639" 
d="M144 23q-50 35 -77 99t-27 148t27 147t76.5 97.5t115.5 34.5q59 0 106 -28.5t76 -80.5v215l-85 95h181v-674l65 -76h-152v116q-26 -60 -76 -94t-114 -34q-66 0 -116 35zM384 85q39 28 57 77v213q-18 49 -57 77.5t-89 28.5q-72 0 -113.5 -57t-41.5 -155t41.5 -155
t113.5 -57q50 0 89 28z" />
    <glyph glyph-name="eth" unicode="&#xf0;" horiz-adv-x="619" 
d="M171 760q99 -15 180 -59l110 52l17 -37l-85 -41q90 -62 138.5 -159t48.5 -218q0 -148 -71 -229t-203 -81q-126 0 -196.5 73t-70.5 200q0 84 31 147t87 97t130 34q57 0 101 -23t70 -67q-33 120 -131 196l-132 -62l-18 36l111 53q-60 37 -128 58zM182.5 90
q42.5 -62 121.5 -62q82 0 128 66.5t46 194.5q0 44 -4 67q-17 68 -62 106t-108 38q-78 0 -121 -60t-43 -174t42.5 -176z" />
    <glyph glyph-name="dcaron" unicode="&#x10f;" horiz-adv-x="739" 
d="M144 23q-50 35 -77 99t-27 148t27 147t76.5 97.5t115.5 34.5q59 0 106 -28.5t76 -80.5v215l-85 95h181v-674l65 -76h-152v116q-26 -60 -76 -94t-114 -34q-66 0 -116 35zM384 85q39 28 57 77v213q-18 49 -57 77.5t-89 28.5q-72 0 -113.5 -57t-41.5 -155t41.5 -155
t113.5 -57q50 0 89 28zM615 535q31 22 48.5 54.5t15.5 65.5h-12q-24 0 -40.5 15.5t-16.5 37.5q0 23 16.5 38.5t40.5 15.5q29 0 48 -24t19 -61q0 -46 -29.5 -88.5t-79.5 -66.5z" />
    <glyph glyph-name="dcroat" unicode="&#x111;" horiz-adv-x="639" 
d="M450 116q-26 -60 -76 -94t-114 -34q-66 0 -116 35t-77 99t-27 148t27 147t76.5 97.5t115.5 34.5q59 0 106 -28.5t76 -80.5v161h-177v42h177v12l-85 95h181v-107h84v-42h-84v-525l65 -76h-152v116zM441 375q-18 49 -57 77.5t-89 28.5q-72 0 -113.5 -57t-41.5 -155
t41.5 -155t113.5 -57q54 0 98 28.5t48 76.5v213z" />
    <glyph glyph-name="e" unicode="e" horiz-adv-x="580" 
d="M141 267q5 -107 58 -163.5t148 -56.5q53 0 94.5 20.5t89.5 68.5l9 -7q-38 -70 -99 -105.5t-142 -35.5q-79 0 -137.5 33.5t-90 95t-31.5 143.5q0 85 33 150.5t92.5 102t137.5 36.5q109 0 166.5 -72.5t55.5 -209.5h-384zM187 451.5q-42 -50.5 -47 -142.5h297q0 95 -35 144
t-103 49q-70 0 -112 -50.5z" />
    <glyph glyph-name="eacute" unicode="&#xe9;" horiz-adv-x="580" 
d="M141 267q5 -107 58 -163.5t148 -56.5q53 0 94.5 20.5t89.5 68.5l9 -7q-38 -70 -99 -105.5t-142 -35.5q-79 0 -137.5 33.5t-90 95t-31.5 143.5q0 85 33 150.5t92.5 102t137.5 36.5q109 0 166.5 -72.5t55.5 -209.5h-384zM187 451.5q-42 -50.5 -47 -142.5h297q0 95 -35 144
t-103 49q-70 0 -112 -50.5zM208 612q43 8 78 33t55 62q19 36 46 36q16 0 26.5 -10.5t10.5 -26.5q0 -19 -18 -37q-28 -31 -79 -49.5t-119 -21.5v14z" />
    <glyph glyph-name="ebreve" unicode="&#x115;" horiz-adv-x="580" 
d="M141 267q5 -107 58 -163.5t148 -56.5q53 0 94.5 20.5t89.5 68.5l9 -7q-38 -70 -99 -105.5t-142 -35.5q-79 0 -137.5 33.5t-90 95t-31.5 143.5q0 85 33 150.5t92.5 102t137.5 36.5q109 0 166.5 -72.5t55.5 -209.5h-384zM187 451.5q-42 -50.5 -47 -142.5h297q0 95 -35 144
t-103 49q-70 0 -112 -50.5zM162 722h14q17 -42 47 -61t81 -19q49 0 79 18.5t48 61.5h14q-22 -129 -141 -129q-120 0 -142 129z" />
    <glyph glyph-name="ecaron" unicode="&#x11b;" horiz-adv-x="580" 
d="M141 267q5 -107 58 -163.5t148 -56.5q53 0 94.5 20.5t89.5 68.5l9 -7q-38 -70 -99 -105.5t-142 -35.5q-79 0 -137.5 33.5t-90 95t-31.5 143.5q0 85 33 150.5t92.5 102t137.5 36.5q109 0 166.5 -72.5t55.5 -209.5h-384zM187 451.5q-42 -50.5 -47 -142.5h297q0 95 -35 144
t-103 49q-70 0 -112 -50.5zM303 680q62 36 155 55l3 -14q-53 -23 -91 -58t-57 -78h-20q-19 43 -57.5 78t-90.5 58l2 14q94 -19 156 -55z" />
    <glyph glyph-name="ecircumflex" unicode="&#xea;" horiz-adv-x="580" 
d="M141 267q5 -107 58 -163.5t148 -56.5q53 0 94.5 20.5t89.5 68.5l9 -7q-38 -70 -99 -105.5t-142 -35.5q-79 0 -137.5 33.5t-90 95t-31.5 143.5q0 85 33 150.5t92.5 102t137.5 36.5q109 0 166.5 -72.5t55.5 -209.5h-384zM187 451.5q-42 -50.5 -47 -142.5h297q0 95 -35 144
t-103 49q-70 0 -112 -50.5zM303 643q-62 -36 -156 -55l-2 14q52 22 90.5 57.5t57.5 77.5h20q19 -42 57.5 -77t90.5 -58l-3 -14q-93 19 -155 55z" />
    <glyph glyph-name="edieresis" unicode="&#xeb;" horiz-adv-x="580" 
d="M141 267q5 -107 58 -163.5t148 -56.5q53 0 94.5 20.5t89.5 68.5l9 -7q-38 -70 -99 -105.5t-142 -35.5q-79 0 -137.5 33.5t-90 95t-31.5 143.5q0 85 33 150.5t92.5 102t137.5 36.5q109 0 166.5 -72.5t55.5 -209.5h-384zM187 451.5q-42 -50.5 -47 -142.5h297q0 95 -35 144
t-103 49q-70 0 -112 -50.5zM238.5 685q12.5 -13 12.5 -32t-12.5 -32t-31.5 -13q-20 0 -33 13t-13 32q0 20 13 32.5t33 12.5q19 0 31.5 -13zM432.5 685q12.5 -13 12.5 -32t-12.5 -32t-31.5 -13q-20 0 -33 13t-13 32q0 20 13 32.5t33 12.5q19 0 31.5 -13z" />
    <glyph glyph-name="edotaccent" unicode="&#x117;" horiz-adv-x="580" 
d="M141 267q5 -107 58 -163.5t148 -56.5q53 0 94.5 20.5t89.5 68.5l9 -7q-38 -70 -99 -105.5t-142 -35.5q-79 0 -137.5 33.5t-90 95t-31.5 143.5q0 85 33 150.5t92.5 102t137.5 36.5q109 0 166.5 -72.5t55.5 -209.5h-384zM187 451.5q-42 -50.5 -47 -142.5h297q0 95 -35 144
t-103 49q-70 0 -112 -50.5zM266 634q-15 15 -15 38t15 38t37 15q23 0 38 -15t15 -38t-15 -38t-38 -15q-22 0 -37 15z" />
    <glyph glyph-name="egrave" unicode="&#xe8;" horiz-adv-x="580" 
d="M141 267q5 -107 58 -163.5t148 -56.5q53 0 94.5 20.5t89.5 68.5l9 -7q-38 -70 -99 -105.5t-142 -35.5q-79 0 -137.5 33.5t-90 95t-31.5 143.5q0 85 33 150.5t92.5 102t137.5 36.5q109 0 166.5 -72.5t55.5 -209.5h-384zM187 451.5q-42 -50.5 -47 -142.5h297q0 95 -35 144
t-103 49q-70 0 -112 -50.5zM277.5 619.5q-50.5 18.5 -78.5 49.5q-19 19 -19 37q0 16 11 26.5t27 10.5q25 0 46 -36q20 -37 55 -62t77 -33v-14q-68 3 -118.5 21.5z" />
    <glyph glyph-name="emacron" unicode="&#x113;" horiz-adv-x="580" 
d="M141 267q5 -107 58 -163.5t148 -56.5q53 0 94.5 20.5t89.5 68.5l9 -7q-38 -70 -99 -105.5t-142 -35.5q-79 0 -137.5 33.5t-90 95t-31.5 143.5q0 85 33 150.5t92.5 102t137.5 36.5q109 0 166.5 -72.5t55.5 -209.5h-384zM187 451.5q-42 -50.5 -47 -142.5h297q0 95 -35 144
t-103 49q-70 0 -112 -50.5zM161 653h285v-37h-285v37z" />
    <glyph glyph-name="eogonek" unicode="&#x119;" horiz-adv-x="580" 
d="M356 -186.5q-33 28.5 -33 77.5q0 62 51 107q-42 -10 -75 -10q-78 0 -136.5 33t-90.5 94.5t-32 144.5q0 85 33 150.5t93 102t137 36.5q110 0 167.5 -73t54.5 -209h-384q5 -107 57.5 -163.5t148.5 -56.5q53 0 94.5 20t89.5 69l9 -7q-35 -64 -84 -98q-72 -51 -72 -137
q0 -39 15.5 -62.5t49.5 -35.5l-5 -10q-55 -1 -88 27.5zM187 451.5q-42 -50.5 -47 -142.5h297q0 95 -35 144t-103 49q-70 0 -112 -50.5z" />
    <glyph glyph-name="f" unicode="f" horiz-adv-x="300" 
d="M110 90v386h-96v54h90q-27 32 -27 83q0 64 43.5 105.5t110.5 41.5q38 0 60 -14t22 -39q0 -18 -12.5 -29t-34.5 -11q-15 0 -37 10q-9 4 -18.5 7t-19.5 3q-31 0 -48 -19t-17 -52q0 -40 27.5 -63t76.5 -23h56v-54h-81v-402l64 -74h-201z" />
    <glyph glyph-name="g" unicode="g" horiz-adv-x="545" 
d="M168 143q0 -31 60 -37l124 -12q173 -15 173 -143q0 -84 -70.5 -129.5t-199.5 -45.5q-109 0 -167 34t-58 98q0 46 29 79.5t78 44.5q-49 23 -49 75q0 36 22.5 58t65.5 30q-60 20 -92.5 65t-32.5 107q0 84 58 133t157 49q13 0 27 -2q-44 29 -44 81q0 48 35.5 74.5t99.5 26.5
q43 0 65 -13t22 -37q0 -17 -12 -27t-32 -10q-11 0 -21.5 3t-13.5 4q-24 8 -37 8q-28 0 -44 -12.5t-16 -35.5q0 -44 69 -73q118 -52 118 -169q0 -87 -60.5 -137t-165.5 -51q-88 0 -88 -36zM354.5 258.5q31.5 39.5 31.5 109.5q0 67 -31 104t-86 37q-58 0 -91 -37.5t-33 -103.5
q0 -68 34 -108.5t89 -40.5t86.5 39.5zM257 -180q87 0 136.5 28t49.5 77q0 67 -107 78l-136 12q-51 -10 -75.5 -33t-24.5 -63q0 -99 157 -99z" />
    <glyph glyph-name="gbreve" unicode="&#x11f;" horiz-adv-x="546" 
d="M190 168.5q-21 -8.5 -21 -26.5q0 -14 15.5 -23.5t43.5 -12.5l124 -12q174 -15 174 -143q0 -84 -71 -129.5t-200 -45.5q-109 0 -167 34.5t-58 98.5q0 47 29.5 80t78.5 43q-49 22 -49 75q0 73 88 88q-61 21 -93.5 65t-32.5 105q0 84 63.5 133.5t174.5 49.5q95 0 232 -18
v-34h-101q32 -27 47 -58.5t15 -72.5q0 -86 -59.5 -135t-167.5 -51q-44 -2 -65 -10.5zM355.5 258.5q31.5 39.5 31.5 109.5q0 67 -31 103.5t-87 36.5q-57 0 -90 -37.5t-33 -102.5q0 -67 33.5 -108t89.5 -41q55 0 86.5 39.5zM259 -180q85 0 134.5 28t49.5 77q0 34 -26.5 53.5
t-80.5 24.5l-135 12q-51 -10 -75.5 -33t-24.5 -63q0 -99 158 -99zM130 722h14q17 -42 47 -61t81 -19q49 0 79 18.5t48 61.5h14q-22 -129 -141 -129q-120 0 -142 129z" />
    <glyph glyph-name="gcircumflex" unicode="&#x11d;" horiz-adv-x="546" 
d="M190 168.5q-21 -8.5 -21 -26.5q0 -14 15.5 -23.5t43.5 -12.5l124 -12q174 -15 174 -143q0 -84 -71 -129.5t-200 -45.5q-109 0 -167 34.5t-58 98.5q0 47 29.5 80t78.5 43q-49 22 -49 75q0 73 88 88q-61 21 -93.5 65t-32.5 105q0 84 63.5 133.5t174.5 49.5q95 0 232 -18
v-34h-101q32 -27 47 -58.5t15 -72.5q0 -86 -59.5 -135t-167.5 -51q-44 -2 -65 -10.5zM355.5 258.5q31.5 39.5 31.5 109.5q0 67 -31 103.5t-87 36.5q-57 0 -90 -37.5t-33 -102.5q0 -67 33.5 -108t89.5 -41q55 0 86.5 39.5zM259 -180q85 0 134.5 28t49.5 77q0 34 -26.5 53.5
t-80.5 24.5l-135 12q-51 -10 -75.5 -33t-24.5 -63q0 -99 158 -99zM271 643q-62 -36 -156 -55l-2 14q52 22 90.5 57.5t57.5 77.5h20q19 -42 57.5 -77t90.5 -58l-3 -14q-93 19 -155 55z" />
    <glyph glyph-name="uni0123" unicode="&#x123;" horiz-adv-x="545" 
d="M311 831q-30 -22 -47.5 -54t-15.5 -65h12q24 0 40.5 -15.5t16.5 -38.5t-16.5 -38.5t-40.5 -15.5q-29 0 -48 24t-19 61q0 46 29.5 89t78.5 67zM190 168.5q-21 -8.5 -21 -26.5q0 -14 15.5 -23.5t44.5 -12.5l124 -12q173 -15 173 -143q0 -84 -70.5 -129.5t-199.5 -45.5
q-109 0 -167 34.5t-58 98.5q0 46 29 79.5t78 43.5q-49 23 -49 75q0 36 22.5 58t65.5 30q-60 21 -92.5 65t-32.5 105q0 84 63.5 133.5t173.5 49.5q97 0 232 -18v-34h-101q32 -27 47.5 -58.5t15.5 -72.5q0 -86 -60 -135t-167 -51q-45 -2 -66 -10.5zM355.5 258.5
q31.5 39.5 31.5 109.5q0 67 -31 103.5t-87 36.5q-57 0 -90 -37.5t-33 -102.5q0 -67 34 -108t89 -41t86.5 39.5zM259 -180q86 0 135.5 28t49.5 77q0 67 -107 78l-136 12q-51 -10 -75.5 -33.5t-24.5 -62.5q0 -99 158 -99z" />
    <glyph glyph-name="gdotaccent" unicode="&#x121;" horiz-adv-x="546" 
d="M190 168.5q-21 -8.5 -21 -26.5q0 -14 15.5 -23.5t43.5 -12.5l124 -12q174 -15 174 -143q0 -84 -71 -129.5t-200 -45.5q-109 0 -167 34.5t-58 98.5q0 47 29.5 80t78.5 43q-49 22 -49 75q0 73 88 88q-61 21 -93.5 65t-32.5 105q0 84 63.5 133.5t174.5 49.5q95 0 232 -18
v-34h-101q32 -27 47 -58.5t15 -72.5q0 -86 -59.5 -135t-167.5 -51q-44 -2 -65 -10.5zM355.5 258.5q31.5 39.5 31.5 109.5q0 67 -31 103.5t-87 36.5q-57 0 -90 -37.5t-33 -102.5q0 -67 33.5 -108t89.5 -41q55 0 86.5 39.5zM259 -180q85 0 134.5 28t49.5 77q0 34 -26.5 53.5
t-80.5 24.5l-135 12q-51 -10 -75.5 -33t-24.5 -63q0 -99 158 -99zM234 634q-15 15 -15 38t15 38t37 15q23 0 38 -15t15 -38t-15 -38t-38 -15q-22 0 -37 15z" />
    <glyph glyph-name="h" unicode="h" horiz-adv-x="653" 
d="M102 93v562l-85 95h180v-333q33 64 83.5 97.5t113.5 33.5q82 0 125 -55t43 -159v-260l64 -74h-202l42 90v241q0 150 -105 150q-56 0 -100 -40.5t-64 -110.5v-254l66 -76h-204z" />
    <glyph glyph-name="hbar" unicode="&#x127;" horiz-adv-x="653" 
d="M466 90v241q0 150 -105 150q-56 0 -100 -40.5t-64 -110.5v-254l66 -76h-204l43 93v508h-85v42h85v12l-85 95h180v-107h178v-42h-178v-184q33 64 83.5 97.5t113.5 33.5q82 0 125 -55t43 -159v-260l64 -74h-202z" />
    <glyph glyph-name="hcircumflex" unicode="&#x125;" horiz-adv-x="653" 
d="M102 93v562l-85 95h180v-333q33 64 83.5 97.5t113.5 33.5q82 0 125 -55t43 -159v-260l64 -74h-202l42 90v241q0 150 -105 150q-56 0 -100 -40.5t-64 -110.5v-254l66 -76h-204zM150 838q-62 -36 -156 -55l-2 14q52 22 90.5 57.5t57.5 77.5h20q19 -42 57.5 -77t90.5 -58
l-3 -14q-93 19 -155 55z" />
    <glyph glyph-name="i" unicode="i" horiz-adv-x="299" 
d="M191 731q17 -17 17 -43t-16.5 -43t-42.5 -17t-42.5 17t-16.5 43t17 43t42 17t42 -17zM102 93v342l-85 95h180v-454l66 -76h-204z" />
    <glyph glyph-name="dotlessi" unicode="&#x131;" horiz-adv-x="299" 
d="M102 93v342l-85 95h180v-454l66 -76h-204z" />
    <glyph glyph-name="iacute" unicode="&#xed;" horiz-adv-x="299" 
d="M102 93v342l-85 95h180v-454l66 -76h-204zM55 612q43 8 78 33t55 62q19 36 46 36q16 0 26.5 -10.5t10.5 -26.5q0 -19 -18 -37q-28 -31 -79 -49.5t-119 -21.5v14z" />
    <glyph glyph-name="ibreve" unicode="&#x12d;" horiz-adv-x="299" 
d="M102 93v342l-85 95h180v-454l66 -76h-204zM8 722h14q17 -42 47 -61t81 -19q49 0 79 18.5t48 61.5h14q-22 -129 -141 -129q-120 0 -142 129z" />
    <glyph glyph-name="icircumflex" unicode="&#xee;" horiz-adv-x="299" 
d="M102 93v342l-85 95h180v-454l66 -76h-204zM150 643q-62 -36 -156 -55l-2 14q52 22 90.5 57.5t57.5 77.5h20q19 -42 57.5 -77t90.5 -58l-3 -14q-93 19 -155 55z" />
    <glyph glyph-name="idieresis" unicode="&#xef;" horiz-adv-x="299" 
d="M21 621q-13 13 -13 32q0 20 12.5 32.5t32.5 12.5q19 0 31.5 -13t12.5 -32t-12.5 -32t-31.5 -13t-32 13zM210 621q-13 13 -13 32q0 20 12.5 32.5t32.5 12.5q19 0 31.5 -13t12.5 -32t-12.5 -32t-31.5 -13t-32 13zM102 93v342l-85 95h180v-454l66 -76h-204z" />
    <glyph glyph-name="i.loclTRK" horiz-adv-x="299" 
d="M191 731q17 -17 17 -43t-16.5 -43t-42.5 -17t-42.5 17t-16.5 43t17 43t42 17t42 -17zM102 93v342l-85 95h180v-454l66 -76h-204z" />
    <glyph glyph-name="igrave" unicode="&#xec;" horiz-adv-x="299" 
d="M102 93v342l-85 95h180v-454l66 -76h-204zM124.5 619.5q-50.5 18.5 -78.5 49.5q-19 19 -19 37q0 16 11 26.5t27 10.5q25 0 46 -36q20 -37 55 -62t77 -33v-14q-68 3 -118.5 21.5z" />
    <glyph glyph-name="ij" unicode="&#x133;" horiz-adv-x="588" 
d="M191 731q17 -17 17 -43t-16.5 -43t-42.5 -17t-42.5 17t-16.5 43t17 43t42 17t42 -17zM102 93v342l-85 95h180v-454l66 -76h-204zM485.5 731q16.5 -17 16.5 -43t-16.5 -43t-42.5 -17t-42.5 17t-16.5 43t17 43t42 17q26 0 42.5 -17zM301.5 -142q12.5 12 33.5 12q11 0 21 -3
t20 -7q26 -10 41 -10q30 0 50 21t20 53q0 37 -32.5 62t-89.5 33l36 82v334l-85 95h180v-502q22 -18 34.5 -46.5t12.5 -60.5q0 -65 -47 -106t-123 -41q-41 0 -62.5 13.5t-21.5 38.5q0 20 12.5 32z" />
    <glyph glyph-name="imacron" unicode="&#x12b;" horiz-adv-x="299" 
d="M102 93v342l-85 95h180v-454l66 -76h-204zM7 653h285v-37h-285v37z" />
    <glyph glyph-name="iogonek" unicode="&#x12f;" horiz-adv-x="299" 
d="M106.5 645q-16.5 17 -16.5 43t17 43t42 17t42 -17t17 -43t-16.5 -43t-42.5 -17t-42.5 17zM166.5 -168.5q15.5 -23.5 49.5 -35.5l-5 -10q-57 -1 -89.5 28t-32.5 77q0 30 14 58.5t40 50.5h-84l43 93v342l-85 95h180v-454l66 -76h-80q-32 -46 -32 -106q0 -39 15.5 -62.5z
" />
    <glyph glyph-name="itilde" unicode="&#x129;" horiz-adv-x="299" 
d="M102 93v342l-85 95h180v-454l66 -76h-204zM208 607q-33 0 -85 18q-39 13 -59 13q-37 0 -43 -34l-13 6q1 40 22.5 60.5t60.5 20.5q20 0 38.5 -4.5t44.5 -12.5q39 -13 59 -13q38 0 44 33l13 -5q-2 -82 -82 -82z" />
    <glyph glyph-name="j" unicode="j" horiz-adv-x="289" 
d="M186.5 731q16.5 -17 16.5 -43t-16.5 -43t-42.5 -17t-42.5 17t-16.5 43t17 43t42 17q26 0 42.5 -17zM2.5 -142q12.5 12 33.5 12q11 0 21 -3t20 -7q26 -10 41 -10q30 0 50 21t20 53q0 37 -32.5 62t-89.5 33l36 82v334l-85 95h180v-502q22 -18 34.5 -46.5t12.5 -60.5
q0 -65 -47 -106t-123 -41q-41 0 -62.5 13.5t-21.5 38.5q0 20 12.5 32z" />
    <glyph glyph-name="uni0237" unicode="&#x237;" horiz-adv-x="290" 
d="M2.5 -142q12.5 12 34.5 12q16 0 40 -10q26 -10 42 -10q30 0 49.5 21t19.5 53q0 37 -32.5 62t-88.5 33l35 82v334l-85 95h181v-502q22 -18 34.5 -46.5t12.5 -60.5q0 -65 -47.5 -106t-122.5 -41q-41 0 -63 13.5t-22 38.5q0 20 12.5 32z" />
    <glyph glyph-name="jcircumflex" unicode="&#x135;" horiz-adv-x="290" 
d="M2.5 -142q12.5 12 34.5 12q16 0 40 -10q26 -10 42 -10q30 0 49.5 21t19.5 53q0 37 -32.5 62t-88.5 33l35 82v334l-85 95h181v-502q22 -18 34.5 -46.5t12.5 -60.5q0 -65 -47.5 -106t-122.5 -41q-41 0 -63 13.5t-22 38.5q0 20 12.5 32zM150 643q-62 -36 -156 -55l-2 14
q52 22 90.5 57.5t57.5 77.5h20q19 -42 57.5 -77t90.5 -58l-3 -14q-93 19 -155 55z" />
    <glyph glyph-name="k" unicode="k" horiz-adv-x="594" 
d="M102 95v559l-87 96h182v-501l229 207l-53 74h200l-247 -223l258 -307h-204l24 76l-147 171l-60 -55v-119l63 -73h-202z" />
    <glyph glyph-name="uni0137" unicode="&#x137;" horiz-adv-x="594" 
d="M102 95v559l-87 96h182v-501l229 207l-53 74h200l-247 -223l258 -307h-204l24 76l-147 171l-60 -55v-119l63 -73h-202zM266 -283q31 21 48.5 53.5t15.5 65.5h-12q-24 0 -40.5 15.5t-16.5 37.5q0 23 16.5 38.5t40.5 15.5q29 0 48 -24t19 -60q0 -47 -30 -89.5t-79 -66.5z
" />
    <glyph glyph-name="kgreenlandic" unicode="&#x138;" horiz-adv-x="594" 
d="M102 95v339l-87 96h182v-281l229 207l-53 74h200l-247 -223l258 -307h-204l24 76l-147 171l-60 -55v-119l63 -73h-202z" />
    <glyph glyph-name="l" unicode="l" horiz-adv-x="299" 
d="M102 93v562l-85 95h180v-674l66 -76h-204z" />
    <glyph glyph-name="lacute" unicode="&#x13a;" horiz-adv-x="299" 
d="M102 93v562l-85 95h180v-674l66 -76h-204zM55 807q43 8 78 33t55 62q19 36 46 36q16 0 26.5 -10.5t10.5 -26.5q0 -19 -18 -37q-28 -31 -79 -49.5t-119 -21.5v14z" />
    <glyph glyph-name="lcaron" unicode="&#x13e;" horiz-adv-x="400" 
d="M102 93v562l-85 95h180v-674l66 -76h-204zM276 535q31 22 48.5 54.5t15.5 65.5h-12q-24 0 -40.5 15.5t-16.5 37.5q0 23 16.5 38.5t40.5 15.5q29 0 48 -24t19 -61q0 -46 -29.5 -88.5t-79.5 -66.5z" />
    <glyph glyph-name="uni013C" unicode="&#x13c;" horiz-adv-x="299" 
d="M102 93v562l-85 95h180v-674l66 -76h-204zM93 -283q31 21 48.5 53.5t15.5 65.5h-12q-24 0 -40.5 15.5t-16.5 37.5q0 23 16.5 38.5t40.5 15.5q29 0 48 -24t19 -60q0 -47 -30 -89.5t-79 -66.5z" />
    <glyph glyph-name="ldot" unicode="&#x140;" horiz-adv-x="332" 
d="M102 93v562l-85 95h180v-674l66 -76h-204zM271 335q-16 16 -16 41t16 41.5t41 16.5t41 -16.5t16 -41.5t-16 -41t-41 -16t-41 16z" />
    <glyph glyph-name="lslash" unicode="&#x142;" horiz-adv-x="299" 
d="M102 93v269l-90 -21l-10 40l100 24v250l-85 95h180v-322l84 21l11 -40l-95 -23v-310l66 -76h-204z" />
    <glyph glyph-name="m" unicode="m" horiz-adv-x="979" 
d="M102 93v342l-85 95h171v-132q67 150 192 150q63 0 102.5 -36t52.5 -104q65 140 189 140q79 0 121 -55t42 -159v-260l65 -74h-202l42 90v241q0 74 -25.5 112t-75.5 38q-51 0 -90 -38.5t-59 -109.5v-259l64 -74h-201l42 90v241q0 74 -25 112t-75 38q-51 0 -90 -39.5
t-60 -111.5v-254l66 -76h-204z" />
    <glyph glyph-name="n" unicode="n" horiz-adv-x="653" 
d="M102 93v342l-85 95h171v-132q32 72 85 111t122 39q81 0 124 -55t43 -159v-260l64 -74h-202l42 90v241q0 150 -105 150q-56 0 -100 -40.5t-64 -110.5v-254l66 -76h-204z" />
    <glyph glyph-name="nacute" unicode="&#x144;" horiz-adv-x="653" 
d="M102 93v342l-85 95h171v-132q32 72 85 111t122 39q81 0 124 -55t43 -159v-260l64 -74h-202l42 90v241q0 150 -105 150q-56 0 -100 -40.5t-64 -110.5v-254l66 -76h-204zM232 612q43 8 78 33t55 62q19 36 46 36q16 0 26.5 -10.5t10.5 -26.5q0 -19 -18 -37
q-28 -31 -79 -49.5t-119 -21.5v14z" />
    <glyph glyph-name="ncaron" unicode="&#x148;" horiz-adv-x="653" 
d="M102 93v342l-85 95h171v-132q32 72 85 111t122 39q81 0 124 -55t43 -159v-260l64 -74h-202l42 90v241q0 150 -105 150q-56 0 -100 -40.5t-64 -110.5v-254l66 -76h-204zM327 680q62 36 155 55l3 -14q-53 -23 -91 -58t-57 -78h-20q-19 43 -57.5 78t-90.5 58l2 14
q94 -19 156 -55z" />
    <glyph glyph-name="uni0146" unicode="&#x146;" horiz-adv-x="653" 
d="M102 93v342l-85 95h171v-132q32 72 85 111t122 39q81 0 124 -55t43 -159v-260l64 -74h-202l42 90v241q0 150 -105 150q-56 0 -100 -40.5t-64 -110.5v-254l66 -76h-204zM281 -283q31 21 48.5 53.5t15.5 65.5h-12q-24 0 -40.5 15.5t-16.5 37.5q0 23 16.5 38.5t40.5 15.5
q29 0 48 -24t19 -60q0 -47 -30 -89.5t-79 -66.5z" />
    <glyph glyph-name="eng" unicode="&#x14b;" horiz-adv-x="655" 
d="M103 95v339l-86 96h172v-130q32 71 87 109.5t123 38.5q80 0 121 -53.5t41 -157.5v-309q23 -19 36 -48t13 -62q0 -64 -46.5 -104t-120.5 -40q-42 0 -64.5 13.5t-22.5 39.5q0 19 13 31t35 12q16 0 40 -8q23 -9 42 -9q29 0 48 20t19 51q0 37 -33 62t-91 33l36 82v234
q0 146 -101 146q-56 0 -101 -41t-65 -110v-251l68 -79h-207z" />
    <glyph glyph-name="ntilde" unicode="&#xf1;" horiz-adv-x="653" 
d="M102 93v342l-85 95h171v-132q32 72 85 111t122 39q81 0 124 -55t43 -159v-260l64 -74h-202l42 90v241q0 150 -105 150q-56 0 -100 -40.5t-64 -110.5v-254l66 -76h-204zM385 607q-33 0 -85 18q-39 13 -59 13q-37 0 -43 -34l-13 6q1 40 22.5 60.5t60.5 20.5q20 0 38.5 -4.5
t44.5 -12.5q39 -13 59 -13q38 0 44 33l13 -5q-2 -82 -82 -82z" />
    <glyph glyph-name="o" unicode="o" horiz-adv-x="635" 
d="M74.5 415.5q34.5 64.5 97 99t145.5 34.5q84 0 147 -34t97 -98t34 -150q0 -85 -33.5 -148t-96 -97t-148.5 -34q-85 0 -147.5 34t-96 96.5t-33.5 146.5q0 86 34.5 150.5zM447 440.5q-47 61.5 -130 61.5t-129 -61t-46 -174q0 -112 44.5 -171.5t130.5 -59.5q85 0 131 60
t46 171q0 112 -47 173.5z" />
    <glyph glyph-name="oacute" unicode="&#xf3;" horiz-adv-x="635" 
d="M74.5 415.5q34.5 64.5 97 99t145.5 34.5q84 0 147 -34t97 -98t34 -150q0 -85 -33.5 -148t-96 -97t-148.5 -34q-85 0 -147.5 34t-96 96.5t-33.5 146.5q0 86 34.5 150.5zM447 440.5q-47 61.5 -130 61.5t-129 -61t-46 -174q0 -112 44.5 -171.5t130.5 -59.5q85 0 131 60
t46 171q0 112 -47 173.5zM223 612q43 8 78 33t55 62q19 36 46 36q16 0 26.5 -10.5t10.5 -26.5q0 -19 -18 -37q-28 -31 -79 -49.5t-119 -21.5v14z" />
    <glyph glyph-name="obreve" unicode="&#x14f;" horiz-adv-x="635" 
d="M74.5 415.5q34.5 64.5 97 99t145.5 34.5q84 0 147 -34t97 -98t34 -150q0 -85 -33.5 -148t-96 -97t-148.5 -34q-85 0 -147.5 34t-96 96.5t-33.5 146.5q0 86 34.5 150.5zM447 440.5q-47 61.5 -130 61.5t-129 -61t-46 -174q0 -112 44.5 -171.5t130.5 -59.5q85 0 131 60
t46 171q0 112 -47 173.5zM176 722h14q17 -42 47 -61t81 -19q49 0 79 18.5t48 61.5h14q-22 -129 -141 -129q-120 0 -142 129z" />
    <glyph glyph-name="ocircumflex" unicode="&#xf4;" horiz-adv-x="635" 
d="M74.5 415.5q34.5 64.5 97 99t145.5 34.5q84 0 147 -34t97 -98t34 -150q0 -85 -33.5 -148t-96 -97t-148.5 -34q-85 0 -147.5 34t-96 96.5t-33.5 146.5q0 86 34.5 150.5zM447 440.5q-47 61.5 -130 61.5t-129 -61t-46 -174q0 -112 44.5 -171.5t130.5 -59.5q85 0 131 60
t46 171q0 112 -47 173.5zM318 643q-62 -36 -156 -55l-2 14q52 22 90.5 57.5t57.5 77.5h20q19 -42 57.5 -77t90.5 -58l-3 -14q-93 19 -155 55z" />
    <glyph glyph-name="odieresis" unicode="&#xf6;" horiz-adv-x="635" 
d="M74.5 415.5q34.5 64.5 97 99t145.5 34.5q84 0 147 -34t97 -98t34 -150q0 -85 -33.5 -148t-96 -97t-148.5 -34q-85 0 -147.5 34t-96 96.5t-33.5 146.5q0 86 34.5 150.5zM447 440.5q-47 61.5 -130 61.5t-129 -61t-46 -174q0 -112 44.5 -171.5t130.5 -59.5q85 0 131 60
t46 171q0 112 -47 173.5zM252.5 685q12.5 -13 12.5 -32t-12.5 -32t-31.5 -13q-20 0 -33 13t-13 32q0 20 13 32.5t33 12.5q19 0 31.5 -13zM446.5 685q12.5 -13 12.5 -32t-12.5 -32t-31.5 -13q-20 0 -33 13t-13 32q0 20 13 32.5t33 12.5q19 0 31.5 -13z" />
    <glyph glyph-name="ograve" unicode="&#xf2;" horiz-adv-x="635" 
d="M74.5 415.5q34.5 64.5 97 99t145.5 34.5q84 0 147 -34t97 -98t34 -150q0 -85 -33.5 -148t-96 -97t-148.5 -34q-85 0 -147.5 34t-96 96.5t-33.5 146.5q0 86 34.5 150.5zM447 440.5q-47 61.5 -130 61.5t-129 -61t-46 -174q0 -112 44.5 -171.5t130.5 -59.5q85 0 131 60
t46 171q0 112 -47 173.5zM292.5 619.5q-50.5 18.5 -78.5 49.5q-19 19 -19 37q0 16 11 26.5t27 10.5q25 0 46 -36q20 -37 55 -62t77 -33v-14q-68 3 -118.5 21.5z" />
    <glyph glyph-name="ohungarumlaut" unicode="&#x151;" horiz-adv-x="635" 
d="M74.5 415.5q34.5 64.5 97 99t145.5 34.5q84 0 147 -34t97 -98t34 -150q0 -85 -33.5 -148t-96 -97t-148.5 -34q-85 0 -147.5 34t-96 96.5t-33.5 146.5q0 86 34.5 150.5zM447 440.5q-47 61.5 -130 61.5t-129 -61t-46 -174q0 -112 44.5 -171.5t130.5 -59.5q85 0 131 60
t46 171q0 112 -47 173.5zM227 608q15 19 28 46.5t17 49.5q8 42 39 42q14 0 23 -9t9 -24q0 -18 -14 -38q-16 -23 -41.5 -43t-54.5 -31zM364 608q16 19 29 46.5t17 49.5q8 42 38 42q14 0 23 -9t9 -24q0 -18 -13 -38q-16 -23 -41.5 -43t-54.5 -31z" />
    <glyph glyph-name="omacron" unicode="&#x14d;" horiz-adv-x="635" 
d="M74.5 415.5q34.5 64.5 97 99t145.5 34.5q84 0 147 -34t97 -98t34 -150q0 -85 -33.5 -148t-96 -97t-148.5 -34q-85 0 -147.5 34t-96 96.5t-33.5 146.5q0 86 34.5 150.5zM447 440.5q-47 61.5 -130 61.5t-129 -61t-46 -174q0 -112 44.5 -171.5t130.5 -59.5q85 0 131 60
t46 171q0 112 -47 173.5zM175 653h285v-37h-285v37z" />
    <glyph glyph-name="oslash" unicode="&#xf8;" horiz-adv-x="635" 
d="M141 41l-49 -53l-30 28l48 53q-70 73 -70 196q0 86 34.5 150.5t97 99t145.5 34.5q108 0 178 -55l49 54l29 -28l-48 -53q70 -76 70 -200q0 -85 -33.5 -148t-96 -97t-148.5 -34q-106 0 -176 53zM171 133l273 306q-46 63 -127 63q-83 0 -129 -61t-46 -174q0 -81 29 -134z
M448 96q46 60 46 171q0 81 -31 135l-272 -307q44 -59 126 -59q85 0 131 60z" />
    <glyph glyph-name="otilde" unicode="&#xf5;" horiz-adv-x="635" 
d="M74.5 415.5q34.5 64.5 97 99t145.5 34.5q84 0 147 -34t97 -98t34 -150q0 -85 -33.5 -148t-96 -97t-148.5 -34q-85 0 -147.5 34t-96 96.5t-33.5 146.5q0 86 34.5 150.5zM447 440.5q-47 61.5 -130 61.5t-129 -61t-46 -174q0 -112 44.5 -171.5t130.5 -59.5q85 0 131 60
t46 171q0 112 -47 173.5zM376 607q-33 0 -85 18q-39 13 -59 13q-37 0 -43 -34l-13 6q1 40 22.5 60.5t60.5 20.5q20 0 38.5 -4.5t44.5 -12.5q39 -13 59 -13q38 0 44 33l13 -5q-2 -82 -82 -82z" />
    <glyph glyph-name="oe" unicode="&#x153;" horiz-adv-x="1035" 
d="M112.5 62.5q-72.5 74.5 -72.5 204.5q0 84 33.5 148t96.5 99t147 35q79 0 138.5 -31t91.5 -89q34 56 89.5 88t124.5 32q107 0 163.5 -72.5t54.5 -209.5h-384q5 -107 58.5 -163.5t148.5 -56.5q53 0 94.5 20t88.5 69l9 -7q-37 -70 -97 -105.5t-140 -35.5q-72 0 -127.5 31
t-87.5 86q-35 -56 -93.5 -86.5t-135.5 -30.5q-128 0 -200.5 74.5zM447 96q46 60 46 171q0 112 -46.5 173.5t-129.5 61.5t-129.5 -61t-46.5 -174t43.5 -172t128.5 -59q88 0 134 60zM640 451q-42 -51 -46 -142h297q0 95 -35 144t-103 49q-71 0 -113 -51z" />
    <glyph glyph-name="p" unicode="p" horiz-adv-x="639" 
d="M102 -107v542l-85 95h171v-108q26 60 76 93.5t115 33.5q66 0 115.5 -34.5t76.5 -97.5t27 -147q0 -85 -27 -148.5t-77 -98.5t-116 -35q-59 0 -106 28.5t-75 80.5v-221l66 -76h-204zM254.5 85q39.5 -28 89.5 -28q71 0 113 57.5t42 154.5q0 98 -41.5 155t-112.5 57
q-51 0 -90.5 -28.5t-57.5 -77.5v-213q18 -49 57.5 -77z" />
    <glyph glyph-name="thorn" unicode="&#xfe;" horiz-adv-x="628" 
d="M92 -105v774l-71 81h166v-309q29 52 76 80t106 28q66 0 115.5 -34.5t76.5 -97.5t27 -147q0 -85 -27 -148.5t-77 -98.5t-116 -35q-59 0 -106.5 28.5t-74.5 79.5v-217l68 -79h-207zM244 85q39 -28 90 -28q72 0 113.5 57t41.5 155t-41.5 155t-113.5 57q-51 0 -90 -28.5
t-57 -77.5v-213q18 -49 57 -77z" />
    <glyph glyph-name="q" unicode="q" horiz-adv-x="628" 
d="M441 -105v202q-28 -52 -75 -80.5t-106 -28.5q-66 0 -116 35t-77 99t-27 148t27 147t76.5 97.5t115.5 34.5q62 0 111 -31t76 -86l9 98h82v-651l67 -79h-207zM441 375q-18 49 -57 77.5t-89 28.5q-72 0 -113.5 -57t-41.5 -155t41.5 -155t113.5 -57q50 0 89 28t57 77v213z
" />
    <glyph glyph-name="r" unicode="r" horiz-adv-x="436" 
d="M102 93v342l-85 95h171v-182q18 85 65 134.5t109 49.5q30 0 47.5 -13.5t17.5 -38.5q0 -23 -17 -37t-47 -14q-11 0 -29 4q-4 1 -10 2t-14 1q-5 0 -15 -2q-67 -22 -98 -146v-212l66 -76h-204z" />
    <glyph glyph-name="racute" unicode="&#x155;" horiz-adv-x="436" 
d="M102 93v342l-85 95h171v-182q18 85 65 134.5t109 49.5q30 0 47.5 -13.5t17.5 -38.5q0 -23 -17 -37t-47 -14q-11 0 -29 4q-4 1 -10 2t-14 1q-5 0 -15 -2q-67 -22 -98 -146v-212l66 -76h-204zM142 612q43 8 78 33t55 62q19 36 46 36q16 0 26.5 -10.5t10.5 -26.5
q0 -19 -18 -37q-28 -31 -79 -49.5t-119 -21.5v14z" />
    <glyph glyph-name="rcaron" unicode="&#x159;" horiz-adv-x="436" 
d="M102 93v342l-85 95h171v-182q18 85 65 134.5t109 49.5q30 0 47.5 -13.5t17.5 -38.5q0 -23 -17 -37t-47 -14q-11 0 -29 4q-4 1 -10 2t-14 1q-5 0 -15 -2q-67 -22 -98 -146v-212l66 -76h-204zM236 680q62 36 155 55l3 -14q-53 -23 -91 -58t-57 -78h-20q-19 43 -57.5 78
t-90.5 58l2 14q94 -19 156 -55z" />
    <glyph glyph-name="uni0157" unicode="&#x157;" horiz-adv-x="436" 
d="M102 93v342l-85 95h171v-182q18 85 65 134.5t109 49.5q30 0 47.5 -13.5t17.5 -38.5q0 -23 -17 -37t-47 -14q-11 0 -29 4q-4 1 -10 2t-14 1q-5 0 -15 -2q-67 -22 -98 -146v-212l66 -76h-204zM93 -283q31 21 48.5 53.5t15.5 65.5h-12q-24 0 -40.5 15.5t-16.5 37.5
q0 23 16.5 38.5t40.5 15.5q29 0 48 -24t19 -60q0 -47 -30 -89.5t-79 -66.5z" />
    <glyph glyph-name="s" unicode="s" horiz-adv-x="556" 
d="M52 142l84 -46q55 -30 99.5 -43.5t87.5 -13.5q50 0 75 17.5t25 54.5q0 40 -36.5 66t-128.5 52q-107 28 -157 72t-50 109t43 102t117 37q87 0 166 -54l83 41v-152l-74 51q-91 65 -168 65q-43 0 -65.5 -18t-22.5 -52q0 -40 35.5 -64.5t123.5 -47.5q113 -28 164.5 -71
t51.5 -111q0 -70 -47.5 -109t-133.5 -39q-92 0 -176 51l-96 -49v152z" />
    <glyph glyph-name="sacute" unicode="&#x15b;" horiz-adv-x="556" 
d="M52 142l84 -46q55 -30 99.5 -43.5t87.5 -13.5q50 0 75 17.5t25 54.5q0 40 -36.5 66t-128.5 52q-107 28 -157 72t-50 109t43 102t117 37q87 0 166 -54l83 41v-152l-74 51q-91 65 -168 65q-43 0 -65.5 -18t-22.5 -52q0 -40 35.5 -64.5t123.5 -47.5q113 -28 164.5 -71
t51.5 -111q0 -70 -47.5 -109t-133.5 -39q-92 0 -176 51l-96 -49v152zM166 612q43 8 78 33t55 62q19 36 46 36q16 0 26.5 -10.5t10.5 -26.5q0 -19 -18 -37q-28 -31 -79 -49.5t-119 -21.5v14z" />
    <glyph glyph-name="scaron" unicode="&#x161;" horiz-adv-x="556" 
d="M52 142l84 -46q55 -30 99.5 -43.5t87.5 -13.5q50 0 75 17.5t25 54.5q0 40 -36.5 66t-128.5 52q-107 28 -157 72t-50 109t43 102t117 37q87 0 166 -54l83 41v-152l-74 51q-91 65 -168 65q-43 0 -65.5 -18t-22.5 -52q0 -40 35.5 -64.5t123.5 -47.5q113 -28 164.5 -71
t51.5 -111q0 -70 -47.5 -109t-133.5 -39q-92 0 -176 51l-96 -49v152zM260 680q62 36 155 55l3 -14q-53 -23 -91 -58t-57 -78h-20q-19 43 -57.5 78t-90.5 58l2 14q94 -19 156 -55z" />
    <glyph glyph-name="scedilla" unicode="&#x15f;" horiz-adv-x="556" 
d="M303 -11l-22 -48q44 -4 71 -27.5t27 -57.5q0 -39 -35 -63t-90 -24q-31 0 -66 9l3 12q20 -3 37 -3q41 0 64 15.5t23 45.5q0 57 -91 59l45 86q-63 11 -121 46l-96 -49v152l84 -46q55 -30 99.5 -43.5t87.5 -13.5q50 0 75 17.5t25 54.5q0 40 -36.5 66t-128.5 52
q-107 28 -157 72t-50 109t43 102t117 37q87 0 166 -54l83 41v-152l-74 51q-91 65 -168 65q-43 0 -65.5 -18t-22.5 -52q0 -40 35.5 -64.5t123.5 -47.5q113 -28 164.5 -71t51.5 -111q0 -70 -47.5 -109t-133.5 -39q-14 0 -21 1z" />
    <glyph glyph-name="scircumflex" unicode="&#x15d;" horiz-adv-x="556" 
d="M52 142l84 -46q55 -30 99.5 -43.5t87.5 -13.5q50 0 75 17.5t25 54.5q0 40 -36.5 66t-128.5 52q-107 28 -157 72t-50 109t43 102t117 37q87 0 166 -54l83 41v-152l-74 51q-91 65 -168 65q-43 0 -65.5 -18t-22.5 -52q0 -40 35.5 -64.5t123.5 -47.5q113 -28 164.5 -71
t51.5 -111q0 -70 -47.5 -109t-133.5 -39q-92 0 -176 51l-96 -49v152zM260 643q-62 -36 -156 -55l-2 14q52 22 90.5 57.5t57.5 77.5h20q19 -42 57.5 -77t90.5 -58l-3 -14q-93 19 -155 55z" />
    <glyph glyph-name="uni0219" unicode="&#x219;" horiz-adv-x="556" 
d="M52 142l84 -46q55 -30 99.5 -43.5t87.5 -13.5q50 0 75 17.5t25 54.5q0 40 -36.5 66t-128.5 52q-107 28 -157 72t-50 109t43 102t117 37q87 0 166 -54l83 41v-152l-74 51q-91 65 -168 65q-43 0 -65.5 -18t-22.5 -52q0 -40 35.5 -64.5t123.5 -47.5q113 -28 164.5 -71
t51.5 -111q0 -70 -47.5 -109t-133.5 -39q-92 0 -176 51l-96 -49v152zM240 -283q31 21 48.5 53.5t15.5 65.5h-12q-24 0 -40.5 15.5t-16.5 37.5q0 23 16.5 38.5t40.5 15.5q29 0 48 -24t19 -60q0 -47 -30 -89.5t-79 -66.5z" />
    <glyph glyph-name="germandbls" unicode="&#xdf;" horiz-adv-x="714" 
d="M113 91v385h-95v54h97q7 111 71.5 170.5t176.5 59.5q99 0 154.5 -43.5t55.5 -121.5q0 -54 -25 -100q-171 8 -171 -87q0 -36 27 -55.5t98 -33.5q97 -19 144.5 -61.5t47.5 -111.5q0 -71 -46 -114.5t-121 -43.5q-39 0 -76 13t-69 37l-92 -48v155l67 -48q44 -31 81 -45
t74 -14q47 0 72.5 20.5t25.5 59.5q0 40 -31 64.5t-103 41.5q-90 21 -133.5 60t-43.5 98q0 64 47.5 101t136.5 44q8 31 8 63q0 62 -36 96.5t-100 34.5q-76 0 -111 -52.5t-35 -165.5v-503h-138z" />
    <glyph glyph-name="t" unicode="t" horiz-adv-x="381" 
d="M114 530l33 172h61v-172h127v-56h-127v-326q0 -55 19.5 -81t59.5 -26t66 26l8 -7q-16 -35 -46 -53.5t-73 -18.5q-62 0 -96 38t-34 106v342h-102v56h104z" />
    <glyph glyph-name="tbar" unicode="&#x167;" horiz-adv-x="381" 
d="M112 350v124h-102v56h104l33 172h61v-172h127v-56h-127v-124h112v-45h-112v-157q0 -55 19.5 -81t59.5 -26t66 26l8 -7q-16 -35 -46 -53.5t-73 -18.5q-62 0 -96 38t-34 106v173h-92v45h92z" />
    <glyph glyph-name="tcaron" unicode="&#x165;" horiz-adv-x="381" 
d="M114 530l33 172h61v-172h127v-56h-127v-326q0 -55 19.5 -81t59.5 -26t66 26l8 -7q-16 -35 -46 -53.5t-73 -18.5q-62 0 -96 38t-34 106v342h-102v56h104zM273 630q31 22 48.5 54.5t15.5 65.5h-12q-24 0 -40.5 15.5t-16.5 37.5q0 23 16.5 38.5t40.5 15.5q29 0 48 -24
t19 -61q0 -46 -29.5 -88.5t-79.5 -66.5z" />
    <glyph glyph-name="uni0163" unicode="&#x163;" horiz-adv-x="381" 
d="M317 7.5q-29 -18.5 -70 -19.5l-22 -47q44 -4 71 -27.5t27 -57.5q0 -39 -35 -63t-90 -24q-31 0 -66 9l3 12q20 -3 37 -3q41 0 64 15.5t23 45.5q0 57 -91 59l44 84q-48 8 -74 45t-26 96v342h-102v56h104l33 172h61v-172h127v-56h-127v-326q0 -55 19.5 -81t59.5 -26t66 26
l8 -7q-15 -34 -44 -52.5z" />
    <glyph glyph-name="uni021B" unicode="&#x21b;" horiz-adv-x="381" 
d="M114 530l33 172h61v-172h127v-56h-127v-326q0 -55 19.5 -81t59.5 -26t66 26l8 -7q-16 -35 -46 -53.5t-73 -18.5q-62 0 -96 38t-34 106v342h-102v56h104zM184 -283q31 21 48.5 53.5t15.5 65.5h-12q-24 0 -40.5 15.5t-16.5 37.5q0 23 16.5 38.5t40.5 15.5q29 0 48 -24
t19 -60q0 -47 -30 -89.5t-79 -66.5z" />
    <glyph glyph-name="u" unicode="u" horiz-adv-x="642" 
d="M187 180q0 -62 27.5 -94.5t78.5 -32.5q56 0 97 39t58 109v240l-78 89h170v-441l80 -89h-162v127q-60 -139 -195 -139q-80 0 -125.5 49.5t-45.5 135.5v276l-71 81h166v-350z" />
    <glyph glyph-name="uacute" unicode="&#xfa;" horiz-adv-x="642" 
d="M187 180q0 -62 27.5 -94.5t78.5 -32.5q56 0 97 39t58 109v240l-78 89h170v-441l80 -89h-162v127q-60 -139 -195 -139q-80 0 -125.5 49.5t-45.5 135.5v276l-71 81h166v-350zM202 612q43 8 78 33t55 62q19 36 46 36q16 0 26.5 -10.5t10.5 -26.5q0 -19 -18 -37
q-28 -31 -79 -49.5t-119 -21.5v14z" />
    <glyph glyph-name="ubreve" unicode="&#x16d;" horiz-adv-x="642" 
d="M187 180q0 -62 27.5 -94.5t78.5 -32.5q56 0 97 39t58 109v240l-78 89h170v-441l80 -89h-162v127q-60 -139 -195 -139q-80 0 -125.5 49.5t-45.5 135.5v276l-71 81h166v-350zM155 722h14q17 -42 47 -61t81 -19q49 0 79 18.5t48 61.5h14q-22 -129 -141 -129q-120 0 -142 129
z" />
    <glyph glyph-name="ucircumflex" unicode="&#xfb;" horiz-adv-x="642" 
d="M187 180q0 -62 27.5 -94.5t78.5 -32.5q56 0 97 39t58 109v240l-78 89h170v-441l80 -89h-162v127q-60 -139 -195 -139q-80 0 -125.5 49.5t-45.5 135.5v276l-71 81h166v-350zM297 643q-62 -36 -156 -55l-2 14q52 22 90.5 57.5t57.5 77.5h20q19 -42 57.5 -77t90.5 -58
l-3 -14q-93 19 -155 55z" />
    <glyph glyph-name="udieresis" unicode="&#xfc;" horiz-adv-x="642" 
d="M187 180q0 -62 27.5 -94.5t78.5 -32.5q56 0 97 39t58 109v240l-78 89h170v-441l80 -89h-162v127q-60 -139 -195 -139q-80 0 -125.5 49.5t-45.5 135.5v276l-71 81h166v-350zM232.5 685q12.5 -13 12.5 -32t-12.5 -32t-31.5 -13q-20 0 -33 13t-13 32q0 20 13 32.5t33 12.5
q19 0 31.5 -13zM426.5 685q12.5 -13 12.5 -32t-12.5 -32t-31.5 -13q-20 0 -33 13t-13 32q0 20 13 32.5t33 12.5q19 0 31.5 -13z" />
    <glyph glyph-name="ugrave" unicode="&#xf9;" horiz-adv-x="642" 
d="M187 180q0 -62 27.5 -94.5t78.5 -32.5q56 0 97 39t58 109v240l-78 89h170v-441l80 -89h-162v127q-60 -139 -195 -139q-80 0 -125.5 49.5t-45.5 135.5v276l-71 81h166v-350zM271.5 619.5q-50.5 18.5 -78.5 49.5q-19 19 -19 37q0 16 11 26.5t27 10.5q25 0 46 -36
q20 -37 55 -62t77 -33v-14q-68 3 -118.5 21.5z" />
    <glyph glyph-name="uhungarumlaut" unicode="&#x171;" horiz-adv-x="642" 
d="M187 180q0 -62 27.5 -94.5t78.5 -32.5q56 0 97 39t58 109v240l-78 89h170v-441l80 -89h-162v127q-60 -139 -195 -139q-80 0 -125.5 49.5t-45.5 135.5v276l-71 81h166v-350zM207 608q15 19 28 46.5t17 49.5q8 42 39 42q14 0 23 -9t9 -24q0 -18 -14 -38q-16 -23 -41.5 -43
t-54.5 -31zM344 608q16 19 29 46.5t17 49.5q8 42 38 42q14 0 23 -9t9 -24q0 -18 -13 -38q-16 -23 -41.5 -43t-54.5 -31z" />
    <glyph glyph-name="umacron" unicode="&#x16b;" horiz-adv-x="642" 
d="M187 180q0 -62 27.5 -94.5t78.5 -32.5q56 0 97 39t58 109v240l-78 89h170v-441l80 -89h-162v127q-60 -139 -195 -139q-80 0 -125.5 49.5t-45.5 135.5v276l-71 81h166v-350zM155 653h285v-37h-285v37z" />
    <glyph glyph-name="uogonek" unicode="&#x173;" horiz-adv-x="642" 
d="M544.5 -168.5q15.5 -23.5 49.5 -35.5l-5 -10q-57 -1 -89.5 28t-32.5 77q0 30 14 58.5t40 50.5h-63v127q-60 -139 -195 -139q-80 0 -125.5 49.5t-45.5 135.5v276l-71 81h166v-350q0 -62 27.5 -94.5t78.5 -32.5q56 0 97 39t58 109v240l-78 89h170v-441l80 -89h-59
q-32 -46 -32 -106q0 -39 15.5 -62.5z" />
    <glyph glyph-name="uring" unicode="&#x16f;" horiz-adv-x="642" 
d="M187 180q0 -62 27.5 -94.5t78.5 -32.5q56 0 97 39t58 109v240l-78 89h170v-441l80 -89h-162v127q-60 -139 -195 -139q-80 0 -125.5 49.5t-45.5 135.5v276l-71 81h166v-350zM232.5 605.5q-25.5 25.5 -25.5 64.5t25.5 65t63.5 26q39 0 65 -26t26 -65t-26 -64.5t-65 -25.5
q-38 0 -63.5 25.5zM344.5 622q19.5 19 19.5 48t-19.5 48.5t-48.5 19.5t-48 -19.5t-19 -48.5t19 -48t48 -19t48.5 19z" />
    <glyph glyph-name="utilde" unicode="&#x169;" horiz-adv-x="642" 
d="M187 180q0 -62 27.5 -94.5t78.5 -32.5q56 0 97 39t58 109v240l-78 89h170v-441l80 -89h-162v127q-60 -139 -195 -139q-80 0 -125.5 49.5t-45.5 135.5v276l-71 81h166v-350zM355 607q-33 0 -85 18q-39 13 -59 13q-37 0 -43 -34l-13 6q1 40 22.5 60.5t60.5 20.5
q20 0 38.5 -4.5t44.5 -12.5q39 -13 59 -13q38 0 44 33l13 -5q-2 -82 -82 -82z" />
    <glyph glyph-name="v" unicode="v" horiz-adv-x="568" 
d="M83 444l-83 86h227l-40 -86l138 -346l146 353l-68 79h155l-223 -539h-63z" />
    <glyph glyph-name="w" unicode="w" horiz-adv-x="849" 
d="M79 448l-79 82h219l-38 -83l121 -342l113 306l-17 42l-74 77h217l-40 -85l131 -346l123 351l-69 80h153l-194 -539h-65l-137 347l-131 -347h-65z" />
    <glyph glyph-name="wacute" unicode="&#x1e83;" horiz-adv-x="849" 
d="M79 448l-79 82h219l-38 -83l121 -342l113 306l-17 42l-74 77h217l-40 -85l131 -346l123 351l-69 80h153l-194 -539h-65l-137 347l-131 -347h-65zM349 612q43 8 78 33t55 62q19 36 46 36q16 0 26.5 -10.5t10.5 -26.5q0 -19 -18 -37q-28 -31 -79 -49.5t-119 -21.5v14z" />
    <glyph glyph-name="wcircumflex" unicode="&#x175;" horiz-adv-x="849" 
d="M79 448l-79 82h219l-38 -83l121 -342l113 306l-17 42l-74 77h217l-40 -85l131 -346l123 351l-69 80h153l-194 -539h-65l-137 347l-131 -347h-65zM444 643q-62 -36 -156 -55l-2 14q52 22 90.5 57.5t57.5 77.5h20q19 -42 57.5 -77t90.5 -58l-3 -14q-93 19 -155 55z" />
    <glyph glyph-name="wdieresis" unicode="&#x1e85;" horiz-adv-x="849" 
d="M79 448l-79 82h219l-38 -83l121 -342l113 306l-17 42l-74 77h217l-40 -85l131 -346l123 351l-69 80h153l-194 -539h-65l-137 347l-131 -347h-65zM378.5 685q12.5 -13 12.5 -32t-12.5 -32t-31.5 -13q-20 0 -33 13t-13 32q0 20 13 32.5t33 12.5q19 0 31.5 -13zM572.5 685
q12.5 -13 12.5 -32t-12.5 -32t-31.5 -13q-20 0 -33 13t-13 32q0 20 13 32.5t33 12.5q19 0 31.5 -13z" />
    <glyph glyph-name="wgrave" unicode="&#x1e81;" horiz-adv-x="849" 
d="M79 448l-79 82h219l-38 -83l121 -342l113 306l-17 42l-74 77h217l-40 -85l131 -346l123 351l-69 80h153l-194 -539h-65l-137 347l-131 -347h-65zM418.5 619.5q-50.5 18.5 -78.5 49.5q-19 19 -19 37q0 16 11 26.5t27 10.5q25 0 46 -36q20 -37 55 -62t77 -33v-14
q-68 3 -118.5 21.5z" />
    <glyph glyph-name="x" unicode="x" horiz-adv-x="570" 
d="M0 0l230 257l-226 273h200l-32 -66l125 -150l137 154l-55 62h178l-229 -254l228 -276h-200l31 66l-126 152l-138 -156l55 -62h-178z" />
    <glyph glyph-name="y" unicode="y" horiz-adv-x="568" 
d="M90.5 -149q13.5 11 38.5 11q15 0 43 -6q26 -6 41 -6q42 0 68 24.5t26 64.5q0 50 -48 82l-176 423l-83 86h227l-40 -86l138 -346l146 353l-68 79h155l-214 -517q19 -39 19 -77q0 -49 -25 -88t-69 -61.5t-100 -22.5q-44 0 -68 14.5t-24 41.5q0 20 13.5 31z" />
    <glyph glyph-name="yacute" unicode="&#xfd;" horiz-adv-x="568" 
d="M90.5 -149q13.5 11 38.5 11q15 0 43 -6q26 -6 41 -6q42 0 68 24.5t26 64.5q0 50 -48 82l-176 423l-83 86h227l-40 -86l138 -346l146 353l-68 79h155l-214 -517q19 -39 19 -77q0 -49 -25 -88t-69 -61.5t-100 -22.5q-44 0 -68 14.5t-24 41.5q0 20 13.5 31zM212 612
q43 8 78 33t55 62q19 36 46 36q16 0 26.5 -10.5t10.5 -26.5q0 -19 -18 -37q-28 -31 -79 -49.5t-119 -21.5v14z" />
    <glyph glyph-name="ycircumflex" unicode="&#x177;" horiz-adv-x="568" 
d="M90.5 -149q13.5 11 38.5 11q15 0 43 -6q26 -6 41 -6q42 0 68 24.5t26 64.5q0 50 -48 82l-176 423l-83 86h227l-40 -86l138 -346l146 353l-68 79h155l-214 -517q19 -39 19 -77q0 -49 -25 -88t-69 -61.5t-100 -22.5q-44 0 -68 14.5t-24 41.5q0 20 13.5 31zM307 643
q-62 -36 -156 -55l-2 14q52 22 90.5 57.5t57.5 77.5h20q19 -42 57.5 -77t90.5 -58l-3 -14q-93 19 -155 55z" />
    <glyph glyph-name="ydieresis" unicode="&#xff;" horiz-adv-x="568" 
d="M90.5 -149q13.5 11 38.5 11q15 0 43 -6q26 -6 41 -6q42 0 68 24.5t26 64.5q0 50 -48 82l-176 423l-83 86h227l-40 -86l138 -346l146 353l-68 79h155l-214 -517q19 -39 19 -77q0 -49 -25 -88t-69 -61.5t-100 -22.5q-44 0 -68 14.5t-24 41.5q0 20 13.5 31zM242.5 685
q12.5 -13 12.5 -32t-12.5 -32t-31.5 -13q-20 0 -33 13t-13 32q0 20 13 32.5t33 12.5q19 0 31.5 -13zM436.5 685q12.5 -13 12.5 -32t-12.5 -32t-31.5 -13q-20 0 -33 13t-13 32q0 20 13 32.5t33 12.5q19 0 31.5 -13z" />
    <glyph glyph-name="ygrave" unicode="&#x1ef3;" horiz-adv-x="568" 
d="M90.5 -149q13.5 11 38.5 11q15 0 43 -6q26 -6 41 -6q42 0 68 24.5t26 64.5q0 50 -48 82l-176 423l-83 86h227l-40 -86l138 -346l146 353l-68 79h155l-214 -517q19 -39 19 -77q0 -49 -25 -88t-69 -61.5t-100 -22.5q-44 0 -68 14.5t-24 41.5q0 20 13.5 31zM281.5 619.5
q-50.5 18.5 -78.5 49.5q-19 19 -19 37q0 16 11 26.5t27 10.5q25 0 46 -36q20 -37 55 -62t77 -33v-14q-68 3 -118.5 21.5z" />
    <glyph glyph-name="z" unicode="z" horiz-adv-x="565" 
d="M380 481h-203l-96 -122v171h444l-336 -479h223l105 121v-172h-477z" />
    <glyph glyph-name="zacute" unicode="&#x17a;" horiz-adv-x="565" 
d="M380 481h-203l-96 -122v171h444l-336 -479h223l105 121v-172h-477zM198 612q43 8 78 33t55 62q19 36 46 36q16 0 26.5 -10.5t10.5 -26.5q0 -19 -18 -37q-28 -31 -79 -49.5t-119 -21.5v14z" />
    <glyph glyph-name="zcaron" unicode="&#x17e;" horiz-adv-x="565" 
d="M380 481h-203l-96 -122v171h444l-336 -479h223l105 121v-172h-477zM293 680q62 36 155 55l3 -14q-53 -23 -91 -58t-57 -78h-20q-19 43 -57.5 78t-90.5 58l2 14q94 -19 156 -55z" />
    <glyph glyph-name="zdotaccent" unicode="&#x17c;" horiz-adv-x="565" 
d="M380 481h-203l-96 -122v171h444l-336 -479h223l105 121v-172h-477zM255 634q-15 15 -15 38t15 38t37 15q23 0 38 -15t15 -38t-15 -38t-38 -15q-22 0 -37 15z" />
    <glyph glyph-name="uni01B6" unicode="&#x1b6;" horiz-adv-x="565" 
d="M417 51l100 116v-167h-477l172 244h-99v42h129l138 195h-207l-92 -117v166h444l-171 -244h99v-42h-129l-135 -193h228z" />
    <glyph glyph-name="a.ss01" horiz-adv-x="625" 
d="M145 23q-50 35 -77 98.5t-27 148.5q0 84 27 147t76.5 97.5t115.5 34.5q61 0 109 -30t75 -84l12 95h81v-454l66 -76h-152v116q-26 -59 -76 -93.5t-114 -34.5q-66 0 -116 35zM384.5 85.5q39.5 28.5 57.5 76.5v213q-18 49 -57.5 77.5t-89.5 28.5q-72 0 -113.5 -57
t-41.5 -155q0 -97 42 -154.5t113 -57.5q50 0 89.5 28.5z" />
    <glyph glyph-name="aacute.ss01" horiz-adv-x="625" 
d="M145 23q-50 35 -77 98.5t-27 148.5q0 84 27 147t76.5 97.5t115.5 34.5q61 0 109 -30t75 -84l12 95h81v-454l66 -76h-152v116q-26 -59 -76 -93.5t-114 -34.5q-66 0 -116 35zM384.5 85.5q39.5 28.5 57.5 76.5v213q-18 49 -57.5 77.5t-89.5 28.5q-72 0 -113.5 -57
t-41.5 -155q0 -97 42 -154.5t113 -57.5q50 0 89.5 28.5zM193 612q43 8 78 33t55 62q19 36 46 36q16 0 26.5 -10.5t10.5 -26.5q0 -19 -18 -37q-28 -31 -79 -49.5t-119 -21.5v14z" />
    <glyph glyph-name="abreve.ss01" horiz-adv-x="625" 
d="M145 23q-50 35 -77 98.5t-27 148.5q0 84 27 147t76.5 97.5t115.5 34.5q61 0 109 -30t75 -84l12 95h81v-454l66 -76h-152v116q-26 -59 -76 -93.5t-114 -34.5q-66 0 -116 35zM384.5 85.5q39.5 28.5 57.5 76.5v213q-18 49 -57.5 77.5t-89.5 28.5q-72 0 -113.5 -57
t-41.5 -155q0 -97 42 -154.5t113 -57.5q50 0 89.5 28.5zM146 722h14q17 -42 47 -61t81 -19q49 0 79 18.5t48 61.5h14q-22 -129 -141 -129q-120 0 -142 129z" />
    <glyph glyph-name="acircumflex.ss01" horiz-adv-x="625" 
d="M145 23q-50 35 -77 98.5t-27 148.5q0 84 27 147t76.5 97.5t115.5 34.5q61 0 109 -30t75 -84l12 95h81v-454l66 -76h-152v116q-26 -59 -76 -93.5t-114 -34.5q-66 0 -116 35zM384.5 85.5q39.5 28.5 57.5 76.5v213q-18 49 -57.5 77.5t-89.5 28.5q-72 0 -113.5 -57
t-41.5 -155q0 -97 42 -154.5t113 -57.5q50 0 89.5 28.5zM288 643q-62 -36 -156 -55l-2 14q52 22 90.5 57.5t57.5 77.5h20q19 -42 57.5 -77t90.5 -58l-3 -14q-93 19 -155 55z" />
    <glyph glyph-name="adieresis.ss01" horiz-adv-x="625" 
d="M145 23q-50 35 -77 98.5t-27 148.5q0 84 27 147t76.5 97.5t115.5 34.5q61 0 109 -30t75 -84l12 95h81v-454l66 -76h-152v116q-26 -59 -76 -93.5t-114 -34.5q-66 0 -116 35zM384.5 85.5q39.5 28.5 57.5 76.5v213q-18 49 -57.5 77.5t-89.5 28.5q-72 0 -113.5 -57
t-41.5 -155q0 -97 42 -154.5t113 -57.5q50 0 89.5 28.5zM223.5 685q12.5 -13 12.5 -32t-12.5 -32t-31.5 -13q-20 0 -33 13t-13 32q0 20 13 32.5t33 12.5q19 0 31.5 -13zM417.5 685q12.5 -13 12.5 -32t-12.5 -32t-31.5 -13q-20 0 -33 13t-13 32q0 20 13 32.5t33 12.5
q19 0 31.5 -13z" />
    <glyph glyph-name="agrave.ss01" horiz-adv-x="625" 
d="M145 23q-50 35 -77 98.5t-27 148.5q0 84 27 147t76.5 97.5t115.5 34.5q61 0 109 -30t75 -84l12 95h81v-454l66 -76h-152v116q-26 -59 -76 -93.5t-114 -34.5q-66 0 -116 35zM384.5 85.5q39.5 28.5 57.5 76.5v213q-18 49 -57.5 77.5t-89.5 28.5q-72 0 -113.5 -57
t-41.5 -155q0 -97 42 -154.5t113 -57.5q50 0 89.5 28.5zM262.5 619.5q-50.5 18.5 -78.5 49.5q-19 19 -19 37q0 16 11 26.5t27 10.5q25 0 46 -36q20 -37 55 -62t77 -33v-14q-68 3 -118.5 21.5z" />
    <glyph glyph-name="uni0203.ss01" horiz-adv-x="625" 
d="M145 23q-50 35 -77 98.5t-27 148.5q0 84 27 147t76.5 97.5t115.5 34.5q61 0 109 -30t75 -84l12 95h81v-454l66 -76h-152v116q-26 -59 -76 -93.5t-114 -34.5q-66 0 -116 35zM384.5 85.5q39.5 28.5 57.5 76.5v213q-18 49 -57.5 77.5t-89.5 28.5q-72 0 -113.5 -57
t-41.5 -155q0 -97 42 -154.5t113 -57.5q50 0 89.5 28.5z" />
    <glyph glyph-name="amacron.ss01" horiz-adv-x="625" 
d="M145 23q-50 35 -77 98.5t-27 148.5q0 84 27 147t76.5 97.5t115.5 34.5q61 0 109 -30t75 -84l12 95h81v-454l66 -76h-152v116q-26 -59 -76 -93.5t-114 -34.5q-66 0 -116 35zM384.5 85.5q39.5 28.5 57.5 76.5v213q-18 49 -57.5 77.5t-89.5 28.5q-72 0 -113.5 -57
t-41.5 -155q0 -97 42 -154.5t113 -57.5q50 0 89.5 28.5zM146 653h285v-37h-285v37z" />
    <glyph glyph-name="aogonek.ss01" horiz-adv-x="625" 
d="M534.5 -168.5q15.5 -23.5 49.5 -35.5l-5 -10q-57 -1 -89.5 28t-32.5 77q0 30 14 58.5t40 50.5h-60v116q-26 -59 -76 -93.5t-114 -34.5q-66 0 -116 35t-77 98.5t-27 148.5q0 84 27 147t76.5 97.5t115.5 34.5q61 0 109 -30t75 -84l12 95h81v-454l66 -76h-52
q-32 -46 -32 -106q0 -39 15.5 -62.5zM442 375q-18 49 -57.5 77.5t-89.5 28.5q-72 0 -113.5 -57t-41.5 -155q0 -97 42 -154.5t113 -57.5q50 0 89.5 28.5t57.5 76.5v213z" />
    <glyph glyph-name="aring.ss01" horiz-adv-x="625" 
d="M145 23q-50 35 -77 98.5t-27 148.5q0 84 27 147t76.5 97.5t115.5 34.5q61 0 109 -30t75 -84l12 95h81v-454l66 -76h-152v116q-26 -59 -76 -93.5t-114 -34.5q-66 0 -116 35zM384.5 85.5q39.5 28.5 57.5 76.5v213q-18 49 -57.5 77.5t-89.5 28.5q-72 0 -113.5 -57
t-41.5 -155q0 -97 42 -154.5t113 -57.5q50 0 89.5 28.5zM223.5 605.5q-25.5 25.5 -25.5 64.5t25.5 65t63.5 26q39 0 65 -26t26 -65t-26 -64.5t-65 -25.5q-38 0 -63.5 25.5zM335.5 622q19.5 19 19.5 48t-19.5 48.5t-48.5 19.5t-48 -19.5t-19 -48.5t19 -48t48 -19t48.5 19z
" />
    <glyph glyph-name="atilde.ss01" horiz-adv-x="625" 
d="M145 23q-50 35 -77 98.5t-27 148.5q0 84 27 147t76.5 97.5t115.5 34.5q61 0 109 -30t75 -84l12 95h81v-454l66 -76h-152v116q-26 -59 -76 -93.5t-114 -34.5q-66 0 -116 35zM384.5 85.5q39.5 28.5 57.5 76.5v213q-18 49 -57.5 77.5t-89.5 28.5q-72 0 -113.5 -57
t-41.5 -155q0 -97 42 -154.5t113 -57.5q50 0 89.5 28.5zM346 607q-33 0 -85 18q-39 13 -59 13q-37 0 -43 -34l-13 6q1 40 22.5 60.5t60.5 20.5q20 0 38.5 -4.5t44.5 -12.5q39 -13 59 -13q38 0 44 33l13 -5q-2 -82 -82 -82z" />
    <glyph glyph-name="ae.ss01" horiz-adv-x="909" 
d="M470 267q5 -107 58 -163.5t149 -56.5q52 0 93.5 20t89.5 69l9 -7q-37 -70 -97 -105.5t-140 -35.5q-81 0 -141 37t-89 104q-18 -70 -64.5 -105.5t-120.5 -35.5q-80 0 -128.5 39.5t-48.5 103.5q0 51 32 87t94 54q37 12 91.5 19t115.5 7v47q0 163 -125 163
q-50 0 -76.5 -24.5t-27.5 -71.5q-2 -60 -44 -60q-20 0 -32 15t-12 41q0 40 25.5 72.5t71 50.5t102.5 18q64 0 111.5 -27t70.5 -75q33 49 84 75.5t113 26.5q108 0 164.5 -72.5t55.5 -209.5h-384zM516 451.5q-42 -50.5 -47 -142.5h297q0 95 -35 144t-103 49q-70 0 -112 -50.5z
M373 266q-54 0 -100.5 -7.5t-75.5 -21.5q-59 -28 -59 -94q0 -47 28.5 -75t77.5 -28q62 0 95.5 48t33.5 139v39z" />
    <glyph glyph-name="aeacute.ss01" horiz-adv-x="909" 
d="M470 267q5 -107 58 -163.5t149 -56.5q52 0 93.5 20t89.5 69l9 -7q-37 -70 -97 -105.5t-140 -35.5q-81 0 -141 37t-89 104q-18 -70 -64.5 -105.5t-120.5 -35.5q-80 0 -128.5 39.5t-48.5 103.5q0 51 32 87t94 54q37 12 91.5 19t115.5 7v47q0 163 -125 163
q-50 0 -76.5 -24.5t-27.5 -71.5q-2 -60 -44 -60q-20 0 -32 15t-12 41q0 40 25.5 72.5t71 50.5t102.5 18q64 0 111.5 -27t70.5 -75q33 49 84 75.5t113 26.5q108 0 164.5 -72.5t55.5 -209.5h-384zM516 451.5q-42 -50.5 -47 -142.5h297q0 95 -35 144t-103 49q-70 0 -112 -50.5z
M373 266q-54 0 -100.5 -7.5t-75.5 -21.5q-59 -28 -59 -94q0 -47 28.5 -75t77.5 -28q62 0 95.5 48t33.5 139v39zM338 612q43 8 78 33t55 62q19 36 46 36q16 0 26.5 -10.5t10.5 -26.5q0 -19 -18 -37q-28 -31 -79 -49.5t-119 -21.5v14z" />
    <glyph glyph-name="g.ss01" horiz-adv-x="613" 
d="M159 -223.5q-41 12.5 -64 34.5t-23 49q0 20 12 32t34 12q16 0 29 -8.5t28 -29.5q19 -29 41.5 -40.5t55.5 -11.5q79 0 122.5 59t43.5 166v58q-28 -52 -75 -80.5t-107 -28.5q-65 0 -115 35t-77 99t-27 148t27 147t76.5 97.5t114.5 34.5q61 0 109.5 -30t75.5 -84l12 95h81
v-485q0 -84 -35 -147.5t-99 -98.5t-148 -35q-51 0 -92 12.5zM380.5 85q39.5 28 57.5 77v213q-18 49 -57.5 77.5t-90.5 28.5q-71 0 -112.5 -57t-41.5 -155q0 -97 42 -154.5t113 -57.5q50 0 89.5 28z" />
    <glyph glyph-name="gbreve.ss01" horiz-adv-x="613" 
d="M159 -223.5q-41 12.5 -64 34.5t-23 49q0 20 12 32t34 12q16 0 29 -8.5t28 -29.5q19 -29 41.5 -40.5t55.5 -11.5q79 0 122.5 59t43.5 166v58q-28 -52 -75 -80.5t-107 -28.5q-65 0 -115 35t-77 99t-27 148t27 147t76.5 97.5t114.5 34.5q61 0 109.5 -30t75.5 -84l12 95h81
v-485q0 -84 -35 -147.5t-99 -98.5t-148 -35q-51 0 -92 12.5zM380.5 85q39.5 28 57.5 77v213q-18 49 -57.5 77.5t-90.5 28.5q-71 0 -112.5 -57t-41.5 -155q0 -97 42 -154.5t113 -57.5q50 0 89.5 28zM147 722h14q17 -42 47 -61t81 -19q49 0 79 18.5t48 61.5h14
q-22 -129 -141 -129q-120 0 -142 129z" />
    <glyph glyph-name="gcircumflex.ss01" horiz-adv-x="613" 
d="M159 -223.5q-41 12.5 -64 34.5t-23 49q0 20 12 32t34 12q16 0 29 -8.5t28 -29.5q19 -29 41.5 -40.5t55.5 -11.5q79 0 122.5 59t43.5 166v58q-28 -52 -75 -80.5t-107 -28.5q-65 0 -115 35t-77 99t-27 148t27 147t76.5 97.5t114.5 34.5q61 0 109.5 -30t75.5 -84l12 95h81
v-485q0 -84 -35 -147.5t-99 -98.5t-148 -35q-51 0 -92 12.5zM380.5 85q39.5 28 57.5 77v213q-18 49 -57.5 77.5t-90.5 28.5q-71 0 -112.5 -57t-41.5 -155q0 -97 42 -154.5t113 -57.5q50 0 89.5 28zM288 643q-62 -36 -156 -55l-2 14q52 22 90.5 57.5t57.5 77.5h20
q19 -42 57.5 -77t90.5 -58l-3 -14q-93 19 -155 55z" />
    <glyph glyph-name="uni0123.ss01" horiz-adv-x="613" 
d="M348 840q-32 -22 -50.5 -56t-17.5 -68h13q25 0 42.5 -16.5t17.5 -39.5q0 -24 -17 -40.5t-42 -16.5q-31 0 -51 25t-20 64q0 49 31.5 93t83.5 69zM159 -223.5q-41 12.5 -64 34.5t-23 49q0 20 12 32t34 12q16 0 29 -8.5t28 -29.5q19 -29 41.5 -40.5t55.5 -11.5
q79 0 122.5 59t43.5 166v58q-28 -52 -75 -80.5t-107 -28.5q-65 0 -115 35t-77 99t-27 148t27 147t76.5 97.5t114.5 34.5q61 0 109.5 -30t75.5 -84l12 95h81v-485q0 -84 -35 -147.5t-99 -98.5t-148 -35q-51 0 -92 12.5zM380.5 85q39.5 28 57.5 77v213q-18 49 -57.5 77.5
t-90.5 28.5q-71 0 -112.5 -57t-41.5 -155q0 -97 42 -154.5t113 -57.5q50 0 89.5 28z" />
    <glyph glyph-name="gdotaccent.ss01" horiz-adv-x="613" 
d="M159 -223.5q-41 12.5 -64 34.5t-23 49q0 20 12 32t34 12q16 0 29 -8.5t28 -29.5q19 -29 41.5 -40.5t55.5 -11.5q79 0 122.5 59t43.5 166v58q-28 -52 -75 -80.5t-107 -28.5q-65 0 -115 35t-77 99t-27 148t27 147t76.5 97.5t114.5 34.5q61 0 109.5 -30t75.5 -84l12 95h81
v-485q0 -84 -35 -147.5t-99 -98.5t-148 -35q-51 0 -92 12.5zM380.5 85q39.5 28 57.5 77v213q-18 49 -57.5 77.5t-90.5 28.5q-71 0 -112.5 -57t-41.5 -155q0 -97 42 -154.5t113 -57.5q50 0 89.5 28zM251 634q-15 15 -15 38t15 38t37 15q23 0 38 -15t15 -38t-15 -38t-38 -15
q-22 0 -37 15z" />
    <glyph glyph-name="g.ss02" horiz-adv-x="546" 
d="M190 168.5q-21 -8.5 -21 -26.5q0 -14 15.5 -23.5t43.5 -12.5l124 -12q174 -15 174 -143q0 -84 -71 -129.5t-200 -45.5q-109 0 -167 34.5t-58 98.5q0 47 29.5 80t78.5 43q-49 22 -49 75q0 73 88 88q-61 21 -93.5 65t-32.5 105q0 84 63.5 133.5t174.5 49.5q95 0 232 -18
v-34h-101q32 -27 47 -58.5t15 -72.5q0 -86 -59.5 -135t-167.5 -51q-44 -2 -65 -10.5zM355.5 258.5q31.5 39.5 31.5 109.5q0 67 -31 103.5t-87 36.5q-57 0 -90 -37.5t-33 -102.5q0 -67 33.5 -108t89.5 -41q55 0 86.5 39.5zM259 -180q85 0 134.5 28t49.5 77q0 34 -26.5 53.5
t-80.5 24.5l-135 12q-51 -10 -75.5 -33t-24.5 -63q0 -99 158 -99z" />
    <glyph glyph-name="c_t" horiz-adv-x="947" 
d="M546 127q-79 -139 -239 -139q-80 0 -140 33t-93 93.5t-33 140.5q0 83 35 150.5t96.5 105.5t137.5 38q67 0 118 -28q-14 39 -14 68q0 69 47 109.5t128 40.5q89 0 136 -53t48 -156h128v-56h-127v-326q0 -55 19.5 -81t60.5 -26q39 0 65 26l8 -7q-16 -35 -46 -53.5t-73 -18.5
q-62 0 -96 38t-34 106v342h-102v56h102q0 83 -27.5 122t-84.5 39q-51 0 -79 -28t-28 -77q0 -28 9.5 -60t25.5 -59q23 -38 23 -74q0 -26 -12.5 -40.5t-35.5 -14.5t-35 14.5t-15 46.5q-12 100 -106 100q-79 0 -126 -61t-47 -162q0 -107 54 -167.5t150 -60.5q108 0 194 86z" />
    <glyph glyph-name="fi" unicode="&#xfb01;" horiz-adv-x="617" 
d="M110 90v386h-96v54h90q-27 32 -27 80q0 43 21.5 77t58.5 53.5t83 19.5q40 0 64 -14.5t24 -39.5q0 -17 -12.5 -28t-34.5 -11q-10 0 -20 3t-20 7t-20 7t-21 3q-33 0 -53.5 -20t-20.5 -54q0 -38 28 -60.5t76 -22.5h285v-454l66 -76h-204l42 93v383h-214v-402l64 -74h-201z
M509 730.5q17 -17.5 17 -43.5q0 -25 -16.5 -42t-42.5 -17t-43 17t-17 42q0 26 17 43.5t43 17.5q25 0 42 -17.5z" />
    <glyph glyph-name="fl" unicode="&#xfb02;" horiz-adv-x="612" 
d="M110 90v386h-96v54h90q-27 32 -27 83q0 64 43.5 105.5t110.5 41.5q38 0 60 -14t22 -39q0 -18 -12.5 -29t-34.5 -11q-15 0 -37 10q-9 4 -18.5 7t-19.5 3q-31 0 -48 -19t-17 -52q0 -40 27.5 -63t76.5 -23h56v-54h-81v-402l64 -74h-201zM414 93v562l-85 95h180v-674l66 -76
h-204z" />
    <glyph glyph-name="s_t" horiz-adv-x="937" 
d="M52 144l84 -46q56 -31 100.5 -45t87.5 -14q50 0 74 17.5t24 54.5q0 39 -35.5 64.5t-126.5 50.5q-107 28 -158 72.5t-51 110.5q0 64 44 102t117 38q89 0 172 -60q-13 33 -13 74q0 83 52 129.5t139 46.5q92 0 146.5 -54.5t55.5 -154.5h127v-56h-127v-326q0 -55 19.5 -81
t59.5 -26t66 26l8 -7q-16 -35 -46 -53.5t-73 -18.5q-62 0 -96 38t-34 106v342h-102v56h102q0 81 -33 121t-93 40q-57 0 -91.5 -34.5t-34.5 -97.5q0 -36 11.5 -82.5t33.5 -94.5l-74 51q-52 35 -92 51t-78 16q-41 0 -62 -18t-21 -52q0 -38 33 -61.5t117 -46.5q116 -28 169 -72
t53 -110q0 -69 -50 -110.5t-135 -41.5q-86 0 -173 51l-96 -49v154z" />
    <glyph glyph-name="ordfeminine" unicode="&#xaa;" horiz-adv-x="440" 
d="M413 391q-17 -50 -64 -50q-25 0 -41 15.5t-21 42.5q-17 -27 -51.5 -42.5t-78.5 -15.5q-59 0 -93 28t-34 77q0 71 80 104q31 14 71.5 20.5t100.5 7.5v25q0 64 -19.5 90.5t-66.5 26.5q-39 0 -58.5 -16.5t-24.5 -52.5q-3 -22 -11.5 -32t-25.5 -10q-36 0 -36 42q0 49 44.5 79
t117.5 30q160 0 160 -157v-158q0 -47 46 -47zM282 549q-82 0 -127 -24q-43 -21 -43 -65q0 -33 21.5 -50.5t61.5 -17.5q34 0 53 12.5t34 34.5v110z" />
    <glyph glyph-name="ordmasculine" unicode="&#xba;" horiz-adv-x="512" 
d="M66.5 658.5q27.5 47.5 76.5 74.5t113 27q63 0 112.5 -26t77 -73.5t27.5 -109.5q0 -61 -27.5 -109t-76.5 -74.5t-113 -26.5t-113 26.5t-76.5 74t-27.5 108.5t27.5 108.5zM348 673q-35 47 -92 47q-56 0 -91.5 -47t-35.5 -123q0 -77 34.5 -123t92.5 -46q59 0 93 46t34 123
q0 76 -35 123z" />
    <glyph glyph-name="ordfeminine.osf" horiz-adv-x="437" 
d="M405 248q-8 -24 -25 -37t-39 -13q-24 0 -40 16t-21 44q-17 -29 -50 -44.5t-76 -15.5q-58 0 -91.5 27t-33.5 74q0 34 19 57.5t59 40.5q32 14 72 20.5t97 8.5v17q0 62 -19 88.5t-65 26.5q-38 0 -57.5 -16.5t-23.5 -52.5q-3 -21 -11.5 -31t-24.5 -10q-17 0 -26.5 11t-9.5 32
q0 48 43.5 77t116.5 29q154 0 154 -156v-138q0 -47 47 -47zM276 396q-72 0 -122 -24q-24 -12 -34 -26t-10 -34q0 -30 20.5 -46t55.5 -16q32 0 53 13.5t37 42.5v90z" />
    <glyph glyph-name="ordmasculine.osf" horiz-adv-x="506" 
d="M95 542q58 55 154 55q63 0 111 -24.5t74 -70t26 -104.5t-26 -104.5t-74 -70.5t-111 -25t-111 25t-74.5 70t-26.5 103q0 91 58 146zM338 515.5q-32 41.5 -89 41.5t-89.5 -42t-32.5 -117q0 -76 32.5 -118t89.5 -42t89 42t32 118t-32 117.5z" />
    <glyph glyph-name="ordfeminine.tf" 
d="M444 391q-17 -50 -64 -50q-25 0 -41 15.5t-21 42.5q-17 -27 -51.5 -42.5t-78.5 -15.5q-59 0 -93 28t-34 77q0 71 80 104q31 14 71.5 20.5t100.5 7.5v25q0 64 -19.5 90.5t-66.5 26.5q-39 0 -58.5 -16.5t-24.5 -52.5q-3 -22 -11.5 -32t-25.5 -10q-36 0 -36 42q0 49 44.5 79
t117.5 30q160 0 160 -157v-158q0 -47 46 -47zM313 549q-82 0 -127 -24q-43 -21 -43 -65q0 -33 21.5 -50.5t61.5 -17.5q34 0 53 12.5t34 34.5v110z" />
    <glyph glyph-name="ordmasculine.tf" 
d="M97.5 658.5q27.5 47.5 76.5 74.5t113 27q63 0 112.5 -26t77 -73.5t27.5 -109.5q0 -61 -27.5 -109t-76.5 -74.5t-113 -26.5t-113 26.5t-76.5 74t-27.5 108.5t27.5 108.5zM379 673q-35 47 -92 47q-56 0 -91.5 -47t-35.5 -123q0 -77 34.5 -123t92.5 -46q59 0 93 46t34 123
q0 76 -35 123z" />
    <glyph glyph-name="ordfeminine.tosf" 
d="M440 248q-8 -24 -24.5 -37t-39.5 -13q-24 0 -39.5 16t-20.5 44q-17 -28 -50 -44t-77 -16q-57 0 -91 27t-34 74q0 33 19.5 57t59.5 41q30 14 69.5 20.5t98.5 8.5v17q0 61 -19.5 88t-65.5 27q-36 0 -55.5 -17t-24.5 -53q-6 -40 -36 -40q-17 0 -26 11t-9 32q0 48 43.5 77
t115.5 29q78 0 116.5 -38.5t38.5 -117.5v-138q0 -47 47 -47zM311 396q-76 0 -123 -24q-43 -22 -43 -61q0 -29 21 -45t59 -16q86 0 86 82v64z" />
    <glyph glyph-name="ordmasculine.tosf" 
d="M129 545.5q56 51.5 156 51.5q99 0 154.5 -51t55.5 -144q0 -95 -55.5 -149.5t-154.5 -54.5t-155.5 54.5t-56.5 148.5q0 93 56 144.5zM373 516q-32 41 -89 41t-89 -41t-32 -116q0 -76 32 -119t89 -43t89 43t32 119q0 75 -32 116z" />
    <glyph glyph-name="uni0394" unicode="&#x394;" horiz-adv-x="612" 
d="M9 0l275 725h47l272 -725h-594zM478 49l-200 531l-198 -531h398z" />
    <glyph glyph-name="uni0394" unicode="&#x3b4;" horiz-adv-x="612" 
d="M9 0l275 725h47l272 -725h-594zM478 49l-200 531l-198 -531h398z" />
    <glyph glyph-name="uni03A9" unicode="&#x3a9;" horiz-adv-x="701" 
d="M146 46h111v79q-104 38 -161.5 117.5t-57.5 186.5q0 91 40.5 162t112.5 110.5t165 39.5q91 0 161 -39t108.5 -110t38.5 -163q0 -109 -57 -187.5t-163 -116.5v-79h112l107 126v-172h-267v153q87 38 124.5 101t37.5 174q0 137 -50 203.5t-152 66.5q-105 0 -158.5 -68
t-53.5 -203q0 -113 39 -178t123 -96v-153h-268v172z" />
    <glyph glyph-name="uni03A9" unicode="&#x3c9;" horiz-adv-x="701" 
d="M146 46h111v79q-104 38 -161.5 117.5t-57.5 186.5q0 91 40.5 162t112.5 110.5t165 39.5q91 0 161 -39t108.5 -110t38.5 -163q0 -109 -57 -187.5t-163 -116.5v-79h112l107 126v-172h-267v153q87 38 124.5 101t37.5 174q0 137 -50 203.5t-152 66.5q-105 0 -158.5 -68
t-53.5 -203q0 -113 39 -178t123 -96v-153h-268v172z" />
    <glyph glyph-name="uni03BC" unicode="&#x3bc;" horiz-adv-x="630" 
d="M456 0v129q-63 -141 -196 -141q-42 0 -73 16v-204h-94v730h94v-352q0 -61 26.5 -93t76.5 -32q55 0 96.5 39t60.5 109v329h95v-441l80 -89h-166z" />
    <glyph glyph-name="pi" unicode="&#x3c0;" horiz-adv-x="742" 
d="M49.5 79q12.5 12 32.5 12q13 0 41 -10q30 -12 48 -12q31 0 45.5 22t14.5 68v279q-63 -2 -103 -20t-63 -54l-22 14q27 79 81 115.5t150 36.5q56 0 144 -11q13 -1 52.5 -5t67.5 -4q54 0 88 14.5t55 45.5l22 -11q-15 -64 -53 -98t-103 -41v-258q0 -53 17.5 -81t50.5 -28
q17 0 31.5 9.5t32.5 32.5l15 -16q-21 -49 -48 -70t-68 -21q-62 0 -95 44.5t-33 129.5v260q-18 1 -33.5 3t-28.5 3q-71 8 -110 9v-281q0 -80 -39.5 -124t-111.5 -44q-41 0 -65.5 16t-24.5 43q0 20 12.5 32z" />
    <glyph glyph-name="zero" unicode="0" horiz-adv-x="683" 
d="M119 641q76 98 221 98q148 0 224 -96.5t76 -283.5q0 -182 -76.5 -276.5t-223.5 -94.5q-144 0 -220.5 95t-76.5 275q0 185 76 283zM485 606.5q-50 85.5 -145 85.5q-93 0 -142.5 -85.5t-49.5 -247.5q0 -323 192 -323q95 0 145 83t50 241q0 161 -50 246.5z" />
    <glyph glyph-name="one" unicode="1" horiz-adv-x="367" 
d="M156 95v487l-118 -17l213 175v-661l68 -79h-207z" />
    <glyph glyph-name="two" unicode="2" horiz-adv-x="592" 
d="M255 202q182 168 182 332q0 75 -39 117t-108 42t-107 -41.5t-41 -115.5q-1 -40 -12 -57.5t-35 -17.5q-49 0 -49 69q0 60 33 107.5t92 74.5t134 27q109 0 172.5 -54.5t63.5 -149.5q0 -82 -55 -162.5t-186 -190.5l-98 -91h251l100 109v-200h-515z" />
    <glyph glyph-name="three" unicode="3" horiz-adv-x="588" 
d="M235 399q95 0 143.5 38t48.5 112q0 67 -38.5 105t-107.5 38q-67 0 -102.5 -37t-35.5 -105q0 -33 -10 -48t-32 -15q-20 0 -29.5 14t-9.5 45q0 89 62 141t168 52q104 0 166 -50t62 -135q0 -65 -39.5 -111.5t-108.5 -64.5q91 -16 139.5 -62.5t48.5 -118.5
q0 -60 -33.5 -107.5t-92.5 -74.5t-133 -27q-75 0 -135 27t-94 74t-34 105q0 33 12 51t34 18q43 0 43 -69q0 -74 41 -116t113 -42q78 0 126 46t48 122t-53.5 111.5t-166.5 35.5v48z" />
    <glyph glyph-name="four" unicode="4" horiz-adv-x="615" 
d="M394 95v73h-388l399 557h85v-510h121v-47h-121v-89l67 -79h-207zM394 215v414l-297 -414h297z" />
    <glyph glyph-name="five" unicode="5" horiz-adv-x="591" 
d="M85 334v391h427v-90h-380v-254q74 79 192 79q71 0 125.5 -28t84 -79.5t29.5 -119.5q0 -72 -34 -126.5t-95.5 -84.5t-143.5 -30q-72 0 -129.5 22.5t-90 61.5t-32.5 88q0 28 11.5 43t33.5 15q41 0 42 -59q3 -62 41.5 -96t106.5 -34q86 0 137 53.5t51 143.5
q0 83 -44.5 129.5t-123.5 46.5q-50 0 -93.5 -19t-72.5 -53h-42z" />
    <glyph glyph-name="six" unicode="6" horiz-adv-x="616" 
d="M518 47.5q-65 -59.5 -182 -59.5q-145 0 -219 91.5t-74 267.5q0 124 36 212t103 134t160 46q60 0 108.5 -19t76 -51.5t27.5 -72.5q0 -50 -44 -50t-53 58q-8 44 -36.5 66.5t-75.5 22.5q-95 0 -146.5 -90t-52.5 -262q42 47 93 69t116 22q109 0 168.5 -56.5t59.5 -160.5
q0 -108 -65 -167.5zM147 297q8 -131 53.5 -196t130.5 -65q72 0 112 44t40 125q0 84 -42.5 130.5t-121.5 46.5q-103 0 -172 -85z" />
    <glyph glyph-name="seven" unicode="7" horiz-adv-x="539" 
d="M28 725h518l-53 -92q-179 -280 -286 -633h-119q130 363 358 633h-342l-76 -84v176z" />
    <glyph glyph-name="eight" unicode="8" horiz-adv-x="607" 
d="M106 447.5q-25 39.5 -25 92.5q0 59 29 104.5t82 70t123 24.5q101 0 162 -50t61 -135q0 -109 -107 -169q73 -37 108 -85.5t35 -111.5q0 -93 -71.5 -146.5t-196.5 -53.5q-123 0 -193 52.5t-70 145.5q0 63 34.5 109.5t107.5 79.5q-54 33 -79 72.5zM447 473q21 40 21 83
q0 63 -44 101t-118 38q-68 0 -106.5 -32.5t-38.5 -90.5q0 -39 21 -66.5t69.5 -51.5t136.5 -50q38 29 59 69zM144.5 285.5q-26.5 -38.5 -26.5 -93.5q0 -77 48.5 -118t141.5 -41q85 0 132 35t47 98q0 40 -22.5 68.5t-78 56t-159.5 62.5q-56 -29 -82.5 -67.5z" />
    <glyph glyph-name="nine" unicode="9" horiz-adv-x="613" 
d="M534 169q-36 -88 -103 -134.5t-160 -46.5q-59 0 -107.5 18.5t-76.5 50.5t-28 70q0 24 11.5 37.5t31.5 13.5q40 0 49 -52q8 -44 39 -67.5t80 -23.5q93 0 145 86.5t53 247.5q-28 -51 -74 -75t-112 -24q-76 0 -132 28.5t-86.5 80.5t-30.5 122q0 71 32 125t90.5 83.5
t135.5 29.5q136 0 207.5 -92.5t71.5 -267.5q0 -122 -36 -210zM174 371q46 -50 128 -50q56 0 98 24t67 71q-4 139 -48 207.5t-131 68.5q-75 0 -117.5 -47.5t-42.5 -133.5q0 -90 46 -140z" />
    <glyph glyph-name="zero.osf" horiz-adv-x="704" 
d="M80.5 416.5q38.5 62.5 108.5 97t163 34.5q92 0 162.5 -33.5t109 -95.5t38.5 -144q0 -84 -38.5 -149t-109 -100.5t-162.5 -35.5t-162.5 35t-109 98.5t-38.5 146.5q0 84 38.5 146.5zM462 68q47 29 72.5 82.5t25.5 124.5q0 104 -56.5 164.5t-151.5 60.5q-96 0 -152 -62
t-56 -168t56.5 -168.5t151.5 -62.5q63 0 110 29z" />
    <glyph glyph-name="one.osf" horiz-adv-x="325" 
d="M115 95v356l-68 79h207l-44 -95v-356l68 -79h-207z" />
    <glyph glyph-name="two.osf" horiz-adv-x="595" 
d="M37 0l143 96q102 68 158 115.5t80 86t24 79.5q0 58 -40 91.5t-107 33.5q-70 0 -108 -37.5t-39 -104.5q-1 -72 -46 -72q-23 0 -35 17t-12 50q0 55 32.5 99t91.5 69t136 25q106 0 167.5 -45t61.5 -123q0 -47 -27 -88.5t-88 -86.5t-170 -105l-27 -14h326v-86h-521z" />
    <glyph glyph-name="three.osf" horiz-adv-x="596" 
d="M204 194q108 0 168.5 44t60.5 123q0 65 -39.5 102.5t-109.5 37.5q-59 0 -91 -28t-33 -81q-1 -29 -10.5 -42t-29.5 -13q-43 0 -43 57q0 72 57.5 113t157.5 41q108 0 171 -49t63 -130q0 -70 -48 -120.5t-129 -68.5q100 -15 159.5 -68t59.5 -131q0 -59 -34 -105.5t-96 -73
t-143 -26.5q-73 0 -132 21.5t-92.5 60t-33.5 87.5q0 28 12.5 44t35.5 16q43 0 43 -57q1 -60 42 -92t113 -32q86 0 134.5 44.5t48.5 119.5q0 82 -64.5 121t-197.5 39v46z" />
    <glyph glyph-name="four.osf" horiz-adv-x="627" 
d="M400 -105v105h-395l403 530h88v-483h129v-47h-129v-121l68 -79h-207zM400 47v397l-299 -397h299z" />
    <glyph glyph-name="five.osf" horiz-adv-x="604" 
d="M94 86v444h427v-85h-380v-314q36 31 87 47.5t111 16.5q110 0 174 -55t64 -147q0 -66 -34 -115t-96 -75.5t-145 -26.5q-75 0 -135.5 21t-95 58t-34.5 82q0 25 12 38.5t34 13.5q20 0 30 -11.5t11 -37.5q3 -56 45.5 -87.5t118.5 -31.5q87 0 136 44.5t49 124.5q0 75 -44 114
t-129 39q-53 0 -96 -15t-68 -42h-42z" />
    <glyph glyph-name="six.osf" horiz-adv-x="614" 
d="M518 47.5q-65 -59.5 -182 -59.5q-145 0 -219 91.5t-74 267.5q0 124 36 212t103 134t160 46q60 0 108.5 -19t76 -51.5t27.5 -72.5q0 -50 -44 -50t-53 58q-8 44 -36.5 66.5t-75.5 22.5q-95 0 -146.5 -90t-52.5 -262q42 47 93 69t116 22q109 0 168.5 -56.5t59.5 -160.5
q0 -108 -65 -167.5zM147 297q8 -131 53.5 -196t130.5 -65q72 0 112 44t40 125q0 84 -42.5 130.5t-121.5 46.5q-103 0 -172 -85z" />
    <glyph glyph-name="seven.osf" horiz-adv-x="537" 
d="M27 530h518l-53 -92q-175 -274 -286 -638h-119q132 366 358 638h-342l-76 -84v176z" />
    <glyph glyph-name="eight.osf" horiz-adv-x="605" 
d="M106 447.5q-25 39.5 -25 92.5q0 59 29 104.5t82 70t123 24.5q101 0 162 -50t61 -135q0 -109 -107 -169q73 -37 108 -85.5t35 -111.5q0 -93 -71.5 -146.5t-196.5 -53.5q-123 0 -193 52.5t-70 145.5q0 63 34.5 109.5t107.5 79.5q-54 33 -79 72.5zM447 473q21 40 21 83
q0 63 -44 101t-118 38q-68 0 -106.5 -32.5t-38.5 -90.5q0 -39 21 -66.5t69.5 -51.5t136.5 -50q38 29 59 69zM144.5 285.5q-26.5 -38.5 -26.5 -93.5q0 -77 48.5 -118t141.5 -41q85 0 132 35t47 98q0 40 -22.5 68.5t-78 56t-159.5 62.5q-56 -29 -82.5 -67.5z" />
    <glyph glyph-name="nine.osf" horiz-adv-x="612" 
d="M533 -36q-36 -91 -103.5 -139.5t-159.5 -48.5q-59 0 -107.5 18.5t-76.5 50.5t-28 71q0 24 11.5 37t31.5 13q41 0 50 -52q8 -43 38.5 -67t78.5 -24q94 0 146 89t53 258q-28 -51 -74 -75t-112 -24q-76 0 -132 29t-86.5 82t-30.5 124q0 72 32 127t90 85t135 30
q137 0 208.5 -93.5t71.5 -273.5q0 -126 -36 -217zM173 173.5q46 -51.5 129 -51.5q55 0 97 24t67 70q-5 145 -49.5 215t-129.5 70q-76 0 -118 -48.5t-42 -134.5q0 -93 46 -144.5z" />
    <glyph glyph-name="zero.osf.ss04" horiz-adv-x="689" 
d="M80.5 413q38.5 64 107.5 99.5t157 35.5q89 0 157.5 -35t106.5 -97.5t38 -143.5q0 -82 -38.5 -146t-107 -100t-156.5 -36q-89 0 -158 35t-107 98t-38 144q0 82 38.5 146zM477.5 111.5q57.5 23.5 89.5 65.5t32 95t-31.5 93.5t-89 63t-133.5 22.5t-133.5 -23t-89 -65
t-31.5 -96q0 -53 31.5 -93.5t89 -63t133.5 -22.5q75 0 132.5 23.5z" />
    <glyph glyph-name="zero.osf.ss04.zero" horiz-adv-x="689" 
d="M502.5 513q68.5 -35 106.5 -97.5t38 -143.5q0 -82 -38.5 -146t-107 -100t-156.5 -36q-89 0 -158 35t-107 98t-38 144q0 82 38.5 146t107.5 99.5t157 35.5q89 0 157.5 -35zM118 179.5q27 -38.5 77 -61.5l251 321q-45 12 -101 12q-76 0 -133.5 -23t-89 -65t-31.5 -96
q0 -49 27 -87.5zM477.5 111.5q57.5 23.5 89.5 65.5t32 95q0 49 -27.5 88t-77.5 62l-251 -322q45 -12 102 -12q75 0 132.5 23.5z" />
    <glyph glyph-name="zero.osf.zero" horiz-adv-x="702" 
d="M190.5 25q-70.5 35 -109.5 99t-39 149q0 82 42 144.5t113 96.5t155 34q89 0 159.5 -32t110.5 -93.5t40 -144.5q0 -84 -39.5 -149.5t-109.5 -102t-161 -36.5t-161.5 35zM159.5 182.5q15.5 -40.5 44.5 -69.5l272 349q-54 38 -124 38q-56 0 -103.5 -28t-76 -80t-28.5 -119
q0 -50 15.5 -90.5zM508 423l-272 -349q47 -35 116 -35q61 0 108.5 29.5t73.5 84t26 125.5q0 90 -52 145z" />
    <glyph glyph-name="zero.ss04" horiz-adv-x="662" 
d="M117 641q74 98 213 98q140 0 214.5 -98t74.5 -282q0 -179 -74.5 -275t-214.5 -96q-139 0 -213 95.5t-74 274.5q0 185 74 283zM509.5 571q-62.5 73 -179.5 73q-116 0 -178 -73t-62 -211q0 -136 62 -208t178 -72q117 0 179.5 72t62.5 208q0 138 -62.5 211z" />
    <glyph glyph-name="zero.ss04.zero" horiz-adv-x="662" 
d="M117 83.5q-74 95.5 -74 274.5q0 185 74 283t213 98q140 0 214.5 -98t74.5 -282q0 -179 -74.5 -275t-214.5 -96q-139 0 -213 95.5zM477 593q-55 51 -147 51q-116 0 -178 -73t-62 -211q0 -129 60 -200zM509.5 152q62.5 72 62.5 208q0 128 -58 200l-326 -432q54 -48 142 -48
q117 0 179.5 72z" />
    <glyph glyph-name="zero.tf" 
d="M146 643q75 96 218 96q144 0 219.5 -95.5t75.5 -279.5t-75 -280t-220 -96q-143 0 -218 96t-75 280q0 183 75 279zM505.5 607.5q-49.5 84.5 -141.5 84.5t-140.5 -84t-48.5 -244q0 -328 189 -328q93 0 142 83.5t49 244.5q0 159 -49.5 243.5z" />
    <glyph glyph-name="one.tf" 
d="M612 0h-464v49h184v542l-155 46l251 103v-691h184v-49z" />
    <glyph glyph-name="two.tf" 
d="M94 0l227 202q101 90 146.5 167.5t45.5 158.5q0 80 -41.5 122.5t-115.5 42.5t-115 -41.5t-44 -118.5q-2 -38 -13 -55t-34 -17t-35.5 17.5t-12.5 51.5q0 60 34.5 107.5t95.5 74.5t139 27q113 0 179.5 -55.5t66.5 -149.5q0 -83 -58 -164.5t-191 -186.5l-105 -92h266
l100 109v-200h-535z" />
    <glyph glyph-name="three.tf" 
d="M302 399q102 0 155.5 38t53.5 112q0 66 -42 104.5t-118 38.5q-75 0 -114.5 -37t-39.5 -106q0 -33 -9.5 -47.5t-30.5 -14.5t-31 15t-10 46q0 58 30.5 101t86 66.5t129.5 23.5t128.5 -23t84 -65t29.5 -96q0 -64 -40.5 -110t-112.5 -66q92 -16 142.5 -62.5t50.5 -117.5
q0 -60 -34.5 -108t-97 -75.5t-141.5 -27.5t-143 28t-100 77t-36 109q0 33 12 50.5t35 17.5q21 0 31.5 -16t10.5 -50q0 -80 46 -124t126 -44q84 0 135 46.5t51 121.5q0 76 -57.5 111.5t-179.5 35.5v48z" />
    <glyph glyph-name="four.tf" 
d="M435 95v73h-393l404 557h85v-510h145v-47h-145v-89l68 -79h-207zM435 215v415l-302 -415h302z" />
    <glyph glyph-name="five.tf" 
d="M140 334v391h449v-90h-402v-255q75 80 201 80q75 0 132 -28t88.5 -79t31.5 -119q0 -73 -35.5 -128.5t-100.5 -86.5t-151 -31q-73 0 -132.5 22t-93.5 61.5t-34 88.5q0 28 11.5 43t33.5 15q39 0 42 -58q2 -61 43 -94t112 -33q93 0 148 54t55 144q0 84 -47.5 129.5
t-131.5 45.5q-55 0 -102 -19t-76 -53h-41z" />
    <glyph glyph-name="six.tf" 
d="M585.5 47.5q-66.5 -59.5 -188.5 -59.5q-148 0 -224 91.5t-76 268.5q0 122 36.5 210t105 134.5t163.5 46.5q62 0 112.5 -18.5t79.5 -51.5t29 -73q0 -50 -45 -50q-23 0 -35 12.5t-16 40.5q-8 46 -39 70t-82 24q-99 0 -152.5 -88.5t-54.5 -263.5q85 91 221 91
q110 0 171 -56.5t61 -159.5q0 -109 -66.5 -168.5zM201 297q9 -132 56.5 -196.5t135.5 -64.5q75 0 117 44t42 125q0 85 -45 131t-127 46q-109 0 -179 -85z" />
    <glyph glyph-name="seven.tf" 
d="M113 725h558l-62 -73q-116 -126 -171 -283.5t-56 -368.5h-118q3 193 74.5 350.5t212.5 282.5h-362l-76 -84v176z" />
    <glyph glyph-name="eight.tf" 
d="M164.5 41q-74.5 53 -74.5 145q0 63 37 108.5t117 82.5q-60 33 -87.5 72t-27.5 91q0 58 31.5 103.5t88.5 70.5t131 25q70 0 123.5 -22.5t83.5 -63.5t30 -93q0 -107 -124 -174q84 -37 123.5 -85.5t39.5 -112.5q0 -94 -76 -147t-209 -53q-132 0 -206.5 53zM522 478
q25 40 25 82q0 60 -49 97.5t-127 37.5q-74 0 -117 -32.5t-43 -89.5q0 -38 23 -66t74.5 -52.5t141.5 -50.5q47 34 72 74zM218.5 75q54.5 -42 154.5 -42q93 0 143.5 35t50.5 99q0 38 -22.5 65t-81 55t-174.5 67q-67 -33 -96 -70.5t-29 -89.5q0 -77 54.5 -119z" />
    <glyph glyph-name="nine.tf" 
d="M598.5 170q-36.5 -88 -105.5 -135t-164 -47q-61 0 -111.5 18.5t-79.5 51t-29 71.5q0 23 11 36t31 13q42 0 51 -53q8 -43 40.5 -66.5t83.5 -23.5q99 0 152.5 87t54.5 247q-28 -50 -76 -74.5t-118 -24.5q-78 0 -135.5 28.5t-89 80.5t-31.5 122q0 71 33 125t93 83.5
t139 29.5q140 0 213.5 -92t73.5 -268q0 -121 -36.5 -209zM226.5 371q48.5 -50 133.5 -50q59 0 102.5 24.5t69.5 71.5q-4 139 -50 207t-137 68q-78 0 -122.5 -47.5t-44.5 -133.5q0 -90 48.5 -140z" />
    <glyph glyph-name="zero.tf.ss04" 
d="M175.5 170q-38.5 62 -38.5 150q0 64 19 134q60 213 198 213q39 0 86 -18q75 -30 114 -91t39 -148q0 -66 -20 -136q-61 -214 -196 -214q-42 0 -89 19q-74 29 -112.5 91zM522 183q33 45 33 118q0 48 -13 101q-24 100 -74 153.5t-120 53.5q-18 0 -43 -5q-65 -16 -98.5 -60.5
t-33.5 -115.5q0 -43 14 -101q24 -102 73 -155t119 -53q19 0 44 5q66 14 99 59z" />
    <glyph glyph-name="zero.tf.ss04.zero" 
d="M577 642.5q72 -96.5 72 -278.5q0 -183 -72 -279.5t-213 -96.5q-140 0 -211.5 97t-71.5 279q0 179 72 277t211 98q141 0 213 -96.5zM186 159l-2 6l325 433q-58 43 -145 43q-114 0 -175 -71t-61 -206t58 -205zM539.5 158q61.5 71 61.5 206q0 132 -60 204l2 -6l-326 -433
q57 -42 147 -42q114 0 175.5 71z" />
    <glyph glyph-name="zero.tf.zero" 
d="M146 84.5q-75 96.5 -75 279.5t75 279t218 96q144 0 219.5 -95.5t75.5 -279.5t-75 -280t-220 -96q-143 0 -218 96.5zM202 187l305 406q-49 99 -143 99q-92 0 -140.5 -84t-48.5 -244q0 -108 27 -177zM506 120q49 84 49 244q0 106 -30 173l-305 -406q47 -95 144 -95
q93 0 142 84z" />
    <glyph glyph-name="zero.tosf" 
d="M97 417.5q38 62.5 107.5 96.5t160.5 34q92 0 161 -33.5t107 -94.5t38 -142q0 -86 -38 -151t-107 -101t-161 -36q-91 0 -160.5 35.5t-107.5 99.5t-38 148q0 82 38 144.5zM472.5 68.5q46.5 29.5 72 83.5t25.5 126q0 66 -25.5 116.5t-72 78t-107.5 27.5t-107 -28
t-71.5 -79.5t-25.5 -119.5q0 -70 25.5 -123t71.5 -82t107 -29t107.5 29.5z" />
    <glyph glyph-name="one.tosf" 
d="M612 0h-463v49h183v349l-155 47l251 102v-498h184v-49z" />
    <glyph glyph-name="two.tosf" 
d="M109 0l143 96q102 68 158 115.5t80 86t24 79.5q0 58 -40 91.5t-107 33.5q-70 0 -108 -37.5t-39 -104.5q-1 -72 -46 -72q-23 0 -35 17t-12 50q0 55 32.5 99t91.5 69t136 25q106 0 167.5 -45t61.5 -123q0 -47 -27 -88.5t-88 -86.5t-170 -105l-27 -14h326v-86h-521z" />
    <glyph glyph-name="three.tosf" 
d="M280 194q108 0 168.5 44t60.5 123q0 65 -39.5 102.5t-109.5 37.5q-59 0 -91 -28t-33 -81q-1 -29 -10.5 -42t-29.5 -13q-43 0 -43 57q0 72 57.5 113t157.5 41q108 0 171 -49t63 -130q0 -70 -48 -120.5t-129 -68.5q100 -15 159.5 -68t59.5 -131q0 -59 -34 -105.5t-96 -73
t-143 -26.5q-73 0 -132 21.5t-92.5 60t-33.5 87.5q0 28 12.5 44t35.5 16q43 0 43 -57q1 -60 42 -92t113 -32q86 0 134.5 44.5t48.5 119.5q0 82 -64.5 121t-197.5 39v46z" />
    <glyph glyph-name="four.tosf" 
d="M447 -105v105h-395l403 530h88v-483h129v-47h-129v-121l68 -79h-207zM447 47v397l-299 -397h299z" />
    <glyph glyph-name="five.tosf" 
d="M174 86v444h427v-85h-380v-314q36 31 87 47.5t111 16.5q110 0 174 -55t64 -147q0 -66 -34 -115t-96 -75.5t-145 -26.5q-75 0 -135.5 21t-95 58t-34.5 82q0 25 12 38.5t34 13.5q20 0 30 -11.5t11 -37.5q3 -56 45.5 -87.5t118.5 -31.5q87 0 136 44.5t49 124.5q0 75 -44 114
t-129 39q-53 0 -96 -15t-68 -42h-42z" />
    <glyph glyph-name="six.tosf" 
d="M578 47.5q-65 -59.5 -182 -59.5q-145 0 -219 91.5t-74 267.5q0 124 36 212t103 134t160 46q60 0 108.5 -19t76 -51.5t27.5 -72.5q0 -50 -44 -50t-53 58q-8 44 -36.5 66.5t-75.5 22.5q-95 0 -146.5 -90t-52.5 -262q42 47 93 69t116 22q109 0 168.5 -56.5t59.5 -160.5
q0 -108 -65 -167.5zM207 297q8 -131 53.5 -196t130.5 -65q72 0 112 44t40 125q0 84 -42.5 130.5t-121.5 46.5q-103 0 -172 -85z" />
    <glyph glyph-name="seven.tosf" 
d="M125 530h523l-56 -92q-174 -268 -286 -638h-119q130 363 358 638h-344l-76 -84v176z" />
    <glyph glyph-name="eight.tosf" 
d="M171 447.5q-25 39.5 -25 92.5q0 59 29 104.5t82 70t123 24.5q101 0 162 -50t61 -135q0 -109 -107 -169q73 -37 108 -85.5t35 -111.5q0 -93 -71.5 -146.5t-196.5 -53.5q-123 0 -193 52.5t-70 145.5q0 63 34.5 109.5t107.5 79.5q-54 33 -79 72.5zM512 473q21 40 21 83
q0 63 -44 101t-118 38q-68 0 -106.5 -32.5t-38.5 -90.5q0 -39 21 -66.5t69.5 -51.5t136.5 -50q38 29 59 69zM209.5 285.5q-26.5 -38.5 -26.5 -93.5q0 -77 48.5 -118t141.5 -41q85 0 132 35t47 98q0 40 -22.5 68.5t-78 56t-159.5 62.5q-56 -29 -82.5 -67.5z" />
    <glyph glyph-name="nine.tosf" 
d="M594 -36q-36 -91 -103.5 -139.5t-159.5 -48.5q-59 0 -107.5 18.5t-76.5 50.5t-28 71q0 24 11.5 37t31.5 13q41 0 50 -52q8 -43 38.5 -67t78.5 -24q94 0 146 89t53 258q-28 -51 -74 -75t-112 -24q-76 0 -132 29t-86.5 82t-30.5 124q0 72 32 127t90 85t135 30
q137 0 208.5 -93.5t71.5 -273.5q0 -126 -36 -217zM234 173.5q46 -51.5 129 -51.5q55 0 97 24t67 70q-5 145 -49.5 215t-129.5 70q-76 0 -118 -48.5t-42 -134.5q0 -93 46 -144.5z" />
    <glyph glyph-name="zero.tosf.ss04" horiz-adv-x="723" 
d="M97.5 413q38.5 64 107.5 99.5t157 35.5q89 0 157.5 -35t106.5 -97.5t38 -143.5q0 -82 -38.5 -146t-107 -100t-156.5 -36q-89 0 -158 35t-107 98t-38 144q0 82 38.5 146zM494.5 111.5q57.5 23.5 89.5 65.5t32 95t-31.5 93.5t-89 63t-133.5 22.5t-133.5 -23t-89 -65
t-31.5 -96q0 -53 31.5 -93.5t89 -63t133.5 -22.5q75 0 132.5 23.5z" />
    <glyph glyph-name="zero.tosf.ss04.zero" horiz-adv-x="723" 
d="M519.5 513q68.5 -35 106.5 -97.5t38 -143.5q0 -82 -38.5 -146t-107 -100t-156.5 -36q-89 0 -158 35t-107 98t-38 144q0 82 38.5 146t107.5 99.5t157 35.5q89 0 157.5 -35zM135 179.5q27 -38.5 77 -61.5l251 321q-45 12 -101 12q-76 0 -133.5 -23t-89 -65t-31.5 -96
q0 -49 27 -87.5zM494.5 111.5q57.5 23.5 89.5 65.5t32 95q0 49 -27.5 88t-77.5 62l-251 -322q45 -12 102 -12q75 0 132.5 23.5z" />
    <glyph glyph-name="zero.tosf.zero" 
d="M206 25q-70 35 -108.5 99t-38.5 148q0 82 42 145t112 97t153 34q88 0 157 -32.5t108.5 -94t39.5 -145.5t-38.5 -149t-108 -101t-158.5 -36q-90 0 -160 35zM176.5 185q15.5 -40 44.5 -69l268 344q-52 40 -123 40q-54 0 -101 -28.5t-75.5 -80.5t-28.5 -119q0 -47 15.5 -87z
M556.5 358q-13.5 36 -37.5 61l-268 -342q49 -38 115 -38q60 0 106.5 30t72 84.5t25.5 124.5q0 44 -13.5 80z" />
    <glyph glyph-name="zero.zero" horiz-adv-x="683" 
d="M119.5 83q-76.5 95 -76.5 275q0 185 76 283t221 98q148 0 224 -96.5t76 -283.5q0 -182 -76.5 -276.5t-223.5 -94.5q-144 0 -220.5 95zM485 599q-48 93 -145 93q-93 0 -142.5 -85t-49.5 -247q0 -108 26 -174zM340 36q95 0 145 82.5t50 240.5q0 113 -30 185l-312 -414
q48 -94 147 -94z" />
    <glyph glyph-name="uni2080" unicode="&#x2080;" horiz-adv-x="524" 
d="M101.5 -22q-58.5 58 -58.5 159q0 100 58.5 157.5t160.5 57.5q103 0 161 -56t58 -157q0 -102 -58.5 -160.5t-160.5 -58.5t-160.5 58zM353.5 13.5q32.5 44.5 32.5 125.5q0 78 -32.5 121t-91.5 43t-91.5 -43.5t-32.5 -122.5t32.5 -123.5t91.5 -44.5t91.5 44.5z" />
    <glyph glyph-name="uni2081" unicode="&#x2081;" horiz-adv-x="325" 
d="M92 -70l34 73v215l-88 36l183 96v-355l56 -65h-185z" />
    <glyph glyph-name="uni2082" unicode="&#x2082;" horiz-adv-x="426" 
d="M38 -70l128 107q63 54 89.5 96t26.5 88q0 40 -19 61.5t-56 21.5t-57.5 -21.5t-20.5 -60.5q0 -29 -10.5 -44t-29.5 -15t-29 14t-10 40q0 60 45 96.5t121 36.5q73 0 117 -36t44 -96q0 -47 -32 -87.5t-107 -92.5l-40 -29h190v-79h-350z" />
    <glyph glyph-name="uni2083" unicode="&#x2083;" horiz-adv-x="438" 
d="M159 161q134 0 134 77q0 31 -21 47.5t-59 16.5q-74 0 -76 -62q-1 -22 -10 -31.5t-29 -9.5t-29.5 10t-9.5 32q0 49 43 79t117 30q71 0 113.5 -27.5t42.5 -74.5q0 -36 -25 -62.5t-68 -37.5q60 -8 93.5 -35.5t33.5 -70.5q0 -55 -53 -89.5t-138 -34.5q-79 0 -129.5 31
t-50.5 80q0 21 11 32.5t31 11.5q18 0 27.5 -10t12.5 -32q4 -35 24 -50.5t62 -15.5q52 0 80.5 21t28.5 57q0 40 -37.5 58t-118.5 18v42z" />
    <glyph glyph-name="uni2084" unicode="&#x2084;" horiz-adv-x="414" 
d="M192 -70l34 73v35h-220l230 298h85v-251h90v-47h-90v-43l56 -65h-185zM226 85v160l-124 -160h124z" />
    <glyph glyph-name="uni2085" unicode="&#x2085;" horiz-adv-x="430" 
d="M364 269h-242v-105q23 14 54 21t64 7q73 0 117.5 -34t44.5 -91q0 -61 -52 -99t-140 -38q-77 0 -124.5 30t-47.5 77q0 21 11 33t32 12q40 0 44 -45q8 -62 80 -62q46 0 72.5 22.5t26.5 61.5q0 40 -29 63t-81 23q-43 0 -74 -14h-45v215h289v-77z" />
    <glyph glyph-name="uni2086" unicode="&#x2086;" horiz-adv-x="473" 
d="M202.5 165q36.5 10 74.5 10q74 0 118.5 -34.5t44.5 -92.5q0 -60 -49 -94t-135 -34q-105 0 -159 53t-54 155q0 106 55.5 165t154.5 59q71 0 118 -28.5t47 -71.5q0 -40 -40 -40q-36 0 -48 39q-7 26 -27 40t-51 14q-54 0 -83.5 -43.5t-30.5 -123.5q28 17 64.5 27zM253 -33
q44 0 69.5 21t25.5 58q0 38 -26.5 59.5t-73.5 21.5q-59 0 -109 -31q10 -129 114 -129z" />
    <glyph glyph-name="uni2087" unicode="&#x2087;" horiz-adv-x="362" 
d="M28 333h341q-74 -98 -126.5 -202.5t-75.5 -200.5h-109q29 82 94 178t123 142h-247v83z" />
    <glyph glyph-name="uni2088" unicode="&#x2088;" horiz-adv-x="451" 
d="M92 -48.5q-49 31.5 -49 87.5q0 62 70 95q-47 31 -47 90t44.5 93.5t119.5 34.5q72 0 116.5 -31.5t44.5 -83.5q0 -27 -13.5 -47.5t-42.5 -38.5q83 -32 83 -103q0 -59 -51.5 -93.5t-140.5 -34.5q-85 0 -134 31.5zM322 229q0 36 -25 56t-71 20q-40 0 -61.5 -15t-21.5 -44
q0 -32 32.5 -50t112.5 -29q34 21 34 62zM144.5 -11.5q30.5 -21.5 87.5 -21.5q50 0 77.5 16t27.5 44q0 20 -15.5 33.5t-53 25t-109.5 24.5q-45 -18 -45 -61q0 -39 30.5 -60.5z" />
    <glyph glyph-name="uni2089" unicode="&#x2089;" horiz-adv-x="475" 
d="M374.5 -20.5q-57.5 -59.5 -161.5 -59.5q-46 0 -83.5 12t-59 33t-21.5 46q0 19 11 29t31 10q17 0 28 -8.5t21 -27.5q12 -26 29.5 -36.5t46.5 -10.5q114 0 120 151q-45 -38 -125 -38t-129 36t-49 97q0 63 51 101t139 38q102 0 155.5 -53t53.5 -153q0 -107 -57.5 -166.5z
M153.5 151.5q27.5 -23.5 79.5 -23.5q29 0 56 7.5t47 20.5q-3 76 -31 112.5t-81 36.5q-45 0 -71.5 -24t-26.5 -65t27.5 -64.5z" />
    <glyph glyph-name="zero.dnom" horiz-adv-x="524" 
d="M101.5 46q-58.5 58 -58.5 159q0 100 58.5 157.5t160.5 57.5q103 0 161 -56t58 -157q0 -102 -58.5 -160.5t-160.5 -58.5t-160.5 58zM353.5 81.5q32.5 44.5 32.5 125.5q0 78 -32.5 121t-91.5 43t-91.5 -43.5t-32.5 -122.5t32.5 -123.5t91.5 -44.5t91.5 44.5z" />
    <glyph glyph-name="one.dnom" horiz-adv-x="325" 
d="M92 0l34 73v215l-88 36l183 96v-355l56 -65h-185z" />
    <glyph glyph-name="two.dnom" horiz-adv-x="426" 
d="M38 0l128 107q63 54 89.5 96t26.5 88q0 40 -19 61.5t-56 21.5t-57.5 -21.5t-20.5 -60.5q0 -29 -10.5 -44t-29.5 -15t-29 14t-10 40q0 60 45 96.5t121 36.5q73 0 117 -36t44 -96q0 -47 -32 -87.5t-107 -92.5l-40 -29h190v-79h-350z" />
    <glyph glyph-name="three.dnom" horiz-adv-x="438" 
d="M159 231q134 0 134 77q0 31 -21 47.5t-59 16.5q-74 0 -76 -62q-1 -22 -10 -31.5t-29 -9.5t-29.5 10t-9.5 32q0 49 43 79t117 30q71 0 113.5 -27.5t42.5 -74.5q0 -36 -25 -62.5t-68 -37.5q60 -8 93.5 -35.5t33.5 -70.5q0 -55 -53 -89.5t-138 -34.5q-79 0 -129.5 31
t-50.5 80q0 21 11 32.5t31 11.5q18 0 27.5 -10t12.5 -32q4 -35 24 -50.5t62 -15.5q52 0 80.5 21t28.5 57q0 40 -37.5 58t-118.5 18v42z" />
    <glyph glyph-name="four.dnom" horiz-adv-x="414" 
d="M192 0l34 73v35h-220l230 298h85v-251h90v-47h-90v-43l56 -65h-185zM226 155v160l-124 -160h124z" />
    <glyph glyph-name="five.dnom" horiz-adv-x="430" 
d="M364 327h-242v-105q23 14 54 21t64 7q73 0 117.5 -34t44.5 -91q0 -61 -52 -99t-140 -38q-77 0 -124.5 30t-47.5 77q0 21 11 33t32 12q40 0 44 -45q8 -62 80 -62q46 0 72.5 22.5t26.5 61.5q0 40 -29 63t-81 23q-43 0 -74 -14h-45v215h289v-77z" />
    <glyph glyph-name="six.dnom" horiz-adv-x="473" 
d="M202.5 233q36.5 10 74.5 10q74 0 118.5 -34.5t44.5 -92.5q0 -60 -49 -94t-135 -34q-105 0 -159 53t-54 155q0 106 55.5 165t154.5 59q71 0 118 -28.5t47 -71.5q0 -40 -40 -40q-36 0 -48 39q-7 26 -27 40t-51 14q-54 0 -83.5 -43.5t-30.5 -123.5q28 17 64.5 27zM253 35
q44 0 69.5 21t25.5 58q0 38 -26.5 59.5t-73.5 21.5q-59 0 -109 -31q10 -129 114 -129z" />
    <glyph glyph-name="seven.dnom" horiz-adv-x="362" 
d="M28 403h341q-74 -98 -126.5 -202.5t-75.5 -200.5h-109q29 82 94 178t123 142h-247v83z" />
    <glyph glyph-name="eight.dnom" horiz-adv-x="451" 
d="M92 19.5q-49 31.5 -49 87.5q0 62 70 95q-47 31 -47 90t44.5 93.5t119.5 34.5q72 0 116.5 -31.5t44.5 -83.5q0 -27 -13.5 -47.5t-42.5 -38.5q83 -32 83 -103q0 -59 -51.5 -93.5t-140.5 -34.5q-85 0 -134 31.5zM322 297q0 36 -25 56t-71 20q-40 0 -61.5 -15t-21.5 -44
q0 -32 32.5 -50t112.5 -29q34 21 34 62zM144.5 56.5q30.5 -21.5 87.5 -21.5q50 0 77.5 16t27.5 44q0 20 -15.5 33.5t-53 25t-109.5 24.5q-45 -18 -45 -61q0 -39 30.5 -60.5z" />
    <glyph glyph-name="nine.dnom" horiz-adv-x="475" 
d="M374.5 47.5q-57.5 -59.5 -161.5 -59.5q-46 0 -83.5 12t-59 33t-21.5 46q0 19 11 29t31 10q17 0 28 -8.5t21 -27.5q12 -26 29.5 -36.5t46.5 -10.5q114 0 120 151q-45 -38 -125 -38t-129 36t-49 97q0 63 51 101t139 38q102 0 155.5 -53t53.5 -153q0 -107 -57.5 -166.5z
M153.5 219.5q27.5 -23.5 79.5 -23.5q29 0 56 7.5t47 20.5q-3 76 -31 112.5t-81 36.5q-45 0 -71.5 -24t-26.5 -65t27.5 -64.5z" />
    <glyph glyph-name="zero.numr" horiz-adv-x="524" 
d="M101.5 365q-58.5 58 -58.5 159q0 100 58.5 157.5t160.5 57.5q103 0 161 -56t58 -157q0 -102 -58.5 -160.5t-160.5 -58.5t-160.5 58zM353.5 400.5q32.5 44.5 32.5 125.5q0 78 -32.5 121t-91.5 43t-91.5 -43.5t-32.5 -122.5t32.5 -123.5t91.5 -44.5t91.5 44.5z" />
    <glyph glyph-name="one.numr" horiz-adv-x="325" 
d="M93 319l34 73v215l-89 38l183 94v-355l55 -65h-183z" />
    <glyph glyph-name="two.numr" horiz-adv-x="426" 
d="M38 319l128 107q63 54 89.5 96t26.5 88q0 40 -19 61.5t-56 21.5t-57.5 -21.5t-20.5 -60.5q0 -29 -10.5 -44t-29.5 -15t-29 14t-10 40q0 60 45 96.5t121 36.5q73 0 117 -36t44 -96q0 -47 -32 -87.5t-107 -92.5l-40 -29h190v-79h-350z" />
    <glyph glyph-name="three.numr" horiz-adv-x="438" 
d="M159 550q134 0 134 77q0 31 -21 47.5t-59 16.5q-74 0 -76 -62q-1 -22 -10 -31.5t-29 -9.5t-29.5 10t-9.5 32q0 49 43 79t117 30q71 0 113.5 -27.5t42.5 -74.5q0 -36 -25 -62.5t-68 -37.5q60 -8 93.5 -35.5t33.5 -70.5q0 -55 -53 -89.5t-138 -34.5q-79 0 -129.5 31
t-50.5 80q0 21 11 32.5t31 11.5q18 0 27.5 -10t12.5 -32q4 -35 24 -50.5t62 -15.5q52 0 80.5 21t28.5 57q0 40 -37.5 58t-118.5 18v42z" />
    <glyph glyph-name="four.numr" horiz-adv-x="414" 
d="M192 319l34 73v35h-220l230 298h85v-251h90v-47h-90v-43l56 -65h-185zM226 474v160l-124 -160h124z" />
    <glyph glyph-name="five.numr" horiz-adv-x="430" 
d="M364 648h-242v-105q23 14 54 21t64 7q73 0 117.5 -34t44.5 -91q0 -61 -52 -99t-140 -38q-77 0 -124.5 30t-47.5 77q0 21 11 33t32 12q40 0 44 -45q8 -62 80 -62q46 0 72.5 22.5t26.5 61.5q0 40 -29 63t-81 23q-43 0 -74 -14h-45v215h289v-77z" />
    <glyph glyph-name="six.numr" horiz-adv-x="473" 
d="M202.5 553q36.5 10 74.5 10q74 0 118.5 -34.5t44.5 -92.5q0 -60 -49 -94t-135 -34q-105 0 -159 53t-54 155q0 106 55.5 165t154.5 59q71 0 118 -28.5t47 -71.5q0 -40 -40 -40q-36 0 -48 39q-7 26 -27 40t-51 14q-54 0 -83.5 -43.5t-30.5 -123.5q28 17 64.5 27zM253 355
q44 0 69.5 21t25.5 58q0 38 -26.5 59.5t-73.5 21.5q-59 0 -109 -31q10 -129 114 -129z" />
    <glyph glyph-name="seven.numr" horiz-adv-x="362" 
d="M28 725h341q-74 -98 -126.5 -202.5t-75.5 -200.5h-109q29 82 94 178t123 142h-247v83z" />
    <glyph glyph-name="eight.numr" horiz-adv-x="451" 
d="M92 338.5q-49 31.5 -49 87.5q0 62 70 95q-47 31 -47 90t44.5 93.5t119.5 34.5q72 0 116.5 -31.5t44.5 -83.5q0 -27 -13.5 -47.5t-42.5 -38.5q83 -32 83 -103q0 -59 -51.5 -93.5t-140.5 -34.5q-85 0 -134 31.5zM322 616q0 36 -25 56t-71 20q-40 0 -61.5 -15t-21.5 -44
q0 -32 32.5 -50t112.5 -29q34 21 34 62zM144.5 375.5q30.5 -21.5 87.5 -21.5q50 0 77.5 16t27.5 44q0 20 -15.5 33.5t-53 25t-109.5 24.5q-45 -18 -45 -61q0 -39 30.5 -60.5z" />
    <glyph glyph-name="nine.numr" horiz-adv-x="475" 
d="M374.5 367.5q-57.5 -59.5 -161.5 -59.5q-46 0 -83.5 12t-59 33t-21.5 46q0 19 11 29t31 10q17 0 28 -8.5t21 -27.5q12 -26 29.5 -36.5t46.5 -10.5q114 0 120 151q-45 -38 -125 -38t-129 36t-49 97q0 63 51 101t139 38q102 0 155.5 -53t53.5 -153q0 -107 -57.5 -166.5z
M153.5 539.5q27.5 -23.5 79.5 -23.5q29 0 56 7.5t47 20.5q-3 76 -31 112.5t-81 36.5q-45 0 -71.5 -24t-26.5 -65t27.5 -64.5z" />
    <glyph glyph-name="uni2070" unicode="&#x2070;" horiz-adv-x="524" 
d="M101.5 421q-58.5 58 -58.5 159q0 100 58.5 157.5t160.5 57.5q103 0 161 -56t58 -157q0 -102 -58.5 -160.5t-160.5 -58.5t-160.5 58zM353.5 456.5q32.5 44.5 32.5 125.5q0 78 -32.5 121t-91.5 43t-91.5 -43.5t-32.5 -122.5t32.5 -123.5t91.5 -44.5t91.5 44.5z" />
    <glyph glyph-name="uni00B9" unicode="&#xb9;" horiz-adv-x="325" 
d="M93 375l34 73v215l-89 38l183 94v-355l55 -65h-183z" />
    <glyph glyph-name="uni00B2" unicode="&#xb2;" horiz-adv-x="426" 
d="M38 375l128 107q63 54 89.5 96t26.5 88q0 40 -19 61.5t-56 21.5t-57.5 -21.5t-20.5 -60.5q0 -29 -10.5 -44t-29.5 -15t-29 14t-10 40q0 60 45 96.5t121 36.5q73 0 117 -36t44 -96q0 -47 -32 -87.5t-107 -92.5l-40 -29h190v-79h-350z" />
    <glyph glyph-name="uni00B3" unicode="&#xb3;" horiz-adv-x="438" 
d="M159 606q134 0 134 77q0 31 -21 47.5t-59 16.5q-74 0 -76 -62q-1 -22 -10 -31.5t-29 -9.5t-29.5 10t-9.5 32q0 49 43 79t117 30q71 0 113.5 -27.5t42.5 -74.5q0 -36 -25 -62.5t-68 -37.5q60 -8 93.5 -35.5t33.5 -70.5q0 -55 -53 -89.5t-138 -34.5q-79 0 -129.5 31
t-50.5 80q0 21 11 32.5t31 11.5q18 0 27.5 -10t12.5 -32q4 -35 24 -50.5t62 -15.5q52 0 80.5 21t28.5 57q0 40 -37.5 58t-118.5 18v42z" />
    <glyph glyph-name="uni2074" unicode="&#x2074;" horiz-adv-x="414" 
d="M192 375l34 73v35h-220l230 298h85v-251h90v-47h-90v-43l56 -65h-185zM226 530v160l-124 -160h124z" />
    <glyph glyph-name="uni2075" unicode="&#x2075;" horiz-adv-x="430" 
d="M364 703h-242v-105q23 14 54 21t64 7q73 0 117.5 -34t44.5 -91q0 -61 -52 -99t-140 -38q-77 0 -124.5 30t-47.5 77q0 21 11 33t32 12q40 0 44 -45q8 -62 80 -62q46 0 72.5 22.5t26.5 61.5q0 40 -29 63t-81 23q-43 0 -74 -14h-45v215h289v-77z" />
    <glyph glyph-name="uni2076" unicode="&#x2076;" horiz-adv-x="473" 
d="M202.5 608q36.5 10 74.5 10q74 0 118.5 -34.5t44.5 -92.5q0 -60 -49 -94t-135 -34q-105 0 -159 53t-54 155q0 106 55.5 165t154.5 59q71 0 118 -28.5t47 -71.5q0 -40 -40 -40q-36 0 -48 39q-7 26 -27 40t-51 14q-54 0 -83.5 -43.5t-30.5 -123.5q28 17 64.5 27zM253 410
q44 0 69.5 21t25.5 58q0 38 -26.5 59.5t-73.5 21.5q-59 0 -109 -31q10 -129 114 -129z" />
    <glyph glyph-name="uni2077" unicode="&#x2077;" horiz-adv-x="362" 
d="M28 779h341q-74 -98 -126.5 -202.5t-75.5 -200.5h-109q29 82 94 178t123 142h-247v83z" />
    <glyph glyph-name="uni2078" unicode="&#x2078;" horiz-adv-x="451" 
d="M92 394.5q-49 31.5 -49 87.5q0 62 70 95q-47 31 -47 90t44.5 93.5t119.5 34.5q72 0 116.5 -31.5t44.5 -83.5q0 -27 -13.5 -47.5t-42.5 -38.5q83 -32 83 -103q0 -59 -51.5 -93.5t-140.5 -34.5q-85 0 -134 31.5zM322 672q0 36 -25 56t-71 20q-40 0 -61.5 -15t-21.5 -44
q0 -32 32.5 -50t112.5 -29q34 21 34 62zM144.5 431.5q30.5 -21.5 87.5 -21.5q50 0 77.5 16t27.5 44q0 20 -15.5 33.5t-53 25t-109.5 24.5q-45 -18 -45 -61q0 -39 30.5 -60.5z" />
    <glyph glyph-name="uni2079" unicode="&#x2079;" horiz-adv-x="475" 
d="M374.5 422.5q-57.5 -59.5 -161.5 -59.5q-46 0 -83.5 12t-59 33t-21.5 46q0 19 11 29t31 10q17 0 28 -8.5t21 -27.5q12 -26 29.5 -36.5t46.5 -10.5q114 0 120 151q-45 -38 -125 -38t-129 36t-49 97q0 63 51 101t139 38q102 0 155.5 -53t53.5 -153q0 -107 -57.5 -166.5z
M153.5 594.5q27.5 -23.5 79.5 -23.5q29 0 56 7.5t47 20.5q-3 76 -31 112.5t-81 36.5q-45 0 -71.5 -24t-26.5 -65t27.5 -64.5z" />
    <glyph glyph-name="fraction" unicode="&#x2044;" horiz-adv-x="147" 
d="M-214 18l542 721l38 -30l-542 -721z" />
    <glyph glyph-name="onehalf" unicode="&#xbd;" horiz-adv-x="860" 
d="M93 319l34 73v215l-89 38l183 94v-355l55 -65h-183zM111 18l542 721l38 -30l-542 -721zM472 0l128 107q63 54 89.5 96t26.5 88q0 40 -19 61.5t-56 21.5t-57.5 -21.5t-20.5 -60.5q0 -29 -10.5 -44t-29.5 -15t-29 14t-10 40q0 60 45 96.5t121 36.5q73 0 117 -36t44 -96
q0 -47 -32 -87.5t-107 -92.5l-40 -29h190v-79h-350z" />
    <glyph glyph-name="uni2153" unicode="&#x2153;" horiz-adv-x="865" 
d="M93 319l34 73v215l-89 38l183 94v-355l55 -65h-183zM111 18l542 721l38 -30l-542 -721zM586 231q134 0 134 77q0 31 -21 47.5t-59 16.5q-74 0 -76 -62q-1 -22 -10 -31.5t-29 -9.5t-29.5 10t-9.5 32q0 49 43 79t117 30q71 0 113.5 -27.5t42.5 -74.5q0 -36 -25 -62.5
t-68 -37.5q60 -8 93.5 -35.5t33.5 -70.5q0 -55 -53 -89.5t-138 -34.5q-79 0 -129.5 31t-50.5 80q0 21 11 32.5t31 11.5q18 0 27.5 -10t12.5 -32q4 -35 24 -50.5t62 -15.5q52 0 80.5 21t28.5 57q0 40 -37.5 58t-118.5 18v42z" />
    <glyph glyph-name="uni2154" unicode="&#x2154;" horiz-adv-x="973" 
d="M38 319l128 107q63 54 89.5 96t26.5 88q0 40 -19 61.5t-56 21.5t-57.5 -21.5t-20.5 -60.5q0 -29 -10.5 -44t-29.5 -15t-29 14t-10 40q0 60 45 96.5t121 36.5q73 0 117 -36t44 -96q0 -47 -32 -87.5t-107 -92.5l-40 -29h190v-79h-350zM219 18l542 721l38 -30l-542 -721z
M694 231q134 0 134 77q0 31 -21 47.5t-59 16.5q-74 0 -76 -62q-1 -22 -10 -31.5t-29 -9.5t-29.5 10t-9.5 32q0 49 43 79t117 30q71 0 113.5 -27.5t42.5 -74.5q0 -36 -25 -62.5t-68 -37.5q60 -8 93.5 -35.5t33.5 -70.5q0 -55 -53 -89.5t-138 -34.5q-79 0 -129.5 31t-50.5 80
q0 21 11 32.5t31 11.5q18 0 27.5 -10t12.5 -32q4 -35 24 -50.5t62 -15.5q52 0 80.5 21t28.5 57q0 40 -37.5 58t-118.5 18v42z" />
    <glyph glyph-name="onequarter" unicode="&#xbc;" horiz-adv-x="788" 
d="M93 319l34 73v215l-89 38l183 94v-355l55 -65h-183zM111 18l542 721l38 -30l-542 -721zM566 0l34 73v35h-220l230 298h85v-251h90v-47h-90v-43l56 -65h-185zM600 155v160l-124 -160h124z" />
    <glyph glyph-name="threequarters" unicode="&#xbe;" horiz-adv-x="869" 
d="M159 550q134 0 134 77q0 31 -21 47.5t-59 16.5q-74 0 -76 -62q-1 -22 -10 -31.5t-29 -9.5t-29.5 10t-9.5 32q0 49 43 79t117 30q71 0 113.5 -27.5t42.5 -74.5q0 -36 -25 -62.5t-68 -37.5q60 -8 93.5 -35.5t33.5 -70.5q0 -55 -53 -89.5t-138 -34.5q-79 0 -129.5 31
t-50.5 80q0 21 11 32.5t31 11.5q18 0 27.5 -10t12.5 -32q4 -35 24 -50.5t62 -15.5q52 0 80.5 21t28.5 57q0 40 -37.5 58t-118.5 18v42zM192 18l542 721l38 -30l-542 -721zM647 0l34 73v35h-220l230 298h85v-251h90v-47h-90v-43l56 -65h-185zM681 155v160l-124 -160h124z" />
    <glyph glyph-name="oneeighth" unicode="&#x215b;" horiz-adv-x="859" 
d="M93 319l34 73v215l-89 38l183 94v-355l55 -65h-183zM111 18l542 721l38 -30l-542 -721zM500 19.5q-49 31.5 -49 87.5q0 62 70 95q-47 31 -47 90t44.5 93.5t119.5 34.5q72 0 116.5 -31.5t44.5 -83.5q0 -27 -13.5 -47.5t-42.5 -38.5q83 -32 83 -103q0 -59 -51.5 -93.5
t-140.5 -34.5q-85 0 -134 31.5zM730 297q0 36 -25 56t-71 20q-40 0 -61.5 -15t-21.5 -44q0 -32 32.5 -50t112.5 -29q34 21 34 62zM552.5 56.5q30.5 -21.5 87.5 -21.5q50 0 77.5 16t27.5 44q0 20 -15.5 33.5t-53 25t-109.5 24.5q-45 -18 -45 -61q0 -39 30.5 -60.5z" />
    <glyph glyph-name="threeeighths" unicode="&#x215c;" horiz-adv-x="939" 
d="M159 550q134 0 134 77q0 31 -21 47.5t-59 16.5q-74 0 -76 -62q-1 -22 -10 -31.5t-29 -9.5t-29.5 10t-9.5 32q0 49 43 79t117 30q71 0 113.5 -27.5t42.5 -74.5q0 -36 -25 -62.5t-68 -37.5q60 -8 93.5 -35.5t33.5 -70.5q0 -55 -53 -89.5t-138 -34.5q-79 0 -129.5 31
t-50.5 80q0 21 11 32.5t31 11.5q18 0 27.5 -10t12.5 -32q4 -35 24 -50.5t62 -15.5q52 0 80.5 21t28.5 57q0 40 -37.5 58t-118.5 18v42zM192 18l542 721l38 -30l-542 -721zM581 19.5q-49 31.5 -49 87.5q0 62 70 95q-47 31 -47 90t44.5 93.5t119.5 34.5q72 0 116.5 -31.5
t44.5 -83.5q0 -27 -13.5 -47.5t-42.5 -38.5q83 -32 83 -103q0 -59 -51.5 -93.5t-140.5 -34.5q-85 0 -134 31.5zM811 297q0 36 -25 56t-71 20q-40 0 -61.5 -15t-21.5 -44q0 -32 32.5 -50t112.5 -29q34 21 34 62zM633.5 56.5q30.5 -21.5 87.5 -21.5q50 0 77.5 16t27.5 44
q0 20 -15.5 33.5t-53 25t-109.5 24.5q-45 -18 -45 -61q0 -39 30.5 -60.5z" />
    <glyph glyph-name="fiveeighths" unicode="&#x215d;" horiz-adv-x="921" 
d="M364 648h-242v-105q23 14 54 21t64 7q73 0 117.5 -34t44.5 -91q0 -61 -52 -99t-140 -38q-77 0 -124.5 30t-47.5 77q0 21 11 33t32 12q40 0 44 -45q8 -62 80 -62q46 0 72.5 22.5t26.5 61.5q0 40 -29 63t-81 23q-43 0 -74 -14h-45v215h289v-77zM173 18l542 721l38 -30
l-542 -721zM562 19.5q-49 31.5 -49 87.5q0 62 70 95q-47 31 -47 90t44.5 93.5t119.5 34.5q72 0 116.5 -31.5t44.5 -83.5q0 -27 -13.5 -47.5t-42.5 -38.5q83 -32 83 -103q0 -59 -51.5 -93.5t-140.5 -34.5q-85 0 -134 31.5zM792 297q0 36 -25 56t-71 20q-40 0 -61.5 -15
t-21.5 -44q0 -32 32.5 -50t112.5 -29q34 21 34 62zM614.5 56.5q30.5 -21.5 87.5 -21.5q50 0 77.5 16t27.5 44q0 20 -15.5 33.5t-53 25t-109.5 24.5q-45 -18 -45 -61q0 -39 30.5 -60.5z" />
    <glyph glyph-name="seveneighths" unicode="&#x215e;" horiz-adv-x="835" 
d="M28 725h341q-74 -98 -126.5 -202.5t-75.5 -200.5h-109q29 82 94 178t123 142h-247v83zM87 18l542 721l38 -30l-542 -721zM476 19.5q-49 31.5 -49 87.5q0 62 70 95q-47 31 -47 90t44.5 93.5t119.5 34.5q72 0 116.5 -31.5t44.5 -83.5q0 -27 -13.5 -47.5t-42.5 -38.5
q83 -32 83 -103q0 -59 -51.5 -93.5t-140.5 -34.5q-85 0 -134 31.5zM706 297q0 36 -25 56t-71 20q-40 0 -61.5 -15t-21.5 -44q0 -32 32.5 -50t112.5 -29q34 21 34 62zM528.5 56.5q30.5 -21.5 87.5 -21.5q50 0 77.5 16t27.5 44q0 20 -15.5 33.5t-53 25t-109.5 24.5
q-45 -18 -45 -61q0 -39 30.5 -60.5z" />
    <glyph glyph-name="uni00B9.osf" horiz-adv-x="325" 
d="M92 197l34 74v194l-88 37l183 95v-335l56 -65h-185z" />
    <glyph glyph-name="uni00B2.osf" horiz-adv-x="424" 
d="M38 197l128 107q60 51 86.5 91.5t26.5 81.5q0 36 -18 55t-53 19q-38 0 -58.5 -21.5t-20.5 -61.5q0 -58 -40 -58q-19 0 -29 13.5t-10 39.5q0 59 45.5 96.5t122.5 37.5q72 0 113.5 -33t41.5 -89q0 -43 -29.5 -80.5t-105.5 -90.5l-43 -30h191v-77h-348z" />
    <glyph glyph-name="uni00B3.osf" horiz-adv-x="428" 
d="M159 419q68 0 101 17t33 53q0 29 -21 45t-59 16q-74 0 -76 -62q0 -42 -39 -42q-20 0 -29.5 10t-9.5 32q0 50 43 79.5t117 29.5q70 0 113 -27t43 -72q0 -34 -24.5 -58.5t-68.5 -34.5q57 -8 87.5 -34.5t30.5 -67.5q0 -53 -50.5 -85.5t-132.5 -32.5q-80 0 -129.5 31
t-49.5 80q0 21 11 32.5t32 11.5q17 0 26 -9.5t13 -32.5q5 -37 23.5 -51t60.5 -14q50 0 76.5 18t26.5 53q0 38 -34.5 55t-113.5 17v43z" />
    <glyph glyph-name="onehalf.osf" horiz-adv-x="714" 
d="M79 210l29 62v156l-70 36l142 84v-279l50 -59h-151zM160 -12l-40 27l370 532l39 -26zM386 0l104 86q58 49 79.5 79.5t21.5 64.5q0 31 -15 48t-41 17q-27 0 -41 -17t-14 -48q-1 -52 -36 -52q-16 0 -26 13.5t-10 38.5q0 49 35.5 79.5t96.5 30.5q59 0 93.5 -28.5t34.5 -76.5
q0 -41 -29.5 -78.5t-97.5 -84.5l-12 -8h142v-64h-285z" />
    <glyph glyph-name="uni2153.osf" horiz-adv-x="715" 
d="M79 210l29 62v156l-70 36l142 84v-279l50 -59h-151zM163 -12l-39 27l369 532l39 -26zM498 181q99 0 99 59q0 26 -16.5 41t-44.5 15q-49 0 -55 -51q-3 -20 -11 -28.5t-23 -8.5q-34 0 -34 38q0 42 34.5 68.5t91.5 26.5t91 -26t34 -69q0 -30 -16.5 -50t-46.5 -29
q37 -8 58 -30t21 -54q0 -43 -37.5 -69t-100.5 -26q-62 0 -100.5 25.5t-38.5 64.5q0 40 38 40q15 0 22.5 -7t11.5 -26q6 -28 20.5 -39.5t42.5 -11.5q31 0 48 13.5t17 38.5q0 28 -25 40.5t-80 12.5v42z" />
    <glyph glyph-name="uni2154.osf" horiz-adv-x="771" 
d="M29 209l103 86q49 41 69.5 74t20.5 69q0 32 -14.5 49t-40.5 17t-40 -17t-14 -48q0 -26 -9.5 -39t-25.5 -13q-18 0 -27.5 13t-9.5 38q0 50 35.5 80.5t95.5 30.5q58 0 92.5 -29t34.5 -77q0 -40 -27.5 -78t-88.5 -82l-13 -10h125v-64h-266zM223 -12l-40 27l369 532l40 -26z
M555 181q99 0 99 59q0 26 -16 41t-44 15q-25 0 -39.5 -13t-15.5 -39q-1 -19 -9.5 -27.5t-23.5 -8.5q-34 0 -34 38q0 42 34 68.5t90 26.5q57 0 90.5 -26t33.5 -69q0 -30 -16.5 -50t-46.5 -29q37 -8 58 -29.5t21 -54.5q0 -43 -37 -69t-99 -26t-100.5 25.5t-38.5 64.5
q0 40 38 40q15 0 23.5 -7.5t12.5 -25.5q5 -27 19.5 -39t40.5 -12q31 0 47.5 13.5t16.5 37.5q0 28 -25 41t-79 13v42z" />
    <glyph glyph-name="onequarter.osf" horiz-adv-x="693" 
d="M79 210l29 62v156l-70 36l142 84v-279l50 -59h-151zM160 -12l-40 27l370 532l39 -26zM471 0l29 62v22h-173l174 226h73v-181h83v-45h-83v-25l50 -59h-153zM500 129v106l-83 -106h83z" />
    <glyph glyph-name="threequarters.osf" horiz-adv-x="738" 
d="M132 387q51 1 75.5 15.5t24.5 44.5q0 26 -17 41t-45 15q-49 0 -55 -52q-3 -20 -10.5 -28t-22.5 -8q-34 0 -34 38q0 42 34 68t91 26t91 -25.5t34 -68.5q0 -30 -16.5 -50.5t-46.5 -28.5q36 -8 57.5 -30t21.5 -54q0 -43 -37.5 -69t-100.5 -26q-62 0 -100.5 25t-38.5 65
q0 19 9.5 29.5t28.5 10.5q15 0 23 -7.5t12 -26.5q5 -27 20 -39t42 -12q31 0 48 14t17 39q0 28 -25 40.5t-80 12.5v41zM220 -12l-39 27l369 532l39 -26zM516 0l29 62v22h-173l174 226h73v-181h83v-45h-83v-25l50 -59h-153zM545 129v106l-83 -106h83z" />
    <glyph glyph-name="oneeighth.osf" horiz-adv-x="702" 
d="M79 210l29 62v156l-70 36l142 84v-279l50 -59h-151zM160 -12l-40 27l370 532l39 -26zM424 11.5q-36 23.5 -36 65.5q0 49 55 76q-37 27 -37 71t33 70t88 26q53 0 85.5 -22.5t32.5 -61.5t-36 -63q57 -31 57 -87q0 -46 -37 -72t-104 -26q-65 0 -101 23.5zM493 209.5
q23 -12.5 75 -20.5q18 14 18 38q0 23 -16.5 36t-45.5 13q-26 0 -40 -9t-14 -26q0 -19 23 -31.5zM471.5 46q17.5 -13 54.5 -13q35 0 53.5 10.5t18.5 28.5q0 21 -25 34.5t-85 24.5q-34 -10 -34 -46q0 -26 17.5 -39z" />
    <glyph glyph-name="threeeighths.osf" horiz-adv-x="762" 
d="M132 387q51 1 75.5 15.5t24.5 44.5q0 26 -17 41t-45 15q-49 0 -55 -52q-3 -20 -10.5 -28t-22.5 -8q-34 0 -34 38q0 42 34 68t91 26t91 -25.5t34 -68.5q0 -30 -16.5 -50.5t-46.5 -28.5q36 -8 57.5 -30t21.5 -54q0 -43 -37.5 -69t-100.5 -26q-62 0 -100.5 25t-38.5 65
q0 19 9.5 29.5t28.5 10.5q15 0 23 -7.5t12 -26.5q5 -27 20 -39t42 -12q31 0 48 14t17 39q0 28 -25 40.5t-80 12.5v41zM220 -12l-39 27l369 532l39 -26zM485 12q-36 24 -36 65q0 49 54 76q-37 27 -37 71t33 70t88 26q53 0 86 -22.5t33 -61.5q0 -38 -37 -63q57 -31 57 -87
q0 -46 -37 -72t-104 -26q-64 0 -100 24zM553 209.5q23 -12.5 76 -20.5q17 14 17 38q0 23 -16 36t-46 13q-25 0 -39.5 -9t-14.5 -26q0 -19 23 -31.5zM586 33q35 0 54 10.5t19 28.5q0 21 -25.5 34.5t-85.5 24.5q-34 -10 -34 -46q0 -52 72 -52z" />
    <glyph glyph-name="fiveeighths.osf" horiz-adv-x="763" 
d="M221 -12l-40 27l370 532l39 -26zM78 354v178h227v-69h-182v-67q41 17 81 17q54 0 87 -27.5t33 -73.5q0 -52 -41 -85t-107 -33q-57 0 -94.5 25t-37.5 65q0 19 9.5 30.5t27.5 11.5q31 0 37 -38q7 -49 62 -49q31 0 49 16.5t18 44.5q0 30 -21 46.5t-58 16.5q-26 0 -51 -9h-39
zM485 11.5q-36 23.5 -36 65.5q0 49 55 76q-37 27 -37 71t33 70t88 26q53 0 85.5 -22.5t32.5 -61.5t-36 -63q57 -31 57 -87q0 -46 -37 -72t-104 -26q-65 0 -101 23.5zM554 209.5q23 -12.5 75 -20.5q18 14 18 38q0 23 -16.5 36t-45.5 13q-26 0 -40 -9t-14 -26q0 -19 23 -31.5z
M532.5 46q17.5 -13 54.5 -13q35 0 53.5 10.5t18.5 28.5q0 21 -25 34.5t-85 24.5q-34 -10 -34 -46q0 -26 17.5 -39z" />
    <glyph glyph-name="seveneighths.osf" horiz-adv-x="663" 
d="M121 -12l-39 27l369 532l39 -26zM31 530h298q-84 -84 -126 -161t-54 -169h-87q14 80 55.5 148t102.5 111h-189v71zM386 12q-36 24 -36 65q0 49 54 76q-37 27 -37 71t33 70t88 26q53 0 86 -22.5t33 -61.5q0 -38 -37 -63q57 -31 57 -87q0 -46 -37 -72t-104 -26
q-64 0 -100 24zM454 209.5q23 -12.5 76 -20.5q17 14 17 38q0 23 -16 36t-46 13q-25 0 -39.5 -9t-14.5 -26q0 -19 23 -31.5zM487 33q35 0 54 10.5t19 28.5q0 21 -25.5 34.5t-85.5 24.5q-34 -10 -34 -46q0 -52 72 -52z" />
    <glyph glyph-name="uni2080.ss04" horiz-adv-x="509" 
d="M69.5 249.5q26.5 49.5 74.5 76t110 26.5q97 0 154.5 -56.5t57.5 -157.5q0 -100 -58 -159t-154 -59q-95 0 -153 57.5t-58 155.5q0 67 26.5 116.5zM374 40.5q44 35.5 44 97.5t-44 97t-120 35q-75 0 -119.5 -37t-44.5 -100q0 -59 44.5 -93.5t119.5 -34.5q76 0 120 35.5z" />
    <glyph glyph-name="zero.dnom.ss04" horiz-adv-x="509" 
d="M69.5 317.5q26.5 49.5 74.5 76t110 26.5q97 0 154.5 -56.5t57.5 -157.5q0 -100 -58 -159t-154 -59q-95 0 -153 57.5t-58 155.5q0 67 26.5 116.5zM374 108.5q44 35.5 44 97.5t-44 97t-120 35q-75 0 -119.5 -37t-44.5 -100q0 -59 44.5 -93.5t119.5 -34.5q76 0 120 35.5z
" />
    <glyph glyph-name="zero.numr.ss04" horiz-adv-x="509" 
d="M69.5 636.5q26.5 49.5 74.5 76t110 26.5q97 0 154.5 -56.5t57.5 -157.5q0 -100 -58 -159t-154 -59q-95 0 -153 57.5t-58 155.5q0 67 26.5 116.5zM374 427.5q44 35.5 44 97.5t-44 97t-120 35q-75 0 -119.5 -37t-44.5 -100q0 -59 44.5 -93.5t119.5 -34.5q76 0 120 35.5z
" />
    <glyph glyph-name="uni2070.ss04" horiz-adv-x="509" 
d="M69.5 692.5q26.5 49.5 74.5 76t110 26.5q97 0 154.5 -56.5t57.5 -157.5q0 -100 -58 -159t-154 -59q-95 0 -153 57.5t-58 155.5q0 67 26.5 116.5zM374 483.5q44 35.5 44 97.5t-44 97t-120 35q-75 0 -119.5 -37t-44.5 -100q0 -59 44.5 -93.5t119.5 -34.5q76 0 120 35.5z
" />
    <glyph glyph-name="uni2080.ss04.zero" horiz-adv-x="509" 
d="M408.5 295.5q57.5 -56.5 57.5 -157.5q0 -100 -58 -159t-154 -59q-95 0 -153 57.5t-58 155.5q0 67 26.5 116.5t74.5 76t110 26.5q97 0 154.5 -56.5zM144 33l174 229q-30 8 -64 8q-75 0 -119.5 -37t-44.5 -100q0 -65 54 -100zM374 40.5q44 35.5 44 97.5q0 34 -14 60.5
t-41 43.5l-173 -229q32 -8 64 -8q76 0 120 35.5z" />
    <glyph glyph-name="zero.dnom.ss04.zero" horiz-adv-x="509" 
d="M408.5 363.5q57.5 -56.5 57.5 -157.5q0 -100 -58 -159t-154 -59q-95 0 -153 57.5t-58 155.5q0 67 26.5 116.5t74.5 76t110 26.5q97 0 154.5 -56.5zM144 101l174 229q-30 8 -64 8q-75 0 -119.5 -37t-44.5 -100q0 -65 54 -100zM374 108.5q44 35.5 44 97.5q0 34 -14 60.5
t-41 43.5l-173 -229q32 -8 64 -8q76 0 120 35.5z" />
    <glyph glyph-name="zero.numr.ss04.zero" horiz-adv-x="509" 
d="M408.5 682.5q57.5 -56.5 57.5 -157.5q0 -100 -58 -159t-154 -59q-95 0 -153 57.5t-58 155.5q0 67 26.5 116.5t74.5 76t110 26.5q97 0 154.5 -56.5zM144 420l174 229q-30 8 -64 8q-75 0 -119.5 -37t-44.5 -100q0 -65 54 -100zM374 427.5q44 35.5 44 97.5q0 34 -14 60.5
t-41 43.5l-173 -229q32 -8 64 -8q76 0 120 35.5z" />
    <glyph glyph-name="uni2070.ss04.zero" horiz-adv-x="509" 
d="M408.5 738.5q57.5 -56.5 57.5 -157.5q0 -100 -58 -159t-154 -59q-95 0 -153 57.5t-58 155.5q0 67 26.5 116.5t74.5 76t110 26.5q97 0 154.5 -56.5zM144 476l174 229q-30 8 -64 8q-75 0 -119.5 -37t-44.5 -100q0 -65 54 -100zM374 483.5q44 35.5 44 97.5q0 34 -14 60.5
t-41 43.5l-173 -229q32 -8 64 -8q76 0 120 35.5z" />
    <glyph glyph-name="uni00B9.tf" 
d="M151 375l34 73v215l-89 38l183 94v-355l55 -65h-183z" />
    <glyph glyph-name="uni00B2.tf" 
d="M96 375l128 107q63 54 89.5 96t26.5 88q0 40 -19 61.5t-56 21.5t-57.5 -21.5t-20.5 -60.5q0 -29 -10.5 -44t-29.5 -15t-29 14t-10 40q0 60 45 96.5t121 36.5q73 0 117 -36t44 -96q0 -47 -32 -87.5t-107 -92.5l-40 -29h190v-79h-350z" />
    <glyph glyph-name="uni00B3.tf" 
d="M217 606q134 0 134 77q0 31 -21 47.5t-59 16.5q-74 0 -76 -62q-1 -22 -10 -31.5t-29 -9.5t-29.5 10t-9.5 32q0 49 43 79t117 30q71 0 113.5 -27.5t42.5 -74.5q0 -36 -25 -62.5t-68 -37.5q60 -8 93.5 -35.5t33.5 -70.5q0 -55 -53 -89.5t-138 -34.5q-79 0 -129.5 31
t-50.5 80q0 21 11 32.5t31 11.5q18 0 27.5 -10t12.5 -32q4 -35 24 -50.5t62 -15.5q52 0 80.5 21t28.5 57q0 40 -37.5 58t-118.5 18v42z" />
    <glyph glyph-name="onehalf.tf" 
d="M99 344l39 84v181l-86 34l162 96v-325l60 -70h-175zM115 -12l-39 29l536 722l39 -29zM377 0l111 98q54 49 77.5 88.5t23.5 82.5q0 72 -62 72q-31 0 -47.5 -19t-17.5 -53q0 -28 -10 -42t-28 -14q-35 0 -35 53q0 54 38.5 88t103.5 34q64 0 102 -33t38 -87
q0 -42 -28.5 -81.5t-100.5 -96.5l-22 -19h162v-71h-305z" />
    <glyph glyph-name="uni2153.tf" 
d="M99 352l39 84v173l-86 34l162 96v-317l60 -70h-175zM106 -12l-39 29l535 722l40 -29zM484 218q109 0 109 67q0 27 -16.5 43t-45.5 16q-28 0 -43.5 -14.5t-17.5 -41.5q-1 -39 -36 -39q-34 0 -34 41q0 45 36.5 73t96.5 28q59 0 95 -26.5t36 -69.5q0 -33 -21.5 -57
t-58.5 -34q46 -8 70.5 -32.5t24.5 -64.5q0 -52 -42 -85.5t-108 -33.5q-62 0 -102 29t-40 75q0 44 39 44q17 0 25.5 -10t12.5 -34q3 -31 15.5 -44t40.5 -13q37 0 57 19t20 53q0 36 -26.5 52.5t-86.5 16.5v42z" />
    <glyph glyph-name="uni2154.tf" 
d="M32 352l111 98q54 49 78 89t24 82q0 72 -62 72q-32 0 -48.5 -19t-16.5 -53q-1 -56 -38 -56q-36 0 -36 52q0 55 38.5 88.5t103.5 33.5q64 0 102.5 -32.5t38.5 -86.5q0 -42 -29 -81.5t-101 -97.5l-22 -18h161v-71h-304zM133 -12l-39 29l536 722l39 -29zM484 218
q109 0 109 67q0 27 -16.5 43t-45.5 16q-28 0 -43.5 -14.5t-17.5 -41.5q-1 -39 -36 -39q-34 0 -34 41q0 45 36.5 73t96.5 28q59 0 95 -26.5t36 -69.5q0 -33 -21.5 -57t-58.5 -34q46 -8 70.5 -32.5t24.5 -64.5q0 -52 -42 -85.5t-108 -33.5q-62 0 -102 29t-40 75q0 44 39 44
q17 0 25.5 -10t12.5 -34q3 -31 15.5 -44t40.5 -13q37 0 57 19t20 53q0 36 -26.5 52.5t-86.5 16.5v42z" />
    <glyph glyph-name="onequarter.tf" 
d="M99 344l39 84v181l-86 34l162 96v-325l60 -70h-175zM117 -12l-39 29l536 722l39 -29zM484 0l39 84v14h-203l208 283h71v-236h83v-47h-83v-28l60 -70h-175zM523 145v147l-109 -147h109z" />
    <glyph glyph-name="threequarters.tf" 
d="M150 567q109 0 109 66q0 28 -17 43.5t-46 15.5q-28 0 -43.5 -14t-16.5 -41q-3 -39 -36 -39q-35 0 -35 40q0 46 36.5 73.5t96.5 27.5q59 0 95.5 -26t36.5 -69q0 -33 -21.5 -57t-59.5 -34q46 -8 71 -33t25 -64q0 -52 -42 -85.5t-109 -33.5q-62 0 -102 29t-40 74
q0 22 10.5 33.5t29.5 11.5q17 0 25.5 -10t11.5 -34q4 -31 16.5 -44t40.5 -13q36 0 56.5 18.5t20.5 52.5q0 37 -27 53.5t-86 16.5v42zM137 -12l-39 29l536 722l39 -29zM484 0l39 84v14h-203l208 283h71v-236h83v-47h-83v-28l60 -70h-175zM523 145v147l-109 -147h109z" />
    <glyph glyph-name="oneeighth.tf" 
d="M99 352l39 84v173l-86 34l162 96v-317l60 -70h-175zM110 -12l-39 29l535 722l40 -29zM381 264q0 53 38.5 85.5t101.5 32.5q60 0 98.5 -29t38.5 -76q0 -49 -48 -79q65 -30 65 -94q0 -54 -42.5 -85t-117.5 -31q-71 0 -111 29t-40 79q0 60 56 87q-39 30 -39 81zM597 270
q0 31 -21 48t-59 17q-34 0 -52.5 -13.5t-18.5 -39.5q0 -27 25.5 -41.5t98.5 -26.5q27 18 27 56zM430 104q0 -68 92 -68q85 0 85 51q0 18 -12.5 29.5t-44.5 21.5t-93 22q-27 -16 -27 -56z" />
    <glyph glyph-name="threeeighths.tf" 
d="M150 569q109 0 109 67q0 27 -17 43t-46 16q-28 0 -43 -14.5t-17 -41.5q-3 -39 -36 -39q-35 0 -35 41q0 45 36.5 73t96.5 28q59 0 95.5 -26.5t36.5 -69.5q0 -33 -21.5 -57t-59.5 -34q46 -8 71 -32.5t25 -64.5q0 -52 -42 -85.5t-109 -33.5q-62 0 -102 29t-40 75
q0 21 10.5 32.5t29.5 11.5q17 0 25.5 -10t11.5 -34q4 -31 16.5 -43.5t40.5 -12.5q36 0 56.5 18.5t20.5 52.5q0 36 -27 52.5t-86 16.5v42zM117 -12l-39 29l536 722l39 -29zM381 264q0 53 38.5 85.5t101.5 32.5q60 0 98.5 -29t38.5 -76q0 -49 -48 -79q65 -30 65 -94
q0 -54 -42.5 -85t-117.5 -31q-71 0 -111 29t-40 79q0 60 56 87q-39 30 -39 81zM597 270q0 31 -21 48t-59 17q-34 0 -52.5 -13.5t-18.5 -39.5q0 -27 25.5 -41.5t98.5 -26.5q27 18 27 56zM430 104q0 -68 92 -68q85 0 85 51q0 18 -12.5 29.5t-44.5 21.5t-93 22q-27 -16 -27 -56
z" />
    <glyph glyph-name="fiveeighths.tf" 
d="M110 -12l-39 29l535 722l40 -29zM78 725h248v-74h-201v-93q37 17 88 17q62 0 97 -30t35 -82q0 -59 -43.5 -95t-114.5 -36q-63 0 -103.5 28t-40.5 72q0 20 10 31.5t29 11.5q34 0 38 -41q3 -28 20 -43t46 -15q36 0 56.5 20.5t20.5 56.5q0 38 -22.5 58.5t-65.5 20.5
q-27 0 -55 -9h-42v202zM381 264q0 53 38.5 85.5t101.5 32.5q60 0 98.5 -29t38.5 -76q0 -49 -48 -79q65 -30 65 -94q0 -54 -42.5 -85t-117.5 -31q-71 0 -111 29t-40 79q0 60 56 87q-39 30 -39 81zM597 270q0 31 -21 48t-59 17q-34 0 -52.5 -13.5t-18.5 -39.5
q0 -27 25.5 -41.5t98.5 -26.5q27 18 27 56zM430 104q0 -68 92 -68q85 0 85 51q0 18 -12.5 29.5t-44.5 21.5t-93 22q-27 -16 -27 -56z" />
    <glyph glyph-name="seveneighths.tf" 
d="M92 -12l-39 29l536 722l39 -29zM77 722h314q-76 -99 -126.5 -197t-66.5 -181h-94q21 75 78 165.5t113 136.5h-218v76zM381 264q0 53 38.5 85.5t101.5 32.5q60 0 98.5 -29t38.5 -76q0 -49 -48 -79q65 -30 65 -94q0 -54 -42.5 -85t-117.5 -31q-71 0 -111 29t-40 79
q0 60 56 87q-39 30 -39 81zM597 270q0 31 -21 48t-59 17q-34 0 -52.5 -13.5t-18.5 -39.5q0 -27 25.5 -41.5t98.5 -26.5q27 18 27 56zM430 104q0 -68 92 -68q85 0 85 51q0 18 -12.5 29.5t-44.5 21.5t-93 22q-27 -16 -27 -56z" />
    <glyph glyph-name="uni00B9.tosf" 
d="M140 197l34 74v194l-88 37l183 95v-335l56 -65h-185z" />
    <glyph glyph-name="uni00B2.tosf" 
d="M219 304q60 51 86 91.5t26 81.5q0 36 -18 55t-53 19q-38 0 -58 -22t-20 -60q0 -29 -10.5 -44t-29.5 -15t-29.5 14t-10.5 40q0 38 21.5 68t59.5 47.5t86 17.5q70 0 113.5 -34.5t43.5 -89.5q0 -40 -31 -78t-112 -94l-36 -27h191v-77h-348z" />
    <glyph glyph-name="uni00B3.tosf" 
d="M204 419q68 0 101 17t33 53q0 29 -21 45t-59 16q-74 0 -76 -62q-1 -22 -10.5 -32t-28.5 -10q-20 0 -29.5 10.5t-9.5 32.5q0 49 43 78.5t117 29.5q71 0 113.5 -27.5t42.5 -71.5q0 -35 -25 -59t-68 -34q56 -8 87 -34.5t31 -67.5q0 -53 -49.5 -85.5t-131.5 -32.5
q-80 0 -130.5 31t-50.5 80q0 21 11 32.5t31 11.5q18 0 27 -10t12 -33q4 -35 24 -49.5t62 -14.5q50 0 76 18.5t26 52.5q0 39 -35 55.5t-113 16.5v43z" />
    <glyph glyph-name="onehalf.tosf" 
d="M101 210l29 62v156l-70 36l142 84v-279l50 -59h-151zM189 -12l-40 27l369 532l40 -26zM396 0l104 86q59 50 80 80t21 64q0 31 -15 48t-42 17q-26 0 -40 -17t-15 -48q0 -52 -35 -52q-17 0 -26.5 13t-9.5 39q0 49 35.5 79.5t95.5 30.5q59 0 94 -29t35 -76
q0 -41 -29.5 -78.5t-97.5 -84.5l-12 -8h142v-64h-285z" />
    <glyph glyph-name="uni2153.tosf" 
d="M102 210l29 62v156l-71 36l142 84v-279l51 -59h-151zM190 -12l-39 27l369 532l39 -26zM503 181q100 0 100 59q0 26 -16.5 41t-44.5 15q-25 0 -38.5 -13t-17.5 -40q-3 -19 -11 -27t-22 -8q-34 0 -34 39q0 42 34 68t92 26q56 0 90 -26t34 -69q0 -60 -62 -79q36 -8 57 -30
t21 -54q0 -43 -37.5 -69t-100.5 -26q-61 0 -100 25t-39 65t38 40q14 0 22.5 -7.5t12.5 -24.5q5 -27 21 -39.5t44 -12.5q29 0 45.5 13.5t16.5 37.5q0 29 -24.5 41.5t-80.5 12.5v42z" />
    <glyph glyph-name="uni2154.tosf" 
d="M33 210l103 86q49 41 69.5 73.5t20.5 69.5q0 31 -14.5 48t-40.5 17t-40 -17.5t-14 -48.5q-1 -52 -36 -52q-17 0 -26.5 13.5t-9.5 39.5q0 49 35 79t95 30q59 0 93.5 -28.5t34.5 -76.5q0 -40 -27.5 -77.5t-88.5 -82.5l-14 -9h126v-64h-266zM216 -12l-39 27l369 532l40 -26z
M512 181q99 0 99 59q0 26 -16 41t-44 15q-25 0 -38 -13t-17 -39q-3 -19 -11 -27.5t-22 -8.5q-34 0 -34 39q0 42 34 68t90 26t90 -26t34 -69q0 -30 -16.5 -50t-46.5 -29q37 -8 58 -30t21 -54q0 -43 -37 -69t-100 -26q-61 0 -99.5 25t-38.5 65t38 40q15 0 23 -7.5t12 -25.5
q5 -26 20.5 -38.5t43.5 -12.5q29 0 45 13.5t16 37.5q0 28 -24.5 41t-79.5 13v42z" />
    <glyph glyph-name="onequarter.tosf" 
d="M102 210l29 62v156l-71 36l142 84v-279l51 -59h-151zM190 -12l-39 27l369 532l40 -26zM491 0l29 62v22h-173l174 226h73v-181h83v-45h-83v-25l51 -59h-154zM520 129v106l-83 -106h83z" />
    <glyph glyph-name="threequarters.tosf" 
d="M148 388q50 1 74.5 15.5t24.5 44.5q0 26 -16.5 40.5t-44.5 14.5q-25 0 -38.5 -12.5t-17.5 -39.5q-3 -19 -10.5 -27t-22.5 -8q-34 0 -34 39q0 42 34 67.5t92 25.5q56 0 90 -26t34 -69q0 -29 -16 -49.5t-46 -28.5q36 -8 57 -30.5t21 -53.5q0 -43 -37.5 -69t-100.5 -26
q-62 0 -100.5 25t-38.5 65t38 40q15 0 22.5 -7.5t12.5 -24.5q5 -27 21 -40t44 -13q29 0 45.5 13.5t16.5 38.5q0 28 -24 40.5t-80 13.5v41zM223 -12l-39 27l369 532l39 -26zM491 0l29 62v22h-173l174 226h73v-181h83v-45h-83v-25l51 -59h-154zM520 129v106l-83 -106h83z" />
    <glyph glyph-name="oneeighth.tosf" horiz-adv-x="739" 
d="M102 210l29 62v156l-71 36l142 84v-279l51 -59h-151zM192 -12l-39 27l369 532l40 -26zM446 12q-37 24 -37 65q0 49 56 76q-37 27 -37 72q0 44 32.5 69.5t87.5 25.5q53 0 86 -23t33 -61q0 -39 -36 -63q56 -30 56 -88q0 -46 -36.5 -71.5t-102.5 -25.5q-65 0 -102 24z
M607 227q0 23 -16 36t-46 13q-26 0 -39.5 -9t-13.5 -26q0 -20 23 -32.5t75 -19.5q17 13 17 38zM547 33q36 0 54.5 10.5t18.5 29.5q0 21 -24.5 34t-85.5 25q-36 -12 -36 -47q0 -52 73 -52z" />
    <glyph glyph-name="threeeighths.tosf" horiz-adv-x="739" 
d="M148 388q50 1 74.5 15.5t24.5 44.5q0 26 -16.5 40.5t-44.5 14.5q-25 0 -38.5 -12.5t-17.5 -39.5q-3 -19 -10.5 -27t-22.5 -8q-34 0 -34 39q0 42 34 67.5t92 25.5q56 0 90 -26t34 -69q0 -29 -16 -49.5t-46 -28.5q36 -8 57 -30.5t21 -53.5q0 -43 -37.5 -69t-100.5 -26
q-62 0 -100.5 25t-38.5 65t38 40q15 0 22.5 -7.5t12.5 -24.5q5 -27 21 -40t44 -13q29 0 45.5 13.5t16.5 38.5q0 28 -24 40.5t-80 13.5v41zM217 -12l-39 27l369 532l39 -26zM446 12q-37 24 -37 65q0 49 56 76q-37 27 -37 72q0 44 32.5 69.5t87.5 25.5q53 0 86 -23t33 -61
q0 -39 -36 -63q56 -30 56 -88q0 -46 -36.5 -71.5t-102.5 -25.5q-65 0 -102 24zM607 227q0 23 -16 36t-46 13q-26 0 -39.5 -9t-13.5 -26q0 -20 23 -32.5t75 -19.5q17 13 17 38zM547 33q36 0 54.5 10.5t18.5 29.5q0 21 -24.5 34t-85.5 25q-36 -12 -36 -47q0 -52 73 -52z" />
    <glyph glyph-name="fiveeighths.tosf" horiz-adv-x="739" 
d="M211 -12l-40 27l369 532l40 -26zM75 533h225v-69h-180v-67q43 17 82 17q53 0 86 -27.5t33 -73.5q0 -52 -40.5 -85t-106.5 -33q-58 0 -95.5 25t-37.5 65q0 19 10 30.5t28 11.5q30 0 37 -38q7 -49 60 -49q32 0 50 17t18 45q0 30 -20.5 46t-57.5 16q-31 0 -51 -9h-40v178z
M446 12q-37 24 -37 65q0 49 56 76q-37 27 -37 72q0 44 32.5 69.5t87.5 25.5q53 0 86 -23t33 -61q0 -39 -36 -63q56 -30 56 -88q0 -46 -36.5 -71.5t-102.5 -25.5q-65 0 -102 24zM515 208.5q23 -12.5 75 -19.5q17 13 17 38q0 23 -16 36t-46 13q-26 0 -39.5 -9t-13.5 -26
q0 -20 23 -32.5zM547 33q36 0 54.5 10.5t18.5 29.5q0 21 -24.5 34t-85.5 25q-36 -12 -36 -47q0 -52 73 -52z" />
    <glyph glyph-name="seveneighths.tosf" horiz-adv-x="739" 
d="M191 -12l-40 27l369 532l40 -26zM98 533h298q-84 -83 -126 -160.5t-54 -169.5h-87q14 80 55.5 148t102.5 111h-189v71zM446 12q-37 24 -37 65q0 49 56 76q-37 27 -37 72q0 44 32.5 69.5t87.5 25.5q53 0 86 -23t33 -61q0 -39 -36 -63q56 -30 56 -88q0 -46 -36.5 -71.5
t-102.5 -25.5q-65 0 -102 24zM515 208.5q23 -12.5 75 -19.5q17 13 17 38q0 23 -16 36t-46 13q-26 0 -39.5 -9t-13.5 -26q0 -20 23 -32.5zM547 33q36 0 54.5 10.5t18.5 29.5q0 21 -24.5 34t-85.5 25q-36 -12 -36 -47q0 -52 73 -52z" />
    <glyph glyph-name="uni2080.zero" horiz-adv-x="524" 
d="M101.5 -22q-58.5 58 -58.5 159q0 100 58.5 157.5t160.5 57.5q103 0 161 -56t58 -157q0 -102 -58.5 -160.5t-160.5 -58.5t-160.5 58zM337 278q-31 25 -75 25q-59 0 -91.5 -43.5t-32.5 -122.5q0 -56 22 -94zM262 -31q59 0 91.5 44.5t32.5 125.5q0 59 -22 94l-178 -236
q31 -28 76 -28z" />
    <glyph glyph-name="zero.dnom.zero" horiz-adv-x="524" 
d="M101.5 46q-58.5 58 -58.5 159q0 100 58.5 157.5t160.5 57.5q103 0 161 -56t58 -157q0 -102 -58.5 -160.5t-160.5 -58.5t-160.5 58zM337 346q-31 25 -75 25q-59 0 -91.5 -43.5t-32.5 -122.5q0 -56 22 -94zM262 37q59 0 91.5 44.5t32.5 125.5q0 59 -22 94l-178 -236
q31 -28 76 -28z" />
    <glyph glyph-name="zero.numr.zero" horiz-adv-x="524" 
d="M101.5 365q-58.5 58 -58.5 159q0 100 58.5 157.5t160.5 57.5q103 0 161 -56t58 -157q0 -102 -58.5 -160.5t-160.5 -58.5t-160.5 58zM337 665q-31 25 -75 25q-59 0 -91.5 -43.5t-32.5 -122.5q0 -56 22 -94zM262 356q59 0 91.5 44.5t32.5 125.5q0 59 -22 94l-178 -236
q31 -28 76 -28z" />
    <glyph glyph-name="uni2070.zero" horiz-adv-x="524" 
d="M101.5 421q-58.5 58 -58.5 159q0 100 58.5 157.5t160.5 57.5q103 0 161 -56t58 -157q0 -102 -58.5 -160.5t-160.5 -58.5t-160.5 58zM337 721q-31 25 -75 25q-59 0 -91.5 -43.5t-32.5 -122.5q0 -56 22 -94zM262 412q59 0 91.5 44.5t32.5 125.5q0 59 -22 94l-178 -236
q31 -28 76 -28z" />
    <glyph glyph-name="period" unicode="." horiz-adv-x="258" 
d="M88 10q-16 16 -16 41t16 41.5t41 16.5t41 -16.5t16 -41.5t-16 -41t-41 -16t-41 16z" />
    <glyph glyph-name="comma" unicode="," horiz-adv-x="263" 
d="M66 -128q32 22 50.5 56t16.5 68h-13q-25 0 -42 16.5t-17 40.5q0 23 17 40t42 17q31 0 51 -25.5t20 -64.5q0 -48 -31.5 -92.5t-83.5 -69.5z" />
    <glyph glyph-name="colon" unicode=":" horiz-adv-x="258" 
d="M88 413q-16 16 -16 41t16 41.5t41 16.5t41 -16.5t16 -41.5t-16 -41t-41 -16t-41 16zM88 10q-16 16 -16 41t16 41.5t41 16.5t41 -16.5t16 -41.5t-16 -41t-41 -16t-41 16z" />
    <glyph glyph-name="semicolon" unicode=";" horiz-adv-x="274" 
d="M76 -128q32 22 50.5 56t16.5 68h-13q-25 0 -42 16.5t-17 40.5q0 23 17 40t42 17q31 0 51 -25.5t20 -64.5q0 -48 -31.5 -92.5t-83.5 -69.5zM88 413q-16 16 -16 41t16 41.5t41 16.5t41 -16.5t16 -41.5t-16 -41t-41 -16t-41 16z" />
    <glyph glyph-name="ellipsis" unicode="&#x2026;" horiz-adv-x="744" 
d="M88 10q-16 16 -16 41t16 41.5t41 16.5t41 -16.5t16 -41.5t-16 -41t-41 -16t-41 16zM339 10q-16 16 -16 41t16 41.5t41 16.5t41 -16.5t16 -41.5t-16 -41t-41 -16t-41 16zM590 10q-16 16 -16 41t16 41.5t41 16.5t41 -16.5t16 -41.5t-16 -41t-41 -16t-41 16z" />
    <glyph glyph-name="exclam" unicode="!" horiz-adv-x="230" 
d="M72 725h105l-47 -560h-11zM83.5 10q-16.5 16 -16.5 41t16.5 41.5t41.5 16.5t40.5 -16t15.5 -42q0 -25 -15.5 -41t-40.5 -16t-41.5 16z" />
    <glyph glyph-name="exclamdown" unicode="&#xa1;" horiz-adv-x="230" 
d="M146.5 532q16.5 -16 16.5 -41q0 -26 -16.5 -42.5t-41.5 -16.5t-41 16.5t-16 42.5q0 25 16 41t41 16t41.5 -16zM158 -183h-105l47 560h11z" />
    <glyph glyph-name="question" unicode="?" horiz-adv-x="385" 
d="M149 418q66 1 103 34.5t37 90.5q0 53 -32 82t-85 29q-23 0 -59 -9q-23 -7 -37 -7q-23 0 -37 12t-14 32q0 27 25.5 42t73.5 15q62 0 112.5 -24t79.5 -67t29 -96q0 -66 -42.5 -113.5t-106.5 -56.5v-194h-47v230zM131 10q-16 16 -16 41t16 41.5t41 16.5t41 -16t16 -42
q0 -25 -16 -41t-41 -16t-41 16z" />
    <glyph glyph-name="questiondown" unicode="&#xbf;" horiz-adv-x="385" 
d="M254 532q16 -16 16 -41q0 -26 -16 -42.5t-41 -16.5t-41 16.5t-16 42.5q0 25 16 41t41 16t41 -16zM236 108q-66 -1 -103 -36t-37 -94q0 -55 31.5 -86t85.5 -31q23 0 59 9q23 7 37 7q23 0 37 -12t14 -32q0 -28 -26 -42.5t-73 -14.5q-62 0 -112.5 25t-79.5 69t-29 99
q0 67 42 116.5t107 58.5v204h47v-240z" />
    <glyph glyph-name="periodcentered" unicode="&#xb7;" horiz-adv-x="255" 
d="M87 288q-16 16 -16 41t16 41.5t41 16.5t41 -16.5t16 -41.5t-16 -41t-41 -16t-41 16z" />
    <glyph glyph-name="bullet" unicode="&#x2022;" horiz-adv-x="359" 
d="M261.5 398q32.5 -33 32.5 -82t-32.5 -82t-80.5 -33q-49 0 -82.5 33t-33.5 82t33.5 82t82.5 33q48 0 80.5 -33z" />
    <glyph glyph-name="asterisk" unicode="*" horiz-adv-x="449" 
d="M175 760h98l-48 -185zM34 585l30 94l161 -104zM386 679l30 -94l-191 -10zM155 396l-79 58l149 121zM373 454l-79 -58l-69 179z" />
    <glyph glyph-name="numbersign" unicode="#" horiz-adv-x="622" 
d="M140 246l46 233h-106v48h116l38 198h50l-39 -198h197l38 198h50l-39 -198h102v-48h-111l-46 -233h107v-48h-117l-38 -198h-50l39 198h-197l-38 -198h-50l39 198h-101v48h110zM386 246l46 233h-196l-46 -233h196z" />
    <glyph glyph-name="slash" unicode="/" horiz-adv-x="278" 
d="M58 -260h-48l210 1070h48z" />
    <glyph glyph-name="backslash" unicode="\" horiz-adv-x="278" 
d="M58 810l210 -1070h-48l-210 1070h48z" />
    <glyph glyph-name="exclamdown.case" horiz-adv-x="230" 
d="M146.5 714q16.5 -16 16.5 -41t-16.5 -41.5t-41.5 -16.5t-41 16.5t-16 41.5t16 41t41 16t41.5 -16zM158 -1h-105l47 560h11z" />
    <glyph glyph-name="questiondown.case" horiz-adv-x="383" 
d="M252.5 723q16.5 -16 16.5 -41t-16.5 -41.5t-41.5 -16.5t-41 16.5t-16 41.5t16 41t41 16t41.5 -16zM235 316q-66 -1 -103 -35t-37 -91q0 -53 32 -82t85 -29q26 0 58 10q23 7 38 7q23 0 37 -12.5t14 -32.5q0 -27 -25.5 -42t-73.5 -15q-62 0 -112.5 24t-79.5 67t-29 96
q0 67 42 114t107 56v194h47v-229z" />
    <glyph glyph-name="bullet.case" horiz-adv-x="359" 
d="M261.5 444q32.5 -33 32.5 -82t-32.5 -82t-80.5 -33q-49 0 -82.5 33t-33.5 82t33.5 82t82.5 33q48 0 80.5 -33z" />
    <glyph glyph-name="slash.case" horiz-adv-x="244" 
d="M58 -85h-48l176 895h48z" />
    <glyph glyph-name="backslash.case" horiz-adv-x="244" 
d="M58 810l176 -895h-48l-176 895h48z" />
    <glyph glyph-name="numbersign.osf" horiz-adv-x="622" 
d="M148 182l44 165h-112v49h125l37 134h49l-36 -134h181l37 134h49l-36 -134h107v-49h-120l-44 -165h114v-49h-127l-36 -133h-49l35 133h-181l-36 -133h-49l36 133h-106v49h118zM379 182l44 165h-181l-44 -165h181z" />
    <glyph glyph-name="exclam.ss05" horiz-adv-x="243" 
d="M112 724l100 -17l-89 -544h-11v561zM147.5 92.5q16.5 -16.5 16.5 -41.5q0 -24 -16.5 -40.5t-40.5 -16.5q-25 0 -41.5 16.5t-16.5 40.5q0 25 16.5 41.5t41.5 16.5q24 0 40.5 -16.5z" />
    <glyph glyph-name="exclamdown.ss05" horiz-adv-x="254" 
d="M107 449q-16 17 -16 41q0 25 16 41t40 16q25 0 41.5 -16t16.5 -41q0 -24 -16.5 -41t-41.5 -17q-24 0 -40 17zM142 -183l-100 17l89 544h11v-561z" />
    <glyph glyph-name="exclamdown.case.ss05" horiz-adv-x="254" 
d="M93 632.5q-16 16.5 -16 41.5q0 24 16 40.5t41 16.5q24 0 40.5 -16.5t16.5 -40.5q0 -25 -16.5 -41.5t-40.5 -16.5q-25 0 -41 16.5zM129 1l-101 17l89 544h12v-561z" />
    <glyph glyph-name="ellipsis.ss06" horiz-adv-x="758" 
d="M578.5 11.5q-17.5 17.5 -17.5 45.5t17.5 46t45.5 18t45.5 -18t17.5 -46t-17.5 -45.5t-45.5 -17.5t-45.5 17.5zM325 9q-15 15 -15 40q0 26 15 41.5t40 15.5t40.5 -15.5t15.5 -41.5q0 -25 -15.5 -40t-40.5 -15t-40 15zM85 8.5q-13 13.5 -13 35.5q0 23 13 36.5t35 13.5
t35.5 -14t13.5 -36t-13.5 -35.5t-35.5 -13.5t-35 13.5z" />
    <glyph glyph-name="ellipsis.ss07" horiz-adv-x="758" 
d="M89 11q-17 18 -17 46t17 46t45 18t45.5 -18t17.5 -46t-17.5 -46t-45.5 -18t-45 18zM352.5 9q-15.5 15 -15.5 40t15.5 41t40.5 16t40 -15.5t15 -41.5q0 -25 -15 -40t-40 -15t-40.5 15zM602.5 8.5q-13.5 13.5 -13.5 35.5t13.5 36t35.5 14t35.5 -14t13.5 -36t-13.5 -35.5
t-35.5 -13.5t-35.5 13.5z" />
    <glyph glyph-name="numbersign.tf" 
d="M198 246l46 233h-106v48h116l38 198h50l-39 -198h197l38 198h50l-39 -198h102v-48h-111l-46 -233h107v-48h-117l-38 -198h-50l39 198h-197l-38 -198h-50l39 198h-101v48h110zM444 246l46 233h-196l-46 -233h196z" />
    <glyph glyph-name="numbersign.tosf" 
d="M207 182l44 165h-115v49h128l36 134h50l-36 -134h181l36 134h50l-37 -134h105v-49h-117l-44 -165h115v-49h-128l-36 -133h-50l36 133h-181l-36 -133h-50l36 133h-104v49h117zM438 182l44 165h-181l-44 -165h181z" />
    <glyph glyph-name="parenleft" unicode="(" horiz-adv-x="309" 
d="M289 824l12 -12q-85 -100 -125 -231t-40 -306q0 -174 40 -302t125 -227l-12 -12q-118 96 -176 230.5t-58 310.5q0 359 234 549z" />
    <glyph glyph-name="parenright" unicode=")" horiz-adv-x="309" 
d="M196 -35.5q-58 -134.5 -176 -230.5l-13 12q86 99 126 227t40 302q0 175 -40.5 306.5t-125.5 230.5l13 12q234 -190 234 -549q0 -176 -58 -310.5z" />
    <glyph glyph-name="braceleft" unicode="{" horiz-adv-x="285" 
d="M91.5 219.5q-19.5 32.5 -60.5 54.5q81 44 81 134q0 26 -5.5 58t-7.5 41q-15 69 -15 112q0 73 36.5 125t103.5 76l12 -12q-35 -20 -55.5 -63t-20.5 -98q0 -32 6 -68.5t7 -42.5q13 -67 13 -104q0 -57 -27 -95t-84 -63q57 -25 84 -62t27 -91q0 -23 -5 -52.5t-11 -57.5
q-17 -72 -17 -113q0 -52 22.5 -94.5t60.5 -64.5l-12 -12q-67 24 -103.5 75.5t-36.5 124.5q0 43 15 112q2 9 7.5 42t5.5 60q-1 46 -20.5 78.5z" />
    <glyph glyph-name="braceright" unicode="}" horiz-adv-x="285" 
d="M178.5 81q5.5 -33 7.5 -42q15 -69 15 -112q0 -73 -36.5 -124.5t-103.5 -75.5l-12 12q38 22 60.5 64.5t22.5 94.5q0 41 -17 113q-6 28 -11 57.5t-5 52.5q0 54 27 91t84 62q-57 25 -84 63t-27 95q0 37 13 104q1 6 7 42.5t6 68.5q0 55 -20.5 98t-55.5 63l12 12
q67 -24 103.5 -76t36.5 -125q0 -43 -15 -112q-2 -9 -7.5 -41t-5.5 -58q0 -90 81 -134q-41 -22 -60.5 -54.5t-20.5 -78.5q0 -27 5.5 -60z" />
    <glyph glyph-name="bracketleft" unicode="[" horiz-adv-x="272" 
d="M253 -268h-193v1078h193v-42h-122v-993h122v-43z" />
    <glyph glyph-name="bracketright" unicode="]" horiz-adv-x="272" 
d="M141 -225v993h-122v42h193v-1078h-193v43h122z" />
    <glyph glyph-name="parenleft.case" horiz-adv-x="309" 
d="M111.5 631q56.5 112 177.5 194l12 -12q-86 -83 -126 -191t-40 -259q0 -154 39.5 -262t126.5 -190l-12 -12q-120 79 -177 191.5t-57 272.5q0 156 56.5 268z" />
    <glyph glyph-name="parenright.case" horiz-adv-x="309" 
d="M197 90.5q-57 -112.5 -177 -191.5l-13 12q88 82 127.5 190t39.5 262q0 152 -40 260t-127 190l13 12q121 -82 177.5 -194t56.5 -268q0 -160 -57 -272.5z" />
    <glyph glyph-name="braceleft.case" horiz-adv-x="281" 
d="M91.5 311q-18.5 28 -60.5 51q42 23 60.5 51t18.5 67q0 29 -13 79q-5 20 -9 42.5t-4 41.5q0 61 37 109t103 73l12 -12q-37 -24 -57 -61.5t-20 -82.5q0 -31 14 -87q13 -50 13 -79q0 -92 -113 -141q57 -25 85 -59.5t28 -80.5q0 -26 -14 -80q-6 -21 -10.5 -44t-4.5 -43
q0 -45 20 -82.5t59 -61.5l-12 -12q-66 26 -103 73t-37 108q0 25 6 52.5t7 32.5q13 50 13 80q0 38 -18.5 66z" />
    <glyph glyph-name="braceright.case" horiz-adv-x="281" 
d="M184 165q1 -5 7 -32.5t6 -52.5q0 -61 -36.5 -108.5t-103.5 -72.5l-12 12q39 25 59.5 62t20.5 82q0 20 -4.5 43t-10.5 44q-14 54 -14 80q0 47 27.5 81t85.5 59q-58 25 -85.5 59.5t-27.5 81.5q0 25 12 79q14 56 14 87q0 45 -19.5 82.5t-57.5 61.5l12 12q66 -25 103 -73
t37 -109q0 -19 -4 -41.5t-9 -42.5q-13 -50 -13 -79q0 -39 18.5 -67t60.5 -51q-42 -23 -60.5 -51t-18.5 -66q0 -30 13 -80z" />
    <glyph glyph-name="bracketleft.case" horiz-adv-x="272" 
d="M254 -85h-194v895h194v-42h-123v-811h123v-42z" />
    <glyph glyph-name="bracketright.case" horiz-adv-x="272" 
d="M19 810h193v-895h-193v42h122v811h-122v42z" />
    <glyph glyph-name="hyphen" unicode="-" horiz-adv-x="418" 
d="M349 347v-52h-279v52h279z" />
    <glyph glyph-name="uni00AD" unicode="&#xad;" horiz-adv-x="418" 
d="M349 347v-52h-279v52h279z" />
    <glyph glyph-name="endash" unicode="&#x2013;" horiz-adv-x="557" 
d="M507 347v-52h-457v52h457z" />
    <glyph glyph-name="emdash" unicode="&#x2014;" horiz-adv-x="1014" 
d="M965 347v-52h-915v52h915z" />
    <glyph glyph-name="underscore" unicode="_" horiz-adv-x="508" 
d="M469 -56v-49h-429v49h429z" />
    <glyph glyph-name="hyphen.case" horiz-adv-x="418" 
d="M349 397v-52h-279v52h279z" />
    <glyph glyph-name="uni00AD.case" horiz-adv-x="418" 
d="M349 397v-52h-279v52h279z" />
    <glyph glyph-name="endash.case" horiz-adv-x="557" 
d="M507 397v-52h-457v52h457z" />
    <glyph glyph-name="emdash.case" horiz-adv-x="1014" 
d="M965 397v-52h-915v52h915z" />
    <glyph glyph-name="quotesinglbase" unicode="&#x201a;" horiz-adv-x="264" 
d="M66 -128q32 22 50.5 56t16.5 68h-13q-25 0 -42 16.5t-17 40.5q0 23 17 40t42 17q31 0 51 -25.5t20 -64.5q0 -48 -31.5 -92.5t-83.5 -69.5z" />
    <glyph glyph-name="quotedblbase" unicode="&#x201e;" horiz-adv-x="424" 
d="M226 -128q32 22 50.5 56t16.5 68h-13q-25 0 -42 16.5t-17 40.5q0 23 17 40t42 17q31 0 51 -25.5t20 -64.5q0 -48 -31.5 -92.5t-83.5 -69.5zM66 -128q32 22 50.5 56t16.5 68h-13q-25 0 -42 16.5t-17 40.5q0 23 17 40t42 17q31 0 51 -25.5t20 -64.5q0 -48 -31.5 -92.5
t-83.5 -69.5z" />
    <glyph glyph-name="quotedblleft" unicode="&#x201c;" horiz-adv-x="424" 
d="M187 748q-33 -21 -51.5 -55.5t-16.5 -68.5h13q25 0 42 -16.5t17 -39.5q0 -24 -17 -40.5t-42 -16.5q-31 0 -51 25.5t-20 63.5q0 49 31.5 93t83.5 69zM347 748q-33 -21 -51.5 -55.5t-16.5 -68.5h13q25 0 42 -16.5t17 -39.5q0 -24 -17 -40.5t-42 -16.5q-31 0 -51 25.5
t-20 63.5q0 49 31.5 93t83.5 69z" />
    <glyph glyph-name="quotedblright" unicode="&#x201d;" horiz-adv-x="424" 
d="M226 525q32 22 50.5 56t16.5 68h-13q-25 0 -42 16.5t-17 40.5q0 23 17 40t42 17q31 0 51 -25.5t20 -64.5q0 -48 -31.5 -92.5t-83.5 -69.5zM66 525q32 22 50.5 56t16.5 68h-13q-25 0 -42 16.5t-17 40.5q0 23 17 40t42 17q31 0 51 -25.5t20 -64.5q0 -48 -31.5 -92.5
t-83.5 -69.5z" />
    <glyph glyph-name="quoteleft" unicode="&#x2018;" horiz-adv-x="264" 
d="M188 748q-33 -21 -51.5 -55.5t-16.5 -68.5h13q25 0 42 -16.5t17 -39.5q0 -24 -17 -40.5t-42 -16.5q-31 0 -50.5 25.5t-19.5 63.5q0 49 31 93t83 69z" />
    <glyph glyph-name="quoteright" unicode="&#x2019;" horiz-adv-x="264" 
d="M67 525q32 22 50.5 56t16.5 68h-13q-25 0 -42 16.5t-17 40.5q0 23 17 40t42 17q31 0 51 -25.5t20 -64.5q0 -48 -31.5 -92.5t-83.5 -69.5z" />
    <glyph glyph-name="guillemotleft" unicode="&#xab;" horiz-adv-x="508" 
d="M41 283l177 245l30 -19l-114 -226l114 -227l-30 -19zM243 283l177 245l30 -19l-114 -226l114 -227l-30 -19z" />
    <glyph glyph-name="guillemotright" unicode="&#xbb;" horiz-adv-x="508" 
d="M265 282l-176 -245l-30 19l113 226l-113 227l30 19zM467 282l-176 -245l-30 19l113 226l-113 227l30 19z" />
    <glyph glyph-name="guilsinglleft" unicode="&#x2039;" horiz-adv-x="306" 
d="M41 283l177 245l30 -19l-114 -226l114 -227l-30 -19z" />
    <glyph glyph-name="guilsinglright" unicode="&#x203a;" horiz-adv-x="306" 
d="M59 56l113 227l-113 226l30 19l176 -245l-176 -246z" />
    <glyph glyph-name="quotedbl" unicode="&#x22;" horiz-adv-x="350" 
d="M50 760h107l-53 -234zM194 760h107l-53 -234z" />
    <glyph glyph-name="quotesingle" unicode="'" horiz-adv-x="207" 
d="M50 760h107l-53 -234z" />
    <glyph glyph-name="guillemotleft.case" horiz-adv-x="508" 
d="M41 343l177 245l30 -19l-114 -226l114 -227l-30 -19zM243 343l177 245l30 -19l-114 -226l114 -227l-30 -19z" />
    <glyph glyph-name="guillemotright.case" horiz-adv-x="508" 
d="M265 342l-176 -245l-30 19l113 226l-113 227l30 19zM467 342l-176 -245l-30 19l113 226l-113 227l30 19z" />
    <glyph glyph-name="guilsinglleft.case" horiz-adv-x="306" 
d="M41 343l177 245l30 -19l-114 -226l114 -227l-30 -19z" />
    <glyph glyph-name="guilsinglright.case" horiz-adv-x="306" 
d="M59 116l113 227l-113 226l30 19l176 -245l-176 -246z" />
    <glyph glyph-name="quotedbl.osf" horiz-adv-x="315" 
d="M32 580h107l-53 -234zM176 580h107l-53 -234z" />
    <glyph glyph-name="quotesingle.osf" horiz-adv-x="171" 
d="M32 580h107l-53 -234z" />
    <glyph glyph-name="quotedbl.tf" 
d="M108 760h107l-53 -234zM252 760h107l-53 -234z" />
    <glyph glyph-name="quotesingle.tf" 
d="M108 760h107l-53 -234z" />
    <glyph glyph-name="quotedbl.tosf" 
d="M73 580h107l-53 -234zM216 580h108l-54 -234z" />
    <glyph glyph-name="quotesingle.tosf" 
d="M73 580h107l-53 -234z" />
    <glyph glyph-name="uni2003" unicode="&#x2003;" horiz-adv-x="768" 
 />
    <glyph glyph-name="uni2002" unicode="&#x2002;" horiz-adv-x="396" 
 />
    <glyph glyph-name="uni200A" unicode="&#x200a;" horiz-adv-x="119" 
 />
    <glyph glyph-name="uni00A0" unicode="&#xa0;" horiz-adv-x="200" 
 />
    <glyph glyph-name="uni2009" unicode="&#x2009;" horiz-adv-x="144" 
 />
    <glyph glyph-name="uni0E3F" unicode="&#xe3f;" horiz-adv-x="647" 
d="M537 63.5q-61 -51.5 -179 -61.5v-142h-47v140h-6h-236l44 95v551l-68 79h244h22v134h47v-137q99 -11 150 -53.5t51 -113.5q0 -114 -131 -159q170 -39 170 -191q0 -90 -61 -141.5zM210 416h53q18 0 48 2v259q-9 1 -27 1h-74v-262zM358 671v-245q51 14 76 44.5t25 79.5
q0 99 -101 121zM311 47v320q-13 1 -40 1h-61v-321h89h12zM493 207q0 66 -33 103.5t-102 50.5v-310q135 23 135 156z" />
    <glyph glyph-name="uni20BF" unicode="&#x20bf;" horiz-adv-x="637" 
d="M110 95v551l-68 79h192v134h47v-134q44 0 80 -6v140h48v-148q70 -17 107 -57.5t37 -99.5q0 -57 -32.5 -97t-95.5 -61q84 -20 127.5 -68t43.5 -123q0 -79 -47.5 -128.5t-139.5 -67.5v-149h-48v143q-27 -3 -59 -3h-21v-140h-47v140h-168zM207 678v-262h54q97 0 144 33
t47 102q0 65 -41.5 96t-129.5 31h-74zM207 368v-321h89q194 0 194 160q0 84 -53 122.5t-169 38.5h-61z" />
    <glyph glyph-name="cent" unicode="&#xa2;" horiz-adv-x="567" 
d="M546 127q-70 -126 -213 -138v-129h-47v129q-74 4 -129 38t-85.5 92.5t-30.5 135.5q0 79 31.5 144t87 104.5t126.5 44.5v131h47v-132q52 -4 94 -25.5t66 -55t24 -72.5q0 -27 -12.5 -41.5t-35.5 -14.5t-35 14.5t-15 46.5q-10 100 -106 100q-79 0 -126 -61t-47 -162
q0 -108 54.5 -168t150.5 -60q108 0 193 86z" />
    <glyph glyph-name="currency" unicode="&#xa4;" horiz-adv-x="559" 
d="M206.5 108.5q-34.5 12.5 -61.5 35.5l-68 -68l-33 33l67 68q-47 60 -47 134q0 75 47 135l-67 68l33 33l68 -68q27 23 61.5 35.5t72.5 12.5q76 0 135 -48l68 68l33 -33l-68 -68q48 -59 48 -135q0 -75 -48 -134l68 -68l-33 -33l-67 68q-61 -48 -136 -48q-38 0 -72.5 12.5z
M363.5 165.5q38.5 22.5 61.5 61t23 84.5t-23 84.5t-61.5 61.5t-84.5 23t-84.5 -23t-61 -61.5t-22.5 -84.5t22.5 -84.5t61 -61t84.5 -22.5t84.5 22.5z" />
    <glyph glyph-name="dollar" unicode="$" horiz-adv-x="649" 
d="M76 178l88 -61q41 -27 77 -42v280q-94 40 -138.5 92t-44.5 120q0 76 51 123.5t132 48.5v120h47v-123q38 -6 77 -23v146h48v-170q17 -11 31 -22l100 57v-189l-76 60q-32 25 -55 39v-236q100 -43 144 -92.5t44 -117.5q0 -80 -52 -134t-136 -63v-131h-48v128q-34 1 -77 13
v-141h-47v156q-31 11 -68 34l-97 -60v188zM241 692q-48 -2 -73.5 -28t-25.5 -71q0 -39 22.5 -67t76.5 -56v222zM365 417v244q-39 20 -77 28v-240zM365 38v266l-77 33v-281q46 -15 77 -18zM488.5 74q27.5 31 27.5 81q0 41 -22.5 69.5t-80.5 58.5v-245q48 5 75.5 36z" />
    <glyph glyph-name="dong" unicode="&#x20ab;" horiz-adv-x="660" 
d="M466 116q-26 -60 -76.5 -94t-114.5 -34q-66 0 -115.5 35t-76.5 99t-27 148t27 147t76 97.5t115 34.5q59 0 106.5 -28.5t75.5 -80.5v161h-177v42h178v12l-86 95h181v-107h84v-42h-84v-525l65 -76h-151v116zM456 375q-18 49 -57 77.5t-89 28.5q-72 0 -113.5 -57t-41.5 -155
q0 -97 42 -154.5t113 -57.5q54 0 98 28.5t48 76.5v213zM634 -83v-49h-574v49h574z" />
    <glyph glyph-name="Euro" unicode="&#x20ac;" horiz-adv-x="657" 
d="M90 303q0 50 2 73h-72v47h78q16 88 58.5 156.5t105 107t137.5 38.5q57 0 106 -21t78 -57t29 -77q0 -26 -12 -40.5t-34 -14.5q-21 0 -32 14.5t-14 44.5q-5 50 -33.5 75.5t-77.5 25.5q-83 0 -140 -69t-74 -183h330l-29 -47h-304l-1 -37l1 -36h265l-28 -47h-230
q18 -101 76 -159t141 -58q104 0 193 95l11 -8q-79 -151 -237 -151q-116 0 -193.5 76t-95.5 205h-74v47h70z" />
    <glyph glyph-name="florin" unicode="&#x192;" horiz-adv-x="338" 
d="M28 -142q13 12 34 12q17 0 40 -9q3 -1 16.5 -5t28.5 -4q31 0 49.5 18.5t18.5 49.5q0 40 -37 67t-97 32l35 82v375h-91v54h86q-25 35 -25 81q0 65 43 107t108 42q36 0 57.5 -14t21.5 -39q0 -18 -13 -29t-34 -11q-16 0 -36 10q-3 1 -13 5t-21 4q-29 0 -46.5 -19.5
t-17.5 -52.5q0 -40 27 -62t75 -22h59v-54h-84v-448q26 -22 41.5 -53t15.5 -64q0 -61 -46.5 -99t-120.5 -38q-43 0 -65 13.5t-22 39.5q0 19 13 31z" />
    <glyph glyph-name="franc" unicode="&#x20a3;" horiz-adv-x="577" 
d="M210 676v-269h168l70 61v-171l-75 62h-163v-142h176v-42h-176v-96l67 -79h-208l44 95v80h-84v42h84v429l-68 79h491v-163l-101 114h-225z" />
    <glyph glyph-name="uni20B4" unicode="&#x20b4;" horiz-adv-x="706" 
d="M424 342l-15 -6h252v-47h-366q-74 -34 -103 -65t-29 -77q0 -50 38.5 -80.5t103.5 -30.5q95 0 213 74l87 59v-179l-97 60q-48 -29 -103 -45.5t-106 -16.5q-100 0 -160.5 49.5t-60.5 132.5q0 70 40 119h-73v47h124q47 33 121 63l12 5h-257v47h370q65 31 93 64.5t28 77.5
q0 46 -31.5 73t-83.5 27q-46 0 -102.5 -23.5t-117.5 -67.5l-76 -57v179l97 -55q101 70 209 70q86 0 138 -46t52 -123q0 -66 -39 -119h79v-47h-125q-47 -36 -112 -62z" />
    <glyph glyph-name="uni20AD" unicode="&#x20ad;" horiz-adv-x="665" 
d="M452 0l21 81l-183 264h-25l-48 -50v-216l68 -79h-209l44 95v250h-83v42h83v259l-68 79h209l-44 -95v-243h27l253 261l-54 77h188l-285 -294l31 -44h229v-42h-200l241 -345h-195z" />
    <glyph glyph-name="uni20BA" unicode="&#x20ba;" horiz-adv-x="608" 
d="M108 95v168l-69 -26v45l69 27v49l-69 -26v45l69 26v243l-67 79h208l-44 -95v-190l178 66v-45l-178 -66v-50l178 66v-45l-178 -66v-251h80q98 0 148 68t50 202h101q0 -155 -76.5 -237t-222.5 -82h-220z" />
    <glyph glyph-name="uni20B1" unicode="&#x20b1;" horiz-adv-x="697" 
d="M663 522h-66v-8q0 -25 -4 -42h70v-47h-84q-33 -71 -123.5 -108t-234.5 -38v-200l68 -79h-209l44 95v330h-83v47h83v50h-83v47h83v77l-68 79h271q108 0 176.5 -40.5t87.5 -115.5h72v-47zM221 569h267q-16 53 -60.5 81t-113.5 28h-93v-109zM496 522h-275v-50h272q3 17 3 35
v15zM390.5 349.5q63.5 25.5 88.5 75.5h-258v-103q106 2 169.5 27.5z" />
    <glyph glyph-name="uni20BD" unicode="&#x20bd;" horiz-adv-x="632" 
d="M500 375q-94 -55 -279 -56v-50h292v-47h-292v-143l68 -79h-209l44 95v127h-83v47h83v50h-83v47h83v280l-68 79h271q128 0 197.5 -48.5t69.5 -140.5q0 -106 -94 -161zM221 366q100 2 159 19t86.5 52.5t27.5 94.5q0 71 -45 108.5t-135 37.5h-93v-312z" />
    <glyph glyph-name="uni20A8" unicode="&#x20a8;" horiz-adv-x="1190" 
d="M113 95v551l-68 79h263q128 0 195 -44.5t67 -130.5q0 -80 -56.5 -132.5t-164.5 -73.5q123 -28 184 -204q17 -50 33.5 -68.5t45.5 -18.5q-6 -60 -71 -60q-42 0 -66.5 30t-43.5 104q-27 110 -78.5 157t-142.5 47v-252l67 -79h-208zM210 678v-302h40q104 0 164 44.5
t60 121.5q0 66 -45.5 101t-130.5 35h-88zM682 142l84 -46q55 -30 99.5 -43.5t87.5 -13.5q50 0 75 17.5t25 54.5q0 40 -36.5 66t-128.5 52q-107 28 -157 72t-50 109t43 102t117 37q87 0 166 -54l83 41v-152l-74 51q-91 65 -168 65q-43 0 -65.5 -18t-22.5 -52
q0 -40 35.5 -64.5t123.5 -47.5q113 -28 164.5 -71t51.5 -111q0 -70 -47.5 -109t-133.5 -39q-92 0 -176 51l-96 -49v152z" />
    <glyph glyph-name="uni20B9" unicode="&#x20b9;" horiz-adv-x="576" 
d="M60 362h50q94 0 154.5 39t70.5 107h-290l27 47h264q-8 60 -59 91.5t-143 31.5h-89l27 47h486l-27 -47h-178q77 -40 84 -123h121l-27 -47h-97q-11 -75 -77 -121.5t-180 -60.5l360 -326h-128l-349 317v45z" />
    <glyph glyph-name="uni20AA" unicode="&#x20aa;" horiz-adv-x="924" 
d="M69 0l44 95v551l-68 79h312q96 0 152 -20t81 -64t25 -120v-367h-92v365q0 87 -40.5 123t-138.5 36h-142v-677zM862 725l-44 -95v-551l68 -79h-312q-96 0 -152 20t-81 64t-25 120v367h92v-365q0 -87 40.5 -123t138.5 -36h142v678h133z" />
    <glyph glyph-name="sterling" unicode="&#xa3;" horiz-adv-x="576" 
d="M45 10q-27 22 -27 57q0 38 30.5 60.5t80.5 22.5q23 0 62 -9q1 10 1 29q0 79 -43 186h-112v48h90q-31 85 -31 144q0 89 54.5 140t149.5 51q63 0 111 -22.5t75 -62.5t27 -91q0 -30 -10.5 -46t-30.5 -16q-41 0 -41 66q0 60 -32 92.5t-89 32.5t-87.5 -34.5t-30.5 -100.5
q0 -31 7.5 -65.5t24.5 -87.5h141v-48h-124q32 -95 32 -168q0 -34 -8 -68q114 -41 160 -41q32 0 53 16t36 52l24 -11q-10 -73 -44 -110.5t-91 -37.5q-71 0 -176 57q-21 -28 -49.5 -42.5t-61.5 -14.5q-44 0 -71 22zM82.5 43q10.5 -7 29.5 -7q42 0 65 35q-37 17 -65 17
q-19 0 -29.5 -6.5t-10.5 -19.5q0 -12 10.5 -19z" />
    <glyph glyph-name="uni20B8" unicode="&#x20b8;" horiz-adv-x="631" 
d="M589 725v-51h-547v51h547zM268 95v472h-123l-103 -128v176h547v-176l-103 128h-121v-488l67 -79h-208z" />
    <glyph glyph-name="uni20A9" unicode="&#x20a9;" horiz-adv-x="978" 
d="M177 327l-24 80h-86v48h72l-54 178l-77 92h220l-40 -88l55 -182h221l11 35l-45 143l-77 92h216l-40 -88l56 -182h230l54 180l-78 90h169l-39 -88l-56 -182h63v-48h-77l-24 -80h101v-47h-115l-85 -280h-104l-86 280h-76l-83 -280h-103l-85 280h-124v47h110zM427 327l23 80
h-194l25 -80h146zM476 327h49l-25 80zM777 327l24 80h-202l25 -80h153zM413 280h-118l60 -197zM763 280h-125l63 -203z" />
    <glyph glyph-name="yen" unicode="&#xa5;" horiz-adv-x="615" 
d="M267 95v145h-163v47h163v52l-5 9h-158v48h130l-149 228l-85 101h235l-43 -91l153 -239l157 252l-68 78h170l-205 -329h127v-48h-157l-5 -10v-51h162v-47h-162v-161l68 -79h-209z" />
    <glyph glyph-name="uni0E3F.osf" horiz-adv-x="629" 
d="M523.5 42q-52.5 -36 -168.5 -41v-141h-47v140h-243l43 93v358l-67 79h267v134h47v-135q101 -5 150.5 -36.5t49.5 -92.5q0 -89 -128 -117q149 -31 149 -133q0 -72 -52.5 -108zM205 302h60q97 0 143.5 23t46.5 71q0 44 -39 65.5t-120 21.5h-91v-181zM470 152q0 54 -46.5 78
t-151.5 24h-67v-207h103q162 0 162 105z" />
    <glyph glyph-name="uni20BF.osf" horiz-adv-x="599" 
d="M108 93v358l-67 79h195v134h48v-134h27q21 0 53 -2v136h47v-142q71 -13 107.5 -44t36.5 -78q0 -88 -128 -117q149 -31 149 -133q0 -56 -42.5 -92.5t-122.5 -50.5v-147h-47v142q-26 -2 -51 -2h-29v-140h-48v140h-171zM205 483v-181h60q96 0 143 23t47 71q0 44 -39 65.5
t-120 21.5h-91zM205 254v-207h103q80 0 121 26.5t41 78.5q0 53 -47 77.5t-151 24.5h-67z" />
    <glyph glyph-name="cent.osf" horiz-adv-x="579" 
d="M548 127q-76 -139 -237 -139q-93 0 -159 47l-62 -84l-36 28l63 86q-66 69 -66 187q0 85 35.5 152.5t97 105.5t138.5 38q72 0 125 -33l54 72l37 -29l-53 -71q23 -23 36 -53t13 -63q0 -32 -12.5 -48.5t-36.5 -16.5q-43 0 -47 61q-4 27 -10 45l-221 -306q24 -29 60.5 -44
t80.5 -15q105 0 191 86zM181 148l228 316q-30 34 -84 34q-80 0 -127 -61t-47 -164q0 -77 30 -125z" />
    <glyph glyph-name="dollar.osf" horiz-adv-x="571" 
d="M47 150l84 -49q57 -32 106 -47.5t98 -15.5q56 0 83.5 18t27.5 56q0 27 -16 46t-53 35t-107 35q-121 31 -173 72.5t-52 105.5q0 60 40 97.5t111 43.5v97h47v-97q39 -1 83 -16v113h47v-132q16 -7 29 -17l85 41v-160l-74 56q-87 66 -184 66q-99 0 -99 -71q0 -25 14.5 -42
t49 -31.5t98.5 -30.5q90 -23 142 -47t75 -55t23 -75q0 -65 -42 -105.5t-117 -49.5v-108h-47v105q-46 2 -83 10v-115h-47v129q-29 11 -54 27l-95 -49v160z" />
    <glyph glyph-name="dong.osf" horiz-adv-x="652" 
d="M466 116q-26 -60 -76.5 -94t-114.5 -34q-66 0 -115.5 35t-76.5 99t-27 148t27 147t76 97.5t115 34.5q59 0 106.5 -28.5t75.5 -80.5v161h-177v42h178v12l-86 95h181v-107h84v-42h-84v-525l65 -76h-151v116zM456 375q-18 49 -57 77.5t-89 28.5q-72 0 -113.5 -57t-41.5 -155
q0 -97 42 -154.5t113 -57.5q54 0 98 28.5t48 76.5v213zM634 -83v-49h-574v49h574z" />
    <glyph glyph-name="Euro.osf" horiz-adv-x="608" 
d="M99 221q-1 9 -1 32q0 16 1 23h-79v42h83q19 104 91 167t175 63q52 0 95 -17t68 -46t25 -64q0 -25 -12.5 -38.5t-34.5 -13.5q-40 0 -48 54q-6 39 -28 57.5t-63 18.5q-69 0 -114 -49t-55 -132h317l-30 -42h-289q-2 -28 3 -55h253l-30 -42h-212q18 -64 64 -98t116 -34
q51 0 90 20t79 66l8 -6q-36 -72 -88.5 -105.5t-129.5 -33.5q-97 0 -162.5 50.5t-85.5 140.5h-85v42h79z" />
    <glyph glyph-name="florin.osf" horiz-adv-x="365" 
d="M115 0v328h-99v52h93q-16 21 -16 51q0 51 45.5 84t115.5 33q42 0 66.5 -13t24.5 -35q0 -17 -14 -27.5t-37 -10.5q-10 0 -20.5 2t-15.5 3q-25 7 -46 7q-33 0 -52 -11.5t-19 -32.5q0 -23 25.5 -36.5t69.5 -13.5h66v-52h-92v-328h-95z" />
    <glyph glyph-name="franc.osf" horiz-adv-x="594" 
d="M222 479v-175h176l61 53v-156l-69 54h-168v-81h148v-42h-148v-53l68 -79h-208l44 95v37h-84v42h84v275l-68 79h491v-158l-96 109h-231z" />
    <glyph glyph-name="uni20B4.osf" horiz-adv-x="688" 
d="M540 307q-42 -39 -114 -63h217v-47h-378q-38 -16 -53 -35t-15 -45q0 -39 29.5 -58.5t75.5 -19.5q45 0 92.5 15t104.5 47l83 45v-156l-95 56q-100 -57 -184 -57q-96 0 -147.5 39.5t-51.5 109.5q0 32 12 59h-71v47h106q43 38 125 63h-231v47h397q29 14 40 32t11 43
q0 70 -112 70q-40 0 -87.5 -15t-90.5 -44l-75 -48v145l85 -42q41 26 88.5 39.5t90.5 13.5q91 0 141.5 -37.5t50.5 -105.5q0 -28 -10 -51h69v-47h-103z" />
    <glyph glyph-name="uni20AD.osf" horiz-adv-x="611" 
d="M373 0l26 81l-118 172h-9l-58 -57v-196h-141l44 95v158h-84v42h84v156l-68 79h209l-44 -95v-140h38l164 158l-54 77h192l-212 -209l19 -26h196v-42h-165l187 -253h-206z" />
    <glyph glyph-name="uni20BA.osf" horiz-adv-x="604" 
d="M108 95v66l-69 -25v45l69 26v47l-69 -26v46l69 25v152l-67 79h208l-44 -95v-98l153 56v-45l-153 -57v-47l153 57v-45l-153 -57v-150h27q114 0 171.5 51t60.5 155h101q-2 -126 -86 -190.5t-243 -64.5h-171z" />
    <glyph glyph-name="uni20B1.osf" horiz-adv-x="656" 
d="M626 375h-67q1 -7 1 -21q0 -9 -2 -27h68v-47h-86q-61 -99 -321 -102v-99l67 -79h-208l44 95v185h-84v47h84v48h-84v47h84v29l-68 79h246q97 0 160 -27.5t86 -80.5h80v-47zM219 422h223q-37 61 -150 61h-73v-61zM458 375h-239v-48h238q2 16 2 27q0 14 -1 21zM359 236.5
q52 13.5 77 43.5h-217v-59q88 2 140 15.5z" />
    <glyph glyph-name="uni20BD.osf" horiz-adv-x="601" 
d="M463 260.5q-87 -43.5 -240 -45.5v-32h258v-47h-258v-57l68 -79h-208l43 110v26h-83v47h83v32h-83v48h83v188l-67 79h246q122 0 183.5 -35t61.5 -111q0 -80 -87 -123.5zM223 263q226 0 226 119q0 54 -38 77.5t-114 23.5h-74v-220z" />
    <glyph glyph-name="uni20A8.osf" horiz-adv-x="1178" 
d="M1071.5 247q51.5 -43 51.5 -110q0 -68 -47 -108.5t-132 -40.5q-86 0 -178 51l-96 -49v152l84 -46q55 -30 99.5 -43.5t87.5 -13.5q50 0 75 17.5t25 54.5q0 40 -36.5 66t-128.5 52q-108 28 -157.5 72.5t-49.5 111.5q0 62 40.5 99t114.5 37q85 0 171 -54l83 41v-152l-74 51
q-90 65 -169 65q-43 0 -65 -18t-22 -53q0 -39 35.5 -63.5t122.5 -47.5q114 -28 165.5 -71zM553 62.5q14 -11.5 42 -11.5q-3 -58 -69 -58q-38 0 -61.5 22.5t-35.5 70.5q-18 76 -63 110.5t-126 34.5v-152l68 -79h-209l44 95v356l-68 79h263q232 0 232 -133q0 -62 -49 -99.5
t-148 -52.5q116 -26 156 -140q10 -31 24 -42.5zM280 276q93 0 143 29t50 83q0 47 -37 71t-107 24h-89v-207h40z" />
    <glyph glyph-name="uni20B9.osf" horiz-adv-x="557" 
d="M55 250h50q82 0 136 28t65 76h-266l27 47h240q-10 40 -55 61t-123 21h-89l27 47h467l-27 -47h-157q51 -29 60 -82h124l-27 -47h-100q-12 -56 -70 -91.5t-156 -48.5l332 -214h-138l-320 205v45z" />
    <glyph glyph-name="uni20AA.osf" horiz-adv-x="827" 
d="M422 449.5q-32 33.5 -106 33.5h-120v-482l-132 -1l44 96v357l-65 77h281q120 0 172.5 -44.5t52.5 -147.5v-201h-95v201q0 78 -32 111.5zM784 0h-281q-121 0 -173 44.5t-52 147.5v201h94v-201q0 -78 32 -111.5t106 -33.5h121v483h131l-44 -97v-356z" />
    <glyph glyph-name="sterling.osf" horiz-adv-x="573" 
d="M44 313h77q-7 32 -7 66q0 77 50.5 123t136.5 46q55 0 97.5 -19t66 -53t23.5 -78q0 -29 -11 -44t-32 -15q-39 0 -40 59q0 50 -25 76.5t-72 26.5t-71.5 -29t-24.5 -85q0 -29 9 -74h126v-47h-114q19 -70 19 -114q0 -23 -2 -35q102 -41 170 -41q35 0 55.5 13.5t36.5 48.5
l24 -12q-19 -138 -136 -138q-75 0 -180 57q-18 -27 -46 -42t-61 -15q-43 0 -69 21.5t-26 57.5q0 34 26.5 54t70.5 20q26 0 47 -5q1 30 -4.5 57t-20.5 73h-93v47zM112 81q-18 0 -29 -6.5t-11 -16.5t10.5 -16t27.5 -6q41 0 55 33q-30 12 -53 12z" />
    <glyph glyph-name="uni20B8.osf" horiz-adv-x="589" 
d="M539 530v-51h-489v51h489zM50 423h489v-165l-94 116h-101v-295l67 -79h-208l44 95v279h-103l-94 -116v165z" />
    <glyph glyph-name="uni20A9.osf" horiz-adv-x="874" 
d="M157 226l-24 62h-93v48h76l-40 99l-82 95h220l-36 -80l44 -114h206l2 6l-36 101l-76 87h216l-39 -87l38 -107h194l42 111l-72 83h159l-75 -194h69v-48h-87l-24 -62h111v-48h-128l-68 -178h-100l-65 178h-70l-76 -178h-99l-68 178h-136v48h117zM383 226l26 62h-170l24 -62
h120zM685 226l24 62h-159l22 -62h113zM473 226l-16 42l-18 -42h34zM320 74l44 104h-84zM627 72l40 106h-78z" />
    <glyph glyph-name="yen.osf" horiz-adv-x="552" 
d="M235 95v80h-165v47h165v27l-21 24h-144v48h104l-178 209h224l-40 -86l124 -150l132 170l-59 66h167l-160 -209h109v-48h-144l-19 -23v-28h163v-47h-163v-96l68 -79h-207z" />
    </font>
</defs>
</svg>
