<?xml version="1.0" standalone="no"?>
<!DOCTYPE svg PUBLIC "-//W3C//DTD SVG 1.1//EN" "http://www.w3.org/Graphics/SVG/1.1/DTD/svg11.dtd" >
<svg xmlns="http://www.w3.org/2000/svg" xmlns:xlink="http://www.w3.org/1999/xlink" version="1.1">
<metadata>
Created by FontForge 20170924 at Thu May  2 10:01:16 2019
 By www-data
Copyright (c) 2019 by Dries Wiewauters. All rights reserved.
</metadata>
<defs>
<font id="NibPro-Light" horiz-adv-x="730" >
  <font-face 
    font-family="Nib Pro Light"
    font-weight="300"
    font-stretch="normal"
    units-per-em="1000"
    panose-1="2 3 3 3 7 4 3 4 3 3"
    ascent="780"
    descent="-220"
    x-height="530"
    cap-height="725"
    bbox="-355 -275 1048 930"
    underline-thickness="60"
    underline-position="-170"
    unicode-range="U+000D-FB02"
  />
<missing-glyph horiz-adv-x="500" 
 />
    <glyph glyph-name="f_f" unicode="ff" horiz-adv-x="530" 
d="M110 82v408h-97v40h91q-14 16 -21.5 38t-7.5 46q0 41 20 74.5t54.5 52.5t75.5 19q30 0 47.5 -10t17.5 -27q0 -13 -10 -20.5t-27 -7.5q-10 0 -28 4q-22 4 -34 4q-36 0 -58.5 -23t-22.5 -61q0 -40 24.5 -64.5t65.5 -24.5h177q-14 16 -21.5 38.5t-7.5 48.5q0 62 40 102.5
t101 40.5q28 0 43.5 -9.5t15.5 -26.5q0 -14 -10 -21.5t-27 -7.5q-10 0 -26 4q-18 4 -30 4q-34 0 -53 -21t-19 -59q0 -43 24.5 -68t65.5 -25h47v-40h-81v-425l58 -65h-153l39 82v408h-217v-425l58 -65h-153z" />
    <glyph glyph-name="f_f_i" unicode="ffi" horiz-adv-x="812" 
d="M110 82v408h-97v40h91q-14 16 -21.5 38t-7.5 46q0 41 20 74.5t54.5 52.5t75.5 19q30 0 47.5 -10t17.5 -27q0 -13 -10 -20.5t-27 -7.5q-10 0 -28 4q-22 4 -34 4q-36 0 -58.5 -23t-22.5 -61q0 -40 24.5 -64.5t65.5 -24.5h177q-14 16 -21.5 38t-7.5 46q0 41 20 74.5
t54.5 52.5t75.5 19q30 0 47.5 -10t17.5 -27q0 -13 -10 -20.5t-27 -7.5q-10 0 -28 4q-22 4 -34 4q-36 0 -58.5 -23t-22.5 -61q0 -40 24.5 -64.5t65.5 -24.5h239v-465l58 -65h-153l39 82v408h-217v-425l58 -65h-153l39 82v408h-217v-425l58 -65h-153zM714 726.5
q12 -12.5 12 -31.5t-12 -31t-31 -12t-31 12t-12 31t12 31.5t31 12.5t31 -12.5z" />
    <glyph glyph-name="f_f_l" unicode="ffl" horiz-adv-x="802" 
d="M110 82v408h-97v40h91q-14 16 -21.5 38t-7.5 46q0 41 20 74.5t54.5 52.5t75.5 19q30 0 47.5 -10t17.5 -27q0 -13 -10 -20.5t-27 -7.5q-10 0 -28 4q-22 4 -34 4q-36 0 -58.5 -23t-22.5 -61q0 -40 24.5 -64.5t65.5 -24.5h177q-14 16 -21.5 38.5t-7.5 48.5q0 62 40 102.5
t101 40.5q28 0 43.5 -9.5t15.5 -26.5q0 -14 -10 -21.5t-27 -7.5q-10 0 -26 4q-18 4 -30 4q-34 0 -53 -21t-19 -59q0 -43 24.5 -68t65.5 -25h47v-40h-81v-425l58 -65h-153l39 82v408h-217v-425l58 -65h-153zM646 82v585l-77 83h133v-685l58 -65h-153z" />
    <glyph glyph-name="f_i" unicode="fi" horiz-adv-x="539" 
d="M110 82v408h-97v40h91q-14 16 -21.5 38t-7.5 46q0 41 20 74.5t54.5 52.5t75.5 19q30 0 47.5 -10t17.5 -27q0 -13 -10 -20.5t-27 -7.5q-10 0 -28 4q-22 4 -34 4q-36 0 -58.5 -23t-22.5 -61q0 -40 24.5 -64.5t65.5 -24.5h239v-465l58 -65h-153l39 82v408h-217v-425l58 -65
h-153zM441 726.5q12 -12.5 12 -31.5t-12 -31t-31 -12t-31 12t-12 31t12 31.5t31 12.5t31 -12.5z" />
    <glyph glyph-name="f_l" unicode="fl" horiz-adv-x="529" 
d="M110 82v408h-97v40h91q-14 16 -21.5 38.5t-7.5 48.5q0 62 40 102.5t101 40.5q28 0 43.5 -9.5t15.5 -26.5q0 -14 -10 -21.5t-27 -7.5q-10 0 -26 4q-18 4 -30 4q-34 0 -53 -21t-19 -59q0 -43 24.5 -68t65.5 -25h47v-40h-81v-425l58 -65h-153zM373 82v585l-77 83h133v-685
l58 -65h-153z" />
    <glyph glyph-name=".notdef" horiz-adv-x="500" 
 />
    <glyph glyph-name="nonmarkingreturn" unicode="&#xd;" horiz-adv-x="500" 
 />
    <glyph glyph-name="space" unicode=" " horiz-adv-x="200" 
 />
    <glyph glyph-name="A" unicode="A" horiz-adv-x="621" 
d="M66 78l203 570l-41 77h84l226 -640l73 -85h-168l34 73l-40 112h-289l-38 -107l69 -78h-149zM423 224l-132 370l-130 -370h262z" />
    <glyph glyph-name="Aacute" unicode="&#xc1;" horiz-adv-x="621" 
d="M66 78l203 570l-41 77h84l226 -640l73 -85h-168l34 73l-40 112h-289l-38 -107l69 -78h-149zM423 224l-132 370l-130 -370h262zM190 797q46 6 91 36.5t62 67.5q13 29 35 29q12 0 20.5 -8t8.5 -20q0 -14 -16 -31q-31 -33 -84.5 -56t-116.5 -27v9z" />
    <glyph glyph-name="Abreve" unicode="&#x102;" horiz-adv-x="621" 
d="M66 78l203 570l-41 77h84l226 -640l73 -85h-168l34 73l-40 112h-289l-38 -107l69 -78h-149zM423 224l-132 370l-130 -370h262zM205.5 816.5q-38.5 28.5 -52.5 73.5l7 6q25 -37 56.5 -54t74.5 -17t74.5 17t56.5 54l7 -6q-14 -45 -52.5 -73.5t-85.5 -28.5t-85.5 28.5z" />
    <glyph glyph-name="Acircumflex" unicode="&#xc2;" horiz-adv-x="621" 
d="M66 78l203 570l-41 77h84l226 -640l73 -85h-168l34 73l-40 112h-289l-38 -107l69 -78h-149zM423 224l-132 370l-130 -370h262zM434 778q-41 10 -74 25.5t-69 42.5q-36 -27 -69 -42.5t-74 -25.5v9q44 19 82.5 57t56.5 80h8q18 -42 57 -80.5t82 -56.5v-9z" />
    <glyph glyph-name="Adieresis" unicode="&#xc4;" horiz-adv-x="621" 
d="M66 78l203 570l-41 77h84l226 -640l73 -85h-168l34 73l-40 112h-289l-38 -107l69 -78h-149zM423 224l-132 370l-130 -370h262zM166.5 814q-10.5 10 -10.5 25q0 16 10.5 26t25.5 10t25 -10t10 -26t-10 -25.5t-25 -9.5t-25.5 10zM365.5 814q-10.5 10 -10.5 25q0 16 10.5 26
t25.5 10t25 -10t10 -26t-10 -25.5t-25 -9.5t-25.5 10z" />
    <glyph glyph-name="Agrave" unicode="&#xc0;" horiz-adv-x="621" 
d="M66 78l203 570l-41 77h84l226 -640l73 -85h-168l34 73l-40 112h-289l-38 -107l69 -78h-149zM423 224l-132 370l-130 -370h262zM274.5 815q-53.5 23 -84.5 56q-16 17 -16 31q0 12 8 20t21 8q22 0 35 -29q17 -37 62 -67.5t91 -36.5v-9q-63 4 -116.5 27z" />
    <glyph glyph-name="Amacron" unicode="&#x100;" horiz-adv-x="621" 
d="M66 78l203 570l-41 77h84l226 -640l73 -85h-168l34 73l-40 112h-289l-38 -107l69 -78h-149zM423 224l-132 370l-130 -370h262zM158 835h266v-29h-266v29z" />
    <glyph glyph-name="Aogonek" unicode="&#x104;" horiz-adv-x="621" 
d="M520.5 -170q15.5 -22 50.5 -34l-5 -8q-48 1 -76 29t-28 74q0 31 13.5 59.5t37.5 49.5h-70l34 73l-40 112h-289l-38 -107l69 -78h-149l36 78l203 570l-41 77h84l226 -640l73 -85h-72q-34 -46 -34 -109q0 -39 15.5 -61zM423 224l-132 370l-130 -370h262z" />
    <glyph glyph-name="Aring" unicode="&#xc5;" horiz-adv-x="621" 
d="M66 78l203 570l-41 77h84l226 -640l73 -85h-168l34 73l-40 112h-289l-38 -107l69 -78h-149zM423 224l-132 370l-130 -370h262zM233.5 792q-22.5 23 -22.5 57t22.5 57t56.5 23q35 0 58 -23t23 -57t-23 -57t-58 -23q-34 0 -56.5 23zM334 804.5q18 17.5 18 44.5t-18 44.5
t-45 17.5q-26 0 -43.5 -17.5t-17.5 -44.5t17.5 -44.5t43.5 -17.5q27 0 45 17.5z" />
    <glyph glyph-name="Atilde" unicode="&#xc3;" horiz-adv-x="621" 
d="M66 78l203 570l-41 77h84l226 -640l73 -85h-168l34 73l-40 112h-289l-38 -107l69 -78h-149zM423 224l-132 370l-130 -370h262zM348 791q-32 0 -80 16q-4 1 -22.5 6.5t-34.5 5.5q-37 0 -40 -32l-11 4q1 64 71 64q31 0 79 -16q15 -5 30.5 -8.5t26.5 -3.5q18 0 29.5 8
t13.5 24l11 -4q-1 -64 -73 -64z" />
    <glyph glyph-name="AE" unicode="&#xc6;" horiz-adv-x="932" 
d="M91 102l371 565l-52 58h412v-131l-78 89h-218v-296h189l59 53v-149l-64 54h-184v-303h258l88 99v-141h-443l39 82v119h-264l-80 -122l70 -79h-184zM468 243v359l-236 -359h236z" />
    <glyph glyph-name="AEacute" unicode="&#x1fc;" horiz-adv-x="932" 
d="M91 102l371 565l-52 58h412v-131l-78 89h-218v-296h189l59 53v-149l-64 54h-184v-303h258l88 99v-141h-443l39 82v119h-264l-80 -122l70 -79h-184zM468 243v359l-236 -359h236zM395 797q46 6 91 36.5t62 67.5q13 29 35 29q12 0 20.5 -8t8.5 -20q0 -14 -16 -31
q-31 -33 -84.5 -56t-116.5 -27v9z" />
    <glyph glyph-name="B" unicode="B" horiz-adv-x="593" 
d="M110 82v578l-58 65h210q119 0 184 -45t65 -127q0 -58 -33 -98.5t-98 -60.5q85 -19 129 -67.5t44 -124.5q0 -97 -70.5 -149.5t-200.5 -52.5h-211zM168 685v-274h65q110 0 163.5 34.5t53.5 106.5q0 68 -47 100.5t-144 32.5h-91zM168 370v-330h111q211 0 211 166
q0 86 -59 125t-188 39h-75z" />
    <glyph glyph-name="C" unicode="C" horiz-adv-x="629" 
d="M559 43q-59 -29 -110 -42t-107 -13q-302 0 -302 362q0 185 77.5 287t217.5 102q46 0 85 -11t66 -31l53 38v-191l-45 75q-26 43 -67.5 66.5t-92.5 23.5q-70 0 -122 -43t-79.5 -122t-27.5 -186q0 -106 28.5 -182.5t81.5 -117t126 -40.5q60 0 108.5 28t79.5 81l30 50v-134z
" />
    <glyph glyph-name="Cacute" unicode="&#x106;" horiz-adv-x="629" 
d="M559 43q-59 -29 -110 -42t-107 -13q-302 0 -302 362q0 185 77.5 287t217.5 102q46 0 85 -11t66 -31l53 38v-191l-45 75q-26 43 -67.5 66.5t-92.5 23.5q-70 0 -122 -43t-79.5 -122t-27.5 -186q0 -106 28.5 -182.5t81.5 -117t126 -40.5q60 0 108.5 28t79.5 81l30 50v-134z
M238 797q46 6 91 36.5t62 67.5q13 29 35 29q12 0 20.5 -8t8.5 -20q0 -14 -16 -31q-31 -33 -84.5 -56t-116.5 -27v9z" />
    <glyph glyph-name="Ccaron" unicode="&#x10c;" horiz-adv-x="629" 
d="M559 43q-59 -29 -110 -42t-107 -13q-302 0 -302 362q0 185 77.5 287t217.5 102q46 0 85 -11t66 -31l53 38v-191l-45 75q-26 43 -67.5 66.5t-92.5 23.5q-70 0 -122 -43t-79.5 -122t-27.5 -186q0 -106 28.5 -182.5t81.5 -117t126 -40.5q60 0 108.5 28t79.5 81l30 50v-134z
M408 888.5q33 15.5 74 25.5v-9q-44 -19 -82.5 -57t-56.5 -80h-8q-18 42 -57 80.5t-82 56.5v9q41 -10 74 -25.5t69 -42.5q36 27 69 42.5z" />
    <glyph glyph-name="Ccedilla" unicode="&#xc7;" horiz-adv-x="629" 
d="M460 4q-46 -13 -95 -15l-23 -52q41 -6 65 -29t24 -55q0 -38 -33 -62t-83 -24q-26 0 -56 8l2 9q23 -3 40 -3q44 0 67.5 16.5t23.5 47.5q0 62 -98 62l42 81q-296 3 -296 362q0 185 77.5 287t217.5 102q46 0 85 -11t66 -31l53 38v-191l-45 75q-26 43 -67.5 66.5t-92.5 23.5
q-70 0 -122 -43t-79.5 -122t-27.5 -186q0 -106 28.5 -182.5t81.5 -117t126 -40.5q60 0 108.5 28t79.5 81l30 50v-134q-53 -26 -99 -39z" />
    <glyph glyph-name="Ccircumflex" unicode="&#x108;" horiz-adv-x="629" 
d="M559 43q-59 -29 -110 -42t-107 -13q-302 0 -302 362q0 185 77.5 287t217.5 102q46 0 85 -11t66 -31l53 38v-191l-45 75q-26 43 -67.5 66.5t-92.5 23.5q-70 0 -122 -43t-79.5 -122t-27.5 -186q0 -106 28.5 -182.5t81.5 -117t126 -40.5q60 0 108.5 28t79.5 81l30 50v-134z
M482 778q-41 10 -74 25.5t-69 42.5q-36 -27 -69 -42.5t-74 -25.5v9q44 19 82.5 57t56.5 80h8q18 -42 57 -80.5t82 -56.5v-9z" />
    <glyph glyph-name="Cdotaccent" unicode="&#x10a;" horiz-adv-x="629" 
d="M559 43q-59 -29 -110 -42t-107 -13q-302 0 -302 362q0 185 77.5 287t217.5 102q46 0 85 -11t66 -31l53 38v-191l-45 75q-26 43 -67.5 66.5t-92.5 23.5q-70 0 -122 -43t-79.5 -122t-27.5 -186q0 -106 28.5 -182.5t81.5 -117t126 -40.5q60 0 108.5 28t79.5 81l30 50v-134z
M309 827q-12 12 -12 30t12 30t30 12t30 -12t12 -30t-12 -30t-30 -12t-30 12z" />
    <glyph glyph-name="D" unicode="D" horiz-adv-x="656" 
d="M110 82v578l-58 65h220q106 0 183.5 -45t119 -129.5t41.5 -201.5q0 -169 -88 -259t-256 -90h-201zM168 683v-641h104q136 0 208.5 79t72.5 226q0 102 -34.5 178t-98.5 117t-148 41h-104z" />
    <glyph glyph-name="Eth" unicode="&#xd0;" horiz-adv-x="656" 
d="M110 82v261h-59v38h59v279l-58 65h220q106 0 183.5 -45t119 -129.5t41.5 -201.5q0 -169 -88 -259t-256 -90h-201zM168 683v-302h232v-38h-232v-301h104q136 0 208.5 79t72.5 226q0 102 -34.5 178t-98.5 117t-148 41h-104z" />
    <glyph glyph-name="Dcaron" unicode="&#x10e;" horiz-adv-x="656" 
d="M110 82v578l-58 65h220q106 0 183.5 -45t119 -129.5t41.5 -201.5q0 -169 -88 -259t-256 -90h-201zM168 683v-641h104q136 0 208.5 79t72.5 226q0 102 -34.5 178t-98.5 117t-148 41h-104zM390 888.5q33 15.5 74 25.5v-9q-44 -19 -82.5 -57t-56.5 -80h-8q-18 42 -57 80.5
t-82 56.5v9q41 -10 74 -25.5t69 -42.5q36 27 69 42.5z" />
    <glyph glyph-name="Dcroat" unicode="&#x110;" horiz-adv-x="656" 
d="M110 82v261h-59v38h59v279l-58 65h220q106 0 183.5 -45t119 -129.5t41.5 -201.5q0 -169 -88 -259t-256 -90h-201zM168 683v-302h232v-38h-232v-301h104q136 0 208.5 79t72.5 226q0 102 -34.5 178t-98.5 117t-148 41h-104z" />
    <glyph glyph-name="E" unicode="E" horiz-adv-x="594" 
d="M110 82v578l-58 65h432v-131l-78 89h-238v-296h194l59 53v-149l-64 54h-189v-303h278l88 99v-141h-463z" />
    <glyph glyph-name="Eacute" unicode="&#xc9;" horiz-adv-x="594" 
d="M110 82v578l-58 65h432v-131l-78 89h-238v-296h194l59 53v-149l-64 54h-189v-303h278l88 99v-141h-463zM204 797q46 6 91 36.5t62 67.5q13 29 35 29q12 0 20.5 -8t8.5 -20q0 -14 -16 -31q-31 -33 -84.5 -56t-116.5 -27v9z" />
    <glyph glyph-name="Ebreve" unicode="&#x114;" horiz-adv-x="594" 
d="M110 82v578l-58 65h432v-131l-78 89h-238v-296h194l59 53v-149l-64 54h-189v-303h278l88 99v-141h-463zM219.5 816.5q-38.5 28.5 -52.5 73.5l7 6q25 -37 56.5 -54t74.5 -17t74.5 17t56.5 54l7 -6q-14 -45 -52.5 -73.5t-85.5 -28.5t-85.5 28.5z" />
    <glyph glyph-name="Ecaron" unicode="&#x11a;" horiz-adv-x="594" 
d="M110 82v578l-58 65h432v-131l-78 89h-238v-296h194l59 53v-149l-64 54h-189v-303h278l88 99v-141h-463zM374 888.5q33 15.5 74 25.5v-9q-44 -19 -82.5 -57t-56.5 -80h-8q-18 42 -57 80.5t-82 56.5v9q41 -10 74 -25.5t69 -42.5q36 27 69 42.5z" />
    <glyph glyph-name="Ecircumflex" unicode="&#xca;" horiz-adv-x="594" 
d="M110 82v578l-58 65h432v-131l-78 89h-238v-296h194l59 53v-149l-64 54h-189v-303h278l88 99v-141h-463zM448 778q-41 10 -74 25.5t-69 42.5q-36 -27 -69 -42.5t-74 -25.5v9q44 19 82.5 57t56.5 80h8q18 -42 57 -80.5t82 -56.5v-9z" />
    <glyph glyph-name="Edieresis" unicode="&#xcb;" horiz-adv-x="594" 
d="M110 82v578l-58 65h432v-131l-78 89h-238v-296h194l59 53v-149l-64 54h-189v-303h278l88 99v-141h-463zM180.5 814q-10.5 10 -10.5 25q0 16 10.5 26t25.5 10t25 -10t10 -26t-10 -25.5t-25 -9.5t-25.5 10zM379.5 814q-10.5 10 -10.5 25q0 16 10.5 26t25.5 10t25 -10
t10 -26t-10 -25.5t-25 -9.5t-25.5 10z" />
    <glyph glyph-name="Edotaccent" unicode="&#x116;" horiz-adv-x="594" 
d="M110 82v578l-58 65h432v-131l-78 89h-238v-296h194l59 53v-149l-64 54h-189v-303h278l88 99v-141h-463zM275 827q-12 12 -12 30t12 30t30 12t30 -12t12 -30t-12 -30t-30 -12t-30 12z" />
    <glyph glyph-name="Egrave" unicode="&#xc8;" horiz-adv-x="594" 
d="M110 82v578l-58 65h432v-131l-78 89h-238v-296h194l59 53v-149l-64 54h-189v-303h278l88 99v-141h-463zM288.5 815q-53.5 23 -84.5 56q-16 17 -16 31q0 12 8 20t21 8q22 0 35 -29q17 -37 62 -67.5t91 -36.5v-9q-63 4 -116.5 27z" />
    <glyph glyph-name="Emacron" unicode="&#x112;" horiz-adv-x="594" 
d="M110 82v578l-58 65h432v-131l-78 89h-238v-296h194l59 53v-149l-64 54h-189v-303h278l88 99v-141h-463zM172 835h266v-29h-266v29z" />
    <glyph glyph-name="Eogonek" unicode="&#x118;" horiz-adv-x="594" 
d="M110 82v578l-58 65h432v-131l-78 89h-238v-296h194l59 53v-149l-64 54h-189v-303h278l88 99v-141q-34 -46 -34 -109q0 -39 15.5 -61t50.5 -34l-5 -8q-48 1 -76 29t-28 74q0 31 13.5 59.5t37.5 49.5h-437z" />
    <glyph glyph-name="F" unicode="F" horiz-adv-x="554" 
d="M110 82v578l-58 65h462v-131l-78 89h-268v-303h205l59 53v-149l-64 54h-200v-273l58 -65h-155z" />
    <glyph glyph-name="G" unicode="G" horiz-adv-x="691" 
d="M602 215v-227l-41 65q-32 -31 -80 -48t-106 -17q-94 0 -162.5 44t-105.5 127t-37 196q0 115 37 202t105 134.5t159 47.5q45 0 86 -11.5t69 -31.5l54 39v-201l-46 75q-30 48 -73 74t-94 26q-68 0 -120.5 -44.5t-82 -125t-29.5 -184.5q0 -103 29.5 -179t84.5 -117t128 -41
q55 0 103 23t74 61v122l-77 71h164z" />
    <glyph glyph-name="Gbreve" unicode="&#x11e;" horiz-adv-x="691" 
d="M602 215v-227l-41 65q-32 -31 -80 -48t-106 -17q-94 0 -162.5 44t-105.5 127t-37 196q0 115 37 202t105 134.5t159 47.5q45 0 86 -11.5t69 -31.5l54 39v-201l-46 75q-30 48 -73 74t-94 26q-68 0 -120.5 -44.5t-82 -125t-29.5 -184.5q0 -103 29.5 -179t84.5 -117t128 -41
q55 0 103 23t74 61v122l-77 71h164zM273.5 816.5q-38.5 28.5 -52.5 73.5l7 6q25 -37 56.5 -54t74.5 -17t74.5 17t56.5 54l7 -6q-14 -45 -52.5 -73.5t-85.5 -28.5t-85.5 28.5z" />
    <glyph glyph-name="Gcircumflex" unicode="&#x11c;" horiz-adv-x="691" 
d="M602 215v-227l-41 65q-32 -31 -80 -48t-106 -17q-94 0 -162.5 44t-105.5 127t-37 196q0 115 37 202t105 134.5t159 47.5q45 0 86 -11.5t69 -31.5l54 39v-201l-46 75q-30 48 -73 74t-94 26q-68 0 -120.5 -44.5t-82 -125t-29.5 -184.5q0 -103 29.5 -179t84.5 -117t128 -41
q55 0 103 23t74 61v122l-77 71h164zM502 778q-41 10 -74 25.5t-69 42.5q-36 -27 -69 -42.5t-74 -25.5v9q44 19 82.5 57t56.5 80h8q18 -42 57 -80.5t82 -56.5v-9z" />
    <glyph glyph-name="uni0122" unicode="&#x122;" horiz-adv-x="691" 
d="M602 215v-227l-41 65q-32 -31 -80 -48t-106 -17q-94 0 -162.5 44t-105.5 127t-37 196q0 115 37 202t105 134.5t159 47.5q45 0 86 -11.5t69 -31.5l54 39v-201l-46 75q-30 48 -73 74t-94 26q-68 0 -120.5 -44.5t-82 -125t-29.5 -184.5q0 -103 29.5 -179t84.5 -117t128 -41
q55 0 103 23t74 61v122l-77 71h164zM335 -264q26 22 40 55t11 64h-10q-19 0 -32.5 12.5t-13.5 30.5t13 31t32 13q24 0 39.5 -21t15.5 -53q0 -39 -23.5 -78t-62.5 -65z" />
    <glyph glyph-name="Gdotaccent" unicode="&#x120;" horiz-adv-x="691" 
d="M602 215v-227l-41 65q-32 -31 -80 -48t-106 -17q-94 0 -162.5 44t-105.5 127t-37 196q0 115 37 202t105 134.5t159 47.5q45 0 86 -11.5t69 -31.5l54 39v-201l-46 75q-30 48 -73 74t-94 26q-68 0 -120.5 -44.5t-82 -125t-29.5 -184.5q0 -103 29.5 -179t84.5 -117t128 -41
q55 0 103 23t74 61v122l-77 71h164zM329 827q-12 12 -12 30t12 30t30 12t30 -12t12 -30t-12 -30t-30 -12t-30 12z" />
    <glyph glyph-name="H" unicode="H" horiz-adv-x="717" 
d="M110 82v578l-58 65h155l-39 -82v-253h381v270l-58 65h155l-39 -82v-578l58 -65h-155l39 82v266h-381v-283l58 -65h-155z" />
    <glyph glyph-name="Hbar" unicode="&#x126;" horiz-adv-x="717" 
d="M110 82v415h-95v34h95v129l-58 65h155l-39 -82v-112h381v129l-58 65h155l-39 -82v-112h95v-34h-95v-432l58 -65h-155l39 82v266h-381v-283l58 -65h-155zM549 390v107h-381v-107h381z" />
    <glyph glyph-name="Hcircumflex" unicode="&#x124;" horiz-adv-x="717" 
d="M110 82v578l-58 65h155l-39 -82v-253h381v270l-58 65h155l-39 -82v-578l58 -65h-155l39 82v266h-381v-283l58 -65h-155zM502 778q-41 10 -74 25.5t-69 42.5q-36 -27 -69 -42.5t-74 -25.5v9q44 19 82.5 57t56.5 80h8q18 -42 57 -80.5t82 -56.5v-9z" />
    <glyph glyph-name="I" unicode="I" horiz-adv-x="278" 
d="M110 82v578l-58 65h155l-39 -82v-578l58 -65h-155z" />
    <glyph glyph-name="IJ" unicode="&#x132;" horiz-adv-x="636" 
d="M110 82v578l-58 65h155l-39 -82v-578l58 -65h-155zM478 660l-58 65h155l-39 -82v-465q0 -98 -35 -144t-110 -46q-40 0 -64 12t-24 33q0 14 10.5 22.5t28.5 8.5q11 0 22.5 -3.5t21.5 -8.5q11 -5 23.5 -9t24.5 -4q53 0 53 69q0 12 -4 50q-5 60 -5 86v416z" />
    <glyph glyph-name="Iacute" unicode="&#xcd;" horiz-adv-x="278" 
d="M110 82v578l-58 65h155l-39 -82v-578l58 -65h-155zM38 797q46 6 91 36.5t62 67.5q13 29 35 29q12 0 20.5 -8t8.5 -20q0 -14 -16 -31q-31 -33 -84.5 -56t-116.5 -27v9z" />
    <glyph glyph-name="Ibreve" unicode="&#x12c;" horiz-adv-x="278" 
d="M110 82v578l-58 65h155l-39 -82v-578l58 -65h-155zM53.5 816.5q-38.5 28.5 -52.5 73.5l7 6q25 -37 56.5 -54t74.5 -17t74.5 17t56.5 54l7 -6q-14 -45 -52.5 -73.5t-85.5 -28.5t-85.5 28.5z" />
    <glyph glyph-name="Icircumflex" unicode="&#xce;" horiz-adv-x="278" 
d="M110 82v578l-58 65h155l-39 -82v-578l58 -65h-155zM282 778q-41 10 -74 25.5t-69 42.5q-36 -27 -69 -42.5t-74 -25.5v9q44 19 82.5 57t56.5 80h8q18 -42 57 -80.5t82 -56.5v-9z" />
    <glyph glyph-name="Idieresis" unicode="&#xcf;" horiz-adv-x="278" 
d="M110 82v578l-58 65h155l-39 -82v-578l58 -65h-155zM73 865q10 -10 10 -26q0 -15 -10 -25t-25 -10q-16 0 -26 10t-10 25q0 16 10 26t26 10q15 0 25 -10zM252 865q10 -10 10 -26q0 -15 -10 -25t-25 -10q-16 0 -26 10t-10 25q0 16 10 26t26 10q15 0 25 -10z" />
    <glyph glyph-name="Idotaccent" unicode="&#x130;" horiz-adv-x="278" 
d="M110 82v578l-58 65h155l-39 -82v-578l58 -65h-155zM109 827q-12 12 -12 30t12 30t30 12t30 -12t12 -30t-12 -30t-30 -12t-30 12z" />
    <glyph glyph-name="Igrave" unicode="&#xcc;" horiz-adv-x="278" 
d="M110 82v578l-58 65h155l-39 -82v-578l58 -65h-155zM122.5 815q-53.5 23 -84.5 56q-16 17 -16 31q0 12 8 20t21 8q22 0 35 -29q17 -37 62 -67.5t91 -36.5v-9q-63 4 -116.5 27z" />
    <glyph glyph-name="Imacron" unicode="&#x12a;" horiz-adv-x="278" 
d="M110 82v578l-58 65h155l-39 -82v-578l58 -65h-155zM6 835h266v-29h-266v29z" />
    <glyph glyph-name="Iogonek" unicode="&#x12e;" horiz-adv-x="278" 
d="M110 82v578l-58 65h155l-39 -82v-578l58 -65h-59q-34 -46 -34 -110q0 -39 15.5 -61t50.5 -34l-5 -8q-48 1 -76 29t-28 74q0 32 13.5 60.5t38.5 49.5h-71z" />
    <glyph glyph-name="Itilde" unicode="&#x128;" horiz-adv-x="278" 
d="M110 82v578l-58 65h155l-39 -82v-578l58 -65h-155zM196 791q-32 0 -80 16q-4 1 -22.5 6.5t-34.5 5.5q-37 0 -40 -32l-11 4q1 64 71 64q31 0 79 -16q15 -5 30.5 -8.5t26.5 -3.5q18 0 29.5 8t13.5 24l11 -4q-1 -64 -73 -64z" />
    <glyph glyph-name="J" unicode="J" horiz-adv-x="358" 
d="M200 660l-58 65h155l-39 -82v-465q0 -98 -35 -144t-110 -46q-40 0 -64 12t-24 33q0 14 10.5 22.5t28.5 8.5q11 0 22.5 -3.5t21.5 -8.5q11 -5 23.5 -9t24.5 -4q53 0 53 69q0 12 -4 50q-5 60 -5 86v416z" />
    <glyph glyph-name="Jcircumflex" unicode="&#x134;" horiz-adv-x="358" 
d="M200 660l-58 65h155l-39 -82v-465q0 -98 -35 -144t-110 -46q-40 0 -64 12t-24 33q0 14 10.5 22.5t28.5 8.5q11 0 22.5 -3.5t21.5 -8.5q11 -5 23.5 -9t24.5 -4q53 0 53 69q0 12 -4 50q-5 60 -5 86v416zM382 778q-41 10 -74 25.5t-69 42.5q-36 -27 -69 -42.5t-74 -25.5v9
q44 19 82.5 57t56.5 80h8q18 -42 57 -80.5t82 -56.5v-9z" />
    <glyph glyph-name="K" unicode="K" horiz-adv-x="600" 
d="M110 82v578l-58 65h155l-39 -82v-291l299 302l-52 71h171l-308 -312l312 -413h-155l20 80l-215 294l-72 -73v-236l58 -65h-155z" />
    <glyph glyph-name="uni0136" unicode="&#x136;" horiz-adv-x="600" 
d="M110 82v578l-58 65h155l-39 -82v-291l299 302l-52 71h171l-308 -312l312 -413h-155l20 80l-215 294l-72 -73v-236l58 -65h-155zM296 -264q26 22 40 55t11 64h-10q-19 0 -32.5 12.5t-13.5 30.5t13 31t32 13q24 0 39.5 -21t15.5 -53q0 -39 -23.5 -78t-62.5 -65z" />
    <glyph glyph-name="L" unicode="L" horiz-adv-x="544" 
d="M110 82v578l-58 65h155l-39 -82v-601h250l96 124v-166h-443z" />
    <glyph glyph-name="Lacute" unicode="&#x139;" horiz-adv-x="544" 
d="M110 82v578l-58 65h155l-39 -82v-601h250l96 124v-166h-443zM38 797q46 6 91 36.5t62 67.5q13 29 35 29q12 0 20.5 -8t8.5 -20q0 -14 -16 -31q-31 -33 -84.5 -56t-116.5 -27v9z" />
    <glyph glyph-name="Lcaron" unicode="&#x13d;" horiz-adv-x="544" 
d="M110 82v578l-58 65h155l-39 -82v-601h250l96 124v-166h-443zM373 519q26 22 40 55t11 64h-10q-19 0 -32.5 12.5t-13.5 30.5t13 31t32 13q24 0 39.5 -21t15.5 -53q0 -39 -23.5 -78t-62.5 -65z" />
    <glyph glyph-name="uni013B" unicode="&#x13b;" horiz-adv-x="544" 
d="M110 82v578l-58 65h155l-39 -82v-601h250l96 124v-166h-443zM254 -264q26 22 40 55t11 64h-10q-19 0 -32.5 12.5t-13.5 30.5t13 31t32 13q24 0 39.5 -21t15.5 -53q0 -39 -23.5 -78t-62.5 -65z" />
    <glyph glyph-name="Ldot" unicode="&#x13f;" horiz-adv-x="544" 
d="M110 82v578l-58 65h155l-39 -82v-601h250l96 124v-166h-443zM327 352q-12 12 -12 30t12 30t30 12t30 -12t12 -30t-12 -30t-30 -12t-30 12z" />
    <glyph glyph-name="Lslash" unicode="&#x141;" horiz-adv-x="544" 
d="M110 82v236l-70 -26v37l70 26v305l-58 65h155l-39 -82v-267l190 69v-37l-190 -69v-297h250l96 124v-166h-443z" />
    <glyph glyph-name="M" unicode="M" horiz-adv-x="811" 
d="M110 82v578l-58 65h169l-17 -63l210 -539l198 540l-16 62h144l-39 -82v-578l58 -65h-155l39 82v548l-237 -642l-254 646v-569l58 -65h-139z" />
    <glyph glyph-name="N" unicode="N" horiz-adv-x="710" 
d="M110 82v578l-58 65h105l411 -578v513l-58 65h139l-39 -82v-655l-458 644v-567l58 -65h-139z" />
    <glyph glyph-name="Nacute" unicode="&#x143;" horiz-adv-x="710" 
d="M110 82v578l-58 65h105l411 -578v513l-58 65h139l-39 -82v-655l-458 644v-567l58 -65h-139zM269 797q46 6 91 36.5t62 67.5q13 29 35 29q12 0 20.5 -8t8.5 -20q0 -14 -16 -31q-31 -33 -84.5 -56t-116.5 -27v9z" />
    <glyph glyph-name="Ncaron" unicode="&#x147;" horiz-adv-x="710" 
d="M110 82v578l-58 65h105l411 -578v513l-58 65h139l-39 -82v-655l-458 644v-567l58 -65h-139zM439 888.5q33 15.5 74 25.5v-9q-44 -19 -82.5 -57t-56.5 -80h-8q-18 42 -57 80.5t-82 56.5v9q41 -10 74 -25.5t69 -42.5q36 27 69 42.5z" />
    <glyph glyph-name="uni0145" unicode="&#x145;" horiz-adv-x="710" 
d="M110 82v578l-58 65h105l411 -578v513l-58 65h139l-39 -82v-655l-458 644v-567l58 -65h-139zM316 -264q26 22 40 55t11 64h-10q-19 0 -32.5 12.5t-13.5 30.5t13 31t32 13q24 0 39.5 -21t15.5 -53q0 -39 -23.5 -78t-62.5 -65z" />
    <glyph glyph-name="Eng" unicode="&#x14a;" horiz-adv-x="710" 
d="M110 82v578l-58 65h105l411 -578v513l-58 65h139l-39 -82v-615q85 -46 85 -126q0 -57 -40 -91t-106 -34q-37 0 -56.5 10.5t-19.5 30.5q0 14 10 22t27 8q12 0 36 -8q9 -3 20 -6t22 -3q32 0 52 19t20 53q0 84 -139 97l28 74l-397 558v-567l58 -65h-139z" />
    <glyph glyph-name="Ntilde" unicode="&#xd1;" horiz-adv-x="710" 
d="M110 82v578l-58 65h105l411 -578v513l-58 65h139l-39 -82v-655l-458 644v-567l58 -65h-139zM427 791q-32 0 -80 16q-4 1 -22.5 6.5t-34.5 5.5q-37 0 -40 -32l-11 4q1 64 71 64q31 0 79 -16q15 -5 30.5 -8.5t26.5 -3.5q18 0 29.5 8t13.5 24l11 -4q-1 -64 -73 -64z" />
    <glyph glyph-name="O" unicode="O" horiz-adv-x="688" 
d="M76 566.5q36 83.5 104.5 128t162.5 44.5q145 0 225 -97.5t80 -273.5q0 -180 -80 -280t-225 -100q-95 0 -163 45t-104 130t-36 204q0 116 36 199.5zM555.5 545q-29.5 76 -84.5 117.5t-128 41.5t-127.5 -41t-83.5 -117t-29 -179q0 -165 62.5 -255t177.5 -90t178.5 90.5
t63.5 254.5q0 102 -29.5 178z" />
    <glyph glyph-name="Oacute" unicode="&#xd3;" horiz-adv-x="688" 
d="M76 566.5q36 83.5 104.5 128t162.5 44.5q145 0 225 -97.5t80 -273.5q0 -180 -80 -280t-225 -100q-95 0 -163 45t-104 130t-36 204q0 116 36 199.5zM555.5 545q-29.5 76 -84.5 117.5t-128 41.5t-127.5 -41t-83.5 -117t-29 -179q0 -165 62.5 -255t177.5 -90t178.5 90.5
t63.5 254.5q0 102 -29.5 178zM243 797q46 6 91 36.5t62 67.5q13 29 35 29q12 0 20.5 -8t8.5 -20q0 -14 -16 -31q-31 -33 -84.5 -56t-116.5 -27v9z" />
    <glyph glyph-name="Obreve" unicode="&#x14e;" horiz-adv-x="688" 
d="M76 566.5q36 83.5 104.5 128t162.5 44.5q145 0 225 -97.5t80 -273.5q0 -180 -80 -280t-225 -100q-95 0 -163 45t-104 130t-36 204q0 116 36 199.5zM555.5 545q-29.5 76 -84.5 117.5t-128 41.5t-127.5 -41t-83.5 -117t-29 -179q0 -165 62.5 -255t177.5 -90t178.5 90.5
t63.5 254.5q0 102 -29.5 178zM258.5 816.5q-38.5 28.5 -52.5 73.5l7 6q25 -37 56.5 -54t74.5 -17t74.5 17t56.5 54l7 -6q-14 -45 -52.5 -73.5t-85.5 -28.5t-85.5 28.5z" />
    <glyph glyph-name="Ocircumflex" unicode="&#xd4;" horiz-adv-x="688" 
d="M76 566.5q36 83.5 104.5 128t162.5 44.5q145 0 225 -97.5t80 -273.5q0 -180 -80 -280t-225 -100q-95 0 -163 45t-104 130t-36 204q0 116 36 199.5zM555.5 545q-29.5 76 -84.5 117.5t-128 41.5t-127.5 -41t-83.5 -117t-29 -179q0 -165 62.5 -255t177.5 -90t178.5 90.5
t63.5 254.5q0 102 -29.5 178zM487 778q-41 10 -74 25.5t-69 42.5q-36 -27 -69 -42.5t-74 -25.5v9q44 19 82.5 57t56.5 80h8q18 -42 57 -80.5t82 -56.5v-9z" />
    <glyph glyph-name="Odieresis" unicode="&#xd6;" horiz-adv-x="688" 
d="M76 566.5q36 83.5 104.5 128t162.5 44.5q145 0 225 -97.5t80 -273.5q0 -180 -80 -280t-225 -100q-95 0 -163 45t-104 130t-36 204q0 116 36 199.5zM555.5 545q-29.5 76 -84.5 117.5t-128 41.5t-127.5 -41t-83.5 -117t-29 -179q0 -165 62.5 -255t177.5 -90t178.5 90.5
t63.5 254.5q0 102 -29.5 178zM219.5 814q-10.5 10 -10.5 25q0 16 10.5 26t25.5 10t25 -10t10 -26t-10 -25.5t-25 -9.5t-25.5 10zM418.5 814q-10.5 10 -10.5 25q0 16 10.5 26t25.5 10t25 -10t10 -26t-10 -25.5t-25 -9.5t-25.5 10z" />
    <glyph glyph-name="Ograve" unicode="&#xd2;" horiz-adv-x="688" 
d="M76 566.5q36 83.5 104.5 128t162.5 44.5q145 0 225 -97.5t80 -273.5q0 -180 -80 -280t-225 -100q-95 0 -163 45t-104 130t-36 204q0 116 36 199.5zM555.5 545q-29.5 76 -84.5 117.5t-128 41.5t-127.5 -41t-83.5 -117t-29 -179q0 -165 62.5 -255t177.5 -90t178.5 90.5
t63.5 254.5q0 102 -29.5 178zM327.5 815q-53.5 23 -84.5 56q-16 17 -16 31q0 12 8 20t21 8q22 0 35 -29q17 -37 62 -67.5t91 -36.5v-9q-63 4 -116.5 27z" />
    <glyph glyph-name="Ohungarumlaut" unicode="&#x150;" horiz-adv-x="688" 
d="M76 566.5q36 83.5 104.5 128t162.5 44.5q145 0 225 -97.5t80 -273.5q0 -180 -80 -280t-225 -100q-95 0 -163 45t-104 130t-36 204q0 116 36 199.5zM555.5 545q-29.5 76 -84.5 117.5t-128 41.5t-127.5 -41t-83.5 -117t-29 -179q0 -165 62.5 -255t177.5 -90t178.5 90.5
t63.5 254.5q0 102 -29.5 178zM245 794q17 17 31 43.5t18 48.5q6 34 32 34q11 0 18.5 -7t7.5 -19q0 -16 -14 -36q-15 -21 -39.5 -40.5t-48.5 -29.5zM375 794q17 17 31 43.5t18 48.5q6 34 32 34q11 0 18.5 -7t7.5 -19q0 -16 -14 -36q-15 -21 -39.5 -40.5t-48.5 -29.5z" />
    <glyph glyph-name="Omacron" unicode="&#x14c;" horiz-adv-x="688" 
d="M76 566.5q36 83.5 104.5 128t162.5 44.5q145 0 225 -97.5t80 -273.5q0 -180 -80 -280t-225 -100q-95 0 -163 45t-104 130t-36 204q0 116 36 199.5zM555.5 545q-29.5 76 -84.5 117.5t-128 41.5t-127.5 -41t-83.5 -117t-29 -179q0 -165 62.5 -255t177.5 -90t178.5 90.5
t63.5 254.5q0 102 -29.5 178zM211 835h266v-29h-266v29z" />
    <glyph glyph-name="Oslash" unicode="&#xd8;" horiz-adv-x="688" 
d="M149 57l-43 -57h-48l65 85q-83 100 -83 282q0 116 36 199.5t104.5 128t162.5 44.5q134 0 214 -85l54 71h48l-78 -102q67 -94 67 -255q0 -180 -80 -280t-225 -100q-117 0 -194 69zM155 128l367 481q-32 46 -77.5 70.5t-101.5 24.5q-73 0 -127.5 -41t-83.5 -117t-29 -179
q0 -150 52 -239zM521.5 112.5q63.5 90.5 63.5 254.5q0 122 -42 206l-364 -478q61 -73 164 -73q115 0 178.5 90.5z" />
    <glyph glyph-name="Otilde" unicode="&#xd5;" horiz-adv-x="688" 
d="M76 566.5q36 83.5 104.5 128t162.5 44.5q145 0 225 -97.5t80 -273.5q0 -180 -80 -280t-225 -100q-95 0 -163 45t-104 130t-36 204q0 116 36 199.5zM555.5 545q-29.5 76 -84.5 117.5t-128 41.5t-127.5 -41t-83.5 -117t-29 -179q0 -165 62.5 -255t177.5 -90t178.5 90.5
t63.5 254.5q0 102 -29.5 178zM401 791q-32 0 -80 16q-4 1 -22.5 6.5t-34.5 5.5q-37 0 -40 -32l-11 4q1 64 71 64q31 0 79 -16q15 -5 30.5 -8.5t26.5 -3.5q18 0 29.5 8t13.5 24l11 -4q-1 -64 -73 -64z" />
    <glyph glyph-name="OE" unicode="&#x152;" horiz-adv-x="952" 
d="M715 345h-189v-303h278l88 99v-141h-492q-173 0 -266.5 94t-93.5 265q0 174 95 270t265 96h442v-131l-78 89h-238v-296h194l59 53v-149zM468 42v641h-68q-147 0 -222 -82t-75 -246q0 -161 72 -237t225 -76h68z" />
    <glyph glyph-name="P" unicode="P" horiz-adv-x="569" 
d="M110 82v578l-58 65h235q119 0 185.5 -56t66.5 -156q0 -113 -92 -170.5t-279 -58.5v-219l58 -65h-155zM168 685v-367q164 3 237.5 48t73.5 142q0 85 -50.5 131t-144.5 46h-116z" />
    <glyph glyph-name="Thorn" unicode="&#xde;" horiz-adv-x="529" 
d="M110 82v578l-58 65h155l-39 -82v-99h124q100 0 158.5 -46t58.5 -125q0 -84 -68.5 -128t-197.5 -44q-36 0 -75 3v-139l58 -65h-155zM168 504v-261q50 -6 91 -6q191 0 191 138q0 64 -40.5 96.5t-120.5 32.5h-121z" />
    <glyph glyph-name="Q" unicode="Q" horiz-adv-x="688" 
d="M548.5 -209.5q-32.5 -13.5 -91.5 -13.5q-94 0 -148.5 35t-54.5 95q0 26 10.5 49t27.5 36q-120 17 -185.5 115t-65.5 260q0 116 36 199.5t104.5 128t162.5 44.5q145 0 225 -97.5t80 -273.5q0 -104 -32.5 -186.5t-93 -133t-141.5 -60.5q-47 -6 -69.5 -23.5t-22.5 -48.5
q0 -38 31 -64t77 -26q22 0 41.5 5.5t44.5 15.5q36 16 57 16q18 0 29 -9.5t11 -24.5q0 -25 -32.5 -38.5zM521.5 112.5q63.5 90.5 63.5 254.5q0 102 -29.5 178t-84.5 117.5t-128 41.5t-127.5 -41t-83.5 -117t-29 -179q0 -165 62.5 -255t177.5 -90t178.5 90.5z" />
    <glyph glyph-name="R" unicode="R" horiz-adv-x="573" 
d="M110 82v578l-58 65h225q122 0 185 -43.5t63 -128.5q0 -82 -59 -135t-172 -72q128 -29 190 -217q17 -51 33 -69.5t46 -18.5q-4 -47 -51 -47q-33 0 -52 26t-34 88q-30 122 -90 175t-168 53v-271l58 -65h-155zM168 685v-312h45q117 0 186 47t69 127q0 67 -50 102.5
t-144 35.5h-106z" />
    <glyph glyph-name="Racute" unicode="&#x154;" horiz-adv-x="573" 
d="M110 82v578l-58 65h225q122 0 185 -43.5t63 -128.5q0 -82 -59 -135t-172 -72q128 -29 190 -217q17 -51 33 -69.5t46 -18.5q-4 -47 -51 -47q-33 0 -52 26t-34 88q-30 122 -90 175t-168 53v-271l58 -65h-155zM168 685v-312h45q117 0 186 47t69 127q0 67 -50 102.5
t-144 35.5h-106zM203 797q46 6 91 36.5t62 67.5q13 29 35 29q12 0 20.5 -8t8.5 -20q0 -14 -16 -31q-31 -33 -84.5 -56t-116.5 -27v9z" />
    <glyph glyph-name="Rcaron" unicode="&#x158;" horiz-adv-x="573" 
d="M110 82v578l-58 65h225q122 0 185 -43.5t63 -128.5q0 -82 -59 -135t-172 -72q128 -29 190 -217q17 -51 33 -69.5t46 -18.5q-4 -47 -51 -47q-33 0 -52 26t-34 88q-30 122 -90 175t-168 53v-271l58 -65h-155zM168 685v-312h45q117 0 186 47t69 127q0 67 -50 102.5
t-144 35.5h-106zM373 888.5q33 15.5 74 25.5v-9q-44 -19 -82.5 -57t-56.5 -80h-8q-18 42 -57 80.5t-82 56.5v9q41 -10 74 -25.5t69 -42.5q36 27 69 42.5z" />
    <glyph glyph-name="uni0156" unicode="&#x156;" horiz-adv-x="573" 
d="M110 82v578l-58 65h225q122 0 185 -43.5t63 -128.5q0 -82 -59 -135t-172 -72q128 -29 190 -217q17 -51 33 -69.5t46 -18.5q-4 -47 -51 -47q-33 0 -52 26t-34 88q-30 122 -90 175t-168 53v-271l58 -65h-155zM168 685v-312h45q117 0 186 47t69 127q0 67 -50 102.5
t-144 35.5h-106zM272 -264q26 22 40 55t11 64h-10q-19 0 -32.5 12.5t-13.5 30.5t13 31t32 13q24 0 39.5 -21t15.5 -53q0 -39 -23.5 -78t-62.5 -65z" />
    <glyph glyph-name="S" unicode="S" horiz-adv-x="618" 
d="M157 102q63 -35 121.5 -54t101.5 -19q61 0 97 36t36 97q0 36 -15 62t-51 50.5t-103 54.5l-98 44q-97 44 -141.5 93t-44.5 113q0 71 47.5 115.5t124.5 44.5q49 0 99.5 -19t95.5 -55l89 60v-162l-67 47q-125 89 -220 89q-54 0 -83.5 -29.5t-29.5 -80.5q0 -50 35 -85.5
t126 -75.5l97 -43q105 -46 149.5 -94t44.5 -113q0 -54 -26.5 -97.5t-73 -68t-104.5 -24.5q-50 0 -104 18t-100 50l-83 -66v157z" />
    <glyph glyph-name="Sacute" unicode="&#x15a;" horiz-adv-x="618" 
d="M157 102q63 -35 121.5 -54t101.5 -19q61 0 97 36t36 97q0 36 -15 62t-51 50.5t-103 54.5l-98 44q-97 44 -141.5 93t-44.5 113q0 71 47.5 115.5t124.5 44.5q49 0 99.5 -19t95.5 -55l89 60v-162l-67 47q-125 89 -220 89q-54 0 -83.5 -29.5t-29.5 -80.5q0 -50 35 -85.5
t126 -75.5l97 -43q105 -46 149.5 -94t44.5 -113q0 -54 -26.5 -97.5t-73 -68t-104.5 -24.5q-50 0 -104 18t-100 50l-83 -66v157zM191 797q46 6 91 36.5t62 67.5q13 29 35 29q12 0 20.5 -8t8.5 -20q0 -14 -16 -31q-31 -33 -84.5 -56t-116.5 -27v9z" />
    <glyph glyph-name="Scaron" unicode="&#x160;" horiz-adv-x="618" 
d="M157 102q63 -35 121.5 -54t101.5 -19q61 0 97 36t36 97q0 36 -15 62t-51 50.5t-103 54.5l-98 44q-97 44 -141.5 93t-44.5 113q0 71 47.5 115.5t124.5 44.5q49 0 99.5 -19t95.5 -55l89 60v-162l-67 47q-125 89 -220 89q-54 0 -83.5 -29.5t-29.5 -80.5q0 -50 35 -85.5
t126 -75.5l97 -43q105 -46 149.5 -94t44.5 -113q0 -54 -26.5 -97.5t-73 -68t-104.5 -24.5q-50 0 -104 18t-100 50l-83 -66v157zM361 888.5q33 15.5 74 25.5v-9q-44 -19 -82.5 -57t-56.5 -80h-8q-18 42 -57 80.5t-82 56.5v9q41 -10 74 -25.5t69 -42.5q36 27 69 42.5z" />
    <glyph glyph-name="Scedilla" unicode="&#x15e;" horiz-adv-x="618" 
d="M361 -12l-23 -51q41 -6 65 -29t24 -55q0 -38 -33 -62t-83 -24q-26 0 -56 8l2 9q22 -3 40 -3q44 0 67.5 16.5t23.5 47.5q0 62 -98 62l43 83q-44 4 -89 21.5t-84 44.5l-83 -66v157l80 -45q63 -35 121.5 -54t101.5 -19q61 0 97 36t36 97q0 36 -15 62t-51 50.5t-103 54.5
l-98 44q-97 44 -141.5 93t-44.5 113q0 71 47.5 115.5t124.5 44.5q49 0 99.5 -19t95.5 -55l89 60v-162l-67 47q-125 89 -220 89q-54 0 -83.5 -29.5t-29.5 -80.5q0 -50 35 -85.5t126 -75.5l97 -43q105 -46 149.5 -94t44.5 -113q0 -54 -26.5 -97.5t-73 -68t-104.5 -24.5h-3z
" />
    <glyph glyph-name="Scircumflex" unicode="&#x15c;" horiz-adv-x="618" 
d="M157 102q63 -35 121.5 -54t101.5 -19q61 0 97 36t36 97q0 36 -15 62t-51 50.5t-103 54.5l-98 44q-97 44 -141.5 93t-44.5 113q0 71 47.5 115.5t124.5 44.5q49 0 99.5 -19t95.5 -55l89 60v-162l-67 47q-125 89 -220 89q-54 0 -83.5 -29.5t-29.5 -80.5q0 -50 35 -85.5
t126 -75.5l97 -43q105 -46 149.5 -94t44.5 -113q0 -54 -26.5 -97.5t-73 -68t-104.5 -24.5q-50 0 -104 18t-100 50l-83 -66v157zM435 778q-41 10 -74 25.5t-69 42.5q-36 -27 -69 -42.5t-74 -25.5v9q44 19 82.5 57t56.5 80h8q18 -42 57 -80.5t82 -56.5v-9z" />
    <glyph glyph-name="uni0218" unicode="&#x218;" horiz-adv-x="618" 
d="M157 102q63 -35 121.5 -54t101.5 -19q61 0 97 36t36 97q0 36 -15 62t-51 50.5t-103 54.5l-98 44q-97 44 -141.5 93t-44.5 113q0 71 47.5 115.5t124.5 44.5q49 0 99.5 -19t95.5 -55l89 60v-162l-67 47q-125 89 -220 89q-54 0 -83.5 -29.5t-29.5 -80.5q0 -50 35 -85.5
t126 -75.5l97 -43q105 -46 149.5 -94t44.5 -113q0 -54 -26.5 -97.5t-73 -68t-104.5 -24.5q-50 0 -104 18t-100 50l-83 -66v157zM313 -264q26 22 40 55t11 64h-10q-19 0 -32.5 12.5t-13.5 30.5t13 31t32 13q24 0 39.5 -21t15.5 -53q0 -39 -23.5 -78t-62.5 -65z" />
    <glyph glyph-name="uni1E9E" unicode="&#x1e9e;" horiz-adv-x="694" 
d="M110 82v408h-97v40h98q8 104 67.5 156.5t168.5 52.5q80 0 140.5 -29.5t106.5 -90.5l-206 -159q131 0 203.5 -64.5t72.5 -177.5q0 -67 -24.5 -118.5t-67.5 -80.5t-95 -29q-62 0 -111 40l-111 -40v160l66 -55q80 -67 150 -67q60 0 95 48t35 139q0 79 -30 125.5t-95.5 67.5
t-175.5 21l234 181q-37 52 -84.5 76t-110.5 24q-92 0 -132.5 -52t-40.5 -169v-489h-95z" />
    <glyph glyph-name="T" unicode="T" horiz-adv-x="574" 
d="M259 82v601h-147l-82 -94v136h514v-136l-82 94h-145v-618l58 -65h-155z" />
    <glyph glyph-name="Tbar" unicode="&#x166;" horiz-adv-x="574" 
d="M259 82v285h-128v34h128v282h-147l-82 -94v136h514v-136l-82 94h-145v-282h128v-34h-128v-302l58 -65h-155z" />
    <glyph glyph-name="Tcaron" unicode="&#x164;" horiz-adv-x="574" 
d="M259 82v601h-147l-82 -94v136h514v-136l-82 94h-145v-618l58 -65h-155zM356 888.5q33 15.5 74 25.5v-9q-44 -19 -82.5 -57t-56.5 -80h-8q-18 42 -57 80.5t-82 56.5v9q41 -10 74 -25.5t69 -42.5q36 27 69 42.5z" />
    <glyph glyph-name="uni0162" unicode="&#x162;" horiz-adv-x="574" 
d="M544 725v-136l-82 94h-145v-618l58 -65h-78l-29 -63q41 -6 65 -29t24 -55q0 -38 -33 -62t-83 -24q-26 0 -56 8l2 9q23 -3 40 -3q44 0 67.5 16.5t23.5 47.5q0 62 -98 62l48 93h-48l39 82v601h-147l-82 -94v136h514z" />
    <glyph glyph-name="uni021A" unicode="&#x21a;" horiz-adv-x="574" 
d="M259 82v601h-147l-82 -94v136h514v-136l-82 94h-145v-618l58 -65h-155zM243 -264q26 22 40 55t11 64h-10q-19 0 -32.5 12.5t-13.5 30.5t13 31t32 13q24 0 39.5 -21t15.5 -53q0 -39 -23.5 -78t-62.5 -65z" />
    <glyph glyph-name="U" unicode="U" horiz-adv-x="676" 
d="M100 660l-58 65h155l-39 -82v-376q0 -114 49.5 -172.5t147.5 -58.5q97 0 144 59t47 182v383l-58 65h137l-39 -82v-366q0 -289 -241 -289q-120 0 -182.5 70.5t-62.5 203.5v398z" />
    <glyph glyph-name="Uacute" unicode="&#xda;" horiz-adv-x="676" 
d="M100 660l-58 65h155l-39 -82v-376q0 -114 49.5 -172.5t147.5 -58.5q97 0 144 59t47 182v383l-58 65h137l-39 -82v-366q0 -289 -241 -289q-120 0 -182.5 70.5t-62.5 203.5v398zM247 797q46 6 91 36.5t62 67.5q13 29 35 29q12 0 20.5 -8t8.5 -20q0 -14 -16 -31
q-31 -33 -84.5 -56t-116.5 -27v9z" />
    <glyph glyph-name="Ubreve" unicode="&#x16c;" horiz-adv-x="676" 
d="M100 660l-58 65h155l-39 -82v-376q0 -114 49.5 -172.5t147.5 -58.5q97 0 144 59t47 182v383l-58 65h137l-39 -82v-366q0 -289 -241 -289q-120 0 -182.5 70.5t-62.5 203.5v398zM262.5 816.5q-38.5 28.5 -52.5 73.5l7 6q25 -37 56.5 -54t74.5 -17t74.5 17t56.5 54l7 -6
q-14 -45 -52.5 -73.5t-85.5 -28.5t-85.5 28.5z" />
    <glyph glyph-name="Ucircumflex" unicode="&#xdb;" horiz-adv-x="676" 
d="M100 660l-58 65h155l-39 -82v-376q0 -114 49.5 -172.5t147.5 -58.5q97 0 144 59t47 182v383l-58 65h137l-39 -82v-366q0 -289 -241 -289q-120 0 -182.5 70.5t-62.5 203.5v398zM491 778q-41 10 -74 25.5t-69 42.5q-36 -27 -69 -42.5t-74 -25.5v9q44 19 82.5 57t56.5 80h8
q18 -42 57 -80.5t82 -56.5v-9z" />
    <glyph glyph-name="Udieresis" unicode="&#xdc;" horiz-adv-x="676" 
d="M100 660l-58 65h155l-39 -82v-376q0 -114 49.5 -172.5t147.5 -58.5q97 0 144 59t47 182v383l-58 65h137l-39 -82v-366q0 -289 -241 -289q-120 0 -182.5 70.5t-62.5 203.5v398zM223.5 814q-10.5 10 -10.5 25q0 16 10.5 26t25.5 10t25 -10t10 -26t-10 -25.5t-25 -9.5
t-25.5 10zM422.5 814q-10.5 10 -10.5 25q0 16 10.5 26t25.5 10t25 -10t10 -26t-10 -25.5t-25 -9.5t-25.5 10z" />
    <glyph glyph-name="Ugrave" unicode="&#xd9;" horiz-adv-x="676" 
d="M100 660l-58 65h155l-39 -82v-376q0 -114 49.5 -172.5t147.5 -58.5q97 0 144 59t47 182v383l-58 65h137l-39 -82v-366q0 -289 -241 -289q-120 0 -182.5 70.5t-62.5 203.5v398zM331.5 815q-53.5 23 -84.5 56q-16 17 -16 31q0 12 8 20t21 8q22 0 35 -29q17 -37 62 -67.5
t91 -36.5v-9q-63 4 -116.5 27z" />
    <glyph glyph-name="Uhungarumlaut" unicode="&#x170;" horiz-adv-x="676" 
d="M100 660l-58 65h155l-39 -82v-376q0 -114 49.5 -172.5t147.5 -58.5q97 0 144 59t47 182v383l-58 65h137l-39 -82v-366q0 -289 -241 -289q-120 0 -182.5 70.5t-62.5 203.5v398zM249 794q17 17 31 43.5t18 48.5q6 34 32 34q11 0 18.5 -7t7.5 -19q0 -16 -14 -36
q-15 -21 -39.5 -40.5t-48.5 -29.5zM379 794q17 17 31 43.5t18 48.5q6 34 32 34q11 0 18.5 -7t7.5 -19q0 -16 -14 -36q-15 -21 -39.5 -40.5t-48.5 -29.5z" />
    <glyph glyph-name="Umacron" unicode="&#x16a;" horiz-adv-x="676" 
d="M100 660l-58 65h155l-39 -82v-376q0 -114 49.5 -172.5t147.5 -58.5q97 0 144 59t47 182v383l-58 65h137l-39 -82v-366q0 -289 -241 -289q-120 0 -182.5 70.5t-62.5 203.5v398zM215 835h266v-29h-266v29z" />
    <glyph glyph-name="Uogonek" unicode="&#x172;" horiz-adv-x="676" 
d="M100 660l-58 65h155l-39 -82v-376q0 -115 49.5 -173t147.5 -58q97 0 144 59t47 182v383l-58 65h137l-39 -82v-366q0 -93 -23 -153t-71 -98q-67 -53 -67 -135q0 -39 15.5 -61t50.5 -34l-5 -8q-48 1 -76 29t-28 74q0 31 13 59t38 50q-39 -12 -88 -12q-119 0 -182 70.5
t-63 203.5v398z" />
    <glyph glyph-name="Uring" unicode="&#x16e;" horiz-adv-x="676" 
d="M100 660l-58 65h155l-39 -82v-376q0 -114 49.5 -172.5t147.5 -58.5q97 0 144 59t47 182v383l-58 65h137l-39 -82v-366q0 -289 -241 -289q-120 0 -182.5 70.5t-62.5 203.5v398zM290.5 792q-22.5 23 -22.5 57t22.5 57t56.5 23q35 0 58 -23t23 -57t-23 -57t-58 -23
q-34 0 -56.5 23zM391 804.5q18 17.5 18 44.5t-18 44.5t-45 17.5q-26 0 -43.5 -17.5t-17.5 -44.5t17.5 -44.5t43.5 -17.5q27 0 45 17.5z" />
    <glyph glyph-name="Utilde" unicode="&#x168;" horiz-adv-x="676" 
d="M100 660l-58 65h155l-39 -82v-376q0 -114 49.5 -172.5t147.5 -58.5q97 0 144 59t47 182v383l-58 65h137l-39 -82v-366q0 -289 -241 -289q-120 0 -182.5 70.5t-62.5 203.5v398zM405 791q-32 0 -80 16q-4 1 -22.5 6.5t-34.5 5.5q-37 0 -40 -32l-11 4q1 64 71 64
q31 0 79 -16q15 -5 30.5 -8.5t26.5 -3.5q18 0 29.5 8t13.5 24l11 -4q-1 -64 -73 -64z" />
    <glyph glyph-name="V" unicode="V" horiz-adv-x="591" 
d="M72 642l-72 83h168l-35 -75l191 -584l179 579l-71 80h149l-31 -67l-204 -658h-64z" />
    <glyph glyph-name="W" unicode="W" horiz-adv-x="896" 
d="M133 650l179 -581l124 417l-50 156l-71 83h163l-35 -75l187 -590l178 585l-71 80h149l-30 -66l-202 -659h-64l-132 418l-125 -418h-64l-198 642l-71 83h168z" />
    <glyph glyph-name="Wacute" unicode="&#x1e82;" horiz-adv-x="896" 
d="M133 650l179 -581l124 417l-50 156l-71 83h163l-35 -75l187 -590l178 585l-71 80h149l-30 -66l-202 -659h-64l-132 418l-125 -418h-64l-198 642l-71 83h168zM340 797q46 6 91 36.5t62 67.5q13 29 35 29q12 0 20.5 -8t8.5 -20q0 -14 -16 -31q-31 -33 -84.5 -56t-116.5 -27
v9z" />
    <glyph glyph-name="Wcircumflex" unicode="&#x174;" horiz-adv-x="896" 
d="M133 650l179 -581l124 417l-50 156l-71 83h163l-35 -75l187 -590l178 585l-71 80h149l-30 -66l-202 -659h-64l-132 418l-125 -418h-64l-198 642l-71 83h168zM584 778q-41 10 -74 25.5t-69 42.5q-36 -27 -69 -42.5t-74 -25.5v9q44 19 82.5 57t56.5 80h8q18 -42 57 -80.5
t82 -56.5v-9z" />
    <glyph glyph-name="Wdieresis" unicode="&#x1e84;" horiz-adv-x="896" 
d="M290.5 814q-10.5 10 -10.5 25q0 16 10.5 26t25.5 10t25 -10t10 -26q0 -15 -10.5 -25t-24.5 -10q-15 0 -25.5 10zM534.5 814q-10.5 10 -10.5 25q0 16 10.5 26t25.5 10t25 -10t10 -26q0 -15 -10.5 -25t-24.5 -10q-15 0 -25.5 10zM133 650l179 -581l124 417l-50 156l-71 83
h163l-35 -75l187 -590l178 585l-71 80h149l-30 -66l-202 -659h-64l-132 418l-125 -418h-64l-198 642l-71 83h168z" />
    <glyph glyph-name="Wgrave" unicode="&#x1e80;" horiz-adv-x="896" 
d="M133 650l179 -581l124 417l-50 156l-71 83h163l-35 -75l187 -590l178 585l-71 80h149l-30 -66l-202 -659h-64l-132 418l-125 -418h-64l-198 642l-71 83h168zM424.5 815q-53.5 23 -84.5 56q-16 17 -16 31q0 12 8 20t21 8q22 0 35 -29q17 -37 62 -67.5t91 -36.5v-9
q-63 4 -116.5 27z" />
    <glyph glyph-name="X" unicode="X" horiz-adv-x="577" 
d="M0 0l252 360l-246 365h164l-40 -79l165 -243l174 257l-61 65h155l-245 -357l249 -368h-164l40 79l-167 247l-178 -258l63 -68h-161z" />
    <glyph glyph-name="Y" unicode="Y" horiz-adv-x="574" 
d="M266 82v270l-190 284l-76 89h179l-39 -80l167 -251l169 265l-60 66h148l-240 -378v-282l58 -65h-155z" />
    <glyph glyph-name="Yacute" unicode="&#xdd;" horiz-adv-x="574" 
d="M266 82v270l-190 284l-76 89h179l-39 -80l167 -251l169 265l-60 66h148l-240 -378v-282l58 -65h-155zM207 797q46 6 91 36.5t62 67.5q13 29 35 29q12 0 20.5 -8t8.5 -20q0 -14 -16 -31q-31 -33 -84.5 -56t-116.5 -27v9z" />
    <glyph glyph-name="Ycircumflex" unicode="&#x176;" horiz-adv-x="574" 
d="M266 82v270l-190 284l-76 89h179l-39 -80l167 -251l169 265l-60 66h148l-240 -378v-282l58 -65h-155zM451 778q-41 10 -74 25.5t-69 42.5q-36 -27 -69 -42.5t-74 -25.5v9q44 19 82.5 57t56.5 80h8q18 -42 57 -80.5t82 -56.5v-9z" />
    <glyph glyph-name="Ydieresis" unicode="&#x178;" horiz-adv-x="574" 
d="M266 82v270l-190 284l-76 89h179l-39 -80l167 -251l169 265l-60 66h148l-240 -378v-282l58 -65h-155zM183.5 814q-10.5 10 -10.5 25q0 16 10.5 26t25.5 10t25 -10t10 -26t-10 -25.5t-25 -9.5t-25.5 10zM382.5 814q-10.5 10 -10.5 25q0 16 10.5 26t25.5 10t25 -10t10 -26
t-10 -25.5t-25 -9.5t-25.5 10z" />
    <glyph glyph-name="Ygrave" unicode="&#x1ef2;" horiz-adv-x="574" 
d="M266 82v270l-190 284l-76 89h179l-39 -80l167 -251l169 265l-60 66h148l-240 -378v-282l58 -65h-155zM291.5 815q-53.5 23 -84.5 56q-16 17 -16 31q0 12 8 20t21 8q22 0 35 -29q17 -37 62 -67.5t91 -36.5v-9q-63 4 -116.5 27z" />
    <glyph glyph-name="Z" unicode="Z" horiz-adv-x="652" 
d="M93 725h498l-446 -685h335l112 122v-162h-542l446 685h-298l-105 -122v162z" />
    <glyph glyph-name="Zacute" unicode="&#x179;" horiz-adv-x="652" 
d="M93 725h498l-446 -685h335l112 122v-162h-542l446 685h-298l-105 -122v162zM247 797q46 6 91 36.5t62 67.5q13 29 35 29q12 0 20.5 -8t8.5 -20q0 -14 -16 -31q-31 -33 -84.5 -56t-116.5 -27v9z" />
    <glyph glyph-name="Zcaron" unicode="&#x17d;" horiz-adv-x="652" 
d="M93 725h498l-446 -685h335l112 122v-162h-542l446 685h-298l-105 -122v162zM417 888.5q33 15.5 74 25.5v-9q-44 -19 -82.5 -57t-56.5 -80h-8q-18 42 -57 80.5t-82 56.5v9q41 -10 74 -25.5t69 -42.5q36 27 69 42.5z" />
    <glyph glyph-name="Zdotaccent" unicode="&#x17b;" horiz-adv-x="652" 
d="M93 725h498l-446 -685h335l112 122v-162h-542l446 685h-298l-105 -122v162zM318 827q-12 12 -12 30t12 30t30 12t30 -12t12 -30t-12 -30t-30 -12t-30 12z" />
    <glyph glyph-name="uni01B5" unicode="&#x1b5;" horiz-adv-x="652" 
d="M592 162v-162h-542l225 346h-145v34h167l199 305h-298l-105 -122v162h498l-225 -345h145v-34h-167l-199 -306h335z" />
    <glyph glyph-name="R.ss03" horiz-adv-x="639" 
d="M113 90v559l-58 76h225q125 0 193 -44.5t68 -127.5t-69.5 -139t-196.5 -75q70 -4 111 -34q34 -25 55 -70t31 -115q8 -57 21.5 -79.5t38.5 -22.5q17 0 25 9t8 29q0 13 -3 23.5t-9 24.5q-9 20 -9 34q0 16 9 26t24 10q39 0 39 -75q0 -111 -93 -111q-49 0 -76.5 34t-41.5 114
q-13 74 -38.5 114t-71.5 57t-124 17v-252l58 -72h-155zM171 685v-320q154 1 230.5 47t76.5 138q0 71 -48 103t-153 32h-106z" />
    <glyph glyph-name="Racute.ss03" horiz-adv-x="639" 
d="M113 90v559l-58 76h225q125 0 193 -44.5t68 -127.5t-69.5 -139t-196.5 -75q70 -4 111 -34q34 -25 55 -70t31 -115q8 -57 21.5 -79.5t38.5 -22.5q17 0 25 9t8 29q0 13 -3 23.5t-9 24.5q-9 20 -9 34q0 16 9 26t24 10q39 0 39 -75q0 -111 -93 -111q-49 0 -76.5 34t-41.5 114
q-13 74 -38.5 114t-71.5 57t-124 17v-252l58 -72h-155zM171 685v-320q154 1 230.5 47t76.5 138q0 71 -48 103t-153 32h-106zM219 797q46 6 91 36.5t62 67.5q13 29 35 29q12 0 20.5 -8t8.5 -20q0 -14 -16 -31q-31 -33 -84.5 -56t-116.5 -27v9z" />
    <glyph glyph-name="Rcaron.ss03" horiz-adv-x="639" 
d="M113 90v559l-58 76h225q125 0 193 -44.5t68 -127.5t-69.5 -139t-196.5 -75q70 -4 111 -34q34 -25 55 -70t31 -115q8 -57 21.5 -79.5t38.5 -22.5q17 0 25 9t8 29q0 13 -3 23.5t-9 24.5q-9 20 -9 34q0 16 9 26t24 10q39 0 39 -75q0 -111 -93 -111q-49 0 -76.5 34t-41.5 114
q-13 74 -38.5 114t-71.5 57t-124 17v-252l58 -72h-155zM171 685v-320q154 1 230.5 47t76.5 138q0 71 -48 103t-153 32h-106zM389 888.5q33 15.5 74 25.5v-9q-44 -19 -82.5 -57t-56.5 -80h-8q-18 42 -57 80.5t-82 56.5v9q41 -10 74 -25.5t69 -42.5q36 27 69 42.5z" />
    <glyph glyph-name="uni0156.ss03" horiz-adv-x="639" 
d="M113 90v559l-58 76h225q125 0 193 -44.5t68 -127.5t-69.5 -139t-196.5 -75q70 -4 111 -34q34 -25 55 -70t31 -115q8 -57 21.5 -79.5t38.5 -22.5q17 0 25 9t8 29q0 13 -3 23.5t-9 24.5q-9 20 -9 34q0 16 9 26t24 10q39 0 39 -75q0 -111 -93 -111q-49 0 -76.5 34t-41.5 114
q-13 74 -38.5 114t-71.5 57t-124 17v-252l58 -72h-155zM171 685v-320q154 1 230.5 47t76.5 138q0 71 -48 103t-153 32h-106zM295 -264q26 22 40 55t11 64h-10q-19 0 -32.5 12.5t-13.5 30.5t13 31t32 13q24 0 39.5 -21t15.5 -53q0 -39 -23.5 -78t-62.5 -65z" />
    <glyph glyph-name="a" unicode="a" horiz-adv-x="517" 
d="M86.5 26.5q-46.5 38.5 -46.5 104.5q0 93 102 133q78 31 229 31v47q0 174 -142 174q-56 0 -86 -26.5t-32 -78.5q-1 -48 -28 -48q-13 0 -20.5 12t-7.5 34q0 39 23 71t64 50t92 18q89 0 141 -55t52 -151v-247q0 -50 32 -50q13 0 21 5l4 -4q-3 -22 -17 -34t-34 -12
q-27 0 -43.5 20t-16.5 51q-21 -41 -62 -62t-99 -21q-79 0 -125.5 38.5zM312.5 46.5q37.5 21.5 58.5 59.5v167q-59 0 -117.5 -9.5t-91.5 -24.5q-63 -28 -63 -98q0 -52 35.5 -84t93.5 -32q47 0 84.5 21.5z" />
    <glyph glyph-name="aacute" unicode="&#xe1;" horiz-adv-x="517" 
d="M86.5 26.5q-46.5 38.5 -46.5 104.5q0 93 102 133q78 31 229 31v47q0 174 -142 174q-56 0 -86 -26.5t-32 -78.5q-1 -48 -28 -48q-13 0 -20.5 12t-7.5 34q0 39 23 71t64 50t92 18q89 0 141 -55t52 -151v-247q0 -50 32 -50q13 0 21 5l4 -4q-3 -22 -17 -34t-34 -12
q-27 0 -43.5 20t-16.5 51q-21 -41 -62 -62t-99 -21q-79 0 -125.5 38.5zM312.5 46.5q37.5 21.5 58.5 59.5v167q-59 0 -117.5 -9.5t-91.5 -24.5q-63 -28 -63 -98q0 -52 35.5 -84t93.5 -32q47 0 84.5 21.5zM149 607q43 7 79.5 32t52.5 59q15 32 38 32q12 0 19.5 -8t7.5 -20
q0 -13 -13 -29q-25 -31 -73.5 -51t-110.5 -24v9z" />
    <glyph glyph-name="abreve" unicode="&#x103;" horiz-adv-x="517" 
d="M86.5 26.5q-46.5 38.5 -46.5 104.5q0 93 102 133q78 31 229 31v47q0 174 -142 174q-56 0 -86 -26.5t-32 -78.5q-1 -48 -28 -48q-13 0 -20.5 12t-7.5 34q0 39 23 71t64 50t92 18q89 0 141 -55t52 -151v-247q0 -50 32 -50q13 0 21 5l4 -4q-3 -22 -17 -34t-34 -12
q-27 0 -43.5 20t-16.5 51q-21 -41 -62 -62t-99 -21q-79 0 -125.5 38.5zM312.5 46.5q37.5 21.5 58.5 59.5v167q-59 0 -117.5 -9.5t-91.5 -24.5q-63 -28 -63 -98q0 -52 35.5 -84t93.5 -32q47 0 84.5 21.5zM148 622q-33 29 -45 88h9q17 -42 46 -61t78 -19q47 0 76 18.5t47 61.5
h9q-12 -59 -44.5 -88t-87.5 -29t-88 29z" />
    <glyph glyph-name="acircumflex" unicode="&#xe2;" horiz-adv-x="517" 
d="M86.5 26.5q-46.5 38.5 -46.5 104.5q0 93 102 133q78 31 229 31v47q0 174 -142 174q-56 0 -86 -26.5t-32 -78.5q-1 -48 -28 -48q-13 0 -20.5 12t-7.5 34q0 39 23 71t64 50t92 18q89 0 141 -55t52 -151v-247q0 -50 32 -50q13 0 21 5l4 -4q-3 -22 -17 -34t-34 -12
q-27 0 -43.5 20t-16.5 51q-21 -41 -62 -62t-99 -21q-79 0 -125.5 38.5zM312.5 46.5q37.5 21.5 58.5 59.5v167q-59 0 -117.5 -9.5t-91.5 -24.5q-63 -28 -63 -98q0 -52 35.5 -84t93.5 -32q47 0 84.5 21.5zM299 611.5q-32 12.5 -63 30.5q-31 -18 -63 -30.5t-80 -23.5v9
q48 21 85.5 55.5t53.5 71.5h8q16 -37 54 -72t85 -55v-9q-48 11 -80 23.5z" />
    <glyph glyph-name="adieresis" unicode="&#xe4;" horiz-adv-x="517" 
d="M86.5 26.5q-46.5 38.5 -46.5 104.5q0 93 102 133q78 31 229 31v47q0 174 -142 174q-56 0 -86 -26.5t-32 -78.5q-1 -48 -28 -48q-13 0 -20.5 12t-7.5 34q0 39 23 71t64 50t92 18q89 0 141 -55t52 -151v-247q0 -50 32 -50q13 0 21 5l4 -4q-3 -22 -17 -34t-34 -12
q-27 0 -43.5 20t-16.5 51q-21 -41 -62 -62t-99 -21q-79 0 -125.5 38.5zM312.5 46.5q37.5 21.5 58.5 59.5v167q-59 0 -117.5 -9.5t-91.5 -24.5q-63 -28 -63 -98q0 -52 35.5 -84t93.5 -32q47 0 84.5 21.5zM172 675q10 -10 10 -26q0 -15 -10 -25t-25 -10q-16 0 -26 10t-10 25
q0 16 10 26t26 10q15 0 25 -10zM351 675q10 -10 10 -26q0 -15 -10 -25t-25 -10q-16 0 -26 10t-10 25q0 16 10 26t26 10q15 0 25 -10z" />
    <glyph glyph-name="agrave" unicode="&#xe0;" horiz-adv-x="517" 
d="M86.5 26.5q-46.5 38.5 -46.5 104.5q0 93 102 133q78 31 229 31v47q0 174 -142 174q-56 0 -86 -26.5t-32 -78.5q-1 -48 -28 -48q-13 0 -20.5 12t-7.5 34q0 39 23 71t64 50t92 18q89 0 141 -55t52 -151v-247q0 -50 32 -50q13 0 21 5l4 -4q-3 -22 -17 -34t-34 -12
q-27 0 -43.5 20t-16.5 51q-21 -41 -62 -62t-99 -21q-79 0 -125.5 38.5zM312.5 46.5q37.5 21.5 58.5 59.5v167q-59 0 -117.5 -9.5t-91.5 -24.5q-63 -28 -63 -98q0 -52 35.5 -84t93.5 -32q47 0 84.5 21.5zM209.5 622q-48.5 20 -73.5 51q-13 16 -13 29q0 12 7.5 20t19.5 8
q23 0 38 -32q16 -34 52.5 -59t79.5 -32v-9q-62 4 -110.5 24z" />
    <glyph glyph-name="amacron" unicode="&#x101;" horiz-adv-x="517" 
d="M86.5 26.5q-46.5 38.5 -46.5 104.5q0 93 102 133q78 31 229 31v47q0 174 -142 174q-56 0 -86 -26.5t-32 -78.5q-1 -48 -28 -48q-13 0 -20.5 12t-7.5 34q0 39 23 71t64 50t92 18q89 0 141 -55t52 -151v-247q0 -50 32 -50q13 0 21 5l4 -4q-3 -22 -17 -34t-34 -12
q-27 0 -43.5 20t-16.5 51q-21 -41 -62 -62t-99 -21q-79 0 -125.5 38.5zM312.5 46.5q37.5 21.5 58.5 59.5v167q-59 0 -117.5 -9.5t-91.5 -24.5q-63 -28 -63 -98q0 -52 35.5 -84t93.5 -32q47 0 84.5 21.5zM103 647h266v-29h-266v29z" />
    <glyph glyph-name="aogonek" unicode="&#x105;" horiz-adv-x="517" 
d="M409 -183q-28 28 -28 74q0 31 13.5 59.5t37.5 49.5q-27 1 -43 20.5t-16 50.5q-21 -41 -62 -62t-99 -21q-79 0 -125.5 38.5t-46.5 104.5q0 93 102 133q78 31 229 31v47q0 174 -142 174q-56 0 -86 -26.5t-32 -78.5q-1 -48 -28 -48q-13 0 -20.5 12t-7.5 34q0 39 23 71t64 50
t92 18q89 0 141 -55t52 -151v-247q0 -50 32 -50q13 0 21 5l4 -4q-2 -10 -5.5 -17.5t-11.5 -16.5q-20 -21 -31.5 -53.5t-11.5 -68.5q0 -38 15.5 -60t50.5 -34l-5 -8q-48 1 -76 29zM371 273q-59 0 -117.5 -9.5t-91.5 -24.5q-63 -28 -63 -98q0 -52 35.5 -84t93.5 -32
q47 0 84.5 21.5t58.5 59.5v167z" />
    <glyph glyph-name="aring" unicode="&#xe5;" horiz-adv-x="517" 
d="M86.5 26.5q-46.5 38.5 -46.5 104.5q0 93 102 133q78 31 229 31v47q0 174 -142 174q-56 0 -86 -26.5t-32 -78.5q-1 -48 -28 -48q-13 0 -20.5 12t-7.5 34q0 39 23 71t64 50t92 18q89 0 141 -55t52 -151v-247q0 -50 32 -50q13 0 21 5l4 -4q-3 -22 -17 -34t-34 -12
q-27 0 -43.5 20t-16.5 51q-21 -41 -62 -62t-99 -21q-79 0 -125.5 38.5zM312.5 46.5q37.5 21.5 58.5 59.5v167q-59 0 -117.5 -9.5t-91.5 -24.5q-63 -28 -63 -98q0 -52 35.5 -84t93.5 -32q47 0 84.5 21.5zM178.5 602q-22.5 23 -22.5 57t22.5 57t56.5 23q35 0 58 -23t23 -57
t-23 -57t-58 -23q-34 0 -56.5 23zM279 614.5q18 17.5 18 44.5t-18 44.5t-45 17.5q-26 0 -43.5 -17.5t-17.5 -44.5t17.5 -44.5t43.5 -17.5q27 0 45 17.5z" />
    <glyph glyph-name="atilde" unicode="&#xe3;" horiz-adv-x="517" 
d="M86.5 26.5q-46.5 38.5 -46.5 104.5q0 93 102 133q78 31 229 31v47q0 174 -142 174q-56 0 -86 -26.5t-32 -78.5q-1 -48 -28 -48q-13 0 -20.5 12t-7.5 34q0 39 23 71t64 50t92 18q89 0 141 -55t52 -151v-247q0 -50 32 -50q13 0 21 5l4 -4q-3 -22 -17 -34t-34 -12
q-27 0 -43.5 20t-16.5 51q-21 -41 -62 -62t-99 -21q-79 0 -125.5 38.5zM312.5 46.5q37.5 21.5 58.5 59.5v167q-59 0 -117.5 -9.5t-91.5 -24.5q-63 -28 -63 -98q0 -52 35.5 -84t93.5 -32q47 0 84.5 21.5zM293 611q-32 0 -80 16q-4 1 -22.5 6.5t-34.5 5.5q-37 0 -40 -32l-11 4
q1 64 71 64q31 0 79 -16q15 -5 30.5 -8.5t26.5 -3.5q18 0 29.5 8t13.5 24l11 -4q-1 -64 -73 -64z" />
    <glyph glyph-name="ae" unicode="&#xe6;" horiz-adv-x="875" 
d="M427 267q1 -116 54.5 -177.5t153.5 -61.5q55 0 97.5 22t94.5 77l8 -5q-37 -67 -93 -100.5t-129 -33.5q-79 0 -136 38.5t-83 108.5q-17 -73 -63 -110t-119 -37q-78 0 -125 39.5t-47 103.5q0 47 26.5 81t77.5 53q39 14 98 22t129 8v47q0 174 -142 174q-56 0 -86 -26.5
t-32 -78.5q-1 -48 -28 -48q-13 0 -20.5 12t-7.5 34q0 39 23 71t63.5 50t90.5 18q66 0 113.5 -31.5t67.5 -88.5q32 57 84.5 88.5t119.5 31.5q100 0 152 -71.5t52 -209.5h-394zM482.5 453.5q-47.5 -54.5 -54.5 -153.5h336q0 103 -39 155.5t-115 52.5q-80 0 -127.5 -54.5z
M371 273q-66 0 -122.5 -9.5t-88.5 -25.5q-61 -30 -61 -99q0 -52 33.5 -83t89.5 -31q73 0 111 54t38 158v36z" />
    <glyph glyph-name="aeacute" unicode="&#x1fd;" horiz-adv-x="875" 
d="M427 267q1 -116 54.5 -177.5t153.5 -61.5q55 0 97.5 22t94.5 77l8 -5q-37 -67 -93 -100.5t-129 -33.5q-79 0 -136 38.5t-83 108.5q-17 -73 -63 -110t-119 -37q-78 0 -125 39.5t-47 103.5q0 47 26.5 81t77.5 53q39 14 98 22t129 8v47q0 174 -142 174q-56 0 -86 -26.5
t-32 -78.5q-1 -48 -28 -48q-13 0 -20.5 12t-7.5 34q0 39 23 71t63.5 50t90.5 18q66 0 113.5 -31.5t67.5 -88.5q32 57 84.5 88.5t119.5 31.5q100 0 152 -71.5t52 -209.5h-394zM482.5 453.5q-47.5 -54.5 -54.5 -153.5h336q0 103 -39 155.5t-115 52.5q-80 0 -127.5 -54.5z
M371 273q-66 0 -122.5 -9.5t-88.5 -25.5q-61 -30 -61 -99q0 -52 33.5 -83t89.5 -31q73 0 111 54t38 158v36zM309 602q46 6 91 36.5t62 67.5q13 29 35 29q12 0 20.5 -8t8.5 -20q0 -14 -16 -31q-31 -33 -84.5 -56t-116.5 -27v9z" />
    <glyph glyph-name="b" unicode="b" horiz-adv-x="587" 
d="M146 750v-315q29 54 77.5 83.5t108.5 29.5q65 0 114 -34t75 -97t26 -148t-26.5 -148.5t-75.5 -98t-114 -34.5q-61 0 -109.5 30.5t-77.5 85.5l-4 -104h-50v685l-58 65h114zM210.5 70.5q45.5 -32.5 103.5 -32.5q81 0 128 62t47 169q0 106 -47 168t-127 62
q-59 0 -104.5 -32.5t-64.5 -88.5v-220q19 -55 64.5 -87.5z" />
    <glyph glyph-name="c" unicode="c" horiz-adv-x="540" 
d="M520 119q-40 -66 -95.5 -98.5t-131.5 -32.5t-133.5 32t-88.5 91t-31 139q0 84 33 152t91.5 107t131.5 39q53 0 97.5 -20.5t70.5 -54.5t26 -74q0 -44 -33 -44q-16 0 -23.5 10.5t-10.5 36.5q-7 54 -37 80t-84 26q-61 0 -107 -31t-70.5 -87t-24.5 -130q0 -110 54.5 -171
t150.5 -61q114 0 207 97z" />
    <glyph glyph-name="cacute" unicode="&#x107;" horiz-adv-x="540" 
d="M520 119q-40 -66 -95.5 -98.5t-131.5 -32.5t-133.5 32t-88.5 91t-31 139q0 84 33 152t91.5 107t131.5 39q53 0 97.5 -20.5t70.5 -54.5t26 -74q0 -44 -33 -44q-16 0 -23.5 10.5t-10.5 36.5q-7 54 -37 80t-84 26q-61 0 -107 -31t-70.5 -87t-24.5 -130q0 -110 54.5 -171
t150.5 -61q114 0 207 97zM208 607q43 7 79.5 32t52.5 59q15 32 38 32q12 0 19.5 -8t7.5 -20q0 -13 -13 -29q-25 -31 -73.5 -51t-110.5 -24v9z" />
    <glyph glyph-name="ccaron" unicode="&#x10d;" horiz-adv-x="540" 
d="M520 119q-40 -66 -95.5 -98.5t-131.5 -32.5t-133.5 32t-88.5 91t-31 139q0 84 33 152t91.5 107t131.5 39q53 0 97.5 -20.5t70.5 -54.5t26 -74q0 -44 -33 -44q-16 0 -23.5 10.5t-10.5 36.5q-7 54 -37 80t-84 26q-61 0 -107 -31t-70.5 -87t-24.5 -130q0 -110 54.5 -171
t150.5 -61q114 0 207 97zM232 695.5q32 -12.5 63 -30.5q31 18 63 30.5t80 23.5v-9q-48 -21 -85.5 -55.5t-53.5 -71.5h-8q-16 37 -54 72t-85 55v9q48 -11 80 -23.5z" />
    <glyph glyph-name="ccedilla" unicode="&#xe7;" horiz-adv-x="540" 
d="M428.5 23.5q-52.5 -32.5 -123.5 -35.5l-23 -51q41 -6 65 -29t24 -55q0 -38 -33 -62t-83 -24q-26 0 -56 8l2 9q23 -3 40 -3q44 0 67.5 16.5t23.5 47.5q0 62 -98 62l42 81q-108 5 -172 75.5t-64 186.5q0 84 33 152t91.5 107t131.5 39q53 0 97.5 -20.5t70.5 -54.5t26 -74
q0 -44 -33 -44q-16 0 -23.5 10.5t-10.5 36.5q-7 54 -37 80t-84 26q-61 0 -107 -31t-70.5 -87t-24.5 -130q0 -110 54.5 -171t150.5 -61q114 0 207 97l8 -6q-39 -63 -91.5 -95.5z" />
    <glyph glyph-name="ccircumflex" unicode="&#x109;" horiz-adv-x="540" 
d="M520 119q-40 -66 -95.5 -98.5t-131.5 -32.5t-133.5 32t-88.5 91t-31 139q0 84 33 152t91.5 107t131.5 39q53 0 97.5 -20.5t70.5 -54.5t26 -74q0 -44 -33 -44q-16 0 -23.5 10.5t-10.5 36.5q-7 54 -37 80t-84 26q-61 0 -107 -31t-70.5 -87t-24.5 -130q0 -110 54.5 -171
t150.5 -61q114 0 207 97zM358 611.5q-32 12.5 -63 30.5q-31 -18 -63 -30.5t-80 -23.5v9q48 21 85.5 55.5t53.5 71.5h8q16 -37 54 -72t85 -55v-9q-48 11 -80 23.5z" />
    <glyph glyph-name="cdotaccent" unicode="&#x10b;" horiz-adv-x="540" 
d="M520 119q-40 -66 -95.5 -98.5t-131.5 -32.5t-133.5 32t-88.5 91t-31 139q0 84 33 152t91.5 107t131.5 39q53 0 97.5 -20.5t70.5 -54.5t26 -74q0 -44 -33 -44q-16 0 -23.5 10.5t-10.5 36.5q-7 54 -37 80t-84 26q-61 0 -107 -31t-70.5 -87t-24.5 -130q0 -110 54.5 -171
t150.5 -61q114 0 207 97zM265 637q-12 12 -12 30t12 30t30 12t30 -12t12 -30t-12 -30t-30 -12t-30 12z" />
    <glyph glyph-name="d" unicode="d" horiz-adv-x="597" 
d="M142 22.5q-49 34.5 -75.5 98t-26.5 148.5t26 148t75 97t114 34q60 0 108.5 -29.5t77.5 -83.5v232l-77 83h133v-685l58 -65h-108v112q-28 -59 -78 -91.5t-113 -32.5q-65 0 -114 34.5zM376.5 70.5q45.5 32.5 64.5 87.5v220q-19 56 -64.5 88.5t-103.5 32.5q-81 0 -128 -62
t-47 -168t47.5 -168.5t127.5 -62.5q58 0 103.5 32.5z" />
    <glyph glyph-name="eth" unicode="&#xf0;" horiz-adv-x="596" 
d="M175 760q97 -17 172 -63l106 54l16 -31l-90 -45q83 -62 128.5 -158.5t45.5 -217.5q0 -149 -67 -230t-191 -81q-120 0 -186 74t-66 202q0 86 30.5 150.5t85.5 99t128 34.5q65 0 114 -28.5t77 -82.5q-33 135 -141 217l-128 -64l-16 30l111 56q-58 38 -138 60zM152.5 85.5
q49.5 -67.5 139.5 -67.5q93 0 147 72t54 207q0 26 -2 42q-19 85 -71.5 132t-129.5 47q-89 0 -138 -63.5t-49 -182.5t49.5 -186.5z" />
    <glyph glyph-name="dcaron" unicode="&#x10f;" horiz-adv-x="677" 
d="M142 22.5q-49 34.5 -75.5 98t-26.5 148.5t26 148t75 97t114 34q60 0 108.5 -29.5t77.5 -83.5v232l-77 83h133v-685l58 -65h-108v112q-28 -59 -78 -91.5t-113 -32.5q-65 0 -114 34.5zM376.5 70.5q45.5 32.5 64.5 87.5v220q-19 56 -64.5 88.5t-103.5 32.5q-81 0 -128 -62
t-47 -168t47.5 -168.5t127.5 -62.5q58 0 103.5 32.5zM577 554q26 22 40 55t11 64h-10q-19 0 -32.5 12.5t-13.5 30.5t13 31t32 13q24 0 39.5 -21t15.5 -53q0 -39 -23.5 -78t-62.5 -65z" />
    <glyph glyph-name="dcroat" unicode="&#x111;" horiz-adv-x="597" 
d="M447 112q-28 -59 -78 -91.5t-113 -32.5q-65 0 -114 34.5t-75.5 98t-26.5 148.5t26 148t75 97t114 34q60 0 108.5 -29.5t77.5 -83.5v170h-180v36h180v26l-77 83h133v-109h83v-36h-83v-540l58 -65h-108v112zM441 378q-19 56 -64.5 88.5t-103.5 32.5q-81 0 -128 -62
t-47 -168t47.5 -168.5t127.5 -62.5q40 0 79 14.5t64 41.5t25 64v220z" />
    <glyph glyph-name="e" unicode="e" horiz-adv-x="547" 
d="M99 267q1 -116 54.5 -177.5t153.5 -61.5q55 0 97.5 22t94.5 77l8 -5q-75 -134 -224 -134q-74 0 -129 33t-84.5 94.5t-29.5 143.5q0 85 31 150.5t87.5 102t129.5 36.5q101 0 153.5 -71.5t51.5 -209.5h-394zM154.5 453.5q-47.5 -54.5 -54.5 -153.5h336q0 103 -39 155.5
t-115 52.5q-80 0 -127.5 -54.5z" />
    <glyph glyph-name="eacute" unicode="&#xe9;" horiz-adv-x="547" 
d="M99 267q1 -116 54.5 -177.5t153.5 -61.5q55 0 97.5 22t94.5 77l8 -5q-75 -134 -224 -134q-74 0 -129 33t-84.5 94.5t-29.5 143.5q0 85 31 150.5t87.5 102t129.5 36.5q101 0 153.5 -71.5t51.5 -209.5h-394zM154.5 453.5q-47.5 -54.5 -54.5 -153.5h336q0 103 -39 155.5
t-115 52.5q-80 0 -127.5 -54.5zM202 607q43 7 79.5 32t52.5 59q15 32 38 32q12 0 19.5 -8t7.5 -20q0 -13 -13 -29q-25 -31 -73.5 -51t-110.5 -24v9z" />
    <glyph glyph-name="ebreve" unicode="&#x115;" horiz-adv-x="547" 
d="M99 267q1 -116 54.5 -177.5t153.5 -61.5q55 0 97.5 22t94.5 77l8 -5q-75 -134 -224 -134q-74 0 -129 33t-84.5 94.5t-29.5 143.5q0 85 31 150.5t87.5 102t129.5 36.5q101 0 153.5 -71.5t51.5 -209.5h-394zM154.5 453.5q-47.5 -54.5 -54.5 -153.5h336q0 103 -39 155.5
t-115 52.5q-80 0 -127.5 -54.5zM201 622q-33 29 -45 88h9q17 -42 46 -61t78 -19q47 0 76 18.5t47 61.5h9q-12 -59 -44.5 -88t-87.5 -29t-88 29z" />
    <glyph glyph-name="ecaron" unicode="&#x11b;" horiz-adv-x="547" 
d="M99 267q1 -116 54.5 -177.5t153.5 -61.5q55 0 97.5 22t94.5 77l8 -5q-75 -134 -224 -134q-74 0 -129 33t-84.5 94.5t-29.5 143.5q0 85 31 150.5t87.5 102t129.5 36.5q101 0 153.5 -71.5t51.5 -209.5h-394zM154.5 453.5q-47.5 -54.5 -54.5 -153.5h336q0 103 -39 155.5
t-115 52.5q-80 0 -127.5 -54.5zM226 695.5q32 -12.5 63 -30.5q31 18 63 30.5t80 23.5v-9q-48 -21 -85.5 -55.5t-53.5 -71.5h-8q-16 37 -54 72t-85 55v9q48 -11 80 -23.5z" />
    <glyph glyph-name="ecircumflex" unicode="&#xea;" horiz-adv-x="547" 
d="M99 267q1 -116 54.5 -177.5t153.5 -61.5q55 0 97.5 22t94.5 77l8 -5q-75 -134 -224 -134q-74 0 -129 33t-84.5 94.5t-29.5 143.5q0 85 31 150.5t87.5 102t129.5 36.5q101 0 153.5 -71.5t51.5 -209.5h-394zM154.5 453.5q-47.5 -54.5 -54.5 -153.5h336q0 103 -39 155.5
t-115 52.5q-80 0 -127.5 -54.5zM352 611.5q-32 12.5 -63 30.5q-31 -18 -63 -30.5t-80 -23.5v9q48 21 85.5 55.5t53.5 71.5h8q16 -37 54 -72t85 -55v-9q-48 11 -80 23.5z" />
    <glyph glyph-name="edieresis" unicode="&#xeb;" horiz-adv-x="547" 
d="M99 267q1 -116 54.5 -177.5t153.5 -61.5q55 0 97.5 22t94.5 77l8 -5q-75 -134 -224 -134q-74 0 -129 33t-84.5 94.5t-29.5 143.5q0 85 31 150.5t87.5 102t129.5 36.5q101 0 153.5 -71.5t51.5 -209.5h-394zM154.5 453.5q-47.5 -54.5 -54.5 -153.5h336q0 103 -39 155.5
t-115 52.5q-80 0 -127.5 -54.5zM225 675q10 -10 10 -26q0 -15 -10 -25t-25 -10q-16 0 -26 10t-10 25q0 16 10 26t26 10q15 0 25 -10zM404 675q10 -10 10 -26q0 -15 -10 -25t-25 -10q-16 0 -26 10t-10 25q0 16 10 26t26 10q15 0 25 -10z" />
    <glyph glyph-name="edotaccent" unicode="&#x117;" horiz-adv-x="547" 
d="M99 267q1 -116 54.5 -177.5t153.5 -61.5q55 0 97.5 22t94.5 77l8 -5q-75 -134 -224 -134q-74 0 -129 33t-84.5 94.5t-29.5 143.5q0 85 31 150.5t87.5 102t129.5 36.5q101 0 153.5 -71.5t51.5 -209.5h-394zM154.5 453.5q-47.5 -54.5 -54.5 -153.5h336q0 103 -39 155.5
t-115 52.5q-80 0 -127.5 -54.5zM259 637q-12 12 -12 30t12 30t30 12t30 -12t12 -30t-12 -30t-30 -12t-30 12z" />
    <glyph glyph-name="egrave" unicode="&#xe8;" horiz-adv-x="547" 
d="M99 267q1 -116 54.5 -177.5t153.5 -61.5q55 0 97.5 22t94.5 77l8 -5q-75 -134 -224 -134q-74 0 -129 33t-84.5 94.5t-29.5 143.5q0 85 31 150.5t87.5 102t129.5 36.5q101 0 153.5 -71.5t51.5 -209.5h-394zM154.5 453.5q-47.5 -54.5 -54.5 -153.5h336q0 103 -39 155.5
t-115 52.5q-80 0 -127.5 -54.5zM262.5 622q-48.5 20 -73.5 51q-13 16 -13 29q0 12 7.5 20t19.5 8q23 0 38 -32q16 -34 52.5 -59t79.5 -32v-9q-62 4 -110.5 24z" />
    <glyph glyph-name="emacron" unicode="&#x113;" horiz-adv-x="547" 
d="M99 267q1 -116 54.5 -177.5t153.5 -61.5q55 0 97.5 22t94.5 77l8 -5q-75 -134 -224 -134q-74 0 -129 33t-84.5 94.5t-29.5 143.5q0 85 31 150.5t87.5 102t129.5 36.5q101 0 153.5 -71.5t51.5 -209.5h-394zM154.5 453.5q-47.5 -54.5 -54.5 -153.5h336q0 103 -39 155.5
t-115 52.5q-80 0 -127.5 -54.5zM156 647h266v-29h-266v29z" />
    <glyph glyph-name="eogonek" unicode="&#x119;" horiz-adv-x="547" 
d="M341 -183q-28 28 -28 74q0 31 13 59t37 49q-41 -11 -80 -11q-74 0 -129 33t-84.5 94t-29.5 144q0 85 31.5 150.5t87.5 102t129 36.5q101 0 153.5 -71.5t51.5 -209.5h-394q1 -116 54.5 -177.5t153.5 -61.5q55 0 97.5 22t94.5 77l8 -5q-34 -62 -80 -93q-71 -50 -71 -138
q0 -39 15.5 -61t50.5 -34l-5 -8q-48 1 -76 29zM154.5 453.5q-47.5 -54.5 -54.5 -153.5h336q0 103 -39 155.5t-115 52.5q-80 0 -127.5 -54.5z" />
    <glyph glyph-name="f" unicode="f" horiz-adv-x="257" 
d="M110 82v408h-97v40h91q-14 16 -21.5 38.5t-7.5 48.5q0 62 40 102.5t101 40.5q28 0 43.5 -9.5t15.5 -26.5q0 -14 -10 -21.5t-27 -7.5q-10 0 -26 4q-18 4 -30 4q-34 0 -53 -21t-19 -59q0 -43 24.5 -68t65.5 -25h47v-40h-81v-425l58 -65h-153z" />
    <glyph glyph-name="g" unicode="g" horiz-adv-x="515" 
d="M164.5 163.5q-24.5 -10.5 -24.5 -30.5q0 -16 18 -27t52 -15l124 -14q161 -18 161 -137q0 -78 -64.5 -120.5t-181.5 -42.5q-106 0 -162.5 35.5t-56.5 100.5q0 49 31 85t83 47q-51 20 -51 69q0 65 82 77q-55 21 -85.5 67t-30.5 107q0 82 54 132.5t142 50.5q16 0 34 -2
q-24 16 -34.5 34.5t-10.5 44.5q0 46 32 69.5t95 23.5q37 0 54 -8.5t17 -26.5q0 -29 -39 -29q-7 0 -14.5 1.5t-11.5 1.5q-18 4 -33 4q-32 0 -49.5 -13t-17.5 -38q0 -43 63 -75q108 -54 108 -170q0 -89 -57 -140t-157 -51q-45 0 -69.5 -10.5zM355.5 250.5
q36.5 42.5 36.5 114.5q0 69 -36 109t-99 40q-64 0 -103 -40.5t-39 -108.5q0 -69 40 -113t102 -44t98.5 42.5zM247 -187q93 0 146.5 31t53.5 86q0 78 -115 90l-137 14q-59 -11 -87 -38t-28 -73q0 -110 167 -110z" />
    <glyph glyph-name="gbreve" unicode="&#x11f;" horiz-adv-x="515" 
d="M140 133q0 -16 18 -27t52 -15l124 -14q161 -18 161 -137q0 -78 -64.5 -120.5t-181.5 -42.5q-106 0 -162.5 35.5t-56.5 100.5q0 49 31 85t83 47q-51 20 -51 69q0 65 83 77q-55 22 -86 67.5t-31 106.5q0 83 57 132.5t157 49.5q86 0 218 -18v-27h-109q35 -29 50.5 -61.5
t15.5 -75.5q0 -88 -56.5 -138.5t-157.5 -52.5q-94 -2 -94 -41zM355.5 250.5q36.5 42.5 36.5 114.5q0 69 -36 108.5t-99 39.5q-65 0 -103.5 -40.5t-38.5 -107.5q0 -69 40 -113t102 -44t98.5 42.5zM247 -187q93 0 146.5 31t53.5 86q0 78 -115 90l-137 14q-59 -11 -87 -38
t-28 -73q0 -110 167 -110zM170 622q-33 29 -45 88h9q17 -42 46 -61t78 -19q47 0 76 18.5t47 61.5h9q-12 -59 -44.5 -88t-87.5 -29t-88 29z" />
    <glyph glyph-name="gcircumflex" unicode="&#x11d;" horiz-adv-x="515" 
d="M140 133q0 -16 18 -27t52 -15l124 -14q161 -18 161 -137q0 -78 -64.5 -120.5t-181.5 -42.5q-106 0 -162.5 35.5t-56.5 100.5q0 49 31 85t83 47q-51 20 -51 69q0 65 83 77q-55 22 -86 67.5t-31 106.5q0 83 57 132.5t157 49.5q86 0 218 -18v-27h-109q35 -29 50.5 -61.5
t15.5 -75.5q0 -88 -56.5 -138.5t-157.5 -52.5q-94 -2 -94 -41zM355.5 250.5q36.5 42.5 36.5 114.5q0 69 -36 108.5t-99 39.5q-65 0 -103.5 -40.5t-38.5 -107.5q0 -69 40 -113t102 -44t98.5 42.5zM247 -187q93 0 146.5 31t53.5 86q0 78 -115 90l-137 14q-59 -11 -87 -38
t-28 -73q0 -110 167 -110zM321 611.5q-32 12.5 -63 30.5q-31 -18 -63 -30.5t-80 -23.5v9q48 21 85.5 55.5t53.5 71.5h8q16 -37 54 -72t85 -55v-9q-48 11 -80 23.5z" />
    <glyph glyph-name="uni0123" unicode="&#x123;" horiz-adv-x="515" 
d="M289 813q-26 -22 -40 -55t-11 -64h10q19 0 32.5 -12.5t13.5 -30.5t-13 -31t-32 -13q-24 0 -39.5 21t-15.5 53q0 39 23.5 78t62.5 65zM140 133q0 -16 18 -27t52 -15l124 -14q161 -18 161 -137q0 -78 -64.5 -120.5t-181.5 -42.5q-106 0 -162.5 35.5t-56.5 100.5q0 49 31 85
t83 47q-51 20 -51 69q0 65 83 77q-55 22 -86 67.5t-31 106.5q0 83 57 132.5t157 49.5q86 0 218 -18v-27h-109q35 -29 50.5 -61.5t15.5 -75.5q0 -88 -56.5 -138.5t-157.5 -52.5q-94 -2 -94 -41zM355.5 250.5q36.5 42.5 36.5 114.5q0 69 -36 108.5t-99 39.5
q-65 0 -103.5 -40.5t-38.5 -107.5q0 -69 40 -113t102 -44t98.5 42.5zM247 -187q93 0 146.5 31t53.5 86q0 78 -115 90l-137 14q-59 -11 -87 -38t-28 -73q0 -110 167 -110z" />
    <glyph glyph-name="gdotaccent" unicode="&#x121;" horiz-adv-x="515" 
d="M140 133q0 -16 18 -27t52 -15l124 -14q161 -18 161 -137q0 -78 -64.5 -120.5t-181.5 -42.5q-106 0 -162.5 35.5t-56.5 100.5q0 49 31 85t83 47q-51 20 -51 69q0 65 83 77q-55 22 -86 67.5t-31 106.5q0 83 57 132.5t157 49.5q86 0 218 -18v-27h-109q35 -29 50.5 -61.5
t15.5 -75.5q0 -88 -56.5 -138.5t-157.5 -52.5q-94 -2 -94 -41zM355.5 250.5q36.5 42.5 36.5 114.5q0 69 -36 108.5t-99 39.5q-65 0 -103.5 -40.5t-38.5 -107.5q0 -69 40 -113t102 -44t98.5 42.5zM247 -187q93 0 146.5 31t53.5 86q0 78 -115 90l-137 14q-59 -11 -87 -38
t-28 -73q0 -110 167 -110zM228 637q-12 12 -12 30t12 30t30 12t30 -12t12 -30t-12 -30t-30 -12t-30 12z" />
    <glyph glyph-name="h" unicode="h" horiz-adv-x="602" 
d="M100 82v585l-77 83h133v-335q32 65 82 99t113 34q79 0 120 -54t41 -159v-270l58 -65h-153l39 82v253q0 86 -29 128t-88 42q-62 0 -112 -43.5t-71 -115.5v-281l58 -65h-153z" />
    <glyph glyph-name="hbar" unicode="&#x127;" horiz-adv-x="602" 
d="M456 82v253q0 86 -29 128t-88 42q-62 0 -112 -43.5t-71 -115.5v-281l58 -65h-153l39 82v523h-83v36h83v26l-77 83h133v-109h180v-36h-180v-190q32 65 82 99t113 34q79 0 120 -54t41 -159v-270l58 -65h-153z" />
    <glyph glyph-name="hcircumflex" unicode="&#x125;" horiz-adv-x="602" 
d="M100 82v585l-77 83h133v-335q32 65 82 99t113 34q79 0 120 -54t41 -159v-270l58 -65h-153l39 82v253q0 86 -29 128t-88 42q-62 0 -112 -43.5t-71 -115.5v-281l58 -65h-153zM191 806.5q-32 12.5 -63 30.5q-31 -18 -63 -30.5t-80 -23.5v9q48 21 85.5 55.5t53.5 71.5h8
q16 -37 54 -72t85 -55v-9q-48 11 -80 23.5z" />
    <glyph glyph-name="i" unicode="i" horiz-adv-x="256" 
d="M158 726.5q12 -12.5 12 -31.5t-12 -31t-31 -12t-31 12t-12 31t12 31.5t31 12.5t31 -12.5zM100 82v365l-77 83h133v-465l58 -65h-153z" />
    <glyph glyph-name="dotlessi" unicode="&#x131;" horiz-adv-x="256" 
d="M100 82v365l-77 83h133v-465l58 -65h-153z" />
    <glyph glyph-name="iacute" unicode="&#xed;" horiz-adv-x="256" 
d="M100 82v365l-77 83h133v-465l58 -65h-153zM41 607q43 7 79.5 32t52.5 59q15 32 38 32q12 0 19.5 -8t7.5 -20q0 -13 -13 -29q-25 -31 -73.5 -51t-110.5 -24v9z" />
    <glyph glyph-name="ibreve" unicode="&#x12d;" horiz-adv-x="256" 
d="M100 82v365l-77 83h133v-465l58 -65h-153zM40 622q-33 29 -45 88h9q17 -42 46 -61t78 -19q47 0 76 18.5t47 61.5h9q-12 -59 -44.5 -88t-87.5 -29t-88 29z" />
    <glyph glyph-name="icircumflex" unicode="&#xee;" horiz-adv-x="256" 
d="M100 82v365l-77 83h133v-465l58 -65h-153zM191 611.5q-32 12.5 -63 30.5q-31 -18 -63 -30.5t-80 -23.5v9q48 21 85.5 55.5t53.5 71.5h8q16 -37 54 -72t85 -55v-9q-48 11 -80 23.5z" />
    <glyph glyph-name="idieresis" unicode="&#xef;" horiz-adv-x="256" 
d="M13 624q-10 10 -10 25q0 16 10 26t26 10q15 0 25 -10t10 -26q0 -15 -10 -25t-25 -10q-16 0 -26 10zM192 624q-10 10 -10 25q0 16 10 26t26 10q15 0 25 -10t10 -26q0 -15 -10 -25t-25 -10q-16 0 -26 10zM100 82v365l-77 83h133v-465l58 -65h-153z" />
    <glyph glyph-name="i.loclTRK" horiz-adv-x="256" 
d="M158 726.5q12 -12.5 12 -31.5t-12 -31t-31 -12t-31 12t-12 31t12 31.5t31 12.5t31 -12.5zM100 82v365l-77 83h133v-465l58 -65h-153z" />
    <glyph glyph-name="igrave" unicode="&#xec;" horiz-adv-x="256" 
d="M100 82v365l-77 83h133v-465l58 -65h-153zM101.5 622q-48.5 20 -73.5 51q-13 16 -13 29q0 12 7.5 20t19.5 8q23 0 38 -32q16 -34 52.5 -59t79.5 -32v-9q-62 4 -110.5 24z" />
    <glyph glyph-name="ij" unicode="&#x133;" horiz-adv-x="502" 
d="M158 726.5q12 -12.5 12 -31.5t-12 -31t-31 -12t-31 12t-12 31t12 31.5t31 12.5t31 -12.5zM100 82v365l-77 83h133v-465l58 -65h-153zM406 726.5q12 -12.5 12 -31.5t-12 -31t-31 -12t-31 12t-12 31t12 31.5t31 12.5t31 -12.5zM252.5 -160.5q9.5 8.5 26.5 8.5q13 0 33 -8
q22 -8 37 -8q32 0 53 24t21 60q0 39 -26 64.5t-74 34.5l33 75v357l-77 83h133v-508q23 -17 36.5 -46.5t13.5 -62.5q0 -60 -42 -98t-109 -38q-33 0 -50.5 10t-17.5 29q0 15 9.5 23.5z" />
    <glyph glyph-name="imacron" unicode="&#x12b;" horiz-adv-x="256" 
d="M100 82v365l-77 83h133v-465l58 -65h-153zM-5 647h266v-29h-266v29z" />
    <glyph glyph-name="iogonek" unicode="&#x12f;" horiz-adv-x="256" 
d="M96 664q-12 12 -12 31t12 31.5t31 12.5t31 -12.5t12 -31.5t-12 -31t-31 -12t-31 12zM134.5 -170q15.5 -22 50.5 -34l-5 -8q-48 1 -76 29t-28 74q0 31 13.5 59.5t37.5 49.5h-66l39 82v365l-77 83h133v-465l58 -65h-61q-34 -46 -34 -109q0 -39 15.5 -61z" />
    <glyph glyph-name="itilde" unicode="&#x129;" horiz-adv-x="256" 
d="M100 82v365l-77 83h133v-465l58 -65h-153zM185 611q-32 0 -80 16q-4 1 -22.5 6.5t-34.5 5.5q-37 0 -40 -32l-11 4q1 64 71 64q31 0 79 -16q15 -5 30.5 -8.5t26.5 -3.5q18 0 29.5 8t13.5 24l11 -4q-1 -64 -73 -64z" />
    <glyph glyph-name="j" unicode="j" horiz-adv-x="246" 
d="M150 726.5q12 -12.5 12 -31.5t-12 -31t-31 -12t-31 12t-12 31t12 31.5t31 12.5t31 -12.5zM-3.5 -160.5q9.5 8.5 26.5 8.5q13 0 33 -8q22 -8 37 -8q32 0 53 24t21 60q0 39 -26 64.5t-74 34.5l33 75v357l-77 83h133v-508q23 -17 36.5 -46.5t13.5 -62.5q0 -60 -42 -98
t-109 -38q-33 0 -50.5 10t-17.5 29q0 15 9.5 23.5z" />
    <glyph glyph-name="uni0237" unicode="&#x237;" horiz-adv-x="246" 
d="M-3.5 -160.5q9.5 8.5 26.5 8.5q13 0 33 -8q22 -8 37 -8q32 0 53 24t21 60q0 39 -26 64.5t-74 34.5l33 75v357l-77 83h133v-508q23 -17 36.5 -46.5t13.5 -62.5q0 -60 -42 -98t-109 -38q-33 0 -50.5 10t-17.5 29q0 15 9.5 23.5z" />
    <glyph glyph-name="jcircumflex" unicode="&#x135;" horiz-adv-x="246" 
d="M-3.5 -160.5q9.5 8.5 26.5 8.5q13 0 33 -8q22 -8 37 -8q32 0 53 24t21 60q0 39 -26 64.5t-74 34.5l33 75v357l-77 83h133v-508q23 -17 36.5 -46.5t13.5 -62.5q0 -60 -42 -98t-109 -38q-33 0 -50.5 10t-17.5 29q0 15 9.5 23.5zM191 611.5q-32 12.5 -63 30.5
q-31 -18 -63 -30.5t-80 -23.5v9q48 21 85.5 55.5t53.5 71.5h8q16 -37 54 -72t85 -55v-9q-48 11 -80 23.5z" />
    <glyph glyph-name="k" unicode="k" horiz-adv-x="536" 
d="M100 82v585l-77 83h133v-515l245 227l-50 68h171l-255 -237l259 -293h-158l28 68l-169 187l-71 -66v-124l58 -65h-153z" />
    <glyph glyph-name="uni0137" unicode="&#x137;" horiz-adv-x="536" 
d="M100 82v585l-77 83h133v-515l245 227l-50 68h171l-255 -237l259 -293h-158l28 68l-169 187l-71 -66v-124l58 -65h-153zM248 -264q26 22 40 55t11 64h-10q-19 0 -32.5 12.5t-13.5 30.5t13 31t32 13q24 0 39.5 -21t15.5 -53q0 -39 -23.5 -78t-62.5 -65z" />
    <glyph glyph-name="kgreenlandic" unicode="&#x138;" horiz-adv-x="536" 
d="M100 82v365l-77 83h133v-295l245 227l-50 68h171l-255 -237l259 -293h-158l28 68l-169 187l-71 -66v-124l58 -65h-153z" />
    <glyph glyph-name="l" unicode="l" horiz-adv-x="256" 
d="M100 82v585l-77 83h133v-685l58 -65h-153z" />
    <glyph glyph-name="lacute" unicode="&#x13a;" horiz-adv-x="256" 
d="M100 82v585l-77 83h133v-685l58 -65h-153zM41 802q43 7 79.5 32t52.5 59q15 32 38 32q12 0 19.5 -8t7.5 -20q0 -13 -13 -29q-25 -31 -73.5 -51t-110.5 -24v9z" />
    <glyph glyph-name="lcaron" unicode="&#x13e;" horiz-adv-x="336" 
d="M100 82v585l-77 83h133v-685l58 -65h-153zM236 554q26 22 40 55t11 64h-10q-19 0 -32.5 12.5t-13.5 30.5t13 31t32 13q24 0 39.5 -21t15.5 -53q0 -39 -23.5 -78t-62.5 -65z" />
    <glyph glyph-name="uni013C" unicode="&#x13c;" horiz-adv-x="256" 
d="M100 82v585l-77 83h133v-685l58 -65h-153zM83 -264q26 22 40 55t11 64h-10q-19 0 -32.5 12.5t-13.5 30.5t13 31t32 13q24 0 39.5 -21t15.5 -53q0 -39 -23.5 -78t-62.5 -65z" />
    <glyph glyph-name="ldot" unicode="&#x140;" horiz-adv-x="266" 
d="M100 82v585l-77 83h133v-685l58 -65h-153zM227 347q-12 12 -12 31t12 31.5t31 12.5t31 -12.5t12 -31.5t-12 -31t-31 -12t-31 12z" />
    <glyph glyph-name="lslash" unicode="&#x142;" horiz-adv-x="256" 
d="M100 82v285l-95 -23l-9 34l104 25v264l-77 83h133v-333l89 22l9 -34l-98 -24v-316l58 -65h-153z" />
    <glyph glyph-name="m" unicode="m" horiz-adv-x="916" 
d="M100 82v365l-77 83h127v-127q33 73 78.5 109t106.5 36q62 0 100 -35.5t50 -104.5q63 140 184 140q77 0 117 -54t40 -159v-270l58 -65h-153l39 82v253q0 170 -113 170q-57 0 -101 -41t-65 -113v-286l58 -65h-153l39 82v253q0 170 -111 170q-57 0 -101.5 -42.5
t-66.5 -116.5v-281l58 -65h-153z" />
    <glyph glyph-name="n" unicode="n" horiz-adv-x="602" 
d="M100 82v365l-77 83h127v-127q32 70 84 107.5t118 37.5q79 0 119.5 -54t40.5 -159v-270l58 -65h-153l39 82v253q0 86 -29 128t-88 42q-62 0 -112 -43.5t-71 -115.5v-281l58 -65h-153z" />
    <glyph glyph-name="nacute" unicode="&#x144;" horiz-adv-x="602" 
d="M100 82v365l-77 83h127v-127q32 70 84 107.5t118 37.5q79 0 119.5 -54t40.5 -159v-270l58 -65h-153l39 82v253q0 86 -29 128t-88 42q-62 0 -112 -43.5t-71 -115.5v-281l58 -65h-153zM214 607q43 7 79.5 32t52.5 59q15 32 38 32q12 0 19.5 -8t7.5 -20q0 -13 -13 -29
q-25 -31 -73.5 -51t-110.5 -24v9z" />
    <glyph glyph-name="ncaron" unicode="&#x148;" horiz-adv-x="602" 
d="M100 82v365l-77 83h127v-127q32 70 84 107.5t118 37.5q79 0 119.5 -54t40.5 -159v-270l58 -65h-153l39 82v253q0 86 -29 128t-88 42q-62 0 -112 -43.5t-71 -115.5v-281l58 -65h-153zM238 695.5q32 -12.5 63 -30.5q31 18 63 30.5t80 23.5v-9q-48 -21 -85.5 -55.5
t-53.5 -71.5h-8q-16 37 -54 72t-85 55v9q48 -11 80 -23.5z" />
    <glyph glyph-name="uni0146" unicode="&#x146;" horiz-adv-x="602" 
d="M100 82v365l-77 83h127v-127q32 70 84 107.5t118 37.5q79 0 119.5 -54t40.5 -159v-270l58 -65h-153l39 82v253q0 86 -29 128t-88 42q-62 0 -112 -43.5t-71 -115.5v-281l58 -65h-153zM261 -264q26 22 40 55t11 64h-10q-19 0 -32.5 12.5t-13.5 30.5t13 31t32 13
q24 0 39.5 -21t15.5 -53q0 -39 -23.5 -78t-62.5 -65z" />
    <glyph glyph-name="eng" unicode="&#x14b;" horiz-adv-x="596" 
d="M100 82v365l-77 83h127v-127q32 70 83.5 107.5t117.5 37.5q155 0 155 -208v-318q23 -17 36.5 -46.5t13.5 -62.5q0 -60 -42 -98t-109 -38q-33 0 -50.5 10t-17.5 29q0 15 9.5 23.5t26.5 8.5q13 0 33 -8q22 -8 37 -8q32 0 53 24t21 60q0 39 -26 64.5t-74 34.5l33 75v250
q0 83 -28 124t-86 41q-61 0 -110 -43t-70 -116v-281l58 -65h-153z" />
    <glyph glyph-name="ntilde" unicode="&#xf1;" horiz-adv-x="602" 
d="M100 82v365l-77 83h127v-127q32 70 84 107.5t118 37.5q79 0 119.5 -54t40.5 -159v-270l58 -65h-153l39 82v253q0 86 -29 128t-88 42q-62 0 -112 -43.5t-71 -115.5v-281l58 -65h-153zM358 611q-32 0 -80 16q-4 1 -22.5 6.5t-34.5 5.5q-37 0 -40 -32l-11 4q1 64 71 64
q31 0 79 -16q15 -5 30.5 -8.5t26.5 -3.5q18 0 29.5 8t13.5 24l11 -4q-1 -64 -73 -64z" />
    <glyph glyph-name="o" unicode="o" horiz-adv-x="598" 
d="M72.5 415q32.5 64 91 98.5t135.5 34.5q78 0 136.5 -34.5t90.5 -98.5t32 -150q0 -83 -31.5 -145.5t-90 -97t-137.5 -34.5t-137.5 34.5t-90 97t-31.5 145.5q0 86 32.5 150zM445 444q-53 64 -146 64t-146 -64t-53 -179q0 -113 51.5 -175t147.5 -62q95 0 147 63t52 174
q0 115 -53 179z" />
    <glyph glyph-name="oacute" unicode="&#xf3;" horiz-adv-x="598" 
d="M72.5 415q32.5 64 91 98.5t135.5 34.5q78 0 136.5 -34.5t90.5 -98.5t32 -150q0 -83 -31.5 -145.5t-90 -97t-137.5 -34.5t-137.5 34.5t-90 97t-31.5 145.5q0 86 32.5 150zM445 444q-53 64 -146 64t-146 -64t-53 -179q0 -113 51.5 -175t147.5 -62q95 0 147 63t52 174
q0 115 -53 179zM212 607q43 7 79.5 32t52.5 59q15 32 38 32q12 0 19.5 -8t7.5 -20q0 -13 -13 -29q-25 -31 -73.5 -51t-110.5 -24v9z" />
    <glyph glyph-name="obreve" unicode="&#x14f;" horiz-adv-x="598" 
d="M72.5 415q32.5 64 91 98.5t135.5 34.5q78 0 136.5 -34.5t90.5 -98.5t32 -150q0 -83 -31.5 -145.5t-90 -97t-137.5 -34.5t-137.5 34.5t-90 97t-31.5 145.5q0 86 32.5 150zM445 444q-53 64 -146 64t-146 -64t-53 -179q0 -113 51.5 -175t147.5 -62q95 0 147 63t52 174
q0 115 -53 179zM211 622q-33 29 -45 88h9q17 -42 46 -61t78 -19q47 0 76 18.5t47 61.5h9q-12 -59 -44.5 -88t-87.5 -29t-88 29z" />
    <glyph glyph-name="ocircumflex" unicode="&#xf4;" horiz-adv-x="598" 
d="M72.5 415q32.5 64 91 98.5t135.5 34.5q78 0 136.5 -34.5t90.5 -98.5t32 -150q0 -83 -31.5 -145.5t-90 -97t-137.5 -34.5t-137.5 34.5t-90 97t-31.5 145.5q0 86 32.5 150zM445 444q-53 64 -146 64t-146 -64t-53 -179q0 -113 51.5 -175t147.5 -62q95 0 147 63t52 174
q0 115 -53 179zM362 611.5q-32 12.5 -63 30.5q-31 -18 -63 -30.5t-80 -23.5v9q48 21 85.5 55.5t53.5 71.5h8q16 -37 54 -72t85 -55v-9q-48 11 -80 23.5z" />
    <glyph glyph-name="odieresis" unicode="&#xf6;" horiz-adv-x="598" 
d="M72.5 415q32.5 64 91 98.5t135.5 34.5q78 0 136.5 -34.5t90.5 -98.5t32 -150q0 -83 -31.5 -145.5t-90 -97t-137.5 -34.5t-137.5 34.5t-90 97t-31.5 145.5q0 86 32.5 150zM445 444q-53 64 -146 64t-146 -64t-53 -179q0 -113 51.5 -175t147.5 -62q95 0 147 63t52 174
q0 115 -53 179zM235 675q10 -10 10 -26q0 -15 -10 -25t-25 -10q-16 0 -26 10t-10 25q0 16 10 26t26 10q15 0 25 -10zM414 675q10 -10 10 -26q0 -15 -10 -25t-25 -10q-16 0 -26 10t-10 25q0 16 10 26t26 10q15 0 25 -10z" />
    <glyph glyph-name="ograve" unicode="&#xf2;" horiz-adv-x="598" 
d="M72.5 415q32.5 64 91 98.5t135.5 34.5q78 0 136.5 -34.5t90.5 -98.5t32 -150q0 -83 -31.5 -145.5t-90 -97t-137.5 -34.5t-137.5 34.5t-90 97t-31.5 145.5q0 86 32.5 150zM445 444q-53 64 -146 64t-146 -64t-53 -179q0 -113 51.5 -175t147.5 -62q95 0 147 63t52 174
q0 115 -53 179zM272.5 622q-48.5 20 -73.5 51q-13 16 -13 29q0 12 7.5 20t19.5 8q23 0 38 -32q16 -34 52.5 -59t79.5 -32v-9q-62 4 -110.5 24z" />
    <glyph glyph-name="ohungarumlaut" unicode="&#x151;" horiz-adv-x="598" 
d="M72.5 415q32.5 64 91 98.5t135.5 34.5q78 0 136.5 -34.5t90.5 -98.5t32 -150q0 -83 -31.5 -145.5t-90 -97t-137.5 -34.5t-137.5 34.5t-90 97t-31.5 145.5q0 86 32.5 150zM445 444q-53 64 -146 64t-146 -64t-53 -179q0 -113 51.5 -175t147.5 -62q95 0 147 63t52 174
q0 115 -53 179zM220 604q17 17 31 43.5t18 48.5q6 34 32 34q11 0 18.5 -7t7.5 -19q0 -16 -14 -36q-15 -21 -39.5 -40.5t-48.5 -29.5zM350 604q17 17 31 43.5t18 48.5q6 34 32 34q11 0 18.5 -7t7.5 -19q0 -16 -14 -36q-15 -21 -39.5 -40.5t-48.5 -29.5z" />
    <glyph glyph-name="omacron" unicode="&#x14d;" horiz-adv-x="598" 
d="M72.5 415q32.5 64 91 98.5t135.5 34.5q78 0 136.5 -34.5t90.5 -98.5t32 -150q0 -83 -31.5 -145.5t-90 -97t-137.5 -34.5t-137.5 34.5t-90 97t-31.5 145.5q0 86 32.5 150zM445 444q-53 64 -146 64t-146 -64t-53 -179q0 -113 51.5 -175t147.5 -62q95 0 147 63t52 174
q0 115 -53 179zM166 647h266v-29h-266v29z" />
    <glyph glyph-name="oslash" unicode="&#xf8;" horiz-adv-x="598" 
d="M130 44l-49 -56l-27 25l50 57q-64 73 -64 195q0 86 32.5 150t91 98.5t135.5 34.5q103 0 169 -58l50 57l26 -24l-50 -58q64 -76 64 -199q0 -84 -31.5 -146.5t-89.5 -97t-138 -34.5q-102 0 -169 56zM138 109l299 344q-52 55 -138 55q-93 0 -146 -64t-53 -179q0 -95 38 -156
zM446 91q52 63 52 175q0 97 -39 159l-298 -345q50 -52 138 -52q95 0 147 63z" />
    <glyph glyph-name="otilde" unicode="&#xf5;" horiz-adv-x="598" 
d="M72.5 415q32.5 64 91 98.5t135.5 34.5q78 0 136.5 -34.5t90.5 -98.5t32 -150q0 -83 -31.5 -145.5t-90 -97t-137.5 -34.5t-137.5 34.5t-90 97t-31.5 145.5q0 86 32.5 150zM445 444q-53 64 -146 64t-146 -64t-53 -179q0 -113 51.5 -175t147.5 -62q95 0 147 63t52 174
q0 115 -53 179zM356 611q-32 0 -80 16q-4 1 -22.5 6.5t-34.5 5.5q-37 0 -40 -32l-11 4q1 64 71 64q31 0 79 -16q15 -5 30.5 -8.5t26.5 -3.5q18 0 29.5 8t13.5 24l11 -4q-1 -64 -73 -64z" />
    <glyph glyph-name="oe" unicode="&#x153;" horiz-adv-x="1006" 
d="M108 63q-68 75 -68 204q0 83 31.5 147t90 99t137.5 35q83 0 143 -35.5t89 -102.5q32 65 89 101.5t129 36.5q99 0 151 -71.5t52 -209.5h-394q2 -116 55 -177.5t153 -61.5q55 0 97.5 22t94.5 77l8 -5q-37 -67 -93 -100.5t-129 -33.5q-77 0 -133 35.5t-85 99.5
q-32 -65 -91.5 -100t-140.5 -35q-118 0 -186 75zM445 91q53 63 53 176q0 114 -53 177.5t-146 63.5t-146 -63.5t-53 -177.5q0 -115 50 -177t144 -62q98 0 151 63zM613 453q-48 -55 -54 -153h336q0 103 -39 155.5t-115 52.5q-80 0 -128 -55z" />
    <glyph glyph-name="p" unicode="p" horiz-adv-x="597" 
d="M100 -118v565l-77 83h127v-106q28 59 78 91.5t114 32.5q65 0 114 -34t75 -97t26 -148t-26.5 -148.5t-75.5 -98t-114 -34.5q-61 0 -108.5 29.5t-76.5 83.5v-236l58 -65h-153zM220.5 70.5q45.5 -32.5 103.5 -32.5q80 0 127.5 62.5t47.5 168.5t-47 168t-127 62
q-59 0 -104.5 -32.5t-64.5 -88.5v-220q19 -55 64.5 -87.5z" />
    <glyph glyph-name="thorn" unicode="&#xfe;" horiz-adv-x="587" 
d="M90 -118v803l-58 65h114v-315q29 54 77.5 83.5t108.5 29.5q65 0 114 -34t75 -97t26 -148t-26.5 -148.5t-75.5 -98t-114 -34.5q-61 0 -109.5 30t-75.5 82v-235l58 -65h-153zM210.5 70.5q45.5 -32.5 103.5 -32.5q81 0 128 62t47 169q0 106 -47 168t-127 62
q-59 0 -104.5 -32.5t-64.5 -88.5v-220q19 -55 64.5 -87.5z" />
    <glyph glyph-name="q" unicode="q" horiz-adv-x="587" 
d="M441 -118v219q-29 -54 -76.5 -83.5t-108.5 -29.5q-65 0 -114 34.5t-75.5 98t-26.5 148.5t26 148t75 97t114 34q62 0 110.5 -30.5t77.5 -85.5l4 98h50v-665l58 -65h-153zM441 378q-19 56 -64.5 88.5t-103.5 32.5q-81 0 -128 -62t-47 -168t47.5 -168.5t127.5 -62.5
q58 0 103.5 32.5t64.5 87.5v220z" />
    <glyph glyph-name="r" unicode="r" horiz-adv-x="380" 
d="M100 82v365l-77 83h127v-188q17 85 64.5 136.5t110.5 51.5q45 0 45 -31q0 -33 -53 -33q-29 0 -53 -10q-72 -30 -108 -160v-231l58 -65h-153z" />
    <glyph glyph-name="racute" unicode="&#x155;" horiz-adv-x="380" 
d="M100 82v365l-77 83h127v-188q17 85 64.5 136.5t110.5 51.5q45 0 45 -31q0 -33 -53 -33q-29 0 -53 -10q-72 -30 -108 -160v-231l58 -65h-153zM116 607q43 7 79.5 32t52.5 59q15 32 38 32q12 0 19.5 -8t7.5 -20q0 -13 -13 -29q-25 -31 -73.5 -51t-110.5 -24v9z" />
    <glyph glyph-name="rcaron" unicode="&#x159;" horiz-adv-x="380" 
d="M100 82v365l-77 83h127v-188q17 85 64.5 136.5t110.5 51.5q45 0 45 -31q0 -33 -53 -33q-29 0 -53 -10q-72 -30 -108 -160v-231l58 -65h-153zM140 695.5q32 -12.5 63 -30.5q31 18 63 30.5t80 23.5v-9q-48 -21 -85.5 -55.5t-53.5 -71.5h-8q-16 37 -54 72t-85 55v9
q48 -11 80 -23.5z" />
    <glyph glyph-name="uni0157" unicode="&#x157;" horiz-adv-x="380" 
d="M100 82v365l-77 83h127v-188q17 85 64.5 136.5t110.5 51.5q45 0 45 -31q0 -33 -53 -33q-29 0 -53 -10q-72 -30 -108 -160v-231l58 -65h-153zM84 -264q26 22 40 55t11 64h-10q-19 0 -32.5 12.5t-13.5 30.5t13 31t32 13q24 0 39.5 -21t15.5 -53q0 -39 -23.5 -78t-62.5 -65z
" />
    <glyph glyph-name="s" unicode="s" horiz-adv-x="515" 
d="M51 122l68 -37q57 -31 100.5 -44.5t85.5 -13.5q111 0 111 85q0 31 -16 53t-53 41t-104 40q-100 31 -146.5 73.5t-46.5 102.5q0 58 37.5 92t101.5 34q79 0 155 -55l76 41v-139l-66 50q-81 64 -159 64q-47 0 -71.5 -20.5t-24.5 -60.5q0 -30 15 -51.5t50 -38.5t97 -35
q107 -31 155.5 -73.5t48.5 -107.5q0 -64 -42 -99t-119 -35q-45 0 -86 13t-85 40l-82 -51v132z" />
    <glyph glyph-name="sacute" unicode="&#x15b;" horiz-adv-x="515" 
d="M51 122l68 -37q57 -31 100.5 -44.5t85.5 -13.5q111 0 111 85q0 31 -16 53t-53 41t-104 40q-100 31 -146.5 73.5t-46.5 102.5q0 58 37.5 92t101.5 34q79 0 155 -55l76 41v-139l-66 50q-81 64 -159 64q-47 0 -71.5 -20.5t-24.5 -60.5q0 -30 15 -51.5t50 -38.5t97 -35
q107 -31 155.5 -73.5t48.5 -107.5q0 -64 -42 -99t-119 -35q-45 0 -86 13t-85 40l-82 -51v132zM149 607q43 7 79.5 32t52.5 59q15 32 38 32q12 0 19.5 -8t7.5 -20q0 -13 -13 -29q-25 -31 -73.5 -51t-110.5 -24v9z" />
    <glyph glyph-name="scaron" unicode="&#x161;" horiz-adv-x="515" 
d="M51 122l68 -37q57 -31 100.5 -44.5t85.5 -13.5q111 0 111 85q0 31 -16 53t-53 41t-104 40q-100 31 -146.5 73.5t-46.5 102.5q0 58 37.5 92t101.5 34q79 0 155 -55l76 41v-139l-66 50q-81 64 -159 64q-47 0 -71.5 -20.5t-24.5 -60.5q0 -30 15 -51.5t50 -38.5t97 -35
q107 -31 155.5 -73.5t48.5 -107.5q0 -64 -42 -99t-119 -35q-45 0 -86 13t-85 40l-82 -51v132zM173 695.5q32 -12.5 63 -30.5q31 18 63 30.5t80 23.5v-9q-48 -21 -85.5 -55.5t-53.5 -71.5h-8q-16 37 -54 72t-85 55v9q48 -11 80 -23.5z" />
    <glyph glyph-name="scedilla" unicode="&#x15f;" horiz-adv-x="515" 
d="M285 -11l-23 -52q41 -6 65 -29t24 -55q0 -38 -33 -62t-83 -24q-26 0 -56 8l2 9q22 -3 40 -3q44 0 67.5 16.5t23.5 47.5q0 62 -98 62l44 84q-62 10 -125 50l-82 -51v132l68 -37q57 -31 100.5 -44.5t85.5 -13.5q111 0 111 85q0 31 -16 53t-53 41t-104 40
q-100 31 -146.5 73.5t-46.5 102.5q0 58 37.5 92t101.5 34q79 0 155 -55l76 41v-139l-66 50q-81 64 -159 64q-47 0 -71.5 -20.5t-24.5 -60.5q0 -30 15 -51.5t50 -38.5t97 -35q107 -31 155.5 -73.5t48.5 -107.5q0 -64 -42 -99t-119 -35q-12 0 -19 1z" />
    <glyph glyph-name="scircumflex" unicode="&#x15d;" horiz-adv-x="515" 
d="M51 122l68 -37q57 -31 100.5 -44.5t85.5 -13.5q111 0 111 85q0 31 -16 53t-53 41t-104 40q-100 31 -146.5 73.5t-46.5 102.5q0 58 37.5 92t101.5 34q79 0 155 -55l76 41v-139l-66 50q-81 64 -159 64q-47 0 -71.5 -20.5t-24.5 -60.5q0 -30 15 -51.5t50 -38.5t97 -35
q107 -31 155.5 -73.5t48.5 -107.5q0 -64 -42 -99t-119 -35q-45 0 -86 13t-85 40l-82 -51v132zM299 611.5q-32 12.5 -63 30.5q-31 -18 -63 -30.5t-80 -23.5v9q48 21 85.5 55.5t53.5 71.5h8q16 -37 54 -72t85 -55v-9q-48 11 -80 23.5z" />
    <glyph glyph-name="uni0219" unicode="&#x219;" horiz-adv-x="515" 
d="M51 122l68 -37q57 -31 100.5 -44.5t85.5 -13.5q111 0 111 85q0 31 -16 53t-53 41t-104 40q-100 31 -146.5 73.5t-46.5 102.5q0 58 37.5 92t101.5 34q79 0 155 -55l76 41v-139l-66 50q-81 64 -159 64q-47 0 -71.5 -20.5t-24.5 -60.5q0 -30 15 -51.5t50 -38.5t97 -35
q107 -31 155.5 -73.5t48.5 -107.5q0 -64 -42 -99t-119 -35q-45 0 -86 13t-85 40l-82 -51v132zM237 -264q26 22 40 55t11 64h-10q-19 0 -32.5 12.5t-13.5 30.5t13 31t32 13q24 0 39.5 -21t15.5 -53q0 -39 -23.5 -78t-62.5 -65z" />
    <glyph glyph-name="germandbls" unicode="&#xdf;" horiz-adv-x="651" 
d="M115 82v408h-97v40h97q2 112 58.5 171t159.5 59q88 0 137.5 -41.5t49.5 -115.5q0 -55 -26 -102q-90 0 -132.5 -25.5t-42.5 -78.5q0 -41 30.5 -64t109.5 -39q90 -19 133 -57.5t43 -102.5q0 -66 -41 -106t-109 -40q-38 0 -75 13.5t-69 38.5l-81 -50v132l58 -39
q45 -30 82 -43.5t76 -13.5q54 0 82.5 23.5t28.5 67.5q0 46 -34 73.5t-112 45.5q-88 21 -129 57.5t-41 92.5q0 63 48.5 99t139.5 40q12 39 12 73q0 62 -39 97.5t-107 35.5q-79 0 -116.5 -53.5t-37.5 -167.5v-510h-95z" />
    <glyph glyph-name="t" unicode="t" horiz-adv-x="351" 
d="M116 530l23 170h33v-170h132v-42h-132v-353q0 -55 19.5 -82t59.5 -27q42 0 73 32l7 -6q-13 -31 -39 -47.5t-63 -16.5q-54 0 -83.5 33.5t-29.5 93.5v373h-106v42h106z" />
    <glyph glyph-name="tbar" unicode="&#x167;" horiz-adv-x="351" 
d="M116 351v137h-106v42h106l23 170h33v-170h132v-42h-132v-137h117v-36h-117v-180q0 -55 19.5 -82t59.5 -27q42 0 73 32l7 -6q-13 -31 -39 -47.5t-63 -16.5q-54 0 -83.5 33.5t-29.5 93.5v200h-95v36h95z" />
    <glyph glyph-name="tcaron" unicode="&#x165;" horiz-adv-x="351" 
d="M116 530l23 170h33v-170h132v-42h-132v-353q0 -55 19.5 -82t59.5 -27q42 0 73 32l7 -6q-13 -31 -39 -47.5t-63 -16.5q-54 0 -83.5 33.5t-29.5 93.5v373h-106v42h106zM236 629q26 22 40 55t11 64h-10q-19 0 -32.5 12.5t-13.5 30.5t13 31t32 13q24 0 39.5 -21t15.5 -53
q0 -39 -23.5 -78t-62.5 -65z" />
    <glyph glyph-name="uni0163" unicode="&#x163;" horiz-adv-x="351" 
d="M232 -12l-23 -51q41 -6 65 -29t24 -55q0 -38 -33 -62t-83 -24q-26 0 -56 8l2 9q22 -3 40 -3q44 0 67.5 16.5t23.5 47.5q0 62 -98 62l43 83q-42 8 -65 40.5t-23 84.5v373h-106v42h106l23 170h33v-170h132v-42h-132v-353q0 -55 19.5 -82t59.5 -27q42 0 73 32l7 -6
q-26 -62 -99 -64z" />
    <glyph glyph-name="uni021B" unicode="&#x21b;" horiz-adv-x="351" 
d="M116 530l23 170h33v-170h132v-42h-132v-353q0 -55 19.5 -82t59.5 -27q42 0 73 32l7 -6q-13 -31 -39 -47.5t-63 -16.5q-54 0 -83.5 33.5t-29.5 93.5v373h-106v42h106zM184 -264q26 22 40 55t11 64h-10q-19 0 -32.5 12.5t-13.5 30.5t13 31t32 13q24 0 39.5 -21t15.5 -53
q0 -39 -23.5 -78t-62.5 -65z" />
    <glyph glyph-name="u" unicode="u" horiz-adv-x="592" 
d="M146 168q0 -68 31 -104.5t88 -36.5q61 0 106.5 41.5t66.5 115.5v270l-68 76h122v-447l77 -83h-125v127q-61 -139 -189 -139q-78 0 -121.5 47.5t-43.5 132.5v297l-58 65h114v-362z" />
    <glyph glyph-name="uacute" unicode="&#xfa;" horiz-adv-x="592" 
d="M146 168q0 -68 31 -104.5t88 -36.5q61 0 106.5 41.5t66.5 115.5v270l-68 76h122v-447l77 -83h-125v127q-61 -139 -189 -139q-78 0 -121.5 47.5t-43.5 132.5v297l-58 65h114v-362zM190 607q43 7 79.5 32t52.5 59q15 32 38 32q12 0 19.5 -8t7.5 -20q0 -13 -13 -29
q-25 -31 -73.5 -51t-110.5 -24v9z" />
    <glyph glyph-name="ubreve" unicode="&#x16d;" horiz-adv-x="592" 
d="M146 168q0 -68 31 -104.5t88 -36.5q61 0 106.5 41.5t66.5 115.5v270l-68 76h122v-447l77 -83h-125v127q-61 -139 -189 -139q-78 0 -121.5 47.5t-43.5 132.5v297l-58 65h114v-362zM189 622q-33 29 -45 88h9q17 -42 46 -61t78 -19q47 0 76 18.5t47 61.5h9
q-12 -59 -44.5 -88t-87.5 -29t-88 29z" />
    <glyph glyph-name="ucircumflex" unicode="&#xfb;" horiz-adv-x="592" 
d="M146 168q0 -68 31 -104.5t88 -36.5q61 0 106.5 41.5t66.5 115.5v270l-68 76h122v-447l77 -83h-125v127q-61 -139 -189 -139q-78 0 -121.5 47.5t-43.5 132.5v297l-58 65h114v-362zM340 611.5q-32 12.5 -63 30.5q-31 -18 -63 -30.5t-80 -23.5v9q48 21 85.5 55.5t53.5 71.5
h8q16 -37 54 -72t85 -55v-9q-48 11 -80 23.5z" />
    <glyph glyph-name="udieresis" unicode="&#xfc;" horiz-adv-x="592" 
d="M146 168q0 -68 31 -104.5t88 -36.5q61 0 106.5 41.5t66.5 115.5v270l-68 76h122v-447l77 -83h-125v127q-61 -139 -189 -139q-78 0 -121.5 47.5t-43.5 132.5v297l-58 65h114v-362zM213 675q10 -10 10 -26q0 -15 -10 -25t-25 -10q-16 0 -26 10t-10 25q0 16 10 26t26 10
q15 0 25 -10zM392 675q10 -10 10 -26q0 -15 -10 -25t-25 -10q-16 0 -26 10t-10 25q0 16 10 26t26 10q15 0 25 -10z" />
    <glyph glyph-name="ugrave" unicode="&#xf9;" horiz-adv-x="592" 
d="M146 168q0 -68 31 -104.5t88 -36.5q61 0 106.5 41.5t66.5 115.5v270l-68 76h122v-447l77 -83h-125v127q-61 -139 -189 -139q-78 0 -121.5 47.5t-43.5 132.5v297l-58 65h114v-362zM250.5 622q-48.5 20 -73.5 51q-13 16 -13 29q0 12 7.5 20t19.5 8q23 0 38 -32
q16 -34 52.5 -59t79.5 -32v-9q-62 4 -110.5 24z" />
    <glyph glyph-name="uhungarumlaut" unicode="&#x171;" horiz-adv-x="592" 
d="M146 168q0 -68 31 -104.5t88 -36.5q61 0 106.5 41.5t66.5 115.5v270l-68 76h122v-447l77 -83h-125v127q-61 -139 -189 -139q-78 0 -121.5 47.5t-43.5 132.5v297l-58 65h114v-362zM198 604q17 17 31 43.5t18 48.5q6 34 32 34q11 0 18.5 -7t7.5 -19q0 -16 -14 -36
q-15 -21 -39.5 -40.5t-48.5 -29.5zM328 604q17 17 31 43.5t18 48.5q6 34 32 34q11 0 18.5 -7t7.5 -19q0 -16 -14 -36q-15 -21 -39.5 -40.5t-48.5 -29.5z" />
    <glyph glyph-name="umacron" unicode="&#x16b;" horiz-adv-x="592" 
d="M146 168q0 -68 31 -104.5t88 -36.5q61 0 106.5 41.5t66.5 115.5v270l-68 76h122v-447l77 -83h-125v127q-61 -139 -189 -139q-78 0 -121.5 47.5t-43.5 132.5v297l-58 65h114v-362zM144 647h266v-29h-266v29z" />
    <glyph glyph-name="uogonek" unicode="&#x173;" horiz-adv-x="592" 
d="M503.5 -170q15.5 -22 50.5 -34l-5 -8q-48 1 -76 29t-28 74q0 31 13.5 59.5t37.5 49.5h-52v127q-61 -139 -189 -139q-78 0 -121.5 47.5t-43.5 132.5v297l-58 65h114v-362q0 -68 31 -104.5t88 -36.5q61 0 106.5 41.5t66.5 115.5v270l-68 76h122v-447l77 -83h-47
q-34 -46 -34 -109q0 -39 15.5 -61z" />
    <glyph glyph-name="uring" unicode="&#x16f;" horiz-adv-x="592" 
d="M146 168q0 -68 31 -104.5t88 -36.5q61 0 106.5 41.5t66.5 115.5v270l-68 76h122v-447l77 -83h-125v127q-61 -139 -189 -139q-78 0 -121.5 47.5t-43.5 132.5v297l-58 65h114v-362zM219.5 602q-22.5 23 -22.5 57t22.5 57t56.5 23q35 0 58 -23t23 -57t-23 -57t-58 -23
q-34 0 -56.5 23zM320 614.5q18 17.5 18 44.5t-18 44.5t-45 17.5q-26 0 -43.5 -17.5t-17.5 -44.5t17.5 -44.5t43.5 -17.5q27 0 45 17.5z" />
    <glyph glyph-name="utilde" unicode="&#x169;" horiz-adv-x="592" 
d="M146 168q0 -68 31 -104.5t88 -36.5q61 0 106.5 41.5t66.5 115.5v270l-68 76h122v-447l77 -83h-125v127q-61 -139 -189 -139q-78 0 -121.5 47.5t-43.5 132.5v297l-58 65h114v-362zM334 611q-32 0 -80 16q-4 1 -22.5 6.5t-34.5 5.5q-37 0 -40 -32l-11 4q1 64 71 64
q31 0 79 -16q15 -5 30.5 -8.5t26.5 -3.5q18 0 29.5 8t13.5 24l11 -4q-1 -64 -73 -64z" />
    <glyph glyph-name="v" unicode="v" horiz-adv-x="531" 
d="M73 457l-73 73h170l-35 -74l154 -377l159 382l-61 69h134l-230 -542h-19z" />
    <glyph glyph-name="w" unicode="w" horiz-adv-x="778" 
d="M69 461l-69 69h167l-36 -76l131 -362l121 325l-17 42l-71 71h164l-34 -71l145 -373l128 372l-64 72h134l-193 -542h-19l-151 374l-141 -374h-19z" />
    <glyph glyph-name="wacute" unicode="&#x1e83;" horiz-adv-x="778" 
d="M69 461l-69 69h167l-36 -76l131 -362l121 325l-17 42l-71 71h164l-34 -71l145 -373l128 372l-64 72h134l-193 -542h-19l-151 374l-141 -374h-19zM312 607q43 7 79.5 32t52.5 59q15 32 38 32q12 0 19.5 -8t7.5 -20q0 -13 -13 -29q-25 -31 -73.5 -51t-110.5 -24v9z" />
    <glyph glyph-name="wcircumflex" unicode="&#x175;" horiz-adv-x="778" 
d="M69 461l-69 69h167l-36 -76l131 -362l121 325l-17 42l-71 71h164l-34 -71l145 -373l128 372l-64 72h134l-193 -542h-19l-151 374l-141 -374h-19zM462 611.5q-32 12.5 -63 30.5q-31 -18 -63 -30.5t-80 -23.5v9q48 21 85.5 55.5t53.5 71.5h8q16 -37 54 -72t85 -55v-9
q-48 11 -80 23.5z" />
    <glyph glyph-name="wdieresis" unicode="&#x1e85;" horiz-adv-x="778" 
d="M69 461l-69 69h167l-36 -76l131 -362l121 325l-17 42l-71 71h164l-34 -71l145 -373l128 372l-64 72h134l-193 -542h-19l-151 374l-141 -374h-19zM335 675q10 -10 10 -26q0 -15 -10 -25t-25 -10q-16 0 -26 10t-10 25q0 16 10 26t26 10q15 0 25 -10zM514 675q10 -10 10 -26
q0 -15 -10 -25t-25 -10q-16 0 -26 10t-10 25q0 16 10 26t26 10q15 0 25 -10z" />
    <glyph glyph-name="wgrave" unicode="&#x1e81;" horiz-adv-x="778" 
d="M69 461l-69 69h167l-36 -76l131 -362l121 325l-17 42l-71 71h164l-34 -71l145 -373l128 372l-64 72h134l-193 -542h-19l-151 374l-141 -374h-19zM372.5 622q-48.5 20 -73.5 51q-13 16 -13 29q0 12 7.5 20t19.5 8q23 0 38 -32q16 -34 52.5 -59t79.5 -32v-9
q-62 4 -110.5 24z" />
    <glyph glyph-name="x" unicode="x" horiz-adv-x="538" 
d="M0 0l231 263l-225 267h151l-30 -60l145 -172l153 176l-52 56h155l-231 -263l225 -267h-151l30 60l-144 172l-153 -176l52 -56h-156z" />
    <glyph glyph-name="y" unicode="y" horiz-adv-x="531" 
d="M114 -163q10 0 17 -1t12 -2q24 -4 37 -4q49 0 80 29t31 77q0 49 -33 85l-185 436l-73 73h170l-35 -74l154 -377l159 382l-61 69h134l-218 -513q24 -47 24 -88q0 -46 -23.5 -84t-64.5 -59.5t-93 -21.5q-73 0 -73 42q0 31 41 31z" />
    <glyph glyph-name="yacute" unicode="&#xfd;" horiz-adv-x="531" 
d="M114 -163q10 0 17 -1t12 -2q24 -4 37 -4q49 0 80 29t31 77q0 49 -33 85l-185 436l-73 73h170l-35 -74l154 -377l159 382l-61 69h134l-218 -513q24 -47 24 -88q0 -46 -23.5 -84t-64.5 -59.5t-93 -21.5q-73 0 -73 42q0 31 41 31zM198 607q43 7 79.5 32t52.5 59q15 32 38 32
q12 0 19.5 -8t7.5 -20q0 -13 -13 -29q-25 -31 -73.5 -51t-110.5 -24v9z" />
    <glyph glyph-name="ycircumflex" unicode="&#x177;" horiz-adv-x="531" 
d="M114 -163q10 0 17 -1t12 -2q24 -4 37 -4q49 0 80 29t31 77q0 49 -33 85l-185 436l-73 73h170l-35 -74l154 -377l159 382l-61 69h134l-218 -513q24 -47 24 -88q0 -46 -23.5 -84t-64.5 -59.5t-93 -21.5q-73 0 -73 42q0 31 41 31zM348 611.5q-32 12.5 -63 30.5
q-31 -18 -63 -30.5t-80 -23.5v9q48 21 85.5 55.5t53.5 71.5h8q16 -37 54 -72t85 -55v-9q-48 11 -80 23.5z" />
    <glyph glyph-name="ydieresis" unicode="&#xff;" horiz-adv-x="531" 
d="M114 -163q10 0 17 -1t12 -2q24 -4 37 -4q49 0 80 29t31 77q0 49 -33 85l-185 436l-73 73h170l-35 -74l154 -377l159 382l-61 69h134l-218 -513q24 -47 24 -88q0 -46 -23.5 -84t-64.5 -59.5t-93 -21.5q-73 0 -73 42q0 31 41 31zM221 675q10 -10 10 -26q0 -15 -10 -25
t-25 -10q-16 0 -26 10t-10 25q0 16 10 26t26 10q15 0 25 -10zM400 675q10 -10 10 -26q0 -15 -10 -25t-25 -10q-16 0 -26 10t-10 25q0 16 10 26t26 10q15 0 25 -10z" />
    <glyph glyph-name="ygrave" unicode="&#x1ef3;" horiz-adv-x="531" 
d="M114 -163q10 0 17 -1t12 -2q24 -4 37 -4q49 0 80 29t31 77q0 49 -33 85l-185 436l-73 73h170l-35 -74l154 -377l159 382l-61 69h134l-218 -513q24 -47 24 -88q0 -46 -23.5 -84t-64.5 -59.5t-93 -21.5q-73 0 -73 42q0 31 41 31zM258.5 622q-48.5 20 -73.5 51
q-13 16 -13 29q0 12 7.5 20t19.5 8q23 0 38 -32q16 -34 52.5 -59t79.5 -32v-9q-62 4 -110.5 24z" />
    <glyph glyph-name="z" unicode="z" horiz-adv-x="533" 
d="M399 492h-238l-78 -108v146h410l-355 -490h265l83 106v-146h-446z" />
    <glyph glyph-name="zacute" unicode="&#x17a;" horiz-adv-x="533" 
d="M399 492h-238l-78 -108v146h410l-355 -490h265l83 106v-146h-446zM189 607q43 7 79.5 32t52.5 59q15 32 38 32q12 0 19.5 -8t7.5 -20q0 -13 -13 -29q-25 -31 -73.5 -51t-110.5 -24v9z" />
    <glyph glyph-name="zcaron" unicode="&#x17e;" horiz-adv-x="533" 
d="M399 492h-238l-78 -108v146h410l-355 -490h265l83 106v-146h-446zM213 695.5q32 -12.5 63 -30.5q31 18 63 30.5t80 23.5v-9q-48 -21 -85.5 -55.5t-53.5 -71.5h-8q-16 37 -54 72t-85 55v9q48 -11 80 -23.5z" />
    <glyph glyph-name="zdotaccent" unicode="&#x17c;" horiz-adv-x="533" 
d="M399 492h-238l-78 -108v146h410l-355 -490h265l83 106v-146h-446zM246 637q-12 12 -12 30t12 30t30 12t30 -12t12 -30t-12 -30t-30 -12t-30 12z" />
    <glyph glyph-name="uni01B6" unicode="&#x1b6;" horiz-adv-x="533" 
d="M403 40l83 106v-146h-446l180 247h-113v36h139l153 209h-238l-78 -108v146h410l-179 -247h112v-36h-138l-150 -207h265z" />
    <glyph glyph-name="a.ss01" horiz-adv-x="578" 
d="M142 22.5q-49 34.5 -75.5 98t-26.5 148.5t26 148t75 97t114 34q61 0 109.5 -30t77.5 -85l4 97h51v-465l58 -65h-108v112q-28 -59 -78 -91.5t-113 -32.5q-65 0 -114 34.5zM376.5 70.5q45.5 32.5 64.5 87.5v220q-19 56 -64.5 88.5t-103.5 32.5q-81 0 -128 -62t-47 -168
t47.5 -168.5t127.5 -62.5q58 0 103.5 32.5z" />
    <glyph glyph-name="aacute.ss01" horiz-adv-x="578" 
d="M142 22.5q-49 34.5 -75.5 98t-26.5 148.5t26 148t75 97t114 34q61 0 109.5 -30t77.5 -85l4 97h51v-465l58 -65h-108v112q-28 -59 -78 -91.5t-113 -32.5q-65 0 -114 34.5zM376.5 70.5q45.5 32.5 64.5 87.5v220q-19 56 -64.5 88.5t-103.5 32.5q-81 0 -128 -62t-47 -168
t47.5 -168.5t127.5 -62.5q58 0 103.5 32.5zM182 607q43 7 79.5 32t52.5 59q15 32 38 32q12 0 19.5 -8t7.5 -20q0 -13 -13 -29q-25 -31 -73.5 -51t-110.5 -24v9z" />
    <glyph glyph-name="abreve.ss01" horiz-adv-x="578" 
d="M142 22.5q-49 34.5 -75.5 98t-26.5 148.5t26 148t75 97t114 34q61 0 109.5 -30t77.5 -85l4 97h51v-465l58 -65h-108v112q-28 -59 -78 -91.5t-113 -32.5q-65 0 -114 34.5zM376.5 70.5q45.5 32.5 64.5 87.5v220q-19 56 -64.5 88.5t-103.5 32.5q-81 0 -128 -62t-47 -168
t47.5 -168.5t127.5 -62.5q58 0 103.5 32.5zM181 622q-33 29 -45 88h9q17 -42 46 -61t78 -19q47 0 76 18.5t47 61.5h9q-12 -59 -44.5 -88t-87.5 -29t-88 29z" />
    <glyph glyph-name="acircumflex.ss01" horiz-adv-x="578" 
d="M142 22.5q-49 34.5 -75.5 98t-26.5 148.5t26 148t75 97t114 34q61 0 109.5 -30t77.5 -85l4 97h51v-465l58 -65h-108v112q-28 -59 -78 -91.5t-113 -32.5q-65 0 -114 34.5zM376.5 70.5q45.5 32.5 64.5 87.5v220q-19 56 -64.5 88.5t-103.5 32.5q-81 0 -128 -62t-47 -168
t47.5 -168.5t127.5 -62.5q58 0 103.5 32.5zM332 611.5q-32 12.5 -63 30.5q-31 -18 -63 -30.5t-80 -23.5v9q48 21 85.5 55.5t53.5 71.5h8q16 -37 54 -72t85 -55v-9q-48 11 -80 23.5z" />
    <glyph glyph-name="adieresis.ss01" horiz-adv-x="578" 
d="M142 22.5q-49 34.5 -75.5 98t-26.5 148.5t26 148t75 97t114 34q61 0 109.5 -30t77.5 -85l4 97h51v-465l58 -65h-108v112q-28 -59 -78 -91.5t-113 -32.5q-65 0 -114 34.5zM376.5 70.5q45.5 32.5 64.5 87.5v220q-19 56 -64.5 88.5t-103.5 32.5q-81 0 -128 -62t-47 -168
t47.5 -168.5t127.5 -62.5q58 0 103.5 32.5zM205 675q10 -10 10 -26q0 -15 -10 -25t-25 -10q-16 0 -26 10t-10 25q0 16 10 26t26 10q15 0 25 -10zM384 675q10 -10 10 -26q0 -15 -10 -25t-25 -10q-16 0 -26 10t-10 25q0 16 10 26t26 10q15 0 25 -10z" />
    <glyph glyph-name="agrave.ss01" horiz-adv-x="578" 
d="M142 22.5q-49 34.5 -75.5 98t-26.5 148.5t26 148t75 97t114 34q61 0 109.5 -30t77.5 -85l4 97h51v-465l58 -65h-108v112q-28 -59 -78 -91.5t-113 -32.5q-65 0 -114 34.5zM376.5 70.5q45.5 32.5 64.5 87.5v220q-19 56 -64.5 88.5t-103.5 32.5q-81 0 -128 -62t-47 -168
t47.5 -168.5t127.5 -62.5q58 0 103.5 32.5zM242.5 622q-48.5 20 -73.5 51q-13 16 -13 29q0 12 7.5 20t19.5 8q23 0 38 -32q16 -34 52.5 -59t79.5 -32v-9q-62 4 -110.5 24z" />
    <glyph glyph-name="uni0203.ss01" horiz-adv-x="578" 
d="M352 662q33 -29 45 -88h-9q-17 42 -46 61t-78 19q-47 0 -76 -18.5t-47 -61.5h-9q12 59 44.5 88t87.5 29t88 -29zM142 22.5q-49 34.5 -75.5 98t-26.5 148.5t26 148t75 97t114 34q61 0 109.5 -30t77.5 -85l4 97h51v-465l58 -65h-108v112q-28 -59 -78 -91.5t-113 -32.5
q-65 0 -114 34.5zM376.5 70.5q45.5 32.5 64.5 87.5v220q-19 56 -64.5 88.5t-103.5 32.5q-81 0 -128 -62t-47 -168t47.5 -168.5t127.5 -62.5q58 0 103.5 32.5z" />
    <glyph glyph-name="amacron.ss01" horiz-adv-x="578" 
d="M142 22.5q-49 34.5 -75.5 98t-26.5 148.5t26 148t75 97t114 34q61 0 109.5 -30t77.5 -85l4 97h51v-465l58 -65h-108v112q-28 -59 -78 -91.5t-113 -32.5q-65 0 -114 34.5zM376.5 70.5q45.5 32.5 64.5 87.5v220q-19 56 -64.5 88.5t-103.5 32.5q-81 0 -128 -62t-47 -168
t47.5 -168.5t127.5 -62.5q58 0 103.5 32.5zM136 647h266v-29h-266v29z" />
    <glyph glyph-name="aogonek.ss01" horiz-adv-x="578" 
d="M499.5 -170q15.5 -22 50.5 -34l-5 -8q-48 1 -76 29t-28 74q0 31 13.5 59.5t37.5 49.5h-45v112q-28 -59 -78 -91.5t-113 -32.5q-65 0 -114 34.5t-75.5 98t-26.5 148.5t26 148t75 97t114 34q61 0 109.5 -30t77.5 -85l4 97h51v-465l58 -65h-37q-34 -46 -34 -109
q0 -39 15.5 -61zM441 378q-19 56 -64.5 88.5t-103.5 32.5q-81 0 -128 -62t-47 -168t47.5 -168.5t127.5 -62.5q58 0 103.5 32.5t64.5 87.5v220z" />
    <glyph glyph-name="aring.ss01" horiz-adv-x="578" 
d="M142 22.5q-49 34.5 -75.5 98t-26.5 148.5t26 148t75 97t114 34q61 0 109.5 -30t77.5 -85l4 97h51v-465l58 -65h-108v112q-28 -59 -78 -91.5t-113 -32.5q-65 0 -114 34.5zM376.5 70.5q45.5 32.5 64.5 87.5v220q-19 56 -64.5 88.5t-103.5 32.5q-81 0 -128 -62t-47 -168
t47.5 -168.5t127.5 -62.5q58 0 103.5 32.5zM211.5 602q-22.5 23 -22.5 57t22.5 57t56.5 23q35 0 58 -23t23 -57t-23 -57t-58 -23q-34 0 -56.5 23zM312 614.5q18 17.5 18 44.5t-18 44.5t-45 17.5q-26 0 -43.5 -17.5t-17.5 -44.5t17.5 -44.5t43.5 -17.5q27 0 45 17.5z" />
    <glyph glyph-name="atilde.ss01" horiz-adv-x="578" 
d="M142 22.5q-49 34.5 -75.5 98t-26.5 148.5t26 148t75 97t114 34q61 0 109.5 -30t77.5 -85l4 97h51v-465l58 -65h-108v112q-28 -59 -78 -91.5t-113 -32.5q-65 0 -114 34.5zM376.5 70.5q45.5 32.5 64.5 87.5v220q-19 56 -64.5 88.5t-103.5 32.5q-81 0 -128 -62t-47 -168
t47.5 -168.5t127.5 -62.5q58 0 103.5 32.5zM326 611q-32 0 -80 16q-4 1 -22.5 6.5t-34.5 5.5q-37 0 -40 -32l-11 4q1 64 71 64q31 0 79 -16q15 -5 30.5 -8.5t26.5 -3.5q18 0 29.5 8t13.5 24l11 -4q-1 -64 -73 -64z" />
    <glyph glyph-name="ae.ss01" horiz-adv-x="875" 
d="M427 267q1 -116 54.5 -177.5t153.5 -61.5q55 0 97.5 22t94.5 77l8 -5q-37 -67 -93 -100.5t-129 -33.5q-79 0 -136 38.5t-83 108.5q-17 -73 -63 -110t-119 -37q-78 0 -125 39.5t-47 103.5q0 47 26.5 81t77.5 53q39 14 98 22t129 8v47q0 174 -142 174q-56 0 -86 -26.5
t-32 -78.5q-1 -48 -28 -48q-13 0 -20.5 12t-7.5 34q0 39 23 71t63.5 50t90.5 18q66 0 113.5 -31.5t67.5 -88.5q32 57 84.5 88.5t119.5 31.5q100 0 152 -71.5t52 -209.5h-394zM482.5 453.5q-47.5 -54.5 -54.5 -153.5h336q0 103 -39 155.5t-115 52.5q-80 0 -127.5 -54.5z
M371 273q-66 0 -122.5 -9.5t-88.5 -25.5q-61 -30 -61 -99q0 -52 33.5 -83t89.5 -31q73 0 111 54t38 158v36z" />
    <glyph glyph-name="aeacute.ss01" horiz-adv-x="875" 
d="M427 267q1 -116 54.5 -177.5t153.5 -61.5q55 0 97.5 22t94.5 77l8 -5q-37 -67 -93 -100.5t-129 -33.5q-79 0 -136 38.5t-83 108.5q-17 -73 -63 -110t-119 -37q-78 0 -125 39.5t-47 103.5q0 47 26.5 81t77.5 53q39 14 98 22t129 8v47q0 174 -142 174q-56 0 -86 -26.5
t-32 -78.5q-1 -48 -28 -48q-13 0 -20.5 12t-7.5 34q0 39 23 71t63.5 50t90.5 18q66 0 113.5 -31.5t67.5 -88.5q32 57 84.5 88.5t119.5 31.5q100 0 152 -71.5t52 -209.5h-394zM482.5 453.5q-47.5 -54.5 -54.5 -153.5h336q0 103 -39 155.5t-115 52.5q-80 0 -127.5 -54.5z
M371 273q-66 0 -122.5 -9.5t-88.5 -25.5q-61 -30 -61 -99q0 -52 33.5 -83t89.5 -31q73 0 111 54t38 158v36zM323 607q43 7 79.5 32t52.5 59q15 32 38 32q12 0 19.5 -8t7.5 -20q0 -13 -13 -29q-25 -31 -73.5 -51t-110.5 -24v9z" />
    <glyph glyph-name="g.ss01" horiz-adv-x="577" 
d="M155 -224q-38 12 -60 32t-22 44q0 16 9 25t25 9q12 0 22 -7t22 -24q19 -28 42.5 -39.5t59.5 -11.5q88 0 138 62.5t50 170.5v64q-29 -54 -76.5 -83.5t-108.5 -29.5q-65 0 -114 34.5t-75.5 98t-26.5 148.5t26 148t75 97t114 34q61 0 109.5 -30t77.5 -85l4 97h51v-492
q0 -82 -32.5 -144t-91 -96t-134.5 -34q-46 0 -84 12zM376.5 70.5q45.5 32.5 64.5 87.5v220q-19 56 -64.5 88.5t-104.5 32.5q-80 0 -127 -62t-47 -168t47.5 -168.5t127.5 -62.5q58 0 103.5 32.5z" />
    <glyph glyph-name="gbreve.ss01" horiz-adv-x="577" 
d="M155 -224q-38 12 -60 32t-22 44q0 16 9 25t25 9q12 0 22 -7t22 -24q19 -28 42.5 -39.5t59.5 -11.5q88 0 138 62.5t50 170.5v64q-29 -54 -76.5 -83.5t-108.5 -29.5q-65 0 -114 34.5t-75.5 98t-26.5 148.5t26 148t75 97t114 34q61 0 109.5 -30t77.5 -85l4 97h51v-492
q0 -82 -32.5 -144t-91 -96t-134.5 -34q-46 0 -84 12zM376.5 70.5q45.5 32.5 64.5 87.5v220q-19 56 -64.5 88.5t-104.5 32.5q-80 0 -127 -62t-47 -168t47.5 -168.5t127.5 -62.5q58 0 103.5 32.5zM183 622q-33 29 -45 88h9q17 -42 46 -61t78 -19q47 0 76 18.5t47 61.5h9
q-12 -59 -44.5 -88t-87.5 -29t-88 29z" />
    <glyph glyph-name="gcircumflex.ss01" horiz-adv-x="577" 
d="M155 -224q-38 12 -60 32t-22 44q0 16 9 25t25 9q12 0 22 -7t22 -24q19 -28 42.5 -39.5t59.5 -11.5q88 0 138 62.5t50 170.5v64q-29 -54 -76.5 -83.5t-108.5 -29.5q-65 0 -114 34.5t-75.5 98t-26.5 148.5t26 148t75 97t114 34q61 0 109.5 -30t77.5 -85l4 97h51v-492
q0 -82 -32.5 -144t-91 -96t-134.5 -34q-46 0 -84 12zM376.5 70.5q45.5 32.5 64.5 87.5v220q-19 56 -64.5 88.5t-104.5 32.5q-80 0 -127 -62t-47 -168t47.5 -168.5t127.5 -62.5q58 0 103.5 32.5zM334 611.5q-32 12.5 -63 30.5q-31 -18 -63 -30.5t-80 -23.5v9q48 21 85.5 55.5
t53.5 71.5h8q16 -37 54 -72t85 -55v-9q-48 11 -80 23.5z" />
    <glyph glyph-name="uni0123.ss01" horiz-adv-x="577" 
d="M317 813q-26 -22 -40 -55t-11 -64h10q19 0 32.5 -12.5t13.5 -30.5t-13 -31t-32 -13q-24 0 -39.5 21t-15.5 53q0 39 23.5 78t62.5 65zM155 -224q-38 12 -60 32t-22 44q0 16 9 25t25 9q12 0 22 -7t22 -24q19 -28 42.5 -39.5t59.5 -11.5q88 0 138 62.5t50 170.5v64
q-29 -54 -76.5 -83.5t-108.5 -29.5q-65 0 -114 34.5t-75.5 98t-26.5 148.5t26 148t75 97t114 34q61 0 109.5 -30t77.5 -85l4 97h51v-492q0 -82 -32.5 -144t-91 -96t-134.5 -34q-46 0 -84 12zM376.5 70.5q45.5 32.5 64.5 87.5v220q-19 56 -64.5 88.5t-104.5 32.5
q-80 0 -127 -62t-47 -168t47.5 -168.5t127.5 -62.5q58 0 103.5 32.5z" />
    <glyph glyph-name="gdotaccent.ss01" horiz-adv-x="577" 
d="M155 -224q-38 12 -60 32t-22 44q0 16 9 25t25 9q12 0 22 -7t22 -24q19 -28 42.5 -39.5t59.5 -11.5q88 0 138 62.5t50 170.5v64q-29 -54 -76.5 -83.5t-108.5 -29.5q-65 0 -114 34.5t-75.5 98t-26.5 148.5t26 148t75 97t114 34q61 0 109.5 -30t77.5 -85l4 97h51v-492
q0 -82 -32.5 -144t-91 -96t-134.5 -34q-46 0 -84 12zM376.5 70.5q45.5 32.5 64.5 87.5v220q-19 56 -64.5 88.5t-104.5 32.5q-80 0 -127 -62t-47 -168t47.5 -168.5t127.5 -62.5q58 0 103.5 32.5zM241 637q-12 12 -12 30t12 30t30 12t30 -12t12 -30t-12 -30t-30 -12t-30 12z
" />
    <glyph glyph-name="g.ss02" horiz-adv-x="515" 
d="M140 133q0 -16 18 -27t52 -15l124 -14q161 -18 161 -137q0 -78 -64.5 -120.5t-181.5 -42.5q-106 0 -162.5 35.5t-56.5 100.5q0 49 31 85t83 47q-51 20 -51 69q0 65 83 77q-55 22 -86 67.5t-31 106.5q0 83 57 132.5t157 49.5q86 0 218 -18v-27h-109q35 -29 50.5 -61.5
t15.5 -75.5q0 -88 -56.5 -138.5t-157.5 -52.5q-94 -2 -94 -41zM355.5 250.5q36.5 42.5 36.5 114.5q0 69 -36 108.5t-99 39.5q-65 0 -103.5 -40.5t-38.5 -107.5q0 -69 40 -113t102 -44t98.5 42.5zM247 -187q93 0 146.5 31t53.5 86q0 78 -115 90l-137 14q-59 -11 -87 -38
t-28 -73q0 -110 167 -110z" />
    <glyph glyph-name="c_t" horiz-adv-x="891" 
d="M520 119q-40 -67 -96 -99t-131 -32q-77 0 -134 32t-88 91.5t-31 138.5q0 84 33.5 152t92 107t130.5 39q66 0 117 -30q-17 43 -17 79q0 65 42.5 103.5t114.5 38.5q80 0 119.5 -52t39.5 -157h132v-42h-132v-353q0 -55 19.5 -82t60.5 -27t72 32l7 -6q-13 -31 -39 -47.5
t-63 -16.5q-54 0 -83.5 33.5t-29.5 93.5v373h-106v42h106q0 87 -29 128t-87 41q-51 0 -80 -28t-29 -76q0 -28 10 -62t27 -63q22 -38 22 -72q0 -43 -33 -43q-16 0 -23.5 10.5t-10.5 36.5q-7 53 -36.5 79.5t-84.5 26.5q-60 0 -106 -30.5t-71 -87t-25 -130.5q0 -109 54 -170.5
t151 -61.5q58 0 109 24t98 73z" />
    <glyph glyph-name="fi" unicode="&#xfb01;" horiz-adv-x="539" 
d="M110 82v408h-97v40h91q-14 16 -21.5 38t-7.5 46q0 41 20 74.5t54.5 52.5t75.5 19q30 0 47.5 -10t17.5 -27q0 -13 -10 -20.5t-27 -7.5q-10 0 -28 4q-22 4 -34 4q-36 0 -58.5 -23t-22.5 -61q0 -40 24.5 -64.5t65.5 -24.5h239v-465l58 -65h-153l39 82v408h-217v-425l58 -65
h-153zM441 726.5q12 -12.5 12 -31.5t-12 -31t-31 -12t-31 12t-12 31t12 31.5t31 12.5t31 -12.5z" />
    <glyph glyph-name="fl" unicode="&#xfb02;" horiz-adv-x="529" 
d="M110 82v408h-97v40h91q-14 16 -21.5 38.5t-7.5 48.5q0 62 40 102.5t101 40.5q28 0 43.5 -9.5t15.5 -26.5q0 -14 -10 -21.5t-27 -7.5q-10 0 -26 4q-18 4 -30 4q-34 0 -53 -21t-19 -59q0 -43 24.5 -68t65.5 -25h47v-40h-81v-425l58 -65h-153zM373 82v585l-77 83h133v-685
l58 -65h-153z" />
    <glyph glyph-name="s_t" horiz-adv-x="866" 
d="M51 122l68 -37q57 -31 100.5 -44.5t85.5 -13.5q111 0 111 85q0 31 -16 53.5t-53 41.5t-104 39q-99 30 -146 72.5t-47 102.5q0 57 38.5 92t100.5 35q83 0 166 -65q-16 38 -16 86q0 80 47 125t123 45q82 0 130 -54t48 -155h132v-42h-132v-353q0 -55 19.5 -82t59.5 -27
q42 0 73 32l7 -6q-13 -31 -39 -47.5t-63 -16.5q-54 0 -83.5 33.5t-29.5 93.5v373h-106v42h106q0 85 -34 127t-95 42q-56 0 -92 -34.5t-36 -96.5q0 -36 12.5 -83.5t33.5 -90.5l-66 50q-85 65 -161 65q-45 0 -68.5 -21t-23.5 -61q0 -30 15 -51t49 -38t96 -35
q107 -31 155.5 -73t48.5 -103q0 -63 -45 -101t-120 -38q-41 0 -81.5 13t-85.5 40l-82 -51v132z" />
    <glyph glyph-name="ordfeminine" unicode="&#xaa;" horiz-adv-x="405" 
d="M374 376q-6 -17 -18.5 -26t-28.5 -9q-21 0 -33.5 15.5t-13.5 43.5q-15 -27 -48.5 -43t-76.5 -16q-57 0 -90 28t-33 76q0 67 70 101q30 15 71.5 22t106.5 8v27q0 68 -22.5 97t-75.5 29q-44 0 -66.5 -18.5t-27.5 -58.5q-2 -19 -7.5 -27.5t-16.5 -8.5q-24 0 -24 36
q0 47 40 77.5t103 30.5q71 0 108 -40t37 -116v-178q0 -43 42 -43zM280 554q-98 0 -149 -26q-25 -13 -37 -30.5t-12 -42.5q0 -37 24.5 -57t71.5 -20q41 0 63 14t39 40v122z" />
    <glyph glyph-name="ordmasculine" unicode="&#xba;" horiz-adv-x="484" 
d="M68 658q25 48 70.5 75t103.5 27t103 -26.5t70.5 -74t25.5 -109.5q0 -61 -25 -108.5t-70.5 -74t-103.5 -26.5t-103.5 26.5t-70.5 74t-25 108.5q0 60 25 108zM367.5 642q-18.5 41 -51 64t-74.5 23q-41 0 -74 -23t-51.5 -64t-18.5 -93q0 -80 39.5 -129t104.5 -49t104.5 49.5
t39.5 128.5q0 52 -18.5 93z" />
    <glyph glyph-name="ordfeminine.osf" horiz-adv-x="403" 
d="M365 233q-6 -17 -18 -26t-28 -9q-20 0 -32 15.5t-13 43.5q-14 -28 -46.5 -43.5t-74.5 -15.5q-55 0 -87.5 26.5t-32.5 72.5q0 31 16.5 54.5t51.5 40.5q32 16 72 23t101 8v17q0 68 -22 97t-74 29q-42 0 -64 -18.5t-27 -59.5q-2 -19 -7.5 -27t-15.5 -8q-23 0 -23 37
q0 47 39 77t100 30q68 0 103.5 -40t35.5 -116v-158q0 -43 42 -43zM274 401q-84 0 -141 -26q-28 -13 -40 -29t-12 -39q0 -35 23.5 -53.5t64.5 -18.5q35 0 59.5 14.5t45.5 45.5v106z" />
    <glyph glyph-name="ordmasculine.osf" horiz-adv-x="477" 
d="M96 542q53 55 141 55t141 -55t53 -146q0 -89 -53 -143.5t-141 -54.5t-141 54.5t-53 143.5q0 91 53 146zM339 521q-37 45 -102 45t-102 -45t-37 -125q0 -79 37 -123.5t102 -44.5t102 44.5t37 123.5q0 80 -37 125z" />
    <glyph glyph-name="ordfeminine.tf" 
d="M409 376q-6 -17 -18.5 -26t-28.5 -9q-21 0 -33.5 15.5t-13.5 43.5q-15 -27 -48.5 -43t-76.5 -16q-57 0 -90 28t-33 76q0 67 70 101q30 15 71.5 22t106.5 8v27q0 68 -22.5 97t-75.5 29q-44 0 -66.5 -18.5t-27.5 -58.5q-2 -19 -7.5 -27.5t-16.5 -8.5q-24 0 -24 36
q0 47 40 77.5t103 30.5q71 0 108 -40t37 -116v-178q0 -43 42 -43zM315 554q-98 0 -149 -26q-25 -13 -37 -30.5t-12 -42.5q0 -37 24.5 -57t71.5 -20q41 0 63 14t39 40v122z" />
    <glyph glyph-name="ordmasculine.tf" 
d="M103 658q25 48 70.5 75t103.5 27t103 -26.5t70.5 -74t25.5 -109.5q0 -61 -25 -108.5t-70.5 -74t-103.5 -26.5t-103.5 26.5t-70.5 74t-25 108.5q0 60 25 108zM402.5 642q-18.5 41 -51 64t-74.5 23q-41 0 -74 -23t-51.5 -64t-18.5 -93q0 -80 39.5 -129t104.5 -49
t104.5 49.5t39.5 128.5q0 52 -18.5 93z" />
    <glyph glyph-name="ordfeminine.tosf" 
d="M400 233q-6 -17 -18 -26t-28 -9q-20 0 -32 15.5t-13 43.5q-14 -27 -46 -43t-75 -16q-55 0 -87.5 26.5t-32.5 72.5q0 31 16.5 54.5t51.5 40.5q32 16 72 23t101 8v17q0 68 -22 97t-74 29q-42 0 -64 -18.5t-27 -59.5q-2 -19 -7.5 -27t-15.5 -8q-23 0 -23 37q0 47 38.5 77
t100.5 30q68 0 103.5 -40t35.5 -116v-158q0 -43 42 -43zM309 401q-91 0 -143 -26q-26 -13 -38 -29.5t-12 -39.5q0 -34 24.5 -52.5t68.5 -18.5q98 0 100 94v72z" />
    <glyph glyph-name="ordmasculine.tosf" 
d="M129 545.5q51 51.5 143 51.5t143 -51.5t51 -144.5q0 -94 -51.5 -148.5t-142.5 -54.5t-142.5 54.5t-51.5 148.5q0 93 51 144.5zM374.5 522.5q-36.5 43.5 -102.5 43.5t-102.5 -43.5t-36.5 -121.5q0 -80 37 -126.5t102 -46.5t102 46.5t37 126.5q0 78 -36.5 121.5z" />
    <glyph glyph-name="uni0394" unicode="&#x394;" horiz-adv-x="587" 
d="M10 0l271 725h21l275 -725h-567zM496 42l-215 569l-210 -569h425z" />
    <glyph glyph-name="uni0394" unicode="&#x3b4;" horiz-adv-x="587" 
d="M10 0l271 725h21l275 -725h-567zM496 42l-215 569l-210 -569h425z" />
    <glyph glyph-name="uni03A9" unicode="&#x3a9;" horiz-adv-x="676" 
d="M136 40h115v83q-99 38 -154 117.5t-55 187.5q0 91 38.5 162.5t107.5 111t157 39.5q86 0 151.5 -39.5t102 -110.5t36.5 -163q0 -109 -54.5 -188.5t-155.5 -116.5v-83h115l94 106v-146h-251v145q101 40 144.5 105t43.5 178q0 278 -226 278q-116 0 -178 -71.5t-62 -206.5
q0 -115 45.5 -183t142.5 -100v-145h-251v146z" />
    <glyph glyph-name="uni03A9" unicode="&#x3c9;" horiz-adv-x="676" 
d="M136 40h115v83q-99 38 -154 117.5t-55 187.5q0 91 38.5 162.5t107.5 111t157 39.5q86 0 151.5 -39.5t102 -110.5t36.5 -163q0 -109 -54.5 -188.5t-155.5 -116.5v-83h115l94 106v-146h-251v145q101 40 144.5 105t43.5 178q0 278 -226 278q-116 0 -178 -71.5t-62 -206.5
q0 -115 45.5 -183t142.5 -100v-145h-251v146z" />
    <glyph glyph-name="uni03BC" unicode="&#x3bc;" horiz-adv-x="580" 
d="M441 0v127q-31 -70 -76.5 -104.5t-108.5 -34.5t-105 34v-222h-56v730h56v-362q0 -68 29.5 -104.5t84.5 -36.5q59 0 104 41.5t66 115.5v346h56v-447l77 -83h-127z" />
    <glyph glyph-name="pi" unicode="&#x3c0;" horiz-adv-x="735" 
d="M49.5 58.5q9.5 9.5 25.5 9.5q10 0 20.5 -4t14.5 -5q15 -6 26 -9.5t25 -3.5q34 0 49 23.5t15 75.5v327q-64 -2 -104.5 -20t-63.5 -54l-17 11q35 67 85 94t138 27q44 0 92.5 -5t57.5 -6q77 -9 120 -9q54 0 89 14.5t56 45.5l17 -11q-20 -52 -60.5 -78t-105.5 -29v-302
q0 -55 18 -84.5t51 -29.5q19 0 35 11t37 39l11 -12q-19 -48 -40.5 -67t-56.5 -19q-55 0 -84 42t-29 122v302q-23 2 -86 8q-79 8 -120 10v-326q0 -75 -38 -116.5t-106 -41.5q-37 0 -59 12.5t-22 34.5q0 14 9.5 23.5z" />
    <glyph glyph-name="zero" unicode="0" horiz-adv-x="658" 
d="M117.5 641q72.5 98 210.5 98q140 0 212.5 -96.5t72.5 -282.5q0 -182 -72.5 -277t-212.5 -95q-137 0 -210 95t-73 275q0 185 72.5 283zM493 610.5q-58 88.5 -165 88.5t-164 -88.5t-57 -253.5q0 -163 56 -246t165 -83t166 84.5t57 245.5q0 164 -58 252.5z" />
    <glyph glyph-name="one" unicode="1" horiz-adv-x="314" 
d="M150 82v530l-110 -19l166 147v-675l58 -65h-153z" />
    <glyph glyph-name="two" unicode="2" horiz-adv-x="572" 
d="M262 208q95 89 144.5 174t49.5 159q0 73 -45.5 115.5t-123.5 42.5q-79 0 -122 -44t-47 -124q-1 -33 -9 -47t-25 -14t-25.5 14t-8.5 45q0 60 31 108t87 75t127 27q102 0 162.5 -53.5t60.5 -146.5q0 -80 -53 -163.5t-179 -200.5l-128 -119h283l91 106v-162h-492z" />
    <glyph glyph-name="three" unicode="3" horiz-adv-x="568" 
d="M237 394q101 0 153 39t52 115q0 71 -43.5 111t-120.5 40q-76 0 -116.5 -39.5t-40.5 -112.5q0 -29 -7 -41.5t-23 -12.5q-15 0 -21.5 12t-6.5 39q0 90 59 142.5t158 52.5q65 0 114.5 -23t76.5 -65t27 -97q0 -64 -36.5 -111t-99.5 -67q84 -16 130 -63t46 -118
q0 -59 -31.5 -106.5t-87 -74t-125.5 -26.5q-72 0 -130 28t-91 76.5t-33 107.5t33 59q17 0 24.5 -14.5t7.5 -45.5q0 -80 46 -125.5t126 -45.5q57 0 102.5 22.5t71 63t25.5 90.5q0 150 -239 150v40z" />
    <glyph glyph-name="four" unicode="4" horiz-adv-x="594" 
d="M411 82v89h-401l404 554h53v-514h122v-40h-122v-106l58 -65h-153zM411 211v444l-323 -444h323z" />
    <glyph glyph-name="five" unicode="5" horiz-adv-x="578" 
d="M86 348v377h412v-58h-372v-280q37 39 82 57.5t101 18.5q71 0 125.5 -28.5t84 -80.5t29.5 -121q0 -72 -32 -126.5t-91 -84.5t-136 -30q-69 0 -126 23.5t-90 65t-33 91.5q0 49 33 49q15 0 22 -11.5t8 -36.5q3 -69 48 -107t123 -38q97 0 154.5 57.5t57.5 154.5
q0 88 -48 136.5t-135 48.5q-55 0 -103 -20t-80 -57h-34z" />
    <glyph glyph-name="six" unicode="6" horiz-adv-x="588" 
d="M493 46q-60 -58 -169 -58q-138 0 -208.5 92.5t-70.5 267.5q0 124 33.5 211.5t96 133.5t148.5 46q56 0 102.5 -19t73.5 -50.5t27 -68.5q0 -41 -31 -41q-33 0 -42 49q-8 44 -39.5 67t-84.5 23q-107 0 -164.5 -95.5t-57.5 -277.5q44 55 98 80.5t124 25.5q108 0 166 -57.5
t58 -162.5q0 -108 -60 -166zM109 290q9 -129 61 -195.5t146 -66.5q82 0 128.5 48.5t46.5 133.5t-48 133.5t-134 48.5q-118 0 -200 -102z" />
    <glyph glyph-name="seven" unicode="7" horiz-adv-x="530" 
d="M30 725h505l-39 -58q-101 -150 -181.5 -314t-145.5 -353h-71q145 373 356 667h-359l-65 -68v126z" />
    <glyph glyph-name="eight" unicode="8" horiz-adv-x="588" 
d="M110.5 456.5q-25.5 38.5 -25.5 91.5q0 57 27.5 100t77 67t115.5 24q98 0 157 -51.5t59 -139.5q0 -112 -107 -178q139 -66 139 -190q0 -89 -69 -140.5t-188 -51.5t-185 52.5t-66 148.5q0 67 35.5 115t111.5 83q-56 31 -81.5 69.5zM450 458q24 44 24 93q0 69 -48 110
t-129 41q-76 0 -119.5 -37t-43.5 -101q0 -44 23.5 -74.5t77 -56t148.5 -50.5q43 31 67 75zM126.5 297.5q-30.5 -42.5 -30.5 -103.5q0 -83 52.5 -126t152.5 -43q96 0 148.5 39.5t52.5 110.5q0 44 -24 75t-83.5 59t-170.5 63q-67 -32 -97.5 -74.5z" />
    <glyph glyph-name="nine" unicode="9" horiz-adv-x="588" 
d="M509.5 166q-33.5 -87 -95.5 -132.5t-148 -45.5q-56 0 -102.5 18.5t-74 50t-27.5 67.5q0 39 30 39q14 0 23 -9.5t13 -30.5q10 -46 44 -70.5t89 -24.5q105 0 162.5 91.5t57.5 258.5q-28 -60 -77 -88t-122 -28q-114 0 -180.5 63.5t-66.5 171.5q0 72 30.5 127t86 85t127.5 30
q128 0 196 -94t68 -271q0 -121 -33.5 -208zM144.5 356.5q53.5 -54.5 144.5 -54.5q65 0 113.5 29t77.5 84q-9 284 -204 284q-86 0 -135.5 -52t-49.5 -142q0 -94 53.5 -148.5z" />
    <glyph glyph-name="zero.osf" horiz-adv-x="688" 
d="M82 416.5q37 62.5 105 97t157 34.5t157 -33.5t105 -95.5t37 -144q0 -84 -37 -149t-105 -100.5t-157 -35.5t-157 35t-105 98.5t-37 146.5q0 84 37 146.5zM469 62.5q54 30.5 83.5 85.5t29.5 127q0 69 -29.5 121.5t-83.5 81t-125 28.5t-124.5 -29t-83 -82.5t-29.5 -124.5
q0 -70 29.5 -124t83 -84t124.5 -30t125 30.5z" />
    <glyph glyph-name="one.osf" horiz-adv-x="272" 
d="M108 82v383l-58 65h153l-39 -82v-383l58 -65h-153z" />
    <glyph glyph-name="two.osf" horiz-adv-x="582" 
d="M40 0l152 98q104 67 163.5 114.5t85 86.5t25.5 79q0 59 -46.5 94.5t-122.5 35.5q-80 0 -124 -40.5t-46 -111.5q-1 -58 -34 -58t-33 57q0 55 31 99t87.5 69t129.5 25q101 0 160.5 -46t59.5 -124q0 -50 -28.5 -93.5t-95.5 -93t-188 -118.5l-30 -17h356v-56h-502z" />
    <glyph glyph-name="three.osf" horiz-adv-x="568" 
d="M197 194q114 0 179.5 46t65.5 127q0 65 -43 103t-121 38q-68 0 -105 -30.5t-37 -87.5q0 -46 -28 -46q-15 0 -22 11.5t-7 36.5q0 72 54.5 114t147.5 42q66 0 115 -22.5t75.5 -62t26.5 -89.5q0 -71 -51.5 -123.5t-133.5 -70.5q101 -13 163 -67t62 -133q0 -57 -32.5 -103
t-90.5 -73t-132 -27q-67 0 -122.5 22t-88 61t-32.5 87q0 24 8.5 37.5t25.5 13.5q31 0 31 -50q0 -63 44.5 -97t123.5 -34q94 0 148.5 47.5t54.5 123.5q0 166 -279 166v40z" />
    <glyph glyph-name="four.osf" horiz-adv-x="604" 
d="M411 -118v118h-401l399 530h58v-490h132v-40h-132v-135l58 -65h-153zM411 40v427l-320 -427h320z" />
    <glyph glyph-name="five.osf" horiz-adv-x="598" 
d="M96 87v443h416v-58h-376v-347q34 32 85 49.5t111 17.5q71 0 124.5 -25.5t82.5 -71t29 -104.5q0 -64 -33.5 -112.5t-94 -75t-138.5 -26.5q-73 0 -133 22t-94.5 60t-34.5 83q0 43 33 43q14 0 21.5 -9.5t8.5 -31.5q2 -60 51 -93.5t138 -33.5q101 0 157.5 47.5t56.5 133.5
q0 77 -48 116.5t-140 39.5q-62 0 -111.5 -18t-76.5 -49h-34z" />
    <glyph glyph-name="six.osf" horiz-adv-x="588" 
d="M493 46q-60 -58 -169 -58q-138 0 -208.5 92.5t-70.5 267.5q0 124 33.5 211.5t96 133.5t148.5 46q56 0 102.5 -19t73.5 -50.5t27 -68.5q0 -41 -31 -41q-33 0 -42 49q-8 44 -39.5 67t-84.5 23q-107 0 -164.5 -95.5t-57.5 -277.5q44 55 98 80.5t124 25.5q108 0 166 -57.5
t58 -162.5q0 -108 -60 -166zM109 290q9 -129 61 -195.5t146 -66.5q82 0 128.5 48.5t46.5 133.5t-48 133.5t-134 48.5q-118 0 -200 -102z" />
    <glyph glyph-name="seven.osf" horiz-adv-x="530" 
d="M30 530h505l-39 -58q-99 -147 -179 -311.5t-148 -360.5h-71q144 374 356 672h-359l-65 -68v126z" />
    <glyph glyph-name="eight.osf" horiz-adv-x="588" 
d="M110.5 456.5q-25.5 38.5 -25.5 91.5q0 57 27.5 100t77 67t115.5 24q98 0 157 -51.5t59 -139.5q0 -112 -107 -178q139 -66 139 -190q0 -89 -69 -140.5t-188 -51.5t-185 52.5t-66 148.5q0 67 35.5 115t111.5 83q-56 31 -81.5 69.5zM450 458q24 44 24 93q0 69 -48 110
t-129 41q-76 0 -119.5 -37t-43.5 -101q0 -44 23.5 -74.5t77 -56t148.5 -50.5q43 31 67 75zM126.5 297.5q-30.5 -42.5 -30.5 -103.5q0 -83 52.5 -126t152.5 -43q96 0 148.5 39.5t52.5 110.5q0 44 -24 75t-83.5 59t-170.5 63q-67 -32 -97.5 -74.5z" />
    <glyph glyph-name="nine.osf" horiz-adv-x="588" 
d="M509.5 -38q-33.5 -90 -96 -137.5t-148.5 -47.5q-55 0 -102 18.5t-74 50t-27 68.5q0 38 30 38q29 0 37 -41q9 -45 42.5 -69.5t87.5 -24.5q106 0 164 95.5t58 273.5q-29 -60 -78 -88t-121 -28q-76 0 -132 29t-85.5 82t-29.5 124q0 72 30.5 127t85.5 85.5t127 30.5
q128 0 196.5 -95t68.5 -276q0 -125 -33.5 -215zM144.5 165q53.5 -55 145.5 -55q64 0 113 28.5t77 83.5q-7 145 -57.5 215.5t-146.5 70.5q-86 0 -135.5 -52.5t-49.5 -141.5q0 -94 53.5 -149z" />
    <glyph glyph-name="zero.osf.ss04" horiz-adv-x="688" 
d="M83.5 412q38.5 64 106.5 100t154 36q87 0 155 -35t106 -97.5t38 -143.5q0 -82 -38 -146t-106.5 -100t-154.5 -36q-88 0 -155.5 35t-105.5 98t-38 144t38.5 145zM477 80.5q59 28.5 92 78.5t33 113q0 62 -33 110.5t-92 76t-133 27.5t-132.5 -28t-91.5 -78t-33 -113
t32.5 -112t91 -76t133.5 -27q74 0 133 28.5z" />
    <glyph glyph-name="zero.osf.ss04.zero" horiz-adv-x="688" 
d="M499 513q68 -35 106 -97.5t38 -143.5q0 -82 -38 -146t-106.5 -100t-154.5 -36q-88 0 -155.5 35t-105.5 98t-38 144t38.5 145t106.5 100t154 36q87 0 155 -35zM111.5 168.5q24.5 -44.5 69.5 -72.5l288 366q-55 24 -125 24q-74 0 -132.5 -28t-91.5 -78t-33 -113
q0 -54 24.5 -98.5zM477 80.5q59 28.5 92 78.5t33 113q0 54 -25.5 98t-70.5 72l-287 -366q54 -24 125 -24q74 0 133 28.5z" />
    <glyph glyph-name="zero.osf.zero" horiz-adv-x="686" 
d="M189 25q-68 35 -106 99t-38 149q0 81 42 144t111 97t146 34q85 0 153 -32t107 -93t39 -145t-38 -149.5t-106 -102t-155 -36.5t-155 35zM127 168q20 -47 56 -79l299 381q-61 36 -138 36q-61 0 -116 -29.5t-88 -82.5t-33 -121q0 -58 20 -105zM515 444l-298 -380
q53 -32 127 -32q69 0 123 31.5t84.5 87.5t30.5 127q0 104 -67 166z" />
    <glyph glyph-name="zero.ss04" horiz-adv-x="648" 
d="M116 641.5q71 97.5 207 97.5q137 0 208.5 -97.5t71.5 -283.5q0 -181 -71.5 -275.5t-208.5 -94.5q-136 0 -207 94t-71 275q0 187 71 284.5zM501.5 597.5q-61.5 81.5 -178.5 81.5q-116 0 -177 -81.5t-61 -237.5q0 -152 61 -232t177 -80q117 0 178.5 80t61.5 232
q0 156 -61.5 237.5z" />
    <glyph glyph-name="zero.ss04.zero" horiz-adv-x="648" 
d="M116 82q-71 94 -71 275q0 187 71 284.5t207 97.5q137 0 208.5 -97.5t71.5 -283.5q0 -181 -71.5 -275.5t-208.5 -94.5q-136 0 -207 94zM489 613q-60 66 -166 66q-116 0 -177 -81.5t-61 -237.5q0 -138 50 -217zM501.5 128q61.5 80 61.5 232q0 139 -48 218l-353 -469
q59 -61 161 -61q117 0 178.5 80z" />
    <glyph glyph-name="zero.tf" 
d="M154 642.5q73 96.5 210 96.5q140 0 212.5 -95.5t72.5 -279.5q0 -185 -72.5 -280.5t-212.5 -95.5q-138 0 -210.5 96t-72.5 279t73 279.5zM529.5 611.5q-58.5 87.5 -165.5 87.5t-164.5 -87.5t-57.5 -248.5q0 -166 56 -250.5t166 -84.5q109 0 166.5 85.5t57.5 249.5
q0 161 -58.5 248.5z" />
    <glyph glyph-name="one.tf" 
d="M597 0h-436v42h190v583l-150 38l206 77v-698h190v-42z" />
    <glyph glyph-name="two.tf" 
d="M110 0l232 208q106 95 155 174.5t49 153.5q0 77 -47.5 120t-131.5 43q-83 0 -130 -44t-51 -126q-2 -31 -9.5 -45t-23.5 -14q-33 0 -33 59q0 60 32.5 108t90.5 75t132 27q107 0 170 -54.5t63 -146.5q0 -81 -56 -164.5t-186 -198.5l-135 -119h300l91 106v-162h-512z" />
    <glyph glyph-name="three.tf" 
d="M314 394q110 0 167.5 39t57.5 116q0 69 -46.5 109.5t-130.5 40.5t-129 -40t-45 -113q0 -28 -7 -40.5t-22 -12.5t-22 12.5t-7 40.5q0 58 29.5 102t82.5 67.5t123 23.5t122 -23.5t80 -65.5t28 -95q0 -65 -40 -112t-109 -67q89 -15 139 -61.5t50 -117.5q0 -58 -33.5 -106
t-92 -75.5t-132.5 -27.5q-76 0 -137.5 29t-97 80t-35.5 113q0 59 34 59q16 0 23.5 -13.5t7.5 -45.5q0 -86 50.5 -134t139.5 -48q62 0 110 23t74.5 63t26.5 89q0 151 -259 151v40z" />
    <glyph glyph-name="four.tf" 
d="M461 82v89h-411l414 554h53v-514h152v-40h-152v-106l58 -65h-153zM461 211v445l-332 -445h332z" />
    <glyph glyph-name="five.tf" 
d="M151 348v377h432v-58h-392v-281q38 39 85 58t107 19q75 0 131.5 -28.5t87.5 -80t31 -120.5q0 -72 -33.5 -128t-95 -87t-142.5 -31q-71 0 -130 23.5t-93 64.5t-34 91q0 49 33 49q15 0 22 -11t8 -36q2 -67 49 -104t129 -37q104 0 164.5 57.5t60.5 155.5q0 88 -50.5 136
t-142.5 48q-60 0 -110.5 -20.5t-82.5 -56.5h-34z" />
    <glyph glyph-name="six.tf" 
d="M578 46.5q-62 -58.5 -177 -58.5q-142 0 -215.5 92.5t-73.5 271.5q0 121 34 208t99 133t154 46q58 0 107 -18.5t78 -50.5t29 -70q0 -40 -33 -40q-16 0 -25.5 10.5t-13.5 32.5q-10 48 -44 72t-91 24q-113 0 -172.5 -93.5t-59.5 -279.5q93 106 239 106q108 0 167.5 -57.5
t59.5 -162.5q0 -107 -62 -165.5zM176 290q10 -130 65 -196t152 -66q86 0 135.5 48.5t49.5 133.5q0 86 -50.5 134t-140.5 48q-127 0 -211 -102z" />
    <glyph glyph-name="seven.tf" 
d="M118 725h545l-61 -60q-129 -126 -191.5 -289t-63.5 -376h-71q2 198 72.5 362t213.5 305h-379l-65 -68v126z" />
    <glyph glyph-name="eight.tf" 
d="M171.5 41q-71.5 53 -71.5 148q0 66 38 112.5t124 86.5q-63 32 -92 69.5t-29 89.5q0 56 30.5 99.5t85 68t124.5 24.5q68 0 120.5 -23t81.5 -64.5t29 -95.5q0 -109 -126 -184q162 -67 162 -192q0 -89 -74.5 -140.5t-202.5 -51.5t-199.5 53zM535.5 464.5
q29.5 44.5 29.5 91.5q0 65 -53 105.5t-139 40.5q-83 0 -131 -36.5t-48 -100.5q0 -43 25 -74.5t81 -57t152 -49.5q54 36 83.5 80.5zM208.5 68q57.5 -43 167.5 -43q105 0 162 38.5t57 111.5q0 42 -24 71t-86.5 57.5t-187.5 68.5q-79 -37 -112.5 -78t-33.5 -100
q0 -83 57.5 -126z" />
    <glyph glyph-name="nine.tf" 
d="M589 167q-34 -87 -99 -133t-154 -46q-58 0 -107 18.5t-78 50.5t-29 69t29 37t38 -42q10 -44 46.5 -68.5t93.5 -24.5q111 0 171.5 91.5t60.5 258.5q-29 -59 -80.5 -87.5t-128.5 -28.5q-78 0 -136 28.5t-89.5 82t-31.5 124.5q0 72 31.5 127t89 85t133.5 30q133 0 203.5 -94
t70.5 -270q0 -121 -34 -208zM207.5 356.5q56.5 -54.5 152.5 -54.5q69 0 120 29t80 85q-9 283 -214 283q-90 0 -142.5 -52t-52.5 -142q0 -94 56.5 -148.5z" />
    <glyph glyph-name="zero.tf.ss04" 
d="M161 84q-70 96 -70 280q0 181 69 278t204 97q136 0 205.5 -95t69.5 -280t-69.5 -280.5t-205.5 -95.5q-133 0 -203 96zM538.5 129.5q60.5 81.5 60.5 234.5q0 152 -61 233.5t-174 81.5t-173 -81.5t-60 -233.5q0 -156 59 -236t174 -80q114 0 174.5 81.5z" />
    <glyph glyph-name="zero.tf.ss04.zero" 
d="M569.5 644q69.5 -95 69.5 -280t-69.5 -280.5t-205.5 -95.5q-133 0 -203 96t-70 280q0 181 69 278t204 97q136 0 205.5 -95zM191 597.5q-60 -81.5 -60 -233.5q0 -137 45 -215l349 464q-58 66 -161 66q-113 0 -173 -81.5zM538.5 129.5q60.5 81.5 60.5 234.5q0 133 -48 215
l-349 -465q57 -66 162 -66q114 0 174.5 81.5z" />
    <glyph glyph-name="zero.tf.zero" 
d="M153.5 84q-72.5 96 -72.5 279t73 279.5t210 96.5q140 0 212.5 -95.5t72.5 -279.5q0 -185 -72 -280.5t-213 -95.5q-138 0 -210.5 96zM177 150l350 466q-58 83 -163 83q-107 0 -164.5 -87t-57.5 -249q0 -131 35 -213zM530.5 114q57.5 86 57.5 249q0 132 -39 213l-350 -466
q56 -82 165 -82t166.5 86z" />
    <glyph glyph-name="zero.tosf" 
d="M103 417.5q37 62.5 105 96.5t157 34t157 -33.5t105 -94.5t37 -142q0 -86 -37 -151t-105 -101t-157 -36t-157 35.5t-105 99.5t-37 148q0 82 37 144.5zM490 62.5q54 30.5 83.5 86.5t29.5 129q0 68 -29.5 119.5t-83.5 80t-125 28.5t-124.5 -29t-83 -82t-29.5 -122
q0 -72 29.5 -126.5t83 -84.5t124.5 -30t125 30.5z" />
    <glyph glyph-name="one.tosf" 
d="M597 0h-436v42h190v390l-150 38l206 77v-505h190v-42z" />
    <glyph glyph-name="two.tosf" 
d="M120 0l152 98q104 67 163.5 114.5t85 86.5t25.5 79q0 59 -46.5 94.5t-122.5 35.5q-80 0 -124 -40.5t-46 -111.5q-1 -58 -34 -58t-33 57q0 55 31 99t87.5 69t129.5 25q101 0 160.5 -46t59.5 -124q0 -50 -28.5 -93.5t-95.5 -93t-188 -118.5l-30 -17h356v-56h-502z" />
    <glyph glyph-name="three.tosf" 
d="M288 194q114 0 179.5 46t65.5 127q0 65 -43 103t-121 38q-68 0 -105 -30.5t-37 -87.5q0 -46 -28 -46q-15 0 -22 11.5t-7 36.5q0 72 54.5 114t147.5 42q66 0 115 -22.5t75.5 -62t26.5 -89.5q0 -71 -51.5 -123.5t-133.5 -70.5q101 -13 163 -67t62 -133q0 -57 -32.5 -103
t-90.5 -73t-132 -27q-67 0 -122.5 22t-88 61t-32.5 87q0 24 8.5 37.5t25.5 13.5q31 0 31 -50q0 -63 44.5 -97t123.5 -34q94 0 148.5 47.5t54.5 123.5q0 166 -279 166v40z" />
    <glyph glyph-name="four.tosf" 
d="M474 -118v118h-401l399 530h58v-490h132v-40h-132v-135l58 -65h-153zM474 40v427l-320 -427h320z" />
    <glyph glyph-name="five.tosf" 
d="M182 87v443h416v-58h-376v-347q34 32 85 49.5t111 17.5q71 0 124.5 -25.5t82.5 -71t29 -104.5q0 -64 -33.5 -112.5t-94 -75t-138.5 -26.5q-73 0 -133 22t-94.5 60t-34.5 83q0 43 33 43q14 0 21.5 -9.5t8.5 -31.5q2 -60 51 -93.5t138 -33.5q101 0 157.5 47.5t56.5 133.5
q0 77 -48 116.5t-140 39.5q-62 0 -111.5 -18t-76.5 -49h-34z" />
    <glyph glyph-name="six.tosf" 
d="M566 46q-60 -58 -169 -58q-138 0 -208.5 92.5t-70.5 267.5q0 124 33.5 211.5t96 133.5t148.5 46q56 0 102.5 -19t73.5 -50.5t27 -68.5q0 -41 -31 -41q-33 0 -42 49q-8 44 -39.5 67t-84.5 23q-107 0 -164.5 -95.5t-57.5 -277.5q44 55 98 80.5t124 25.5q108 0 166 -57.5
t58 -162.5q0 -108 -60 -166zM182 290q9 -129 61 -195.5t146 -66.5q82 0 128.5 48.5t46.5 133.5t-48 133.5t-134 48.5q-118 0 -200 -102z" />
    <glyph glyph-name="seven.tosf" 
d="M137 530h505l-39 -58q-99 -147 -179 -311.5t-148 -360.5h-71q144 374 356 672h-359l-65 -68v126z" />
    <glyph glyph-name="eight.tosf" 
d="M186.5 456.5q-25.5 38.5 -25.5 91.5q0 57 27.5 100t77 67t115.5 24q98 0 157 -51.5t59 -139.5q0 -112 -107 -178q139 -66 139 -190q0 -89 -69 -140.5t-188 -51.5t-185 52.5t-66 148.5q0 67 35.5 115t111.5 83q-56 31 -81.5 69.5zM526 458q24 44 24 93q0 69 -48 110
t-129 41q-76 0 -119.5 -37t-43.5 -101q0 -44 23.5 -74.5t77 -56t148.5 -50.5q43 31 67 75zM202.5 297.5q-30.5 -42.5 -30.5 -103.5q0 -83 52.5 -126t152.5 -43q96 0 148.5 39.5t52.5 110.5q0 44 -24 75t-83.5 59t-170.5 63q-67 -32 -97.5 -74.5z" />
    <glyph glyph-name="nine.tosf" 
d="M582.5 -38q-33.5 -90 -96 -137.5t-148.5 -47.5q-55 0 -102 18.5t-74 50t-27 68.5q0 38 30 38q29 0 37 -41q9 -45 42.5 -69.5t87.5 -24.5q106 0 164 95.5t58 273.5q-29 -60 -78 -88t-121 -28q-76 0 -132 29t-85.5 82t-29.5 124q0 72 30.5 127t85.5 85.5t127 30.5
q128 0 196.5 -95t68.5 -276q0 -125 -33.5 -215zM217.5 165q53.5 -55 145.5 -55q64 0 113 28.5t77 83.5q-7 145 -57.5 215.5t-146.5 70.5q-86 0 -135.5 -52.5t-49.5 -141.5q0 -94 53.5 -149z" />
    <glyph glyph-name="zero.tosf.ss04" 
d="M105.5 412q38.5 64 106.5 100t154 36q87 0 155 -35t106 -97.5t38 -143.5q0 -82 -38 -146t-106.5 -100t-154.5 -36q-88 0 -155.5 35t-105.5 98t-38 144t38.5 145zM499 80.5q59 28.5 92 78.5t33 113q0 62 -33 110.5t-92 76t-133 27.5t-132.5 -28t-91.5 -78t-33 -113
t32.5 -112t91 -76t133.5 -27q74 0 133 28.5z" />
    <glyph glyph-name="zero.tosf.ss04.zero" 
d="M521 513q68 -35 106 -97.5t38 -143.5q0 -82 -38 -146t-106.5 -100t-154.5 -36q-88 0 -155.5 35t-105.5 98t-38 144t38.5 145t106.5 100t154 36q87 0 155 -35zM133.5 168.5q24.5 -44.5 69.5 -72.5l288 366q-55 24 -125 24q-74 0 -132.5 -28t-91.5 -78t-33 -113
q0 -54 24.5 -98.5zM499 80.5q59 28.5 92 78.5t33 113q0 54 -25.5 98t-70.5 72l-287 -366q54 -24 125 -24q74 0 133 28.5z" />
    <glyph glyph-name="zero.tosf.zero" 
d="M210 25q-68 35 -106 99t-38 149q0 81 42 144t111 97t146 34q85 0 153 -32t107 -93t39 -145t-38 -149.5t-106 -102t-155 -36.5t-155 35zM148 168q20 -47 57 -80l299 381q-60 37 -139 37q-61 0 -116 -29.5t-88 -82.5t-33 -121q0 -58 20 -105zM585.5 372q-17.5 42 -48.5 71
l-299 -379q55 -32 127 -32q69 0 123 31.5t84.5 87.5t30.5 127q0 52 -17.5 94z" />
    <glyph glyph-name="zero.zero" horiz-adv-x="658" 
d="M118 83q-73 95 -73 275q0 185 72.5 283t210.5 98q140 0 212.5 -96.5t72.5 -282.5q0 -182 -72.5 -277t-212.5 -95q-137 0 -210 95zM490 615q-58 84 -162 84q-107 0 -164 -88.5t-57 -253.5q0 -126 34 -206zM328 28q109 0 166 84.5t57 245.5q0 135 -39 217l-349 -464
q56 -83 165 -83z" />
    <glyph glyph-name="uni2080" unicode="&#x2080;" horiz-adv-x="498" 
d="M99 -22q-54 58 -54 161q0 100 54 156.5t150 56.5t150 -56.5t54 -156.5q0 -103 -54 -161t-150 -58t-150 58zM353.5 9q37.5 47 37.5 130q0 80 -37.5 125.5t-104.5 45.5t-104.5 -45.5t-37.5 -125.5q0 -83 37.5 -130t104.5 -47t104.5 47z" />
    <glyph glyph-name="uni2081" unicode="&#x2081;" horiz-adv-x="274" 
d="M91 -70l29 61v245l-80 37l136 77v-366l48 -54h-133z" />
    <glyph glyph-name="uni2082" unicode="&#x2082;" horiz-adv-x="402" 
d="M40 -70l142 116q54 44 79.5 86t25.5 88q0 44 -22 67t-63 23q-42 0 -65 -23.5t-23 -65.5q0 -25 -8.5 -39t-23.5 -14q-29 0 -29 48q0 60 41.5 97t108.5 37q66 0 105.5 -37t39.5 -97q0 -48 -30 -91.5t-104 -103.5l-43 -35h191v-56h-322z" />
    <glyph glyph-name="uni2083" unicode="&#x2083;" horiz-adv-x="418" 
d="M149 162q76 0 112.5 19.5t36.5 60.5q0 33 -23.5 50.5t-67.5 17.5t-66.5 -17.5t-22.5 -51.5q0 -35 -29 -35q-15 0 -22 8.5t-7 27.5q0 48 40.5 78t108.5 30q65 0 104 -27.5t39 -72.5q0 -36 -24.5 -63t-63.5 -38q57 -8 90 -36t33 -70q0 -36 -23 -64.5t-63.5 -44.5t-90.5 -16
q-48 0 -87 14.5t-61 40.5t-22 58q0 38 32 38q15 0 22.5 -9t8.5 -30q3 -38 26 -55t72 -17q60 0 92.5 22t32.5 61q0 42 -42.5 61.5t-134.5 19.5v40z" />
    <glyph glyph-name="uni2084" unicode="&#x2084;" horiz-adv-x="383" 
d="M205 -70l29 61v50h-224l229 294h51v-254h88v-40h-88v-57l48 -54h-133zM234 81v182l-142 -182h142z" />
    <glyph glyph-name="uni2085" unicode="&#x2085;" horiz-adv-x="413" 
d="M344 288h-228v-121q44 27 109 27q70 0 114 -35.5t44 -92.5q0 -61 -49.5 -98.5t-128.5 -37.5q-72 0 -118.5 30.5t-46.5 77.5q0 19 8 29.5t23 10.5q27 0 31 -38q9 -70 97 -70q56 0 89 26.5t33 71.5q0 42 -30.5 65t-85.5 23q-54 0 -95 -19h-34v209h268v-58z" />
    <glyph glyph-name="uni2086" unicode="&#x2086;" horiz-adv-x="448" 
d="M173.5 163.5q37.5 10.5 77.5 10.5q74 0 118 -34.5t44 -93.5t-45.5 -92.5t-125.5 -33.5q-97 0 -147 52.5t-50 153.5q0 105 51.5 165.5t141.5 60.5q42 0 77 -13.5t55.5 -36.5t20.5 -50q0 -34 -31 -34q-30 0 -38 36q-6 28 -27.5 43t-56.5 15q-62 0 -96.5 -47t-34.5 -132
q29 20 66.5 30.5zM240 -40q52 0 81.5 23.5t29.5 64.5t-29.5 63.5t-83.5 22.5q-34 0 -68 -9.5t-62 -27.5q12 -137 132 -137z" />
    <glyph glyph-name="uni2087" unicode="&#x2087;" horiz-adv-x="345" 
d="M30 332h320q-77 -96 -134 -204t-80 -198h-70q24 82 88 188.5t119 157.5h-243v56z" />
    <glyph glyph-name="uni2088" unicode="&#x2088;" horiz-adv-x="431" 
d="M92.5 -47q-47.5 33 -47.5 89q0 64 70 98q-48 32 -48 89q0 56 41.5 89.5t110.5 33.5q68 0 110.5 -33t42.5 -86q0 -29 -13.5 -50.5t-44.5 -40.5q42 -16 62 -40t20 -59q0 -56 -47.5 -89.5t-128.5 -33.5q-80 0 -127.5 33zM322 228q0 41 -27 62.5t-79 21.5q-48 0 -73 -18
t-25 -52q0 -37 36 -56.5t125 -32.5q43 24 43 75zM130 -17.5q33 -22.5 95 -22.5q57 0 89 18.5t32 51.5q0 23 -17 38t-58 27.5t-117 25.5q-57 -19 -57 -73q0 -43 33 -65.5z" />
    <glyph glyph-name="uni2089" unicode="&#x2089;" horiz-adv-x="448" 
d="M350 -19.5q-53 -60.5 -143 -60.5q-42 0 -77 12.5t-56 33t-21 44.5q0 16 9 25t25 9q13 0 22 -8t16 -26q11 -27 29 -38.5t51 -11.5q129 0 136 159q-52 -40 -128 -40q-80 0 -129 36t-49 98q0 61 48.5 100t129.5 39q93 0 141.5 -53t48.5 -152q0 -106 -53 -166.5zM128.5 144
q31.5 -25 90.5 -25q34 0 65.5 8.5t56.5 24.5q-6 160 -129 160q-52 0 -83.5 -27t-31.5 -72q0 -44 31.5 -69z" />
    <glyph glyph-name="zero.dnom" horiz-adv-x="498" 
d="M99 46q-54 58 -54 161q0 100 54 156.5t150 56.5t150 -56.5t54 -156.5q0 -103 -54 -161t-150 -58t-150 58zM353.5 77q37.5 47 37.5 130q0 80 -37.5 125.5t-104.5 45.5t-104.5 -45.5t-37.5 -125.5q0 -83 37.5 -130t104.5 -47t104.5 47z" />
    <glyph glyph-name="one.dnom" horiz-adv-x="274" 
d="M91 0l29 61v245l-80 37l136 77v-366l48 -54h-133z" />
    <glyph glyph-name="two.dnom" horiz-adv-x="402" 
d="M40 0l142 116q54 44 79.5 86t25.5 88q0 44 -22 67t-63 23q-42 0 -65 -23.5t-23 -65.5q0 -25 -8.5 -39t-23.5 -14q-29 0 -29 48q0 60 41.5 97t108.5 37q66 0 105.5 -37t39.5 -97q0 -48 -30 -91.5t-104 -103.5l-43 -35h191v-56h-322z" />
    <glyph glyph-name="three.dnom" horiz-adv-x="418" 
d="M149 232q76 0 112.5 19.5t36.5 60.5q0 33 -23.5 50.5t-67.5 17.5t-66.5 -17.5t-22.5 -51.5q0 -35 -29 -35q-15 0 -22 8.5t-7 27.5q0 48 40.5 78t108.5 30q65 0 104 -27.5t39 -72.5q0 -36 -24.5 -63t-63.5 -38q57 -8 90 -36t33 -70q0 -36 -23 -64.5t-63.5 -44.5t-90.5 -16
q-48 0 -87 14.5t-61 40.5t-22 58q0 38 32 38q15 0 22.5 -9t8.5 -30q3 -38 26 -55t72 -17q60 0 92.5 22t32.5 61q0 42 -42.5 61.5t-134.5 19.5v40z" />
    <glyph glyph-name="four.dnom" horiz-adv-x="383" 
d="M205 0l29 61v50h-224l229 294h51v-254h88v-40h-88v-57l48 -54h-133zM234 151v182l-142 -182h142z" />
    <glyph glyph-name="five.dnom" horiz-adv-x="413" 
d="M344 346h-228v-121q44 27 109 27q70 0 114 -35.5t44 -92.5q0 -61 -49.5 -98.5t-128.5 -37.5q-72 0 -118.5 30.5t-46.5 77.5q0 19 8 29.5t23 10.5q27 0 31 -38q9 -70 97 -70q56 0 89 26.5t33 71.5q0 42 -30.5 65t-85.5 23q-54 0 -95 -19h-34v209h268v-58z" />
    <glyph glyph-name="six.dnom" horiz-adv-x="448" 
d="M173.5 231.5q37.5 10.5 77.5 10.5q74 0 118 -34.5t44 -93.5t-45.5 -92.5t-125.5 -33.5q-97 0 -147 52.5t-50 153.5q0 105 51.5 165.5t141.5 60.5q42 0 77 -13.5t55.5 -36.5t20.5 -50q0 -34 -31 -34q-30 0 -38 36q-6 28 -27.5 43t-56.5 15q-62 0 -96.5 -47t-34.5 -132
q29 20 66.5 30.5zM240 28q52 0 81.5 23.5t29.5 64.5t-29.5 63.5t-83.5 22.5q-34 0 -68 -9.5t-62 -27.5q12 -137 132 -137z" />
    <glyph glyph-name="seven.dnom" horiz-adv-x="345" 
d="M30 402h320q-77 -96 -134 -204t-80 -198h-70q24 82 88 188.5t119 157.5h-243v56z" />
    <glyph glyph-name="eight.dnom" horiz-adv-x="431" 
d="M92.5 21q-47.5 33 -47.5 89q0 64 70 98q-48 32 -48 89q0 56 41.5 89.5t110.5 33.5q68 0 110.5 -33t42.5 -86q0 -29 -13.5 -50.5t-44.5 -40.5q42 -16 62 -40t20 -59q0 -56 -47.5 -89.5t-128.5 -33.5q-80 0 -127.5 33zM322 296q0 41 -27 62.5t-79 21.5q-48 0 -73 -18
t-25 -52q0 -37 36 -56.5t125 -32.5q43 24 43 75zM130 50.5q33 -22.5 95 -22.5q57 0 89 18.5t32 51.5q0 23 -17 38t-58 27.5t-117 25.5q-57 -19 -57 -73q0 -43 33 -65.5z" />
    <glyph glyph-name="nine.dnom" horiz-adv-x="448" 
d="M350 48.5q-53 -60.5 -143 -60.5q-42 0 -77 12.5t-56 33t-21 44.5q0 16 9 25t25 9q13 0 22 -8t16 -26q11 -27 29 -38.5t51 -11.5q129 0 136 159q-52 -40 -128 -40q-80 0 -129 36t-49 98q0 61 48.5 100t129.5 39q93 0 141.5 -53t48.5 -152q0 -106 -53 -166.5zM128.5 212
q31.5 -25 90.5 -25q34 0 65.5 8.5t56.5 24.5q-6 160 -129 160q-52 0 -83.5 -27t-31.5 -72q0 -44 31.5 -69z" />
    <glyph glyph-name="zero.numr" horiz-adv-x="498" 
d="M99 365q-54 58 -54 161q0 100 54 156.5t150 56.5t150 -56.5t54 -156.5q0 -103 -54 -161t-150 -58t-150 58zM353.5 396q37.5 47 37.5 130q0 80 -37.5 125.5t-104.5 45.5t-104.5 -45.5t-37.5 -125.5q0 -83 37.5 -130t104.5 -47t104.5 47z" />
    <glyph glyph-name="one.numr" horiz-adv-x="274" 
d="M92 319l29 61v246l-81 38l135 75v-366l48 -54h-131z" />
    <glyph glyph-name="two.numr" horiz-adv-x="402" 
d="M40 319l142 116q54 44 79.5 86t25.5 88q0 44 -22 67t-63 23q-42 0 -65 -23.5t-23 -65.5q0 -25 -8.5 -39t-23.5 -14q-29 0 -29 48q0 60 41.5 97t108.5 37q66 0 105.5 -37t39.5 -97q0 -48 -30 -91.5t-104 -103.5l-43 -35h191v-56h-322z" />
    <glyph glyph-name="three.numr" horiz-adv-x="418" 
d="M149 551q76 0 112.5 19.5t36.5 60.5q0 33 -23.5 50.5t-67.5 17.5t-66.5 -17.5t-22.5 -51.5q0 -35 -29 -35q-15 0 -22 8.5t-7 27.5q0 48 40.5 78t108.5 30q65 0 104 -27.5t39 -72.5q0 -36 -24.5 -63t-63.5 -38q57 -8 90 -36t33 -70q0 -36 -23 -64.5t-63.5 -44.5t-90.5 -16
q-48 0 -87 14.5t-61 40.5t-22 58q0 38 32 38q15 0 22.5 -9t8.5 -30q3 -38 26 -55t72 -17q60 0 92.5 22t32.5 61q0 42 -42.5 61.5t-134.5 19.5v40z" />
    <glyph glyph-name="four.numr" horiz-adv-x="383" 
d="M205 320l29 61v50h-224l229 294h51v-254h88v-40h-88v-57l48 -54h-133zM234 471v182l-142 -182h142z" />
    <glyph glyph-name="five.numr" horiz-adv-x="413" 
d="M344 667h-228v-121q44 27 109 27q70 0 114 -35.5t44 -92.5q0 -61 -49.5 -98.5t-128.5 -37.5q-72 0 -118.5 30.5t-46.5 77.5q0 19 8 29.5t23 10.5q27 0 31 -38q9 -70 97 -70q56 0 89 26.5t33 71.5q0 42 -30.5 65t-85.5 23q-54 0 -95 -19h-34v209h268v-58z" />
    <glyph glyph-name="six.numr" horiz-adv-x="448" 
d="M173.5 550.5q37.5 10.5 77.5 10.5q74 0 118 -34.5t44 -93.5t-45.5 -92.5t-125.5 -33.5q-97 0 -147 52.5t-50 153.5q0 105 51.5 165.5t141.5 60.5q42 0 77 -13.5t55.5 -36.5t20.5 -50q0 -34 -31 -34q-30 0 -38 36q-6 28 -27.5 43t-56.5 15q-62 0 -96.5 -47t-34.5 -132
q29 20 66.5 30.5zM240 347q52 0 81.5 23.5t29.5 64.5t-29.5 63.5t-83.5 22.5q-34 0 -68 -9.5t-62 -27.5q12 -137 132 -137z" />
    <glyph glyph-name="seven.numr" horiz-adv-x="345" 
d="M30 725h320q-77 -96 -134 -204t-80 -198h-70q24 82 88 188.5t119 157.5h-243v56z" />
    <glyph glyph-name="eight.numr" horiz-adv-x="431" 
d="M92.5 340q-47.5 33 -47.5 89q0 64 70 98q-48 32 -48 89q0 56 41.5 89.5t110.5 33.5q68 0 110.5 -33t42.5 -86q0 -29 -13.5 -50.5t-44.5 -40.5q42 -16 62 -40t20 -59q0 -56 -47.5 -89.5t-128.5 -33.5q-80 0 -127.5 33zM322 615q0 41 -27 62.5t-79 21.5q-48 0 -73 -18
t-25 -52q0 -37 36 -56.5t125 -32.5q43 24 43 75zM130 369.5q33 -22.5 95 -22.5q57 0 89 18.5t32 51.5q0 23 -17 38t-58 27.5t-117 25.5q-57 -19 -57 -73q0 -43 33 -65.5z" />
    <glyph glyph-name="nine.numr" horiz-adv-x="448" 
d="M350 367.5q-53 -60.5 -143 -60.5q-42 0 -77 12.5t-56 33t-21 44.5q0 16 9 25t25 9q13 0 22 -8t16 -26q11 -27 29 -38.5t51 -11.5q129 0 136 159q-52 -40 -128 -40q-80 0 -129 36t-49 98q0 61 48.5 100t129.5 39q93 0 141.5 -53t48.5 -152q0 -106 -53 -166.5zM128.5 531
q31.5 -25 90.5 -25q34 0 65.5 8.5t56.5 24.5q-6 160 -129 160q-52 0 -83.5 -27t-31.5 -72q0 -44 31.5 -69z" />
    <glyph glyph-name="uni2070" unicode="&#x2070;" horiz-adv-x="498" 
d="M99 421q-54 58 -54 161q0 100 54 156.5t150 56.5t150 -56.5t54 -156.5q0 -103 -54 -161t-150 -58t-150 58zM353.5 452q37.5 47 37.5 130q0 80 -37.5 125.5t-104.5 45.5t-104.5 -45.5t-37.5 -125.5q0 -83 37.5 -130t104.5 -47t104.5 47z" />
    <glyph glyph-name="uni00B9" unicode="&#xb9;" horiz-adv-x="274" 
d="M92 375l29 61v246l-81 38l135 75v-366l48 -54h-131z" />
    <glyph glyph-name="uni00B2" unicode="&#xb2;" horiz-adv-x="402" 
d="M40 375l142 116q54 44 79.5 86t25.5 88q0 44 -22 67t-63 23q-42 0 -65 -23.5t-23 -65.5q0 -25 -8.5 -39t-23.5 -14q-29 0 -29 48q0 60 41.5 97t108.5 37q66 0 105.5 -37t39.5 -97q0 -48 -30 -91.5t-104 -103.5l-43 -35h191v-56h-322z" />
    <glyph glyph-name="uni00B3" unicode="&#xb3;" horiz-adv-x="418" 
d="M149 607q76 0 112.5 19.5t36.5 60.5q0 33 -23.5 50.5t-67.5 17.5t-66.5 -17.5t-22.5 -51.5q0 -35 -29 -35q-15 0 -22 8.5t-7 27.5q0 48 40.5 78t108.5 30q65 0 104 -27.5t39 -72.5q0 -36 -24.5 -63t-63.5 -38q57 -8 90 -36t33 -70q0 -36 -23 -64.5t-63.5 -44.5t-90.5 -16
q-48 0 -87 14.5t-61 40.5t-22 58q0 38 32 38q15 0 22.5 -9t8.5 -30q3 -38 26 -55t72 -17q60 0 92.5 22t32.5 61q0 42 -42.5 61.5t-134.5 19.5v40z" />
    <glyph glyph-name="uni2074" unicode="&#x2074;" horiz-adv-x="383" 
d="M205 375l29 61v50h-224l229 294h51v-254h88v-40h-88v-57l48 -54h-133zM234 526v182l-142 -182h142z" />
    <glyph glyph-name="uni2075" unicode="&#x2075;" horiz-adv-x="413" 
d="M344 721h-228v-121q44 27 109 27q70 0 114 -35.5t44 -92.5q0 -61 -49.5 -98.5t-128.5 -37.5q-72 0 -118.5 30.5t-46.5 77.5q0 19 8 29.5t23 10.5q27 0 31 -38q9 -70 97 -70q56 0 89 26.5t33 71.5q0 42 -30.5 65t-85.5 23q-54 0 -95 -19h-34v209h268v-58z" />
    <glyph glyph-name="uni2076" unicode="&#x2076;" horiz-adv-x="448" 
d="M173.5 606.5q37.5 10.5 77.5 10.5q74 0 118 -34.5t44 -93.5t-45.5 -92.5t-125.5 -33.5q-97 0 -147 52.5t-50 153.5q0 105 51.5 165.5t141.5 60.5q42 0 77 -13.5t55.5 -36.5t20.5 -50q0 -34 -31 -34q-30 0 -38 36q-6 28 -27.5 43t-56.5 15q-62 0 -96.5 -47t-34.5 -132
q29 20 66.5 30.5zM240 403q52 0 81.5 23.5t29.5 64.5t-29.5 63.5t-83.5 22.5q-34 0 -68 -9.5t-62 -27.5q12 -137 132 -137z" />
    <glyph glyph-name="uni2077" unicode="&#x2077;" horiz-adv-x="345" 
d="M30 777h320q-77 -96 -134 -204t-80 -198h-70q24 82 88 188.5t119 157.5h-243v56z" />
    <glyph glyph-name="uni2078" unicode="&#x2078;" horiz-adv-x="431" 
d="M92.5 396q-47.5 33 -47.5 89q0 64 70 98q-48 32 -48 89q0 56 41.5 89.5t110.5 33.5q68 0 110.5 -33t42.5 -86q0 -29 -13.5 -50.5t-44.5 -40.5q42 -16 62 -40t20 -59q0 -56 -47.5 -89.5t-128.5 -33.5q-80 0 -127.5 33zM322 671q0 41 -27 62.5t-79 21.5q-48 0 -73 -18
t-25 -52q0 -37 36 -56.5t125 -32.5q43 24 43 75zM130 425.5q33 -22.5 95 -22.5q57 0 89 18.5t32 51.5q0 23 -17 38t-58 27.5t-117 25.5q-57 -19 -57 -73q0 -43 33 -65.5z" />
    <glyph glyph-name="uni2079" unicode="&#x2079;" horiz-adv-x="448" 
d="M350 423.5q-53 -60.5 -143 -60.5q-42 0 -77 12.5t-56 33t-21 44.5q0 16 9 25t25 9q13 0 22 -8t16 -26q11 -27 29 -38.5t51 -11.5q129 0 136 159q-52 -40 -128 -40q-80 0 -129 36t-49 98q0 61 48.5 100t129.5 39q93 0 141.5 -53t48.5 -152q0 -106 -53 -166.5zM128.5 587
q31.5 -25 90.5 -25q34 0 65.5 8.5t56.5 24.5q-6 160 -129 160q-52 0 -83.5 -27t-31.5 -72q0 -44 31.5 -69z" />
    <glyph glyph-name="fraction" unicode="&#x2044;" horiz-adv-x="168" 
d="M-205 13l545 726l33 -26l-545 -725z" />
    <glyph glyph-name="onehalf" unicode="&#xbd;" horiz-adv-x="794" 
d="M92 319l29 61v246l-81 38l135 75v-366l48 -54h-131zM69 13l545 726l33 -26l-545 -725zM432 0l142 116q54 44 79.5 86t25.5 88q0 44 -22 67t-63 23q-42 0 -65 -23.5t-23 -65.5q0 -25 -8.5 -39t-23.5 -14q-29 0 -29 48q0 60 41.5 97t108.5 37q66 0 105.5 -37t39.5 -97
q0 -48 -30 -91.5t-104 -103.5l-43 -35h191v-56h-322z" />
    <glyph glyph-name="uni2153" unicode="&#x2153;" horiz-adv-x="801" 
d="M92 319l29 61v246l-81 38l135 75v-366l48 -54h-131zM69 13l545 726l33 -26l-545 -725zM532 232q76 0 112.5 19.5t36.5 60.5q0 33 -23.5 50.5t-67.5 17.5t-66.5 -17.5t-22.5 -51.5q0 -35 -29 -35q-15 0 -22 8.5t-7 27.5q0 48 40.5 78t108.5 30q65 0 104 -27.5t39 -72.5
q0 -36 -24.5 -63t-63.5 -38q57 -8 90 -36t33 -70q0 -36 -23 -64.5t-63.5 -44.5t-90.5 -16q-48 0 -87 14.5t-61 40.5t-22 58q0 38 32 38q15 0 22.5 -9t8.5 -30q3 -38 26 -55t72 -17q60 0 92.5 22t32.5 61q0 42 -42.5 61.5t-134.5 19.5v40z" />
    <glyph glyph-name="uni2154" unicode="&#x2154;" horiz-adv-x="929" 
d="M40 319l142 116q54 44 79.5 86t25.5 88q0 44 -22 67t-63 23q-42 0 -65 -23.5t-23 -65.5q0 -25 -8.5 -39t-23.5 -14q-29 0 -29 48q0 60 41.5 97t108.5 37q66 0 105.5 -37t39.5 -97q0 -48 -30 -91.5t-104 -103.5l-43 -35h191v-56h-322zM197 13l545 726l33 -26l-545 -725z
M660 232q76 0 112.5 19.5t36.5 60.5q0 33 -23.5 50.5t-67.5 17.5t-66.5 -17.5t-22.5 -51.5q0 -35 -29 -35q-15 0 -22 8.5t-7 27.5q0 48 40.5 78t108.5 30q65 0 104 -27.5t39 -72.5q0 -36 -24.5 -63t-63.5 -38q57 -8 90 -36t33 -70q0 -36 -23 -64.5t-63.5 -44.5t-90.5 -16
q-48 0 -87 14.5t-61 40.5t-22 58q0 38 32 38q15 0 22.5 -9t8.5 -30q3 -38 26 -55t72 -17q60 0 92.5 22t32.5 61q0 42 -42.5 61.5t-134.5 19.5v40z" />
    <glyph glyph-name="onequarter" unicode="&#xbc;" horiz-adv-x="718" 
d="M92 319l29 61v246l-81 38l135 75v-366l48 -54h-131zM69 13l545 726l33 -26l-545 -725zM540 0l29 61v50h-224l229 294h51v-254h88v-40h-88v-57l48 -54h-133zM569 151v182l-142 -182h142z" />
    <glyph glyph-name="threequarters" unicode="&#xbe;" horiz-adv-x="823" 
d="M149 551q76 0 112.5 19.5t36.5 60.5q0 33 -23.5 50.5t-67.5 17.5t-66.5 -17.5t-22.5 -51.5q0 -35 -29 -35q-15 0 -22 8.5t-7 27.5q0 48 40.5 78t108.5 30q65 0 104 -27.5t39 -72.5q0 -36 -24.5 -63t-63.5 -38q57 -8 90 -36t33 -70q0 -36 -23 -64.5t-63.5 -44.5t-90.5 -16
q-48 0 -87 14.5t-61 40.5t-22 58q0 38 32 38q15 0 22.5 -9t8.5 -30q3 -38 26 -55t72 -17q60 0 92.5 22t32.5 61q0 42 -42.5 61.5t-134.5 19.5v40zM174 13l545 726l33 -26l-545 -725zM645 0l29 61v50h-224l229 294h51v-254h88v-40h-88v-57l48 -54h-133zM674 151v182
l-142 -182h142z" />
    <glyph glyph-name="oneeighth" unicode="&#x215b;" horiz-adv-x="795" 
d="M92 319l29 61v246l-81 38l135 75v-366l48 -54h-131zM69 13l545 726l33 -26l-545 -725zM456.5 21q-47.5 33 -47.5 89q0 64 70 98q-48 32 -48 89q0 56 41.5 89.5t110.5 33.5q68 0 110.5 -33t42.5 -86q0 -29 -13.5 -50.5t-44.5 -40.5q42 -16 62 -40t20 -59
q0 -56 -47.5 -89.5t-128.5 -33.5q-80 0 -127.5 33zM686 296q0 41 -27 62.5t-79 21.5q-48 0 -73 -18t-25 -52q0 -37 36 -56.5t125 -32.5q43 24 43 75zM494 50.5q33 -22.5 95 -22.5q57 0 89 18.5t32 51.5q0 23 -17 38t-58 27.5t-117 25.5q-57 -19 -57 -73q0 -43 33 -65.5z" />
    <glyph glyph-name="threeeighths" unicode="&#x215c;" horiz-adv-x="900" 
d="M149 551q76 0 112.5 19.5t36.5 60.5q0 33 -23.5 50.5t-67.5 17.5t-66.5 -17.5t-22.5 -51.5q0 -35 -29 -35q-15 0 -22 8.5t-7 27.5q0 48 40.5 78t108.5 30q65 0 104 -27.5t39 -72.5q0 -36 -24.5 -63t-63.5 -38q57 -8 90 -36t33 -70q0 -36 -23 -64.5t-63.5 -44.5t-90.5 -16
q-48 0 -87 14.5t-61 40.5t-22 58q0 38 32 38q15 0 22.5 -9t8.5 -30q3 -38 26 -55t72 -17q60 0 92.5 22t32.5 61q0 42 -42.5 61.5t-134.5 19.5v40zM174 13l545 726l33 -26l-545 -725zM561.5 21q-47.5 33 -47.5 89q0 64 70 98q-48 32 -48 89q0 56 41.5 89.5t110.5 33.5
q68 0 110.5 -33t42.5 -86q0 -29 -13.5 -50.5t-44.5 -40.5q42 -16 62 -40t20 -59q0 -56 -47.5 -89.5t-128.5 -33.5q-80 0 -127.5 33zM791 296q0 41 -27 62.5t-79 21.5q-48 0 -73 -18t-25 -52q0 -37 36 -56.5t125 -32.5q43 24 43 75zM599 50.5q33 -22.5 95 -22.5q57 0 89 18.5
t32 51.5q0 23 -17 38t-58 27.5t-117 25.5q-57 -19 -57 -73q0 -43 33 -65.5z" />
    <glyph glyph-name="fiveeighths" unicode="&#x215d;" horiz-adv-x="881" 
d="M344 667h-228v-121q44 27 109 27q70 0 114 -35.5t44 -92.5q0 -61 -49.5 -98.5t-128.5 -37.5q-72 0 -118.5 30.5t-46.5 77.5q0 19 8 29.5t23 10.5q27 0 31 -38q9 -70 97 -70q56 0 89 26.5t33 71.5q0 42 -30.5 65t-85.5 23q-54 0 -95 -19h-34v209h268v-58zM155 13l545 726
l33 -26l-545 -725zM542.5 21q-47.5 33 -47.5 89q0 64 70 98q-48 32 -48 89q0 56 41.5 89.5t110.5 33.5q68 0 110.5 -33t42.5 -86q0 -29 -13.5 -50.5t-44.5 -40.5q42 -16 62 -40t20 -59q0 -56 -47.5 -89.5t-128.5 -33.5q-80 0 -127.5 33zM772 296q0 41 -27 62.5t-79 21.5
q-48 0 -73 -18t-25 -52q0 -37 36 -56.5t125 -32.5q43 24 43 75zM580 50.5q33 -22.5 95 -22.5q57 0 89 18.5t32 51.5q0 23 -17 38t-58 27.5t-117 25.5q-57 -19 -57 -73q0 -43 33 -65.5z" />
    <glyph glyph-name="seveneighths" unicode="&#x215e;" horiz-adv-x="790" 
d="M30 725h320q-77 -96 -134 -204t-80 -198h-70q24 82 88 188.5t119 157.5h-243v56zM64 13l545 726l33 -26l-545 -725zM451.5 21q-47.5 33 -47.5 89q0 64 70 98q-48 32 -48 89q0 56 41.5 89.5t110.5 33.5q68 0 110.5 -33t42.5 -86q0 -29 -13.5 -50.5t-44.5 -40.5
q42 -16 62 -40t20 -59q0 -56 -47.5 -89.5t-128.5 -33.5q-80 0 -127.5 33zM681 296q0 41 -27 62.5t-79 21.5q-48 0 -73 -18t-25 -52q0 -37 36 -56.5t125 -32.5q43 24 43 75zM489 50.5q33 -22.5 95 -22.5q57 0 89 18.5t32 51.5q0 23 -17 38t-58 27.5t-117 25.5
q-57 -19 -57 -73q0 -43 33 -65.5z" />
    <glyph glyph-name="uni00B9.osf" horiz-adv-x="274" 
d="M91 197l29 61v225l-80 37l136 77v-346l48 -54h-133z" />
    <glyph glyph-name="uni00B2.osf" horiz-adv-x="402" 
d="M40 197l142 116q54 44 79 83.5t25 79.5q0 39 -21 60t-61 21q-43 0 -66.5 -24t-23.5 -67q0 -51 -32 -51q-29 0 -29 47q0 59 41 97t112 38q65 0 103 -33.5t38 -90.5q0 -43 -28.5 -83t-104.5 -102l-43 -35h191v-56h-322z" />
    <glyph glyph-name="uni00B3.osf" horiz-adv-x="408" 
d="M149 419q76 0 112.5 18t36.5 55q0 31 -24 48t-67 17q-44 0 -66.5 -17.5t-22.5 -51.5q0 -35 -29 -35q-15 0 -22 8.5t-7 27.5q0 49 41 78.5t108 29.5q64 0 103.5 -27t39.5 -70q0 -33 -24 -58.5t-64 -36.5q54 -8 84 -34t30 -68q0 -52 -46.5 -85t-120.5 -33q-48 0 -87 14.5
t-61.5 40.5t-22.5 58q0 38 33 38q14 0 21 -9t9 -31q5 -40 25.5 -55.5t69.5 -15.5q118 0 118 76q0 41 -39.5 59.5t-127.5 18.5v40z" />
    <glyph glyph-name="onehalf.osf" horiz-adv-x="710" 
d="M85 210l29 61v164l-70 35l126 77v-283l48 -54h-133zM141 -12l-33 23l379 536l33 -23zM378 0l112 88q58 46 81 77t23 65q0 33 -17.5 51.5t-49.5 18.5t-48.5 -19.5t-16.5 -53.5q0 -24 -8 -36.5t-22 -12.5t-22.5 12.5t-8.5 37.5q0 50 35 81t95 31q57 0 91 -28.5t34 -75.5
q0 -40 -29.5 -79t-101.5 -93l-11 -8h146v-56h-282z" />
    <glyph glyph-name="uni2153.osf" horiz-adv-x="700" 
d="M85 210l29 61v164l-70 35l126 77v-283l48 -54h-133zM142 -12l-33 23l379 536l33 -23zM481 179q55 0 82 15t27 47q0 28 -18.5 44t-50.5 16q-29 0 -44 -14t-18 -43q-2 -20 -8.5 -28t-20.5 -8t-21 8t-7 27q0 44 33 71t88 27t88 -26.5t33 -70.5q0 -30 -16.5 -50.5
t-46.5 -28.5q37 -8 58 -30t21 -54q0 -42 -35 -67.5t-94 -25.5q-60 0 -99.5 26.5t-39.5 66.5q0 36 33 36q13 0 19.5 -7t9.5 -25q5 -31 22 -44t48 -13q35 0 54.5 14.5t19.5 40.5q0 29 -28 42.5t-89 13.5v40z" />
    <glyph glyph-name="uni2154.osf" horiz-adv-x="770" 
d="M30 209l112 88q51 40 72.5 72t21.5 67q0 34 -17.5 53.5t-49.5 19.5t-48.5 -19.5t-16.5 -53.5q0 -24 -8 -36.5t-22 -12.5q-15 0 -23 12.5t-8 36.5q0 50 35 81.5t95 31.5q57 0 91 -29t34 -77q0 -41 -29 -81.5t-92 -88.5l-11 -8h127v-56h-263zM212 -12l-33 23l379 536
l33 -23zM551 179q55 0 82 15t27 47q0 28 -18.5 44t-50.5 16q-30 0 -46.5 -14.5t-16.5 -43.5q0 -19 -7 -27t-21 -8t-21 8t-7 27q0 44 33 71t88 27t88 -26.5t33 -70.5q0 -30 -16.5 -50.5t-46.5 -28.5q37 -8 58 -29.5t21 -54.5q0 -42 -35 -67.5t-93 -25.5q-61 0 -100.5 26.5
t-39.5 66.5q0 36 33 36q13 0 19.5 -7t9.5 -24q5 -30 22 -44t48 -14q35 0 54.5 14t19.5 40q0 29 -28 43t-89 14v40z" />
    <glyph glyph-name="onequarter.osf" horiz-adv-x="684" 
d="M85 210l29 61v164l-70 35l126 77v-283l48 -54h-133zM141 -12l-33 23l379 536l33 -23zM471 0l29 61v28h-174l179 221h51v-181h88v-40h-88v-35l48 -54h-133zM500 129v112l-91 -112h91z" />
    <glyph glyph-name="threequarters.osf" 
d="M129 385q55 0 82 15t27 47q0 28 -18.5 44t-50.5 16q-29 0 -44 -14t-18 -43q-2 -20 -8.5 -28t-20.5 -8t-21 8t-7 27q0 44 33 71t88 27t88 -26.5t33 -70.5q0 -30 -16.5 -50.5t-46.5 -28.5q37 -8 58 -30t21 -54q0 -42 -35 -67.5t-94 -25.5q-60 0 -99.5 26.5t-39.5 66.5
q0 36 33 36q13 0 19.5 -7t9.5 -25q5 -31 22 -44t48 -13q35 0 54.5 14.5t19.5 40.5q0 29 -28 42.5t-89 13.5v40zM207 -12l-33 23l379 536l33 -23zM517 0l29 61v28h-174l179 221h51v-181h88v-40h-88v-35l48 -54h-133zM546 129v112l-91 -112h91z" />
    <glyph glyph-name="oneeighth.osf" horiz-adv-x="687" 
d="M85 210l29 61v164l-70 35l126 77v-283l48 -54h-133zM141 -12l-33 23l379 536l33 -23zM413 12q-37 24 -37 66q0 51 57 79q-35 23 -35 67q0 42 30 66t82 24t85 -23t33 -62q0 -38 -38 -63q57 -29 57 -86q0 -45 -34.5 -68.5t-97.5 -23.5q-65 0 -102 24zM475 201.5
q26 -13.5 82 -22.5q21 17 21 43q0 25 -17.5 38.5t-50.5 13.5q-29 0 -45 -10t-16 -28q0 -21 26 -34.5zM452 41.5q19 -13.5 61 -13.5q41 0 62.5 11.5t21.5 32.5q0 23 -28.5 38.5t-94.5 27.5q-41 -12 -41 -54q0 -29 19 -42.5z" />
    <glyph glyph-name="threeeighths.osf" horiz-adv-x="753" 
d="M129 385q55 0 82 15t27 47q0 28 -18.5 44t-50.5 16q-29 0 -44 -14t-18 -43q-2 -20 -8.5 -28t-20.5 -8t-21 8t-7 27q0 44 33 71t88 27t88 -26.5t33 -70.5q0 -30 -16.5 -50.5t-46.5 -28.5q37 -8 58 -30t21 -54q0 -42 -35 -67.5t-94 -25.5q-60 0 -99.5 26.5t-39.5 66.5
q0 36 33 36q13 0 19.5 -7t9.5 -25q5 -31 22 -44t48 -13q35 0 54.5 14.5t19.5 40.5q0 29 -28 42.5t-89 13.5v40zM207 -12l-33 23l379 536l33 -23zM479 12q-37 24 -37 66q0 51 57 79q-35 23 -35 67q0 42 30 66t82 24t85 -23t33 -62q0 -38 -38 -63q57 -29 57 -86
q0 -45 -34.5 -68.5t-97.5 -23.5q-65 0 -102 24zM541 201.5q26 -13.5 82 -22.5q21 17 21 43q0 25 -17.5 38.5t-50.5 13.5q-29 0 -45 -10t-16 -28q0 -21 26 -34.5zM518 41.5q19 -13.5 61 -13.5q41 0 62.5 11.5t21.5 32.5q0 23 -28.5 38.5t-94.5 27.5q-41 -12 -41 -54
q0 -29 19 -42.5z" />
    <glyph glyph-name="fiveeighths.osf" horiz-adv-x="760" 
d="M214 -12l-33 23l379 536l33 -23zM86 357v176h218v-58h-178v-79q38 16 77 16q54 0 87 -28t33 -74q0 -51 -38.5 -83.5t-100.5 -32.5q-57 0 -95.5 26.5t-38.5 66.5q0 18 8 28t23 10q28 0 31 -36q2 -27 20.5 -41t49.5 -14q36 0 57.5 19t21.5 51t-21.5 48.5t-58.5 16.5
q-34 0 -61 -12h-34zM486 12q-37 24 -37 66q0 51 57 79q-35 23 -35 67q0 42 30 66t82 24t85 -23t33 -62q0 -38 -38 -63q57 -29 57 -86q0 -45 -34.5 -68.5t-97.5 -23.5q-65 0 -102 24zM548 201.5q26 -13.5 82 -22.5q21 17 21 43q0 25 -17.5 38.5t-50.5 13.5q-29 0 -45 -10
t-16 -28q0 -21 26 -34.5zM525 41.5q19 -13.5 61 -13.5q41 0 62.5 11.5t21.5 32.5q0 23 -28.5 38.5t-94.5 27.5q-41 -12 -41 -54q0 -29 19 -42.5z" />
    <glyph glyph-name="seveneighths.osf" horiz-adv-x="655" 
d="M109 -12l-33 23l379 536l33 -23zM35 530h295q-87 -83 -131.5 -160.5t-57.5 -171.5h-70q17 87 59 157t106 119h-201v56zM381 12q-37 24 -37 66q0 51 57 79q-35 23 -35 67q0 42 30 66t82 24t85 -23t33 -62q0 -38 -38 -63q57 -29 57 -86q0 -45 -34.5 -68.5t-97.5 -23.5
q-65 0 -102 24zM443 201.5q26 -13.5 82 -22.5q21 17 21 43q0 25 -17.5 38.5t-50.5 13.5q-29 0 -45 -10t-16 -28q0 -21 26 -34.5zM420 41.5q19 -13.5 61 -13.5q41 0 62.5 11.5t21.5 32.5q0 23 -28.5 38.5t-94.5 27.5q-41 -12 -41 -54q0 -29 19 -42.5z" />
    <glyph glyph-name="uni2080.ss04" horiz-adv-x="490" 
d="M99.5 292.5q54.5 59.5 145.5 59.5q92 0 146 -57.5t54 -156.5q0 -101 -54 -159.5t-146 -58.5t-146 58t-54 155q0 100 54.5 159.5zM361.5 21.5q43.5 43.5 43.5 116.5q0 71 -43.5 113.5t-116.5 42.5t-116.5 -44t-43.5 -117q0 -70 43.5 -112.5t116.5 -42.5t116.5 43.5z" />
    <glyph glyph-name="zero.dnom.ss04" horiz-adv-x="490" 
d="M99.5 360.5q54.5 59.5 145.5 59.5q92 0 146 -57.5t54 -156.5q0 -101 -54 -159.5t-146 -58.5t-146 58t-54 155q0 100 54.5 159.5zM361.5 89.5q43.5 43.5 43.5 116.5q0 71 -43.5 113.5t-116.5 42.5t-116.5 -44t-43.5 -117q0 -70 43.5 -112.5t116.5 -42.5t116.5 43.5z" />
    <glyph glyph-name="zero.numr.ss04" horiz-adv-x="490" 
d="M99.5 679.5q54.5 59.5 145.5 59.5q92 0 146 -57.5t54 -156.5q0 -101 -54 -159.5t-146 -58.5t-146 58t-54 155q0 100 54.5 159.5zM361.5 408.5q43.5 43.5 43.5 116.5q0 71 -43.5 113.5t-116.5 42.5t-116.5 -44t-43.5 -117q0 -70 43.5 -112.5t116.5 -42.5t116.5 43.5z" />
    <glyph glyph-name="uni2070.ss04" horiz-adv-x="490" 
d="M99.5 735.5q54.5 59.5 145.5 59.5q92 0 146 -57.5t54 -156.5q0 -101 -54 -159.5t-146 -58.5t-146 58t-54 155q0 100 54.5 159.5zM361.5 464.5q43.5 43.5 43.5 116.5q0 71 -43.5 113.5t-116.5 42.5t-116.5 -44t-43.5 -117q0 -70 43.5 -112.5t116.5 -42.5t116.5 43.5z" />
    <glyph glyph-name="uni2080.ss04.zero" horiz-adv-x="490" 
d="M391 294.5q54 -57.5 54 -156.5q0 -101 -54 -159.5t-146 -58.5t-146 58t-54 155q0 100 54.5 159.5t145.5 59.5q92 0 146 -57.5zM130 19l194 258q-34 17 -79 17q-73 0 -116.5 -44t-43.5 -117q0 -72 45 -114zM361.5 21.5q43.5 43.5 43.5 116.5t-46 116l-195 -259
q36 -17 81 -17q73 0 116.5 43.5z" />
    <glyph glyph-name="zero.dnom.ss04.zero" horiz-adv-x="490" 
d="M391 362.5q54 -57.5 54 -156.5q0 -101 -54 -159.5t-146 -58.5t-146 58t-54 155q0 100 54.5 159.5t145.5 59.5q92 0 146 -57.5zM130 87l194 258q-34 17 -79 17q-73 0 -116.5 -44t-43.5 -117q0 -72 45 -114zM361.5 89.5q43.5 43.5 43.5 116.5t-46 116l-195 -259
q36 -17 81 -17q73 0 116.5 43.5z" />
    <glyph glyph-name="zero.numr.ss04.zero" horiz-adv-x="490" 
d="M391 681.5q54 -57.5 54 -156.5q0 -101 -54 -159.5t-146 -58.5t-146 58t-54 155q0 100 54.5 159.5t145.5 59.5q92 0 146 -57.5zM130 406l194 258q-34 17 -79 17q-73 0 -116.5 -44t-43.5 -117q0 -72 45 -114zM361.5 408.5q43.5 43.5 43.5 116.5t-46 116l-195 -259
q36 -17 81 -17q73 0 116.5 43.5z" />
    <glyph glyph-name="uni2070.ss04.zero" horiz-adv-x="490" 
d="M391 737.5q54 -57.5 54 -156.5q0 -101 -54 -159.5t-146 -58.5t-146 58t-54 155q0 100 54.5 159.5t145.5 59.5q92 0 146 -57.5zM130 462l194 258q-34 17 -79 17q-73 0 -116.5 -44t-43.5 -117q0 -72 45 -114zM361.5 464.5q43.5 43.5 43.5 116.5t-46 116l-195 -259
q36 -17 81 -17q73 0 116.5 43.5z" />
    <glyph glyph-name="uni00B9.tf" 
d="M157 375l29 61v246l-81 38l135 75v-366l48 -54h-131z" />
    <glyph glyph-name="uni00B2.tf" 
d="M105 375l142 116q54 44 79.5 86t25.5 88q0 44 -22 67t-63 23q-42 0 -65 -23.5t-23 -65.5q0 -25 -8.5 -39t-23.5 -14q-29 0 -29 48q0 60 41.5 97t108.5 37q66 0 105.5 -37t39.5 -97q0 -48 -30 -91.5t-104 -103.5l-43 -35h191v-56h-322z" />
    <glyph glyph-name="uni00B3.tf" 
d="M214 607q76 0 112.5 19.5t36.5 60.5q0 33 -23.5 50.5t-67.5 17.5t-66.5 -17.5t-22.5 -51.5q0 -35 -29 -35q-15 0 -22 8.5t-7 27.5q0 48 40.5 78t108.5 30q65 0 104 -27.5t39 -72.5q0 -36 -24.5 -63t-63.5 -38q57 -8 90 -36t33 -70q0 -36 -23 -64.5t-63.5 -44.5t-90.5 -16
q-48 0 -87 14.5t-61 40.5t-22 58q0 38 32 38q15 0 22.5 -9t8.5 -30q3 -38 26 -55t72 -17q60 0 92.5 22t32.5 61q0 42 -42.5 61.5t-134.5 19.5v40z" />
    <glyph glyph-name="onehalf.tf" 
d="M111 339l39 82v203l-90 28l146 87v-335l58 -65h-153zM106 -12l-33 25l545 726l33 -26zM374 0l122 104q55 48 79.5 86.5t24.5 80.5q0 38 -18.5 58.5t-55.5 20.5q-38 0 -58 -21.5t-20 -59.5q0 -25 -8.5 -38t-23.5 -13q-29 0 -29 48q0 55 38 89.5t102 34.5q62 0 98.5 -32.5
t36.5 -86.5q0 -41 -28.5 -81.5t-105.5 -110.5l-26 -23h174v-56h-302z" />
    <glyph glyph-name="uni2153.tf" 
d="M111 349l39 82v193l-90 28l146 87v-325l58 -65h-153zM96 -12l-33 25l545 726l33 -26zM479 218q61 0 90 17t29 52q0 30 -19 47t-53 17q-33 0 -50.5 -16t-17.5 -46q0 -37 -30 -37q-15 0 -21.5 8.5t-6.5 27.5q0 46 35 74.5t92 28.5q55 0 90 -26.5t35 -68.5q0 -33 -22 -57.5
t-59 -34.5q47 -8 72 -32.5t25 -64.5q0 -51 -40 -85t-101 -34q-59 0 -98 30.5t-39 76.5q0 39 32 39q15 0 22 -9.5t9 -33.5q3 -35 17 -49t46 -14q43 0 66.5 20t23.5 57q0 38 -30 55.5t-97 17.5v40z" />
    <glyph glyph-name="uni2154.tf" 
d="M37 349l122 104q55 48 79.5 86.5t24.5 80.5q0 38 -18.5 58.5t-55.5 20.5q-38 0 -58 -21.5t-20 -59.5q0 -25 -8.5 -38t-23.5 -13q-29 0 -29 48q0 55 38 89.5t102 34.5q62 0 98.5 -32.5t36.5 -86.5q0 -41 -28.5 -81.5t-105.5 -110.5l-26 -23h174v-56h-302zM126 -12l-33 25
l545 726l33 -26zM479 218q61 0 90 17t29 52q0 30 -19 47t-53 17q-33 0 -50.5 -16t-17.5 -46q0 -37 -30 -37q-15 0 -21.5 8.5t-6.5 27.5q0 46 35 74.5t92 28.5q55 0 90 -26.5t35 -68.5q0 -33 -22 -57.5t-59 -34.5q47 -8 72 -32.5t25 -64.5q0 -51 -40 -85t-101 -34
q-59 0 -98 30.5t-39 76.5q0 39 32 39q15 0 22 -9.5t9 -33.5q3 -35 17 -49t46 -14q43 0 66.5 20t23.5 57q0 38 -30 55.5t-97 17.5v40z" />
    <glyph glyph-name="onequarter.tf" 
d="M111 339l39 82v203l-90 28l146 87v-335l58 -65h-153zM106 -12l-33 25l545 726l33 -26zM496 0l39 82v19h-204l209 284h51v-244h88v-40h-88v-36l58 -65h-153zM535 141v168l-124 -168h124z" />
    <glyph glyph-name="threequarters.tf" 
d="M149 566q61 0 90 17t29 52q0 30 -19 47t-53 17q-33 0 -50.5 -16t-17.5 -46q0 -37 -30 -37q-15 0 -21.5 8.5t-6.5 27.5q0 46 35 74.5t92 28.5q55 0 90 -26.5t35 -68.5q0 -33 -22 -57.5t-59 -34.5q47 -8 72 -32.5t25 -64.5q0 -51 -40 -85t-101 -34q-59 0 -98 30.5t-39 76.5
q0 39 32 39q15 0 22 -9.5t9 -33.5q3 -35 17 -49t46 -14q43 0 66.5 20t23.5 57q0 38 -30 55.5t-97 17.5v40zM126 -12l-33 25l545 726l33 -26zM496 0l39 82v19h-204l209 284h51v-244h88v-40h-88v-36l58 -65h-153zM535 141v168l-124 -168h124z" />
    <glyph glyph-name="oneeighth.tf" 
d="M111 349l39 82v193l-90 28l146 87v-325l58 -65h-153zM96 -12l-33 25l545 726l33 -26zM377 267q0 51 37 82t97 31q59 0 97 -30t38 -77q0 -51 -50 -83q67 -28 67 -91q0 -51 -41.5 -81t-112.5 -30q-70 0 -110 29.5t-40 80.5q0 61 58 89q-40 30 -40 80zM594 268
q0 35 -22 53.5t-63 18.5q-39 0 -60.5 -16t-21.5 -46q0 -21 12 -34.5t41 -23t82 -18.5q32 21 32 66zM423 141q-9 -17 -9 -40q0 -38 25 -55.5t77 -17.5q97 0 97 58q0 20 -14 33.5t-49 24.5t-102 24q-16 -10 -25 -27z" />
    <glyph glyph-name="threeeighths.tf" 
d="M149 566q61 0 90 17t29 52q0 30 -19 47t-53 17q-33 0 -50.5 -16t-17.5 -46q0 -37 -30 -37q-15 0 -21.5 8.5t-6.5 27.5q0 46 35 74.5t92 28.5q55 0 90 -26.5t35 -68.5q0 -33 -22 -57.5t-59 -34.5q47 -8 72 -32.5t25 -64.5q0 -51 -40 -85t-101 -34q-59 0 -98 30.5t-39 76.5
q0 39 32 39q15 0 22 -9.5t9 -33.5q3 -35 17 -49t46 -14q43 0 66.5 20t23.5 57q0 38 -30 55.5t-97 17.5v40zM106 -12l-33 25l545 726l33 -26zM377 267q0 51 37 82t97 31q59 0 97 -30t38 -77q0 -51 -50 -83q67 -28 67 -91q0 -51 -41.5 -81t-112.5 -30q-70 0 -110 29.5
t-40 80.5q0 61 58 89q-40 30 -40 80zM594 268q0 35 -22 53.5t-63 18.5q-39 0 -60.5 -16t-21.5 -46q0 -21 12 -34.5t41 -23t82 -18.5q32 21 32 66zM423 141q-9 -17 -9 -40q0 -38 25 -55.5t77 -17.5q97 0 97 58q0 20 -14 33.5t-49 24.5t-102 24q-16 -10 -25 -27z" />
    <glyph glyph-name="fiveeighths.tf" 
d="M96 -12l-33 25l545 726l33 -26zM81 725h238v-58h-198v-111q36 18 86 18q62 0 96.5 -30.5t34.5 -84.5q0 -60 -40.5 -96.5t-107.5 -36.5q-61 0 -103 29.5t-42 73.5q0 18 8 28t23 10q27 0 31 -38q8 -63 77 -63q42 0 67 24t25 65q0 39 -24 60t-70 21q-31 0 -67 -12h-34v201z
M377 267q0 51 37 82t97 31q59 0 97 -30t38 -77q0 -51 -50 -83q67 -28 67 -91q0 -51 -41.5 -81t-112.5 -30q-70 0 -110 29.5t-40 80.5q0 61 58 89q-40 30 -40 80zM594 268q0 35 -22 53.5t-63 18.5q-39 0 -60.5 -16t-21.5 -46q0 -21 12 -34.5t41 -23t82 -18.5q32 21 32 66z
M423 141q-9 -17 -9 -40q0 -38 25 -55.5t77 -17.5q97 0 97 58q0 20 -14 33.5t-49 24.5t-102 24q-16 -10 -25 -27z" />
    <glyph glyph-name="seveneighths.tf" 
d="M86 -12l-33 25l545 726l33 -26zM85 721h305q-80 -101 -135 -201t-74 -181h-70q23 75 84 174.5t118 151.5h-228v56zM377 267q0 51 37 82t97 31q59 0 97 -30t38 -77q0 -51 -50 -83q67 -28 67 -91q0 -51 -41.5 -81t-112.5 -30q-70 0 -110 29.5t-40 80.5q0 61 58 89
q-40 30 -40 80zM594 268q0 35 -22 53.5t-63 18.5q-39 0 -60.5 -16t-21.5 -46q0 -21 12 -34.5t41 -23t82 -18.5q32 21 32 66zM423 141q-9 -17 -9 -40q0 -38 25 -55.5t77 -17.5q97 0 97 58q0 20 -14 33.5t-49 24.5t-102 24q-16 -10 -25 -27z" />
    <glyph glyph-name="uni00B9.tosf" 
d="M147 197l29 61v225l-80 37l136 77v-346l48 -54h-133z" />
    <glyph glyph-name="uni00B2.tosf" 
d="M242 313q54 44 79 83.5t25 79.5q0 39 -21 60t-61 21q-44 0 -67 -24t-23 -66q0 -26 -8.5 -39t-23.5 -13q-29 0 -29 47q0 37 19.5 68t54.5 49t78 18q62 0 102.5 -35.5t40.5 -91.5q0 -41 -29 -80t-105 -102l-43 -35h191v-56h-322z" />
    <glyph glyph-name="uni00B3.tosf" 
d="M199 419q76 0 112.5 18t36.5 55q0 31 -24 48t-67 17q-44 0 -66.5 -17.5t-22.5 -51.5q0 -35 -29 -35q-15 0 -22 8.5t-7 28.5q0 48 40.5 77.5t108.5 29.5q65 0 104 -27t39 -71q0 -34 -24 -59t-64 -35q54 -8 84 -34t30 -67q0 -53 -46.5 -86t-119.5 -33q-49 0 -88 14.5
t-61.5 40.5t-22.5 58q0 38 32 38q15 0 21.5 -9t8.5 -31q3 -40 25.5 -55.5t71.5 -15.5q59 0 88 19.5t29 56.5q0 42 -39.5 60t-127.5 18v40z" />
    <glyph glyph-name="onehalf.tosf" 
d="M110 210l29 61v164l-70 35l126 77v-283l48 -54h-133zM176 -12l-33 23l379 536l33 -23zM393 0l112 88q59 47 81.5 77.5t22.5 63.5t-18 52t-49 19q-32 0 -48.5 -19.5t-16.5 -53.5q0 -24 -8 -36.5t-22 -12.5t-22.5 12.5t-8.5 37.5q0 50 35 81t95 31q57 0 91 -28.5t34 -75.5
q0 -40 -29.5 -79t-101.5 -93l-11 -8h146v-56h-282z" />
    <glyph glyph-name="uni2153.tosf" 
d="M111 210l29 61v164l-70 35l126 77v-283l48 -54h-133zM178 -12l-33 23l379 536l33 -23zM497 179q55 0 82 15t27 47q0 28 -18.5 44t-50.5 16q-29 0 -44 -14.5t-19 -44.5q-2 -19 -8.5 -26.5t-19.5 -7.5q-28 0 -28 36q0 43 33 70t88 27t88 -26.5t33 -70.5q0 -30 -16.5 -50.5
t-46.5 -28.5q37 -8 58 -30t21 -54q0 -42 -35.5 -67.5t-93.5 -25.5q-60 0 -99.5 26.5t-39.5 66.5q0 36 33 36q13 0 19 -6.5t9 -23.5q5 -30 23 -44.5t51 -14.5q34 0 52.5 14t18.5 40q0 30 -27.5 43.5t-89.5 13.5v40z" />
    <glyph glyph-name="uni2154.tosf" 
d="M38 210l112 88q51 40 72.5 71.5t21.5 66.5q0 34 -17.5 53t-48.5 19q-32 0 -49 -20t-17 -54q0 -23 -8 -35.5t-22 -12.5t-22.5 12.5t-8.5 37.5q0 50 35 81t95 31q57 0 91 -28.5t34 -76.5q0 -41 -28.5 -80.5t-92.5 -88.5l-11 -8h127v-56h-263zM210 -12l-33 23l379 536
l33 -23zM507 179q55 0 82 15t27 47q0 28 -18.5 44t-50.5 16q-29 0 -44 -14.5t-19 -44.5q-2 -19 -8.5 -26.5t-19.5 -7.5q-28 0 -28 36q0 43 33 70t88 27t88 -26.5t33 -70.5q0 -30 -16.5 -50.5t-46.5 -28.5q37 -8 58 -30t21 -54q0 -42 -35.5 -67.5t-93.5 -25.5
q-60 0 -99.5 26.5t-39.5 66.5q0 36 33 36q13 0 19 -6.5t9 -23.5q5 -30 23 -44.5t51 -14.5q34 0 52.5 14t18.5 40q0 30 -27.5 43.5t-89.5 13.5v40z" />
    <glyph glyph-name="onequarter.tosf" 
d="M111 210l29 61v164l-70 35l126 77v-283l48 -54h-133zM177 -12l-33 23l379 536l33 -23zM497 0l29 61v28h-174l179 221h51v-181h88v-40h-88v-35l48 -54h-133zM526 129v112l-91 -112h91z" />
    <glyph glyph-name="threequarters.tosf" 
d="M149 386q55 0 82 15t27 47q0 28 -18.5 44t-50.5 16q-29 0 -44 -14.5t-19 -44.5q-2 -19 -8.5 -26.5t-19.5 -7.5q-28 0 -28 36q0 43 33 70t88 27t88 -26.5t33 -70.5q0 -30 -16.5 -50.5t-46.5 -28.5q37 -8 58 -30t21 -54q0 -42 -35.5 -67.5t-93.5 -25.5q-60 0 -99.5 26.5
t-39.5 66.5q0 36 33 36q13 0 19 -6.5t9 -23.5q5 -30 23 -44.5t51 -14.5q34 0 52.5 14t18.5 40q0 30 -27.5 43.5t-89.5 13.5v40zM217 -12l-33 23l379 536l33 -23zM497 0l29 61v28h-174l179 221h51v-181h88v-40h-88v-35l48 -54h-133zM526 129v112l-91 -112h91z" />
    <glyph glyph-name="oneeighth.tosf" 
d="M111 210l29 61v164l-70 35l126 77v-283l48 -54h-133zM178 -12l-33 23l379 536l33 -23zM439 12q-37 24 -37 66q0 51 57 79q-35 23 -35 67q0 42 30 66t82 24t85 -23t33 -62q0 -38 -38 -63q57 -29 57 -87q0 -44 -34.5 -67.5t-97.5 -23.5q-65 0 -102 24zM604 222
q0 25 -17.5 38.5t-51.5 13.5q-29 0 -44.5 -9.5t-15.5 -28.5q0 -23 25.5 -36.5t82.5 -20.5q21 15 21 43zM478 41.5q19 -13.5 61 -13.5q41 0 62.5 11.5t21.5 33.5q0 23 -28.5 38t-94.5 27q-41 -12 -41 -54q0 -29 19 -42.5z" />
    <glyph glyph-name="threeeighths.tosf" 
d="M149 386q55 0 82 15t27 47q0 28 -18.5 44t-50.5 16q-29 0 -44 -14.5t-19 -44.5q-2 -19 -8.5 -26.5t-19.5 -7.5q-28 0 -28 36q0 43 33 70t88 27t88 -26.5t33 -70.5q0 -30 -16.5 -50.5t-46.5 -28.5q37 -8 58 -30t21 -54q0 -42 -35.5 -67.5t-93.5 -25.5q-60 0 -99.5 26.5
t-39.5 66.5q0 36 33 36q13 0 19 -6.5t9 -23.5q5 -30 23 -44.5t51 -14.5q34 0 52.5 14t18.5 40q0 30 -27.5 43.5t-89.5 13.5v40zM207 -12l-33 23l379 536l33 -23zM439 12q-37 24 -37 66q0 51 57 79q-35 23 -35 67q0 42 30 66t82 24t85 -23t33 -62q0 -38 -38 -63
q57 -29 57 -87q0 -44 -34.5 -67.5t-97.5 -23.5q-65 0 -102 24zM604 222q0 25 -17.5 38.5t-51.5 13.5q-29 0 -44.5 -9.5t-15.5 -28.5q0 -23 25.5 -36.5t82.5 -20.5q21 15 21 43zM478 41.5q19 -13.5 61 -13.5q41 0 62.5 11.5t21.5 33.5q0 23 -28.5 38t-94.5 27
q-41 -12 -41 -54q0 -29 19 -42.5z" />
    <glyph glyph-name="fiveeighths.tosf" 
d="M200 -12l-33 23l379 536l33 -23zM81 533h218v-58h-178v-79q38 16 78 16q53 0 86 -28.5t33 -74.5q0 -51 -38.5 -83t-100.5 -32q-57 0 -95.5 26.5t-38.5 66.5q0 18 8 28t23 10q28 0 31 -36q2 -27 20 -41t49 -14q37 0 58.5 19.5t21.5 51.5q0 31 -21 47.5t-58 16.5
q-35 0 -62 -12h-34v176zM439 12q-37 24 -37 66q0 51 57 79q-35 23 -35 67q0 42 30 66t82 24t85 -23t33 -62q0 -38 -38 -63q57 -29 57 -87q0 -44 -34.5 -67.5t-97.5 -23.5q-65 0 -102 24zM500.5 199.5q25.5 -13.5 82.5 -20.5q21 15 21 43q0 25 -17.5 38.5t-51.5 13.5
q-29 0 -44.5 -9.5t-15.5 -28.5q0 -23 25.5 -36.5zM478 41.5q19 -13.5 61 -13.5q41 0 62.5 11.5t21.5 33.5q0 23 -28.5 38t-94.5 27q-41 -12 -41 -54q0 -29 19 -42.5z" />
    <glyph glyph-name="seveneighths.tosf" 
d="M180 -12l-33 23l379 536l33 -23zM105 533h295q-87 -83 -131.5 -160.5t-57.5 -171.5h-70q17 87 59 157t106 119h-201v56zM439 12q-37 24 -37 66q0 51 57 79q-35 23 -35 67q0 42 30 66t82 24t85 -23t33 -62q0 -38 -38 -63q57 -29 57 -87q0 -44 -34.5 -67.5t-97.5 -23.5
q-65 0 -102 24zM500.5 199.5q25.5 -13.5 82.5 -20.5q21 15 21 43q0 25 -17.5 38.5t-51.5 13.5q-29 0 -44.5 -9.5t-15.5 -28.5q0 -23 25.5 -36.5zM478 41.5q19 -13.5 61 -13.5q41 0 62.5 11.5t21.5 33.5q0 23 -28.5 38t-94.5 27q-41 -12 -41 -54q0 -29 19 -42.5z" />
    <glyph glyph-name="uni2080.zero" horiz-adv-x="498" 
d="M99 -22q-54 58 -54 161q0 100 54 156.5t150 56.5t150 -56.5t54 -156.5q0 -103 -54 -161t-150 -58t-150 58zM333 284q-35 26 -84 26q-67 0 -104.5 -45.5t-37.5 -125.5q0 -73 29 -117zM249 -38q67 0 104.5 47t37.5 130q0 71 -29 114l-199 -263q36 -28 86 -28z" />
    <glyph glyph-name="zero.dnom.zero" horiz-adv-x="498" 
d="M99 46q-54 58 -54 161q0 100 54 156.5t150 56.5t150 -56.5t54 -156.5q0 -103 -54 -161t-150 -58t-150 58zM333 352q-35 26 -84 26q-67 0 -104.5 -45.5t-37.5 -125.5q0 -73 29 -117zM249 30q67 0 104.5 47t37.5 130q0 71 -29 114l-199 -263q36 -28 86 -28z" />
    <glyph glyph-name="zero.numr.zero" horiz-adv-x="498" 
d="M99 365q-54 58 -54 161q0 100 54 156.5t150 56.5t150 -56.5t54 -156.5q0 -103 -54 -161t-150 -58t-150 58zM333 671q-35 26 -84 26q-67 0 -104.5 -45.5t-37.5 -125.5q0 -73 29 -117zM249 349q67 0 104.5 47t37.5 130q0 71 -29 114l-199 -263q36 -28 86 -28z" />
    <glyph glyph-name="uni2070.zero" horiz-adv-x="498" 
d="M99 421q-54 58 -54 161q0 100 54 156.5t150 56.5t150 -56.5t54 -156.5q0 -103 -54 -161t-150 -58t-150 58zM333 727q-35 26 -84 26q-67 0 -104.5 -45.5t-37.5 -125.5q0 -73 29 -117zM249 405q67 0 104.5 47t37.5 130q0 71 -29 114l-199 -263q36 -28 86 -28z" />
    <glyph glyph-name="period" unicode="." horiz-adv-x="226" 
d="M82 7q-12 12 -12 31t12 31.5t31 12.5t31 -12.5t12 -31.5t-12 -31t-31 -12t-31 12z" />
    <glyph glyph-name="comma" unicode="," horiz-adv-x="230" 
d="M65 -124q26 22 40 55t11 64h-10q-19 0 -32.5 12.5t-13.5 30.5t13 31t32 13q24 0 39.5 -21t15.5 -53q0 -39 -23.5 -78t-62.5 -65z" />
    <glyph glyph-name="colon" unicode=":" horiz-adv-x="226" 
d="M82 435q-12 12 -12 31t12 31.5t31 12.5t31 -12.5t12 -31.5t-12 -31t-31 -12t-31 12zM82 7q-12 12 -12 31t12 31.5t31 12.5t31 -12.5t12 -31.5t-12 -31t-31 -12t-31 12z" />
    <glyph glyph-name="semicolon" unicode=";" horiz-adv-x="240" 
d="M75 -124q26 22 40 55t11 64h-10q-19 0 -32.5 12.5t-13.5 30.5t13 31t32 13q24 0 39.5 -21t15.5 -53q0 -39 -23.5 -78t-62.5 -65zM82 435q-12 12 -12 31t12 31.5t31 12.5t31 -12.5t12 -31.5t-12 -31t-31 -12t-31 12z" />
    <glyph glyph-name="ellipsis" unicode="&#x2026;" horiz-adv-x="686" 
d="M82 7q-12 12 -12 31t12 31.5t31 12.5t31 -12.5t12 -31.5t-12 -31t-31 -12t-31 12zM322 7q-12 12 -12 31t12 31.5t31 12.5t31 -12.5t12 -31.5t-12 -31t-31 -12t-31 12zM562 7q-12 12 -12 31t12 31.5t31 12.5t31 -12.5t12 -31.5t-12 -31t-31 -12t-31 12z" />
    <glyph glyph-name="exclam" unicode="!" horiz-adv-x="206" 
d="M82 725h62l-26 -583h-10zM82 7q-12 12 -12 31t12 31.5t31 12.5t31 -12.5t12 -31.5t-12 -31t-31 -12t-31 12z" />
    <glyph glyph-name="exclamdown" unicode="&#xa1;" horiz-adv-x="206" 
d="M124 535q12 -12 12 -31t-12 -31.5t-31 -12.5t-31 12.5t-12 31.5t12 31t31 12t31 -12zM124 -183h-62l26 583h10z" />
    <glyph glyph-name="question" unicode="?" horiz-adv-x="362" 
d="M140 418q69 1 108 38t39 100q0 59 -33 90.5t-91 31.5q-29 0 -62 -11q-21 -7 -33 -7q-17 0 -27.5 9.5t-10.5 24.5q0 22 22 33.5t62 11.5q58 0 105.5 -24t75 -65.5t27.5 -92.5q0 -65 -40.5 -113.5t-101.5 -58.5v-212h-40v245zM129 7q-12 12 -12 31t12 31.5t31 12.5
t31 -12.5t12 -31.5t-12 -31t-31 -12t-31 12z" />
    <glyph glyph-name="questiondown" unicode="&#xbf;" horiz-adv-x="362" 
d="M233 535q12 -12 12 -31t-12 -31.5t-31 -12.5t-31 12.5t-12 31.5t12 31t31 12t31 -12zM222 108q-70 -1 -108.5 -39.5t-38.5 -104.5q0 -61 33 -94t91 -33q29 0 62 11q21 7 33 7q17 0 27.5 -9.5t10.5 -24.5q0 -22 -22 -33.5t-62 -11.5q-58 0 -105.5 24.5t-75 67.5t-27.5 96
q0 67 40.5 117t101.5 60v223h40v-256z" />
    <glyph glyph-name="periodcentered" unicode="&#xb7;" horiz-adv-x="246" 
d="M92 307q-12 12 -12 31t12 31.5t31 12.5t31 -12.5t12 -31.5t-12 -31t-31 -12t-31 12z" />
    <glyph glyph-name="bullet" unicode="&#x2022;" horiz-adv-x="351" 
d="M248 389.5q28 -28.5 28 -72.5t-28 -72.5t-71 -28.5q-44 0 -73 28.5t-29 72.5t29 72.5t73 28.5q43 0 71 -28.5z" />
    <glyph glyph-name="asterisk" unicode="*" horiz-adv-x="420" 
d="M174 760h72l-36 -178zM30 603l22 69l158 -90zM368 672l22 -69l-180 -21zM134 417l-58 42l134 123zM344 459l-58 -42l-76 165z" />
    <glyph glyph-name="numbersign" unicode="#" horiz-adv-x="623" 
d="M142 242l48 241h-110v42h118l39 200h43l-39 -200h205l39 200h43l-39 -200h104v-42h-112l-48 -241h110v-42h-118l-39 -200h-43l39 200h-205l-39 -200h-43l39 200h-104v42h112zM390 242l48 241h-205l-48 -241h205z" />
    <glyph glyph-name="slash" unicode="/" horiz-adv-x="271" 
d="M51 -260h-41l210 1070h41z" />
    <glyph glyph-name="backslash" unicode="\" horiz-adv-x="271" 
d="M51 810l210 -1070h-41l-210 1070h41z" />
    <glyph glyph-name="exclamdown.case" horiz-adv-x="206" 
d="M124 717q12 -12 12 -31t-12 -31.5t-31 -12.5t-31 12.5t-12 31.5t12 31t31 12t31 -12zM124 -1h-62l26 583h10z" />
    <glyph glyph-name="questiondown.case" horiz-adv-x="362" 
d="M233 727q12 -12 12 -31t-12 -31.5t-31 -12.5t-31 12.5t-12 31.5t12 31t31 12t31 -12zM222 316q-69 -1 -108 -38t-39 -100q0 -59 33 -90.5t91 -31.5q29 0 62 11q21 7 33 7q17 0 27.5 -9.5t10.5 -24.5q0 -22 -22 -33.5t-62 -11.5q-58 0 -105.5 24t-75 65.5t-27.5 92.5
q0 65 40.5 113.5t101.5 58.5v212h40v-245z" />
    <glyph glyph-name="bullet.case" horiz-adv-x="351" 
d="M248 434.5q28 -28.5 28 -72.5t-28 -72.5t-71 -28.5q-44 0 -73 28.5t-29 72.5t29 72.5t73 28.5q43 0 71 -28.5z" />
    <glyph glyph-name="slash.case" horiz-adv-x="237" 
d="M51 -85h-41l176 895h41z" />
    <glyph glyph-name="backslash.case" horiz-adv-x="237" 
d="M51 810l176 -895h-41l-176 895h41z" />
    <glyph glyph-name="numbersign.osf" horiz-adv-x="623" 
d="M154 182l44 166h-118v42h129l38 140h43l-38 -140h185l38 140h43l-38 -140h113v-42h-124l-44 -166h118v-42h-129l-38 -140h-43l38 140h-185l-38 -140h-43l38 140h-113v42h124zM382 182l44 166h-185l-44 -166h185z" />
    <glyph glyph-name="exclam.ss05" horiz-adv-x="199" 
d="M98 724l61 -3l-51 -581h-10v584zM129 69.5q12 -12.5 12 -31.5t-12 -31t-31 -12t-31 12t-12 31t12 31.5t31 12.5t31 -12.5z" />
    <glyph glyph-name="exclamdown.ss05" horiz-adv-x="214" 
d="M85 472.5q-12 12.5 -12 31.5t12 31t31 12t31 -12t12 -31t-12 -31.5t-31 -12.5t-31 12.5zM116 -182l-61 3l51 581h10v-584z" />
    <glyph glyph-name="exclamdown.case.ss05" horiz-adv-x="214" 
d="M70 655.5q-12 12.5 -12 31.5t12 31t31 12t31 -12t12 -31t-12 -31.5t-31 -12.5t-31 12.5zM101 1l-61 3l51 581h10v-584z" />
    <glyph glyph-name="ellipsis.ss06" horiz-adv-x="693" 
d="M544 8q-13 13 -13 34t13 34t34 13q20 0 32.5 -13t12.5 -34t-12.5 -34t-32.5 -13q-21 0 -34 13zM305 6q-11 11 -11 30t11 30.5t30 11.5t30 -11.5t11 -30.5t-11 -30t-30 -11t-30 11zM79.5 5.5q-9.5 9.5 -9.5 25.5t9.5 26t25.5 10t25.5 -10t9.5 -26t-9.5 -25.5t-25.5 -9.5
t-25.5 9.5z" />
    <glyph glyph-name="ellipsis.ss07" horiz-adv-x="693" 
d="M82.5 8q-12.5 13 -12.5 34t12.5 34t32.5 13q21 0 34 -13t13 -34t-13 -34t-34 -13q-20 0 -32.5 13zM328 6q-11 11 -11 30t11 30.5t30 11.5t30 -11.5t11 -30.5t-11 -30t-30 -11t-30 11zM562.5 5.5q-9.5 9.5 -9.5 25.5t9.5 26t25.5 10t25.5 -10t9.5 -26t-9.5 -25.5
t-25.5 -9.5t-25.5 9.5z" />
    <glyph glyph-name="numbersign.tf" 
d="M200 242l48 241h-110v42h118l39 200h43l-39 -200h205l39 200h43l-39 -200h104v-42h-112l-48 -241h110v-42h-118l-39 -200h-43l39 200h-205l-39 -200h-43l39 200h-104v42h112zM448 242l48 241h-205l-48 -241h205z" />
    <glyph glyph-name="numbersign.tosf" 
d="M212 182l44 166h-118v42h129l38 140h43l-38 -140h185l38 140h43l-38 -140h113v-42h-124l-44 -166h118v-42h-129l-38 -140h-43l38 140h-185l-38 -140h-43l38 140h-113v42h124zM440 182l44 166h-185l-44 -166h185z" />
    <glyph glyph-name="parenleft" unicode="(" horiz-adv-x="298" 
d="M283 825l10 -10q-91 -103 -133.5 -233t-42.5 -307q0 -174 42 -300.5t134 -229.5l-10 -10q-115 100 -171.5 233.5t-56.5 306.5q0 353 228 550z" />
    <glyph glyph-name="parenright" unicode=")" horiz-adv-x="298" 
d="M186.5 -31.5q-56.5 -133.5 -171.5 -233.5l-10 10q92 103 134 229.5t42 300.5q0 177 -42.5 307t-133.5 233l10 10q228 -197 228 -550q0 -173 -56.5 -306.5z" />
    <glyph glyph-name="braceleft" unicode="{" horiz-adv-x="273" 
d="M92 218.5q-20 32.5 -62 55.5q42 23 62 55.5t20 80.5q0 24 -5 56.5t-6 40.5q-13 69 -13 111q0 73 34 124.5t96 77.5l10 -10q-37 -20 -58.5 -65t-21.5 -102q0 -33 12 -107q12 -70 12 -103q0 -57 -26 -94.5t-84 -64.5q57 -27 83.5 -63.5t26.5 -89.5q0 -32 -8 -68t-9 -43
q-17 -70 -17 -109q0 -53 24.5 -97.5t65.5 -66.5l-10 -10q-62 26 -96 77.5t-34 124.5q0 42 13 111q1 8 6 40.5t5 57.5q0 48 -20 80.5z" />
    <glyph glyph-name="braceright" unicode="}" horiz-adv-x="273" 
d="M166 80.5q5 -32.5 6 -40.5q13 -69 13 -111q0 -73 -34 -124.5t-96 -77.5l-10 10q41 22 65.5 66.5t24.5 97.5q0 39 -17 109q-1 7 -9 43t-8 68q0 53 26.5 89.5t83.5 63.5q-58 27 -84 64.5t-26 94.5q0 33 12 103q12 74 12 107q0 57 -21.5 102t-58.5 65l10 10q62 -26 96 -77.5
t34 -124.5q0 -42 -13 -111q-1 -8 -6 -40.5t-5 -56.5q0 -48 20 -80.5t62 -55.5q-42 -23 -62 -55.5t-20 -80.5q0 -25 5 -57.5z" />
    <glyph glyph-name="bracketleft" unicode="[" horiz-adv-x="258" 
d="M238 -270h-178v1080h178v-35h-122v-1009h122v-36z" />
    <glyph glyph-name="bracketright" unicode="]" horiz-adv-x="258" 
d="M142 -234v1009h-122v35h178v-1080h-178v36h122z" />
    <glyph glyph-name="parenleft.case" horiz-adv-x="298" 
d="M110 631q55 112 173 194l10 -10q-92 -80 -134.5 -188.5t-42.5 -262.5q0 -158 42 -266t135 -189l-10 -10q-117 78 -172.5 191t-55.5 274q0 155 55 267z" />
    <glyph glyph-name="parenright.case" horiz-adv-x="298" 
d="M187.5 90q-55.5 -113 -172.5 -191l-10 10q93 81 135 189t42 266q0 154 -42.5 262.5t-134.5 188.5l10 10q118 -82 173 -194t55 -267q0 -161 -55.5 -274z" />
    <glyph glyph-name="braceleft.case" horiz-adv-x="273" 
d="M92.5 310.5q-18.5 27.5 -62.5 51.5q44 24 62.5 51.5t18.5 66.5q0 22 -5 47t-6 32q-12 52 -12 81q0 61 35 110.5t95 74.5l10 -10q-39 -21 -60 -60t-21 -87q0 -36 13 -88q1 -6 6 -30.5t5 -45.5q0 -46 -26.5 -81t-82.5 -61q56 -26 82.5 -61t26.5 -81q0 -21 -5 -45.5
t-6 -30.5q-13 -54 -13 -89q0 -48 21 -86.5t60 -59.5l-10 -10q-60 26 -95 75t-35 109q0 28 12 82q1 5 6 30.5t5 48.5q0 39 -18.5 66.5z" />
    <glyph glyph-name="braceright.case" horiz-adv-x="273" 
d="M167 195.5q5 -25.5 6 -30.5q12 -54 12 -82q0 -60 -35 -109t-95 -75l-10 10q39 21 60 59.5t21 86.5q0 36 -13 88q-1 8 -6 32.5t-5 44.5q0 46 26.5 81t82.5 61q-56 26 -82.5 61t-26.5 81q0 21 5 45.5t6 30.5q13 52 13 88q0 48 -21 87t-60 60l10 10q60 -25 95 -74.5
t35 -110.5q0 -29 -12 -81q-1 -7 -6 -32t-5 -47q0 -39 18.5 -66.5t62.5 -51.5q-44 -24 -62.5 -51.5t-18.5 -66.5q0 -23 5 -48.5z" />
    <glyph glyph-name="bracketleft.case" horiz-adv-x="262" 
d="M242 -85h-182v895h182v-35h-126v-825h126v-35z" />
    <glyph glyph-name="bracketright.case" horiz-adv-x="262" 
d="M20 810h182v-895h-182v35h126v825h-126v35z" />
    <glyph glyph-name="hyphen" unicode="-" horiz-adv-x="414" 
d="M344 343v-42h-274v42h274z" />
    <glyph glyph-name="uni00AD" unicode="&#xad;" horiz-adv-x="414" 
d="M344 343v-42h-274v42h274z" />
    <glyph glyph-name="endash" unicode="&#x2013;" horiz-adv-x="560" 
d="M510 343v-42h-460v42h460z" />
    <glyph glyph-name="emdash" unicode="&#x2014;" horiz-adv-x="1020" 
d="M970 343v-42h-920v42h920z" />
    <glyph glyph-name="underscore" unicode="_" horiz-adv-x="509" 
d="M469 -57v-42h-429v42h429z" />
    <glyph glyph-name="hyphen.case" horiz-adv-x="414" 
d="M344 393v-42h-274v42h274z" />
    <glyph glyph-name="uni00AD.case" horiz-adv-x="414" 
d="M344 393v-42h-274v42h274z" />
    <glyph glyph-name="endash.case" horiz-adv-x="560" 
d="M510 393v-42h-460v42h460z" />
    <glyph glyph-name="emdash.case" horiz-adv-x="1020" 
d="M970 393v-42h-920v42h920z" />
    <glyph glyph-name="quotesinglbase" unicode="&#x201a;" horiz-adv-x="230" 
d="M65 -124q26 22 40 55t11 64h-10q-19 0 -32.5 12.5t-13.5 30.5t13 31t32 13q24 0 39.5 -21t15.5 -53q0 -39 -23.5 -78t-62.5 -65z" />
    <glyph glyph-name="quotedblbase" unicode="&#x201e;" horiz-adv-x="360" 
d="M195 -124q26 22 40 55t11 64h-10q-19 0 -32.5 12.5t-13.5 30.5t13 31t32 13q24 0 39.5 -21t15.5 -53q0 -39 -23.5 -78t-62.5 -65zM65 -124q26 22 40 55t11 64h-10q-19 0 -32.5 12.5t-13.5 30.5t13 31t32 13q24 0 39.5 -21t15.5 -53q0 -39 -23.5 -78t-62.5 -65z" />
    <glyph glyph-name="quotedblleft" unicode="&#x201c;" horiz-adv-x="360" 
d="M155 749q-26 -22 -40 -55t-11 -64h10q19 0 32.5 -12.5t13.5 -30.5t-13 -31t-32 -13q-24 0 -39.5 21t-15.5 53q0 39 23.5 78t62.5 65zM285 749q-26 -22 -40 -55t-11 -64h10q19 0 32.5 -12.5t13.5 -30.5t-13 -31t-32 -13q-24 0 -39.5 21t-15.5 53q0 39 23.5 78t62.5 65z
" />
    <glyph glyph-name="quotedblright" unicode="&#x201d;" horiz-adv-x="360" 
d="M195 554q26 22 40 55t11 64h-10q-19 0 -32.5 12.5t-13.5 30.5t13 31t32 13q24 0 39.5 -21t15.5 -53q0 -39 -23.5 -78t-62.5 -65zM65 554q26 22 40 55t11 64h-10q-19 0 -32.5 12.5t-13.5 30.5t13 31t32 13q24 0 39.5 -21t15.5 -53q0 -39 -23.5 -78t-62.5 -65z" />
    <glyph glyph-name="quoteleft" unicode="&#x2018;" horiz-adv-x="230" 
d="M155 749q-26 -22 -40 -55t-11 -64h10q19 0 32.5 -12.5t13.5 -30.5t-13 -31t-32 -13q-24 0 -39.5 21t-15.5 53q0 39 23.5 78t62.5 65z" />
    <glyph glyph-name="quoteright" unicode="&#x2019;" horiz-adv-x="230" 
d="M65 554q26 22 40 55t11 64h-10q-19 0 -32.5 12.5t-13.5 30.5t13 31t32 13q24 0 39.5 -21t15.5 -53q0 -39 -23.5 -78t-62.5 -65z" />
    <glyph glyph-name="guillemotleft" unicode="&#xab;" horiz-adv-x="472" 
d="M40 283l155 245l27 -16l-116 -229l116 -230l-27 -16zM230 283l155 245l27 -16l-116 -229l116 -230l-27 -16z" />
    <glyph glyph-name="guillemotright" unicode="&#xbb;" horiz-adv-x="472" 
d="M242 282l-155 -245l-27 16l116 229l-116 230l27 16zM432 282l-155 -245l-27 16l116 229l-116 230l27 16z" />
    <glyph glyph-name="guilsinglleft" unicode="&#x2039;" horiz-adv-x="282" 
d="M40 283l155 245l27 -16l-116 -229l116 -230l-27 -16z" />
    <glyph glyph-name="guilsinglright" unicode="&#x203a;" horiz-adv-x="282" 
d="M60 53l116 230l-116 229l27 16l155 -245l-155 -246z" />
    <glyph glyph-name="quotedbl" unicode="&#x22;" horiz-adv-x="282" 
d="M50 760h72l-36 -198zM160 760h72l-36 -198z" />
    <glyph glyph-name="quotesingle" unicode="'" horiz-adv-x="172" 
d="M50 760h72l-36 -198z" />
    <glyph glyph-name="guillemotleft.case" horiz-adv-x="472" 
d="M40 343l155 245l27 -16l-116 -229l116 -230l-27 -16zM230 343l155 245l27 -16l-116 -229l116 -230l-27 -16z" />
    <glyph glyph-name="guillemotright.case" horiz-adv-x="472" 
d="M242 342l-155 -245l-27 16l116 229l-116 230l27 16zM432 342l-155 -245l-27 16l116 229l-116 230l27 16z" />
    <glyph glyph-name="guilsinglleft.case" horiz-adv-x="282" 
d="M40 343l155 245l27 -16l-116 -229l116 -230l-27 -16z" />
    <glyph glyph-name="guilsinglright.case" horiz-adv-x="282" 
d="M60 113l116 230l-116 229l27 16l155 -245l-155 -246z" />
    <glyph glyph-name="quotedbl.osf" horiz-adv-x="242" 
d="M30 580h72l-36 -198zM140 580h72l-36 -198z" />
    <glyph glyph-name="quotesingle.osf" horiz-adv-x="132" 
d="M30 580h72l-36 -198z" />
    <glyph glyph-name="quotedbl.tf" 
d="M115 760h72l-36 -198zM225 760h72l-36 -198z" />
    <glyph glyph-name="quotesingle.tf" 
d="M115 760h72l-36 -198z" />
    <glyph glyph-name="quotedbl.tosf" 
d="M75 580h72l-36 -198zM185 580h72l-36 -198z" />
    <glyph glyph-name="quotesingle.tosf" 
d="M75 580h72l-36 -198z" />
    <glyph glyph-name="uni2003" unicode="&#x2003;" horiz-adv-x="725" 
 />
    <glyph glyph-name="uni2002" unicode="&#x2002;" horiz-adv-x="362" 
 />
    <glyph glyph-name="uni200A" unicode="&#x200a;" horiz-adv-x="120" 
 />
    <glyph glyph-name="uni00A0" unicode="&#xa0;" horiz-adv-x="200" 
 />
    <glyph glyph-name="uni2009" unicode="&#x2009;" horiz-adv-x="145" 
 />
    <glyph glyph-name="uni0E3F" unicode="&#xe3f;" horiz-adv-x="603" 
d="M495.5 63.5q-57.5 -51.5 -165.5 -61.5v-142h-40v140h-8h-211l39 82v578l-58 65h210q19 0 28 -1v135h40v-138q87 -12 134 -55t47 -113q0 -58 -33 -98.5t-98 -60.5q85 -19 129 -67.5t44 -124.5q0 -87 -57.5 -138.5zM168 411h65q30 0 57 3v270q-10 1 -31 1h-91v-274z
M330 680v-260q61 13 90.5 45.5t29.5 86.5q0 107 -120 128zM290 40v329q-15 1 -47 1h-75v-330h111h11zM490 206q0 70 -38.5 108.5t-121.5 50.5v-322q160 18 160 163z" />
    <glyph glyph-name="uni20BF" unicode="&#x20bf;" horiz-adv-x="593" 
d="M110 82v578l-58 65h171v134h40v-134q47 0 82 -7v141h40v-150q61 -19 93.5 -59t32.5 -97q0 -58 -33 -98.5t-98 -60.5q85 -19 129 -67.5t44 -124.5q0 -75 -43 -124t-125 -68v-150h-40v144q-27 -4 -63 -4h-19v-140h-40v140h-152zM168 685v-274h65q110 0 163.5 34.5
t53.5 106.5q0 68 -47 100.5t-144 32.5h-91zM168 370v-330h111q211 0 211 166q0 86 -59 125t-188 39h-75z" />
    <glyph glyph-name="cent" unicode="&#xa2;" horiz-adv-x="540" 
d="M520 119q-35 -59 -83.5 -91t-112.5 -39v-129h-40v128q-74 2 -129 34t-85 90.5t-30 137.5q0 82 31.5 148.5t87 106.5t125.5 43v131h40v-133q46 -5 84 -26t60 -53t22 -68q0 -44 -33 -44q-16 0 -23.5 10.5t-10.5 36.5q-7 54 -37 80t-84 26q-61 0 -107 -31t-70.5 -87
t-24.5 -130q0 -110 54.5 -171t150.5 -61q114 0 207 97z" />
    <glyph glyph-name="currency" unicode="&#xa4;" horiz-adv-x="561" 
d="M206.5 109q-35.5 13 -63.5 37l-70 -70l-28 28l70 70q-50 61 -50 137q0 77 50 138l-70 70l28 28l70 -70q28 24 63.5 37t73.5 13q78 0 138 -50l70 70l28 -28l-70 -70q50 -61 50 -138q0 -76 -50 -137l70 -70l-28 -28l-69 70q-61 -50 -139 -50q-38 0 -73.5 13zM368.5 159.5
q40.5 23.5 64 63.5t23.5 88t-23.5 88.5t-64 64t-88.5 23.5t-88 -23.5t-63.5 -64t-23.5 -88.5t23.5 -88t63.5 -63.5t88 -23.5t88.5 23.5z" />
    <glyph glyph-name="dollar" unicode="$" horiz-adv-x="618" 
d="M77 147l80 -46q32 -18 73 -35v314q-88 42 -129 90t-41 110q0 70 47.5 114.5t122.5 44.5v120h40v-123q39 -6 82 -25v148h40v-169q18 -11 35 -25l89 60v-162l-67 47q-28 22 -57 37v-270q95 -44 135.5 -90t40.5 -109q0 -75 -49 -127.5t-127 -60.5v-130h-40v128q-40 1 -82 15
v-143h-40v157q-36 16 -70 39l-83 -66v157zM230 699q-55 0 -84.5 -29t-29.5 -81q0 -44 25.5 -75t88.5 -64v249zM352 395v272q-42 20 -82 28v-264zM352 31v294l-82 37v-311q45 -16 82 -20zM480.5 68.5q32.5 35.5 32.5 93.5q0 46 -26 77.5t-95 66.5v-277q56 4 88.5 39.5z" />
    <glyph glyph-name="dong" unicode="&#x20ab;" horiz-adv-x="625" 
d="M467 112q-28 -59 -78 -91.5t-113 -32.5q-65 0 -114 34.5t-75.5 98t-26.5 148.5t26 148t75 97t114 34q60 0 108.5 -29.5t77.5 -83.5v170h-180v36h180v26l-77 83h133v-109h83v-36h-83v-540l58 -65h-108v112zM461 378q-19 56 -64.5 88.5t-103.5 32.5q-81 0 -128 -62
t-47 -168t47.5 -168.5t127.5 -62.5q40 0 79 14.5t64 41.5t25 64v220zM599 -87v-42h-539v42h539z" />
    <glyph glyph-name="Euro" unicode="&#x20ac;" horiz-adv-x="638" 
d="M91 301q0 55 3 82h-74v40h80q16 88 57.5 156.5t102.5 107t132 38.5q53 0 100 -21t75 -56t28 -74q0 -22 -9.5 -34t-26.5 -12q-16 0 -24 11t-11 35q-7 54 -39 82t-88 28q-92 0 -156 -71.5t-83 -189.5h345l-21 -40h-328q-2 -32 -2 -49l1 -33h287l-21 -40h-262
q17 -114 80 -180.5t154 -66.5q107 0 199 97l8 -6q-74 -131 -223 -131q-116 0 -191 77t-90 210h-74v40h71z" />
    <glyph glyph-name="florin" unicode="&#x192;" horiz-adv-x="303" 
d="M26.5 -160.5q9.5 8.5 26.5 8.5q11 0 33 -8q2 -1 14 -5t27 -4q33 0 53.5 22t20.5 57q0 43 -30.5 70.5t-83.5 34.5l33 75v400h-90v40h84q-14 15 -21.5 38t-7.5 49q0 62 40 102.5t101 40.5q28 0 43.5 -9.5t15.5 -26.5q0 -14 -10 -21.5t-27 -7.5q-10 0 -26 4q-18 4 -30 4
q-33 0 -52.5 -22.5t-19.5 -60.5q0 -42 24 -66t66 -24h47v-40h-81v-468q28 -21 44 -52.5t16 -65.5q0 -56 -42 -91.5t-108 -35.5q-69 0 -69 39q0 15 9.5 23.5z" />
    <glyph glyph-name="franc" unicode="&#x20a3;" horiz-adv-x="554" 
d="M514 725v-131l-78 89h-268v-283h205l59 53v-149l-64 54h-200v-147h179v-36h-179v-110l58 -65h-155l39 82v93h-82v36h82v449l-58 65h462z" />
    <glyph glyph-name="uni20B4" unicode="&#x20b4;" horiz-adv-x="686" 
d="M407 363l-62 -28h286v-40h-372q-67 -34 -93 -65.5t-26 -77.5q0 -54 42.5 -88.5t110.5 -34.5q90 0 205 69l78 49v-157l-83 66q-46 -32 -100 -50t-104 -18q-59 0 -105.5 21.5t-72.5 60.5t-26 90q0 41 14 74t45 61h-89v40h145q37 22 79 40l79 35h-303v40h384q54 31 76 64
t22 75q0 50 -34 80t-89 30q-43 0 -97.5 -22t-112.5 -63l-67 -51v162l85 -57q101 71 199 71q76 0 124 -44t48 -113q0 -75 -54 -132h92v-40h-139q-33 -23 -85 -47z" />
    <glyph glyph-name="uni20AD" unicode="&#x20ad;" horiz-adv-x="620" 
d="M445 0l20 80l-200 273h-36l-51 -52v-236l58 -65h-155l39 82v271h-82v36h82v271l-58 65h155l-39 -82v-254h37l262 265l-52 71h171l-308 -312l18 -24h251v-36h-224l267 -353h-155zM179 353h-1v-1z" />
    <glyph glyph-name="uni20BA" unicode="&#x20ba;" horiz-adv-x="572" 
d="M108 82v191l-70 -26v37l70 26v53l-70 -26v37l70 26v260l-58 65h155l-39 -82v-222l190 69v-37l-190 -69v-53l190 69v-37l-190 -69v-252h105q218 0 218 277h58q0 -155 -71 -237t-205 -82h-202z" />
    <glyph glyph-name="uni20B1" unicode="&#x20b1;" horiz-adv-x="661" 
d="M621 528h-67v-15q0 -20 -3 -40h70v-40h-81q-58 -146 -357 -149v-219l58 -65h-155l39 82v351h-80v40h80v55h-80v40h80v92l-58 65h235q101 0 165 -41t81 -116h73v-40zM183 568h303q-16 57 -64 87t-123 30h-116v-117zM493 528h-310v-55h308q3 17 3 35q0 14 -1 20zM383 348
q72 28 97 85h-297v-115q128 2 200 30z" />
    <glyph glyph-name="uni20BD" unicode="&#x20bd;" horiz-adv-x="594" 
d="M462.5 377q-91.5 -51 -279.5 -53v-55h288v-40h-288v-164l58 -65h-155l39 82v147h-80v40h80v55h-80v40h80v296l-58 65h235q119 0 185.5 -50t66.5 -142q0 -105 -91.5 -156zM183 364q117 2 184 18t97 52t30 99q0 74 -49 113t-146 39h-116v-321z" />
    <glyph glyph-name="uni20A8" unicode="&#x20a8;" horiz-adv-x="1103" 
d="M110 82v578l-58 65h225q122 0 185 -43.5t63 -128.5q0 -82 -59 -135t-172 -72q128 -29 190 -217q17 -51 33 -69.5t46 -18.5q-4 -47 -51 -47q-33 0 -52 26t-34 88q-30 122 -90 175t-168 53v-271l58 -65h-155zM168 685v-312h45q117 0 186 47t69 127q0 67 -50 102.5
t-144 35.5h-106zM634 122l68 -37q57 -31 100.5 -44.5t85.5 -13.5q111 0 111 85q0 31 -16 53t-53 41t-104 40q-100 31 -146.5 73.5t-46.5 102.5q0 58 37.5 92t101.5 34q79 0 155 -55l76 41v-139l-66 50q-81 64 -159 64q-47 0 -71.5 -20.5t-24.5 -60.5q0 -30 15 -51.5
t50 -38.5t97 -35q107 -31 155.5 -73.5t48.5 -107.5q0 -64 -42 -99t-119 -35q-45 0 -86 13t-85 40l-82 -51v132z" />
    <glyph glyph-name="uni20B9" unicode="&#x20b9;" horiz-adv-x="546" 
d="M60 355h55q98 0 161 43.5t71 116.5h-302l25 40h277q-8 63 -63 96.5t-155 33.5h-84l25 40h456l-25 -40h-190q86 -40 93 -130h122l-25 -40h-97q-8 -82 -77 -131.5t-190 -61.5l368 -322h-85l-360 318v37z" />
    <glyph glyph-name="uni20AA" unicode="&#x20aa;" horiz-adv-x="836" 
d="M71 0l39 82v578l-58 65h245q92 0 144.5 -19.5t75.5 -63t23 -119.5v-365h-58v365q0 61 -18 96t-58.5 50.5t-111.5 15.5h-126v-684zM765 725l-39 -82v-578l58 -65h-245q-92 0 -144.5 19.5t-75.5 63t-23 119.5v365h58v-365q0 -61 18 -96t58.5 -50.5t111.5 -15.5h126v685h97z
" />
    <glyph glyph-name="sterling" unicode="&#xa3;" horiz-adv-x="542" 
d="M42.5 6q-22.5 18 -22.5 46q0 29 25 46.5t66 17.5q22 0 68 -11q4 23 4 53q0 85 -45 208h-108v40h94q-28 90 -28 145q0 87 50 137.5t136 50.5q57 0 102.5 -22.5t71.5 -63t26 -90.5q0 -53 -31 -53q-30 0 -30 54q0 64 -36 99.5t-100 35.5t-98 -37.5t-34 -108.5
q0 -30 6.5 -63.5t21.5 -83.5h148v-40h-135q36 -109 36 -186q0 -45 -12 -86q136 -50 186 -50q27 0 46 14.5t33 47.5l19 -9q-13 -53 -44 -81t-77 -28q-72 0 -184 59q-17 -29 -42 -44t-55 -15q-35 0 -57.5 18zM70 34.5q10 -6.5 29 -6.5q42 0 63 33q-38 15 -63 15
q-18 0 -28.5 -6.5t-10.5 -17.5t10 -17.5z" />
    <glyph glyph-name="uni20B8" unicode="&#x20b8;" horiz-adv-x="604" 
d="M559 725v-42h-514v42h514zM274 82v501h-147l-82 -94v136h514v-136l-82 94h-145v-518l58 -65h-155z" />
    <glyph glyph-name="uni20A9" unicode="&#x20a9;" horiz-adv-x="916" 
d="M176 333l-26 85h-80v40h68l-57 184l-71 83h168l-35 -75l59 -192h236l8 28l-50 156l-71 83h163l-35 -75l61 -192h247l57 187l-71 80h149l-30 -66l-62 -201h62v-40h-74l-26 -85h100v-40h-112l-90 -293h-64l-93 293h-76l-88 -293h-64l-90 293h-119v40h106zM401 333l25 85
h-212l27 -85h160zM443 333h52l-27 85zM723 333l26 85h-222l26 -85h170zM389 293h-136l69 -224zM711 293h-145l74 -233z" />
    <glyph glyph-name="yen" unicode="&#xa5;" horiz-adv-x="574" 
d="M349 387h142v-40h-167v-65h167v-40h-167v-177l58 -65h-155l39 82v160h-167v40h167v65h-167v40h144l-167 249l-76 89h179l-39 -80l167 -251l169 265l-60 66h148z" />
    <glyph glyph-name="uni0E3F.osf" horiz-adv-x="600" 
d="M488 39.5q-48 -34.5 -156 -38.5v-141h-40v140h-223l39 82v383l-58 65h231h11v134h40v-136q91 -6 136.5 -37.5t45.5 -91.5q0 -90 -135 -119q157 -28 157 -134q0 -72 -48 -106.5zM166 296h75q108 0 160 24.5t52 76.5q0 47 -42 70t-129 23h-116v-194zM428.5 67.5
q44.5 27.5 44.5 81.5q0 56 -52 81t-170 25h-85v-215h131q87 0 131.5 27.5z" />
    <glyph glyph-name="uni20BF.osf" horiz-adv-x="561" 
d="M108 82v383l-58 65h176v134h40v-134h19q35 0 63 -3v137h40v-144q61 -14 93.5 -45t32.5 -76q0 -90 -135 -119q157 -28 157 -134q0 -54 -38.5 -89.5t-109.5 -49.5v-147h-40v142q-26 -2 -48 -2h-34v-140h-40v140h-157zM166 490v-194h75q108 0 160 24.5t52 76.5q0 47 -42 70
t-129 23h-116zM166 255v-215h131q87 0 131.5 27.5t44.5 81.5q0 56 -52 81t-170 25h-85z" />
    <glyph glyph-name="cent.osf" horiz-adv-x="563" 
d="M530 119q-75 -131 -228 -131q-92 0 -153 46l-61 -86l-31 23l63 89q-65 68 -65 187q0 86 34 154.5t93.5 107.5t132.5 39q71 0 124 -36l53 75l32 -24l-54 -76q47 -49 47 -114q0 -26 -8.5 -38.5t-26.5 -12.5q-41 0 -41 69q0 27 -7 45l-255 -360q51 -48 136 -48q59 0 110 24
t97 73zM153 107l260 368q-32 32 -93 32q-62 0 -108.5 -31t-71.5 -87.5t-25 -132.5q0 -93 38 -149z" />
    <glyph glyph-name="dollar.osf" horiz-adv-x="550" 
d="M51 122l68 -37q57 -31 106 -45t102 -14q66 0 97.5 21t31.5 66q0 32 -17.5 53.5t-58.5 40t-117 39.5q-117 32 -165 70t-48 98q0 58 38.5 93t104.5 40v90h40v-90q38 -3 82 -19v109h40v-127q17 -9 28 -18l77 41v-139l-66 50q-82 63 -179 63q-114 0 -114 -84q0 -29 16 -49
t54.5 -36.5t109.5 -34.5q85 -22 133 -45t69.5 -52t21.5 -71q0 -62 -40 -99.5t-110 -45.5v-100h-40v98q-39 0 -82 10v-108h-40v120q-28 10 -60 31l-82 -51v132z" />
    <glyph glyph-name="dong.osf" horiz-adv-x="615" 
d="M467 112q-28 -59 -78 -91.5t-113 -32.5q-65 0 -114 34.5t-75.5 98t-26.5 148.5t26 148t75 97t114 34q60 0 108.5 -29.5t77.5 -83.5v170h-180v36h180v26l-77 83h133v-109h83v-36h-83v-540l58 -65h-108v112zM461 378q-19 56 -64.5 88.5t-103.5 32.5q-81 0 -128 -62
t-47 -168t47.5 -168.5t127.5 -62.5q40 0 79 14.5t64 41.5t25 64v220zM599 -87v-42h-539v42h539z" />
    <glyph glyph-name="Euro.osf" horiz-adv-x="584" 
d="M100 221l-1 25q0 17 2 37h-81v40h86q20 101 88.5 163t162.5 62q48 0 88 -16.5t63 -44t23 -61.5q0 -21 -9.5 -32.5t-26.5 -11.5q-16 0 -24 10.5t-12 34.5q-7 42 -31 61.5t-70 19.5q-76 0 -127 -49.5t-66 -135.5h328l-27 -40h-306q-1 -10 -1 -32q0 -20 1 -30h270l-27 -40
h-237q16 -74 65 -113.5t128 -39.5q55 0 94.5 22t82.5 75l8 -6q-35 -68 -83.5 -99.5t-119.5 -31.5q-96 0 -157.5 51t-78.5 142h-85v40h80z" />
    <glyph glyph-name="florin.osf" horiz-adv-x="340" 
d="M117 0v347h-100v40h94q-19 21 -19 54q0 47 43.5 77t110.5 30q36 0 56 -9.5t20 -26.5q0 -13 -11 -21t-30 -8q-9 0 -16.5 1t-13.5 2q-20 5 -43 5q-38 0 -59.5 -13.5t-21.5 -37.5t21.5 -38.5t58.5 -14.5h67v-40h-101v-347h-56z" />
    <glyph glyph-name="franc.osf" horiz-adv-x="576" 
d="M531 529v-131l-78 89h-268v-185h205l59 53v-149l-64 54h-200v-89h159v-36h-159v-70l58 -65h-155l39 82v53h-82v36h82v293l-58 65h462z" />
    <glyph glyph-name="uni20B4.osf" horiz-adv-x="686" 
d="M358 246l-36 -9h309v-40h-412q-25 -16 -35 -34.5t-10 -42.5q0 -46 34 -69.5t87 -23.5q50 0 100 17t107 51l68 41v-146l-82 61q-43 -29 -93 -46t-93 -17q-89 0 -138 38.5t-49 104.5q0 36 18 66h-78v40h115q55 41 170 66l39 9h-324v40h421q20 15 28 33t8 42q0 40 -31.5 61
t-93.5 21q-41 0 -90.5 -16.5t-90.5 -47.5l-66 -50v139l76 -41q36 26 85 40.5t90 14.5q85 0 132.5 -36t47.5 -101q0 -31 -16 -59h76v-40h-114q-52 -40 -159 -66z" />
    <glyph glyph-name="uni20AD.osf" horiz-adv-x="566" 
d="M371 0l20 80l-126 176h-31l-54 -55v-201h-97l39 82v174h-82v36h82v173l-58 65h155l-39 -82v-156h40l165 167l-52 71h171l-214 -217l16 -21h203v-36h-176l193 -256h-155zM184 256h-4v-4z" />
    <glyph glyph-name="uni20BA.osf" horiz-adv-x="572" 
d="M108 82v90l-70 -25v37l70 25v53l-70 -25v37l70 25v166l-58 65h155l-39 -82v-128l160 58v-37l-160 -58v-53l160 58v-37l-160 -58v-151h35q131 0 197.5 54t70.5 163h58q-4 -128 -85 -193.5t-236 -65.5h-137z" />
    <glyph glyph-name="uni20B1.osf" horiz-adv-x="636" 
d="M601 383h-69q2 -16 2 -25q0 -16 -3 -30h70v-40h-86q-32 -50 -116 -73.5t-216 -25.5v-124l58 -65h-155l39 82v206h-80v40h80v55h-80v40h80v42l-58 65h215q94 0 155.5 -27t83.5 -80h80v-40zM183 423h274q-42 67 -178 67h-96v-67zM472 383h-289v-55h288q3 14 3 30q0 9 -2 25
zM361.5 239.5q64.5 14.5 91.5 48.5h-270v-65q114 2 178.5 16.5z" />
    <glyph glyph-name="uni20BD.osf" horiz-adv-x="569" 
d="M425 263.5q-89 -42.5 -242 -44.5v-35h268v-40h-268v-79l58 -65h-155l39 102v42h-80v40h80v35h-80v40h80v206l-58 65h215q115 0 173.5 -34t58.5 -110q0 -80 -89 -122.5zM183 259q132 0 201.5 30t69.5 99q0 56 -42.5 79t-132.5 23h-96v-231z" />
    <glyph glyph-name="uni20A8.osf" horiz-adv-x="1093" 
d="M989.5 229.5q48.5 -42.5 48.5 -105.5q0 -62 -41 -99t-117 -37q-43 0 -84 13t-90 40l-82 -51v132l68 -37q57 -31 100.5 -44.5t86.5 -13.5q110 0 110 85q0 31 -16 53t-53 41t-104 40q-101 32 -147 74.5t-46 104.5q0 56 34.5 89.5t97.5 33.5q76 0 162 -55l76 41v-139l-66 50
q-80 64 -160 64q-47 0 -71 -21t-24 -61q0 -30 15 -51t49.5 -38t97.5 -35q107 -31 155.5 -73.5zM502 49q13 -11 41 -11q0 -22 -12 -33t-35 -11q-29 0 -47 19.5t-28 62.5q-20 83 -71 121.5t-142 38.5v-171l58 -65h-155l39 82v383l-58 65h225q103 0 155.5 -33t52.5 -97
q0 -63 -50 -101t-153 -54q56 -10 95.5 -49t60.5 -103q11 -33 24 -44zM253 273q105 0 160 31t55 88q0 48 -39.5 73t-114.5 25h-106v-217h45z" />
    <glyph glyph-name="uni20B9.osf" horiz-adv-x="516" 
d="M55 250h55q84 0 138.5 31t63.5 84h-272l25 40h246q-10 42 -57 63.5t-130 21.5h-84l25 40h431l-25 -40h-167q56 -29 65 -85h127l-25 -40h-102q-9 -61 -68.5 -99t-163.5 -49l338 -217h-85l-335 213v37z" />
    <glyph glyph-name="uni20AA.osf" 
d="M376.5 452.5q-35.5 37.5 -118.5 37.5h-92v-489l-97 -1l39 83v382l-58 65h211q112 0 160.5 -47t48.5 -155v-184h-58v184q0 87 -35.5 124.5zM680 0h-211q-112 0 -160.5 47t-48.5 155v184h58v-184q0 -87 35.5 -124.5t118.5 -37.5h92v490h97l-39 -83v-382z" />
    <glyph glyph-name="sterling.osf" horiz-adv-x="542" 
d="M40 306h85q-9 41 -9 75q0 76 44.5 121.5t119.5 45.5q49 0 88 -19.5t61.5 -54t22.5 -76.5q0 -50 -31 -50q-30 0 -30 50q0 53 -28.5 81.5t-81.5 28.5q-105 0 -105 -122q0 -29 9 -80h134v-40h-125q19 -75 19 -120q0 -23 -5 -51q119 -49 193 -49q31 0 48.5 13t33.5 47l19 -9
q-13 -54 -44 -81.5t-78 -27.5q-36 0 -84.5 16t-103.5 46q-15 -30 -39.5 -46t-55.5 -16q-34 0 -55.5 19t-21.5 49q0 28 21.5 44.5t58.5 16.5q30 0 61 -10q1 10 1 28q0 27 -6 56t-20 75h-96v40zM102 76q-19 0 -30.5 -7t-11.5 -18q0 -10 10.5 -16.5t27.5 -6.5q40 0 55 37
q-31 11 -51 11z" />
    <glyph glyph-name="uni20B8.osf" horiz-adv-x="580" 
d="M525 530v-42h-470v42h470zM55 430h470v-136l-82 94h-123v-323l58 -65h-155l39 82v306h-125l-82 -94v136z" />
    <glyph glyph-name="uni20A9.osf" horiz-adv-x="818" 
d="M162 221l-26 65h-96v40h81l-47 118l-74 86h168l-33 -72l51 -132h225l-43 119l-73 85h163l-34 -73l47 -131h205l49 128l-68 76h141l-79 -204h77v-40h-92l-25 -65h117v-40h-132l-70 -181h-64l-66 181h-71l-80 -181h-64l-71 181h-138v40h122zM366 221l28 65h-192l25 -65h139
zM636 221l25 65h-175l23 -65h127zM450 221l-18 49l-22 -49h40zM293 51l56 130h-106zM571 50l50 131h-97z" />
    <glyph glyph-name="yen.osf" horiz-adv-x="524" 
d="M243 82v106h-168v40h168v31l-22 24h-146v40h110l-185 207h184l-38 -79l134 -153l138 175l-52 57h148l-163 -207h117v-40h-148l-21 -26v-29h169v-40h-169v-123l58 -65h-153z" />
    <glyph glyph-name="uni0E3F.tf" 
d="M394 0v-140h-40v140h-240l39 82v578l-58 65h259v134h40v-135q108 -5 166 -46.5t58 -121.5q0 -63 -41 -106t-120 -57q92 -15 140 -65t48 -128q0 -191 -251 -200zM211 411h100q126 0 186 34.5t60 105.5q0 67 -50 100.5t-155 33.5h-141v-274zM582 205q0 86 -62.5 125.5
t-198.5 39.5h-110v-330h156q215 0 215 165z" />
    <glyph glyph-name="uni20BF.tf" 
d="M153 82v578l-58 65h209v134h40v-134h16q42 0 71 -4v138h40v-145q72 -17 109.5 -57.5t37.5 -100.5q0 -63 -41 -106t-120 -57q92 -15 140 -65t48 -128q0 -75 -45 -124t-129 -66v-150h-40v143q-28 -3 -61 -3h-26v-140h-40v140h-190zM311 411q126 0 186 34t60 104
q0 68 -52 102t-153 34h-141v-274h100zM367 40q215 0 215 165q0 86 -62.5 125.5t-198.5 39.5h-110v-330h156z" />
    </font>
</defs>
</svg>
