<?xml version="1.0" standalone="no"?>
<!DOCTYPE svg PUBLIC "-//W3C//DTD SVG 1.1//EN" "http://www.w3.org/Graphics/SVG/1.1/DTD/svg11.dtd" >
<svg xmlns="http://www.w3.org/2000/svg" xmlns:xlink="http://www.w3.org/1999/xlink" version="1.1">
<metadata>
Created by FontForge 20170924 at Thu May  2 10:01:16 2019
 By www-data
Copyright (c) 2019 by Dries Wiewauters. All rights reserved.
</metadata>
<defs>
<font id="NibPro-Regular" horiz-adv-x="730" >
  <font-face 
    font-family="Nib Pro"
    font-weight="400"
    font-stretch="normal"
    units-per-em="1000"
    panose-1="2 3 5 3 7 4 3 4 3 3"
    ascent="780"
    descent="-220"
    x-height="530"
    cap-height="725"
    bbox="-359 -283 1079 937"
    underline-thickness="60"
    underline-position="-170"
    unicode-range="U+000D-FB02"
  />
<missing-glyph horiz-adv-x="500" 
 />
    <glyph glyph-name="f_f" unicode="ff" horiz-adv-x="559" 
d="M110 85v400h-97v45h91q-28 33 -28 83q0 41 20.5 75t55.5 53t78 19q33 0 53 -12t20 -31q0 -14 -11 -23t-30 -9q-11 0 -31 6q-22 6 -37 6q-35 0 -56.5 -22t-21.5 -58q0 -39 26 -63t69 -24h179q-28 33 -28 86q0 62 41.5 103t103.5 41q32 0 50 -11.5t18 -30.5q0 -15 -11 -24
t-30 -9q-10 0 -30 6q-18 6 -32 6q-33 0 -51.5 -20.5t-18.5 -55.5q0 -42 25.5 -66.5t69.5 -24.5h50v-45h-81v-417l60 -68h-170l40 85v400h-216v-417l60 -68h-170z" />
    <glyph glyph-name="f_f_i" unicode="ffi" horiz-adv-x="853" 
d="M110 85v400h-97v45h91q-28 31 -28 83q0 41 20.5 75t55.5 53t78 19q34 0 54 -11.5t20 -31.5q0 -14 -11 -23t-30 -9q-12 0 -32 6q-24 6 -37 6q-35 0 -56.5 -22t-21.5 -58q0 -39 25.5 -63t69.5 -24h179q-28 33 -28 83q0 41 20.5 75t56 53t78.5 19q33 0 53 -11.5t20 -31.5
q0 -14 -11 -23t-30 -9q-10 0 -32 6t-37 6q-35 0 -56.5 -22t-21.5 -58q0 -39 25.5 -63t69.5 -24h255v-461l61 -69h-171l40 86v399h-216v-417l60 -68h-170l40 85v400h-216v-417l60 -68h-170zM751.5 728q13.5 -14 13.5 -36q0 -21 -13.5 -35t-34.5 -14q-22 0 -35.5 14t-13.5 35
q0 22 13.5 36t35.5 14q21 0 34.5 -14z" />
    <glyph glyph-name="f_f_l" unicode="ffl" horiz-adv-x="844" 
d="M110 85v400h-97v45h91q-28 31 -28 83q0 41 20.5 75t55.5 53t78 19q34 0 54 -11.5t20 -31.5q0 -14 -11 -23t-30 -9q-12 0 -32 6q-24 6 -37 6q-35 0 -56.5 -22t-21.5 -58q0 -39 25.5 -63t69.5 -24h180q-13 16 -20.5 38t-7.5 47q0 64 41 104.5t104 40.5q32 0 50 -11t18 -31
q0 -15 -11 -24t-30 -9q-11 0 -29 6q-20 6 -34 6q-32 0 -50.5 -20.5t-18.5 -55.5q0 -42 25.5 -66.5t69.5 -24.5h50v-45h-81v-417l60 -68h-170l40 85v400h-217v-417l60 -68h-170zM673 86v577l-80 87h150v-681l61 -69h-171z" />
    <glyph glyph-name="f_i" unicode="fi" horiz-adv-x="567" 
d="M110 85v400h-97v45h91q-28 31 -28 83q0 41 20.5 75t55.5 53t78 19q34 0 54 -11.5t20 -31.5q0 -14 -11 -23t-30 -9q-12 0 -32 6q-24 6 -37 6q-35 0 -56.5 -22t-21.5 -58q0 -39 25.5 -63t69.5 -24h255v-461l61 -69h-171l40 86v399h-216v-417l60 -68h-170zM465.5 728
q13.5 -14 13.5 -36q0 -21 -13.5 -35t-35.5 -14q-21 0 -35 14t-14 35q0 22 14 36t35 14q22 0 35.5 -14z" />
    <glyph glyph-name="f_l" unicode="fl" horiz-adv-x="559" 
d="M110 85v400h-97v45h91q-28 31 -28 85q0 64 41 104.5t104 40.5q32 0 50 -11.5t18 -30.5q0 -15 -11 -24t-30 -9q-11 0 -29 6q-20 6 -34 6q-32 0 -50.5 -20.5t-18.5 -55.5q0 -42 25.5 -66.5t69.5 -24.5h50v-45h-81v-417l60 -68h-170zM388 86v577l-80 87h150v-681l61 -69
h-172z" />
    <glyph glyph-name=".notdef" horiz-adv-x="500" 
 />
    <glyph glyph-name="nonmarkingreturn" unicode="&#xd;" horiz-adv-x="500" 
 />
    <glyph glyph-name="space" unicode=" " horiz-adv-x="200" 
 />
    <glyph glyph-name="A" unicode="A" horiz-adv-x="632" 
d="M69 84l198 556l-45 85h101l224 -637l75 -88h-187l36 78l-38 106h-282l-37 -102l72 -82h-156zM418 226l-127 357l-126 -357h253z" />
    <glyph glyph-name="Aacute" unicode="&#xc1;" horiz-adv-x="632" 
d="M69 84l198 556l-45 85h101l224 -637l75 -88h-187l36 78l-38 106h-282l-37 -102l72 -82h-156zM418 226l-127 357l-126 -357h253zM191 799q47 7 91.5 37t61.5 68q14 30 38 30q13 0 22.5 -9t9.5 -22q0 -15 -17 -33q-33 -33 -86.5 -55.5t-119.5 -26.5v11z" />
    <glyph glyph-name="Abreve" unicode="&#x102;" horiz-adv-x="632" 
d="M69 84l198 556l-45 85h101l224 -637l75 -88h-187l36 78l-38 106h-282l-37 -102l72 -82h-156zM418 226l-127 357l-126 -357h253zM208 817q-39 30 -53 78l9 5q24 -37 56 -54.5t76 -17.5q43 0 75 17.5t56 54.5l9 -5q-14 -48 -52.5 -78t-87.5 -30t-88 30z" />
    <glyph glyph-name="Acircumflex" unicode="&#xc2;" horiz-adv-x="632" 
d="M69 84l198 556l-45 85h101l224 -637l75 -88h-187l36 78l-38 106h-282l-37 -102l72 -82h-156zM418 226l-127 357l-126 -357h253zM442 778q-77 17 -147 66q-68 -49 -147 -66l-1 11q44 19 83.5 57t58.5 81h12q19 -42 59 -81t83 -57z" />
    <glyph glyph-name="Adieresis" unicode="&#xc4;" horiz-adv-x="632" 
d="M69 84l198 556l-45 85h101l224 -637l75 -88h-187l36 78l-38 106h-282l-37 -102l72 -82h-156zM418 226l-127 357l-126 -357h253zM167.5 812.5q-11.5 10.5 -11.5 27.5t11.5 28t27.5 11q17 0 27.5 -11t10.5 -28q0 -16 -11 -27t-27 -11t-27.5 10.5zM368 812.5
q-11 10.5 -11 27.5t11 28t28 11q16 0 27 -11t11 -28q0 -16 -11 -27t-27 -11q-17 0 -28 10.5z" />
    <glyph glyph-name="Agrave" unicode="&#xc0;" horiz-adv-x="632" 
d="M69 84l198 556l-45 85h101l224 -637l75 -88h-187l36 78l-38 106h-282l-37 -102l72 -82h-156zM418 226l-127 357l-126 -357h253zM278.5 814.5q-54.5 22.5 -86.5 55.5q-17 18 -17 33q0 13 9.5 22t22.5 9q24 0 38 -30q17 -38 61.5 -68t91.5 -37v-11q-65 4 -119.5 26.5z" />
    <glyph glyph-name="Amacron" unicode="&#x100;" horiz-adv-x="632" 
d="M69 84l198 556l-45 85h101l224 -637l75 -88h-187l36 78l-38 106h-282l-37 -102l72 -82h-156zM418 226l-127 357l-126 -357h253zM158 839h273v-32h-273v32z" />
    <glyph glyph-name="Aogonek" unicode="&#x104;" horiz-adv-x="632" 
d="M525.5 -169.5q15.5 -22.5 50.5 -34.5l-5 -9q-51 1 -81 29t-30 75q0 63 52 109h-77l36 78l-38 106h-282l-37 -102l72 -82h-156l39 84l198 556l-45 85h101l224 -637l75 -88h-79q-33 -47 -33 -108q0 -39 15.5 -61.5zM418 226l-127 357l-126 -357h253z" />
    <glyph glyph-name="Aring" unicode="&#xc5;" horiz-adv-x="632" 
d="M69 84l198 556l-45 85h101l224 -637l75 -88h-187l36 78l-38 106h-282l-37 -102l72 -82h-156zM418 226l-127 357l-126 -357h253zM235.5 793q-23.5 24 -23.5 60t23.5 60t59.5 24t60 -24t24 -60t-24 -60t-60 -24t-59.5 24zM340.5 807q18.5 18 18.5 46t-18.5 46t-46.5 18
q-27 0 -45 -18t-18 -46t18 -46t45 -18q28 0 46.5 18z" />
    <glyph glyph-name="Atilde" unicode="&#xc3;" horiz-adv-x="632" 
d="M69 84l198 556l-45 85h101l224 -637l75 -88h-187l36 78l-38 106h-282l-37 -102l72 -82h-156zM418 226l-127 357l-126 -357h253zM353 791q-33 0 -83 16q-4 1 -22.5 6.5t-34.5 5.5q-38 0 -41 -32l-12 4q1 71 75 71q31 0 81 -16q39 -13 58 -13q18 0 29.5 8t13.5 24l12 -4
q-1 -70 -76 -70z" />
    <glyph glyph-name="AE" unicode="&#xc6;" horiz-adv-x="943" 
d="M93 105l368 559l-54 61h426v-140l-84 96h-207v-293h180l61 55v-155l-66 56h-175v-300h246l95 109v-153h-453l40 87v113h-264l-77 -118l67 -82h-186zM470 244v357l-234 -357h234z" />
    <glyph glyph-name="AEacute" unicode="&#x1fc;" horiz-adv-x="943" 
d="M93 105l368 559l-54 61h426v-140l-84 96h-207v-293h180l61 55v-155l-66 56h-175v-300h246l95 109v-153h-453l40 87v113h-264l-77 -118l67 -82h-186zM470 244v357l-234 -357h234zM402 799q47 7 91.5 37t61.5 68q14 30 38 30q13 0 22.5 -9t9.5 -22q0 -15 -17 -33
q-33 -33 -86.5 -55.5t-119.5 -26.5v11z" />
    <glyph glyph-name="B" unicode="B" horiz-adv-x="610" 
d="M111 87v568l-62 70h223q122 0 188.5 -45t66.5 -127q0 -58 -33 -98t-97 -60q85 -20 128.5 -68t43.5 -124q0 -98 -72.5 -150.5t-206.5 -52.5h-220zM183 682v-269h61q106 0 157 34t51 105q0 66 -45 98t-139 32h-85zM183 369v-326h103q205 0 205 164q0 84 -57 123t-181 39
h-70z" />
    <glyph glyph-name="C" unicode="C" horiz-adv-x="640" 
d="M569 43q-59 -29 -112 -42t-109 -13q-153 0 -230.5 91.5t-77.5 270.5q0 122 36 209.5t103.5 133.5t161.5 46q46 0 86 -11t68 -31l55 37v-201l-46 78q-28 46 -70 70.5t-93 24.5q-68 0 -118 -42t-76.5 -120.5t-26.5 -184.5q0 -160 60.5 -248.5t168.5 -88.5q60 0 108.5 28.5
t80.5 82.5l31 54v-144z" />
    <glyph glyph-name="Cacute" unicode="&#x106;" horiz-adv-x="640" 
d="M569 43q-59 -29 -112 -42t-109 -13q-153 0 -230.5 91.5t-77.5 270.5q0 122 36 209.5t103.5 133.5t161.5 46q46 0 86 -11t68 -31l55 37v-201l-46 78q-28 46 -70 70.5t-93 24.5q-68 0 -118 -42t-76.5 -120.5t-26.5 -184.5q0 -160 60.5 -248.5t168.5 -88.5q60 0 108.5 28.5
t80.5 82.5l31 54v-144zM241 799q47 7 91.5 37t61.5 68q14 30 38 30q13 0 22.5 -9t9.5 -22q0 -15 -17 -33q-33 -33 -86.5 -55.5t-119.5 -26.5v11z" />
    <glyph glyph-name="Ccaron" unicode="&#x10c;" horiz-adv-x="640" 
d="M569 43q-59 -29 -112 -42t-109 -13q-153 0 -230.5 91.5t-77.5 270.5q0 122 36 209.5t103.5 133.5t161.5 46q46 0 86 -11t68 -31l55 37v-201l-46 78q-28 46 -70 70.5t-93 24.5q-68 0 -118 -42t-76.5 -120.5t-26.5 -184.5q0 -160 60.5 -248.5t168.5 -88.5q60 0 108.5 28.5
t80.5 82.5l31 54v-144zM492 918v-11q-44 -19 -83.5 -57.5t-57.5 -80.5h-13q-18 42 -58 81t-83 57l1 11q77 -17 147 -66q68 49 147 66z" />
    <glyph glyph-name="Ccedilla" unicode="&#xc7;" horiz-adv-x="640" 
d="M370 -11l-23 -51q41 -4 66.5 -27.5t25.5 -56.5q0 -38 -33.5 -62t-84.5 -24q-32 0 -60 8l2 10q21 -3 38 -3q44 0 67.5 16t23.5 47q0 30 -24.5 45.5t-71.5 15.5l42 81q-148 3 -223 94.5t-75 267.5q0 122 36 209.5t103.5 133.5t161.5 46q46 0 86 -11t68 -31l55 37v-201
l-46 78q-28 46 -70 70.5t-93 24.5q-68 0 -118 -42t-76.5 -120.5t-26.5 -184.5q0 -160 60.5 -248.5t168.5 -88.5q60 0 108.5 28.5t80.5 82.5l31 54v-144q-102 -50 -199 -54z" />
    <glyph glyph-name="Ccircumflex" unicode="&#x108;" horiz-adv-x="640" 
d="M569 43q-59 -29 -112 -42t-109 -13q-153 0 -230.5 91.5t-77.5 270.5q0 122 36 209.5t103.5 133.5t161.5 46q46 0 86 -11t68 -31l55 37v-201l-46 78q-28 46 -70 70.5t-93 24.5q-68 0 -118 -42t-76.5 -120.5t-26.5 -184.5q0 -160 60.5 -248.5t168.5 -88.5q60 0 108.5 28.5
t80.5 82.5l31 54v-144zM491 778q-77 17 -147 66q-68 -49 -147 -66l-1 11q44 19 83.5 57t58.5 81h12q19 -42 59 -81t83 -57z" />
    <glyph glyph-name="Cdotaccent" unicode="&#x10a;" horiz-adv-x="640" 
d="M569 43q-59 -29 -112 -42t-109 -13q-153 0 -230.5 91.5t-77.5 270.5q0 122 36 209.5t103.5 133.5t161.5 46q46 0 86 -11t68 -31l55 37v-201l-46 78q-28 46 -70 70.5t-93 24.5q-68 0 -118 -42t-76.5 -120.5t-26.5 -184.5q0 -160 60.5 -248.5t168.5 -88.5q60 0 108.5 28.5
t80.5 82.5l31 54v-144zM312 826q-13 13 -13 33t13 33t32 13q20 0 33 -13t13 -33t-13 -33t-33 -13q-19 0 -32 13z" />
    <glyph glyph-name="D" unicode="D" horiz-adv-x="671" 
d="M111 87v568l-62 70h231q108 0 187.5 -45t121.5 -129t42 -201q0 -170 -90 -260t-261 -90h-210zM183 681v-637h97q132 0 202 79t70 226q0 101 -33.5 176t-95 115.5t-143.5 40.5h-97z" />
    <glyph glyph-name="Eth" unicode="&#xd0;" horiz-adv-x="671" 
d="M111 87v255h-61v40h61v273l-62 70h231q108 0 187.5 -45t121.5 -129t42 -201q0 -170 -90 -260t-261 -90h-210zM183 681v-299h222v-40h-222v-298h97q132 0 202 79t70 226q0 101 -33.5 176t-95 115.5t-143.5 40.5h-97z" />
    <glyph glyph-name="Dcaron" unicode="&#x10e;" horiz-adv-x="671" 
d="M111 87v568l-62 70h231q108 0 187.5 -45t121.5 -129t42 -201q0 -170 -90 -260t-261 -90h-210zM183 681v-637h97q132 0 202 79t70 226q0 101 -33.5 176t-95 115.5t-143.5 40.5h-97zM474 918v-11q-44 -19 -83.5 -57.5t-57.5 -80.5h-13q-18 42 -58 81t-83 57l1 11
q77 -17 147 -66q68 49 147 66z" />
    <glyph glyph-name="Dcroat" unicode="&#x110;" horiz-adv-x="671" 
d="M111 87v255h-61v40h61v273l-62 70h231q108 0 187.5 -45t121.5 -129t42 -201q0 -170 -90 -260t-261 -90h-210zM183 681v-299h222v-40h-222v-298h97q132 0 202 79t70 226q0 101 -33.5 176t-95 115.5t-143.5 40.5h-97z" />
    <glyph glyph-name="E" unicode="E" horiz-adv-x="602" 
d="M111 87v568l-62 70h443v-140l-85 96h-224v-293h184l61 55v-155l-66 56h-179v-300h264l94 109v-153h-471z" />
    <glyph glyph-name="Eacute" unicode="&#xc9;" horiz-adv-x="602" 
d="M111 87v568l-62 70h443v-140l-85 96h-224v-293h184l61 55v-155l-66 56h-179v-300h264l94 109v-153h-471zM203 799q47 7 91.5 37t61.5 68q14 30 38 30q13 0 22.5 -9t9.5 -22q0 -15 -17 -33q-33 -33 -86.5 -55.5t-119.5 -26.5v11z" />
    <glyph glyph-name="Ebreve" unicode="&#x114;" horiz-adv-x="602" 
d="M111 87v568l-62 70h443v-140l-85 96h-224v-293h184l61 55v-155l-66 56h-179v-300h264l94 109v-153h-471zM219 817q-39 30 -53 78l9 5q24 -37 56 -54.5t76 -17.5q43 0 75 17.5t56 54.5l9 -5q-14 -48 -52.5 -78t-87.5 -30t-88 30z" />
    <glyph glyph-name="Ecaron" unicode="&#x11a;" horiz-adv-x="602" 
d="M111 87v568l-62 70h443v-140l-85 96h-224v-293h184l61 55v-155l-66 56h-179v-300h264l94 109v-153h-471zM455 918v-11q-44 -19 -83.5 -57.5t-57.5 -80.5h-13q-18 42 -58 81t-83 57l1 11q77 -17 147 -66q68 49 147 66z" />
    <glyph glyph-name="Ecircumflex" unicode="&#xca;" horiz-adv-x="602" 
d="M111 87v568l-62 70h443v-140l-85 96h-224v-293h184l61 55v-155l-66 56h-179v-300h264l94 109v-153h-471zM454 778q-77 17 -147 66q-68 -49 -147 -66l-1 11q44 19 83.5 57t58.5 81h12q19 -42 59 -81t83 -57z" />
    <glyph glyph-name="Edieresis" unicode="&#xcb;" horiz-adv-x="602" 
d="M111 87v568l-62 70h443v-140l-85 96h-224v-293h184l61 55v-155l-66 56h-179v-300h264l94 109v-153h-471zM179.5 812.5q-11.5 10.5 -11.5 27.5t11.5 28t27.5 11q17 0 27.5 -11t10.5 -28q0 -16 -11 -27t-27 -11t-27.5 10.5zM380 812.5q-11 10.5 -11 27.5t11 28t28 11
q16 0 27 -11t11 -28q0 -16 -11 -27t-27 -11q-17 0 -28 10.5z" />
    <glyph glyph-name="Edotaccent" unicode="&#x116;" horiz-adv-x="602" 
d="M111 87v568l-62 70h443v-140l-85 96h-224v-293h184l61 55v-155l-66 56h-179v-300h264l94 109v-153h-471zM275 826q-13 13 -13 33t13 33t32 13q20 0 33 -13t13 -33t-13 -33t-33 -13q-19 0 -32 13z" />
    <glyph glyph-name="Egrave" unicode="&#xc8;" horiz-adv-x="602" 
d="M111 87v568l-62 70h443v-140l-85 96h-224v-293h184l61 55v-155l-66 56h-179v-300h264l94 109v-153h-471zM290.5 814.5q-54.5 22.5 -86.5 55.5q-17 18 -17 33q0 13 9.5 22t22.5 9q24 0 38 -30q17 -38 61.5 -68t91.5 -37v-11q-65 4 -119.5 26.5z" />
    <glyph glyph-name="Emacron" unicode="&#x112;" horiz-adv-x="602" 
d="M111 87v568l-62 70h443v-140l-85 96h-224v-293h184l61 55v-155l-66 56h-179v-300h264l94 109v-153h-471zM170 839h273v-32h-273v32z" />
    <glyph glyph-name="Eogonek" unicode="&#x118;" horiz-adv-x="602" 
d="M111 87v568l-62 70h443v-140l-85 96h-224v-293h184l61 55v-155l-66 56h-179v-300h264l94 109v-153q-33 -47 -33 -108q0 -39 15.5 -61.5t50.5 -34.5l-5 -9q-51 1 -81 29t-30 75q0 31 14 59.5t38 49.5h-440z" />
    <glyph glyph-name="F" unicode="F" horiz-adv-x="562" 
d="M111 87v568l-62 70h473v-143l-86 99h-253v-299h192l63 55v-156l-68 56h-187v-267l61 -70h-174z" />
    <glyph glyph-name="G" unicode="G" horiz-adv-x="704" 
d="M613 216v-228l-48 68q-33 -33 -81.5 -50.5t-107.5 -17.5q-95 0 -164.5 44.5t-106.5 127.5t-37 196q0 115 37.5 201.5t106.5 134t161 47.5q46 0 88 -11.5t71 -32.5l57 40v-209l-50 78q-31 49 -74 75.5t-93 26.5q-66 0 -117 -44t-79 -123t-28 -182q0 -102 28.5 -177.5
t81.5 -116.5t124 -41q53 0 99 22t72 60v122l-81 75h182z" />
    <glyph glyph-name="Gbreve" unicode="&#x11e;" horiz-adv-x="704" 
d="M613 216v-228l-48 68q-33 -33 -81.5 -50.5t-107.5 -17.5q-95 0 -164.5 44.5t-106.5 127.5t-37 196q0 115 37.5 201.5t106.5 134t161 47.5q46 0 88 -11.5t71 -32.5l57 40v-209l-50 78q-31 49 -74 75.5t-93 26.5q-66 0 -117 -44t-79 -123t-28 -182q0 -102 28.5 -177.5
t81.5 -116.5t124 -41q53 0 99 22t72 60v122l-81 75h182zM277 817q-39 30 -53 78l9 5q24 -37 56 -54.5t76 -17.5q43 0 75 17.5t56 54.5l9 -5q-14 -48 -52.5 -78t-87.5 -30t-88 30z" />
    <glyph glyph-name="Gcircumflex" unicode="&#x11c;" horiz-adv-x="704" 
d="M613 216v-228l-48 68q-33 -33 -81.5 -50.5t-107.5 -17.5q-95 0 -164.5 44.5t-106.5 127.5t-37 196q0 115 37.5 201.5t106.5 134t161 47.5q46 0 88 -11.5t71 -32.5l57 40v-209l-50 78q-31 49 -74 75.5t-93 26.5q-66 0 -117 -44t-79 -123t-28 -182q0 -102 28.5 -177.5
t81.5 -116.5t124 -41q53 0 99 22t72 60v122l-81 75h182zM511 778q-77 17 -147 66q-68 -49 -147 -66l-1 11q44 19 83.5 57t58.5 81h12q19 -42 59 -81t83 -57z" />
    <glyph glyph-name="uni0122" unicode="&#x122;" horiz-adv-x="704" 
d="M613 216v-228l-48 68q-33 -33 -81.5 -50.5t-107.5 -17.5q-95 0 -164.5 44.5t-106.5 127.5t-37 196q0 115 37.5 201.5t106.5 134t161 47.5q46 0 88 -11.5t71 -32.5l57 40v-209l-50 78q-31 49 -74 75.5t-93 26.5q-66 0 -117 -44t-79 -123t-28 -182q0 -102 28.5 -177.5
t81.5 -116.5t124 -41q53 0 99 22t72 60v122l-81 75h182zM337 -271q28 22 43 54.5t13 64.5h-11q-21 0 -35.5 13.5t-14.5 33.5t14.5 34t34.5 14q26 0 43 -22.5t17 -55.5q0 -42 -26 -82t-68 -66z" />
    <glyph glyph-name="Gdotaccent" unicode="&#x120;" horiz-adv-x="704" 
d="M613 216v-228l-48 68q-33 -33 -81.5 -50.5t-107.5 -17.5q-95 0 -164.5 44.5t-106.5 127.5t-37 196q0 115 37.5 201.5t106.5 134t161 47.5q46 0 88 -11.5t71 -32.5l57 40v-209l-50 78q-31 49 -74 75.5t-93 26.5q-66 0 -117 -44t-79 -123t-28 -182q0 -102 28.5 -177.5
t81.5 -116.5t124 -41q53 0 99 22t72 60v122l-81 75h182zM332 826q-13 13 -13 33t13 33t32 13q20 0 33 -13t13 -33t-13 -33t-33 -13q-19 0 -32 13z" />
    <glyph glyph-name="H" unicode="H" horiz-adv-x="735" 
d="M111 87v568l-62 70h175l-41 -87v-246h369v263l-62 70h174l-40 -87v-568l61 -70h-174l41 87v260h-369v-277l61 -70h-174z" />
    <glyph glyph-name="Hbar" unicode="&#x126;" horiz-adv-x="735" 
d="M111 87v408h-96v37h96v123l-62 70h175l-41 -87v-106h369v123l-62 70h174l-40 -87v-106h95v-37h-95v-425l61 -70h-174l41 87v258h-369v-275l61 -70h-174zM552 389v106h-369v-106h369z" />
    <glyph glyph-name="Hcircumflex" unicode="&#x124;" horiz-adv-x="735" 
d="M111 87v568l-62 70h175l-41 -87v-246h369v263l-62 70h174l-40 -87v-568l61 -70h-174l41 87v260h-369v-277l61 -70h-174zM515 778q-77 17 -147 66q-68 -49 -147 -66l-1 11q44 19 83.5 57t58.5 81h12q19 -42 59 -81t83 -57z" />
    <glyph glyph-name="I" unicode="I" horiz-adv-x="294" 
d="M111 87v568l-62 70h175l-41 -87v-568l61 -70h-174z" />
    <glyph glyph-name="IJ" unicode="&#x132;" horiz-adv-x="668" 
d="M111 87v568l-62 70h175l-41 -87v-568l61 -70h-174zM495 655l-62 70h175l-41 -87v-455q0 -98 -38 -146.5t-116 -48.5q-43 0 -69 14t-26 37q0 15 11.5 25t30.5 10q12 0 22 -3.5t24 -10.5q28 -15 49 -15q53 0 53 67q0 18 -5 50q-8 50 -8 91v402z" />
    <glyph glyph-name="Iacute" unicode="&#xcd;" horiz-adv-x="294" 
d="M111 87v568l-62 70h175l-41 -87v-568l61 -70h-174zM43 799q47 7 91.5 37t61.5 68q14 30 38 30q13 0 22.5 -9t9.5 -22q0 -15 -17 -33q-33 -33 -86.5 -55.5t-119.5 -26.5v11z" />
    <glyph glyph-name="Ibreve" unicode="&#x12c;" horiz-adv-x="294" 
d="M111 87v568l-62 70h175l-41 -87v-568l61 -70h-174zM59 817q-39 30 -53 78l9 5q24 -37 56 -54.5t76 -17.5q43 0 75 17.5t56 54.5l9 -5q-14 -48 -52.5 -78t-87.5 -30t-88 30z" />
    <glyph glyph-name="Icircumflex" unicode="&#xce;" horiz-adv-x="294" 
d="M111 87v568l-62 70h175l-41 -87v-568l61 -70h-174zM294 778q-77 17 -147 66q-68 -49 -147 -66l-1 11q44 19 83.5 57t58.5 81h12q19 -42 59 -81t83 -57z" />
    <glyph glyph-name="Idieresis" unicode="&#xcf;" horiz-adv-x="294" 
d="M111 87v568l-62 70h175l-41 -87v-568l61 -70h-174zM81 870.5q11 -11.5 11 -28.5q0 -16 -11 -27t-28 -11t-28 11t-11 27q0 17 11 28.5t28 11.5t28 -11.5zM265 870.5q11 -11.5 11 -28.5q0 -16 -10.5 -27t-27.5 -11t-28 10.5t-11 27.5t11 28.5t28 11.5q16 0 27 -11.5z" />
    <glyph glyph-name="Idotaccent" unicode="&#x130;" horiz-adv-x="294" 
d="M111 87v568l-62 70h175l-41 -87v-568l61 -70h-174zM115 826q-13 13 -13 33t13 33t32 13q20 0 33 -13t13 -33t-13 -33t-33 -13q-19 0 -32 13z" />
    <glyph glyph-name="Igrave" unicode="&#xcc;" horiz-adv-x="294" 
d="M111 87v568l-62 70h175l-41 -87v-568l61 -70h-174zM130.5 814.5q-54.5 22.5 -86.5 55.5q-17 18 -17 33q0 13 9.5 22t22.5 9q24 0 38 -30q17 -38 61.5 -68t91.5 -37v-11q-65 4 -119.5 26.5z" />
    <glyph glyph-name="Imacron" unicode="&#x12a;" horiz-adv-x="294" 
d="M111 87v568l-62 70h175l-41 -87v-568l61 -70h-174zM10 839h273v-32h-273v32z" />
    <glyph glyph-name="Iogonek" unicode="&#x12e;" horiz-adv-x="294" 
d="M111 87v568l-62 70h175l-41 -87v-568l61 -70h-66q-33 -47 -33 -109q0 -39 15.5 -61.5t50.5 -34.5l-5 -9q-51 1 -81 29t-30 75q0 32 14 60.5t39 49.5h-78z" />
    <glyph glyph-name="Itilde" unicode="&#x128;" horiz-adv-x="294" 
d="M111 87v568l-62 70h175l-41 -87v-568l61 -70h-174zM205 791q-33 0 -83 16q-4 1 -22.5 6.5t-34.5 5.5q-38 0 -41 -32l-12 4q1 71 75 71q31 0 81 -16q39 -13 58 -13q18 0 29.5 8t13.5 24l12 -4q-1 -70 -76 -70z" />
    <glyph glyph-name="J" unicode="J" horiz-adv-x="374" 
d="M201 655l-62 70h175l-41 -87v-455q0 -98 -38 -146.5t-116 -48.5q-43 0 -69 14t-26 37q0 15 11.5 25t30.5 10q12 0 22 -3.5t24 -10.5q28 -15 49 -15q53 0 53 67q0 18 -5 50q-8 50 -8 91v402z" />
    <glyph glyph-name="Jcircumflex" unicode="&#x134;" horiz-adv-x="374" 
d="M201 655l-62 70h175l-41 -87v-455q0 -98 -38 -146.5t-116 -48.5q-43 0 -69 14t-26 37q0 15 11.5 25t30.5 10q12 0 22 -3.5t24 -10.5q28 -15 49 -15q53 0 53 67q0 18 -5 50q-8 50 -8 91v402zM393 778q-77 17 -147 66q-68 -49 -147 -66l-1 11q44 19 83.5 57t58.5 81h12
q19 -42 59 -81t83 -57z" />
    <glyph glyph-name="K" unicode="K" horiz-adv-x="618" 
d="M111 87v568l-62 70h175l-41 -87v-283l292 297l-53 73h177l-299 -305l308 -420h-170l21 81l-207 288l-69 -70v-229l61 -70h-174z" />
    <glyph glyph-name="uni0136" unicode="&#x136;" horiz-adv-x="618" 
d="M111 87v568l-62 70h175l-41 -87v-283l292 297l-53 73h177l-299 -305l308 -420h-170l21 81l-207 288l-69 -70v-229l61 -70h-174zM299 -271q28 22 43 54.5t13 64.5h-11q-21 0 -35.5 13.5t-14.5 33.5t14.5 34t34.5 14q26 0 43 -22.5t17 -55.5q0 -42 -26 -82t-68 -66z" />
    <glyph glyph-name="L" unicode="L" horiz-adv-x="551" 
d="M111 87v568l-62 70h175l-41 -87v-594h232l106 138v-182h-451z" />
    <glyph glyph-name="Lacute" unicode="&#x139;" horiz-adv-x="551" 
d="M111 87v568l-62 70h175l-41 -87v-594h232l106 138v-182h-451zM43 799q47 7 91.5 37t61.5 68q14 30 38 30q13 0 22.5 -9t9.5 -22q0 -15 -17 -33q-33 -33 -86.5 -55.5t-119.5 -26.5v11z" />
    <glyph glyph-name="Lcaron" unicode="&#x13d;" horiz-adv-x="551" 
d="M111 87v568l-62 70h175l-41 -87v-594h232l106 138v-182h-451zM377 512q28 22 43 54.5t13 64.5h-11q-21 0 -35.5 13.5t-14.5 32.5q0 20 14.5 34t34.5 14q26 0 43 -22t17 -56q0 -41 -26 -81t-68 -66z" />
    <glyph glyph-name="uni013B" unicode="&#x13b;" horiz-adv-x="551" 
d="M111 87v568l-62 70h175l-41 -87v-594h232l106 138v-182h-451zM254 -271q28 22 43 54.5t13 64.5h-11q-21 0 -35.5 13.5t-14.5 33.5t14.5 34t34.5 14q26 0 43 -22.5t17 -55.5q0 -42 -26 -82t-68 -66z" />
    <glyph glyph-name="Ldot" unicode="&#x13f;" horiz-adv-x="551" 
d="M111 87v568l-62 70h175l-41 -87v-594h234l104 136v-180h-451zM335 349q-13 13 -13 32q0 20 13 33t33 13t33 -13t13 -33q0 -19 -13 -32t-33 -13t-33 13z" />
    <glyph glyph-name="Lslash" unicode="&#x141;" horiz-adv-x="551" 
d="M111 87v228l-70 -26v40l70 26v300l-62 70h175l-41 -87v-256l186 67v-39l-186 -68v-298h232l106 138v-182h-451z" />
    <glyph glyph-name="M" unicode="M" horiz-adv-x="824" 
d="M111 87v568l-62 70h188l-18 -65l203 -517l191 519l-19 63h160l-41 -87v-568l62 -70h-175l41 87v529l-233 -628l-253 635v-553l62 -70h-147z" />
    <glyph glyph-name="N" unicode="N" horiz-adv-x="717" 
d="M111 87v568l-62 70h123l400 -556v486l-62 70h147l-41 -87v-650l-461 636v-554l62 -70h-147z" />
    <glyph glyph-name="Nacute" unicode="&#x143;" horiz-adv-x="717" 
d="M111 87v568l-62 70h123l400 -556v486l-62 70h147l-41 -87v-650l-461 636v-554l62 -70h-147zM269 799q47 7 91.5 37t61.5 68q14 30 38 30q13 0 22.5 -9t9.5 -22q0 -15 -17 -33q-33 -33 -86.5 -55.5t-119.5 -26.5v11z" />
    <glyph glyph-name="Ncaron" unicode="&#x147;" horiz-adv-x="717" 
d="M111 87v568l-62 70h123l400 -556v486l-62 70h147l-41 -87v-650l-461 636v-554l62 -70h-147zM520 918v-11q-44 -19 -83.5 -57.5t-57.5 -80.5h-13q-18 42 -58 81t-83 57l1 11q77 -17 147 -66q68 49 147 66z" />
    <glyph glyph-name="uni0145" unicode="&#x145;" horiz-adv-x="717" 
d="M111 87v568l-62 70h123l400 -556v486l-62 70h147l-41 -87v-650l-461 636v-554l62 -70h-147zM317 -271q28 22 43 54.5t13 64.5h-11q-21 0 -35.5 13.5t-14.5 33.5t14.5 34t34.5 14q26 0 43 -22.5t17 -55.5q0 -42 -26 -82t-68 -66z" />
    <glyph glyph-name="Eng" unicode="&#x14a;" horiz-adv-x="717" 
d="M111 87v568l-62 70h123l400 -556v486l-62 70h147l-41 -87v-607q84 -47 84 -126q0 -58 -41.5 -93t-110.5 -35q-40 0 -61 11.5t-21 33.5q0 16 11 25.5t30 9.5q16 0 38 -9q2 -1 15.5 -5t28.5 -4q31 0 50.5 18.5t19.5 50.5q0 81 -142 95l32 77l-394 544v-554l62 -70h-147z
" />
    <glyph glyph-name="Ntilde" unicode="&#xd1;" horiz-adv-x="717" 
d="M111 87v568l-62 70h123l400 -556v486l-62 70h147l-41 -87v-650l-461 636v-554l62 -70h-147zM430 791q-33 0 -83 16q-4 1 -22.5 6.5t-34.5 5.5q-38 0 -41 -32l-12 4q1 71 75 71q31 0 81 -16q39 -13 58 -13q18 0 29.5 8t13.5 24l12 -4q-1 -70 -76 -70z" />
    <glyph glyph-name="O" unicode="O" horiz-adv-x="700" 
d="M77 566q37 84 106.5 128.5t165.5 44.5q97 0 167 -44t107 -128t37 -200q0 -119 -37 -204t-107 -130t-167 -45q-96 0 -165.5 45t-106.5 130t-37 203q0 116 37 200zM553 545q-28 75 -80.5 115.5t-123.5 40.5t-123 -40t-79.5 -115.5t-27.5 -178.5q0 -165 60 -253.5t170 -88.5
q111 0 171.5 89t60.5 253q0 103 -28 178z" />
    <glyph glyph-name="Oacute" unicode="&#xd3;" horiz-adv-x="700" 
d="M77 566q37 84 106.5 128.5t165.5 44.5q97 0 167 -44t107 -128t37 -200q0 -119 -37 -204t-107 -130t-167 -45q-96 0 -165.5 45t-106.5 130t-37 203q0 116 37 200zM553 545q-28 75 -80.5 115.5t-123.5 40.5t-123 -40t-79.5 -115.5t-27.5 -178.5q0 -165 60 -253.5t170 -88.5
q111 0 171.5 89t60.5 253q0 103 -28 178zM246 799q47 7 91.5 37t61.5 68q14 30 38 30q13 0 22.5 -9t9.5 -22q0 -15 -17 -33q-33 -33 -86.5 -55.5t-119.5 -26.5v11z" />
    <glyph glyph-name="Obreve" unicode="&#x14e;" horiz-adv-x="700" 
d="M77 566q37 84 106.5 128.5t165.5 44.5q97 0 167 -44t107 -128t37 -200q0 -119 -37 -204t-107 -130t-167 -45q-96 0 -165.5 45t-106.5 130t-37 203q0 116 37 200zM553 545q-28 75 -80.5 115.5t-123.5 40.5t-123 -40t-79.5 -115.5t-27.5 -178.5q0 -165 60 -253.5t170 -88.5
q111 0 171.5 89t60.5 253q0 103 -28 178zM262 817q-39 30 -53 78l9 5q24 -37 56 -54.5t76 -17.5q43 0 75 17.5t56 54.5l9 -5q-14 -48 -52.5 -78t-87.5 -30t-88 30z" />
    <glyph glyph-name="Ocircumflex" unicode="&#xd4;" horiz-adv-x="700" 
d="M77 566q37 84 106.5 128.5t165.5 44.5q97 0 167 -44t107 -128t37 -200q0 -119 -37 -204t-107 -130t-167 -45q-96 0 -165.5 45t-106.5 130t-37 203q0 116 37 200zM553 545q-28 75 -80.5 115.5t-123.5 40.5t-123 -40t-79.5 -115.5t-27.5 -178.5q0 -165 60 -253.5t170 -88.5
q111 0 171.5 89t60.5 253q0 103 -28 178zM497 778q-77 17 -147 66q-68 -49 -147 -66l-1 11q44 19 83.5 57t58.5 81h12q19 -42 59 -81t83 -57z" />
    <glyph glyph-name="Odieresis" unicode="&#xd6;" horiz-adv-x="700" 
d="M77 566q37 84 106.5 128.5t165.5 44.5q97 0 167 -44t107 -128t37 -200q0 -119 -37 -204t-107 -130t-167 -45q-96 0 -165.5 45t-106.5 130t-37 203q0 116 37 200zM553 545q-28 75 -80.5 115.5t-123.5 40.5t-123 -40t-79.5 -115.5t-27.5 -178.5q0 -165 60 -253.5t170 -88.5
q111 0 171.5 89t60.5 253q0 103 -28 178zM222.5 812.5q-11.5 10.5 -11.5 27.5t11.5 28t27.5 11q17 0 27.5 -11t10.5 -28q0 -16 -11 -27t-27 -11t-27.5 10.5zM423 812.5q-11 10.5 -11 27.5t11 28t28 11q16 0 27 -11t11 -28q0 -16 -11 -27t-27 -11q-17 0 -28 10.5z" />
    <glyph glyph-name="Ograve" unicode="&#xd2;" horiz-adv-x="700" 
d="M77 566q37 84 106.5 128.5t165.5 44.5q97 0 167 -44t107 -128t37 -200q0 -119 -37 -204t-107 -130t-167 -45q-96 0 -165.5 45t-106.5 130t-37 203q0 116 37 200zM553 545q-28 75 -80.5 115.5t-123.5 40.5t-123 -40t-79.5 -115.5t-27.5 -178.5q0 -165 60 -253.5t170 -88.5
q111 0 171.5 89t60.5 253q0 103 -28 178zM333.5 814.5q-54.5 22.5 -86.5 55.5q-17 18 -17 33q0 13 9.5 22t22.5 9q24 0 38 -30q17 -38 61.5 -68t91.5 -37v-11q-65 4 -119.5 26.5z" />
    <glyph glyph-name="Ohungarumlaut" unicode="&#x150;" horiz-adv-x="700" 
d="M77 566q37 84 106.5 128.5t165.5 44.5q97 0 167 -44t107 -128t37 -200q0 -119 -37 -204t-107 -130t-167 -45q-96 0 -165.5 45t-106.5 130t-37 203q0 116 37 200zM553 545q-28 75 -80.5 115.5t-123.5 40.5t-123 -40t-79.5 -115.5t-27.5 -178.5q0 -165 60 -253.5t170 -88.5
q111 0 171.5 89t60.5 253q0 103 -28 178zM248 796q16 18 30 45t18 48q6 37 34 37q12 0 20 -8t8 -21q0 -17 -14 -37q-16 -22 -40.5 -41.5t-50.5 -29.5zM380 796q16 17 30 44t18 49q6 37 34 37q13 0 21 -8t8 -21q0 -17 -14 -37q-15 -21 -40 -41t-51 -30z" />
    <glyph glyph-name="Omacron" unicode="&#x14c;" horiz-adv-x="700" 
d="M77 566q37 84 106.5 128.5t165.5 44.5q97 0 167 -44t107 -128t37 -200q0 -119 -37 -204t-107 -130t-167 -45q-96 0 -165.5 45t-106.5 130t-37 203q0 116 37 200zM553 545q-28 75 -80.5 115.5t-123.5 40.5t-123 -40t-79.5 -115.5t-27.5 -178.5q0 -165 60 -253.5t170 -88.5
q111 0 171.5 89t60.5 253q0 103 -28 178zM213 839h273v-32h-273v32z" />
    <glyph glyph-name="Oslash" unicode="&#xd8;" horiz-adv-x="700" 
d="M152 57l-43 -57h-51l66 86q-84 101 -84 280q0 116 37 200t106.5 128.5t165.5 44.5q134 0 215 -83l53 69h51l-78 -101q70 -94 70 -257q0 -119 -37 -204t-107 -130t-167 -45q-119 0 -197 69zM167 140l356 464q-62 97 -174 97q-71 0 -123 -40t-79.5 -115.5t-27.5 -178.5
q0 -143 48 -227zM520.5 114q60.5 89 60.5 253q0 118 -38 197l-354 -461q59 -78 160 -78q111 0 171.5 89z" />
    <glyph glyph-name="Otilde" unicode="&#xd5;" horiz-adv-x="700" 
d="M77 566q37 84 106.5 128.5t165.5 44.5q97 0 167 -44t107 -128t37 -200q0 -119 -37 -204t-107 -130t-167 -45q-96 0 -165.5 45t-106.5 130t-37 203q0 116 37 200zM553 545q-28 75 -80.5 115.5t-123.5 40.5t-123 -40t-79.5 -115.5t-27.5 -178.5q0 -165 60 -253.5t170 -88.5
q111 0 171.5 89t60.5 253q0 103 -28 178zM408 791q-33 0 -83 16q-4 1 -22.5 6.5t-34.5 5.5q-38 0 -41 -32l-12 4q1 71 75 71q31 0 81 -16q39 -13 58 -13q18 0 29.5 8t13.5 24l12 -4q-1 -70 -76 -70z" />
    <glyph glyph-name="OE" unicode="&#x152;" horiz-adv-x="963" 
d="M723 344h-179v-300h264l94 109v-153h-495q-177 0 -272 93.5t-95 264.5q0 175 96.5 271t270.5 96h445v-140l-84 96h-224v-293h184l61 55v-155zM472 44v637h-65q-288 0 -288 -325q0 -160 69.5 -236t218.5 -76h65z" />
    <glyph glyph-name="P" unicode="P" horiz-adv-x="586" 
d="M111 87v568l-62 70h248q122 0 190.5 -56t68.5 -156q0 -113 -93.5 -171.5t-279.5 -59.5v-212l61 -70h-174zM183 682v-363q156 3 227 48t71 141q0 83 -49.5 128.5t-140.5 45.5h-108z" />
    <glyph glyph-name="Thorn" unicode="&#xde;" horiz-adv-x="547" 
d="M111 87v568l-62 70h175l-41 -87v-91h119q105 0 165.5 -46.5t60.5 -126.5q0 -86 -70.5 -131t-200.5 -45q-35 0 -74 3v-131l61 -70h-174zM183 504v-261q37 -5 82 -5q189 0 189 138q0 63 -40 95.5t-118 32.5h-113z" />
    <glyph glyph-name="Q" unicode="Q" horiz-adv-x="700" 
d="M557.5 -211.5q-33.5 -14.5 -95.5 -14.5q-96 0 -152 36t-56 97q0 26 10.5 49t28.5 37q-120 18 -186 115.5t-66 257.5q0 116 37 200t106.5 128.5t165.5 44.5q97 0 167 -44t107 -128t37 -200q0 -104 -34 -186.5t-96 -132.5t-144 -60q-46 -5 -68.5 -22t-22.5 -47
q0 -37 30.5 -62t76.5 -25q22 0 41.5 5.5t44.5 15.5q38 15 58 15t32 -10.5t12 -27.5q0 -27 -33.5 -41.5zM520.5 114q60.5 89 60.5 253q0 103 -28 178t-80.5 115.5t-123.5 40.5t-123 -40t-79.5 -115.5t-27.5 -178.5q0 -165 60 -253.5t170 -88.5q111 0 171.5 89z" />
    <glyph glyph-name="R" unicode="R" horiz-adv-x="591" 
d="M111 87v568l-62 70h239q124 0 188.5 -44t64.5 -129q0 -82 -58.5 -134.5t-168.5 -72.5q126 -29 187 -212q17 -51 33.5 -69.5t46.5 -18.5q-6 -51 -59 -51q-36 0 -56.5 27t-37.5 94q-29 118 -86 168.5t-159 50.5v-264l61 -70h-174zM183 682v-308h43q112 0 178 46t66 125
q0 67 -48 102t-139 35h-100z" />
    <glyph glyph-name="Racute" unicode="&#x154;" horiz-adv-x="591" 
d="M111 87v568l-62 70h239q124 0 188.5 -44t64.5 -129q0 -82 -58.5 -134.5t-168.5 -72.5q126 -29 187 -212q17 -51 33.5 -69.5t46.5 -18.5q-6 -51 -59 -51q-36 0 -56.5 27t-37.5 94q-29 118 -86 168.5t-159 50.5v-264l61 -70h-174zM183 682v-308h43q112 0 178 46t66 125
q0 67 -48 102t-139 35h-100zM207 799q47 7 91.5 37t61.5 68q14 30 38 30q13 0 22.5 -9t9.5 -22q0 -15 -17 -33q-33 -33 -86.5 -55.5t-119.5 -26.5v11z" />
    <glyph glyph-name="Rcaron" unicode="&#x158;" horiz-adv-x="591" 
d="M111 87v568l-62 70h239q124 0 188.5 -44t64.5 -129q0 -82 -58.5 -134.5t-168.5 -72.5q126 -29 187 -212q17 -51 33.5 -69.5t46.5 -18.5q-6 -51 -59 -51q-36 0 -56.5 27t-37.5 94q-29 118 -86 168.5t-159 50.5v-264l61 -70h-174zM183 682v-308h43q112 0 178 46t66 125
q0 67 -48 102t-139 35h-100zM459 918v-11q-44 -19 -83.5 -57.5t-57.5 -80.5h-13q-18 42 -58 81t-83 57l1 11q77 -17 147 -66q68 49 147 66z" />
    <glyph glyph-name="uni0156" unicode="&#x156;" horiz-adv-x="591" 
d="M111 87v568l-62 70h239q124 0 188.5 -44t64.5 -129q0 -82 -58.5 -134.5t-168.5 -72.5q126 -29 187 -212q17 -51 33.5 -69.5t46.5 -18.5q-6 -51 -59 -51q-36 0 -56.5 27t-37.5 94q-29 118 -86 168.5t-159 50.5v-264l61 -70h-174zM183 682v-308h43q112 0 178 46t66 125
q0 67 -48 102t-139 35h-100zM277 -271q28 22 43 54.5t13 64.5h-11q-21 0 -35.5 13.5t-14.5 33.5t14.5 34t34.5 14q26 0 43 -22.5t17 -55.5q0 -42 -26 -82t-68 -66z" />
    <glyph glyph-name="S" unicode="S" horiz-adv-x="629" 
d="M160 108q62 -37 120.5 -56.5t103.5 -19.5q60 0 95 34t35 94q0 35 -15 60t-50 48.5t-99 52.5l-101 44q-98 42 -144 93t-46 116q0 73 49.5 119t128.5 46q49 0 100 -19t96 -54l93 59v-172l-70 51q-126 93 -220 93q-52 0 -81.5 -28.5t-29.5 -78.5q0 -48 34.5 -82.5
t121.5 -72.5l98 -42q108 -47 154.5 -96t46.5 -116q0 -55 -27 -99t-75 -69t-108 -25q-51 0 -105.5 17.5t-99.5 48.5l-88 -64v168z" />
    <glyph glyph-name="Sacute" unicode="&#x15a;" horiz-adv-x="629" 
d="M160 108q62 -37 120.5 -56.5t103.5 -19.5q60 0 95 34t35 94q0 35 -15 60t-50 48.5t-99 52.5l-101 44q-98 42 -144 93t-46 116q0 73 49.5 119t128.5 46q49 0 100 -19t96 -54l93 59v-172l-70 51q-126 93 -220 93q-52 0 -81.5 -28.5t-29.5 -78.5q0 -48 34.5 -82.5
t121.5 -72.5l98 -42q108 -47 154.5 -96t46.5 -116q0 -55 -27 -99t-75 -69t-108 -25q-51 0 -105.5 17.5t-99.5 48.5l-88 -64v168zM196 799q47 7 91.5 37t61.5 68q14 30 38 30q13 0 22.5 -9t9.5 -22q0 -15 -17 -33q-33 -33 -86.5 -55.5t-119.5 -26.5v11z" />
    <glyph glyph-name="Scaron" unicode="&#x160;" horiz-adv-x="629" 
d="M160 108q62 -37 120.5 -56.5t103.5 -19.5q60 0 95 34t35 94q0 35 -15 60t-50 48.5t-99 52.5l-101 44q-98 42 -144 93t-46 116q0 73 49.5 119t128.5 46q49 0 100 -19t96 -54l93 59v-172l-70 51q-126 93 -220 93q-52 0 -81.5 -28.5t-29.5 -78.5q0 -48 34.5 -82.5
t121.5 -72.5l98 -42q108 -47 154.5 -96t46.5 -116q0 -55 -27 -99t-75 -69t-108 -25q-51 0 -105.5 17.5t-99.5 48.5l-88 -64v168zM447 918v-11q-44 -19 -83.5 -57.5t-57.5 -80.5h-13q-18 42 -58 81t-83 57l1 11q77 -17 147 -66q68 49 147 66z" />
    <glyph glyph-name="Scedilla" unicode="&#x15e;" horiz-adv-x="629" 
d="M366 -12l-23 -50q41 -4 66.5 -27.5t25.5 -56.5q0 -38 -33.5 -62t-84.5 -24q-32 0 -60 8l2 10q21 -3 38 -3q44 0 67.5 16t23.5 47q0 30 -24.5 45.5t-71.5 15.5l43 83q-44 5 -88.5 21.5t-81.5 42.5l-88 -64v168l83 -50q62 -37 120.5 -56.5t103.5 -19.5q60 0 95 34t35 94
q0 35 -15 60t-50 48.5t-99 52.5l-101 44q-98 42 -144 93t-46 116q0 73 49.5 119t128.5 46q49 0 100 -19t96 -54l93 59v-172l-70 51q-126 93 -220 93q-52 0 -81.5 -28.5t-29.5 -78.5q0 -48 34.5 -82.5t121.5 -72.5l98 -42q108 -47 154.5 -96t46.5 -116q0 -55 -27 -99t-75 -69
t-108 -25h-4z" />
    <glyph glyph-name="Scircumflex" unicode="&#x15c;" horiz-adv-x="629" 
d="M160 108q62 -37 120.5 -56.5t103.5 -19.5q60 0 95 34t35 94q0 35 -15 60t-50 48.5t-99 52.5l-101 44q-98 42 -144 93t-46 116q0 73 49.5 119t128.5 46q49 0 100 -19t96 -54l93 59v-172l-70 51q-126 93 -220 93q-52 0 -81.5 -28.5t-29.5 -78.5q0 -48 34.5 -82.5
t121.5 -72.5l98 -42q108 -47 154.5 -96t46.5 -116q0 -55 -27 -99t-75 -69t-108 -25q-51 0 -105.5 17.5t-99.5 48.5l-88 -64v168zM446 778q-77 17 -147 66q-68 -49 -147 -66l-1 11q44 19 83.5 57t58.5 81h12q19 -42 59 -81t83 -57z" />
    <glyph glyph-name="uni0218" unicode="&#x218;" horiz-adv-x="629" 
d="M160 108q62 -37 120.5 -56.5t103.5 -19.5q60 0 95 34t35 94q0 35 -15 60t-50 48.5t-99 52.5l-101 44q-98 42 -144 93t-46 116q0 73 49.5 119t128.5 46q49 0 100 -19t96 -54l93 59v-172l-70 51q-126 93 -220 93q-52 0 -81.5 -28.5t-29.5 -78.5q0 -48 34.5 -82.5
t121.5 -72.5l98 -42q108 -47 154.5 -96t46.5 -116q0 -55 -27 -99t-75 -69t-108 -25q-51 0 -105.5 17.5t-99.5 48.5l-88 -64v168zM313 -271q28 22 43 54.5t13 64.5h-11q-21 0 -35.5 13.5t-14.5 33.5t14.5 34t34.5 14q26 0 43 -22.5t17 -55.5q0 -42 -26 -82t-68 -66z" />
    <glyph glyph-name="uni1E9E" unicode="&#x1e9e;" horiz-adv-x="710" 
d="M110 85v400h-97v45h98q9 103 71.5 156t175.5 53q83 0 144.5 -29.5t107.5 -90.5l-206 -160q131 0 203.5 -64t72.5 -177q0 -67 -25 -118.5t-68 -80.5t-96 -29q-62 0 -113 40l-111 -40v168l68 -59q77 -67 144 -67q58 0 91 47t33 136q0 78 -29.5 124t-93 66.5t-170.5 20.5
l230 181q-34 51 -81 75.5t-109 24.5q-89 0 -129.5 -52t-40.5 -167v-488h-110z" />
    <glyph glyph-name="T" unicode="T" horiz-adv-x="588" 
d="M259 87v594h-139l-90 -107v151h528v-151l-90 107h-137v-611l61 -70h-174z" />
    <glyph glyph-name="Tbar" unicode="&#x166;" horiz-adv-x="588" 
d="M259 87v277h-128v37h128v280h-139l-90 -107v151h528v-151l-90 107h-137v-280h127v-37h-127v-294l61 -70h-174z" />
    <glyph glyph-name="Tcaron" unicode="&#x164;" horiz-adv-x="588" 
d="M259 87v594h-139l-90 -107v151h528v-151l-90 107h-137v-611l61 -70h-174zM441 918v-11q-44 -19 -83.5 -57.5t-57.5 -80.5h-13q-18 42 -58 81t-83 57l1 11q77 -17 147 -66q68 49 147 66z" />
    <glyph glyph-name="uni0162" unicode="&#x162;" horiz-adv-x="588" 
d="M558 725v-151l-90 107h-137v-611l61 -70h-87l-29 -62q41 -4 66.5 -27.5t25.5 -56.5q0 -38 -33.5 -62t-84.5 -24q-32 0 -60 8l2 10q21 -3 38 -3q44 0 67.5 16t23.5 47q0 30 -24.5 45.5t-71.5 15.5l48 93h-55l41 87v594h-139l-90 -107v151h528z" />
    <glyph glyph-name="uni021A" unicode="&#x21a;" horiz-adv-x="588" 
d="M259 87v594h-139l-90 -107v151h528v-151l-90 107h-137v-611l61 -70h-174zM246 -271q28 22 43 54.5t13 64.5h-11q-21 0 -35.5 13.5t-14.5 33.5t14.5 34t34.5 14q26 0 43 -22.5t17 -55.5q0 -42 -26 -82t-68 -66z" />
    <glyph glyph-name="U" unicode="U" horiz-adv-x="686" 
d="M101 655l-62 70h175l-41 -87v-369q0 -227 192 -227q95 0 141 58t46 178v377l-61 70h144l-40 -87v-361q0 -289 -245 -289q-122 0 -185.5 70.5t-63.5 204.5v392z" />
    <glyph glyph-name="Uacute" unicode="&#xda;" horiz-adv-x="686" 
d="M101 655l-62 70h175l-41 -87v-369q0 -227 192 -227q95 0 141 58t46 178v377l-61 70h144l-40 -87v-361q0 -289 -245 -289q-122 0 -185.5 70.5t-63.5 204.5v392zM251 799q47 7 91.5 37t61.5 68q14 30 38 30q13 0 22.5 -9t9.5 -22q0 -15 -17 -33q-33 -33 -86.5 -55.5
t-119.5 -26.5v11z" />
    <glyph glyph-name="Ubreve" unicode="&#x16c;" horiz-adv-x="686" 
d="M101 655l-62 70h175l-41 -87v-369q0 -227 192 -227q95 0 141 58t46 178v377l-61 70h144l-40 -87v-361q0 -289 -245 -289q-122 0 -185.5 70.5t-63.5 204.5v392zM267 817q-39 30 -53 78l9 5q24 -37 56 -54.5t76 -17.5q43 0 75 17.5t56 54.5l9 -5q-14 -48 -52.5 -78
t-87.5 -30t-88 30z" />
    <glyph glyph-name="Ucircumflex" unicode="&#xdb;" horiz-adv-x="686" 
d="M101 655l-62 70h175l-41 -87v-369q0 -227 192 -227q95 0 141 58t46 178v377l-61 70h144l-40 -87v-361q0 -289 -245 -289q-122 0 -185.5 70.5t-63.5 204.5v392zM501 778q-77 17 -147 66q-68 -49 -147 -66l-1 11q44 19 83.5 57t58.5 81h12q19 -42 59 -81t83 -57z" />
    <glyph glyph-name="Udieresis" unicode="&#xdc;" horiz-adv-x="686" 
d="M101 655l-62 70h175l-41 -87v-369q0 -227 192 -227q95 0 141 58t46 178v377l-61 70h144l-40 -87v-361q0 -289 -245 -289q-122 0 -185.5 70.5t-63.5 204.5v392zM227.5 812.5q-11.5 10.5 -11.5 27.5t11.5 28t27.5 11q17 0 27.5 -11t10.5 -28q0 -16 -11 -27t-27 -11
t-27.5 10.5zM428 812.5q-11 10.5 -11 27.5t11 28t28 11q16 0 27 -11t11 -28q0 -16 -11 -27t-27 -11q-17 0 -28 10.5z" />
    <glyph glyph-name="Ugrave" unicode="&#xd9;" horiz-adv-x="686" 
d="M101 655l-62 70h175l-41 -87v-369q0 -227 192 -227q95 0 141 58t46 178v377l-61 70h144l-40 -87v-361q0 -289 -245 -289q-122 0 -185.5 70.5t-63.5 204.5v392zM337.5 814.5q-54.5 22.5 -86.5 55.5q-17 18 -17 33q0 13 9.5 22t22.5 9q24 0 38 -30q17 -38 61.5 -68
t91.5 -37v-11q-65 4 -119.5 26.5z" />
    <glyph glyph-name="Uhungarumlaut" unicode="&#x170;" horiz-adv-x="686" 
d="M101 655l-62 70h175l-41 -87v-369q0 -227 192 -227q95 0 141 58t46 178v377l-61 70h144l-40 -87v-361q0 -289 -245 -289q-122 0 -185.5 70.5t-63.5 204.5v392zM252 796q16 18 30 45t18 48q6 37 34 37q12 0 20 -8t8 -21q0 -17 -14 -37q-16 -22 -40.5 -41.5t-50.5 -29.5z
M384 796q16 17 30 44t18 49q6 37 34 37q13 0 21 -8t8 -21q0 -17 -14 -37q-15 -21 -40 -41t-51 -30z" />
    <glyph glyph-name="Umacron" unicode="&#x16a;" horiz-adv-x="686" 
d="M101 655l-62 70h175l-41 -87v-369q0 -227 192 -227q95 0 141 58t46 178v377l-61 70h144l-40 -87v-361q0 -289 -245 -289q-122 0 -185.5 70.5t-63.5 204.5v392zM218 839h273v-32h-273v32z" />
    <glyph glyph-name="Uogonek" unicode="&#x172;" horiz-adv-x="686" 
d="M101 655l-62 70h175l-41 -87v-369q0 -227 192 -227q95 0 141 58t46 178v377l-61 70h144l-40 -87v-361q0 -92 -23 -151.5t-72 -98.5q-67 -54 -67 -135q0 -39 15.5 -61.5t50.5 -34.5l-5 -9q-50 1 -80 29t-30 75q0 31 13 58.5t38 49.5q-39 -11 -85 -11q-122 0 -185.5 70.5
t-63.5 204.5v392z" />
    <glyph glyph-name="Uring" unicode="&#x16e;" horiz-adv-x="686" 
d="M101 655l-62 70h175l-41 -87v-369q0 -227 192 -227q95 0 141 58t46 178v377l-61 70h144l-40 -87v-361q0 -289 -245 -289q-122 0 -185.5 70.5t-63.5 204.5v392zM294.5 793q-23.5 24 -23.5 60t23.5 60t59.5 24t60 -24t24 -60t-24 -60t-60 -24t-59.5 24zM399.5 807
q18.5 18 18.5 46t-18.5 46t-46.5 18q-27 0 -45 -18t-18 -46t18 -46t45 -18q28 0 46.5 18z" />
    <glyph glyph-name="Utilde" unicode="&#x168;" horiz-adv-x="686" 
d="M101 655l-62 70h175l-41 -87v-369q0 -227 192 -227q95 0 141 58t46 178v377l-61 70h144l-40 -87v-361q0 -289 -245 -289q-122 0 -185.5 70.5t-63.5 204.5v392zM413 791q-33 0 -83 16q-4 1 -22.5 6.5t-34.5 5.5q-38 0 -41 -32l-12 4q1 71 75 71q31 0 81 -16q39 -13 58 -13
q18 0 29.5 8t13.5 24l12 -4q-1 -70 -76 -70z" />
    <glyph glyph-name="V" unicode="V" horiz-adv-x="603" 
d="M74 639l-74 86h187l-37 -80l186 -573l175 569l-74 84h156l-34 -75l-200 -650h-79z" />
    <glyph glyph-name="W" unicode="W" horiz-adv-x="920" 
d="M150 645l175 -571l122 414l-48 151l-73 86h182l-37 -80l182 -579l174 575l-73 84h156l-33 -74l-199 -651h-78l-130 414l-123 -414h-78l-196 639l-73 86h187z" />
    <glyph glyph-name="Wacute" unicode="&#x1e82;" horiz-adv-x="920" 
d="M150 645l175 -571l122 414l-48 151l-73 86h182l-37 -80l182 -579l174 575l-73 84h156l-33 -74l-199 -651h-78l-130 414l-123 -414h-78l-196 639l-73 86h187zM355 799q47 7 91.5 37t61.5 68q14 30 38 30q13 0 22.5 -9t9.5 -22q0 -15 -17 -33q-33 -33 -86.5 -55.5
t-119.5 -26.5v11z" />
    <glyph glyph-name="Wcircumflex" unicode="&#x174;" horiz-adv-x="920" 
d="M150 645l175 -571l122 414l-48 151l-73 86h182l-37 -80l182 -579l174 575l-73 84h156l-33 -74l-199 -651h-78l-130 414l-123 -414h-78l-196 639l-73 86h187zM606 778q-77 17 -147 66q-68 -49 -147 -66l-1 11q44 19 83.5 57t58.5 81h12q19 -42 59 -81t83 -57z" />
    <glyph glyph-name="Wdieresis" unicode="&#x1e84;" horiz-adv-x="920" 
d="M307 813q-12 11 -12 27q0 17 11.5 28t27.5 11t27 -10.5t11 -28.5q0 -16 -11 -27t-27 -11q-15 0 -27 11zM550.5 813q-11.5 11 -11.5 27q0 17 11.5 28t27.5 11t27 -10.5t11 -28.5q0 -16 -11 -27t-27 -11t-27.5 11zM150 645l175 -571l122 414l-48 151l-73 86h182l-37 -80
l182 -579l174 575l-73 84h156l-33 -74l-199 -651h-78l-130 414l-123 -414h-78l-196 639l-73 86h187z" />
    <glyph glyph-name="Wgrave" unicode="&#x1e80;" horiz-adv-x="920" 
d="M150 645l175 -571l122 414l-48 151l-73 86h182l-37 -80l182 -579l174 575l-73 84h156l-33 -74l-199 -651h-78l-130 414l-123 -414h-78l-196 639l-73 86h187zM441.5 814.5q-54.5 22.5 -86.5 55.5q-17 18 -17 33q0 13 9.5 22t22.5 9q24 0 38 -30q17 -38 61.5 -68t91.5 -37
v-11q-65 4 -119.5 26.5z" />
    <glyph glyph-name="X" unicode="X" horiz-adv-x="591" 
d="M0 0l253 358l-248 367h183l-41 -82l158 -232l168 246l-63 68h163l-244 -352l252 -373h-182l41 82l-162 239l-174 -250l65 -71h-169z" />
    <glyph glyph-name="Y" unicode="Y" horiz-adv-x="589" 
d="M266 87v261l-187 284l-79 93h199l-40 -84l162 -247l164 261l-62 70h155l-240 -382v-273l62 -70h-174z" />
    <glyph glyph-name="Yacute" unicode="&#xdd;" horiz-adv-x="589" 
d="M266 87v261l-187 284l-79 93h199l-40 -84l162 -247l164 261l-62 70h155l-240 -382v-273l62 -70h-174zM213 799q47 7 91.5 37t61.5 68q14 30 38 30q13 0 22.5 -9t9.5 -22q0 -15 -17 -33q-33 -33 -86.5 -55.5t-119.5 -26.5v11z" />
    <glyph glyph-name="Ycircumflex" unicode="&#x176;" horiz-adv-x="589" 
d="M266 87v261l-187 284l-79 93h199l-40 -84l162 -247l164 261l-62 70h155l-240 -382v-273l62 -70h-174zM464 778q-77 17 -147 66q-68 -49 -147 -66l-1 11q44 19 83.5 57t58.5 81h12q19 -42 59 -81t83 -57z" />
    <glyph glyph-name="Ydieresis" unicode="&#x178;" horiz-adv-x="589" 
d="M266 87v261l-187 284l-79 93h199l-40 -84l162 -247l164 261l-62 70h155l-240 -382v-273l62 -70h-174zM189.5 812.5q-11.5 10.5 -11.5 27.5t11.5 28t27.5 11q17 0 27.5 -11t10.5 -28q0 -16 -11 -27t-27 -11t-27.5 10.5zM390 812.5q-11 10.5 -11 27.5t11 28t28 11
q16 0 27 -11t11 -28q0 -16 -11 -27t-27 -11q-17 0 -28 10.5z" />
    <glyph glyph-name="Ygrave" unicode="&#x1ef2;" horiz-adv-x="589" 
d="M266 87v261l-187 284l-79 93h199l-40 -84l162 -247l164 261l-62 70h155l-240 -382v-273l62 -70h-174zM300.5 814.5q-54.5 22.5 -86.5 55.5q-17 18 -17 33q0 13 9.5 22t22.5 9q24 0 38 -30q17 -38 61.5 -68t91.5 -37v-11q-65 4 -119.5 26.5z" />
    <glyph glyph-name="Z" unicode="Z" horiz-adv-x="662" 
d="M94 725h506l-438 -682h317l121 132v-175h-550l439 682h-283l-112 -131v174z" />
    <glyph glyph-name="Zacute" unicode="&#x179;" horiz-adv-x="662" 
d="M94 725h506l-438 -682h317l121 132v-175h-550l439 682h-283l-112 -131v174zM250 799q47 7 91.5 37t61.5 68q14 30 38 30q13 0 22.5 -9t9.5 -22q0 -15 -17 -33q-33 -33 -86.5 -55.5t-119.5 -26.5v11z" />
    <glyph glyph-name="Zcaron" unicode="&#x17d;" horiz-adv-x="662" 
d="M94 725h506l-438 -682h317l121 132v-175h-550l439 682h-283l-112 -131v174zM502 918v-11q-44 -19 -83.5 -57.5t-57.5 -80.5h-13q-18 42 -58 81t-83 57l1 11q77 -17 147 -66q68 49 147 66z" />
    <glyph glyph-name="Zdotaccent" unicode="&#x17b;" horiz-adv-x="662" 
d="M94 725h506l-438 -682h317l121 132v-175h-550l439 682h-283l-112 -131v174zM322 826q-13 13 -13 33t13 33t32 13q20 0 33 -13t13 -33t-13 -33t-33 -13q-19 0 -32 13z" />
    <glyph glyph-name="uni01B5" unicode="&#x1b5;" horiz-adv-x="662" 
d="M479 43l121 132v-175h-550l222 345h-139v36h162l194 301h-283l-112 -131v174h506l-221 -344h139v-36h-162l-194 -302h317z" />
    <glyph glyph-name="R.ss03" horiz-adv-x="657" 
d="M113 94v551l-62 80h239q128 0 197 -45t69 -128t-68 -139t-193 -76q68 -4 111 -35q33 -25 53 -69t30 -113q8 -55 20 -76.5t37 -21.5q32 0 32 37q0 17 -5 31t-6 16q-9 20 -9 34q0 18 9.5 28.5t25.5 10.5q20 0 31 -19.5t11 -57.5q0 -56 -26 -85t-77 -29q-53 0 -82 34.5
t-43 114.5q-12 71 -36 110.5t-68 56.5t-118 17v-245l61 -76h-174zM185 682v-318q293 3 293 183q0 70 -46 102.5t-147 32.5h-100z" />
    <glyph glyph-name="Racute.ss03" horiz-adv-x="657" 
d="M113 94v551l-62 80h239q128 0 197 -45t69 -128t-68 -139t-193 -76q68 -4 111 -35q33 -25 53 -69t30 -113q8 -55 20 -76.5t37 -21.5q32 0 32 37q0 17 -5 31t-6 16q-9 20 -9 34q0 18 9.5 28.5t25.5 10.5q20 0 31 -19.5t11 -57.5q0 -56 -26 -85t-77 -29q-53 0 -82 34.5
t-43 114.5q-12 71 -36 110.5t-68 56.5t-118 17v-245l61 -76h-174zM185 682v-318q293 3 293 183q0 70 -46 102.5t-147 32.5h-100zM222 799q47 7 91.5 37t61.5 68q14 30 38 30q13 0 22.5 -9t9.5 -22q0 -15 -17 -33q-33 -33 -86.5 -55.5t-119.5 -26.5v11z" />
    <glyph glyph-name="Rcaron.ss03" horiz-adv-x="657" 
d="M113 94v551l-62 80h239q128 0 197 -45t69 -128t-68 -139t-193 -76q68 -4 111 -35q33 -25 53 -69t30 -113q8 -55 20 -76.5t37 -21.5q32 0 32 37q0 17 -5 31t-6 16q-9 20 -9 34q0 18 9.5 28.5t25.5 10.5q20 0 31 -19.5t11 -57.5q0 -56 -26 -85t-77 -29q-53 0 -82 34.5
t-43 114.5q-12 71 -36 110.5t-68 56.5t-118 17v-245l61 -76h-174zM185 682v-318q293 3 293 183q0 70 -46 102.5t-147 32.5h-100zM473 918v-11q-44 -19 -83.5 -57.5t-57.5 -80.5h-13q-18 42 -58 81t-83 57l1 11q77 -17 147 -66q68 49 147 66z" />
    <glyph glyph-name="uni0156.ss03" horiz-adv-x="657" 
d="M113 94v551l-62 80h239q128 0 197 -45t69 -128t-68 -139t-193 -76q68 -4 111 -35q33 -25 53 -69t30 -113q8 -55 20 -76.5t37 -21.5q32 0 32 37q0 17 -5 31t-6 16q-9 20 -9 34q0 18 9.5 28.5t25.5 10.5q20 0 31 -19.5t11 -57.5q0 -56 -26 -85t-77 -29q-53 0 -82 34.5
t-43 114.5q-12 71 -36 110.5t-68 56.5t-118 17v-245l61 -76h-174zM185 682v-318q293 3 293 183q0 70 -46 102.5t-147 32.5h-100zM297 -271q28 22 43 55t13 65h-11q-21 0 -35.5 13.5t-14.5 32.5q0 20 14.5 34t34.5 14q26 0 43 -22.5t17 -55.5q0 -41 -26 -81t-68 -66z" />
    <glyph glyph-name="a" unicode="a" horiz-adv-x="532" 
d="M86.5 26.5q-46.5 38.5 -46.5 104.5q0 96 110 136q79 29 222 29v47q0 170 -136 170q-53 0 -82 -26t-31 -76q-2 -52 -34 -52q-16 0 -25 13.5t-9 36.5q0 39 24 71t67 50t96 18q94 0 147 -54.5t53 -151.5v-240q0 -51 33 -51q13 0 21 5l5 -4q-4 -24 -19.5 -38t-39.5 -14
q-28 0 -46.5 19.5t-20.5 50.5q-21 -40 -62.5 -61t-99.5 -21q-80 0 -126.5 38.5zM316.5 51q35.5 21 55.5 59v161q-55 0 -110 -9.5t-87 -23.5q-62 -27 -62 -96q0 -50 34 -81t89 -31q45 0 80.5 21z" />
    <glyph glyph-name="aacute" unicode="&#xe1;" horiz-adv-x="532" 
d="M86.5 26.5q-46.5 38.5 -46.5 104.5q0 96 110 136q79 29 222 29v47q0 170 -136 170q-53 0 -82 -26t-31 -76q-2 -52 -34 -52q-16 0 -25 13.5t-9 36.5q0 39 24 71t67 50t96 18q94 0 147 -54.5t53 -151.5v-240q0 -51 33 -51q13 0 21 5l5 -4q-4 -24 -19.5 -38t-39.5 -14
q-28 0 -46.5 19.5t-20.5 50.5q-21 -40 -62.5 -61t-99.5 -21q-80 0 -126.5 38.5zM316.5 51q35.5 21 55.5 59v161q-55 0 -110 -9.5t-87 -23.5q-62 -27 -62 -96q0 -50 34 -81t89 -31q45 0 80.5 21zM153 609q43 8 79 32.5t54 59.5q16 34 41 34q13 0 21.5 -9t8.5 -23
q0 -16 -15 -31q-25 -31 -74.5 -50.5t-114.5 -23.5v11z" />
    <glyph glyph-name="abreve" unicode="&#x103;" horiz-adv-x="532" 
d="M86.5 26.5q-46.5 38.5 -46.5 104.5q0 96 110 136q79 29 222 29v47q0 170 -136 170q-53 0 -82 -26t-31 -76q-2 -52 -34 -52q-16 0 -25 13.5t-9 36.5q0 39 24 71t67 50t96 18q94 0 147 -54.5t53 -151.5v-240q0 -51 33 -51q13 0 21 5l5 -4q-4 -24 -19.5 -38t-39.5 -14
q-28 0 -46.5 19.5t-20.5 50.5q-21 -40 -62.5 -61t-99.5 -21q-80 0 -126.5 38.5zM316.5 51q35.5 21 55.5 59v161q-55 0 -110 -9.5t-87 -23.5q-62 -27 -62 -96q0 -50 34 -81t89 -31q45 0 80.5 21zM106 714h11q17 -41 47 -60.5t79 -19.5q48 0 77 18.5t47 61.5h11
q-11 -61 -44.5 -91t-90.5 -30q-113 0 -137 121z" />
    <glyph glyph-name="acircumflex" unicode="&#xe2;" horiz-adv-x="532" 
d="M86.5 26.5q-46.5 38.5 -46.5 104.5q0 96 110 136q79 29 222 29v47q0 170 -136 170q-53 0 -82 -26t-31 -76q-2 -52 -34 -52q-16 0 -25 13.5t-9 36.5q0 39 24 71t67 50t96 18q94 0 147 -54.5t53 -151.5v-240q0 -51 33 -51q13 0 21 5l5 -4q-4 -24 -19.5 -38t-39.5 -14
q-28 0 -46.5 19.5t-20.5 50.5q-21 -40 -62.5 -61t-99.5 -21q-80 0 -126.5 38.5zM316.5 51q35.5 21 55.5 59v161q-55 0 -110 -9.5t-87 -23.5q-62 -27 -62 -96q0 -50 34 -81t89 -31q45 0 80.5 21zM308.5 610.5q-33.5 12.5 -65.5 31.5q-31 -18 -65.5 -31t-82.5 -23l-1 11
q50 22 88 56.5t54 73.5h13q16 -39 54.5 -74t87.5 -56l-1 -11q-48 10 -81.5 22.5z" />
    <glyph glyph-name="adieresis" unicode="&#xe4;" horiz-adv-x="532" 
d="M86.5 26.5q-46.5 38.5 -46.5 104.5q0 96 110 136q79 29 222 29v47q0 170 -136 170q-53 0 -82 -26t-31 -76q-2 -52 -34 -52q-16 0 -25 13.5t-9 36.5q0 39 24 71t67 50t96 18q94 0 147 -54.5t53 -151.5v-240q0 -51 33 -51q13 0 21 5l5 -4q-4 -24 -19.5 -38t-39.5 -14
q-28 0 -46.5 19.5t-20.5 50.5q-21 -40 -62.5 -61t-99.5 -21q-80 0 -126.5 38.5zM316.5 51q35.5 21 55.5 59v161q-55 0 -110 -9.5t-87 -23.5q-62 -27 -62 -96q0 -50 34 -81t89 -31q45 0 80.5 21zM179 678.5q11 -11.5 11 -28.5q0 -16 -11 -27t-28 -11t-28 11t-11 27
q0 17 11 28.5t28 11.5t28 -11.5zM363 678.5q11 -11.5 11 -28.5q0 -16 -11 -27t-27 -11q-17 0 -28 10.5t-11 27.5t11 28.5t28 11.5q16 0 27 -11.5z" />
    <glyph glyph-name="agrave" unicode="&#xe0;" horiz-adv-x="532" 
d="M86.5 26.5q-46.5 38.5 -46.5 104.5q0 96 110 136q79 29 222 29v47q0 170 -136 170q-53 0 -82 -26t-31 -76q-2 -52 -34 -52q-16 0 -25 13.5t-9 36.5q0 39 24 71t67 50t96 18q94 0 147 -54.5t53 -151.5v-240q0 -51 33 -51q13 0 21 5l5 -4q-4 -24 -19.5 -38t-39.5 -14
q-28 0 -46.5 19.5t-20.5 50.5q-21 -40 -62.5 -61t-99.5 -21q-80 0 -126.5 38.5zM316.5 51q35.5 21 55.5 59v161q-55 0 -110 -9.5t-87 -23.5q-62 -27 -62 -96q0 -50 34 -81t89 -31q45 0 80.5 21zM216 621.5q-49 19.5 -75 50.5q-15 17 -15 31t9 23t22 9q23 0 41 -34
q17 -35 53 -59.5t79 -32.5v-11q-65 4 -114 23.5z" />
    <glyph glyph-name="amacron" unicode="&#x101;" horiz-adv-x="532" 
d="M86.5 26.5q-46.5 38.5 -46.5 104.5q0 96 110 136q79 29 222 29v47q0 170 -136 170q-53 0 -82 -26t-31 -76q-2 -52 -34 -52q-16 0 -25 13.5t-9 36.5q0 39 24 71t67 50t96 18q94 0 147 -54.5t53 -151.5v-240q0 -51 33 -51q13 0 21 5l5 -4q-4 -24 -19.5 -38t-39.5 -14
q-28 0 -46.5 19.5t-20.5 50.5q-21 -40 -62.5 -61t-99.5 -21q-80 0 -126.5 38.5zM316.5 51q35.5 21 55.5 59v161q-55 0 -110 -9.5t-87 -23.5q-62 -27 -62 -96q0 -50 34 -81t89 -31q45 0 80.5 21zM106 649h273v-32h-273v32z" />
    <glyph glyph-name="aogonek" unicode="&#x105;" horiz-adv-x="532" 
d="M418 -184q-30 28 -30 75q0 31 13.5 59.5t38.5 49.5q-28 1 -45.5 20t-19.5 50q-21 -40 -62.5 -61t-99.5 -21q-80 0 -126.5 38.5t-46.5 104.5q0 96 110 136q79 29 222 29v47q0 170 -136 170q-53 0 -82 -26t-31 -76q-2 -52 -34 -52q-16 0 -25 13.5t-9 36.5q0 39 24 71t67 50
t96 18q93 0 146.5 -54.5t53.5 -151.5v-240q0 -51 34 -51q12 0 20 5l5 -4q-5 -23 -20 -39q-20 -21 -31.5 -53.5t-11.5 -68.5q0 -38 15.5 -60.5t49.5 -34.5l-5 -9q-50 1 -80 29zM372 271q-55 0 -110 -9.5t-87 -23.5q-62 -27 -62 -96q0 -50 34 -81t89 -31q45 0 80.5 21t55.5 59
v161z" />
    <glyph glyph-name="aring" unicode="&#xe5;" horiz-adv-x="532" 
d="M86.5 26.5q-46.5 38.5 -46.5 104.5q0 96 110 136q79 29 222 29v47q0 170 -136 170q-53 0 -82 -26t-31 -76q-2 -52 -34 -52q-16 0 -25 13.5t-9 36.5q0 39 24 71t67 50t96 18q94 0 147 -54.5t53 -151.5v-240q0 -51 33 -51q13 0 21 5l5 -4q-4 -24 -19.5 -38t-39.5 -14
q-28 0 -46.5 19.5t-20.5 50.5q-21 -40 -62.5 -61t-99.5 -21q-80 0 -126.5 38.5zM316.5 51q35.5 21 55.5 59v161q-55 0 -110 -9.5t-87 -23.5q-62 -27 -62 -96q0 -50 34 -81t89 -31q45 0 80.5 21zM182.5 603q-23.5 24 -23.5 60t23.5 60t59.5 24t60 -24t24 -60t-24 -60t-60 -24
t-59.5 24zM287.5 617q18.5 18 18.5 46t-18.5 46t-46.5 18q-27 0 -45 -18t-18 -46t18 -46t45 -18q28 0 46.5 18z" />
    <glyph glyph-name="atilde" unicode="&#xe3;" horiz-adv-x="532" 
d="M86.5 26.5q-46.5 38.5 -46.5 104.5q0 96 110 136q79 29 222 29v47q0 170 -136 170q-53 0 -82 -26t-31 -76q-2 -52 -34 -52q-16 0 -25 13.5t-9 36.5q0 39 24 71t67 50t96 18q94 0 147 -54.5t53 -151.5v-240q0 -51 33 -51q13 0 21 5l5 -4q-4 -24 -19.5 -38t-39.5 -14
q-28 0 -46.5 19.5t-20.5 50.5q-21 -40 -62.5 -61t-99.5 -21q-80 0 -126.5 38.5zM316.5 51q35.5 21 55.5 59v161q-55 0 -110 -9.5t-87 -23.5q-62 -27 -62 -96q0 -50 34 -81t89 -31q45 0 80.5 21zM301 610q-33 0 -83 16q-4 1 -22.5 6.5t-34.5 5.5q-38 0 -41 -32l-12 4
q1 71 75 71q31 0 81 -16q39 -13 58 -13q18 0 29.5 8t13.5 24l12 -4q-1 -70 -76 -70z" />
    <glyph glyph-name="ae" unicode="&#xe6;" horiz-adv-x="887" 
d="M442 267q2 -113 55.5 -172.5t152.5 -59.5q54 0 96 21t93 74l8 -5q-37 -68 -94.5 -102.5t-132.5 -34.5q-80 0 -138 38t-85 107q-17 -72 -63.5 -108.5t-119.5 -36.5q-78 0 -126 39.5t-48 103.5q0 48 28.5 83t83.5 54q38 13 95.5 20.5t124.5 7.5v47q0 170 -136 170
q-53 0 -82 -26t-31 -76q-2 -52 -34 -52q-16 0 -25 13.5t-9 36.5q0 39 24 71t66.5 50t94.5 18q66 0 113 -29.5t69 -83.5q32 54 84 83.5t117 29.5q103 0 157 -71.5t53 -209.5h-391zM494.5 453q-45.5 -53 -51.5 -150h322q0 100 -38 151.5t-111 51.5q-76 0 -121.5 -53zM372 271
q-61 0 -114.5 -9t-84.5 -25q-60 -28 -60 -97q0 -50 32 -80t85 -30q69 0 105.5 52t36.5 151v38z" />
    <glyph glyph-name="aeacute" unicode="&#x1fd;" horiz-adv-x="887" 
d="M442 267q2 -113 55.5 -172.5t152.5 -59.5q54 0 96 21t93 74l8 -5q-37 -68 -94.5 -102.5t-132.5 -34.5q-80 0 -138 38t-85 107q-17 -72 -63.5 -108.5t-119.5 -36.5q-78 0 -126 39.5t-48 103.5q0 48 28.5 83t83.5 54q38 13 95.5 20.5t124.5 7.5v47q0 170 -136 170
q-53 0 -82 -26t-31 -76q-2 -52 -34 -52q-16 0 -25 13.5t-9 36.5q0 39 24 71t66.5 50t94.5 18q66 0 113 -29.5t69 -83.5q32 54 84 83.5t117 29.5q103 0 157 -71.5t53 -209.5h-391zM494.5 453q-45.5 -53 -51.5 -150h322q0 100 -38 151.5t-111 51.5q-76 0 -121.5 -53zM372 271
q-61 0 -114.5 -9t-84.5 -25q-60 -28 -60 -97q0 -50 32 -80t85 -30q69 0 105.5 52t36.5 151v38zM314 604q47 7 91.5 37t61.5 68q14 30 38 30q13 0 22.5 -9t9.5 -22q0 -15 -17 -33q-33 -33 -86.5 -55.5t-119.5 -26.5v11z" />
    <glyph glyph-name="b" unicode="b" horiz-adv-x="602" 
d="M161 750v-313q29 53 76.5 82t107.5 29q66 0 115 -34t75.5 -97t26.5 -148t-26.5 -148.5t-76 -98t-115.5 -34.5q-61 0 -109.5 30.5t-76.5 85.5l-6 -104h-61v679l-63 71h133zM222 76q43 -31 99 -31q78 0 123 60t45 164q0 103 -45 163t-122 60q-56 0 -99.5 -31t-61.5 -84
v-218q18 -52 61 -83z" />
    <glyph glyph-name="c" unicode="c" horiz-adv-x="549" 
d="M529 122q-78 -134 -231 -134q-78 0 -136 32t-90 91.5t-32 140.5q0 84 33.5 151.5t93.5 106t134 38.5q55 0 100.5 -20.5t72 -55t26.5 -75.5q0 -23 -10 -35.5t-29 -12.5q-18 0 -27.5 12t-12.5 40q-12 104 -115 104q-58 0 -101.5 -30t-67 -84t-23.5 -125q0 -109 54.5 -170
t150.5 -61q112 0 202 93z" />
    <glyph glyph-name="cacute" unicode="&#x107;" horiz-adv-x="549" 
d="M529 122q-78 -134 -231 -134q-78 0 -136 32t-90 91.5t-32 140.5q0 84 33.5 151.5t93.5 106t134 38.5q55 0 100.5 -20.5t72 -55t26.5 -75.5q0 -23 -10 -35.5t-29 -12.5q-18 0 -27.5 12t-12.5 40q-12 104 -115 104q-58 0 -101.5 -30t-67 -84t-23.5 -125q0 -109 54.5 -170
t150.5 -61q112 0 202 93zM209 609q43 8 79 32.5t54 59.5q16 34 41 34q13 0 21.5 -9t8.5 -23q0 -16 -15 -31q-25 -31 -74.5 -50.5t-114.5 -23.5v11z" />
    <glyph glyph-name="ccaron" unicode="&#x10d;" horiz-adv-x="549" 
d="M529 122q-78 -134 -231 -134q-78 0 -136 32t-90 91.5t-32 140.5q0 84 33.5 151.5t93.5 106t134 38.5q55 0 100.5 -20.5t72 -55t26.5 -75.5q0 -23 -10 -35.5t-29 -12.5q-18 0 -27.5 12t-12.5 40q-12 104 -115 104q-58 0 -101.5 -30t-67 -84t-23.5 -125q0 -109 54.5 -170
t150.5 -61q112 0 202 93zM235 701q34 -13 64 -31q30 18 64 31t83 24l1 -11q-49 -22 -87 -56.5t-55 -73.5h-12q-17 39 -55 74t-87 56l1 11q49 -11 83 -24z" />
    <glyph glyph-name="ccedilla" unicode="&#xe7;" horiz-adv-x="549" 
d="M437 24q-54 -33 -127 -36l-23 -50q41 -4 66.5 -27.5t25.5 -56.5q0 -38 -33.5 -62t-84.5 -24q-32 0 -60 8l2 10q21 -3 38 -3q44 0 67.5 16t23.5 47q0 30 -24.5 45.5t-71.5 15.5l42 82q-109 6 -173.5 76.5t-64.5 186.5q0 84 33.5 151.5t93.5 106t134 38.5q55 0 100.5 -20.5
t72 -55t26.5 -75.5q0 -23 -10 -35.5t-29 -12.5q-18 0 -27.5 12t-12.5 40q-12 104 -115 104q-58 0 -101.5 -30t-67 -84t-23.5 -125q0 -109 54.5 -170t150.5 -61q112 0 202 93l8 -6q-38 -65 -92 -98z" />
    <glyph glyph-name="ccircumflex" unicode="&#x109;" horiz-adv-x="549" 
d="M529 122q-78 -134 -231 -134q-78 0 -136 32t-90 91.5t-32 140.5q0 84 33.5 151.5t93.5 106t134 38.5q55 0 100.5 -20.5t72 -55t26.5 -75.5q0 -23 -10 -35.5t-29 -12.5q-18 0 -27.5 12t-12.5 40q-12 104 -115 104q-58 0 -101.5 -30t-67 -84t-23.5 -125q0 -109 54.5 -170
t150.5 -61q112 0 202 93zM365.5 610.5q-33.5 12.5 -65.5 31.5q-31 -18 -65.5 -31t-82.5 -23l-1 11q50 22 88 56.5t54 73.5h13q16 -39 54.5 -74t87.5 -56l-1 -11q-48 10 -81.5 22.5z" />
    <glyph glyph-name="cdotaccent" unicode="&#x10b;" horiz-adv-x="549" 
d="M529 122q-78 -134 -231 -134q-78 0 -136 32t-90 91.5t-32 140.5q0 84 33.5 151.5t93.5 106t134 38.5q55 0 100.5 -20.5t72 -55t26.5 -75.5q0 -23 -10 -35.5t-29 -12.5q-18 0 -27.5 12t-12.5 40q-12 104 -115 104q-58 0 -101.5 -30t-67 -84t-23.5 -125q0 -109 54.5 -170
t150.5 -61q112 0 202 93zM267 636q-13 13 -13 33t13 33t32 13q20 0 33 -13t13 -33t-13 -33t-33 -13q-19 0 -32 13z" />
    <glyph glyph-name="d" unicode="d" horiz-adv-x="612" 
d="M142.5 22.5q-49.5 34.5 -76 98.5t-26.5 148q0 85 26.5 148t75.5 97t114 34q61 0 108.5 -29t76.5 -82v226l-80 87h150v-681l61 -69h-124v113q-27 -59 -77 -92t-114 -33q-65 0 -114.5 34.5zM379 75.5q43 30.5 62 83.5v218q-19 53 -62 84t-98 31q-78 0 -123 -59.5
t-45 -163.5q0 -103 45.5 -163.5t122.5 -60.5q55 0 98 30.5z" />
    <glyph glyph-name="eth" unicode="&#xf0;" horiz-adv-x="604" 
d="M174 760q100 -17 174 -62l108 54l16 -33l-88 -44q86 -62 132.5 -158.5t46.5 -217.5q0 -149 -68.5 -230t-195.5 -81q-122 0 -189.5 73.5t-67.5 201.5q0 85 30.5 149t86 98.5t128.5 34.5q63 0 109.5 -26.5t74.5 -77.5q-33 129 -138 210l-129 -64l-17 33l111 55
q-58 37 -134 59zM163 87.5q47 -65.5 133 -65.5q89 0 140.5 70t51.5 202q0 18 -3 51q-19 79 -68.5 122.5t-121.5 43.5q-85 0 -132 -62t-47 -179t47 -182.5z" />
    <glyph glyph-name="dcaron" unicode="&#x10f;" horiz-adv-x="699" 
d="M142.5 22.5q-49.5 34.5 -76 98.5t-26.5 148q0 85 26.5 148t75.5 97t114 34q61 0 108.5 -29t76.5 -82v226l-80 87h150v-681l61 -69h-124v113q-27 -59 -77 -92t-114 -33q-65 0 -114.5 34.5zM379 75.5q43 30.5 62 83.5v218q-19 53 -62 84t-98 31q-78 0 -123 -59.5
t-45 -163.5q0 -103 45.5 -163.5t122.5 -60.5q55 0 98 30.5zM590 548q28 22 43 54.5t13 64.5h-11q-21 0 -35.5 13.5t-14.5 32.5q0 20 14.5 34t34.5 14q26 0 43 -22t17 -56q0 -41 -26 -81t-68 -66z" />
    <glyph glyph-name="dcroat" unicode="&#x111;" horiz-adv-x="612" 
d="M448 113q-27 -59 -77 -92t-114 -33q-65 0 -114.5 34.5t-76 98.5t-26.5 148q0 85 26.5 148t75.5 97t114 34q61 0 108.5 -29t76.5 -82v167h-179v38h179v21l-80 87h150v-108h84v-38h-84v-535l61 -69h-124v113zM441 377q-19 53 -62 84t-98 31q-78 0 -123 -59.5t-45 -163.5
q0 -103 45.5 -163.5t122.5 -60.5q38 0 75 13.5t60.5 39.5t24.5 61v218z" />
    <glyph glyph-name="e" unicode="e" horiz-adv-x="559" 
d="M114 267q2 -113 55.5 -172.5t151.5 -59.5q55 0 97 21t92 74l9 -5q-75 -137 -230 -137q-76 0 -132 33t-86.5 94.5t-30.5 144.5q0 85 32 150t89.5 101.5t132.5 36.5q103 0 157 -72t53 -209h-390zM166.5 453q-45.5 -53 -52.5 -150h322q0 100 -37.5 151.5t-110.5 51.5
q-76 0 -121.5 -53z" />
    <glyph glyph-name="eacute" unicode="&#xe9;" horiz-adv-x="559" 
d="M114 267q2 -113 55.5 -172.5t151.5 -59.5q55 0 97 21t92 74l9 -5q-75 -137 -230 -137q-76 0 -132 33t-86.5 94.5t-30.5 144.5q0 85 32 150t89.5 101.5t132.5 36.5q103 0 157 -72t53 -209h-390zM166.5 453q-45.5 -53 -52.5 -150h322q0 100 -37.5 151.5t-110.5 51.5
q-76 0 -121.5 -53zM204 609q43 8 79 32.5t54 59.5q16 34 41 34q13 0 21.5 -9t8.5 -23q0 -16 -15 -31q-25 -31 -74.5 -50.5t-114.5 -23.5v11z" />
    <glyph glyph-name="ebreve" unicode="&#x115;" horiz-adv-x="559" 
d="M114 267q2 -113 55.5 -172.5t151.5 -59.5q55 0 97 21t92 74l9 -5q-75 -137 -230 -137q-76 0 -132 33t-86.5 94.5t-30.5 144.5q0 85 32 150t89.5 101.5t132.5 36.5q103 0 157 -72t53 -209h-390zM166.5 453q-45.5 -53 -52.5 -150h322q0 100 -37.5 151.5t-110.5 51.5
q-76 0 -121.5 -53zM157 714h11q17 -41 47 -60.5t79 -19.5q48 0 77 18.5t47 61.5h11q-11 -61 -44.5 -91t-90.5 -30q-113 0 -137 121z" />
    <glyph glyph-name="ecaron" unicode="&#x11b;" horiz-adv-x="559" 
d="M114 267q2 -113 55.5 -172.5t151.5 -59.5q55 0 97 21t92 74l9 -5q-75 -137 -230 -137q-76 0 -132 33t-86.5 94.5t-30.5 144.5q0 85 32 150t89.5 101.5t132.5 36.5q103 0 157 -72t53 -209h-390zM166.5 453q-45.5 -53 -52.5 -150h322q0 100 -37.5 151.5t-110.5 51.5
q-76 0 -121.5 -53zM230 701q34 -13 64 -31q30 18 64 31t83 24l1 -11q-49 -22 -87 -56.5t-55 -73.5h-12q-17 39 -55 74t-87 56l1 11q49 -11 83 -24z" />
    <glyph glyph-name="ecircumflex" unicode="&#xea;" horiz-adv-x="559" 
d="M114 267q2 -113 55.5 -172.5t151.5 -59.5q55 0 97 21t92 74l9 -5q-75 -137 -230 -137q-76 0 -132 33t-86.5 94.5t-30.5 144.5q0 85 32 150t89.5 101.5t132.5 36.5q103 0 157 -72t53 -209h-390zM166.5 453q-45.5 -53 -52.5 -150h322q0 100 -37.5 151.5t-110.5 51.5
q-76 0 -121.5 -53zM359.5 610.5q-33.5 12.5 -65.5 31.5q-31 -18 -65.5 -31t-82.5 -23l-1 11q50 22 88 56.5t54 73.5h13q16 -39 54.5 -74t87.5 -56l-1 -11q-48 10 -81.5 22.5z" />
    <glyph glyph-name="edieresis" unicode="&#xeb;" horiz-adv-x="559" 
d="M114 267q2 -113 55.5 -172.5t151.5 -59.5q55 0 97 21t92 74l9 -5q-75 -137 -230 -137q-76 0 -132 33t-86.5 94.5t-30.5 144.5q0 85 32 150t89.5 101.5t132.5 36.5q103 0 157 -72t53 -209h-390zM166.5 453q-45.5 -53 -52.5 -150h322q0 100 -37.5 151.5t-110.5 51.5
q-76 0 -121.5 -53zM230 678.5q11 -11.5 11 -28.5q0 -16 -11 -27t-28 -11t-28 11t-11 27q0 17 11 28.5t28 11.5t28 -11.5zM414 678.5q11 -11.5 11 -28.5q0 -16 -11 -27t-27 -11q-17 0 -28 10.5t-11 27.5t11 28.5t28 11.5q16 0 27 -11.5z" />
    <glyph glyph-name="edotaccent" unicode="&#x117;" horiz-adv-x="559" 
d="M114 267q2 -113 55.5 -172.5t151.5 -59.5q55 0 97 21t92 74l9 -5q-75 -137 -230 -137q-76 0 -132 33t-86.5 94.5t-30.5 144.5q0 85 32 150t89.5 101.5t132.5 36.5q103 0 157 -72t53 -209h-390zM166.5 453q-45.5 -53 -52.5 -150h322q0 100 -37.5 151.5t-110.5 51.5
q-76 0 -121.5 -53zM262 636q-13 13 -13 33t13 33t32 13q20 0 33 -13t13 -33t-13 -33t-33 -13q-19 0 -32 13z" />
    <glyph glyph-name="egrave" unicode="&#xe8;" horiz-adv-x="559" 
d="M114 267q2 -113 55.5 -172.5t151.5 -59.5q55 0 97 21t92 74l9 -5q-75 -137 -230 -137q-76 0 -132 33t-86.5 94.5t-30.5 144.5q0 85 32 150t89.5 101.5t132.5 36.5q103 0 157 -72t53 -209h-390zM166.5 453q-45.5 -53 -52.5 -150h322q0 100 -37.5 151.5t-110.5 51.5
q-76 0 -121.5 -53zM268 621.5q-49 19.5 -75 50.5q-15 17 -15 31t9 23t22 9q23 0 41 -34q17 -35 53 -59.5t79 -32.5v-11q-65 4 -114 23.5z" />
    <glyph glyph-name="emacron" unicode="&#x113;" horiz-adv-x="559" 
d="M114 267q2 -113 55.5 -172.5t151.5 -59.5q55 0 97 21t92 74l9 -5q-75 -137 -230 -137q-76 0 -132 33t-86.5 94.5t-30.5 144.5q0 85 32 150t89.5 101.5t132.5 36.5q103 0 157 -72t53 -209h-390zM166.5 453q-45.5 -53 -52.5 -150h322q0 100 -37.5 151.5t-110.5 51.5
q-76 0 -121.5 -53zM157 649h273v-32h-273v32z" />
    <glyph glyph-name="eogonek" unicode="&#x119;" horiz-adv-x="559" 
d="M346 -184q-30 28 -30 75q0 30 13.5 58t37.5 49q-43 -10 -78 -10q-76 0 -132 33t-86.5 94.5t-30.5 144.5q0 85 32 150t89.5 101.5t132.5 36.5q104 0 158 -72t52 -209h-390q2 -113 55.5 -172.5t151.5 -59.5q55 0 97 21t92 74l9 -5q-33 -61 -82 -95q-71 -50 -71 -138
q0 -39 15.5 -61.5t50.5 -34.5l-5 -9q-51 1 -81 29zM166.5 453q-45.5 -53 -52.5 -150h322q0 100 -37.5 151.5t-110.5 51.5q-76 0 -121.5 -53z" />
    <glyph glyph-name="f" unicode="f" horiz-adv-x="272" 
d="M110 85v400h-97v45h91q-28 31 -28 85q0 64 41 104.5t104 40.5q32 0 50 -11.5t18 -30.5q0 -15 -11 -24t-30 -9q-11 0 -29 6q-20 6 -34 6q-32 0 -50.5 -20.5t-18.5 -55.5q0 -42 25.5 -66.5t69.5 -24.5h50v-45h-81v-417l60 -68h-170z" />
    <glyph glyph-name="g" unicode="g" horiz-adv-x="526" 
d="M173.5 165.5q-23.5 -10.5 -23.5 -29.5q0 -16 17 -26t49 -14l124 -13q166 -17 166 -139q0 -80 -66.5 -123.5t-188.5 -43.5q-106 0 -163.5 34.5t-57.5 99.5q0 49 30.5 83.5t81.5 45.5q-51 21 -51 72q0 33 21.5 53.5t62.5 26.5q-56 21 -87.5 67t-31.5 107q0 83 55.5 132.5
t147.5 49.5q15 0 31 -2q-23 16 -33.5 35t-10.5 45q0 47 33 71.5t97 24.5q76 0 76 -40q0 -16 -10.5 -24t-29.5 -8q-14 0 -29 5q-25 5 -35 5q-31 0 -48 -13t-17 -37q0 -43 66 -75q111 -53 111 -169q0 -88 -58.5 -139t-159.5 -51q-45 0 -68.5 -10.5zM355 253.5
q35 41.5 35 112.5q0 68 -34 107t-95 39q-62 0 -98.5 -39.5t-36.5 -106.5q0 -68 37.5 -111t97.5 -43q59 0 94 41.5zM127.5 -158q40.5 -26 123.5 -26q91 0 143 30t52 82q0 74 -113 86l-136 13q-56 -11 -83 -36.5t-27 -68.5q0 -54 40.5 -80z" />
    <glyph glyph-name="gbreve" unicode="&#x11f;" horiz-adv-x="526" 
d="M173.5 165q-23.5 -10 -23.5 -29q0 -16 17.5 -26t49.5 -14l124 -13q82 -8 123.5 -43t41.5 -96q0 -80 -66.5 -123.5t-188.5 -43.5q-106 0 -163.5 34.5t-57.5 99.5q0 49 30.5 84t81.5 45q-51 21 -51 72q0 33 21.5 53.5t63.5 26.5q-57 22 -88.5 67t-31.5 106q0 84 59.5 133
t163.5 49q90 0 223 -18v-29h-106q33 -28 48.5 -60t15.5 -75q0 -87 -57.5 -137t-160.5 -52q-45 -1 -68.5 -11zM355 253.5q35 41.5 35 112.5q0 68 -34 106.5t-95 38.5q-62 0 -98.5 -39t-36.5 -106q0 -68 38 -111t97 -43t94 41.5zM127.5 -158q40.5 -26 123.5 -26q91 0 143 30
t52 82q0 74 -113 86l-136 13q-56 -11 -83 -36.5t-27 -68.5q0 -54 40.5 -80zM126 714h11q17 -41 47 -60.5t79 -19.5q48 0 77 18.5t47 61.5h11q-11 -61 -44.5 -91t-90.5 -30q-113 0 -137 121z" />
    <glyph glyph-name="gcircumflex" unicode="&#x11d;" horiz-adv-x="526" 
d="M173.5 165q-23.5 -10 -23.5 -29q0 -16 17.5 -26t49.5 -14l124 -13q82 -8 123.5 -43t41.5 -96q0 -80 -66.5 -123.5t-188.5 -43.5q-106 0 -163.5 34.5t-57.5 99.5q0 49 30.5 84t81.5 45q-51 21 -51 72q0 33 21.5 53.5t63.5 26.5q-57 22 -88.5 67t-31.5 106q0 84 59.5 133
t163.5 49q90 0 223 -18v-29h-106q33 -28 48.5 -60t15.5 -75q0 -87 -57.5 -137t-160.5 -52q-45 -1 -68.5 -11zM355 253.5q35 41.5 35 112.5q0 68 -34 106.5t-95 38.5q-62 0 -98.5 -39t-36.5 -106q0 -68 38 -111t97 -43t94 41.5zM127.5 -158q40.5 -26 123.5 -26q91 0 143 30
t52 82q0 74 -113 86l-136 13q-56 -11 -83 -36.5t-27 -68.5q0 -54 40.5 -80zM328.5 610.5q-33.5 12.5 -65.5 31.5q-31 -18 -65.5 -31t-82.5 -23l-1 11q50 22 88 56.5t54 73.5h13q16 -39 54.5 -74t87.5 -56l-1 -11q-48 10 -81.5 22.5z" />
    <glyph glyph-name="uni0123" unicode="&#x123;" horiz-adv-x="526" 
d="M297 820q-28 -22 -43 -55t-13 -65h11q21 0 35.5 -13.5t14.5 -32.5q0 -20 -14.5 -34t-34.5 -14q-26 0 -42.5 22.5t-16.5 55.5q0 41 25.5 81.5t68.5 65.5zM173.5 165q-23.5 -10 -23.5 -29q0 -16 17.5 -26t49.5 -14l124 -13q165 -16 165 -139q0 -80 -66.5 -123.5
t-188.5 -43.5q-106 0 -163.5 34.5t-57.5 99.5q0 49 30.5 84t81.5 45q-50 21 -50 72q0 68 84 80q-57 22 -88.5 67t-31.5 106q0 84 59.5 133t163.5 49q90 0 223 -18v-29h-106q34 -28 49 -60t15 -75q0 -87 -57.5 -137t-160.5 -52q-45 -1 -68.5 -11zM355 253.5q35 41.5 35 112.5
q0 68 -34 106.5t-95 38.5q-62 0 -98.5 -39t-36.5 -106q0 -68 38 -111t97 -43t94 41.5zM128.5 -158q40.5 -26 122.5 -26q91 0 143 30t52 82q0 74 -112 86l-137 13q-56 -11 -82.5 -36.5t-26.5 -68.5q0 -54 40.5 -80z" />
    <glyph glyph-name="gdotaccent" unicode="&#x121;" horiz-adv-x="526" 
d="M173.5 165q-23.5 -10 -23.5 -29q0 -16 17.5 -26t49.5 -14l124 -13q82 -8 123.5 -43t41.5 -96q0 -80 -66.5 -123.5t-188.5 -43.5q-106 0 -163.5 34.5t-57.5 99.5q0 49 30.5 84t81.5 45q-51 21 -51 72q0 33 21.5 53.5t63.5 26.5q-57 22 -88.5 67t-31.5 106q0 84 59.5 133
t163.5 49q90 0 223 -18v-29h-106q33 -28 48.5 -60t15.5 -75q0 -87 -57.5 -137t-160.5 -52q-45 -1 -68.5 -11zM355 253.5q35 41.5 35 112.5q0 68 -34 106.5t-95 38.5q-62 0 -98.5 -39t-36.5 -106q0 -68 38 -111t97 -43t94 41.5zM127.5 -158q40.5 -26 123.5 -26q91 0 143 30
t52 82q0 74 -113 86l-136 13q-56 -11 -83 -36.5t-27 -68.5q0 -54 40.5 -80zM230 636q-13 13 -13 33t13 33t32 13q20 0 33 -13t13 -33t-13 -33t-33 -13q-19 0 -32 13z" />
    <glyph glyph-name="h" unicode="h" horiz-adv-x="620" 
d="M101 86v577l-80 87h150v-334q32 64 82 98t113 34q81 0 122.5 -54.5t41.5 -159.5v-266l60 -68h-170l40 85v249q0 162 -113 162q-60 0 -108 -42.5t-68 -113.5v-271l61 -69h-172z" />
    <glyph glyph-name="hbar" unicode="&#x127;" horiz-adv-x="620" 
d="M460 85v249q0 162 -113 162q-60 0 -108 -42.5t-68 -113.5v-271l61 -69h-172l41 86v518h-84v38h84v21l-80 87h150v-108h179v-38h-179v-188q32 64 82 98t113 34q81 0 122.5 -54.5t41.5 -159.5v-266l60 -68h-170z" />
    <glyph glyph-name="hcircumflex" unicode="&#x125;" horiz-adv-x="620" 
d="M101 86v577l-80 87h150v-334q32 64 82 98t113 34q81 0 122.5 -54.5t41.5 -159.5v-266l60 -68h-170l40 85v249q0 162 -113 162q-60 0 -108 -42.5t-68 -113.5v-271l61 -69h-172zM201.5 805.5q-33.5 12.5 -65.5 31.5q-31 -18 -65.5 -31t-82.5 -23l-1 11q50 22 88 56.5
t54 73.5h13q16 -39 54.5 -74t87.5 -56l-1 -11q-48 10 -81.5 22.5z" />
    <glyph glyph-name="i" unicode="i" horiz-adv-x="271" 
d="M170 728q14 -14 14 -36q0 -21 -14 -35t-35 -14t-35 14t-14 35q0 22 14 36t35 14t35 -14zM101 86v357l-80 87h150v-461l61 -69h-172z" />
    <glyph glyph-name="dotlessi" unicode="&#x131;" horiz-adv-x="271" 
d="M101 86v357l-80 87h150v-461l61 -69h-172z" />
    <glyph glyph-name="iacute" unicode="&#xed;" horiz-adv-x="271" 
d="M101 86v357l-80 87h150v-461l61 -69h-172zM46 609q43 8 79 32.5t54 59.5q16 34 41 34q13 0 21.5 -9t8.5 -23q0 -16 -15 -31q-25 -31 -74.5 -50.5t-114.5 -23.5v11z" />
    <glyph glyph-name="ibreve" unicode="&#x12d;" horiz-adv-x="271" 
d="M101 86v357l-80 87h150v-461l61 -69h-172zM-1 714h11q17 -41 47 -60.5t79 -19.5q48 0 77 18.5t47 61.5h11q-11 -61 -44.5 -91t-90.5 -30q-113 0 -137 121z" />
    <glyph glyph-name="icircumflex" unicode="&#xee;" horiz-adv-x="271" 
d="M101 86v357l-80 87h150v-461l61 -69h-172zM201.5 610.5q-33.5 12.5 -65.5 31.5q-31 -18 -65.5 -31t-82.5 -23l-1 11q50 22 88 56.5t54 73.5h13q16 -39 54.5 -74t87.5 -56l-1 -11q-48 10 -81.5 22.5z" />
    <glyph glyph-name="idieresis" unicode="&#xef;" horiz-adv-x="271" 
d="M16 622.5q-11 10.5 -11 27.5t11 28.5t28 11.5q16 0 27 -11.5t11 -28.5q0 -16 -10.5 -27t-27.5 -11t-28 10.5zM198.5 623q-11.5 11 -11.5 27q0 17 11.5 28.5t28.5 11.5q16 0 27 -11.5t11 -28.5q0 -16 -11 -27t-27 -11q-17 0 -28.5 11zM101 86v357l-80 87h150v-461l61 -69
h-172z" />
    <glyph glyph-name="i.loclTRK" horiz-adv-x="271" 
d="M170 728q14 -14 14 -36q0 -21 -14 -35t-35 -14t-35 14t-14 35q0 22 14 36t35 14t35 -14zM101 86v357l-80 87h150v-461l61 -69h-172z" />
    <glyph glyph-name="igrave" unicode="&#xec;" horiz-adv-x="271" 
d="M101 86v357l-80 87h150v-461l61 -69h-172zM109 621.5q-49 19.5 -75 50.5q-15 17 -15 31t9 23t22 9q23 0 41 -34q17 -35 53 -59.5t79 -32.5v-11q-65 4 -114 23.5z" />
    <glyph glyph-name="ij" unicode="&#x133;" horiz-adv-x="533" 
d="M170 728q14 -14 14 -36q0 -21 -14 -35t-35 -14t-35 14t-14 35q0 22 14 36t35 14t35 -14zM101 86v357l-80 87h150v-461l61 -69h-172zM434 728q14 -14 14 -36q0 -21 -14 -35t-35 -14t-35 14t-14 35q0 22 14 36t35 14t35 -14zM269.5 -153.5q10.5 9.5 29.5 9.5q14 0 36 -8
q20 -9 38 -9q31 0 51.5 22.5t20.5 57.5q0 38 -28 63.5t-79 33.5l34 78v349l-80 87h150v-506q22 -17 35.5 -46.5t13.5 -61.5q0 -62 -44 -101t-114 -39q-36 0 -55 11.5t-19 32.5q0 17 10.5 26.5z" />
    <glyph glyph-name="imacron" unicode="&#x12b;" horiz-adv-x="271" 
d="M101 86v357l-80 87h150v-461l61 -69h-172zM-1 649h273v-32h-273v32z" />
    <glyph glyph-name="iogonek" unicode="&#x12f;" horiz-adv-x="271" 
d="M100 657q-14 14 -14 35q0 22 14 36t35 14t35 -14t14 -36q0 -21 -14 -35t-35 -14t-35 14zM145.5 -169.5q15.5 -22.5 50.5 -34.5l-5 -9q-51 1 -80.5 29t-29.5 75q0 63 52 109h-73l41 86v357l-80 87h150v-461l61 -69h-69q-33 -47 -33 -108q0 -39 15.5 -61.5z" />
    <glyph glyph-name="itilde" unicode="&#x129;" horiz-adv-x="271" 
d="M101 86v357l-80 87h150v-461l61 -69h-172zM194 610q-33 0 -83 16q-4 1 -22.5 6.5t-34.5 5.5q-38 0 -41 -32l-12 4q1 71 75 71q31 0 81 -16q39 -13 58 -13q18 0 29.5 8t13.5 24l12 -4q-1 -70 -76 -70z" />
    <glyph glyph-name="j" unicode="j" horiz-adv-x="261" 
d="M163 728q14 -14 14 -36q0 -21 -14 -35t-35 -14t-35 14t-14 35q0 22 14 36t35 14t35 -14zM-1.5 -153.5q10.5 9.5 29.5 9.5q14 0 36 -8q20 -9 38 -9q31 0 51.5 22.5t20.5 57.5q0 38 -28 63.5t-79 33.5l34 78v349l-80 87h150v-506q22 -17 35.5 -46.5t13.5 -61.5
q0 -62 -44 -101t-114 -39q-36 0 -55 11.5t-19 32.5q0 17 10.5 26.5z" />
    <glyph glyph-name="uni0237" unicode="&#x237;" horiz-adv-x="262" 
d="M-1 -154q11 10 29 10q14 0 36 -8q20 -9 38 -9q31 0 52 22.5t21 57.5q0 38 -28.5 63.5t-79.5 33.5l34 78v349l-80 87h150v-506q22 -17 35.5 -46.5t13.5 -61.5q0 -62 -44 -101t-114 -39q-36 0 -55 11.5t-19 32.5q0 16 11 26z" />
    <glyph glyph-name="jcircumflex" unicode="&#x135;" horiz-adv-x="262" 
d="M-1 -154q11 10 29 10q14 0 36 -8q20 -9 38 -9q31 0 52 22.5t21 57.5q0 38 -28.5 63.5t-79.5 33.5l34 78v349l-80 87h150v-506q22 -17 35.5 -46.5t13.5 -61.5q0 -62 -44 -101t-114 -39q-36 0 -55 11.5t-19 32.5q0 16 11 26zM201.5 610.5q-33.5 12.5 -65.5 31.5
q-31 -18 -65.5 -31t-82.5 -23l-1 11q50 22 88 56.5t54 73.5h13q16 -39 54.5 -74t87.5 -56l-1 -11q-48 10 -81.5 22.5z" />
    <glyph glyph-name="k" unicode="k" horiz-adv-x="557" 
d="M101 87v575l-81 88h151v-510l239 220l-51 70h181l-252 -232l259 -298h-175l27 71l-161 181l-67 -62v-122l60 -68h-171z" />
    <glyph glyph-name="uni0137" unicode="&#x137;" horiz-adv-x="557" 
d="M101 87v575l-81 88h151v-510l239 220l-51 70h181l-252 -232l259 -298h-175l27 71l-161 181l-67 -62v-122l60 -68h-171zM255 -271q28 22 43 54.5t13 64.5h-11q-21 0 -35.5 13.5t-14.5 33.5t14.5 34t34.5 14q26 0 43 -22.5t17 -55.5q0 -42 -26 -82t-68 -66z" />
    <glyph glyph-name="kgreenlandic" unicode="&#x138;" horiz-adv-x="557" 
d="M101 87v355l-81 88h151v-290l239 220l-51 70h181l-252 -232l259 -298h-175l27 71l-161 181l-67 -62v-122l60 -68h-171z" />
    <glyph glyph-name="l" unicode="l" horiz-adv-x="271" 
d="M101 86v577l-80 87h150v-681l61 -69h-172z" />
    <glyph glyph-name="lacute" unicode="&#x13a;" horiz-adv-x="271" 
d="M101 86v577l-80 87h150v-681l61 -69h-172zM46 804q43 8 79 32.5t54 59.5q16 34 41 34q13 0 21.5 -9t8.5 -23q0 -16 -15 -31q-25 -31 -74.5 -50.5t-114.5 -23.5v11z" />
    <glyph glyph-name="lcaron" unicode="&#x13e;" horiz-adv-x="359" 
d="M101 86v577l-80 87h150v-681l61 -69h-172zM250 548q28 22 43 54.5t13 64.5h-11q-21 0 -35.5 13.5t-14.5 32.5q0 20 14.5 34t34.5 14q26 0 43 -22t17 -56q0 -41 -26 -81t-68 -66z" />
    <glyph glyph-name="uni013C" unicode="&#x13c;" horiz-adv-x="271" 
d="M101 86v577l-80 87h150v-681l61 -69h-172zM86 -271q28 22 43 54.5t13 64.5h-11q-21 0 -35.5 13.5t-14.5 33.5t14.5 34t34.5 14q26 0 43 -22.5t17 -55.5q0 -42 -26 -82t-68 -66z" />
    <glyph glyph-name="ldot" unicode="&#x140;" horiz-adv-x="290" 
d="M101 86v577l-80 87h150v-681l61 -69h-172zM242.5 343.5q-13.5 13.5 -13.5 34.5t13.5 35t34.5 14t34.5 -14t13.5 -35t-13.5 -34.5t-34.5 -13.5t-34.5 13.5z" />
    <glyph glyph-name="lslash" unicode="&#x142;" horiz-adv-x="271" 
d="M101 86v279l-93 -22l-10 36l103 25v259l-80 87h150v-329l87 22l10 -37l-97 -23v-314l61 -69h-172z" />
    <glyph glyph-name="m" unicode="m" horiz-adv-x="938" 
d="M101 86v357l-80 87h143v-129q66 147 187 147q62 0 101 -35.5t51 -104.5q63 140 186 140q78 0 118.5 -54.5t40.5 -159.5v-266l60 -68h-170l40 85v249q0 80 -27.5 121t-81.5 41q-55 0 -97 -40t-63 -111v-277l60 -68h-170l40 85v249q0 162 -107 162q-55 0 -97.5 -41.5
t-63.5 -114.5v-271l61 -69h-172z" />
    <glyph glyph-name="n" unicode="n" horiz-adv-x="620" 
d="M101 86v357l-80 87h143v-129q32 71 84 109t119 38q80 0 121.5 -54.5t41.5 -159.5v-266l60 -68h-170l40 85v249q0 162 -113 162q-60 0 -108 -42.5t-68 -113.5v-271l61 -69h-172z" />
    <glyph glyph-name="nacute" unicode="&#x144;" horiz-adv-x="620" 
d="M101 86v357l-80 87h143v-129q32 71 84 109t119 38q80 0 121.5 -54.5t41.5 -159.5v-266l60 -68h-170l40 85v249q0 162 -113 162q-60 0 -108 -42.5t-68 -113.5v-271l61 -69h-172zM220 609q43 8 79 32.5t54 59.5q16 34 41 34q13 0 21.5 -9t8.5 -23q0 -16 -15 -31
q-25 -31 -74.5 -50.5t-114.5 -23.5v11z" />
    <glyph glyph-name="ncaron" unicode="&#x148;" horiz-adv-x="620" 
d="M101 86v357l-80 87h143v-129q32 71 84 109t119 38q80 0 121.5 -54.5t41.5 -159.5v-266l60 -68h-170l40 85v249q0 162 -113 162q-60 0 -108 -42.5t-68 -113.5v-271l61 -69h-172zM246 701q34 -13 64 -31q30 18 64 31t83 24l1 -11q-49 -22 -87 -56.5t-55 -73.5h-12
q-17 39 -55 74t-87 56l1 11q49 -11 83 -24z" />
    <glyph glyph-name="uni0146" unicode="&#x146;" horiz-adv-x="620" 
d="M101 86v357l-80 87h143v-129q32 71 84 109t119 38q80 0 121.5 -54.5t41.5 -159.5v-266l60 -68h-170l40 85v249q0 162 -113 162q-60 0 -108 -42.5t-68 -113.5v-271l61 -69h-172zM268 -271q28 22 43 54.5t13 64.5h-11q-21 0 -35.5 13.5t-14.5 33.5t14.5 34t34.5 14
q26 0 43 -22.5t17 -55.5q0 -42 -26 -82t-68 -66z" />
    <glyph glyph-name="eng" unicode="&#x14b;" horiz-adv-x="617" 
d="M101 87v355l-80 88h143v-128q32 70 84.5 108t119.5 38q78 0 118 -53t40 -156v-315q23 -18 36 -47t13 -62q0 -61 -43.5 -100t-112.5 -39q-37 0 -56 11.5t-19 32.5q0 16 11 26t29 10q12 0 36 -8q20 -9 38 -9q31 0 51.5 22.5t20.5 57.5q0 38 -28.5 63.5t-80.5 33.5l35 78
v244q0 158 -110 158q-60 0 -107 -42t-68 -114v-270l62 -70h-173z" />
    <glyph glyph-name="ntilde" unicode="&#xf1;" horiz-adv-x="620" 
d="M101 86v357l-80 87h143v-129q32 71 84 109t119 38q80 0 121.5 -54.5t41.5 -159.5v-266l60 -68h-170l40 85v249q0 162 -113 162q-60 0 -108 -42.5t-68 -113.5v-271l61 -69h-172zM368 610q-33 0 -83 16q-4 1 -22.5 6.5t-34.5 5.5q-38 0 -41 -32l-12 4q1 71 75 71
q31 0 81 -16q39 -13 58 -13q18 0 29.5 8t13.5 24l12 -4q-1 -70 -76 -70z" />
    <glyph glyph-name="o" unicode="o" horiz-adv-x="611" 
d="M73 415q33 64 93 98.5t139 34.5q80 0 140 -34.5t93 -98t33 -149.5q0 -84 -32 -146.5t-92 -97t-142 -34.5t-141.5 34t-91.5 96.5t-32 146.5q0 86 33 150zM445.5 443q-50.5 63 -140.5 63q-89 0 -139.5 -63t-50.5 -177q0 -112 49 -173.5t141 -61.5t141.5 62t49.5 173
q0 114 -50.5 177z" />
    <glyph glyph-name="oacute" unicode="&#xf3;" horiz-adv-x="611" 
d="M73 415q33 64 93 98.5t139 34.5q80 0 140 -34.5t93 -98t33 -149.5q0 -84 -32 -146.5t-92 -97t-142 -34.5t-141.5 34t-91.5 96.5t-32 146.5q0 86 33 150zM445.5 443q-50.5 63 -140.5 63q-89 0 -139.5 -63t-50.5 -177q0 -112 49 -173.5t141 -61.5t141.5 62t49.5 173
q0 114 -50.5 177zM216 609q43 8 79 32.5t54 59.5q16 34 41 34q13 0 21.5 -9t8.5 -23q0 -16 -15 -31q-25 -31 -74.5 -50.5t-114.5 -23.5v11z" />
    <glyph glyph-name="obreve" unicode="&#x14f;" horiz-adv-x="611" 
d="M73 415q33 64 93 98.5t139 34.5q80 0 140 -34.5t93 -98t33 -149.5q0 -84 -32 -146.5t-92 -97t-142 -34.5t-141.5 34t-91.5 96.5t-32 146.5q0 86 33 150zM445.5 443q-50.5 63 -140.5 63q-89 0 -139.5 -63t-50.5 -177q0 -112 49 -173.5t141 -61.5t141.5 62t49.5 173
q0 114 -50.5 177zM169 714h11q17 -41 47 -60.5t79 -19.5q48 0 77 18.5t47 61.5h11q-11 -61 -44.5 -91t-90.5 -30q-113 0 -137 121z" />
    <glyph glyph-name="ocircumflex" unicode="&#xf4;" horiz-adv-x="611" 
d="M73 415q33 64 93 98.5t139 34.5q80 0 140 -34.5t93 -98t33 -149.5q0 -84 -32 -146.5t-92 -97t-142 -34.5t-141.5 34t-91.5 96.5t-32 146.5q0 86 33 150zM445.5 443q-50.5 63 -140.5 63q-89 0 -139.5 -63t-50.5 -177q0 -112 49 -173.5t141 -61.5t141.5 62t49.5 173
q0 114 -50.5 177zM371.5 610.5q-33.5 12.5 -65.5 31.5q-31 -18 -65.5 -31t-82.5 -23l-1 11q50 22 88 56.5t54 73.5h13q16 -39 54.5 -74t87.5 -56l-1 -11q-48 10 -81.5 22.5z" />
    <glyph glyph-name="odieresis" unicode="&#xf6;" horiz-adv-x="611" 
d="M73 415q33 64 93 98.5t139 34.5q80 0 140 -34.5t93 -98t33 -149.5q0 -84 -32 -146.5t-92 -97t-142 -34.5t-141.5 34t-91.5 96.5t-32 146.5q0 86 33 150zM445.5 443q-50.5 63 -140.5 63q-89 0 -139.5 -63t-50.5 -177q0 -112 49 -173.5t141 -61.5t141.5 62t49.5 173
q0 114 -50.5 177zM241 678.5q11 -11.5 11 -28.5q0 -16 -11 -27t-28 -11t-28 11t-11 27q0 17 11 28.5t28 11.5t28 -11.5zM425 678.5q11 -11.5 11 -28.5q0 -16 -11 -27t-27 -11q-17 0 -28 10.5t-11 27.5t11 28.5t28 11.5q16 0 27 -11.5z" />
    <glyph glyph-name="ograve" unicode="&#xf2;" horiz-adv-x="611" 
d="M73 415q33 64 93 98.5t139 34.5q80 0 140 -34.5t93 -98t33 -149.5q0 -84 -32 -146.5t-92 -97t-142 -34.5t-141.5 34t-91.5 96.5t-32 146.5q0 86 33 150zM445.5 443q-50.5 63 -140.5 63q-89 0 -139.5 -63t-50.5 -177q0 -112 49 -173.5t141 -61.5t141.5 62t49.5 173
q0 114 -50.5 177zM279 621.5q-49 19.5 -75 50.5q-15 17 -15 31t9 23t22 9q23 0 41 -34q17 -35 53 -59.5t79 -32.5v-11q-65 4 -114 23.5z" />
    <glyph glyph-name="ohungarumlaut" unicode="&#x151;" horiz-adv-x="611" 
d="M73 415q33 64 93 98.5t139 34.5q80 0 140 -34.5t93 -98t33 -149.5q0 -84 -32 -146.5t-92 -97t-142 -34.5t-141.5 34t-91.5 96.5t-32 146.5q0 86 33 150zM445.5 443q-50.5 63 -140.5 63q-89 0 -139.5 -63t-50.5 -177q0 -112 49 -173.5t141 -61.5t141.5 62t49.5 173
q0 114 -50.5 177zM223 606q16 18 30 45t18 48q6 37 34 37q12 0 20 -8t8 -21q0 -17 -14 -37q-16 -22 -40.5 -41.5t-50.5 -29.5zM355 606q16 17 30 44t18 49q6 37 34 37q13 0 21 -8t8 -21q0 -17 -14 -37q-15 -21 -40 -41t-51 -30z" />
    <glyph glyph-name="omacron" unicode="&#x14d;" horiz-adv-x="611" 
d="M73 415q33 64 93 98.5t139 34.5q80 0 140 -34.5t93 -98t33 -149.5q0 -84 -32 -146.5t-92 -97t-142 -34.5t-141.5 34t-91.5 96.5t-32 146.5q0 86 33 150zM445.5 443q-50.5 63 -140.5 63q-89 0 -139.5 -63t-50.5 -177q0 -112 49 -173.5t141 -61.5t141.5 62t49.5 173
q0 114 -50.5 177zM169 649h273v-32h-273v32z" />
    <glyph glyph-name="oslash" unicode="&#xf8;" horiz-adv-x="611" 
d="M134 43l-49 -55l-28 26l49 56q-32 35 -49 85t-17 110q0 86 33 150t93 98.5t139 34.5q107 0 173 -57l49 56l27 -25l-49 -56q66 -75 66 -199q0 -84 -32 -147t-92 -97.5t-142 -34.5q-102 0 -171 55zM150 118l289 330q-49 58 -134 58q-89 0 -139.5 -63t-50.5 -177
q0 -90 35 -148zM446.5 93q49.5 62 49.5 174q0 92 -35 150l-289 -332q47 -54 133 -54q92 0 141.5 62z" />
    <glyph glyph-name="otilde" unicode="&#xf5;" horiz-adv-x="611" 
d="M73 415q33 64 93 98.5t139 34.5q80 0 140 -34.5t93 -98t33 -149.5q0 -84 -32 -146.5t-92 -97t-142 -34.5t-141.5 34t-91.5 96.5t-32 146.5q0 86 33 150zM445.5 443q-50.5 63 -140.5 63q-89 0 -139.5 -63t-50.5 -177q0 -112 49 -173.5t141 -61.5t141.5 62t49.5 173
q0 114 -50.5 177zM364 610q-33 0 -83 16q-4 1 -22.5 6.5t-34.5 5.5q-38 0 -41 -32l-12 4q1 71 75 71q31 0 81 -16q39 -13 58 -13q18 0 29.5 8t13.5 24l12 -4q-1 -70 -76 -70z" />
    <glyph glyph-name="oe" unicode="&#x153;" horiz-adv-x="1016" 
d="M109.5 63q-69.5 75 -69.5 204q0 84 32.5 147.5t92.5 98.5t140 35q82 0 141.5 -33.5t90.5 -97.5q33 62 89 96.5t127 34.5q102 0 156 -71.5t53 -209.5h-391q3 -113 56.5 -172.5t151.5 -59.5q55 0 97 21t92 74l8 -5q-37 -68 -94.5 -102.5t-132.5 -34.5t-131 34t-86 95
q-33 -62 -92.5 -95.5t-138.5 -33.5q-122 0 -191.5 75zM445.5 93q50.5 62 50.5 174q0 113 -50.5 176t-140.5 63q-89 0 -139.5 -63t-50.5 -176q0 -114 47.5 -175t138.5 -61q94 0 144.5 62zM622.5 452.5q-45.5 -53.5 -50.5 -149.5h322q0 100 -37.5 151.5t-111.5 51.5
q-77 0 -122.5 -53.5z" />
    <glyph glyph-name="p" unicode="p" horiz-adv-x="612" 
d="M101 -114v557l-80 87h143v-107q27 59 77 92t114 33q66 0 115 -34t75.5 -97t26.5 -148q0 -84 -27 -148t-76 -98.5t-115 -34.5q-60 0 -107.5 29t-75.5 82v-230l61 -69h-172zM232 76q43 -31 99 -31q77 0 122.5 60.5t45.5 163.5t-45 163t-122 60q-56 0 -99.5 -31t-61.5 -84
v-218q18 -52 61 -83z" />
    <glyph glyph-name="thorn" unicode="&#xfe;" horiz-adv-x="602" 
d="M91 -113v792l-63 71h133v-313q29 53 76.5 82t107.5 29q66 0 115 -34t75.5 -97t26.5 -148t-26.5 -148.5t-76 -98t-115.5 -34.5q-60 0 -108 29t-75 81v-228l61 -70h-172zM222 76q43 -31 99 -31q78 0 123 60t45 164q0 103 -45 163t-122 60q-56 0 -99.5 -31t-61.5 -84v-218
q18 -52 61 -83z" />
    <glyph glyph-name="q" unicode="q" horiz-adv-x="602" 
d="M441 -113v213q-29 -54 -76.5 -83t-107.5 -29q-65 0 -114.5 34.5t-76 98.5t-26.5 148q0 85 26.5 148t75.5 97t114 34q63 0 111.5 -30.5t76.5 -85.5l6 98h61v-660l62 -70h-173zM441 377q-19 53 -62 84t-98 31q-78 0 -123 -59.5t-45 -163.5q0 -103 45.5 -163.5t122.5 -60.5
q55 0 98 30.5t62 83.5v218z" />
    <glyph glyph-name="r" unicode="r" horiz-adv-x="400" 
d="M101 86v357l-80 87h143v-186q17 85 64.5 136t109.5 51q25 0 38.5 -10t13.5 -29t-14 -29t-42 -10q-6 0 -24 0.5t-35 -5.5q-71 -27 -104 -155v-224l61 -69h-172z" />
    <glyph glyph-name="racute" unicode="&#x155;" horiz-adv-x="400" 
d="M101 86v357l-80 87h143v-186q17 85 64.5 136t109.5 51q25 0 38.5 -10t13.5 -29t-14 -29t-42 -10q-6 0 -24 0.5t-35 -5.5q-71 -27 -104 -155v-224l61 -69h-172zM125 609q43 8 79 32.5t54 59.5q16 34 41 34q13 0 21.5 -9t8.5 -23q0 -16 -15 -31q-25 -31 -74.5 -50.5
t-114.5 -23.5v11z" />
    <glyph glyph-name="rcaron" unicode="&#x159;" horiz-adv-x="400" 
d="M101 86v357l-80 87h143v-186q17 85 64.5 136t109.5 51q25 0 38.5 -10t13.5 -29t-14 -29t-42 -10q-6 0 -24 0.5t-35 -5.5q-71 -27 -104 -155v-224l61 -69h-172zM151 701q34 -13 64 -31q30 18 64 31t83 24l1 -11q-49 -22 -87 -56.5t-55 -73.5h-12q-17 39 -55 74t-87 56
l1 11q49 -11 83 -24z" />
    <glyph glyph-name="uni0157" unicode="&#x157;" horiz-adv-x="400" 
d="M101 86v357l-80 87h143v-186q17 85 64.5 136t109.5 51q25 0 38.5 -10t13.5 -29t-14 -29t-42 -10q-6 0 -24 0.5t-35 -5.5q-71 -27 -104 -155v-224l61 -69h-172zM87 -271q28 22 43 54.5t13 64.5h-11q-21 0 -35.5 13.5t-14.5 33.5t14.5 34t34.5 14q26 0 43 -22.5t17 -55.5
q0 -42 -26 -82t-68 -66z" />
    <glyph glyph-name="s" unicode="s" horiz-adv-x="530" 
d="M52 129l73 -40q56 -31 99.5 -44.5t86.5 -13.5q54 0 80.5 20t26.5 61q0 30 -15.5 51t-52 39t-102.5 38q-103 31 -150.5 73.5t-47.5 104.5q0 60 39.5 95t107.5 35q82 0 159 -54l78 41v-144l-69 51q-84 64 -162 64q-46 0 -69.5 -19.5t-23.5 -57.5q0 -43 35 -69t126 -51
q109 -30 158.5 -73t49.5 -109q0 -67 -44 -103t-124 -36q-46 0 -87.5 12.5t-85.5 39.5l-86 -50v139z" />
    <glyph glyph-name="sacute" unicode="&#x15b;" horiz-adv-x="530" 
d="M52 129l73 -40q56 -31 99.5 -44.5t86.5 -13.5q54 0 80.5 20t26.5 61q0 30 -15.5 51t-52 39t-102.5 38q-103 31 -150.5 73.5t-47.5 104.5q0 60 39.5 95t107.5 35q82 0 159 -54l78 41v-144l-69 51q-84 64 -162 64q-46 0 -69.5 -19.5t-23.5 -57.5q0 -43 35 -69t126 -51
q109 -30 158.5 -73t49.5 -109q0 -67 -44 -103t-124 -36q-46 0 -87.5 12.5t-85.5 39.5l-86 -50v139zM155 609q43 8 79 32.5t54 59.5q16 34 41 34q13 0 21.5 -9t8.5 -23q0 -16 -15 -31q-25 -31 -74.5 -50.5t-114.5 -23.5v11z" />
    <glyph glyph-name="scaron" unicode="&#x161;" horiz-adv-x="530" 
d="M52 129l73 -40q56 -31 99.5 -44.5t86.5 -13.5q54 0 80.5 20t26.5 61q0 30 -15.5 51t-52 39t-102.5 38q-103 31 -150.5 73.5t-47.5 104.5q0 60 39.5 95t107.5 35q82 0 159 -54l78 41v-144l-69 51q-84 64 -162 64q-46 0 -69.5 -19.5t-23.5 -57.5q0 -43 35 -69t126 -51
q109 -30 158.5 -73t49.5 -109q0 -67 -44 -103t-124 -36q-46 0 -87.5 12.5t-85.5 39.5l-86 -50v139zM181 701q34 -13 64 -31q30 18 64 31t83 24l1 -11q-49 -22 -87 -56.5t-55 -73.5h-12q-17 39 -55 74t-87 56l1 11q49 -11 83 -24z" />
    <glyph glyph-name="scedilla" unicode="&#x15f;" horiz-adv-x="530" 
d="M292 -11l-23 -51q41 -4 66.5 -27.5t25.5 -56.5q0 -38 -33.5 -62t-84.5 -24q-32 0 -60 8l2 10q21 -3 38 -3q44 0 67.5 16t23.5 47q0 30 -24.5 45.5t-71.5 15.5l44 85q-60 10 -124 48l-86 -50v139l73 -40q56 -31 99.5 -44.5t86.5 -13.5q54 0 80.5 20t26.5 61q0 30 -15.5 51
t-52 39t-102.5 38q-103 31 -150.5 73.5t-47.5 104.5q0 60 39.5 95t107.5 35q82 0 159 -54l78 41v-144l-69 51q-84 64 -162 64q-46 0 -69.5 -19.5t-23.5 -57.5q0 -43 35 -69t126 -51q109 -30 158.5 -73t49.5 -109q0 -67 -44 -103t-124 -36q-13 0 -19 1z" />
    <glyph glyph-name="scircumflex" unicode="&#x15d;" horiz-adv-x="530" 
d="M52 129l73 -40q56 -31 99.5 -44.5t86.5 -13.5q54 0 80.5 20t26.5 61q0 30 -15.5 51t-52 39t-102.5 38q-103 31 -150.5 73.5t-47.5 104.5q0 60 39.5 95t107.5 35q82 0 159 -54l78 41v-144l-69 51q-84 64 -162 64q-46 0 -69.5 -19.5t-23.5 -57.5q0 -43 35 -69t126 -51
q109 -30 158.5 -73t49.5 -109q0 -67 -44 -103t-124 -36q-46 0 -87.5 12.5t-85.5 39.5l-86 -50v139zM310.5 610.5q-33.5 12.5 -65.5 31.5q-31 -18 -65.5 -31t-82.5 -23l-1 11q50 22 88 56.5t54 73.5h13q16 -39 54.5 -74t87.5 -56l-1 -11q-48 10 -81.5 22.5z" />
    <glyph glyph-name="uni0219" unicode="&#x219;" horiz-adv-x="530" 
d="M52 129l73 -40q56 -31 99.5 -44.5t86.5 -13.5q54 0 80.5 20t26.5 61q0 30 -15.5 51t-52 39t-102.5 38q-103 31 -150.5 73.5t-47.5 104.5q0 60 39.5 95t107.5 35q82 0 159 -54l78 41v-144l-69 51q-84 64 -162 64q-46 0 -69.5 -19.5t-23.5 -57.5q0 -43 35 -69t126 -51
q109 -30 158.5 -73t49.5 -109q0 -67 -44 -103t-124 -36q-46 0 -87.5 12.5t-85.5 39.5l-86 -50v139zM238 -271q28 22 43 54.5t13 64.5h-11q-21 0 -35.5 13.5t-14.5 33.5t14.5 34t34.5 14q26 0 43 -22.5t17 -55.5q0 -42 -26 -82t-68 -66z" />
    <glyph glyph-name="germandbls" unicode="&#xdf;" horiz-adv-x="673" 
d="M114 85v400h-96v45h97q4 111 63 170.5t166 59.5q92 0 143.5 -42t51.5 -118q0 -54 -26 -101q-88 1 -130.5 -23t-42.5 -75q0 -39 29.5 -60.5t104.5 -37.5q93 -19 137.5 -59t44.5 -106q0 -67 -43 -108.5t-113 -41.5q-38 0 -75.5 13t-68.5 38l-85 -49v140l61 -42
q45 -30 82 -44t75 -14q52 0 79 22.5t27 65.5t-32.5 69.5t-109.5 44.5q-89 21 -130.5 58t-41.5 95q0 63 48 99.5t139 41.5q10 36 10 69q0 62 -37.5 97.5t-104.5 35.5q-78 0 -114.5 -53.5t-36.5 -167.5v-507h-111z" />
    <glyph glyph-name="t" unicode="t" horiz-adv-x="362" 
d="M115 530l27 171h43v-171h130v-47h-130v-343q0 -55 19.5 -82t59.5 -27t70 30l8 -6q-14 -33 -42 -50t-66 -17q-57 0 -88 35t-31 98v362h-105v47h105z" />
    <glyph glyph-name="tbar" unicode="&#x167;" horiz-adv-x="362" 
d="M115 351v132h-105v47h105l27 171h43v-171h130v-47h-130v-132h115v-40h-115v-171q0 -55 19.5 -82t59.5 -27t70 30l8 -6q-14 -33 -42 -50t-66 -17q-57 0 -88 35t-31 98v190h-94v40h94z" />
    <glyph glyph-name="tcaron" unicode="&#x165;" horiz-adv-x="362" 
d="M115 530l27 171h43v-171h130v-47h-130v-343q0 -55 19.5 -82t59.5 -27t70 30l8 -6q-14 -33 -42 -50t-66 -17q-57 0 -88 35t-31 98v362h-105v47h105zM249 630q28 22 43 54.5t13 64.5h-11q-21 0 -35.5 13.5t-14.5 32.5q0 20 14.5 34t34.5 14q26 0 43 -22t17 -56
q0 -41 -26 -81t-68 -66z" />
    <glyph glyph-name="uni0163" unicode="&#x163;" horiz-adv-x="362" 
d="M237 -12l-23 -50q41 -4 66.5 -27.5t25.5 -56.5q0 -38 -33.5 -62t-84.5 -24q-32 0 -60 8l2 10q21 -3 38 -3q44 0 67.5 16t23.5 47q0 30 -24.5 45.5t-71.5 15.5l43 83q-44 8 -67.5 42t-23.5 89v362h-105v47h105l27 171h43v-171h130v-47h-130v-343q0 -55 19.5 -82t59.5 -27
t70 30l8 -6q-29 -65 -105 -67z" />
    <glyph glyph-name="uni021B" unicode="&#x21b;" horiz-adv-x="362" 
d="M115 530l27 171h43v-171h130v-47h-130v-343q0 -55 19.5 -82t59.5 -27t70 30l8 -6q-14 -33 -42 -50t-66 -17q-57 0 -88 35t-31 98v362h-105v47h105zM184 -271q28 22 43 54.5t13 64.5h-11q-21 0 -35.5 13.5t-14.5 33.5t14.5 34t34.5 14q26 0 43 -22.5t17 -55.5
q0 -42 -26 -82t-68 -66z" />
    <glyph glyph-name="u" unicode="u" horiz-adv-x="610" 
d="M161 172q0 -66 29.5 -101t84.5 -35q59 0 103 40.5t64 113.5v259l-72 81h139v-445l78 -85h-138v127q-61 -139 -191 -139q-79 0 -123 48t-44 134v289l-63 71h133v-358z" />
    <glyph glyph-name="uacute" unicode="&#xfa;" horiz-adv-x="610" 
d="M161 172q0 -66 29.5 -101t84.5 -35q59 0 103 40.5t64 113.5v259l-72 81h139v-445l78 -85h-138v127q-61 -139 -191 -139q-79 0 -123 48t-44 134v289l-63 71h133v-358zM194 609q43 8 79 32.5t54 59.5q16 34 41 34q13 0 21.5 -9t8.5 -23q0 -16 -15 -31q-25 -31 -74.5 -50.5
t-114.5 -23.5v11z" />
    <glyph glyph-name="ubreve" unicode="&#x16d;" horiz-adv-x="610" 
d="M161 172q0 -66 29.5 -101t84.5 -35q59 0 103 40.5t64 113.5v259l-72 81h139v-445l78 -85h-138v127q-61 -139 -191 -139q-79 0 -123 48t-44 134v289l-63 71h133v-358zM148 714h11q17 -41 47 -60.5t79 -19.5q48 0 77 18.5t47 61.5h11q-11 -61 -44.5 -91t-90.5 -30
q-113 0 -137 121z" />
    <glyph glyph-name="ucircumflex" unicode="&#xfb;" horiz-adv-x="610" 
d="M161 172q0 -66 29.5 -101t84.5 -35q59 0 103 40.5t64 113.5v259l-72 81h139v-445l78 -85h-138v127q-61 -139 -191 -139q-79 0 -123 48t-44 134v289l-63 71h133v-358zM349.5 610.5q-33.5 12.5 -65.5 31.5q-31 -18 -65.5 -31t-82.5 -23l-1 11q50 22 88 56.5t54 73.5h13
q16 -39 54.5 -74t87.5 -56l-1 -11q-48 10 -81.5 22.5z" />
    <glyph glyph-name="udieresis" unicode="&#xfc;" horiz-adv-x="610" 
d="M161 172q0 -66 29.5 -101t84.5 -35q59 0 103 40.5t64 113.5v259l-72 81h139v-445l78 -85h-138v127q-61 -139 -191 -139q-79 0 -123 48t-44 134v289l-63 71h133v-358zM220 678.5q11 -11.5 11 -28.5q0 -16 -11 -27t-28 -11t-28 11t-11 27q0 17 11 28.5t28 11.5t28 -11.5z
M404 678.5q11 -11.5 11 -28.5q0 -16 -11 -27t-27 -11q-17 0 -28 10.5t-11 27.5t11 28.5t28 11.5q16 0 27 -11.5z" />
    <glyph glyph-name="ugrave" unicode="&#xf9;" horiz-adv-x="610" 
d="M161 172q0 -66 29.5 -101t84.5 -35q59 0 103 40.5t64 113.5v259l-72 81h139v-445l78 -85h-138v127q-61 -139 -191 -139q-79 0 -123 48t-44 134v289l-63 71h133v-358zM258 621.5q-49 19.5 -75 50.5q-15 17 -15 31t9 23t22 9q23 0 41 -34q17 -35 53 -59.5t79 -32.5v-11
q-65 4 -114 23.5z" />
    <glyph glyph-name="uhungarumlaut" unicode="&#x171;" horiz-adv-x="610" 
d="M161 172q0 -66 29.5 -101t84.5 -35q59 0 103 40.5t64 113.5v259l-72 81h139v-445l78 -85h-138v127q-61 -139 -191 -139q-79 0 -123 48t-44 134v289l-63 71h133v-358zM201 606q16 18 30 45t18 48q6 37 34 37q12 0 20 -8t8 -21q0 -17 -14 -37q-16 -22 -40.5 -41.5
t-50.5 -29.5zM333 606q16 17 30 44t18 49q6 37 34 37q13 0 21 -8t8 -21q0 -17 -14 -37q-15 -21 -40 -41t-51 -30z" />
    <glyph glyph-name="umacron" unicode="&#x16b;" horiz-adv-x="610" 
d="M161 172q0 -66 29.5 -101t84.5 -35q59 0 103 40.5t64 113.5v259l-72 81h139v-445l78 -85h-138v127q-61 -139 -191 -139q-79 0 -123 48t-44 134v289l-63 71h133v-358zM147 649h273v-32h-273v32z" />
    <glyph glyph-name="uogonek" unicode="&#x173;" horiz-adv-x="610" 
d="M518.5 -169.5q15.5 -22.5 50.5 -34.5l-5 -9q-51 1 -81 29t-30 75q0 63 52 109h-56v127q-61 -139 -191 -139q-79 0 -123 48t-44 134v289l-63 71h133v-358q0 -66 29.5 -101t84.5 -35q59 0 103 40.5t64 113.5v259l-72 81h139v-445l78 -85h-51q-33 -47 -33 -108
q0 -39 15.5 -61.5z" />
    <glyph glyph-name="uring" unicode="&#x16f;" horiz-adv-x="610" 
d="M161 172q0 -66 29.5 -101t84.5 -35q59 0 103 40.5t64 113.5v259l-72 81h139v-445l78 -85h-138v127q-61 -139 -191 -139q-79 0 -123 48t-44 134v289l-63 71h133v-358zM224.5 603q-23.5 24 -23.5 60t23.5 60t59.5 24t60 -24t24 -60t-24 -60t-60 -24t-59.5 24zM329.5 617
q18.5 18 18.5 46t-18.5 46t-46.5 18q-27 0 -45 -18t-18 -46t18 -46t45 -18q28 0 46.5 18z" />
    <glyph glyph-name="utilde" unicode="&#x169;" horiz-adv-x="610" 
d="M161 172q0 -66 29.5 -101t84.5 -35q59 0 103 40.5t64 113.5v259l-72 81h139v-445l78 -85h-138v127q-61 -139 -191 -139q-79 0 -123 48t-44 134v289l-63 71h133v-358zM342 610q-33 0 -83 16q-4 1 -22.5 6.5t-34.5 5.5q-38 0 -41 -32l-12 4q1 71 75 71q31 0 81 -16
q39 -13 58 -13q18 0 29.5 8t13.5 24l12 -4q-1 -70 -76 -70z" />
    <glyph glyph-name="v" unicode="v" horiz-adv-x="544" 
d="M77 452l-77 78h190l-36 -78l148 -366l154 371l-63 73h141l-227 -541h-35z" />
    <glyph glyph-name="w" unicode="w" horiz-adv-x="803" 
d="M72 456l-72 74h186l-37 -78l127 -355l118 318l-16 42l-73 73h183l-36 -76l140 -363l126 364l-66 75h141l-193 -541h-35l-146 364l-138 -364h-35z" />
    <glyph glyph-name="wacute" unicode="&#x1e83;" horiz-adv-x="803" 
d="M72 456l-72 74h186l-37 -78l127 -355l118 318l-16 42l-73 73h183l-36 -76l140 -363l126 364l-66 75h141l-193 -541h-35l-146 364l-138 -364h-35zM325 609q43 8 79 32.5t54 59.5q16 34 41 34q13 0 21.5 -9t8.5 -23q0 -16 -15 -31q-25 -31 -74.5 -50.5t-114.5 -23.5v11z
" />
    <glyph glyph-name="wcircumflex" unicode="&#x175;" horiz-adv-x="803" 
d="M72 456l-72 74h186l-37 -78l127 -355l118 318l-16 42l-73 73h183l-36 -76l140 -363l126 364l-66 75h141l-193 -541h-35l-146 364l-138 -364h-35zM480.5 610.5q-33.5 12.5 -65.5 31.5q-31 -18 -65.5 -31t-82.5 -23l-1 11q50 22 88 56.5t54 73.5h13q16 -39 54.5 -74
t87.5 -56l-1 -11q-48 10 -81.5 22.5z" />
    <glyph glyph-name="wdieresis" unicode="&#x1e85;" horiz-adv-x="803" 
d="M72 456l-72 74h186l-37 -78l127 -355l118 318l-16 42l-73 73h183l-36 -76l140 -363l126 364l-66 75h141l-193 -541h-35l-146 364l-138 -364h-35zM351 678.5q11 -11.5 11 -28.5q0 -16 -11 -27t-28 -11t-28 11t-11 27q0 17 11 28.5t28 11.5t28 -11.5zM535 678.5
q11 -11.5 11 -28.5q0 -16 -11 -27t-27 -11q-17 0 -28 10.5t-11 27.5t11 28.5t28 11.5q16 0 27 -11.5z" />
    <glyph glyph-name="wgrave" unicode="&#x1e81;" horiz-adv-x="803" 
d="M72 456l-72 74h186l-37 -78l127 -355l118 318l-16 42l-73 73h183l-36 -76l140 -363l126 364l-66 75h141l-193 -541h-35l-146 364l-138 -364h-35zM389 621.5q-49 19.5 -75 50.5q-15 17 -15 31t9 23t22 9q23 0 41 -34q17 -35 53 -59.5t79 -32.5v-11q-65 4 -114 23.5z" />
    <glyph glyph-name="x" unicode="x" horiz-adv-x="549" 
d="M0 0l231 261l-226 269h169l-31 -62l138 -164l147 168l-53 58h163l-230 -260l226 -270h-169l31 62l-138 165l-147 -169l53 -58h-164z" />
    <glyph glyph-name="y" unicode="y" horiz-adv-x="544" 
d="M86.5 -163q11.5 9 33.5 9q11 0 33 -4q20 -5 39 -5q46 0 75.5 27.5t29.5 72.5q0 49 -39 84l-181 431l-77 78h190l-36 -78l148 -366l154 371l-63 73h141l-216 -514q22 -44 22 -85q0 -47 -24 -85t-66.5 -60t-95.5 -22q-38 0 -58.5 12t-20.5 35q0 17 11.5 26z" />
    <glyph glyph-name="yacute" unicode="&#xfd;" horiz-adv-x="544" 
d="M86.5 -163q11.5 9 33.5 9q11 0 33 -4q20 -5 39 -5q46 0 75.5 27.5t29.5 72.5q0 49 -39 84l-181 431l-77 78h190l-36 -78l148 -366l154 371l-63 73h141l-216 -514q22 -44 22 -85q0 -47 -24 -85t-66.5 -60t-95.5 -22q-38 0 -58.5 12t-20.5 35q0 17 11.5 26zM203 609
q43 8 79 32.5t54 59.5q16 34 41 34q13 0 21.5 -9t8.5 -23q0 -16 -15 -31q-25 -31 -74.5 -50.5t-114.5 -23.5v11z" />
    <glyph glyph-name="ycircumflex" unicode="&#x177;" horiz-adv-x="544" 
d="M86.5 -163q11.5 9 33.5 9q11 0 33 -4q20 -5 39 -5q46 0 75.5 27.5t29.5 72.5q0 49 -39 84l-181 431l-77 78h190l-36 -78l148 -366l154 371l-63 73h141l-216 -514q22 -44 22 -85q0 -47 -24 -85t-66.5 -60t-95.5 -22q-38 0 -58.5 12t-20.5 35q0 17 11.5 26zM358.5 610.5
q-33.5 12.5 -65.5 31.5q-31 -18 -65.5 -31t-82.5 -23l-1 11q50 22 88 56.5t54 73.5h13q16 -39 54.5 -74t87.5 -56l-1 -11q-48 10 -81.5 22.5z" />
    <glyph glyph-name="ydieresis" unicode="&#xff;" horiz-adv-x="544" 
d="M86.5 -163q11.5 9 33.5 9q11 0 33 -4q20 -5 39 -5q46 0 75.5 27.5t29.5 72.5q0 49 -39 84l-181 431l-77 78h190l-36 -78l148 -366l154 371l-63 73h141l-216 -514q22 -44 22 -85q0 -47 -24 -85t-66.5 -60t-95.5 -22q-38 0 -58.5 12t-20.5 35q0 17 11.5 26zM229 678.5
q11 -11.5 11 -28.5q0 -16 -11 -27t-28 -11t-28 11t-11 27q0 17 11 28.5t28 11.5t28 -11.5zM413 678.5q11 -11.5 11 -28.5q0 -16 -11 -27t-27 -11q-17 0 -28 10.5t-11 27.5t11 28.5t28 11.5q16 0 27 -11.5z" />
    <glyph glyph-name="ygrave" unicode="&#x1ef3;" horiz-adv-x="544" 
d="M86.5 -163q11.5 9 33.5 9q11 0 33 -4q20 -5 39 -5q46 0 75.5 27.5t29.5 72.5q0 49 -39 84l-181 431l-77 78h190l-36 -78l148 -366l154 371l-63 73h141l-216 -514q22 -44 22 -85q0 -47 -24 -85t-66.5 -60t-95.5 -22q-38 0 -58.5 12t-20.5 35q0 17 11.5 26zM266 621.5
q-49 19.5 -75 50.5q-15 17 -15 31t9 23t22 9q23 0 41 -34q17 -35 53 -59.5t79 -32.5v-11q-65 4 -114 23.5z" />
    <glyph glyph-name="z" unicode="z" horiz-adv-x="545" 
d="M392 488h-225l-85 -113v155h422l-348 -486h250l91 111v-155h-457z" />
    <glyph glyph-name="zacute" unicode="&#x17a;" horiz-adv-x="545" 
d="M392 488h-225l-85 -113v155h422l-348 -486h250l91 111v-155h-457zM192 609q43 8 79 32.5t54 59.5q16 34 41 34q13 0 21.5 -9t8.5 -23q0 -16 -15 -31q-25 -31 -74.5 -50.5t-114.5 -23.5v11z" />
    <glyph glyph-name="zcaron" unicode="&#x17e;" horiz-adv-x="545" 
d="M392 488h-225l-85 -113v155h422l-348 -486h250l91 111v-155h-457zM218 701q34 -13 64 -31q30 18 64 31t83 24l1 -11q-49 -22 -87 -56.5t-55 -73.5h-12q-17 39 -55 74t-87 56l1 11q49 -11 83 -24z" />
    <glyph glyph-name="zdotaccent" unicode="&#x17c;" horiz-adv-x="545" 
d="M392 488h-225l-85 -113v155h422l-348 -486h250l91 111v-155h-457zM250 636q-13 13 -13 33t13 33t32 13q20 0 33 -13t13 -33t-13 -33t-33 -13q-19 0 -32 13z" />
    <glyph glyph-name="uni01B6" unicode="&#x1b6;" horiz-adv-x="545" 
d="M408 44l89 110v-154h-457l177 246h-108v38h136l147 204h-227l-83 -111v153h422l-176 -246h108v-38h-135l-145 -202h252z" />
    <glyph glyph-name="a.ss01" horiz-adv-x="595" 
d="M143 22.5q-49 34.5 -76 98.5t-27 148q0 85 26.5 148t75.5 97t115 34q61 0 109 -30t77 -84l7 96h61v-461l61 -69h-124v113q-26 -59 -76 -92t-114 -33q-66 0 -115 34.5zM379.5 76q43.5 31 61.5 83v218q-18 53 -61 84t-99 31q-78 0 -123 -59.5t-45 -163.5
q0 -103 45.5 -163.5t122.5 -60.5q55 0 98.5 31z" />
    <glyph glyph-name="aacute.ss01" horiz-adv-x="595" 
d="M143 22.5q-49 34.5 -76 98.5t-27 148q0 85 26.5 148t75.5 97t115 34q61 0 109 -30t77 -84l7 96h61v-461l61 -69h-124v113q-26 -59 -76 -92t-114 -33q-66 0 -115 34.5zM379.5 76q43.5 31 61.5 83v218q-18 53 -61 84t-99 31q-78 0 -123 -59.5t-45 -163.5
q0 -103 45.5 -163.5t122.5 -60.5q55 0 98.5 31zM186 609q43 8 79 32.5t54 59.5q16 34 41 34q13 0 21.5 -9t8.5 -23q0 -16 -15 -31q-25 -31 -74.5 -50.5t-114.5 -23.5v11z" />
    <glyph glyph-name="abreve.ss01" horiz-adv-x="595" 
d="M143 22.5q-49 34.5 -76 98.5t-27 148q0 85 26.5 148t75.5 97t115 34q61 0 109 -30t77 -84l7 96h61v-461l61 -69h-124v113q-26 -59 -76 -92t-114 -33q-66 0 -115 34.5zM379.5 76q43.5 31 61.5 83v218q-18 53 -61 84t-99 31q-78 0 -123 -59.5t-45 -163.5
q0 -103 45.5 -163.5t122.5 -60.5q55 0 98.5 31zM139 714h11q17 -41 47 -60.5t79 -19.5q48 0 77 18.5t47 61.5h11q-11 -61 -44.5 -91t-90.5 -30q-113 0 -137 121z" />
    <glyph glyph-name="acircumflex.ss01" horiz-adv-x="595" 
d="M143 22.5q-49 34.5 -76 98.5t-27 148q0 85 26.5 148t75.5 97t115 34q61 0 109 -30t77 -84l7 96h61v-461l61 -69h-124v113q-26 -59 -76 -92t-114 -33q-66 0 -115 34.5zM379.5 76q43.5 31 61.5 83v218q-18 53 -61 84t-99 31q-78 0 -123 -59.5t-45 -163.5
q0 -103 45.5 -163.5t122.5 -60.5q55 0 98.5 31zM341.5 610.5q-33.5 12.5 -65.5 31.5q-31 -18 -65.5 -31t-82.5 -23l-1 11q50 22 88 56.5t54 73.5h13q16 -39 54.5 -74t87.5 -56l-1 -11q-48 10 -81.5 22.5z" />
    <glyph glyph-name="adieresis.ss01" horiz-adv-x="595" 
d="M143 22.5q-49 34.5 -76 98.5t-27 148q0 85 26.5 148t75.5 97t115 34q61 0 109 -30t77 -84l7 96h61v-461l61 -69h-124v113q-26 -59 -76 -92t-114 -33q-66 0 -115 34.5zM379.5 76q43.5 31 61.5 83v218q-18 53 -61 84t-99 31q-78 0 -123 -59.5t-45 -163.5
q0 -103 45.5 -163.5t122.5 -60.5q55 0 98.5 31zM212 678.5q11 -11.5 11 -28.5q0 -16 -11 -27t-28 -11t-28 11t-11 27q0 17 11 28.5t28 11.5t28 -11.5zM396 678.5q11 -11.5 11 -28.5q0 -16 -11 -27t-27 -11q-17 0 -28 10.5t-11 27.5t11 28.5t28 11.5q16 0 27 -11.5z" />
    <glyph glyph-name="agrave.ss01" horiz-adv-x="595" 
d="M143 22.5q-49 34.5 -76 98.5t-27 148q0 85 26.5 148t75.5 97t115 34q61 0 109 -30t77 -84l7 96h61v-461l61 -69h-124v113q-26 -59 -76 -92t-114 -33q-66 0 -115 34.5zM379.5 76q43.5 31 61.5 83v218q-18 53 -61 84t-99 31q-78 0 -123 -59.5t-45 -163.5
q0 -103 45.5 -163.5t122.5 -60.5q55 0 98.5 31zM249 621.5q-49 19.5 -75 50.5q-15 17 -15 31t9 23t22 9q23 0 41 -34q17 -35 53 -59.5t79 -32.5v-11q-65 4 -114 23.5z" />
    <glyph glyph-name="uni0203.ss01" horiz-adv-x="595" 
d="M143 22.5q-49 34.5 -76 98.5t-27 148q0 85 26.5 148t75.5 97t115 34q61 0 109 -30t77 -84l7 96h61v-461l61 -69h-124v113q-26 -59 -76 -92t-114 -33q-66 0 -115 34.5zM379.5 76q43.5 31 61.5 83v218q-18 53 -61 84t-99 31q-78 0 -123 -59.5t-45 -163.5
q0 -103 45.5 -163.5t122.5 -60.5q55 0 98.5 31z" />
    <glyph glyph-name="amacron.ss01" horiz-adv-x="595" 
d="M143 22.5q-49 34.5 -76 98.5t-27 148q0 85 26.5 148t75.5 97t115 34q61 0 109 -30t77 -84l7 96h61v-461l61 -69h-124v113q-26 -59 -76 -92t-114 -33q-66 0 -115 34.5zM379.5 76q43.5 31 61.5 83v218q-18 53 -61 84t-99 31q-78 0 -123 -59.5t-45 -163.5
q0 -103 45.5 -163.5t122.5 -60.5q55 0 98.5 31zM139 649h273v-32h-273v32z" />
    <glyph glyph-name="aogonek.ss01" horiz-adv-x="595" 
d="M512.5 -169.5q15.5 -22.5 50.5 -34.5l-5 -9q-51 1 -81 29t-30 75q0 63 52 109h-51v113q-26 -59 -76 -92t-114 -33q-66 0 -115 34.5t-76 98.5t-27 148q0 85 26.5 148t75.5 97t115 34q61 0 109 -30t77 -84l7 96h61v-461l61 -69h-42q-33 -47 -33 -108q0 -39 15.5 -61.5z
M441 377q-18 53 -61 84t-99 31q-78 0 -123 -59.5t-45 -163.5q0 -103 45.5 -163.5t122.5 -60.5q55 0 98.5 31t61.5 83v218z" />
    <glyph glyph-name="aring.ss01" horiz-adv-x="595" 
d="M143 22.5q-49 34.5 -76 98.5t-27 148q0 85 26.5 148t75.5 97t115 34q61 0 109 -30t77 -84l7 96h61v-461l61 -69h-124v113q-26 -59 -76 -92t-114 -33q-66 0 -115 34.5zM379.5 76q43.5 31 61.5 83v218q-18 53 -61 84t-99 31q-78 0 -123 -59.5t-45 -163.5
q0 -103 45.5 -163.5t122.5 -60.5q55 0 98.5 31zM215.5 603q-23.5 24 -23.5 60t23.5 60t59.5 24t60 -24t24 -60t-24 -60t-60 -24t-59.5 24zM320.5 617q18.5 18 18.5 46t-18.5 46t-46.5 18q-27 0 -45 -18t-18 -46t18 -46t45 -18q28 0 46.5 18z" />
    <glyph glyph-name="atilde.ss01" horiz-adv-x="595" 
d="M143 22.5q-49 34.5 -76 98.5t-27 148q0 85 26.5 148t75.5 97t115 34q61 0 109 -30t77 -84l7 96h61v-461l61 -69h-124v113q-26 -59 -76 -92t-114 -33q-66 0 -115 34.5zM379.5 76q43.5 31 61.5 83v218q-18 53 -61 84t-99 31q-78 0 -123 -59.5t-45 -163.5
q0 -103 45.5 -163.5t122.5 -60.5q55 0 98.5 31zM334 610q-33 0 -83 16q-4 1 -22.5 6.5t-34.5 5.5q-38 0 -41 -32l-12 4q1 71 75 71q31 0 81 -16q39 -13 58 -13q18 0 29.5 8t13.5 24l12 -4q-1 -70 -76 -70z" />
    <glyph glyph-name="ae.ss01" horiz-adv-x="887" 
d="M442 267q2 -113 55.5 -172.5t152.5 -59.5q54 0 96 21t93 74l8 -5q-37 -68 -94.5 -102.5t-132.5 -34.5q-80 0 -138 38t-85 107q-17 -72 -63.5 -108.5t-119.5 -36.5q-78 0 -126 39.5t-48 103.5q0 48 28.5 83t83.5 54q38 13 95.5 20.5t124.5 7.5v47q0 170 -136 170
q-53 0 -82 -26t-31 -76q-2 -52 -34 -52q-16 0 -25 13.5t-9 36.5q0 39 24 71t66.5 50t94.5 18q66 0 113 -29.5t69 -83.5q32 54 84 83.5t117 29.5q103 0 157 -71.5t53 -209.5h-391zM494.5 453q-45.5 -53 -51.5 -150h322q0 100 -38 151.5t-111 51.5q-76 0 -121.5 -53zM372 271
q-61 0 -114.5 -9t-84.5 -25q-60 -28 -60 -97q0 -50 32 -80t85 -30q69 0 105.5 52t36.5 151v38z" />
    <glyph glyph-name="aeacute.ss01" horiz-adv-x="887" 
d="M442 267q2 -113 55.5 -172.5t152.5 -59.5q54 0 96 21t93 74l8 -5q-37 -68 -94.5 -102.5t-132.5 -34.5q-80 0 -138 38t-85 107q-17 -72 -63.5 -108.5t-119.5 -36.5q-78 0 -126 39.5t-48 103.5q0 48 28.5 83t83.5 54q38 13 95.5 20.5t124.5 7.5v47q0 170 -136 170
q-53 0 -82 -26t-31 -76q-2 -52 -34 -52q-16 0 -25 13.5t-9 36.5q0 39 24 71t66.5 50t94.5 18q66 0 113 -29.5t69 -83.5q32 54 84 83.5t117 29.5q103 0 157 -71.5t53 -209.5h-391zM494.5 453q-45.5 -53 -51.5 -150h322q0 100 -38 151.5t-111 51.5q-76 0 -121.5 -53zM372 271
q-61 0 -114.5 -9t-84.5 -25q-60 -28 -60 -97q0 -50 32 -80t85 -30q69 0 105.5 52t36.5 151v38zM328 609q43 8 79 32.5t54 59.5q16 34 41 34q13 0 21.5 -9t8.5 -23q0 -16 -15 -31q-25 -31 -74.5 -50.5t-114.5 -23.5v11z" />
    <glyph glyph-name="g.ss01" horiz-adv-x="590" 
d="M156.5 -223.5q-38.5 12.5 -61 33t-22.5 45.5q0 17 10 27t28 10q14 0 25 -7t23 -26q20 -29 43.5 -40.5t57.5 -11.5q84 0 132 61.5t48 169.5v62q-29 -53 -76.5 -82.5t-107.5 -29.5q-65 0 -114.5 34.5t-76 98.5t-26.5 148q0 85 26.5 148t75.5 97t114 34q61 0 109.5 -30
t76.5 -84l7 96h62v-489q0 -83 -33.5 -146t-94 -97t-139.5 -34q-48 0 -86.5 12.5zM378 75.5q43 30.5 62 83.5v218q-19 53 -62 84t-99 31q-77 0 -122 -60t-45 -163t45 -163.5t122 -60.5q56 0 99 30.5z" />
    <glyph glyph-name="gbreve.ss01" horiz-adv-x="590" 
d="M156.5 -223.5q-38.5 12.5 -61 33t-22.5 45.5q0 17 10 27t28 10q14 0 25 -7t23 -26q20 -29 43.5 -40.5t57.5 -11.5q84 0 132 61.5t48 169.5v62q-29 -53 -76.5 -82.5t-107.5 -29.5q-65 0 -114.5 34.5t-76 98.5t-26.5 148q0 85 26.5 148t75.5 97t114 34q61 0 109.5 -30
t76.5 -84l7 96h62v-489q0 -83 -33.5 -146t-94 -97t-139.5 -34q-48 0 -86.5 12.5zM378 75.5q43 30.5 62 83.5v218q-19 53 -62 84t-99 31q-77 0 -122 -60t-45 -163t45 -163.5t122 -60.5q56 0 99 30.5zM141 714h11q17 -41 47 -60.5t79 -19.5q48 0 77 18.5t47 61.5h11
q-11 -61 -44.5 -91t-90.5 -30q-113 0 -137 121z" />
    <glyph glyph-name="gcircumflex.ss01" horiz-adv-x="590" 
d="M156.5 -223.5q-38.5 12.5 -61 33t-22.5 45.5q0 17 10 27t28 10q14 0 25 -7t23 -26q20 -29 43.5 -40.5t57.5 -11.5q84 0 132 61.5t48 169.5v62q-29 -53 -76.5 -82.5t-107.5 -29.5q-65 0 -114.5 34.5t-76 98.5t-26.5 148q0 85 26.5 148t75.5 97t114 34q61 0 109.5 -30
t76.5 -84l7 96h62v-489q0 -83 -33.5 -146t-94 -97t-139.5 -34q-48 0 -86.5 12.5zM378 75.5q43 30.5 62 83.5v218q-19 53 -62 84t-99 31q-77 0 -122 -60t-45 -163t45 -163.5t122 -60.5q56 0 99 30.5zM343.5 610.5q-33.5 12.5 -65.5 31.5q-31 -18 -65.5 -31t-82.5 -23l-1 11
q50 22 88 56.5t54 73.5h13q16 -39 54.5 -74t87.5 -56l-1 -11q-48 10 -81.5 22.5z" />
    <glyph glyph-name="uni0123.ss01" horiz-adv-x="590" 
d="M328 823q-28 -22 -43.5 -55.5t-13.5 -65.5h11q22 0 36.5 -14t14.5 -34t-14.5 -34.5t-35.5 -14.5q-26 0 -43.5 23t-17.5 57q0 43 26.5 84t70.5 66zM156.5 -223.5q-38.5 12.5 -61 33t-22.5 45.5q0 17 10 27t28 10q14 0 25 -7t23 -26q20 -29 43.5 -40.5t57.5 -11.5
q84 0 132 61.5t48 169.5v62q-29 -53 -76.5 -82.5t-107.5 -29.5q-65 0 -114.5 34.5t-76 98.5t-26.5 148q0 85 26.5 148t75.5 97t114 34q61 0 109.5 -30t76.5 -84l7 96h62v-489q0 -83 -33.5 -146t-94 -97t-139.5 -34q-48 0 -86.5 12.5zM378 75.5q43 30.5 62 83.5v218
q-19 53 -62 84t-99 31q-77 0 -122 -60t-45 -163t45 -163.5t122 -60.5q56 0 99 30.5z" />
    <glyph glyph-name="gdotaccent.ss01" horiz-adv-x="590" 
d="M156.5 -223.5q-38.5 12.5 -61 33t-22.5 45.5q0 17 10 27t28 10q14 0 25 -7t23 -26q20 -29 43.5 -40.5t57.5 -11.5q84 0 132 61.5t48 169.5v62q-29 -53 -76.5 -82.5t-107.5 -29.5q-65 0 -114.5 34.5t-76 98.5t-26.5 148q0 85 26.5 148t75.5 97t114 34q61 0 109.5 -30
t76.5 -84l7 96h62v-489q0 -83 -33.5 -146t-94 -97t-139.5 -34q-48 0 -86.5 12.5zM378 75.5q43 30.5 62 83.5v218q-19 53 -62 84t-99 31q-77 0 -122 -60t-45 -163t45 -163.5t122 -60.5q56 0 99 30.5zM245 636q-13 13 -13 33t13 33t32 13q20 0 33 -13t13 -33t-13 -33t-33 -13
q-19 0 -32 13z" />
    <glyph glyph-name="g.ss02" horiz-adv-x="526" 
d="M173.5 165q-23.5 -10 -23.5 -29q0 -16 17.5 -26t49.5 -14l124 -13q82 -8 123.5 -43t41.5 -96q0 -80 -66.5 -123.5t-188.5 -43.5q-106 0 -163.5 34.5t-57.5 99.5q0 49 30.5 84t81.5 45q-51 21 -51 72q0 33 21.5 53.5t63.5 26.5q-57 22 -88.5 67t-31.5 106q0 84 59.5 133
t163.5 49q90 0 223 -18v-29h-106q33 -28 48.5 -60t15.5 -75q0 -87 -57.5 -137t-160.5 -52q-45 -1 -68.5 -11zM355 253.5q35 41.5 35 112.5q0 68 -34 106.5t-95 38.5q-62 0 -98.5 -39t-36.5 -106q0 -68 38 -111t97 -43t94 41.5zM127.5 -158q40.5 -26 123.5 -26q91 0 143 30
t52 82q0 74 -113 86l-136 13q-56 -11 -83 -36.5t-27 -68.5q0 -54 40.5 -80z" />
    <glyph glyph-name="c_t" horiz-adv-x="911" 
d="M529 122q-40 -68 -97 -101t-134 -33q-78 0 -136.5 32.5t-90 92t-31.5 139.5q0 84 34 151.5t93.5 106t133.5 38.5q68 0 118 -29q-16 37 -16 75q0 66 44 105.5t119 39.5q166 0 168 -209h131v-47h-131v-343q0 -55 19.5 -82t60.5 -27q40 0 70 30l7 -6q-13 -33 -41 -50
t-67 -17q-57 0 -88 35t-31 98v362h-105v47h105q0 86 -28.5 126t-86.5 40q-51 0 -79.5 -28t-28.5 -76q0 -28 10 -61.5t26 -61.5q23 -40 23 -73q0 -47 -39 -47q-18 0 -27 12t-12 40q-14 104 -116 104q-57 0 -100.5 -29.5t-67.5 -84t-24 -125.5q0 -109 54 -170t151 -61
q112 0 202 93z" />
    <glyph glyph-name="fi" unicode="&#xfb01;" horiz-adv-x="567" 
d="M110 85v400h-97v45h91q-28 31 -28 83q0 41 20.5 75t55.5 53t78 19q34 0 54 -11.5t20 -31.5q0 -14 -11 -23t-30 -9q-12 0 -32 6q-24 6 -37 6q-35 0 -56.5 -22t-21.5 -58q0 -39 25.5 -63t69.5 -24h255v-461l61 -69h-171l40 86v399h-216v-417l60 -68h-170zM465.5 728
q13.5 -14 13.5 -36q0 -21 -13.5 -35t-35.5 -14q-21 0 -35 14t-14 35q0 22 14 36t35 14q22 0 35.5 -14z" />
    <glyph glyph-name="fl" unicode="&#xfb02;" horiz-adv-x="559" 
d="M110 85v400h-97v45h91q-28 31 -28 85q0 64 41 104.5t104 40.5q32 0 50 -11.5t18 -30.5q0 -15 -11 -24t-30 -9q-11 0 -29 6q-20 6 -34 6q-32 0 -50.5 -20.5t-18.5 -55.5q0 -42 25.5 -66.5t69.5 -24.5h50v-45h-81v-417l60 -68h-170zM388 86v577l-80 87h150v-681l61 -69
h-172z" />
    <glyph glyph-name="s_t" horiz-adv-x="891" 
d="M52 130l73 -40q57 -31 101 -45t86 -14q106 0 106 80q0 30 -15.5 51t-52 39.5t-101.5 37.5q-102 29 -150.5 72.5t-48.5 105.5q0 59 40.5 95t106.5 36q87 0 168 -63q-14 35 -14 82q0 81 49 126.5t128 45.5q86 0 136 -54t50 -155h131v-47h-130v-343q0 -55 19.5 -82t59.5 -27
t70 30l7 -6q-13 -33 -41 -50t-67 -17q-57 0 -88 35t-31 98v362h-104v47h104q0 84 -33.5 125t-94.5 41q-56 0 -91.5 -34.5t-35.5 -96.5q0 -36 12 -83t34 -92l-69 50q-47 34 -86.5 50t-77.5 16q-44 0 -66.5 -20t-22.5 -58q0 -42 34 -67.5t122 -50.5q110 -30 160.5 -72.5
t50.5 -105.5q0 -65 -47 -104.5t-125 -39.5q-42 0 -83 12.5t-87 39.5l-86 -50v140z" />
    <glyph glyph-name="ordfeminine" unicode="&#xaa;" horiz-adv-x="417" 
d="M388 381q-7 -19 -20.5 -29.5t-32.5 -10.5q-23 0 -37 15.5t-16 43.5q-15 -27 -49 -43t-77 -16q-57 0 -91 28t-34 76q0 69 74 103q30 14 71 21t105 8v26q0 67 -21.5 95t-72.5 28q-42 0 -63.5 -18t-26.5 -56q-2 -21 -9 -30t-20 -9q-28 0 -28 39q0 48 41.5 78t108.5 30
q74 0 112 -39.5t38 -117.5v-170q0 -45 44 -45zM281 552q-92 0 -141 -25q-25 -13 -36 -30t-11 -40q0 -36 23.5 -55t67.5 -19q39 0 59.5 13.5t37.5 38.5v117z" />
    <glyph glyph-name="ordmasculine" unicode="&#xba;" horiz-adv-x="494" 
d="M68 658q26 48 72.5 75t106.5 27t106.5 -26.5t72.5 -74t26 -109.5q0 -61 -26 -108.5t-72.5 -74t-106.5 -26.5t-106.5 26.5t-72.5 74t-26 108.5q0 60 26 108zM346.5 677q-38.5 49 -99.5 49t-99.5 -49.5t-38.5 -126.5q0 -79 38 -127.5t100 -48.5q63 0 100.5 48.5t37.5 127.5
q0 78 -38.5 127z" />
    <glyph glyph-name="ordfeminine.osf" horiz-adv-x="415" 
d="M379 239q-7 -20 -20.5 -30.5t-31.5 -10.5q-22 0 -35.5 15.5t-15.5 43.5q-15 -28 -47.5 -43.5t-75.5 -15.5q-56 0 -88.5 27t-32.5 73q0 32 17.5 55.5t53.5 40.5q32 15 72.5 22t99.5 8v17q0 66 -21 94t-71 28q-41 0 -62 -18t-26 -57q-2 -20 -8.5 -28.5t-18.5 -8.5
q-13 0 -20.5 10t-7.5 29q0 48 41 77.5t106 29.5q71 0 107.5 -39.5t36.5 -116.5v-151q0 -44 44 -44zM275 399q-82 0 -134 -25q-27 -13 -38.5 -28.5t-11.5 -36.5q0 -33 23 -51t61 -18q34 0 57.5 14t42.5 45v100z" />
    <glyph glyph-name="ordmasculine.osf" horiz-adv-x="487" 
d="M96 542q55 55 145 55q91 0 145.5 -54.5t54.5 -145.5q0 -89 -54.5 -144t-145.5 -55q-90 0 -145 54.5t-55 143.5q0 91 55 146zM338.5 519q-35.5 44 -97.5 44t-97.5 -44t-35.5 -122t35.5 -121.5t97.5 -43.5t97.5 43.5t35.5 121.5t-35.5 122z" />
    <glyph glyph-name="ordfeminine.tf" 
d="M421 381q-7 -19 -20.5 -29.5t-32.5 -10.5q-23 0 -37 15.5t-16 43.5q-15 -27 -49 -43t-77 -16q-57 0 -91 28t-34 76q0 69 74 103q30 14 71 21t105 8v26q0 67 -21.5 95t-72.5 28q-42 0 -63.5 -18t-26.5 -56q-2 -21 -9 -30t-20 -9q-28 0 -28 39q0 48 41.5 78t108.5 30
q74 0 112 -39.5t38 -117.5v-170q0 -45 44 -45zM314 552q-92 0 -141 -25q-25 -13 -36 -30t-11 -40q0 -36 23.5 -55t67.5 -19q39 0 59.5 13.5t37.5 38.5v117z" />
    <glyph glyph-name="ordmasculine.tf" 
d="M101 658q26 48 72.5 75t106.5 27t106.5 -26.5t72.5 -74t26 -109.5q0 -61 -26 -108.5t-72.5 -74t-106.5 -26.5t-106.5 26.5t-72.5 74t-26 108.5q0 60 26 108zM379.5 677q-38.5 49 -99.5 49t-99.5 -49.5t-38.5 -126.5q0 -79 38 -127.5t100 -48.5q63 0 100.5 48.5
t37.5 127.5q0 78 -38.5 127z" />
    <glyph glyph-name="ordfeminine.tosf" 
d="M414 239q-6 -19 -20 -30t-32 -11q-22 0 -35.5 15.5t-15.5 43.5q-15 -27 -47 -43t-76 -16q-56 0 -88.5 26.5t-32.5 73.5q0 62 71 96q32 15 72 22t100 8v17q0 65 -21.5 93.5t-70.5 28.5q-40 0 -61.5 -18t-25.5 -57q-3 -20 -9.5 -28.5t-18.5 -8.5q-13 0 -20.5 10t-7.5 29
q0 47 40.5 77t106.5 30q71 0 107.5 -39.5t36.5 -116.5v-151q0 -44 44 -44zM310 399q-86 0 -136 -25q-48 -24 -48 -66q0 -33 23.5 -50.5t65.5 -17.5q93 0 95 90v69z" />
    <glyph glyph-name="ordmasculine.tosf" 
d="M129 545.5q53 51.5 148 51.5q94 0 146.5 -51.5t52.5 -144.5q0 -94 -53 -148.5t-146 -54.5q-94 0 -147.5 54.5t-53.5 148.5q0 93 53 144.5zM374 520.5q-35 42.5 -98 42.5q-62 0 -97 -42.5t-35 -119.5q0 -79 35 -124t97 -45q63 0 98 45t35 124q0 77 -35 119.5z" />
    <glyph glyph-name="uni0394" unicode="&#x394;" horiz-adv-x="596" 
d="M10 0l272 725h30l274 -725h-576zM490 44l-210 556l-206 -556h416z" />
    <glyph glyph-name="uni0394" unicode="&#x3b4;" horiz-adv-x="596" 
d="M10 0l272 725h30l274 -725h-576zM490 44l-210 556l-206 -556h416z" />
    <glyph glyph-name="uni03A9" unicode="&#x3a9;" horiz-adv-x="685" 
d="M140 42h113v82q-101 37 -156.5 117t-55.5 187q0 91 39 162.5t109 111t160 39.5q87 0 154.5 -39.5t104.5 -110.5t37 -163q0 -109 -55.5 -188t-157.5 -116v-82h114l98 113v-155h-256v148q96 39 137 103.5t41 176.5q0 275 -217 275q-112 0 -171 -70t-59 -205
q0 -114 43.5 -181.5t135.5 -98.5v-148h-257v155z" />
    <glyph glyph-name="uni03A9" unicode="&#x3c9;" horiz-adv-x="685" 
d="M140 42h113v82q-101 37 -156.5 117t-55.5 187q0 91 39 162.5t109 111t160 39.5q87 0 154.5 -39.5t104.5 -110.5t37 -163q0 -109 -55.5 -188t-157.5 -116v-82h114l98 113v-155h-256v148q96 39 137 103.5t41 176.5q0 275 -217 275q-112 0 -171 -70t-59 -205
q0 -114 43.5 -181.5t135.5 -98.5v-148h-257v155z" />
    <glyph glyph-name="uni03BC" unicode="&#x3bc;" horiz-adv-x="598" 
d="M446 0v128q-60 -140 -188 -140q-57 0 -94 27v-215h-70v730h70v-358q0 -66 28.5 -101t81.5 -35q58 0 101.5 40.5t63.5 113.5v340h70v-445l78 -85h-141z" />
    <glyph glyph-name="pi" unicode="&#x3c0;" horiz-adv-x="737" 
d="M49.5 66q10.5 10 27.5 10q13 0 37 -10q30 -12 51 -12q32 0 47 23t15 73v310q-63 -2 -103.5 -20t-63.5 -54l-19 12q33 71 84 101.5t142 30.5q43 0 91 -5t56 -6q15 -1 54 -5t67 -4q54 0 88.5 14.5t55.5 45.5l19 -11q-19 -56 -58.5 -85t-103.5 -33v-287q0 -54 17.5 -83
t50.5 -29q18 0 34 10.5t35 36.5l13 -13q-20 -48 -43.5 -68t-60.5 -20q-58 0 -88 42.5t-30 124.5v288l-81 7q-72 8 -113 10v-310q0 -77 -38.5 -119.5t-108.5 -42.5q-39 0 -61.5 14t-22.5 37q0 17 10.5 27z" />
    <glyph glyph-name="zero" unicode="0" horiz-adv-x="667" 
d="M118 641q74 98 214 98q143 0 217 -96.5t74 -282.5q0 -182 -74 -277t-217 -95q-140 0 -214 95t-74 275q0 185 74 283zM490 609.5q-55 87.5 -158 87.5q-101 0 -155.5 -87.5t-54.5 -251.5q0 -163 53 -245t157 -82t158.5 84t54.5 244q0 163 -55 250.5z" />
    <glyph glyph-name="one" unicode="1" horiz-adv-x="333" 
d="M152 87v514l-113 -18l183 157v-670l62 -70h-173z" />
    <glyph glyph-name="two" unicode="2" horiz-adv-x="579" 
d="M260 206q93 87 141 171.5t48 160.5q0 74 -43 116.5t-118 42.5t-116.5 -43.5t-44.5 -120.5q-1 -36 -10.5 -51t-28.5 -15q-39 0 -39 62q0 60 31.5 108t88.5 75t129 27q105 0 166.5 -54t61.5 -148q0 -81 -53.5 -163.5t-181.5 -196.5l-117 -109h271l94 108v-176h-500z" />
    <glyph glyph-name="three" unicode="3" horiz-adv-x="575" 
d="M236 396q98 0 149.5 38.5t51.5 113.5q0 70 -42 109t-116 39q-73 0 -111.5 -38.5t-38.5 -109.5q0 -30 -8 -43.5t-26 -13.5q-17 0 -25 13t-8 41q0 90 60 142t162 52q66 0 116.5 -23t78 -65t27.5 -97q0 -65 -37.5 -111.5t-102.5 -65.5q86 -16 133 -62.5t47 -118.5
q0 -60 -32 -107.5t-89 -74t-129 -26.5q-73 0 -131.5 27.5t-92 75.5t-33.5 107q0 62 38 62q18 0 27 -15t9 -48q0 -78 44 -122t122 -44q55 0 98 22t67.5 61.5t24.5 89.5q0 76 -58 112.5t-175 36.5v43z" />
    <glyph glyph-name="four" unicode="4" horiz-adv-x="602" 
d="M405 87v83h-397l403 555h64v-513h122v-42h-122v-100l62 -70h-173zM405 212v434l-314 -434h314z" />
    <glyph glyph-name="five" unicode="5" horiz-adv-x="583" 
d="M86 343v382h417v-69h-375v-271q74 77 186 77q71 0 125.5 -28.5t84 -80t29.5 -120.5q0 -72 -32.5 -126.5t-92.5 -84.5t-139 -30q-70 0 -127 23t-90 63.5t-33 90.5q0 52 38 52q17 0 25 -12.5t9 -39.5q3 -66 45.5 -102.5t116.5 -36.5q94 0 149 56t55 150q0 86 -46.5 134
t-130.5 48q-54 0 -100 -19.5t-78 -55.5h-36z" />
    <glyph glyph-name="six" unicode="6" horiz-adv-x="598" 
d="M502 46.5q-62 -58.5 -174 -58.5q-140 0 -212 92t-72 267q0 124 34.5 212t98.5 134t153 46q57 0 104.5 -19t74.5 -51t27 -70q0 -44 -35 -44q-38 0 -47 52q-7 44 -38 67t-81 23q-103 0 -158.5 -93.5t-55.5 -272.5q43 52 96 76.5t121 24.5q108 0 167 -57t59 -162
q0 -108 -62 -166.5zM123 292q17 -261 198 -261q79 0 123 47t44 130q0 85 -46 132.5t-129 47.5q-114 0 -190 -96z" />
    <glyph glyph-name="seven" unicode="7" horiz-adv-x="533" 
d="M29 725h510l-44 -70q-193 -293 -312 -655h-88q138 367 356 655h-353l-69 -74v144z" />
    <glyph glyph-name="eight" unicode="8" horiz-adv-x="595" 
d="M109 453q-25 39 -25 92q0 58 27.5 102t78.5 68t119 24q99 0 158.5 -51t59.5 -138q0 -111 -107 -175q140 -67 140 -192q0 -90 -70 -142.5t-191 -52.5q-120 0 -187.5 52.5t-67.5 147.5q0 66 35 113.5t110 81.5q-55 31 -80 70zM449 463.5q23 42.5 23 89.5q0 67 -46.5 106.5
t-125.5 39.5q-73 0 -114.5 -35t-41.5 -97q0 -42 22.5 -71.5t74.5 -54.5t144 -50q41 30 64 72.5zM133 293q-29 -41 -29 -100q0 -80 51 -122.5t148 -42.5q93 0 143.5 38t50.5 106q0 42 -23.5 72t-81.5 58t-167 63q-63 -31 -92 -72z" />
    <glyph glyph-name="nine" unicode="9" horiz-adv-x="597" 
d="M519 167q-34 -87 -98.5 -133t-152.5 -46q-57 0 -104.5 18.5t-75 50t-27.5 68.5q0 43 35 43q31 0 40 -44q10 -45 43 -69t85 -24q101 0 156.5 89.5t55.5 254.5q-28 -57 -75.5 -83.5t-118.5 -26.5q-76 0 -132 28.5t-86 81t-30 123.5q0 72 31 126.5t87.5 84.5t130.5 30
q131 0 200.5 -93.5t69.5 -269.5q0 -122 -34 -209zM154.5 362q50.5 -53 139.5 -53q62 0 108 27.5t73 79.5q-8 281 -195 281q-82 0 -129 -50.5t-47 -139.5q0 -92 50.5 -145z" />
    <glyph glyph-name="zero.osf" horiz-adv-x="694" 
d="M81.5 416.5q37.5 62.5 106.5 97t159 34.5t159 -33.5t106.5 -95.5t37.5 -144q0 -84 -38 -149t-106.5 -100.5t-158.5 -35.5t-158.5 35t-106.5 98.5t-38 146.5q0 84 37.5 146.5zM466.5 64q51.5 30 79.5 85t28 126q0 69 -28 120.5t-79.5 80t-119.5 28.5t-119.5 -28.5
t-79.5 -81.5t-28 -124q0 -70 28 -123.5t79.5 -83t119.5 -29.5t119.5 30z" />
    <glyph glyph-name="one.osf" horiz-adv-x="291" 
d="M110 87v373l-61 70h172l-40 -87v-373l61 -70h-172z" />
    <glyph glyph-name="two.osf" horiz-adv-x="587" 
d="M39 0l149 97q103 67 161 115t83 87t25 79q0 58 -44 93t-117 35q-77 0 -118.5 -40t-43.5 -109q0 -63 -38 -63t-38 61q0 55 31.5 99t89 69t132.5 25q103 0 163 -45.5t60 -123.5q0 -49 -28 -91.5t-93 -90.5t-182 -114l-28 -16h345v-67h-509z" />
    <glyph glyph-name="three.osf" horiz-adv-x="578" 
d="M199 194q112 0 176 45t64 126q0 65 -41.5 102.5t-117.5 37.5q-65 0 -100 -29.5t-35 -84.5q-1 -26 -8.5 -37.5t-24.5 -11.5q-34 0 -34 51q0 72 56 113.5t151 41.5q68 0 118.5 -22.5t77.5 -62.5t27 -91q0 -71 -50.5 -122.5t-131.5 -69.5q101 -14 162 -67.5t61 -132.5
q0 -57 -33 -103.5t-92.5 -73t-136.5 -26.5q-69 0 -125.5 21.5t-89.5 60t-33 87.5q0 25 10 40t29 15q35 0 35 -53q1 -62 44.5 -95.5t119.5 -33.5q91 0 143 46.5t52 122.5q0 83 -68 123.5t-205 40.5v42z" />
    <glyph glyph-name="four.osf" horiz-adv-x="612" 
d="M407 -113v113h-399l400 530h69v-487h131v-43h-131v-130l62 -70h-173zM407 43v416l-313 -416h313z" />
    <glyph glyph-name="five.osf" horiz-adv-x="600" 
d="M95 87v443h420v-68h-377v-335q34 32 85 49t111 17q72 0 125.5 -25t82.5 -70.5t29 -105.5q0 -65 -33.5 -113.5t-94.5 -75t-141 -26.5q-74 0 -134 21.5t-94.5 59t-34.5 82.5q0 47 38 47q31 0 34 -44q2 -59 49 -92t131 -33q96 0 149.5 46.5t53.5 130.5q0 76 -46.5 115.5
t-135.5 39.5q-59 0 -106 -16.5t-74 -46.5h-37z" />
    <glyph glyph-name="six.osf" horiz-adv-x="597" 
d="M502 46.5q-62 -58.5 -174 -58.5q-140 0 -212 92t-72 267q0 124 34.5 212t98.5 134t153 46q57 0 104.5 -19t74.5 -51t27 -70q0 -44 -35 -44q-38 0 -47 52q-7 44 -38 67t-81 23q-103 0 -158.5 -93.5t-55.5 -272.5q43 52 96 76.5t121 24.5q108 0 167 -57t59 -162
q0 -108 -62 -166.5zM123 292q17 -261 198 -261q79 0 123 47t44 130q0 85 -46 132.5t-129 47.5q-114 0 -190 -96z" />
    <glyph glyph-name="seven.osf" horiz-adv-x="533" 
d="M29 530h510l-45 -70q-94 -143 -170.5 -305t-141.5 -355h-88q141 374 357 660h-353l-69 -74v144z" />
    <glyph glyph-name="eight.osf" horiz-adv-x="594" 
d="M109 453q-25 39 -25 92q0 58 27.5 102t78.5 68t119 24q99 0 158.5 -51t59.5 -138q0 -111 -107 -175q140 -67 140 -192q0 -90 -70 -142.5t-191 -52.5q-120 0 -187.5 52.5t-67.5 147.5q0 66 35 113.5t110 81.5q-55 31 -80 70zM449 463.5q23 42.5 23 89.5q0 67 -46.5 106.5
t-125.5 39.5q-73 0 -114.5 -35t-41.5 -97q0 -42 22.5 -71.5t74.5 -54.5t144 -50q41 30 64 72.5zM133 293q-29 -41 -29 -100q0 -80 51 -122.5t148 -42.5q93 0 143.5 38t50.5 106q0 42 -23.5 72t-81.5 58t-167 63q-63 -31 -92 -72z" />
    <glyph glyph-name="nine.osf" horiz-adv-x="596" 
d="M517.5 -37q-34.5 -90 -98.5 -138t-152 -48q-57 0 -104 18.5t-74.5 50t-27.5 69.5q0 20 9 31t25 11q34 0 42 -45q8 -44 41 -68.5t84 -24.5q102 0 157.5 93t56.5 268q-29 -56 -76.5 -83t-117.5 -27q-76 0 -132 29t-86 82t-30 124q0 72 31 127t87 85.5t130 30.5
q131 0 200.5 -94.5t69.5 -275.5q0 -125 -34.5 -215zM155 168q51 -54 139 -54q61 0 107.5 27t73.5 79q-6 145 -54.5 215.5t-140.5 70.5q-83 0 -129.5 -51.5t-46.5 -139.5q0 -93 51 -147z" />
    <glyph glyph-name="zero.osf.ss04" horiz-adv-x="689" 
d="M82.5 412q38.5 64 106.5 100t155 36q88 0 156.5 -35t106.5 -97.5t38 -143.5t-38.5 -145.5t-107 -100.5t-155.5 -36q-88 0 -156 35t-106 98t-38 144t38.5 145zM477.5 91.5q58.5 26.5 91 73.5t32.5 107q0 58 -32.5 104t-91 71.5t-133.5 25.5t-133 -26t-90.5 -73t-32.5 -107
q0 -59 32.5 -105t90.5 -71.5t133 -25.5t133.5 26.5z" />
    <glyph glyph-name="zero.osf.ss04.zero" horiz-adv-x="689" 
d="M500.5 513q68.5 -35 106.5 -97.5t38 -143.5t-38.5 -145.5t-107 -100.5t-155.5 -36q-88 0 -156 35t-106 98t-38 144t38.5 145t106.5 100t155 36q88 0 156.5 -35zM113.5 172q25.5 -42 71.5 -69l275 351q-54 19 -116 19q-75 0 -133 -26t-90.5 -73t-32.5 -107q0 -53 25.5 -95
zM477.5 91.5q58.5 26.5 91 73.5t32.5 107q0 52 -26 94t-73 69l-274 -351q54 -19 116 -19q75 0 133.5 26.5z" />
    <glyph glyph-name="zero.osf.zero" horiz-adv-x="692" 
d="M189.5 25q-68.5 35 -107 99t-38.5 149q0 82 42 144.5t111.5 96.5t149.5 34q86 0 155 -32t108.5 -93t39.5 -145t-38.5 -149.5t-107.5 -102t-157 -36.5q-89 0 -157.5 35zM138.5 173q18.5 -45 51.5 -75l290 369q-59 37 -133 37q-59 0 -111.5 -29t-84 -81.5t-31.5 -120.5
q0 -55 18.5 -100zM512 437l-288 -369q51 -34 123 -34q66 0 117.5 31t80.5 86.5t29 126.5q0 99 -62 159z" />
    <glyph glyph-name="zero.ss04" horiz-adv-x="653" 
d="M116 641.5q72 97.5 209 97.5q139 0 211.5 -97.5t72.5 -283.5q0 -180 -72.5 -275t-211.5 -95q-137 0 -209 95t-72 275q0 186 72 283.5zM504 588.5q-62 78.5 -179 78.5q-116 0 -177 -78.5t-61 -228.5q0 -146 61 -223.5t177 -77.5q117 0 179 77.5t62 223.5q0 150 -62 228.5z
" />
    <glyph glyph-name="zero.ss04.zero" horiz-adv-x="653" 
d="M116 83q-72 95 -72 275q0 186 72 283.5t209 97.5q139 0 211.5 -97.5t72.5 -283.5q0 -180 -72.5 -275t-211.5 -95q-137 0 -209 95zM485 606q-59 61 -160 61q-116 0 -177 -78.5t-61 -228.5q0 -135 53 -211zM504 136.5q62 77.5 62 223.5q0 136 -52 212l-343 -456
q59 -57 154 -57q117 0 179 77.5z" />
    <glyph glyph-name="zero.tf" 
d="M151 642.5q74 96.5 213 96.5q141 0 214.5 -95.5t73.5 -279.5q0 -185 -73 -280.5t-215 -95.5q-140 0 -213.5 96t-73.5 279t74 279.5zM521 610.5q-55 86.5 -157 86.5q-101 0 -155.5 -86.5t-54.5 -247.5q0 -166 53 -249t157 -83q103 0 157.5 85t54.5 247q0 161 -55 247.5z
" />
    <glyph glyph-name="one.tf" 
d="M602 0h-446v44h188v569l-152 41l222 86v-696h188v-44z" />
    <glyph glyph-name="two.tf" 
d="M104 0l231 206q103 93 151 171.5t48 155.5q0 78 -45.5 121t-125.5 43t-125 -43t-48 -123q-2 -33 -10.5 -48.5t-27.5 -15.5q-38 0 -38 62q0 60 33 108t92 75t134 27q110 0 174 -54.5t64 -148.5q0 -81 -56.5 -164t-187.5 -194l-125 -110h288l94 108v-176h-520z" />
    <glyph glyph-name="three.tf" 
d="M310 396q107 0 163 38.5t56 114.5q0 68 -45 107.5t-126 39.5q-80 0 -123.5 -39t-43.5 -110q0 -30 -8 -43t-25 -13t-25 13.5t-8 42.5q0 88 65 140t174 52q71 0 124 -23.5t81.5 -65t28.5 -95.5q0 -65 -40.5 -111.5t-109.5 -66.5q90 -15 140 -61.5t50 -117.5
q0 -59 -33.5 -107t-93.5 -75.5t-136 -27.5q-77 0 -139.5 28.5t-98 78.5t-35.5 112t38 62q18 0 26.5 -14t8.5 -47q0 -84 49 -130.5t135 -46.5q59 0 105 22t71.5 61.5t25.5 88.5q0 76 -62 113t-189 37v43z" />
    <glyph glyph-name="four.tf" 
d="M452 87v83h-405l411 555h64v-513h149v-42h-149v-100l61 -70h-172zM452 212v435l-322 -435h322z" />
    <glyph glyph-name="five.tf" 
d="M147 343v382h438v-69h-395v-272q75 78 195 78q75 0 131.5 -28t87.5 -79.5t31 -120.5q0 -73 -34 -128.5t-96.5 -86.5t-145.5 -31q-72 0 -131 23t-93 63.5t-34 90.5q0 52 37 52q33 0 34 -51q2 -65 47 -100.5t123 -35.5q100 0 158.5 56t58.5 152q0 86 -49.5 133t-138.5 47
q-58 0 -107 -20t-80 -55h-37z" />
    <glyph glyph-name="six.tf" 
d="M580.5 47q-63.5 -59 -180.5 -59q-144 0 -218.5 92.5t-74.5 270.5q0 121 35 208.5t101 133.5t157 46q60 0 109.5 -18.5t78.5 -51t29 -71.5q0 -43 -38 -43q-18 0 -28.5 11t-14.5 36q-9 47 -42.5 71t-87.5 24q-108 0 -165 -91.5t-58 -273.5q90 100 232 100q110 0 169.5 -57
t59.5 -162q0 -107 -63.5 -166zM185 292q20 -261 208 -261q83 0 129.5 47t46.5 130q0 85 -48.5 132.5t-136.5 47.5q-119 0 -199 -96z" />
    <glyph glyph-name="seven.tf" 
d="M116 725h550l-62 -65q-124 -127 -184 -288t-60 -372h-88q2 196 73 357.5t213 297.5h-373l-69 -74v144z" />
    <glyph glyph-name="eight.tf" 
d="M168.5 41q-72.5 53 -72.5 147q0 64 38 110.5t122 85.5q-62 32 -90.5 70t-28.5 90q0 57 31 101.5t86.5 69t126.5 24.5q69 0 122 -23t82 -64.5t29 -94.5q0 -108 -125 -180q82 -35 122 -83t40 -111q0 -91 -75 -143t-205 -52t-202.5 53zM531 469q28 43 28 88
q0 63 -51.5 102.5t-135.5 39.5q-80 0 -126 -35t-46 -96q0 -42 24 -72t78.5 -55t148.5 -50q52 35 80 78zM212 70.5q56 -42.5 163 -42.5q101 0 155.5 37t54.5 107q0 41 -23.5 69t-84.5 56.5t-183 67.5q-74 -35 -106 -74.5t-32 -96.5q0 -81 56 -123.5z" />
    <glyph glyph-name="nine.tf" 
d="M592 168q-35 -87 -101 -133.5t-157 -46.5q-59 0 -109 18.5t-79 50.5t-29 70q0 41 34 41t43 -46q9 -43 44 -67t90 -24q107 0 165 89.5t58 254.5q-29 -56 -79 -83t-125 -27q-78 0 -135.5 28.5t-89 81.5t-31.5 123q0 72 32 126.5t90.5 84.5t135.5 30q135 0 206.5 -93.5
t71.5 -269.5q0 -121 -35 -208zM214.5 362q53.5 -53 145.5 -53q65 0 113.5 27.5t76.5 79.5q-5 141 -55.5 211t-148.5 70q-86 0 -135.5 -50.5t-49.5 -139.5q0 -92 53.5 -145z" />
    <glyph glyph-name="zero.tf.ss04" 
d="M169.5 114q-57.5 81 -57.5 223q0 39 2 59q14 153 74.5 233t167.5 80q11 0 35 -2q112 -13 169.5 -92t57.5 -219q0 -31 -3 -64q-13 -156 -73 -234.5t-167 -78.5q-25 0 -38 2q-110 12 -167.5 93zM526 141q55 67 55 193q0 14 -2 44q-10 133 -66.5 204t-152.5 71
q-102 0 -156.5 -66.5t-54.5 -189.5q0 -14 2 -46q9 -136 64 -206.5t152 -70.5q104 0 159 67z" />
    <glyph glyph-name="zero.tf.ss04.zero" 
d="M571.5 643.5q70.5 -95.5 70.5 -279.5t-70.5 -280t-207.5 -96q-136 0 -206.5 96.5t-70.5 279.5q0 180 70 277.5t207 97.5t207.5 -95.5zM190.5 587.5q-60.5 -77.5 -60.5 -223.5q0 -135 48 -210l342 454q-59 57 -156 57q-113 0 -173.5 -77.5zM539 140q61 78 61 224
q0 131 -51 210l-342 -455q57 -57 157 -57q114 0 175 78z" />
    <glyph glyph-name="zero.tf.zero" 
d="M150.5 84.5q-73.5 96.5 -73.5 278.5q0 183 74 279.5t213 96.5q141 0 214.5 -95.5t73.5 -279.5q0 -185 -73 -280.5t-215 -95.5q-140 0 -213.5 96.5zM186 163l334 445q-55 89 -156 89t-155.5 -86.5t-54.5 -247.5q0 -122 32 -200zM521.5 116q54.5 85 54.5 247q0 123 -36 199
l-333 -444q51 -87 157 -87q103 0 157.5 85z" />
    <glyph glyph-name="zero.tosf" 
d="M100.5 417.5q37.5 62.5 106 96.5t158.5 34t158.5 -33.5t106 -94.5t37.5 -142q0 -86 -37.5 -151t-106 -101t-158.5 -36t-158.5 35.5t-106 99.5t-37.5 148q0 82 37.5 144.5zM483.5 64.5q51.5 30.5 79.5 85.5t28 128q0 67 -28 118.5t-79.5 79.5t-118.5 28t-118 -28.5
t-79 -81t-28 -121.5q0 -71 28 -125.5t79 -84t118 -29.5t118.5 30.5z" />
    <glyph glyph-name="one.tosf" 
d="M602 0h-445v44h187v376l-152 41l222 86v-503h188v-44z" />
    <glyph glyph-name="two.tosf" 
d="M116 0l149 97q103 67 161 115t83 87t25 79q0 58 -44 93t-117 35q-77 0 -118.5 -40t-43.5 -109q0 -63 -38 -63t-38 61q0 55 31.5 99t89 69t132.5 25q103 0 163 -45.5t60 -123.5q0 -49 -28 -91.5t-93 -90.5t-182 -114l-28 -16h345v-67h-509z" />
    <glyph glyph-name="three.tosf" 
d="M284 194q112 0 176 45t64 126q0 65 -41.5 102.5t-117.5 37.5q-65 0 -100 -29.5t-35 -84.5q-1 -26 -8.5 -37.5t-24.5 -11.5q-34 0 -34 51q0 72 56 113.5t151 41.5q68 0 118.5 -22.5t77.5 -62.5t27 -91q0 -71 -50.5 -122.5t-131.5 -69.5q101 -14 162 -67.5t61 -132.5
q0 -57 -33 -103.5t-92.5 -73t-136.5 -26.5q-69 0 -125.5 21.5t-89.5 60t-33 87.5q0 25 10 40t29 15q35 0 35 -53q1 -62 44.5 -95.5t119.5 -33.5q91 0 143 46.5t52 122.5q0 83 -68 123.5t-205 40.5v42z" />
    <glyph glyph-name="four.tosf" 
d="M464 -113v113h-399l400 530h69v-487h131v-43h-131v-130l62 -70h-173zM464 43v416l-313 -416h313z" />
    <glyph glyph-name="five.tosf" 
d="M179 87v443h420v-68h-377v-335q34 32 85 49t111 17q72 0 125.5 -25t82.5 -70.5t29 -105.5q0 -65 -33.5 -113.5t-94.5 -75t-141 -26.5q-74 0 -134 21.5t-94.5 59t-34.5 82.5q0 47 38 47q31 0 34 -44q2 -59 49 -92t131 -33q96 0 149.5 46.5t53.5 130.5q0 76 -46.5 115.5
t-135.5 39.5q-59 0 -106 -16.5t-74 -46.5h-37z" />
    <glyph glyph-name="six.tosf" 
d="M570 46.5q-62 -58.5 -174 -58.5q-140 0 -212 92t-72 267q0 124 34.5 212t98.5 134t153 46q57 0 104.5 -19t74.5 -51t27 -70q0 -44 -35 -44q-38 0 -47 52q-7 44 -38 67t-81 23q-103 0 -158.5 -93.5t-55.5 -272.5q43 52 96 76.5t121 24.5q108 0 167 -57t59 -162
q0 -108 -62 -166.5zM191 292q17 -261 198 -261q79 0 123 47t44 130q0 85 -46 132.5t-129 47.5q-114 0 -190 -96z" />
    <glyph glyph-name="seven.tosf" 
d="M133 530h511l-45 -70q-95 -143 -171.5 -305.5t-140.5 -354.5h-88q137 367 356 660h-354l-68 -74v144z" />
    <glyph glyph-name="eight.tosf" 
d="M181 453q-25 39 -25 92q0 58 27.5 102t78.5 68t119 24q99 0 158.5 -51t59.5 -138q0 -111 -107 -175q140 -67 140 -192q0 -90 -70 -142.5t-191 -52.5q-120 0 -187.5 52.5t-67.5 147.5q0 66 35 113.5t110 81.5q-55 31 -80 70zM521 463.5q23 42.5 23 89.5q0 67 -46.5 106.5
t-125.5 39.5q-73 0 -114.5 -35t-41.5 -97q0 -42 22.5 -71.5t74.5 -54.5t144 -50q41 30 64 72.5zM205 293q-29 -41 -29 -100q0 -80 51 -122.5t148 -42.5q93 0 143.5 38t50.5 106q0 42 -23.5 72t-81.5 58t-167 63q-63 -31 -92 -72z" />
    <glyph glyph-name="nine.tosf" 
d="M586.5 -37q-34.5 -90 -98.5 -138t-152 -48q-57 0 -104 18.5t-74.5 50t-27.5 69.5q0 20 9 31t25 11q34 0 42 -45q8 -44 41 -68.5t84 -24.5q102 0 157.5 93t56.5 268q-29 -56 -76.5 -83t-117.5 -27q-76 0 -132 29t-86 82t-30 124q0 72 31 127t87 85.5t130 30.5
q131 0 200.5 -94.5t69.5 -275.5q0 -125 -34.5 -215zM224 168q51 -54 139 -54q61 0 107.5 27t73.5 79q-6 145 -54.5 215.5t-140.5 70.5q-83 0 -129.5 -51.5t-46.5 -139.5q0 -93 51 -147z" />
    <glyph glyph-name="zero.tosf.ss04" horiz-adv-x="727" 
d="M102.5 412q38.5 64 106.5 100t155 36q88 0 156.5 -35t106.5 -97.5t38 -143.5t-38.5 -145.5t-107 -100.5t-155.5 -36q-88 0 -156 35t-106 98t-38 144t38.5 145zM497.5 91.5q58.5 26.5 91 73.5t32.5 107q0 58 -32.5 104t-91 71.5t-133.5 25.5t-133 -26t-90.5 -73
t-32.5 -107q0 -59 32.5 -105t90.5 -71.5t133 -25.5t133.5 26.5z" />
    <glyph glyph-name="zero.tosf.ss04.zero" horiz-adv-x="727" 
d="M520.5 513q68.5 -35 106.5 -97.5t38 -143.5t-38.5 -145.5t-107 -100.5t-155.5 -36q-88 0 -156 35t-106 98t-38 144t38.5 145t106.5 100t155 36q88 0 156.5 -35zM133.5 172q25.5 -42 71.5 -69l275 351q-54 19 -116 19q-75 0 -133 -26t-90.5 -73t-32.5 -107q0 -53 25.5 -95
zM497.5 91.5q58.5 26.5 91 73.5t32.5 107q0 52 -26 94t-73 69l-274 -351q54 -19 116 -19q75 0 133.5 26.5z" />
    <glyph glyph-name="zero.tosf.zero" 
d="M208.5 25q-68.5 35 -106.5 99t-38 149q0 82 42 144.5t111 96.5t149 34q86 0 154.5 -32t107.5 -93.5t39 -145.5t-38.5 -149t-107 -101.5t-155.5 -36.5q-89 0 -157.5 35zM158.5 174q18.5 -45 52.5 -76l288 368q-56 38 -133 38q-59 0 -111 -29t-83.5 -82t-31.5 -120
q0 -54 18.5 -99zM575 366q-16 40 -44 68l-288 -365q52 -35 123 -35q66 0 117 31t79.5 86.5t28.5 126.5q0 48 -16 88z" />
    <glyph glyph-name="zero.zero" horiz-adv-x="667" 
d="M118 83q-74 95 -74 275q0 185 74 283t214 98q143 0 217 -96.5t74 -282.5q0 -182 -74 -277t-217 -95q-140 0 -214 95zM488 609q-55 88 -156 88t-155.5 -87.5t-54.5 -251.5q0 -119 31 -195zM332 31q104 0 158.5 84t54.5 243q0 127 -35 206l-336 -446q53 -87 158 -87z" />
    <glyph glyph-name="uni2080" unicode="&#x2080;" horiz-adv-x="507" 
d="M100 -22q-56 58 -56 160q0 100 56 157t154 57t153.5 -56.5t55.5 -156.5q0 -103 -55.5 -161t-153.5 -58t-154 58zM353.5 10q35.5 46 35.5 129q0 80 -35.5 124.5t-99.5 44.5t-100 -45t-36 -125q0 -82 36 -128t100 -46t99.5 46z" />
    <glyph glyph-name="uni2081" unicode="&#x2081;" horiz-adv-x="292" 
d="M91 -70l31 65v234l-83 37l153 84v-362l51 -58h-152z" />
    <glyph glyph-name="uni2082" unicode="&#x2082;" horiz-adv-x="411" 
d="M39 -70l137 113q57 47 83 89.5t26 87.5q0 43 -20.5 65.5t-60.5 22.5t-62 -23t-22 -64q0 -26 -9 -40.5t-26 -14.5q-33 0 -33 50q0 60 43 97t113 37q68 0 109 -36.5t41 -96.5q0 -48 -30.5 -90t-104.5 -100l-42 -33h190v-64h-332z" />
    <glyph glyph-name="uni2083" unicode="&#x2083;" horiz-adv-x="425" 
d="M153 162q73 0 108 19.5t35 59.5q0 32 -22.5 49t-64.5 17q-41 0 -62.5 -17t-21.5 -49q0 -20 -8 -29t-25 -9t-24.5 9t-7.5 30q0 48 41.5 78t111.5 30q67 0 107 -27.5t40 -73.5q0 -36 -24.5 -62.5t-65.5 -37.5q59 -8 92 -36t33 -70q0 -36 -23 -64.5t-64.5 -44.5t-94.5 -16
q-49 0 -89 14.5t-62.5 40t-22.5 57.5q0 19 9.5 29.5t26.5 10.5q16 0 24 -9t10 -31q3 -37 25 -53t69 -16q57 0 88 21.5t31 59.5q0 41 -41 60t-128 19v41z" />
    <glyph glyph-name="uni2084" unicode="&#x2084;" horiz-adv-x="394" 
d="M200 -70l31 65v45h-223l230 295h63v-252h89v-43h-89v-52l51 -58h-152zM231 83v174l-135 -174h135z" />
    <glyph glyph-name="uni2085" unicode="&#x2085;" horiz-adv-x="419" 
d="M351 280h-233v-115q22 14 52 20.5t61 6.5q71 0 115 -34.5t44 -91.5q0 -61 -50.5 -98.5t-132.5 -37.5q-74 0 -121 30t-47 77q0 20 9.5 31t26.5 11q31 0 35 -41q9 -67 91 -67q52 0 83 25t31 68q0 41 -30 64.5t-84 23.5q-22 0 -45.5 -4.5t-41.5 -13.5h-38v212h275v-66z" />
    <glyph glyph-name="uni2086" unicode="&#x2086;" horiz-adv-x="457" 
d="M183.5 164q37.5 10 76.5 10q74 0 118.5 -34.5t44.5 -92.5q0 -60 -46.5 -93.5t-129.5 -33.5q-100 0 -151.5 52.5t-51.5 154.5q0 105 53.5 165t146.5 60q44 0 80 -13.5t56.5 -36t20.5 -50.5q0 -17 -9 -26.5t-25 -9.5q-33 0 -42 37q-7 27 -28 42t-54 15q-59 0 -92 -46
t-33 -129q28 19 65.5 29zM245 -38q49 0 77 23t28 62q0 40 -28.5 62.5t-79.5 22.5q-66 0 -123 -35q12 -135 126 -135z" />
    <glyph glyph-name="uni2087" unicode="&#x2087;" horiz-adv-x="351" 
d="M29 333h328q-76 -97 -131.5 -203.5t-78.5 -198.5h-84q27 82 91 184.5t120 151.5h-245v66z" />
    <glyph glyph-name="uni2088" unicode="&#x2088;" horiz-adv-x="438" 
d="M92 -47.5q-48 32.5 -48 88.5q0 63 70 97q-48 32 -48 89t43 91t114 34q70 0 113 -32.5t43 -85.5q0 -28 -13.5 -49t-43.5 -40q82 -31 82 -100q0 -58 -49 -91.5t-133 -33.5q-82 0 -130 32.5zM322 228q0 39 -26.5 60.5t-75.5 21.5q-46 0 -69.5 -17.5t-23.5 -49.5
q0 -35 35 -54t120 -31q40 22 40 70zM135 -15q32 -22 93 -22q54 0 84.5 17.5t30.5 48.5q0 22 -17 36.5t-56.5 26.5t-113.5 25q-53 -18 -53 -69q0 -41 32 -63z" />
    <glyph glyph-name="uni2089" unicode="&#x2089;" horiz-adv-x="458" 
d="M358.5 -20q-54.5 -60 -149.5 -60q-43 0 -79 12t-57 33t-21 45q0 17 9.5 26.5t26.5 9.5q15 0 24.5 -8t17.5 -27q11 -26 29.5 -37.5t49.5 -11.5q124 0 130 157q-49 -40 -127 -40q-80 0 -129 36t-49 98t50 100.5t133 38.5q96 0 146 -53t50 -152q0 -107 -54.5 -167z
M137.5 146.5q30.5 -24.5 86.5 -24.5q65 0 115 32q-6 155 -123 155q-49 0 -79 -26t-30 -69t30.5 -67.5z" />
    <glyph glyph-name="zero.dnom" horiz-adv-x="507" 
d="M100 46q-56 58 -56 160q0 100 56 157t154 57t153.5 -56.5t55.5 -156.5q0 -103 -55.5 -161t-153.5 -58t-154 58zM353.5 78q35.5 46 35.5 129q0 80 -35.5 124.5t-99.5 44.5t-100 -45t-36 -125q0 -82 36 -128t100 -46t99.5 46z" />
    <glyph glyph-name="one.dnom" horiz-adv-x="292" 
d="M91 0l31 65v234l-83 37l153 84v-362l51 -58h-152z" />
    <glyph glyph-name="two.dnom" horiz-adv-x="411" 
d="M39 0l137 113q57 47 83 89.5t26 87.5q0 43 -20.5 65.5t-60.5 22.5t-62 -23t-22 -64q0 -26 -9 -40.5t-26 -14.5q-33 0 -33 50q0 60 43 97t113 37q68 0 109 -36.5t41 -96.5q0 -48 -30.5 -90t-104.5 -100l-42 -33h190v-64h-332z" />
    <glyph glyph-name="three.dnom" horiz-adv-x="425" 
d="M153 232q73 0 108 19.5t35 59.5q0 32 -22.5 49t-64.5 17q-41 0 -62.5 -17t-21.5 -49q0 -20 -8 -29t-25 -9t-24.5 9t-7.5 30q0 48 41.5 78t111.5 30q67 0 107 -27.5t40 -73.5q0 -36 -24.5 -62.5t-65.5 -37.5q59 -8 92 -36t33 -70q0 -36 -23 -64.5t-64.5 -44.5t-94.5 -16
q-49 0 -89 14.5t-62.5 40t-22.5 57.5q0 19 9.5 29.5t26.5 10.5q16 0 24 -9t10 -31q3 -37 25 -53t69 -16q57 0 88 21.5t31 59.5q0 41 -41 60t-128 19v41z" />
    <glyph glyph-name="four.dnom" horiz-adv-x="394" 
d="M200 0l31 65v45h-223l230 295h63v-252h89v-43h-89v-52l51 -58h-152zM231 153v174l-135 -174h135z" />
    <glyph glyph-name="five.dnom" horiz-adv-x="419" 
d="M351 338h-233v-115q22 14 52 20.5t61 6.5q71 0 115 -34.5t44 -91.5q0 -61 -50.5 -98.5t-132.5 -37.5q-74 0 -121 30t-47 77q0 20 9.5 31t26.5 11q31 0 35 -41q9 -67 91 -67q52 0 83 25t31 68q0 41 -30 64.5t-84 23.5q-22 0 -45.5 -4.5t-41.5 -13.5h-38v212h275v-66z" />
    <glyph glyph-name="six.dnom" horiz-adv-x="457" 
d="M183.5 232q37.5 10 76.5 10q74 0 118.5 -34.5t44.5 -92.5q0 -60 -46.5 -93.5t-129.5 -33.5q-100 0 -151.5 52.5t-51.5 154.5q0 105 53.5 165t146.5 60q44 0 80 -13.5t56.5 -36t20.5 -50.5q0 -17 -9 -26.5t-25 -9.5q-33 0 -42 37q-7 27 -28 42t-54 15q-59 0 -92 -46
t-33 -129q28 19 65.5 29zM245 30q49 0 77 23t28 62q0 40 -28.5 62.5t-79.5 22.5q-66 0 -123 -35q12 -135 126 -135z" />
    <glyph glyph-name="seven.dnom" horiz-adv-x="351" 
d="M29 403h328q-76 -97 -131.5 -203.5t-78.5 -198.5h-84q27 82 91 184.5t120 151.5h-245v66z" />
    <glyph glyph-name="eight.dnom" horiz-adv-x="438" 
d="M92 20.5q-48 32.5 -48 88.5q0 63 70 97q-48 32 -48 89t43 91t114 34q70 0 113 -32.5t43 -85.5q0 -28 -13.5 -49t-43.5 -40q82 -31 82 -100q0 -58 -49 -91.5t-133 -33.5q-82 0 -130 32.5zM322 296q0 39 -26.5 60.5t-75.5 21.5q-46 0 -69.5 -17.5t-23.5 -49.5q0 -35 35 -54
t120 -31q40 22 40 70zM135 53q32 -22 93 -22q54 0 84.5 17.5t30.5 48.5q0 22 -17 36.5t-56.5 26.5t-113.5 25q-53 -18 -53 -69q0 -41 32 -63z" />
    <glyph glyph-name="nine.dnom" horiz-adv-x="458" 
d="M358.5 48q-54.5 -60 -149.5 -60q-43 0 -79 12t-57 33t-21 45q0 17 9.5 26.5t26.5 9.5q15 0 24.5 -8t17.5 -27q11 -26 29.5 -37.5t49.5 -11.5q124 0 130 157q-49 -40 -127 -40q-80 0 -129 36t-49 98t50 100.5t133 38.5q96 0 146 -53t50 -152q0 -107 -54.5 -167z
M137.5 214.5q30.5 -24.5 86.5 -24.5q65 0 115 32q-6 155 -123 155q-49 0 -79 -26t-30 -69t30.5 -67.5z" />
    <glyph glyph-name="zero.numr" horiz-adv-x="507" 
d="M100 365q-56 58 -56 160q0 100 56 157t154 57t153.5 -56.5t55.5 -156.5q0 -103 -55.5 -161t-153.5 -58t-154 58zM353.5 397q35.5 46 35.5 129q0 80 -35.5 124.5t-99.5 44.5t-100 -45t-36 -125q0 -82 36 -128t100 -46t99.5 46z" />
    <glyph glyph-name="one.numr" horiz-adv-x="292" 
d="M92 319l31 65v235l-84 38l152 82v-362l51 -58h-150z" />
    <glyph glyph-name="two.numr" horiz-adv-x="411" 
d="M39 319l137 113q57 47 83 89.5t26 87.5q0 43 -20.5 65.5t-60.5 22.5t-62 -23t-22 -64q0 -26 -9 -40.5t-26 -14.5q-33 0 -33 50q0 60 43 97t113 37q68 0 109 -36.5t41 -96.5q0 -48 -30.5 -90t-104.5 -100l-42 -33h190v-64h-332z" />
    <glyph glyph-name="three.numr" horiz-adv-x="425" 
d="M153 551q73 0 108 19.5t35 59.5q0 32 -22.5 49t-64.5 17q-41 0 -62.5 -17t-21.5 -49q0 -20 -8 -29t-25 -9t-24.5 9t-7.5 30q0 48 41.5 78t111.5 30q67 0 107 -27.5t40 -73.5q0 -36 -24.5 -62.5t-65.5 -37.5q59 -8 92 -36t33 -70q0 -36 -23 -64.5t-64.5 -44.5t-94.5 -16
q-49 0 -89 14.5t-62.5 40t-22.5 57.5q0 19 9.5 29.5t26.5 10.5q16 0 24 -9t10 -31q3 -37 25 -53t69 -16q57 0 88 21.5t31 59.5q0 41 -41 60t-128 19v41z" />
    <glyph glyph-name="four.numr" horiz-adv-x="394" 
d="M200 320l31 65v45h-223l230 295h63v-252h89v-43h-89v-52l51 -58h-152zM231 473v174l-135 -174h135z" />
    <glyph glyph-name="five.numr" horiz-adv-x="419" 
d="M351 659h-233v-115q22 14 52 20.5t61 6.5q71 0 115 -34.5t44 -91.5q0 -61 -50.5 -98.5t-132.5 -37.5q-74 0 -121 30t-47 77q0 20 9.5 31t26.5 11q31 0 35 -41q9 -67 91 -67q52 0 83 25t31 68q0 41 -30 64.5t-84 23.5q-22 0 -45.5 -4.5t-41.5 -13.5h-38v212h275v-66z" />
    <glyph glyph-name="six.numr" horiz-adv-x="457" 
d="M183.5 551q37.5 10 76.5 10q74 0 118.5 -34.5t44.5 -92.5q0 -60 -46.5 -93.5t-129.5 -33.5q-100 0 -151.5 52.5t-51.5 154.5q0 105 53.5 165t146.5 60q44 0 80 -13.5t56.5 -36t20.5 -50.5q0 -17 -9 -26.5t-25 -9.5q-33 0 -42 37q-7 27 -28 42t-54 15q-59 0 -92 -46
t-33 -129q28 19 65.5 29zM245 349q49 0 77 23t28 62q0 40 -28.5 62.5t-79.5 22.5q-66 0 -123 -35q12 -135 126 -135z" />
    <glyph glyph-name="seven.numr" horiz-adv-x="351" 
d="M29 725h328q-76 -97 -131.5 -203.5t-78.5 -198.5h-84q27 82 91 184.5t120 151.5h-245v66z" />
    <glyph glyph-name="eight.numr" horiz-adv-x="438" 
d="M92 339.5q-48 32.5 -48 88.5q0 63 70 97q-48 32 -48 89t43 91t114 34q70 0 113 -32.5t43 -85.5q0 -28 -13.5 -49t-43.5 -40q82 -31 82 -100q0 -58 -49 -91.5t-133 -33.5q-82 0 -130 32.5zM322 615q0 39 -26.5 60.5t-75.5 21.5q-46 0 -69.5 -17.5t-23.5 -49.5
q0 -35 35 -54t120 -31q40 22 40 70zM135 372q32 -22 93 -22q54 0 84.5 17.5t30.5 48.5q0 22 -17 36.5t-56.5 26.5t-113.5 25q-53 -18 -53 -69q0 -41 32 -63z" />
    <glyph glyph-name="nine.numr" horiz-adv-x="458" 
d="M358.5 367q-54.5 -60 -149.5 -60q-43 0 -79 12t-57 33t-21 45q0 17 9.5 26.5t26.5 9.5q15 0 24.5 -8t17.5 -27q11 -26 29.5 -37.5t49.5 -11.5q124 0 130 157q-49 -40 -127 -40q-80 0 -129 36t-49 98t50 100.5t133 38.5q96 0 146 -53t50 -152q0 -107 -54.5 -167z
M137.5 533.5q30.5 -24.5 86.5 -24.5q65 0 115 32q-6 155 -123 155q-49 0 -79 -26t-30 -69t30.5 -67.5z" />
    <glyph glyph-name="uni2070" unicode="&#x2070;" horiz-adv-x="507" 
d="M100 421q-56 58 -56 160q0 100 56 157t154 57t153.5 -56.5t55.5 -156.5q0 -103 -55.5 -161t-153.5 -58t-154 58zM353.5 453q35.5 46 35.5 129q0 80 -35.5 124.5t-99.5 44.5t-100 -45t-36 -125q0 -82 36 -128t100 -46t99.5 46z" />
    <glyph glyph-name="uni00B9" unicode="&#xb9;" horiz-adv-x="292" 
d="M92 375l31 65v235l-84 38l152 82v-362l51 -58h-150z" />
    <glyph glyph-name="uni00B2" unicode="&#xb2;" horiz-adv-x="411" 
d="M39 375l137 113q57 47 83 89.5t26 87.5q0 43 -20.5 65.5t-60.5 22.5t-62 -23t-22 -64q0 -26 -9 -40.5t-26 -14.5q-33 0 -33 50q0 60 43 97t113 37q68 0 109 -36.5t41 -96.5q0 -48 -30.5 -90t-104.5 -100l-42 -33h190v-64h-332z" />
    <glyph glyph-name="uni00B3" unicode="&#xb3;" horiz-adv-x="425" 
d="M153 607q73 0 108 19.5t35 59.5q0 32 -22.5 49t-64.5 17q-41 0 -62.5 -17t-21.5 -49q0 -20 -8 -29t-25 -9t-24.5 9t-7.5 30q0 48 41.5 78t111.5 30q67 0 107 -27.5t40 -73.5q0 -36 -24.5 -62.5t-65.5 -37.5q59 -8 92 -36t33 -70q0 -36 -23 -64.5t-64.5 -44.5t-94.5 -16
q-49 0 -89 14.5t-62.5 40t-22.5 57.5q0 19 9.5 29.5t26.5 10.5q16 0 24 -9t10 -31q3 -37 25 -53t69 -16q57 0 88 21.5t31 59.5q0 41 -41 60t-128 19v41z" />
    <glyph glyph-name="uni2074" unicode="&#x2074;" horiz-adv-x="394" 
d="M200 375l31 65v45h-223l230 295h63v-252h89v-43h-89v-52l51 -58h-152zM231 528v174l-135 -174h135z" />
    <glyph glyph-name="uni2075" unicode="&#x2075;" horiz-adv-x="419" 
d="M351 714h-233v-115q22 14 52 20.5t61 6.5q71 0 115 -34.5t44 -91.5q0 -61 -50.5 -98.5t-132.5 -37.5q-74 0 -121 30t-47 77q0 20 9.5 31t26.5 11q31 0 35 -41q9 -67 91 -67q52 0 83 25t31 68q0 41 -30 64.5t-84 23.5q-22 0 -45.5 -4.5t-41.5 -13.5h-38v212h275v-66z" />
    <glyph glyph-name="uni2076" unicode="&#x2076;" horiz-adv-x="457" 
d="M183.5 607q37.5 10 76.5 10q74 0 118.5 -34.5t44.5 -92.5q0 -60 -46.5 -93.5t-129.5 -33.5q-100 0 -151.5 52.5t-51.5 154.5q0 105 53.5 165t146.5 60q44 0 80 -13.5t56.5 -36t20.5 -50.5q0 -17 -9 -26.5t-25 -9.5q-33 0 -42 37q-7 27 -28 42t-54 15q-59 0 -92 -46
t-33 -129q28 19 65.5 29zM245 405q49 0 77 23t28 62q0 40 -28.5 62.5t-79.5 22.5q-66 0 -123 -35q12 -135 126 -135z" />
    <glyph glyph-name="uni2077" unicode="&#x2077;" horiz-adv-x="351" 
d="M29 778h328q-76 -97 -131.5 -203.5t-78.5 -198.5h-84q27 82 91 184.5t120 151.5h-245v66z" />
    <glyph glyph-name="uni2078" unicode="&#x2078;" horiz-adv-x="438" 
d="M92 395.5q-48 32.5 -48 88.5q0 63 70 97q-48 32 -48 89t43 91t114 34q70 0 113 -32.5t43 -85.5q0 -28 -13.5 -49t-43.5 -40q82 -31 82 -100q0 -58 -49 -91.5t-133 -33.5q-82 0 -130 32.5zM322 671q0 39 -26.5 60.5t-75.5 21.5q-46 0 -69.5 -17.5t-23.5 -49.5
q0 -35 35 -54t120 -31q40 22 40 70zM135 428q32 -22 93 -22q54 0 84.5 17.5t30.5 48.5q0 22 -17 36.5t-56.5 26.5t-113.5 25q-53 -18 -53 -69q0 -41 32 -63z" />
    <glyph glyph-name="uni2079" unicode="&#x2079;" horiz-adv-x="458" 
d="M358.5 423q-54.5 -60 -149.5 -60q-43 0 -79 12t-57 33t-21 45q0 17 9.5 26.5t26.5 9.5q15 0 24.5 -8t17.5 -27q11 -26 29.5 -37.5t49.5 -11.5q124 0 130 157q-49 -40 -127 -40q-80 0 -129 36t-49 98t50 100.5t133 38.5q96 0 146 -53t50 -152q0 -107 -54.5 -167z
M137.5 589.5q30.5 -24.5 86.5 -24.5q65 0 115 32q-6 155 -123 155q-49 0 -79 -26t-30 -69t30.5 -67.5z" />
    <glyph glyph-name="fraction" unicode="&#x2044;" horiz-adv-x="160" 
d="M-208 15l544 724l34 -27l-544 -724z" />
    <glyph glyph-name="onehalf" unicode="&#xbd;" horiz-adv-x="817" 
d="M92 319l31 65v235l-84 38l152 82v-362l51 -58h-150zM84 15l544 724l34 -27l-544 -724zM445 0l137 113q57 47 83 89.5t26 87.5q0 43 -20.5 65.5t-60.5 22.5t-62 -23t-22 -64q0 -26 -9 -40.5t-26 -14.5q-33 0 -33 50q0 60 43 97t113 37q68 0 109 -36.5t41 -96.5
q0 -48 -30.5 -90t-104.5 -100l-42 -33h190v-64h-332z" />
    <glyph glyph-name="uni2153" unicode="&#x2153;" horiz-adv-x="823" 
d="M92 319l31 65v235l-84 38l152 82v-362l51 -58h-150zM84 15l544 724l34 -27l-544 -724zM551 232q73 0 108 19.5t35 59.5q0 32 -22.5 49t-64.5 17q-41 0 -62.5 -17t-21.5 -49q0 -20 -8 -29t-25 -9t-24.5 9t-7.5 30q0 48 41.5 78t111.5 30q67 0 107 -27.5t40 -73.5
q0 -36 -24.5 -62.5t-65.5 -37.5q59 -8 92 -36t33 -70q0 -36 -23 -64.5t-64.5 -44.5t-94.5 -16q-49 0 -89 14.5t-62.5 40t-22.5 57.5q0 19 9.5 29.5t26.5 10.5q16 0 24 -9t10 -31q3 -37 25 -53t69 -16q57 0 88 21.5t31 59.5q0 41 -41 60t-128 19v41z" />
    <glyph glyph-name="uni2154" unicode="&#x2154;" horiz-adv-x="944" 
d="M39 319l137 113q57 47 83 89.5t26 87.5q0 43 -20.5 65.5t-60.5 22.5t-62 -23t-22 -64q0 -26 -9 -40.5t-26 -14.5q-33 0 -33 50q0 60 43 97t113 37q68 0 109 -36.5t41 -96.5q0 -48 -30.5 -90t-104.5 -100l-42 -33h190v-64h-332zM205 15l544 724l34 -27l-544 -724zM672 232
q73 0 108 19.5t35 59.5q0 32 -22.5 49t-64.5 17q-41 0 -62.5 -17t-21.5 -49q0 -20 -8 -29t-25 -9t-24.5 9t-7.5 30q0 48 41.5 78t111.5 30q67 0 107 -27.5t40 -73.5q0 -36 -24.5 -62.5t-65.5 -37.5q59 -8 92 -36t33 -70q0 -36 -23 -64.5t-64.5 -44.5t-94.5 -16
q-49 0 -89 14.5t-62.5 40t-22.5 57.5q0 19 9.5 29.5t26.5 10.5q16 0 24 -9t10 -31q3 -37 25 -53t69 -16q57 0 88 21.5t31 59.5q0 41 -41 60t-128 19v41z" />
    <glyph glyph-name="onequarter" unicode="&#xbc;" horiz-adv-x="742" 
d="M92 319l31 65v235l-84 38l152 82v-362l51 -58h-150zM84 15l544 724l34 -27l-544 -724zM548 0l31 65v45h-223l230 295h63v-252h89v-43h-89v-52l51 -58h-152zM579 153v174l-135 -174h135z" />
    <glyph glyph-name="threequarters" unicode="&#xbe;" horiz-adv-x="839" 
d="M153 551q73 0 108 19.5t35 59.5q0 32 -22.5 49t-64.5 17q-41 0 -62.5 -17t-21.5 -49q0 -20 -8 -29t-25 -9t-24.5 9t-7.5 30q0 48 41.5 78t111.5 30q67 0 107 -27.5t40 -73.5q0 -36 -24.5 -62.5t-65.5 -37.5q59 -8 92 -36t33 -70q0 -36 -23 -64.5t-64.5 -44.5t-94.5 -16
q-49 0 -89 14.5t-62.5 40t-22.5 57.5q0 19 9.5 29.5t26.5 10.5q16 0 24 -9t10 -31q3 -37 25 -53t69 -16q57 0 88 21.5t31 59.5q0 41 -41 60t-128 19v41zM181 15l544 724l34 -27l-544 -724zM645 0l31 65v45h-223l230 295h63v-252h89v-43h-89v-52l51 -58h-152zM676 153v174
l-135 -174h135z" />
    <glyph glyph-name="oneeighth" unicode="&#x215b;" horiz-adv-x="817" 
d="M92 319l31 65v235l-84 38l152 82v-362l51 -58h-150zM84 15l544 724l34 -27l-544 -724zM471 20.5q-48 32.5 -48 88.5q0 63 70 97q-48 32 -48 89t43 91t114 34q70 0 113 -32.5t43 -85.5q0 -28 -13.5 -49t-43.5 -40q82 -31 82 -100q0 -58 -49 -91.5t-133 -33.5
q-82 0 -130 32.5zM701 296q0 39 -26.5 60.5t-75.5 21.5q-46 0 -69.5 -17.5t-23.5 -49.5q0 -35 35 -54t120 -31q40 22 40 70zM514 53q32 -22 93 -22q54 0 84.5 17.5t30.5 48.5q0 22 -17 36.5t-56.5 26.5t-113.5 25q-53 -18 -53 -69q0 -41 32 -63z" />
    <glyph glyph-name="threeeighths" unicode="&#x215c;" horiz-adv-x="914" 
d="M153 551q73 0 108 19.5t35 59.5q0 32 -22.5 49t-64.5 17q-41 0 -62.5 -17t-21.5 -49q0 -20 -8 -29t-25 -9t-24.5 9t-7.5 30q0 48 41.5 78t111.5 30q67 0 107 -27.5t40 -73.5q0 -36 -24.5 -62.5t-65.5 -37.5q59 -8 92 -36t33 -70q0 -36 -23 -64.5t-64.5 -44.5t-94.5 -16
q-49 0 -89 14.5t-62.5 40t-22.5 57.5q0 19 9.5 29.5t26.5 10.5q16 0 24 -9t10 -31q3 -37 25 -53t69 -16q57 0 88 21.5t31 59.5q0 41 -41 60t-128 19v41zM181 15l544 724l34 -27l-544 -724zM568 20.5q-48 32.5 -48 88.5q0 63 70 97q-48 32 -48 89t43 91t114 34
q70 0 113 -32.5t43 -85.5q0 -28 -13.5 -49t-43.5 -40q82 -31 82 -100q0 -58 -49 -91.5t-133 -33.5q-82 0 -130 32.5zM798 296q0 39 -26.5 60.5t-75.5 21.5q-46 0 -69.5 -17.5t-23.5 -49.5q0 -35 35 -54t120 -31q40 22 40 70zM611 53q32 -22 93 -22q54 0 84.5 17.5t30.5 48.5
q0 22 -17 36.5t-56.5 26.5t-113.5 25q-53 -18 -53 -69q0 -41 32 -63z" />
    <glyph glyph-name="fiveeighths" unicode="&#x215d;" horiz-adv-x="895" 
d="M351 659h-233v-115q22 14 52 20.5t61 6.5q71 0 115 -34.5t44 -91.5q0 -61 -50.5 -98.5t-132.5 -37.5q-74 0 -121 30t-47 77q0 20 9.5 31t26.5 11q31 0 35 -41q9 -67 91 -67q52 0 83 25t31 68q0 41 -30 64.5t-84 23.5q-22 0 -45.5 -4.5t-41.5 -13.5h-38v212h275v-66z
M162 15l544 724l34 -27l-544 -724zM549 20.5q-48 32.5 -48 88.5q0 63 70 97q-48 32 -48 89t43 91t114 34q70 0 113 -32.5t43 -85.5q0 -28 -13.5 -49t-43.5 -40q82 -31 82 -100q0 -58 -49 -91.5t-133 -33.5q-82 0 -130 32.5zM779 296q0 39 -26.5 60.5t-75.5 21.5
q-46 0 -69.5 -17.5t-23.5 -49.5q0 -35 35 -54t120 -31q40 22 40 70zM592 53q32 -22 93 -22q54 0 84.5 17.5t30.5 48.5q0 22 -17 36.5t-56.5 26.5t-113.5 25q-53 -18 -53 -69q0 -41 32 -63z" />
    <glyph glyph-name="seveneighths" unicode="&#x215e;" horiz-adv-x="806" 
d="M29 725h328q-76 -97 -131.5 -203.5t-78.5 -198.5h-84q27 82 91 184.5t120 151.5h-245v66zM73 15l544 724l34 -27l-544 -724zM460 20.5q-48 32.5 -48 88.5q0 63 70 97q-48 32 -48 89t43 91t114 34q70 0 113 -32.5t43 -85.5q0 -28 -13.5 -49t-43.5 -40q82 -31 82 -100
q0 -58 -49 -91.5t-133 -33.5q-82 0 -130 32.5zM690 296q0 39 -26.5 60.5t-75.5 21.5q-46 0 -69.5 -17.5t-23.5 -49.5q0 -35 35 -54t120 -31q40 22 40 70zM503 53q32 -22 93 -22q54 0 84.5 17.5t30.5 48.5q0 22 -17 36.5t-56.5 26.5t-113.5 25q-53 -18 -53 -69q0 -41 32 -63z
" />
    <glyph glyph-name="uni00B9.osf" horiz-adv-x="292" 
d="M91 197l31 66v214l-83 36l153 84v-342l51 -58h-152z" />
    <glyph glyph-name="uni00B2.osf" horiz-adv-x="410" 
d="M39 197l137 113q56 47 82 86.5t26 79.5q0 38 -20.5 58.5t-58.5 20.5q-41 0 -63 -23t-22 -65q0 -54 -35 -54q-33 0 -33 50q0 59 42.5 96.5t115.5 37.5q68 0 107 -33t39 -90q0 -44 -28.5 -83t-104.5 -97l-43 -34h191v-63h-332z" />
    <glyph glyph-name="uni00B3.osf" horiz-adv-x="415" 
d="M153 419q73 0 108 17.5t35 54.5q0 30 -22.5 46.5t-64.5 16.5q-84 0 -84 -66q0 -19 -8 -28t-25 -9t-24.5 9t-7.5 29q0 49 41.5 78.5t111.5 29.5q66 0 106.5 -27t40.5 -71q0 -33 -24 -58t-65 -36q55 -8 85 -34t30 -68q0 -53 -48 -85.5t-125 -32.5q-76 0 -125 31.5t-49 80.5
q0 20 9.5 30.5t27.5 10.5q15 0 23 -9.5t10 -31.5q4 -39 24.5 -54t66.5 -15q55 0 84 19t29 55q0 40 -37.5 58t-122.5 18v41z" />
    <glyph glyph-name="onehalf.osf" horiz-adv-x="711" 
d="M83 210l29 61v162l-70 35l131 79v-281l49 -56h-139zM148 -12l-36 24l376 535l35 -24zM381 0l109 87q58 48 80.5 78.5t22.5 64.5q0 32 -16.5 50t-46.5 18t-46 -18.5t-16 -51.5q0 -50 -32 -50q-15 0 -23.5 13t-8.5 38q0 50 35 80.5t95 30.5q57 0 91.5 -28.5t34.5 -75.5
q0 -41 -29.5 -79.5t-99.5 -89.5l-12 -8h145v-59h-283z" />
    <glyph glyph-name="uni2153.osf" horiz-adv-x="705" 
d="M83 210l29 61v162l-70 35l131 79v-281l49 -56h-139zM150 -12l-36 24l376 535l35 -24zM487 180q106 0 106 61q0 27 -18 42.5t-49 15.5q-28 0 -42 -13.5t-17 -41.5q-3 -20 -10 -28t-21 -8q-30 0 -30 36q0 43 33.5 70t89.5 27q55 0 88.5 -26t33.5 -70q0 -30 -16.5 -50.5
t-46.5 -28.5q37 -8 58 -30t21 -54q0 -43 -35.5 -68.5t-96.5 -25.5t-100 26t-39 66q0 38 35 38q13 0 20 -7.5t11 -25.5q5 -30 21 -42.5t46 -12.5q34 0 52.5 14t18.5 40q0 29 -27 42t-86 13v41z" />
    <glyph glyph-name="uni2154.osf" horiz-adv-x="770" 
d="M30 209l108 87q50 41 71.5 73t21.5 68q0 33 -16.5 51.5t-46.5 18.5t-45.5 -18.5t-15.5 -51.5q0 -24 -8.5 -37t-23.5 -13t-24 12.5t-9 37.5q0 50 35.5 81t95.5 31q57 0 91 -29t34 -77q0 -41 -28.5 -80.5t-90.5 -86.5l-12 -8h127v-59h-264zM216 -12l-35 24l375 535l35 -24z
M553 180q105 0 105 61q0 27 -17.5 42.5t-48.5 15.5q-28 0 -44 -14t-16 -42q-1 -19 -8 -27t-22 -8q-30 0 -30 36q0 43 33 70t89 27q55 0 88.5 -26t33.5 -70q0 -30 -16.5 -50.5t-46.5 -28.5q37 -8 58 -29.5t21 -54.5q0 -43 -35.5 -68.5t-95.5 -25.5q-61 0 -100 26t-39 66
q0 38 35 38q13 0 20 -7.5t11 -25.5q5 -29 21 -42t46 -13q33 0 51.5 14t18.5 39q0 29 -27 42.5t-85 13.5v41z" />
    <glyph glyph-name="onequarter.osf" horiz-adv-x="687" 
d="M83 210l29 61v162l-70 35l131 79v-281l49 -56h-139zM148 -12l-36 24l376 535l35 -24zM471 0l29 61v26h-174l177 223h59v-181h87v-42h-87v-31l49 -56h-140zM500 129v110l-88 -110h88z" />
    <glyph glyph-name="threequarters.osf" horiz-adv-x="733" 
d="M130 386q106 0 106 61q0 27 -17.5 42.5t-48.5 15.5q-28 0 -42.5 -13.5t-17.5 -40.5q-3 -20 -10 -28.5t-21 -8.5q-30 0 -30 36q0 44 33.5 70.5t89.5 26.5q55 0 88.5 -26t33.5 -70q0 -30 -16.5 -50.5t-46.5 -28.5q37 -8 58 -30t21 -54q0 -42 -36 -68t-96 -26q-61 0 -100 26
t-39 66q0 18 9 28t26 10q14 0 20.5 -7t10.5 -26q5 -30 21 -42.5t46 -12.5q34 0 52.5 14t18.5 40q0 29 -27 42t-86 13v41zM212 -12l-36 24l376 535l35 -24zM517 0l29 61v26h-174l177 223h59v-181h86v-42h-86v-31l49 -56h-140zM546 129v110l-89 -110h89z" />
    <glyph glyph-name="oneeighth.osf" horiz-adv-x="692" 
d="M83 210l29 61v162l-70 35l131 79v-281l49 -56h-139zM148 -12l-36 24l376 535l35 -24zM417 12q-37 24 -37 66q0 50 57 78q-36 23 -36 68q0 43 31 67.5t84 24.5q52 0 85 -23t33 -62q0 -37 -37 -63q57 -29 57 -86q0 -45 -35.5 -69.5t-99.5 -24.5q-65 0 -102 24zM481.5 204.5
q24.5 -13.5 79.5 -22.5q20 17 20 42t-17 38t-49 13q-28 0 -43 -10t-15 -27q0 -20 24.5 -33.5zM459 43q19 -13 59 -13q39 0 59.5 11t20.5 31q0 22 -27.5 37t-91.5 27q-39 -12 -39 -52q0 -28 19 -41z" />
    <glyph glyph-name="threeeighths.osf" horiz-adv-x="756" 
d="M130 386q106 0 106 61q0 27 -17.5 42.5t-48.5 15.5q-28 0 -42.5 -13.5t-17.5 -40.5q-3 -20 -10 -28.5t-21 -8.5q-30 0 -30 36q0 44 33.5 70.5t89.5 26.5q55 0 88.5 -26t33.5 -70q0 -30 -16.5 -50.5t-46.5 -28.5q37 -8 58 -30t21 -54q0 -42 -36 -68t-96 -26q-61 0 -100 26
t-39 66q0 18 9 28t26 10q14 0 20.5 -7t10.5 -26q5 -30 21 -42.5t46 -12.5q34 0 52.5 14t18.5 40q0 29 -27 42t-86 13v41zM212 -12l-36 24l376 535l35 -24zM480.5 12q-36.5 24 -36.5 66q0 49 56 78q-35 23 -35 68q0 43 31 67.5t84 24.5q52 0 85 -23t33 -62q0 -37 -37 -63
q57 -29 57 -86q0 -45 -35.5 -69.5t-100.5 -24.5t-101.5 24zM545.5 204.5q24.5 -13.5 79.5 -22.5q20 17 20 42t-17 38t-49 13q-28 0 -43 -10t-15 -27q0 -20 24.5 -33.5zM523 43q19 -13 59 -13q39 0 59 11t20 31q0 23 -27 37.5t-91 26.5q-39 -12 -39 -52q0 -28 19 -41z" />
    <glyph glyph-name="fiveeighths.osf" horiz-adv-x="761" 
d="M216 -12l-35 24l376 535l35 -24zM83 356v177h221v-62h-179v-75q38 16 78 16q54 0 87 -27.5t33 -73.5q0 -52 -39 -84.5t-103 -32.5q-57 0 -95 26t-38 66q0 18 8.5 28.5t24.5 10.5q29 0 33 -36q3 -26 20.5 -39.5t46.5 -13.5q35 0 55 18t20 49t-21.5 47.5t-58.5 16.5
q-29 0 -57 -11h-36zM485.5 12q-36.5 24 -36.5 66q0 49 56 78q-35 23 -35 68q0 43 31 67.5t84 24.5q52 0 85 -23t33 -62q0 -38 -38 -63q57 -29 57 -86q0 -46 -35 -70t-100 -24t-101.5 24zM550 204.5q25 -13.5 80 -22.5q19 16 19 42q0 25 -16.5 38t-48.5 13q-28 0 -43.5 -10
t-15.5 -27q0 -20 25 -33.5zM527.5 43q18.5 -13 58.5 -13q39 0 59.5 11t20.5 31q0 23 -27 37.5t-91 26.5q-39 -12 -39 -52q0 -28 18.5 -41z" />
    <glyph glyph-name="seveneighths.osf" horiz-adv-x="658" 
d="M113 -12l-35 24l376 535l35 -24zM33 530h297q-86 -83 -129.5 -160.5t-56.5 -170.5h-76q16 84 57.5 153t104.5 116h-197v62zM382.5 12q-36.5 24 -36.5 66q0 49 56 78q-35 23 -35 68q0 43 31 67.5t84 24.5q52 0 85 -23t33 -62q0 -38 -38 -63q57 -29 57 -86q0 -46 -35 -70
t-100 -24t-101.5 24zM447 204.5q25 -13.5 80 -22.5q19 16 19 42q0 25 -17 38t-49 13q-28 0 -43 -10t-15 -27q0 -20 25 -33.5zM424.5 43q18.5 -13 58.5 -13q39 0 59.5 11t20.5 31q0 22 -27.5 37t-90.5 27q-39 -12 -39 -52q0 -28 18.5 -41z" />
    <glyph glyph-name="uni2080.ss04" horiz-adv-x="497" 
d="M99.5 292.5q55.5 59.5 148.5 59.5q94 0 149 -57.5t55 -156.5q0 -100 -55 -159t-149 -59q-93 0 -148.5 57.5t-55.5 155.5q0 100 55.5 159.5zM366 29q44 41 44 109t-44 107.5t-118 39.5t-117.5 -41t-43.5 -111q0 -66 44 -105.5t117 -39.5q74 0 118 41z" />
    <glyph glyph-name="zero.dnom.ss04" horiz-adv-x="497" 
d="M99.5 360.5q55.5 59.5 148.5 59.5q94 0 149 -57.5t55 -156.5q0 -100 -55 -159t-149 -59q-93 0 -148.5 57.5t-55.5 155.5q0 100 55.5 159.5zM366 97q44 41 44 109t-44 107.5t-118 39.5t-117.5 -41t-43.5 -111q0 -66 44 -105.5t117 -39.5q74 0 118 41z" />
    <glyph glyph-name="zero.numr.ss04" horiz-adv-x="497" 
d="M99.5 679.5q55.5 59.5 148.5 59.5q94 0 149 -57.5t55 -156.5q0 -100 -55 -159t-149 -59q-93 0 -148.5 57.5t-55.5 155.5q0 100 55.5 159.5zM366 416q44 41 44 109t-44 107.5t-118 39.5t-117.5 -41t-43.5 -111q0 -66 44 -105.5t117 -39.5q74 0 118 41z" />
    <glyph glyph-name="uni2070.ss04" horiz-adv-x="497" 
d="M99.5 735.5q55.5 59.5 148.5 59.5q94 0 149 -57.5t55 -156.5q0 -100 -55 -159t-149 -59q-93 0 -148.5 57.5t-55.5 155.5q0 100 55.5 159.5zM366 472q44 41 44 109t-44 107.5t-118 39.5t-117.5 -41t-43.5 -111q0 -66 44 -105.5t117 -39.5q74 0 118 41z" />
    <glyph glyph-name="uni2080.ss04.zero" horiz-adv-x="497" 
d="M397 294.5q55 -57.5 55 -156.5q0 -100 -55 -159t-149 -59q-93 0 -148.5 57.5t-55.5 155.5q0 100 55.5 159.5t148.5 59.5q94 0 149 -57.5zM99.5 71q12.5 -28 36.5 -47l186 248q-32 13 -74 13q-74 0 -117.5 -41t-43.5 -111q0 -34 12.5 -62zM366 29q44 41 44 109
q0 71 -49 112l-188 -249q36 -13 75 -13q74 0 118 41z" />
    <glyph glyph-name="zero.dnom.ss04.zero" horiz-adv-x="497" 
d="M397 362.5q55 -57.5 55 -156.5q0 -100 -55 -159t-149 -59q-93 0 -148.5 57.5t-55.5 155.5q0 100 55.5 159.5t148.5 59.5q94 0 149 -57.5zM99.5 139q12.5 -28 36.5 -47l186 248q-32 13 -74 13q-74 0 -117.5 -41t-43.5 -111q0 -34 12.5 -62zM366 97q44 41 44 109
q0 71 -49 112l-188 -249q36 -13 75 -13q74 0 118 41z" />
    <glyph glyph-name="zero.numr.ss04.zero" horiz-adv-x="497" 
d="M397 681.5q55 -57.5 55 -156.5q0 -100 -55 -159t-149 -59q-93 0 -148.5 57.5t-55.5 155.5q0 100 55.5 159.5t148.5 59.5q94 0 149 -57.5zM99.5 458q12.5 -28 36.5 -47l186 248q-32 13 -74 13q-74 0 -117.5 -41t-43.5 -111q0 -34 12.5 -62zM366 416q44 41 44 109
q0 71 -49 112l-188 -249q36 -13 75 -13q74 0 118 41z" />
    <glyph glyph-name="uni2070.ss04.zero" horiz-adv-x="497" 
d="M397 737.5q55 -57.5 55 -156.5q0 -100 -55 -159t-149 -59q-93 0 -148.5 57.5t-55.5 155.5q0 100 55.5 159.5t148.5 59.5q94 0 149 -57.5zM99.5 514q12.5 -28 36.5 -47l186 248q-32 13 -74 13q-74 0 -117.5 -41t-43.5 -111q0 -34 12.5 -62zM366 472q44 41 44 109
q0 71 -49 112l-188 -249q36 -13 75 -13q74 0 118 41z" />
    <glyph glyph-name="uni00B9.tf" 
d="M155 375l31 65v235l-84 38l152 82v-362l51 -58h-150z" />
    <glyph glyph-name="uni00B2.tf" 
d="M102 375l137 113q57 47 83 89.5t26 87.5q0 43 -20.5 65.5t-60.5 22.5t-62 -23t-22 -64q0 -26 -9 -40.5t-26 -14.5q-33 0 -33 50q0 60 43 97t113 37q68 0 109 -36.5t41 -96.5q0 -48 -30.5 -90t-104.5 -100l-42 -33h190v-64h-332z" />
    <glyph glyph-name="uni00B3.tf" 
d="M216 607q73 0 108 19.5t35 59.5q0 32 -22.5 49t-64.5 17q-41 0 -62.5 -17t-21.5 -49q0 -20 -8 -29t-25 -9t-24.5 9t-7.5 30q0 48 41.5 78t111.5 30q67 0 107 -27.5t40 -73.5q0 -36 -24.5 -62.5t-65.5 -37.5q59 -8 92 -36t33 -70q0 -36 -23 -64.5t-64.5 -44.5t-94.5 -16
q-49 0 -89 14.5t-62.5 40t-22.5 57.5q0 19 9.5 29.5t26.5 10.5q16 0 24 -9t10 -31q3 -37 25 -53t69 -16q57 0 88 21.5t31 59.5q0 41 -41 60t-128 19v41z" />
    <glyph glyph-name="onehalf.tf" 
d="M107 341l39 82v196l-89 30l152 90v-331l59 -67h-161zM109 -12l-35 26l542 725l35 -27zM375 0l118 102q55 47 79 86.5t24 81.5q0 77 -69 77q-36 0 -55 -21t-19 -57q0 -26 -9 -39.5t-25 -13.5q-31 0 -31 50q0 55 38 89t102 34q63 0 100 -32.5t37 -86.5q0 -41 -28.5 -81.5
t-103.5 -105.5l-25 -21h170v-62h-303z" />
    <glyph glyph-name="uni2153.tf" 
d="M107 350l39 83v186l-89 30l152 90v-322l59 -67h-161zM100 -12l-36 26l542 725l35 -27zM481 218q58 0 86.5 16.5t28.5 51.5q0 29 -18 45.5t-50 16.5q-31 0 -48 -15t-18 -44q0 -38 -32 -38q-16 0 -23 9t-7 29q0 45 35.5 73.5t93.5 28.5q57 0 92 -26.5t35 -68.5
q0 -33 -21.5 -57.5t-58.5 -34.5q46 -8 71 -32.5t25 -64.5q0 -51 -40.5 -85t-103.5 -34q-60 0 -99.5 30t-39.5 76q0 41 34 41q16 0 23.5 -10t10.5 -34q3 -34 16.5 -47t43.5 -13q41 0 63.5 19.5t22.5 55.5q0 37 -29 54t-93 17v41z" />
    <glyph glyph-name="uni2154.tf" 
d="M35 350l118 102q55 47 79 86.5t24 81.5q0 77 -69 77q-36 0 -55 -21t-19 -57q0 -26 -9 -39.5t-25 -13.5q-15 0 -23 12.5t-8 37.5q0 55 38 89t103 34q63 0 100 -32.5t37 -86.5q0 -41 -28.5 -81t-104.5 -106l-24 -21h169v-62h-303zM128 -12l-35 26l542 725l35 -27zM481 218
q58 0 86.5 16.5t28.5 51.5q0 29 -18 45.5t-50 16.5q-31 0 -48 -15t-18 -44q0 -38 -32 -38q-16 0 -23 9t-7 29q0 45 35.5 73.5t93.5 28.5q57 0 92 -26.5t35 -68.5q0 -33 -21.5 -57.5t-58.5 -34.5q46 -8 71 -32.5t25 -64.5q0 -51 -40.5 -85t-103.5 -34q-60 0 -99.5 30
t-39.5 76q0 41 34 41q16 0 23.5 -10t10.5 -34q3 -34 16.5 -47t43.5 -13q41 0 63.5 19.5t22.5 55.5q0 37 -29 54t-93 17v41z" />
    <glyph glyph-name="onequarter.tf" 
d="M107 341l39 82v196l-89 30l152 90v-331l59 -67h-161zM110 -12l-35 26l542 725l35 -27zM492 0l39 83v17h-204l209 284h58v-241h86v-43h-86v-33l59 -67h-161zM531 143v160l-119 -160h119z" />
    <glyph glyph-name="threequarters.tf" 
d="M149 566q59 0 87.5 16.5t28.5 51.5q0 29 -18.5 46t-50.5 17t-48.5 -15.5t-16.5 -44.5q-1 -38 -32 -38q-16 0 -23.5 9t-7.5 29q0 46 36 74t94 28q56 0 91.5 -26.5t35.5 -68.5q0 -33 -22 -57.5t-59 -34.5q47 -8 71.5 -32.5t24.5 -64.5q0 -51 -40.5 -85t-103.5 -34
q-60 0 -99.5 30t-39.5 76q0 41 35 41q16 0 23.5 -9.5t9.5 -33.5q3 -34 16.5 -47.5t44.5 -13.5q41 0 63 19.5t22 55.5q0 38 -29 54.5t-93 16.5v41zM130 -12l-35 26l542 725l35 -27zM492 0l39 83v17h-204l209 284h58v-241h86v-43h-86v-33l59 -67h-161zM531 143v160l-119 -160
h119z" />
    <glyph glyph-name="oneeighth.tf" 
d="M107 350l39 83v186l-89 30l152 90v-322l59 -67h-161zM101 -12l-35 26l541 725l36 -27zM378 266q0 52 37.5 83.5t99.5 31.5q59 0 97 -29.5t38 -76.5q0 -52 -49 -82q66 -29 66 -92q0 -52 -42 -82.5t-114 -30.5q-70 0 -110 29.5t-40 79.5q0 61 57 88q-40 31 -40 81zM595 269
q0 34 -21.5 51.5t-61.5 17.5q-38 0 -58 -15.5t-20 -43.5q0 -20 11.5 -33t39.5 -22t80 -18q30 21 30 63zM428 139.5q-8 -16.5 -8 -37.5q0 -36 24 -53.5t74 -17.5q93 0 93 55q0 20 -13.5 32.5t-47.5 23.5t-99 23q-15 -9 -23 -25.5z" />
    <glyph glyph-name="threeeighths.tf" 
d="M149 567q59 0 87.5 16.5t28.5 51.5q0 29 -18.5 45.5t-50.5 16.5q-31 0 -48 -15t-17 -44q-1 -38 -32 -38q-16 0 -23.5 9t-7.5 29q0 45 36 73.5t94 28.5q56 0 91.5 -26.5t35.5 -68.5q0 -33 -22 -57.5t-59 -34.5q47 -8 71.5 -32.5t24.5 -64.5q0 -51 -40.5 -85t-103.5 -34
q-60 0 -99.5 30t-39.5 76q0 41 35 41q16 0 23.5 -9.5t9.5 -33.5q3 -34 16.5 -47.5t44.5 -13.5q41 0 63 19.5t22 55.5q0 38 -29 54.5t-93 16.5v41zM110 -12l-35 26l542 725l35 -27zM378 266q0 52 37.5 83.5t99.5 31.5q59 0 97 -29.5t38 -76.5q0 -52 -49 -82q66 -29 66 -92
q0 -52 -42 -82.5t-114 -30.5q-70 0 -110 29.5t-40 79.5q0 61 57 88q-40 31 -40 81zM595 269q0 34 -21.5 51.5t-61.5 17.5q-38 0 -58 -15.5t-20 -43.5q0 -20 11.5 -33t39.5 -22t80 -18q30 21 30 63zM428 139.5q-8 -16.5 -8 -37.5q0 -36 24 -53.5t74 -17.5q93 0 93 55
q0 20 -13.5 32.5t-47.5 23.5t-99 23q-15 -9 -23 -25.5z" />
    <glyph glyph-name="fiveeighths.tf" 
d="M101 -12l-35 26l541 725l36 -27zM80 725h242v-64h-200v-104q36 18 87 18q62 0 96.5 -30.5t34.5 -84.5q0 -59 -41.5 -95.5t-109.5 -36.5q-62 0 -103.5 29t-41.5 73q0 19 9 29.5t25 10.5q30 0 34 -39q6 -61 73 -61q40 0 63 22.5t23 61.5t-23.5 60t-67.5 21q-29 0 -63 -11
h-37v201zM378 266q0 52 37.5 83.5t99.5 31.5q59 0 97 -29.5t38 -76.5q0 -52 -49 -82q66 -29 66 -92q0 -52 -42 -82.5t-114 -30.5q-70 0 -110 29.5t-40 79.5q0 61 57 88q-40 31 -40 81zM595 269q0 34 -21.5 51.5t-61.5 17.5q-38 0 -58 -15.5t-20 -43.5q0 -20 11.5 -33
t39.5 -22t80 -18q30 21 30 63zM428 139.5q-8 -16.5 -8 -37.5q0 -36 24 -53.5t74 -17.5q93 0 93 55q0 20 -13.5 32.5t-47.5 23.5t-99 23q-15 -9 -23 -25.5z" />
    <glyph glyph-name="seveneighths.tf" 
d="M88 -12l-35 26l542 725l35 -27zM82 721h309q-79 -100 -132 -199t-72 -181h-78q22 75 81.5 171t116.5 146h-225v63zM378 266q0 52 37.5 83.5t99.5 31.5q59 0 97 -29.5t38 -76.5q0 -52 -49 -82q66 -29 66 -92q0 -52 -42 -82.5t-114 -30.5q-70 0 -110 29.5t-40 79.5
q0 61 57 88q-40 31 -40 81zM595 269q0 34 -21.5 51.5t-61.5 17.5q-38 0 -58 -15.5t-20 -43.5q0 -20 11.5 -33t39.5 -22t80 -18q30 21 30 63zM428 139.5q-8 -16.5 -8 -37.5q0 -36 24 -53.5t74 -17.5q93 0 93 55q0 20 -13.5 32.5t-47.5 23.5t-99 23q-15 -9 -23 -25.5z" />
    <glyph glyph-name="uni00B9.tosf" 
d="M145 197l30 66v214l-83 36l153 84v-342l51 -58h-151z" />
    <glyph glyph-name="uni00B2.tosf" 
d="M234 310q56 46 81.5 85.5t25.5 80.5q0 38 -20 58.5t-58 20.5q-42 0 -64 -23.5t-22 -63.5q0 -28 -9.5 -41.5t-25.5 -13.5q-15 0 -24 12.5t-9 37.5q0 37 20.5 67.5t56.5 48.5t81 18q64 0 106 -35t42 -91q0 -41 -29.5 -79t-108.5 -99l-40 -33h191v-63h-331z" />
    <glyph glyph-name="uni00B3.tosf" 
d="M201 419q73 0 108 17.5t35 54.5q0 30 -22.5 46.5t-64.5 16.5q-84 0 -84 -66q0 -19 -8 -28t-25 -9q-16 0 -24 9t-8 30q0 48 41.5 77.5t111.5 29.5q67 0 107 -27t40 -72q0 -34 -24 -58.5t-65 -34.5q55 -8 85 -34t30 -67q0 -53 -47.5 -86t-123.5 -33q-50 0 -90.5 14.5
t-63 40t-22.5 57.5q0 20 9.5 30.5t26.5 10.5q16 0 24 -10t9 -32q4 -38 25.5 -53t67.5 -15q56 0 84 19t28 55q0 41 -38 58.5t-122 17.5v41z" />
    <glyph glyph-name="onehalf.tosf" 
d="M107 210l29 61v162l-70 35l131 79v-281l49 -56h-139zM181 -12l-36 24l376 535l35 -24zM394 0l109 87q59 48 81 78.5t22 63.5q0 32 -16.5 50.5t-46.5 18.5t-45.5 -18.5t-16.5 -51.5q0 -25 -8 -37.5t-23 -12.5q-16 0 -24.5 12.5t-8.5 38.5q0 50 35 80.5t95 30.5
q58 0 92.5 -28.5t34.5 -75.5q0 -41 -30 -79t-100 -90l-12 -8h145v-59h-283z" />
    <glyph glyph-name="uni2153.tosf" 
d="M108 210l29 61v162l-70 35l131 79v-281l49 -56h-139zM182 -12l-35 24l376 535l35 -24zM499 180q106 0 106 61q0 27 -17.5 42.5t-48.5 15.5q-28 0 -42.5 -13.5t-18.5 -42.5q-2 -19 -9 -27t-21 -8q-30 0 -30 37q0 42 33.5 69t89.5 27q55 0 88.5 -26t33.5 -70
q0 -30 -16.5 -50.5t-45.5 -28.5q36 -8 57 -30t21 -54q0 -43 -36 -68.5t-96 -25.5q-61 0 -100 26t-39 66q0 38 35 38q13 0 20 -7t10 -24q5 -29 22.5 -43t48.5 -14q32 0 50 14t18 39q0 29 -27 42.5t-86 13.5v41z" />
    <glyph glyph-name="uni2154.tosf" 
d="M36 210l109 87q50 41 71 72.5t21 67.5q0 33 -16 51t-45 18q-31 0 -46.5 -19t-15.5 -52q-1 -24 -9.5 -36.5t-22.5 -12.5q-15 0 -24 13t-9 38q0 50 35 80.5t95 30.5q58 0 92 -28.5t34 -76.5q0 -41 -28 -79.5t-91 -86.5l-12 -8h126v-59h-264zM212 -12l-35 24l375 535l36 -24
zM509 180q105 0 105 61q0 27 -17.5 42.5t-48.5 15.5q-28 0 -42 -13.5t-18 -42.5q-2 -19 -9 -27t-21 -8q-30 0 -30 37q0 42 33.5 69t89.5 27q55 0 88 -26.5t33 -69.5q0 -30 -16 -50.5t-46 -28.5q36 -8 57 -30t21 -54q0 -43 -35.5 -68.5t-95.5 -25.5q-61 0 -100 26t-39 66
q0 38 35 38q13 0 20 -7.5t10 -24.5q5 -29 22.5 -42.5t48.5 -13.5t49 14t18 39q0 29 -26.5 42.5t-85.5 13.5v41z" />
    <glyph glyph-name="onequarter.tosf" 
d="M108 210l29 61v162l-70 35l131 79v-281l49 -56h-139zM182 -12l-36 24l376 535l35 -24zM495 0l29 61v26h-174l177 223h59v-181h87v-42h-87v-31l49 -56h-140zM524 129v110l-88 -110h88z" />
    <glyph glyph-name="threequarters.tosf" 
d="M148 387q106 0 106 61q0 27 -17.5 42.5t-48.5 15.5q-28 0 -42.5 -13.5t-18.5 -42.5q-2 -19 -9 -27t-20 -8q-30 0 -30 37q0 43 33 69.5t89 26.5t89.5 -26.5t33.5 -69.5q0 -30 -16.5 -50.5t-46.5 -28.5q37 -8 58 -30t21 -54q0 -42 -36.5 -68t-96.5 -26t-99.5 26t-39.5 66
q0 38 35 38q13 0 20 -7t10 -24q5 -29 22.5 -43t48.5 -14q32 0 50 14t18 39q0 30 -26.5 43t-86.5 13v41zM219 -12l-35 24l375 535l36 -24zM495 0l29 61v26h-174l177 223h59v-181h87v-42h-87v-31l49 -56h-140zM524 129v110l-88 -110h88z" />
    <glyph glyph-name="oneeighth.tosf" horiz-adv-x="733" 
d="M108 210l29 61v162l-70 35l131 79v-281l49 -56h-139zM183 -12l-35 24l375 535l36 -24zM441.5 12q-37.5 24 -37.5 65q0 51 57 79q-36 24 -36 68q0 43 31.5 67.5t83.5 24.5q53 0 86 -23t33 -62q0 -38 -38 -63q57 -29 57 -87q0 -45 -35 -69t-99 -24q-65 0 -102.5 24z
M605 224q0 25 -17 38t-50 13q-27 0 -42 -9.5t-15 -27.5q0 -22 24.5 -35.5t79.5 -20.5q20 14 20 42zM483 43q19 -13 59 -13q39 0 59.5 11t20.5 32q0 22 -27 36.5t-91 26.5q-40 -12 -40 -52q0 -28 19 -41z" />
    <glyph glyph-name="threeeighths.tosf" horiz-adv-x="733" 
d="M148 387q106 0 106 61q0 27 -17.5 42.5t-48.5 15.5q-28 0 -42.5 -13.5t-18.5 -42.5q-2 -19 -9 -27t-20 -8q-30 0 -30 37q0 43 33 69.5t89 26.5t89.5 -26.5t33.5 -69.5q0 -30 -16.5 -50.5t-46.5 -28.5q37 -8 58 -30t21 -54q0 -42 -36.5 -68t-96.5 -26t-99.5 26t-39.5 66
q0 38 35 38q13 0 20 -7t10 -24q5 -29 22.5 -43t48.5 -14q32 0 50 14t18 39q0 30 -26.5 43t-86.5 13v41zM211 -12l-36 24l376 535l35 -24zM441.5 12q-37.5 24 -37.5 65q0 51 57 79q-36 24 -36 68q0 43 31.5 67.5t83.5 24.5q53 0 86 -23t33 -62q0 -38 -38 -63q57 -29 57 -87
q0 -45 -35 -69t-99 -24q-65 0 -102.5 24zM605 224q0 25 -17 38t-50 13q-27 0 -42 -9.5t-15 -27.5q0 -22 24.5 -35.5t79.5 -20.5q20 14 20 42zM483 43q19 -13 59 -13q39 0 59.5 11t20.5 32q0 22 -27 36.5t-91 26.5q-40 -12 -40 -52q0 -28 19 -41z" />
    <glyph glyph-name="fiveeighths.tosf" horiz-adv-x="733" 
d="M204 -12l-36 24l376 535l35 -24zM79 533h221v-62h-179v-75q37 17 79 17q53 0 86 -28.5t33 -74.5q0 -51 -39.5 -83.5t-102.5 -32.5q-57 0 -95 26t-38 66q0 19 8.5 29.5t24.5 10.5q29 0 33 -37q6 -53 66 -53q35 0 55.5 19t20.5 49t-21 46.5t-58 16.5q-34 0 -58 -11h-36v177
zM441.5 12q-37.5 24 -37.5 65q0 51 57 79q-36 24 -36 68q0 43 31.5 67.5t83.5 24.5q53 0 86 -23t33 -62q0 -38 -38 -63q57 -29 57 -87q0 -45 -35 -69t-99 -24q-65 0 -102.5 24zM505.5 202.5q24.5 -13.5 79.5 -20.5q20 14 20 42q0 25 -17 38t-50 13q-27 0 -42 -9.5t-15 -27.5
q0 -22 24.5 -35.5zM483 43q19 -13 59 -13q39 0 59.5 11t20.5 32q0 22 -27 36.5t-91 26.5q-40 -12 -40 -52q0 -28 19 -41z" />
    <glyph glyph-name="seveneighths.tosf" horiz-adv-x="733" 
d="M184 -12l-36 24l376 535l35 -24zM102 533h297q-86 -83 -129.5 -160.5t-56.5 -170.5h-76q16 84 57.5 153t104.5 117h-197v61zM441.5 12q-37.5 24 -37.5 65q0 51 57 79q-36 24 -36 68q0 43 31.5 67.5t83.5 24.5q53 0 86 -23t33 -62q0 -38 -38 -63q57 -29 57 -87
q0 -45 -35 -69t-99 -24q-65 0 -102.5 24zM505.5 202.5q24.5 -13.5 79.5 -20.5q20 14 20 42q0 25 -17 38t-50 13q-27 0 -42 -9.5t-15 -27.5q0 -22 24.5 -35.5zM483 43q19 -13 59 -13q39 0 59.5 11t20.5 32q0 22 -27 36.5t-91 26.5q-40 -12 -40 -52q0 -28 19 -41z" />
    <glyph glyph-name="uni2080.zero" horiz-adv-x="507" 
d="M100 -22q-56 58 -56 160q0 100 56 157t154 57t153.5 -56.5t55.5 -156.5q0 -103 -55.5 -161t-153.5 -58t-154 58zM334 282q-34 26 -80 26q-64 0 -100 -45t-36 -125q0 -67 27 -108zM254 -36q64 0 99.5 46t35.5 129q0 66 -26 107l-192 -253q34 -29 83 -29z" />
    <glyph glyph-name="zero.dnom.zero" horiz-adv-x="507" 
d="M100 46q-56 58 -56 160q0 100 56 157t154 57t153.5 -56.5t55.5 -156.5q0 -103 -55.5 -161t-153.5 -58t-154 58zM334 350q-34 26 -80 26q-64 0 -100 -45t-36 -125q0 -67 27 -108zM254 32q64 0 99.5 46t35.5 129q0 66 -26 107l-192 -253q34 -29 83 -29z" />
    <glyph glyph-name="zero.numr.zero" horiz-adv-x="507" 
d="M100 365q-56 58 -56 160q0 100 56 157t154 57t153.5 -56.5t55.5 -156.5q0 -103 -55.5 -161t-153.5 -58t-154 58zM334 669q-34 26 -80 26q-64 0 -100 -45t-36 -125q0 -67 27 -108zM254 351q64 0 99.5 46t35.5 129q0 66 -26 107l-192 -253q34 -29 83 -29z" />
    <glyph glyph-name="uni2070.zero" horiz-adv-x="507" 
d="M100 421q-56 58 -56 160q0 100 56 157t154 57t153.5 -56.5t55.5 -156.5q0 -103 -55.5 -161t-153.5 -58t-154 58zM334 725q-34 26 -80 26q-64 0 -100 -45t-36 -125q0 -67 27 -108zM254 407q64 0 99.5 46t35.5 129q0 66 -26 107l-192 -253q34 -29 83 -29z" />
    <glyph glyph-name="period" unicode="." horiz-adv-x="237" 
d="M84.5 8.5q-13.5 13.5 -13.5 34.5t13.5 35t34.5 14t34.5 -14t13.5 -35t-13.5 -34.5t-34.5 -13.5t-34.5 13.5z" />
    <glyph glyph-name="comma" unicode="," horiz-adv-x="242" 
d="M65 -125q28 22 43.5 55t13.5 65h-11q-21 0 -35.5 14t-14.5 34q0 21 14.5 35t35.5 14q26 0 43 -22.5t17 -57.5q0 -42 -26.5 -83t-69.5 -66z" />
    <glyph glyph-name="colon" unicode=":" horiz-adv-x="237" 
d="M84.5 427.5q-13.5 13.5 -13.5 34.5t13.5 35t34.5 14t34.5 -14t13.5 -35t-13.5 -34.5t-34.5 -13.5t-34.5 13.5zM84.5 8.5q-13.5 13.5 -13.5 34.5t13.5 35t34.5 14t34.5 -14t13.5 -35t-13.5 -34.5t-34.5 -13.5t-34.5 13.5z" />
    <glyph glyph-name="semicolon" unicode=";" horiz-adv-x="252" 
d="M75 -125q28 22 43.5 55t13.5 65h-11q-21 0 -35.5 14t-14.5 34q0 21 14.5 35t35.5 14q26 0 43 -22.5t17 -57.5q0 -42 -26.5 -83t-69.5 -66zM84.5 427.5q-13.5 13.5 -13.5 34.5t13.5 35t34.5 14t34.5 -14t13.5 -35t-13.5 -34.5t-34.5 -13.5t-34.5 13.5z" />
    <glyph glyph-name="ellipsis" unicode="&#x2026;" horiz-adv-x="707" 
d="M84.5 8.5q-13.5 13.5 -13.5 34.5t13.5 35t34.5 14t34.5 -14t13.5 -35t-13.5 -34.5t-34.5 -13.5t-34.5 13.5zM328.5 8.5q-13.5 13.5 -13.5 34.5t13.5 35t34.5 14t34.5 -14t13.5 -35t-13.5 -34.5t-34.5 -13.5t-34.5 13.5zM572.5 8.5q-13.5 13.5 -13.5 34.5t13.5 35t34.5 14
t34.5 -14t13.5 -35t-13.5 -34.5t-34.5 -13.5t-34.5 13.5z" />
    <glyph glyph-name="exclam" unicode="!" horiz-adv-x="215" 
d="M78 725h78l-34 -575h-10zM82.5 8.5q-13.5 13.5 -13.5 34.5t13.5 35t34.5 14t34.5 -14t13.5 -35t-13.5 -34.5t-34.5 -13.5t-34.5 13.5z" />
    <glyph glyph-name="exclamdown" unicode="&#xa1;" horiz-adv-x="215" 
d="M132 533.5q14 -13.5 14 -34.5t-14 -35t-35 -14t-34.5 14t-13.5 35t13.5 34.5t34.5 13.5t35 -13.5zM136 -183h-77l33 575h11z" />
    <glyph glyph-name="question" unicode="?" horiz-adv-x="370" 
d="M143 418q69 1 107 36.5t38 96.5q0 57 -33 88t-89 31q-18 0 -31 -3t-30 -8q-19 -7 -34 -7q-20 0 -31.5 10.5t-11.5 27.5q0 23 23.5 36t66.5 13q59 0 107.5 -24t76.5 -66t28 -94q0 -65 -41 -113t-103 -58v-205h-43v239zM129.5 8.5q-13.5 13.5 -13.5 34.5t13.5 35t34.5 14
t34.5 -14t13.5 -35t-13.5 -34.5t-34.5 -13.5t-34.5 13.5z" />
    <glyph glyph-name="questiondown" unicode="&#xbf;" horiz-adv-x="370" 
d="M240.5 533.5q13.5 -13.5 13.5 -34.5t-13.5 -35t-34.5 -14t-34.5 14t-13.5 35t13.5 34.5t34.5 13.5t34.5 -13.5zM227 108q-68 -1 -106 -38.5t-38 -100.5q0 -59 32 -91.5t89 -32.5q18 0 31 3t30 8q21 7 35 7q19 0 30.5 -10.5t11.5 -27.5q0 -24 -23.5 -36.5t-65.5 -12.5
q-60 0 -108.5 24.5t-76.5 68t-28 97.5q0 67 41 116.5t103 59.5v216h43v-250z" />
    <glyph glyph-name="periodcentered" unicode="&#xb7;" horiz-adv-x="249" 
d="M90.5 300.5q-13.5 13.5 -13.5 34.5t13.5 35t34.5 14t34.5 -14t13.5 -35t-13.5 -34.5t-34.5 -13.5t-34.5 13.5z" />
    <glyph glyph-name="bullet" unicode="&#x2022;" horiz-adv-x="354" 
d="M252.5 392.5q29.5 -30.5 29.5 -75.5q0 -46 -29.5 -76t-73.5 -30q-46 0 -76.5 30t-30.5 76q0 45 30.5 75.5t76.5 30.5q44 0 73.5 -30.5z" />
    <glyph glyph-name="asterisk" unicode="*" horiz-adv-x="430" 
d="M175 760h81l-41 -181zM31 597l25 77l159 -95zM374 674l25 -77l-184 -18zM142 410l-66 47l139 122zM354 457l-65 -47l-74 169z" />
    <glyph glyph-name="numbersign" unicode="#" horiz-adv-x="623" 
d="M141 244l48 237h-109v45h117l39 199h45l-38 -199h201l39 199h46l-39 -199h103v-45h-112l-47 -237h109v-45h-117l-39 -199h-46l39 199h-202l-39 -199h-45l39 199h-103v45h111zM389 244l47 237h-202l-47 -237h202z" />
    <glyph glyph-name="slash" unicode="/" horiz-adv-x="274" 
d="M54 -260h-44l210 1070h44z" />
    <glyph glyph-name="backslash" unicode="\" horiz-adv-x="274" 
d="M54 810l210 -1070h-44l-210 1070h44z" />
    <glyph glyph-name="exclamdown.case" horiz-adv-x="215" 
d="M132 716q14 -14 14 -35t-14 -35t-35 -14t-34.5 14t-13.5 35t13.5 35t34.5 14t35 -14zM136 -1h-77l33 575h11z" />
    <glyph glyph-name="questiondown.case" horiz-adv-x="369" 
d="M240 725.5q14 -13.5 14 -34.5t-14 -35t-35 -14t-34.5 14t-13.5 35t13.5 34.5t34.5 13.5t35 -13.5zM227 316q-69 -1 -107 -37t-38 -97q0 -56 33 -87t89 -31q18 0 31 3t30 8q19 7 34 7q20 0 31.5 -10.5t11.5 -27.5q0 -23 -23.5 -36t-66.5 -13q-59 0 -107.5 24t-76.5 66
t-28 94q0 65 41 113t103 58v205h43v-239z" />
    <glyph glyph-name="bullet.case" horiz-adv-x="354" 
d="M252.5 437.5q29.5 -30.5 29.5 -75.5q0 -46 -29.5 -76t-73.5 -30q-46 0 -76.5 30t-30.5 76q0 45 30.5 75.5t76.5 30.5q44 0 73.5 -30.5z" />
    <glyph glyph-name="slash.case" horiz-adv-x="240" 
d="M54 -85h-44l176 895h44z" />
    <glyph glyph-name="backslash.case" horiz-adv-x="240" 
d="M54 810l176 -895h-44l-176 895h44z" />
    <glyph glyph-name="numbersign.osf" horiz-adv-x="623" 
d="M152 182l44 166h-116v44h128l37 138h46l-38 -138h184l37 138h46l-38 -138h111v-44h-123l-44 -166h117v-45h-128l-37 -137h-46l37 137h-183l-37 -137h-46l37 137h-110v45h122zM381 182l44 166h-184l-44 -166h184z" />
    <glyph glyph-name="exclam.ss05" horiz-adv-x="215" 
d="M103 724l75 -8l-65 -568h-10v576zM135.5 78q13.5 -14 13.5 -35t-13.5 -34.5t-34.5 -13.5t-34.5 13.5t-13.5 34.5t13.5 35t34.5 14t34.5 -14z" />
    <glyph glyph-name="exclamdown.ss05" horiz-adv-x="228" 
d="M93 464q-14 14 -14 35t14 34.5t34 13.5q21 0 35 -13.5t14 -34.5t-14 -35t-35 -14q-20 0 -34 14zM125 -182l-75 8l65 567h10v-575z" />
    <glyph glyph-name="exclamdown.case.ss05" horiz-adv-x="228" 
d="M78.5 647q-13.5 14 -13.5 35t13.5 34.5t34.5 13.5q20 0 34 -13.5t14 -34.5q0 -20 -14 -34.5t-34 -14.5q-21 0 -34.5 14zM111 1l-75 8l64 568h11v-576z" />
    <glyph glyph-name="ellipsis.ss06" horiz-adv-x="716" 
d="M556.5 9q-14.5 15 -14.5 38q0 24 14.5 38.5t38.5 14.5q23 0 37 -14.5t14 -38.5q0 -23 -14.5 -38t-36.5 -15q-24 0 -38.5 15zM312.5 7.5q-12.5 12.5 -12.5 33.5t12.5 34t33.5 13t33.5 -13t12.5 -34t-12.5 -33.5t-33.5 -12.5t-33.5 12.5zM82 7q-11 11 -11 29t11 29.5
t28 11.5q18 0 29 -11.5t11 -29.5t-11 -29t-29 -11q-17 0 -28 11z" />
    <glyph glyph-name="ellipsis.ss07" horiz-adv-x="716" 
d="M85 9q-14 15 -14 38q0 24 14 38.5t37 14.5t38 -14.5t15 -38.5q0 -23 -15 -38t-38 -15t-37 15zM336.5 7.5q-12.5 12.5 -12.5 33.5t13 34t34 13q20 0 33 -13t13 -34t-12.5 -33.5t-33.5 -12.5q-22 0 -34.5 12.5zM577 7q-11 11 -11 29t11 29.5t29 11.5t29 -11.5t11 -29.5
t-11 -29t-29 -11t-29 11z" />
    <glyph glyph-name="numbersign.tf" 
d="M199 244l48 237h-109v45h117l39 199h45l-38 -199h201l39 199h46l-39 -199h103v-45h-112l-47 -237h109v-45h-117l-39 -199h-46l39 199h-202l-39 -199h-45l39 199h-103v45h111zM447 244l47 237h-202l-47 -237h202z" />
    <glyph glyph-name="numbersign.tosf" 
d="M210 182l44 166h-117v44h129l37 138h46l-38 -138h184l37 138h46l-38 -138h110v-44h-121l-44 -166h117v-45h-129l-37 -137h-46l38 137h-184l-37 -137h-46l38 137h-110v45h121zM439 182l44 166h-183l-44 -166h183z" />
    <glyph glyph-name="parenleft" unicode="(" horiz-adv-x="302" 
d="M285 825l11 -11q-89 -102 -130.5 -232t-41.5 -307q0 -174 41 -301t131 -229l-11 -11q-116 99 -173 233t-57 308q0 354 230 550z" />
    <glyph glyph-name="parenright" unicode=")" horiz-adv-x="302" 
d="M190 -33q-57 -134 -173 -233l-11 11q90 102 131 229t41 301q0 177 -41.5 307t-130.5 232l11 11q230 -196 230 -550q0 -174 -57 -308z" />
    <glyph glyph-name="braceleft" unicode="{" horiz-adv-x="277" 
d="M92 218.5q-20 32.5 -62 55.5q42 23 62 55.5t20 79.5q0 20 -3.5 46t-8.5 52q-1 6 -7 42.5t-6 69.5q0 73 34.5 124.5t98.5 76.5l11 -11q-36 -20 -57.5 -64t-21.5 -101q0 -39 13 -108q12 -72 12 -103q0 -57 -26.5 -95t-83.5 -64q57 -26 83.5 -63t26.5 -90q0 -40 -17 -110
q-1 -6 -9 -43t-8 -68q0 -53 24 -96.5t64 -65.5l-11 -11q-64 25 -98.5 76.5t-34.5 124.5q0 33 6 69.5t7 42.5q5 26 8.5 52.5t3.5 46.5q0 47 -20 79.5z" />
    <glyph glyph-name="braceright" unicode="}" horiz-adv-x="277" 
d="M168.5 92.5q3.5 -26.5 8.5 -52.5q14 -74 14 -112q0 -73 -35 -124.5t-99 -76.5l-11 11q40 22 64 65.5t24 96.5q0 39 -17 111q-6 28 -11.5 57.5t-5.5 52.5q0 53 27 90t84 63q-58 27 -84.5 64.5t-26.5 94.5q0 31 12 103q13 69 13 108q0 57 -21 101t-58 64l11 11
q64 -25 99 -76.5t35 -124.5q0 -38 -14 -112q-5 -26 -8.5 -52t-3.5 -46q0 -47 20 -79.5t62 -55.5q-41 -23 -61 -55.5t-21 -79.5q0 -20 3.5 -46.5z" />
    <glyph glyph-name="bracketleft" unicode="[" horiz-adv-x="263" 
d="M243 -269h-183v1079h183v-38h-122v-1003h122v-38z" />
    <glyph glyph-name="bracketright" unicode="]" horiz-adv-x="263" 
d="M141 -231v1003h-121v38h183v-1079h-183v38h121z" />
    <glyph glyph-name="parenleft.case" horiz-adv-x="302" 
d="M110.5 630.5q55.5 111.5 174.5 194.5l11 -11q-90 -81 -131.5 -189t-41.5 -261q0 -157 41 -265t132 -189l-11 -11q-118 78 -174 191t-56 274q0 155 55.5 266.5z" />
    <glyph glyph-name="parenright.case" horiz-adv-x="302" 
d="M191 90q-56 -113 -174 -191l-11 11q91 81 132 189t41 265q0 153 -41.5 261t-131.5 189l11 11q119 -83 174.5 -194.5t55.5 -266.5q0 -161 -56 -274z" />
    <glyph glyph-name="braceleft.case" horiz-adv-x="276" 
d="M92 311q-19 28 -62 51q43 23 62 51t19 67q0 26 -12 78q-12 54 -12 83q0 61 35.5 110t97.5 74l11 -11q-39 -22 -59.5 -60.5t-20.5 -85.5q0 -20 4 -43.5t9 -44.5q12 -52 12 -76q0 -47 -27 -81.5t-83 -60.5q56 -25 83 -59.5t27 -81.5q0 -24 -12 -78q-5 -21 -9 -44.5
t-4 -43.5q0 -47 20.5 -85t59.5 -60l-11 -11q-62 26 -97.5 74t-35.5 109q0 29 12 83t12 79q0 39 -19 67z" />
    <glyph glyph-name="braceright.case" horiz-adv-x="276" 
d="M177 165q12 -54 12 -83q0 -61 -35.5 -109t-97.5 -74l-11 11q39 22 59.5 60t20.5 85q0 20 -4 43.5t-9 44.5q-12 54 -12 78q0 47 27 81.5t83 59.5q-56 26 -83 60.5t-27 81.5q0 24 12 76q5 21 9 44.5t4 43.5q0 47 -20.5 85.5t-59.5 60.5l11 11q62 -25 97.5 -74t35.5 -110
q0 -29 -12 -83q-12 -52 -12 -78q0 -39 19 -67t62 -51q-43 -23 -62 -51t-19 -67q0 -25 12 -79z" />
    <glyph glyph-name="bracketleft.case" horiz-adv-x="266" 
d="M246 -85h-186v895h186v-38h-125v-819h125v-38z" />
    <glyph glyph-name="bracketright.case" horiz-adv-x="266" 
d="M20 810h186v-895h-186v38h124v819h-124v38z" />
    <glyph glyph-name="hyphen" unicode="-" horiz-adv-x="415" 
d="M346 344v-45h-276v45h276z" />
    <glyph glyph-name="uni00AD" unicode="&#xad;" horiz-adv-x="415" 
d="M346 344v-45h-276v45h276z" />
    <glyph glyph-name="endash" unicode="&#x2013;" horiz-adv-x="559" 
d="M509 344v-45h-459v45h459z" />
    <glyph glyph-name="emdash" unicode="&#x2014;" horiz-adv-x="1018" 
d="M968 344v-45h-918v45h918z" />
    <glyph glyph-name="underscore" unicode="_" horiz-adv-x="509" 
d="M469 -57v-44h-429v44h429z" />
    <glyph glyph-name="hyphen.case" horiz-adv-x="415" 
d="M346 394v-45h-276v45h276z" />
    <glyph glyph-name="uni00AD.case" horiz-adv-x="415" 
d="M346 394v-45h-276v45h276z" />
    <glyph glyph-name="endash.case" horiz-adv-x="559" 
d="M509 394v-45h-459v45h459z" />
    <glyph glyph-name="emdash.case" horiz-adv-x="1018" 
d="M968 394v-45h-918v45h918z" />
    <glyph glyph-name="quotesinglbase" unicode="&#x201a;" horiz-adv-x="242" 
d="M65 -125q28 22 43.5 55t13.5 65h-11q-21 0 -35.5 14t-14.5 34q0 21 14.5 35t35.5 14q26 0 43 -22.5t17 -57.5q0 -42 -26.5 -83t-69.5 -66z" />
    <glyph glyph-name="quotedblbase" unicode="&#x201e;" horiz-adv-x="383" 
d="M206 -125q28 22 43.5 55t13.5 65h-11q-21 0 -35.5 14t-14.5 34q0 21 14.5 35t35.5 14q26 0 43 -22.5t17 -57.5q0 -42 -26.5 -83t-69.5 -66zM65 -125q28 22 43.5 55t13.5 65h-11q-21 0 -35.5 14t-14.5 34q0 21 14.5 35t35.5 14q26 0 43 -22.5t17 -57.5q0 -42 -26.5 -83
t-69.5 -66z" />
    <glyph glyph-name="quotedblleft" unicode="&#x201c;" horiz-adv-x="383" 
d="M166 749q-28 -22 -43.5 -55.5t-13.5 -65.5h11q22 0 36.5 -14t14.5 -34t-14.5 -34.5t-35.5 -14.5q-26 0 -43 23t-17 57q0 43 26 83.5t70 66.5zM307 749q-28 -22 -43.5 -55.5t-13.5 -65.5h11q22 0 36.5 -14t14.5 -34t-14.5 -34.5t-35.5 -14.5q-26 0 -43.5 23t-17.5 57
q0 43 26.5 84t70.5 66z" />
    <glyph glyph-name="quotedblright" unicode="&#x201d;" horiz-adv-x="383" 
d="M206 544q28 22 43.5 55t13.5 65h-11q-21 0 -35.5 14t-14.5 34q0 21 14.5 35t35.5 14q26 0 43 -22.5t17 -57.5q0 -42 -26.5 -83t-69.5 -66zM65 544q28 22 43.5 55t13.5 65h-11q-21 0 -35.5 14t-14.5 34q0 21 14.5 35t35.5 14q26 0 43 -22.5t17 -57.5q0 -42 -26.5 -83
t-69.5 -66z" />
    <glyph glyph-name="quoteleft" unicode="&#x2018;" horiz-adv-x="242" 
d="M167 749q-28 -22 -43.5 -55.5t-13.5 -65.5h11q21 0 36 -14t15 -34t-14.5 -34.5t-35.5 -14.5q-27 0 -44 23t-17 57q0 43 26 83.5t70 66.5z" />
    <glyph glyph-name="quoteright" unicode="&#x2019;" horiz-adv-x="242" 
d="M65 544q28 22 43.5 55t13.5 65h-11q-21 0 -35.5 14t-14.5 34q0 21 14.5 35t35.5 14q26 0 43 -22.5t17 -57.5q0 -42 -26.5 -83t-69.5 -66z" />
    <glyph glyph-name="guillemotleft" unicode="&#xab;" horiz-adv-x="485" 
d="M40 283l163 245l28 -17l-115 -228l115 -229l-28 -17zM234 283l163 245l28 -17l-115 -228l115 -229l-28 -17z" />
    <glyph glyph-name="guillemotright" unicode="&#xbb;" horiz-adv-x="485" 
d="M250 282l-162 -245l-28 17l115 228l-115 229l28 17zM445 282l-163 -245l-28 17l115 228l-115 229l28 17z" />
    <glyph glyph-name="guilsinglleft" unicode="&#x2039;" horiz-adv-x="291" 
d="M40 283l163 245l28 -17l-115 -228l115 -229l-28 -17z" />
    <glyph glyph-name="guilsinglright" unicode="&#x203a;" horiz-adv-x="291" 
d="M60 54l115 229l-115 228l28 17l162 -245l-162 -246z" />
    <glyph glyph-name="quotedbl" unicode="&#x22;" horiz-adv-x="306" 
d="M50 760h85l-43 -211zM172 760h85l-43 -211z" />
    <glyph glyph-name="quotesingle" unicode="'" horiz-adv-x="184" 
d="M50 760h85l-43 -211z" />
    <glyph glyph-name="guillemotleft.case" horiz-adv-x="485" 
d="M40 343l163 245l28 -17l-115 -228l115 -229l-28 -17zM234 343l163 245l28 -17l-115 -228l115 -229l-28 -17z" />
    <glyph glyph-name="guillemotright.case" horiz-adv-x="485" 
d="M250 342l-162 -245l-28 17l115 228l-115 229l28 17zM445 342l-163 -245l-28 17l115 228l-115 229l28 17z" />
    <glyph glyph-name="guilsinglleft.case" horiz-adv-x="291" 
d="M40 343l163 245l28 -17l-115 -228l115 -229l-28 -17z" />
    <glyph glyph-name="guilsinglright.case" horiz-adv-x="291" 
d="M60 114l115 229l-115 228l28 17l162 -245l-162 -246z" />
    <glyph glyph-name="quotedbl.osf" horiz-adv-x="268" 
d="M31 580h84l-42 -211zM153 580h84l-42 -211z" />
    <glyph glyph-name="quotesingle.osf" horiz-adv-x="146" 
d="M31 580h84l-42 -211z" />
    <glyph glyph-name="quotedbl.tf" 
d="M113 760h85l-43 -211zM235 760h85l-43 -211z" />
    <glyph glyph-name="quotesingle.tf" 
d="M113 760h85l-43 -211z" />
    <glyph glyph-name="quotedbl.tosf" 
d="M74 580h85l-42 -211zM196 580h85l-42 -211z" />
    <glyph glyph-name="quotesingle.tosf" 
d="M74 580h85l-42 -211z" />
    <glyph glyph-name="uni2003" unicode="&#x2003;" horiz-adv-x="740" 
 />
    <glyph glyph-name="uni2002" unicode="&#x2002;" horiz-adv-x="374" 
 />
    <glyph glyph-name="uni200A" unicode="&#x200a;" horiz-adv-x="120" 
 />
    <glyph glyph-name="uni00A0" unicode="&#xa0;" horiz-adv-x="200" 
 />
    <glyph glyph-name="uni2009" unicode="&#x2009;" horiz-adv-x="145" 
 />
    <glyph glyph-name="uni0E3F" unicode="&#xe3f;" horiz-adv-x="619" 
d="M510 63.5q-59 -51.5 -170 -61.5v-142h-43v140h-7h-220l41 87v568l-62 70h223h25v134h43v-138q91 -11 139.5 -54t48.5 -113q0 -117 -131 -159q85 -20 128.5 -68t43.5 -124q0 -88 -59 -139.5zM183 413h61q21 0 53 2v266q-9 1 -29 1h-85v-269zM425.5 635q-27.5 31 -85.5 41
v-254q113 25 113 129q0 53 -27.5 84zM297 43v325q-14 1 -44 1h-70v-326h103h11zM491 207q0 68 -36.5 106t-114.5 50v-317q151 21 151 161z" />
    <glyph glyph-name="uni20BF" unicode="&#x20bf;" horiz-adv-x="609" 
d="M110 87v568l-62 70h179v134h43v-134q46 0 81 -7v141h42v-149q65 -19 99 -59t34 -98t-33 -98t-97 -60q85 -20 128.5 -68t43.5 -124t-44.5 -125.5t-130.5 -67.5v-150h-42v144q-27 -4 -62 -4h-19v-140h-43v140h-158zM182 682v-269h61q106 0 157 34t51 105q0 66 -45 98
t-139 32h-85zM182 369v-326h103q205 0 205 164q0 84 -57 123t-181 39h-70z" />
    <glyph glyph-name="cent" unicode="&#xa2;" horiz-adv-x="550" 
d="M529 122q-35 -60 -85 -93t-117 -40v-129h-42v129q-74 2 -129 35t-85.5 91.5t-30.5 136.5q0 81 31.5 146.5t87 105.5t126.5 44v131h42v-133q48 -4 87.5 -25.5t62.5 -54t23 -69.5q0 -48 -39 -48q-18 0 -27 12t-12 40q-13 104 -116 104q-58 0 -101.5 -30t-67 -84t-23.5 -125
q0 -109 54.5 -170t150.5 -61q112 0 202 93z" />
    <glyph glyph-name="currency" unicode="&#xa4;" horiz-adv-x="560" 
d="M207 109q-35 13 -63 36l-70 -69l-29 30l69 69q-49 60 -49 136q0 77 49 137l-69 69l29 30l70 -69q28 23 63 36t73 13t73 -13t64 -36l69 69l30 -30l-70 -69q50 -61 50 -137q0 -75 -50 -136l70 -69l-30 -30l-69 69q-29 -23 -64 -36t-73 -13t-73 13zM366.5 162
q39.5 23 63 62.5t23.5 86.5t-23.5 87t-63 63t-86.5 23t-87 -23t-63 -63t-23 -87t23 -86.5t63 -62.5t87 -23t86.5 23z" />
    <glyph glyph-name="dollar" unicode="$" horiz-adv-x="629" 
d="M77 158l83 -51q34 -20 74 -38v302q-90 41 -132.5 90.5t-42.5 113.5q0 73 49 118.5t126 45.5v120h42v-123q35 -5 81 -24v147h42v-169q7 -4 34 -24l93 59v-172l-70 51q-26 22 -57 38v-258q97 -43 139 -90.5t42 -112.5q0 -77 -50.5 -129.5t-130.5 -61.5v-130h-42v128
q-37 1 -81 14v-142h-42v156q-35 16 -69 38l-88 -64v168zM234 696q-52 0 -80.5 -28t-28.5 -77q0 -42 24.5 -72.5t84.5 -61.5v239zM357 403v262q-43 21 -81 28v-256zM357 33v285l-81 35v-300q46 -16 81 -20zM483.5 70.5q30.5 33.5 30.5 89.5q0 44 -25 74.5t-90 63.5v-266
q54 5 84.5 38.5z" />
    <glyph glyph-name="dong" unicode="&#x20ab;" horiz-adv-x="637" 
d="M466 113q-26 -59 -76.5 -92t-113.5 -33q-66 0 -115 34.5t-76 98.5t-27 148q0 85 26.5 148t75.5 97t115 34q60 0 107.5 -29t76.5 -82v167h-179v38h179v21l-80 87h150v-108h84v-38h-84v-535l61 -69h-124v113zM459 377q-18 53 -61 84t-99 31q-78 0 -123 -59.5t-45 -163.5
q0 -103 45.5 -163.5t122.5 -60.5q38 0 75 13.5t61 39.5t24 61v218zM612 -86v-44h-552v44h552z" />
    <glyph glyph-name="Euro" unicode="&#x20ac;" horiz-adv-x="645" 
d="M91 302q-1 36 2 78h-73v43h79q16 88 58 156.5t103.5 107t134.5 38.5q54 0 101.5 -21t76 -56t28.5 -75q0 -24 -10.5 -37t-29.5 -13q-17 0 -26.5 12.5t-11.5 38.5q-7 53 -38 80t-84 27q-88 0 -150 -71t-80 -187h340l-24 -43h-319q-2 -30 -2 -46l1 -32h279l-24 -43h-250
q18 -109 79 -172.5t149 -63.5q106 0 197 96l9 -7q-37 -68 -95 -102.5t-133 -34.5q-116 0 -192 76.5t-92 207.5h-74v43h71z" />
    <glyph glyph-name="florin" unicode="&#x192;" horiz-adv-x="315" 
d="M27 -154q11 10 29 10q16 0 36 -9q3 -1 15.5 -5t26.5 -4q32 0 52 21t20 55q0 41 -32.5 68.5t-88.5 33.5l34 78v391h-91v45h85q-13 15 -20 37.5t-7 47.5q0 63 41 104t103 41q31 0 48.5 -11t17.5 -31q0 -15 -11 -24t-29 -9q-12 0 -30 6q-20 6 -32 6q-31 0 -50 -21.5
t-19 -57.5q0 -41 25.5 -64.5t69.5 -23.5h51v-45h-82v-461q27 -21 43 -52.5t16 -64.5q0 -58 -43.5 -94.5t-112.5 -36.5q-37 0 -56.5 11t-19.5 33q0 16 11 26z" />
    <glyph glyph-name="franc" unicode="&#x20a3;" horiz-adv-x="562" 
d="M183 681v-278h192l63 55v-156l-68 56h-187v-145h178v-38h-178v-105l61 -70h-174l41 87v88h-83v38h83v442l-62 70h473v-143l-86 99h-253z" />
    <glyph glyph-name="uni20B4" unicode="&#x20b4;" horiz-adv-x="693" 
d="M413 356l-46 -20h275v-43h-371q-69 -34 -96 -66t-27 -77q0 -53 41 -85.5t108 -32.5q94 0 208 70l81 53v-165l-88 64q-46 -31 -100 -48.5t-105 -17.5q-62 0 -109.5 21.5t-74.5 61.5t-27 93q0 39 12.5 70.5t39.5 58.5h-82v43h137q40 25 94 48l56 24h-287v43h380
q57 31 81 64t24 75q0 49 -33.5 78t-87.5 29q-43 0 -98.5 -22.5t-114.5 -64.5l-70 -53v168l89 -57q103 71 203 71q80 0 129 -44.5t49 -116.5t-48 -127h87v-43h-134q-37 -27 -95 -52z" />
    <glyph glyph-name="uni20AD" unicode="&#x20ad;" horiz-adv-x="636" 
d="M447 0l21 81l-193 269h-33l-50 -51v-229l62 -70h-175l41 87v263h-83v38h83v267l-61 70h174l-41 -87v-250h32l260 264l-53 73h178l-300 -305l23 -32h243v-38h-215l257 -350h-170z" />
    <glyph glyph-name="uni20BA" unicode="&#x20ba;" horiz-adv-x="585" 
d="M108 87v183l-70 -27v40l70 26v52l-70 -26v40l70 26v254l-61 70h174l-41 -87v-210l186 68v-40l-186 -68v-52l186 68v-40l-186 -68v-252h96q105 0 158 69t53 206h73q0 -155 -73 -237t-211 -82h-209z" />
    <glyph glyph-name="uni20B1" unicode="&#x20b1;" horiz-adv-x="674" 
d="M636 526h-67v-13q0 -20 -3 -40h70v-43h-82q-61 -145 -357 -148v-212l61 -70h-174l41 87v343h-82v43h82v53h-82v43h82v86l-62 70h248q103 0 168.5 -40.5t83.5 -115.5h73v-43zM197 569h290q-17 55 -63.5 84t-118.5 29h-108v-113zM494 526h-297v-53h295q3 17 3 35
q0 12 -1 18zM386.5 348q68.5 27 93.5 82h-283v-111q121 2 189.5 29z" />
    <glyph glyph-name="uni20BD" unicode="&#x20bd;" horiz-adv-x="608" 
d="M475.5 376q-92.5 -52 -278.5 -54v-53h289v-43h-289v-156l61 -70h-174l41 87v139h-82v43h82v53h-82v43h82v290l-62 70h248q122 0 189.5 -49.5t67.5 -141.5q0 -106 -92.5 -158zM197 365q110 2 174.5 18.5t93.5 52t29 97.5q0 73 -47.5 111t-141.5 38h-108v-317z" />
    <glyph glyph-name="uni20A8" unicode="&#x20a8;" horiz-adv-x="1134" 
d="M111 87v568l-62 70h239q124 0 188.5 -44t64.5 -129q0 -82 -58.5 -134.5t-168.5 -72.5q126 -29 187 -212q17 -51 33.5 -69.5t46.5 -18.5q-6 -51 -59 -51q-36 0 -56.5 27t-37.5 94q-29 118 -86 168.5t-159 50.5v-264l61 -70h-174zM183 682v-308h43q112 0 178 46t66 125
q0 67 -48 102t-139 35h-100zM652 129l73 -40q56 -31 99.5 -44.5t86.5 -13.5q54 0 80.5 20t26.5 61q0 30 -15.5 51t-52 39t-102.5 38q-103 31 -150.5 73.5t-47.5 104.5q0 60 39.5 95t107.5 35q82 0 159 -54l78 41v-144l-69 51q-84 64 -162 64q-46 0 -69.5 -19.5t-23.5 -57.5
q0 -43 35 -69t126 -51q109 -30 158.5 -73t49.5 -109q0 -67 -44 -103t-124 -36q-46 0 -87.5 12.5t-85.5 39.5l-86 -50v139z" />
    <glyph glyph-name="uni20B9" unicode="&#x20b9;" horiz-adv-x="557" 
d="M60 358h53q97 0 159 41.5t71 112.5h-298l26 43h272q-8 62 -61.5 94.5t-150.5 32.5h-86l26 43h467l-26 -43h-186q83 -40 90 -127h122l-26 -43h-97q-10 -79 -77.5 -127.5t-186.5 -60.5l366 -324h-101l-356 318v40z" />
    <glyph glyph-name="uni20AA" unicode="&#x20aa;" horiz-adv-x="867" 
d="M70 0l41 87v568l-62 70h269q94 0 147.5 -19.5t77.5 -63.5t24 -120v-366h-70v365q0 60 -18 95t-58 50.5t-109 15.5h-132v-681zM800 725l-41 -87v-568l62 -70h-269q-94 0 -147.5 19.5t-77.5 63.5t-24 120v366h71v-365q0 -60 17.5 -95t57.5 -50.5t109 -15.5h132v682h110z
" />
    <glyph glyph-name="sterling" unicode="&#xa3;" horiz-adv-x="554" 
d="M43.5 7.5q-24.5 19.5 -24.5 49.5q0 32 27 51.5t71 19.5q21 0 66 -10q3 23 3 44q0 81 -44 201h-110v42h93q-29 87 -29 145q0 88 51.5 138.5t141.5 50.5q59 0 105.5 -22.5t72.5 -62.5t26 -91q0 -56 -35 -56q-34 0 -34 58q0 62 -34.5 97t-95.5 35q-62 0 -94.5 -36.5
t-32.5 -106.5q0 -30 7 -64t23 -85h145v-42h-131q35 -104 35 -180q0 -41 -11 -80q128 -46 176 -46q30 0 49.5 15t33.5 49l21 -10q-12 -61 -44 -92t-82 -31q-71 0 -181 58q-19 -28 -45 -43t-57 -15q-38 0 -62.5 19.5zM74.5 37.5q10.5 -6.5 29.5 -6.5q42 0 64 33q-38 16 -64 16
q-19 0 -29.5 -6.5t-10.5 -17.5q0 -12 10.5 -18.5z" />
    <glyph glyph-name="uni20B8" unicode="&#x20b8;" horiz-adv-x="614" 
d="M570 725v-45h-526v45h526zM272 87v490h-138l-90 -106v151h526v-151l-90 106h-136v-507l61 -70h-174z" />
    <glyph glyph-name="uni20A9" unicode="&#x20a9;" horiz-adv-x="938" 
d="M176 331l-25 83h-82v43h69l-56 182l-73 86h187l-37 -80l58 -188h230l9 31l-48 151l-73 86h182l-37 -80l59 -188h241l56 184l-73 84h156l-33 -74l-60 -194h62v-43h-75l-25 -83h100v-43h-113l-88 -288h-78l-91 288h-76l-86 -288h-78l-88 288h-121v43h107zM410 331l25 83
h-206l26 -83h155zM455 331h51l-27 83zM742 331l26 83h-215l25 -83h164zM398 288h-130l66 -214zM730 288h-138l70 -222z" />
    <glyph glyph-name="yen" unicode="&#xa5;" horiz-adv-x="589" 
d="M266 87v154h-165v43h165v64h-165v42h139l-161 242l-79 93h199l-40 -84l162 -247l164 261l-62 70h155l-211 -335h137v-42h-165l-1 -3v-61h166v-43h-166v-171l62 -70h-174z" />
    <glyph glyph-name="uni0E3F.osf" horiz-adv-x="610" 
d="M500.5 40q-49.5 -35 -160.5 -39v-141h-42v140h-231l41 86v374l-61 70h244h7v134h42v-135q95 -6 142 -37.5t47 -92.5q0 -90 -133 -118q154 -30 154 -134q0 -72 -49.5 -107zM180 298h69q105 0 155 24t50 75q0 46 -41 68t-126 22h-107v-189zM472 150q0 55 -50 80t-163 25
h-79v-212h121q171 0 171 107z" />
    <glyph glyph-name="uni20BF.osf" horiz-adv-x="575" 
d="M108 86v374l-61 70h183v134h42v-134h22q33 0 60 -3v137h42v-143q65 -14 99 -45t34 -77q0 -90 -133 -118q154 -30 154 -133q0 -55 -39.5 -91t-114.5 -50v-147h-42v142q-26 -2 -49 -2h-33v-140h-42v140h-163zM180 487v-189h69q104 0 154.5 24.5t50.5 74.5q0 46 -41 68
t-126 22h-107zM180 255v-212h121q171 0 171 107q0 55 -50 80t-163 25h-79z" />
    <glyph glyph-name="cent.osf" horiz-adv-x="569" 
d="M536 122q-75 -134 -231 -134q-92 0 -155 46l-61 -85l-33 25l63 88q-65 68 -65 187q0 85 34.5 153.5t95 107t134.5 38.5q70 0 124 -35l53 74l34 -26l-53 -74q47 -49 47 -115q0 -56 -40 -56q-42 0 -43 66q-2 29 -8 45l-243 -340q50 -52 138 -52q111 0 201 93zM163 122
l248 349q-31 33 -89 33q-89 0 -141.5 -65.5t-52.5 -176.5q0 -87 35 -140z" />
    <glyph glyph-name="dollar.osf" horiz-adv-x="558" 
d="M50 132l73 -41q57 -32 106.5 -46.5t100.5 -14.5q62 0 92 20t30 63q0 30 -16.5 50.5t-56.5 38t-114 37.5q-118 32 -167.5 71.5t-49.5 100.5q0 58 39 94.5t107 41.5v93h43v-93q41 -3 82 -18v111h42v-129q18 -8 29 -18l80 41v-146l-69 52q-85 64 -181 64q-109 0 -109 -79
q0 -28 15.5 -47t52.5 -34.5t106 -33.5q87 -22 136.5 -45t71.5 -53t22 -73q0 -63 -40.5 -102t-113.5 -47v-103h-42v101q-40 0 -82 10v-111h-43v124q-25 9 -58 29l-86 -50v142z" />
    <glyph glyph-name="dong.osf" horiz-adv-x="628" 
d="M466 113q-26 -59 -76.5 -92t-113.5 -33q-66 0 -115 34.5t-76 98.5t-27 148q0 85 26.5 148t75.5 97t115 34q60 0 107.5 -29t76.5 -82v167h-179v38h179v21l-80 87h150v-108h84v-38h-84v-535l61 -69h-124v113zM459 377q-18 53 -61 84t-99 31q-78 0 -123 -59.5t-45 -163.5
q0 -103 45.5 -163.5t122.5 -60.5q38 0 75 13.5t61 39.5t24 61v218zM612 -86v-44h-552v44h552z" />
    <glyph glyph-name="Euro.osf" horiz-adv-x="593" 
d="M100 221q-1 8 -1 30q0 21 1 29h-80v41h85q20 103 89 165t167 62q50 0 91 -16.5t64.5 -45t23.5 -62.5q0 -23 -10.5 -35t-29.5 -12q-17 0 -26.5 12t-13.5 36q-7 41 -30 60.5t-67 19.5q-73 0 -122 -49.5t-63 -134.5h324l-28 -41h-300l-1 -25q0 -12 2 -34h264l-28 -41h-228
q17 -71 65 -108t124 -37q53 0 92.5 21t81.5 72l8 -6q-36 -70 -86 -102t-123 -32q-96 0 -159 50.5t-81 141.5h-85v41h80z" />
    <glyph glyph-name="florin.osf" horiz-adv-x="349" 
d="M116 0v340h-99v45h93q-17 20 -17 52q0 49 44 80t112 31q38 0 59.5 -10.5t21.5 -29.5q0 -15 -12 -23.5t-32 -8.5q-11 0 -33 4q-4 1 -17 3t-27 2q-36 0 -56.5 -13t-20.5 -36t23 -37t62 -14h67v-45h-98v-340h-70z" />
    <glyph glyph-name="franc.osf" horiz-adv-x="582" 
d="M537 529v-141l-84 96h-255v-181h195l59 53v-152l-65 54h-189v-86h155v-38h-155v-64l62 -70h-174l40 87v47h-82v38h82v287l-61 70h472z" />
    <glyph glyph-name="uni20B4.osf" horiz-adv-x="687" 
d="M526 310q-54 -45 -167 -71h276v-42h-401q-29 -16 -40.5 -34.5t-11.5 -43.5q0 -43 32.5 -65.5t82.5 -22.5q49 0 98 16t106 50l73 43v-150l-86 59q-45 -29 -94 -45t-92 -16q-92 0 -141.5 38.5t-49.5 106.5q0 36 16 64h-75v42h111q53 44 176 71h-287v43h413q22 14 31 32.5
t9 42.5q0 77 -120 77q-41 0 -89.5 -16t-90.5 -46l-69 -49v141l79 -41q38 26 86 40t90 14q88 0 136.5 -37t48.5 -102q0 -31 -14 -56h73v-43h-109z" />
    <glyph glyph-name="uni20AD.osf" horiz-adv-x="582" 
d="M372 0l22 81l-124 174h-22l-56 -56v-199h-113l41 87v168h-82v38h82v167l-61 70h174l-41 -87v-150h39l165 164l-53 73h179l-214 -214l17 -23h201v-38h-172l191 -255h-173zM193 255h-1v-1z" />
    <glyph glyph-name="uni20BA.osf" horiz-adv-x="584" 
d="M108 87v81l-70 -25v40l70 25v51l-70 -25v40l70 25v161l-61 70h174l-41 -87v-117l158 58v-40l-158 -58v-51l158 58v-40l-158 -58v-151h32q125 0 188.5 53t66.5 161h74q-4 -127 -86 -192.5t-238 -65.5h-150z" />
    <glyph glyph-name="uni20B1.osf" horiz-adv-x="643" 
d="M610 380h-68q1 -8 1 -24q0 -14 -3 -28h70v-43h-86q-62 -97 -328 -100v-115l61 -70h-174l41 87v198h-81v43h81v52h-81v43h81v37l-62 70h226q95 0 157 -27.5t85 -79.5h80v-43zM196 423h256q-40 64 -168 64h-88v-64zM467 380h-271v-52h270q3 14 3 29q0 9 -2 23zM359.5 238.5
q60.5 14.5 87.5 46.5h-251v-63q103 2 163.5 16.5z" />
    <glyph glyph-name="uni20BD.osf" horiz-adv-x="580" 
d="M439 262.5q-88 -42.5 -242 -44.5v-34h265v-43h-265v-71l62 -70h-174l41 105v36h-82v43h82v34h-82v42h82v200l-62 70h226q118 0 177.5 -34t59.5 -111q0 -80 -88 -122.5zM197 260q125 0 190 29.5t65 96.5q0 55 -40.5 78t-126.5 23h-88v-227z" />
    <glyph glyph-name="uni20A8.osf" horiz-adv-x="1123" 
d="M1019 236q50 -43 50 -107t-43.5 -102.5t-122.5 -38.5q-44 0 -86 12.5t-90 39.5l-86 -50v139l73 -40q56 -31 100 -44.5t87 -13.5q106 0 106 81q0 30 -15.5 51t-52 39t-102.5 38q-103 31 -150.5 74t-47.5 107q0 58 37 92.5t104 34.5q79 0 165 -54l79 41v-144l-69 51
q-85 64 -164 64q-45 0 -68.5 -20t-23.5 -58q0 -29 15 -49t49.5 -36.5t96.5 -33.5q109 -30 159 -73zM519.5 54q13.5 -11 42.5 -11q-1 -49 -55 -49q-32 0 -52 20.5t-31 65.5q-20 80 -68.5 117t-136.5 37v-164l62 -70h-174l41 87v373l-62 70h239q216 0 216 -131
q0 -63 -49 -100.5t-151 -53.5q114 -22 155 -148q10 -32 23.5 -43zM263 274q100 0 153.5 30.5t53.5 86.5q0 48 -39 72t-112 24h-100v-213h44z" />
    <glyph glyph-name="uni20B9.osf" horiz-adv-x="531" 
d="M55 250h53q84 0 138 30t64 81h-270l26 43h244q-10 41 -56.5 62t-127.5 21h-86l26 43h444l-26 -43h-163q54 -29 63 -83h126l-26 -43h-101q-10 -59 -69.5 -96.5t-160.5 -48.5l336 -216h-104l-330 210v40z" />
    <glyph glyph-name="uni20AA.osf" horiz-adv-x="765" 
d="M392.5 451q-34.5 36 -113.5 36h-102v-486l-110 -1l41 86v375l-61 69h237q115 0 164.5 -46t49.5 -152v-190h-71v190q0 83 -34.5 119zM717 0h-236q-115 0 -165 46t-50 152v190h71v-190q0 -83 34.5 -119t114.5 -36h102v487h109l-40 -86v-375z" />
    <glyph glyph-name="sterling.osf" horiz-adv-x="553" 
d="M42 309h82q-9 39 -9 71q0 77 47 122.5t126 45.5q51 0 91.5 -19.5t63 -53.5t22.5 -77q0 -26 -9 -39.5t-26 -13.5q-34 0 -34 53q0 52 -27.5 80t-77.5 28q-102 0 -102 -120q0 -29 9 -77h131v-43h-121q19 -73 19 -118q0 -25 -4 -45q113 -46 185 -46q32 0 50.5 13t34.5 47
l21 -10q-11 -59 -43.5 -89t-83.5 -30q-73 0 -185 60q-16 -29 -41.5 -44.5t-57.5 -15.5q-38 0 -61 20t-23 52q0 31 23 48t62 17q29 0 57 -8q1 8 1 22q0 27 -5.5 54.5t-20.5 72.5h-94v43zM105 78q-18 0 -29.5 -6.5t-11.5 -17.5q0 -10 10.5 -16.5t27.5 -6.5q41 0 55 36
q-31 11 -52 11z" />
    <glyph glyph-name="uni20B8.osf" horiz-adv-x="583" 
d="M530 530v-45h-477v45h477zM53 427h477v-146l-86 102h-116v-313l62 -70h-174l40 87v296h-117l-86 -102v146z" />
    <glyph glyph-name="uni20A9.osf" horiz-adv-x="838" 
d="M160 223l-25 64h-95v42h79l-44 112l-77 89h187l-35 -75l49 -126h218l1 3l-41 112l-74 86h182l-36 -78l44 -123h201l47 123l-70 78h148l-78 -201h74v-42h-90l-24 -64h114v-43h-130l-70 -180h-76l-66 180h-71l-78 -180h-77l-70 180h-137v43h120zM372 223l27 64h-184l25 -64
h132zM654 223l24 64h-169l23 -64h122zM458 223l-17 46l-21 -46h38zM303 59l51 121h-98zM591 58l47 122h-91z" />
    <glyph glyph-name="yen.osf" horiz-adv-x="534" 
d="M240 87v96h-167v43h167v29l-22 25h-145v42h108l-182 208h198l-39 -81l130 -152l136 173l-54 60h155l-162 -208h114v-42h-147l-20 -25v-29h167v-43h-167v-113l62 -70h-173z" />
    <glyph glyph-name="uni0E3F.tf" 
d="M397 1v-141h-43v140h-244l41 87v568l-62 70h265v134h43v-135q110 -5 168.5 -47t58.5 -122q0 -62 -40 -104.5t-117 -57.5q89 -16 136 -65.5t47 -126.5q0 -191 -253 -200zM223 411h91q120 0 177 34t57 105q0 67 -47.5 99.5t-148.5 32.5h-129v-271zM571 205q0 85 -59 124
t-189 39h-100v-325h142q206 0 206 162z" />
    </font>
</defs>
</svg>
